<svg
    width="7773"
    height="7615"
    viewBox="0 0 7773 7615"
    fill="none"
    xmlns="http://www.w3.org/2000/svg">
<path id="AL"
    d="M5161.54 6772.2C5161.6 6772.06 5161.67 6771.91 5161.73 6771.76C5161.67 6771.91 5161.62 6772.06 5161.54 6772.2C5159.96 6771.91 5158.4 6771.56 5156.84 6771.21C5154.95 6770.83 5153.05 6770.49 5151.16 6770.16C5148.84 6769.72 5146.53 6769.19 5144.19 6768.84C5141.89 6768.47 5139.62 6768.22 5137.39 6767.52C5133.88 6766.43 5131.18 6764.28 5128.88 6761.52C5127.45 6759.7 5126.23 6757.77 5125.02 6755.79C5125.09 6755.92 5125.17 6756.05 5125.28 6756.18C5123.13 6752.66 5121.34 6749.06 5119.78 6745.26C5118.33 6741.65 5117.28 6737.98 5116.31 6734.23C5115.39 6730.77 5114.45 6727.32 5113.6 6723.86C5112.91 6721.01 5112.37 6718.09 5111.58 6715.24C5111.33 6714.52 5111.07 6713.8 5110.77 6713.09C5110.11 6711.71 5109.45 6710.31 5108.72 6708.97C5107.83 6707.61 5106.91 6706.29 5105.94 6705C5104.67 6703.6 5103.35 6702.26 5101.99 6700.92C5098.46 6697.68 5094.73 6694.71 5090.9 6691.84C5090.72 6691.73 5090.55 6691.6 5090.41 6691.47C5086.56 6688.73 5082.58 6686.36 5078.44 6684.15C5078.83 6684.38 5079.25 6684.6 5079.63 6684.8C5076.45 6683.12 5073.22 6681.65 5069.86 6680.37C5068.46 6679.89 5067.04 6679.49 5065.61 6679.14C5063.84 6678.73 5062.06 6678.46 5060.26 6678.27C5057.02 6678.03 5053.77 6678.05 5050.54 6677.9C5046.49 6677.74 5042.61 6677.1 5038.7 6676.14C5031.09 6674.27 5023.81 6671.1 5017.06 6667.15C5014.01 6665.39 5010.98 6663.42 5008.31 6661.09C5006.88 6659.84 5005.61 6658.51 5004.45 6657.02C5003.31 6655.53 5002.5 6653.88 5001.73 6652.17C5000.33 6649.04 5000.06 6645.41 5000.06 6642.02C5000.06 6638.48 5000.57 6634.93 5000.94 6631.4C5001.01 6630.66 5001.01 6629.93 5001.01 6629.17C5001 6628.86 5000.98 6628.55 5000.94 6628.24C5000.89 6628.03 5000.85 6627.83 5000.78 6627.63C5000.67 6627.23 5000.52 6626.82 5000.35 6626.44C4999.87 6625.41 4999.36 6624.41 4998.81 6623.44C4997.65 6621.66 4996.42 6619.89 4995.11 6618.2C4992.95 6615.35 4990.78 6612.39 4989.47 6609.01C4987.38 6603.66 4987.04 6598.15 4987.65 6592.47C4987.85 6590.52 4988.22 6588.57 4988.57 6586.64C4986.71 6586.05 4984.93 6585.28 4983.39 6584.01C4980.5 6581.62 4978.31 6578.44 4977.41 6574.76C4976.49 6571.03 4975.98 6567.21 4975.57 6563.4C4974.6 6554.12 4974.75 6544.87 4974.27 6535.61C4974.05 6532.5 4973.79 6529.43 4973.66 6526.33C4973.55 6523.79 4973.55 6521.03 4974.36 6518.59C4974.82 6517.17 4975.28 6515.87 4976.02 6514.56C4976.88 6513.09 4977.96 6511.9 4979.12 6510.63C4981.09 6508.51 4983.94 6507.21 4986.51 6505.98C4991.38 6503.68 4996.82 6502.34 5002.17 6501.62C5005.7 6501.16 5009.23 6501.2 5012.78 6501.05C5013.04 6501.03 5013.28 6501 5013.53 6500.98C5013.57 6500.96 5013.61 6500.96 5013.64 6500.94C5013.7 6500.94 5013.77 6500.9 5013.83 6500.89C5013.92 6500.83 5014.03 6500.78 5014.14 6500.72C5014.27 6500.63 5014.4 6500.54 5014.51 6500.44C5015.22 6499.8 5015.9 6499.16 5016.58 6498.48C5017.12 6497.83 5017.67 6497.19 5018.17 6496.51C5016.22 6492.98 5013.88 6489.64 5011.93 6486.07C5008.85 6480.46 5006.35 6474.56 5003 6469.12C5002.15 6467.85 5001.24 6466.64 5000.28 6465.46C4997.52 6462.34 4994.45 6459.45 4992.1 6456C4989.34 6451.86 4988.39 6447.06 4987.78 6442.21C4987.41 6439.31 4987.25 6436.33 4987.28 6433.39C4987.32 6429.27 4987.87 6425.19 4988.79 6421.14C4989.07 6419.89 4989.42 6418.68 4989.77 6417.47C4988.99 6417.05 4988.26 6416.68 4987.5 6416.27V6416.29C4983.17 6414.1 4978.61 6412.3 4974.45 6409.73C4969.73 6406.79 4965.72 6403.06 4962.82 6398.3C4960.15 6393.88 4959.31 6387.95 4960.1 6382.95C4960.41 6380.91 4960.89 6378.87 4961.62 6376.94C4962.85 6373.66 4964.97 6370.8 4967.6 6368.48C4971.92 6364.68 4977.8 6362.91 4983.22 6361.29C4987.45 6360.01 4991.68 6358.79 4995.89 6357.43C4997.6 6356.81 4999.29 6356.16 5000.94 6355.39C5001.46 6355.14 5001.97 6354.82 5002.45 6354.55C5002.76 6354.33 5003.07 6354.07 5003.4 6353.83C5003.61 6353.63 5003.81 6353.43 5004.01 6353.22C5004.03 6353.11 5004.01 6353 5004.01 6352.91C5003.92 6352.29 5003.83 6351.68 5003.74 6351.05C5003.61 6350.52 5003.46 6349.97 5003.31 6349.44C5002.69 6347.73 5001.97 6346.05 5001.22 6344.36C5001.4 6344.75 5001.6 6345.15 5001.79 6345.54C4998.42 6338.55 4994.71 6331.68 4990.59 6325.1C4990.13 6324.42 4989.67 6323.74 4989.2 6323.06C4989.03 6322.99 4988.86 6322.87 4988.7 6322.8C4988.37 6322.65 4988.06 6322.53 4987.72 6322.4C4987.15 6322.21 4986.59 6322.08 4986 6321.94C4983.96 6321.57 4981.88 6321.37 4979.8 6321.17C4977.19 6320.85 4974.8 6320.15 4972.47 6319.01C4969.86 6317.56 4967.65 6315.65 4965.3 6313.85C4966.2 6311.79 4966.97 6309.68 4967.6 6307.49C4969.01 6302.67 4969.66 6297.67 4969.58 6292.67C4969.56 6289.35 4968.96 6285.85 4968.15 6282.64C4967.25 6279.03 4966.16 6275.58 4964.84 6272.12C4964.84 6272.07 4964.8 6272.01 4964.78 6271.96C4964.73 6271.81 4964.67 6271.66 4964.62 6271.53C4963.18 6267.99 4961.57 6264.53 4959.77 6261.13C4959.97 6261.5 4960.17 6261.87 4960.35 6262.23C4957.93 6257.51 4955.34 6252.89 4952.58 6248.34C4952.52 6248.21 4952.43 6248.11 4952.36 6247.99C4952.43 6248.11 4952.5 6248.23 4952.58 6248.34C4950.3 6244.59 4947.84 6240.95 4945.52 6237.23C4944.23 6235.03 4943.06 6232.8 4941.99 6230.47C4941.95 6230.43 4941.95 6230.36 4941.92 6230.3C4941 6228.17 4940.19 6226.02 4939.47 6223.81C4939.09 6222.45 4938.77 6221.11 4938.52 6219.73C4938.46 6219.2 4938.41 6218.67 4938.37 6218.12C4938.37 6217.78 4938.39 6217.44 4938.41 6217.12C4938.48 6216.66 4938.55 6216.22 4938.63 6215.76C4938.77 6215.25 4938.94 6214.73 4939.1 6214.2C4939.25 6213.81 4939.44 6213.45 4939.6 6213.08C4940.23 6211.99 4940.91 6210.96 4941.62 6209.95C4943.5 6207.38 4945.52 6204.92 4947.63 6202.55C4949.16 6200.89 4950.76 6199.31 4952.45 6197.82C4954.2 6196.39 4956.02 6195.05 4957.87 6193.78C4959.82 6192.56 4961.81 6191.43 4963.74 6190.21C4966.48 6188.5 4968.96 6186.59 4971.09 6184.15C4974.21 6180.56 4976.03 6176.06 4978.5 6172.03C4978.79 6171.61 4979.1 6171.22 4979.42 6170.82C4979.6 6170.65 4979.77 6170.49 4979.95 6170.3C4980.06 6170.23 4980.19 6170.18 4980.28 6170.12C4980.39 6170.08 4980.46 6170.05 4980.57 6170.01C4980.7 6169.97 4980.79 6169.95 4980.91 6169.92C4981.05 6169.9 4981.24 6169.86 4981.4 6169.84C4981.79 6169.84 4982.19 6169.84 4982.58 6169.84C4983.13 6169.9 4983.68 6169.99 4984.21 6170.07C4985.61 6170.4 4986.97 6170.78 4988.35 6171.24C4991.11 6172.16 4993.81 6173.15 4996.57 6174.04C4999.78 6175.07 5003.02 6176.04 5006.31 6176.81C5009.47 6177.53 5012.71 6177.9 5015.94 6178.1C5021.73 6178.48 5027.93 6178.34 5033.44 6176.32C5035.55 6175.54 5037.48 6174.44 5039.23 6173.1C5041.27 6173.74 5043.29 6174.44 5045.3 6175.19C5045.22 6175.16 5045.13 6175.14 5045.06 6175.1C5045.33 6175.19 5045.61 6175.32 5045.9 6175.41C5055.78 6179.4 5065.39 6184.18 5074.76 6189.26C5077.45 6190.75 5080.11 6192.25 5082.8 6193.72C5082.76 6193.72 5082.74 6193.7 5082.7 6193.69C5088.97 6197.12 5095.35 6200.32 5101.62 6203.7C5101.6 6203.7 5101.56 6203.69 5101.53 6203.67C5103.97 6204.99 5106.34 6206.42 5108.64 6208.04C5111.29 6210.03 5113.88 6212.05 5116.58 6213.98C5118.49 6215.32 5120.5 6216.52 5122.43 6217.84C5122.8 6218.15 5123.16 6218.45 5123.55 6218.78C5123.77 6219.11 5123.99 6219.42 5124.21 6219.75C5124.49 6220.28 5124.74 6220.8 5125.02 6221.35C5125.04 6221.37 5125.04 6221.39 5125.06 6221.41C5125.08 6221.44 5125.08 6221.48 5125.11 6221.53C5125.28 6221.96 5125.42 6222.4 5125.57 6222.84C5126.71 6227.07 5127.52 6231.37 5128.94 6235.52C5129.8 6237.99 5130.75 6240.49 5131.91 6242.84C5133.13 6245.27 5134.52 6247.6 5135.9 6249.94C5135.87 6249.88 5135.85 6249.81 5135.81 6249.73C5137.23 6252.09 5138.73 6254.33 5140.52 6256.44C5142.41 6258.67 5144.58 6260.54 5146.91 6262.29C5150.39 6264.79 5154.14 6266.85 5158.13 6268.5C5158.53 6268.67 5158.93 6268.85 5159.36 6269C5156.71 6271.18 5154.49 6273.74 5152.67 6276.63C5150.72 6279.71 5149.28 6283.26 5148.09 6286.72C5147.02 6289.81 5146.21 6293 5145.42 6296.17C5142.68 6307.29 5140.26 6318.55 5138.7 6329.91C5138.71 6329.84 5138.71 6329.77 5138.73 6329.69C5138.64 6330.37 5138.55 6331.07 5138.44 6331.77C5138.42 6331.9 5138.4 6332.03 5138.38 6332.18C5138.4 6332.05 5138.42 6331.92 5138.44 6331.77C5138.4 6332.07 5138.37 6332.34 5138.33 6332.6C5138.33 6332.65 5138.31 6332.69 5138.31 6332.75C5138.35 6332.54 5138.36 6332.34 5138.38 6332.16C5138.38 6332.34 5138.35 6332.54 5138.31 6332.75C5138.27 6332.95 5138.25 6333.13 5138.22 6333.35C5138.22 6333.39 5138.22 6333.41 5138.22 6333.44C5138.22 6333.5 5138.2 6333.55 5138.2 6333.61C5138.2 6333.63 5138.2 6333.67 5138.2 6333.68C5138.2 6333.65 5138.2 6333.63 5138.2 6333.61C5137.54 6338.65 5137.12 6343.66 5136.89 6348.74C5136.67 6354.11 5136.86 6359.44 5137.32 6364.79C5137.87 6371.33 5138.44 6377.91 5139.6 6384.38C5140.75 6390.8 5142.67 6396.92 5145.5 6402.82C5151.07 6414.42 5161.54 6422.45 5170.64 6431.16C5172.85 6433.41 5175.02 6435.72 5177.02 6438.17C5177.1 6438.26 5177.13 6438.31 5177.21 6438.41C5178.66 6440.32 5180.02 6442.27 5181.29 6444.29C5182 6445.54 5182.65 6446.81 5183.22 6448.13C5183.73 6449.38 5184.17 6450.65 5184.56 6451.93C5184.82 6452.91 5185.02 6453.9 5185.18 6454.91C5185.42 6457.1 5185.44 6459.29 5185.55 6461.53C5185.7 6464.89 5186.43 6468.07 5187.76 6471.18C5189.63 6475.56 5193.16 6479.54 5197.13 6482.14C5200.17 6484.1 5203.6 6485.43 5207 6486.7C5209.76 6487.71 5212.55 6488.63 5215.31 6489.64C5215.39 6489.65 5215.44 6489.69 5215.5 6489.71C5215.59 6489.75 5215.7 6489.76 5215.79 6489.82C5221.54 6492.14 5226.97 6495.24 5232.65 6497.76C5235.13 6498.88 5237.65 6499.89 5240.16 6500.92C5242.06 6501.69 5243.9 6502.63 5245.79 6503.35C5246.49 6503.61 5247.17 6503.81 5247.87 6503.94C5248.01 6504.76 5248.2 6505.59 5248.42 6506.42C5248.4 6506.33 5248.36 6506.22 5248.34 6506.12C5248.38 6506.27 5248.42 6506.4 5248.45 6506.55C5248.49 6506.73 5248.55 6506.93 5248.6 6507.12C5248.6 6507.1 5248.6 6507.08 5248.58 6507.08C5248.6 6507.14 5248.62 6507.19 5248.64 6507.25C5248.64 6507.26 5248.64 6507.28 5248.66 6507.28C5249.94 6511.69 5251.65 6515.96 5252.92 6520.39C5253.6 6523.09 5254.17 6525.79 5254.59 6528.55C5254.82 6530.35 5254.94 6532.14 5255.02 6533.96C5254.98 6535.5 5254.87 6537.04 5254.72 6538.59C5254.25 6541.73 5253.66 6544.86 5252.9 6547.96C5251.65 6552.8 5249.98 6557.47 5248.34 6562.17C5246.69 6566.95 5245.7 6571.9 5244.01 6576.66C5243.22 6578.55 5242.33 6580.37 5241.38 6582.17C5239.74 6585.08 5238.07 6587.96 5236.18 6590.7C5234.83 6592.54 5233.42 6594.32 5231.89 6596.01C5230.73 6597.19 5229.56 6598.35 5228.27 6599.43C5226.4 6600.88 5224.41 6602.19 5222.55 6603.7C5220.37 6605.44 5218.27 6607.19 5216.36 6609.17C5216.43 6609.08 5216.49 6609.03 5216.56 6608.94C5216.47 6609.03 5216.4 6609.1 5216.34 6609.17C5216.32 6609.17 5216.32 6609.19 5216.3 6609.19C5216.3 6609.17 5216.32 6609.17 5216.34 6609.17C5216.34 6609.17 5216.34 6609.17 5216.36 6609.17C5214.78 6610.87 5213.42 6612.61 5212.28 6614.63C5211.31 6616.38 5210.42 6618.22 5209.71 6620.06C5208.47 6623.18 5207.48 6626.43 5206.75 6629.73C5206.03 6633 5205.61 6636.32 5205.11 6639.63C5204.65 6642.72 5204.15 6645.79 5203.58 6648.86C5203.11 6651.27 5202.54 6653.7 5201.82 6656.05C5201.42 6657.17 5200.99 6658.27 5200.5 6659.38C5200.11 6660.18 5199.69 6660.96 5199.23 6661.73C5198.9 6662.15 5198.58 6662.59 5198.24 6663C5197.43 6663.88 5196.56 6664.72 5195.68 6665.55C5195.59 6665.63 5195.5 6665.7 5195.42 6665.77C5194.08 6666.89 5192.65 6667.92 5191.21 6668.92L5191.2 6668.93C5191.05 6669.03 5190.9 6669.12 5190.75 6669.21L5190.74 6669.23C5187.46 6671.34 5184.06 6673.27 5180.92 6675.57C5179.26 6676.77 5177.78 6678.18 5176.42 6679.74C5174.43 6682.04 5172.3 6684.56 5171.29 6687.48C5169.72 6692 5168.75 6696.93 5169.69 6701.71C5170.42 6705.44 5171.64 6708.99 5172.52 6712.68C5172.87 6714.61 5173.13 6716.56 5173.33 6718.53C5173.49 6720.99 5173.47 6723.42 5173.38 6725.88C5173.09 6730.42 5172.54 6734.93 5171.78 6739.41C5170.79 6744.78 5169.65 6750.16 5168.16 6755.44C5166.4 6760.94 5164.15 6766.19 5161.91 6771.49C5161.73 6771.78 5161.64 6772 5161.54 6772.2Z"
    fill="#2D4159"/>
</svg>