<svg
    width="7773"
    height="7615"
    viewBox="0 0 7773 7615"
    fill="none"
    xmlns="http://www.w3.org/2000/svg">
    <path id="AT"
        d="M3505.6 5370.47C3505.55 5370.47 3505.49 5370.45 3505.44 5370.43C3505.33 5370.39 3505.23 5370.39 3505.14 5370.37C3500.46 5369.53 3495.79 5368.54 3491.21 5367.18C3489.96 5366.79 3488.73 5366.35 3487.48 5365.83C3487.13 5365.65 3486.76 5365.47 3486.43 5365.28C3486.23 5365.14 3486.04 5365.01 3485.86 5364.88C3484.87 5364.01 3483.91 5363.1 3483.01 5362.16C3481.98 5361.05 3481.03 5359.88 3480.11 5358.7C3479.65 5358.02 3479.21 5357.32 3478.8 5356.61C3478.4 5355.8 3478.05 5354.97 3477.72 5354.16C3476.37 5350.19 3475.62 5346.04 3474.04 5342.14C3472.09 5337.38 3468.14 5333.26 3463.16 5331.72C3456.85 5329.75 3450.2 5330.89 3444.65 5334.36C3438.49 5338.19 3434.85 5344.35 3430.62 5350.01C3429.63 5351.24 3428.62 5352.43 3427.52 5353.59C3427.02 5354.07 3426.52 5354.53 3426.01 5354.97C3425.73 5355.15 3425.46 5355.37 3425.14 5355.56C3424.72 5355.63 3424.26 5355.71 3423.82 5355.74C3423.86 5355.74 3423.91 5355.74 3423.95 5355.74C3420.55 5356.13 3417.13 5356.48 3413.71 5356.59C3412.99 5356.61 3412.3 5356.57 3411.6 5356.53C3410.92 5356.44 3410.24 5356.31 3409.56 5356.18C3408.69 5355.96 3407.83 5355.71 3406.96 5355.41C3405.84 5354.95 3404.72 5354.47 3403.62 5353.92C3402.35 5353.22 3401.12 5352.45 3399.92 5351.62C3396.45 5349.16 3393.16 5346.48 3389.81 5343.87C3386.14 5340.98 3382.42 5338.15 3378.6 5335.43C3376.19 5333.72 3373.78 5332.01 3371.3 5330.45C3371.67 5328.79 3371.93 5327.1 3372.11 5325.39C3372.41 5322.71 3372.68 5320.01 3372.65 5317.31C3372.53 5306.13 3370.79 5295.04 3367.94 5284.24C3366.4 5278.45 3364.7 5272.71 3363.07 5266.96C3361.69 5262.09 3360.29 5257.21 3359.35 5252.23C3359.15 5250.91 3359.01 5249.6 3358.91 5248.28C3358.9 5247.07 3358.95 5245.85 3359.02 5244.64C3359.12 5243.89 3359.24 5243.15 3359.37 5242.42C3359.54 5241.81 3359.72 5241.2 3359.91 5240.6C3360.15 5239.99 3360.38 5239.4 3360.68 5238.81C3361.06 5238.1 3361.49 5237.42 3361.93 5236.72C3362.48 5235.98 3363.03 5235.28 3363.64 5234.6C3364.32 5233.91 3365.02 5233.21 3365.75 5232.56C3366.19 5232.22 3366.62 5231.9 3367.06 5231.61C3367.19 5231.53 3367.31 5231.46 3367.44 5231.39C3367.59 5231.41 3367.74 5231.42 3367.88 5231.46C3368.05 5231.54 3368.22 5231.57 3368.38 5231.61C3369.34 5231.99 3370.27 5232.4 3371.23 5232.86C3372.88 5233.76 3374.5 5234.72 3376.05 5235.76C3380.22 5238.76 3384.08 5242.16 3387.85 5245.63C3393.86 5251.2 3399.83 5256.79 3405.9 5262.31C3411.32 5267.2 3416.74 5272.09 3422.86 5276.07C3425.44 5277.75 3428.16 5279.37 3431.01 5280.43C3432.86 5281.13 3434.67 5281.72 3436.65 5281.94C3440.6 5282.38 3444.87 5281.26 3447.75 5278.39C3452.18 5273.98 3454.39 5267.75 3456.39 5261.94C3457.75 5257.99 3459 5254 3460.38 5250.06C3460.42 5249.94 3460.47 5249.81 3460.51 5249.68C3460.53 5249.6 3460.57 5249.51 3460.6 5249.44C3460.6 5249.42 3460.62 5249.4 3460.64 5249.37C3461.49 5247.1 3462.4 5244.9 3463.49 5242.73C3464.15 5241.55 3464.85 5240.41 3465.6 5239.31C3466.3 5238.41 3467.02 5237.55 3467.79 5236.72C3468.21 5236.3 3468.67 5235.89 3469.15 5235.49C3469.39 5235.34 3469.63 5235.17 3469.85 5235.01C3469.89 5234.97 3469.92 5234.95 3469.96 5234.95C3470.11 5234.9 3470.25 5234.86 3470.4 5234.81C3472.04 5234.44 3473.73 5234.24 3475.4 5234.02C3475.11 5234.05 3474.83 5234.09 3474.54 5234.13C3474.74 5234.11 3474.9 5234.07 3475.11 5234.05C3475.33 5234.02 3475.55 5234 3475.77 5233.98C3482.51 5233.3 3489.33 5233.12 3496.14 5233.28C3496.25 5233.3 3496.36 5233.3 3496.48 5233.3C3499.44 5233.39 3502.42 5233.45 3505.36 5233.72C3505.62 5233.76 3505.86 5233.81 3506.12 5233.87C3506.23 5233.91 3506.34 5233.94 3506.43 5234C3506.61 5234.09 3506.76 5234.16 3506.93 5234.26C3507.27 5234.48 3507.61 5234.7 3507.94 5234.94C3508.41 5235.36 3508.89 5235.78 3509.33 5236.24C3510.14 5237.12 3510.9 5238.06 3511.61 5239.02C3512.57 5240.38 3513.45 5241.79 3514.28 5243.21C3515.22 5244.81 3516.1 5246.46 3517.16 5247.95C3519.43 5251.17 3521.91 5254 3525.27 5256.11C3527.16 5257.29 3529.2 5258.13 3531.3 5258.81C3532.51 5259.2 3533.82 5259.64 3535.07 5259.84C3540.42 5260.71 3545.82 5260.73 3551.15 5259.64C3556.98 5258.46 3562.29 5255.36 3567.42 5252.45C3576.7 5247.18 3585.69 5241.39 3594.79 5235.8C3603.71 5230.32 3612.62 5224.84 3622 5220.21C3633.74 5214.75 3646 5210.62 3658.36 5206.7C3658.32 5206.72 3658.26 5206.74 3658.23 5206.74C3670.3 5203.04 3682.58 5200.19 3694.97 5197.88C3698.34 5197.31 3701.68 5196.83 3705.08 5196.59C3707.12 5196.57 3709.13 5196.66 3711.17 5196.79C3718.23 5197.62 3725.23 5198.89 3732.22 5200.23C3739.68 5201.66 3747.12 5203.15 3754.59 5204.59C3769.16 5207.38 3783.74 5209.99 3798.39 5212.22C3804.27 5213.13 3810.14 5214.02 3816.04 5214.75C3822.01 5215.51 3828.1 5216.37 3834.11 5216.08C3835.72 5216 3837.29 5215.78 3838.89 5215.38C3839.97 5215.12 3841.31 5214.64 3842.27 5214.04C3843.32 5213.36 3844.35 5212.73 3845.26 5211.88C3846.13 5211.11 3846.88 5210.27 3847.62 5209.37C3850.21 5206.15 3851.31 5201.83 3851.9 5197.84C3852.71 5192.16 3852.82 5186.32 3852.58 5180.58C3852.34 5175.36 3851.83 5170.25 3850.72 5165.14C3849.55 5159.66 3847.47 5154.51 3844.05 5150.01C3840.8 5145.71 3837.07 5141.78 3833.19 5138.01C3829.35 5134.24 3825.28 5130.65 3821.72 5126.61C3820.1 5124.61 3818.61 5122.51 3817.2 5120.38C3817.16 5120.32 3817.14 5120.25 3817.08 5120.21C3817.01 5120.08 3816.92 5119.96 3816.85 5119.81C3814.86 5116.65 3813.06 5113.41 3811.46 5110.07C3810.69 5108.38 3809.95 5106.68 3809.35 5104.96C3809.2 5104.3 3809.03 5103.65 3808.91 5102.99C3808.85 5102.47 3808.78 5102 3808.76 5101.48C3808.76 5101.45 3808.76 5101.43 3808.78 5101.39C3808.78 5101.59 3808.79 5101.8 3808.79 5102.02C3808.81 5101.67 3808.81 5101.32 3808.83 5100.95C3808.87 5100.58 3808.92 5100.2 3808.96 5099.83C3809.09 5099.31 3809.22 5098.82 3809.4 5098.32C3809.62 5097.73 3809.88 5097.16 3810.14 5096.57C3810.67 5095.6 3811.2 5094.61 3811.77 5093.63C3812.88 5092.11 3814.02 5090.62 3815.25 5089.17C3816.53 5087.84 3817.88 5086.57 3819.27 5085.31C3821.9 5083.23 3824.66 5081.32 3827.47 5079.5C3831.9 5076.72 3836.44 5074.24 3841.18 5071.98C3844.4 5070.53 3847.65 5069.13 3850.85 5067.62C3853.37 5066.43 3855.89 5065.14 3858.1 5063.45C3860.54 5061.56 3862.65 5059.48 3864.49 5057C3866.72 5054.02 3868.32 5050.69 3869.68 5047.24C3872.54 5040.12 3875.32 5032.95 3877.67 5025.64C3879.58 5019.77 3881.15 5013.84 3882.67 5007.86C3882.67 5007.9 3882.65 5007.92 3882.64 5007.94C3882.64 5007.88 3882.67 5007.84 3882.67 5007.79V5007.81C3882.67 5007.81 3882.67 5007.81 3882.67 5007.79C3882.71 5007.72 3882.71 5007.64 3882.75 5007.57C3882.71 5007.62 3882.71 5007.68 3882.67 5007.73C3882.76 5007.4 3882.86 5007.07 3882.93 5006.74C3882.87 5007 3882.78 5007.29 3882.73 5007.57C3882.93 5006.8 3883.17 5006.02 3883.43 5005.27C3883.48 5005.14 3883.57 5005 3883.61 5004.89C3883.63 5004.87 3883.63 5004.87 3883.65 5004.85C3883.72 5004.77 3883.78 5004.74 3883.85 5004.66C3883.94 5004.59 3884.03 5004.54 3884.12 5004.48C3884.45 5004.32 3884.79 5004.15 3885.12 5003.98C3885.71 5003.78 3886.31 5003.58 3886.92 5003.41C3888.33 5003.1 3889.73 5002.84 3891.16 5002.68C3894.9 5002.39 3898.63 5002.31 3902.38 5002.37C3902.52 5002.37 3902.69 5002.37 3902.84 5002.37C3902.87 5002.37 3902.89 5002.38 3902.91 5002.37C3907.97 5002.51 3913 5002.73 3918.08 5002.77C3923.68 5002.84 3929.22 5002.5 3934.77 5001.71C3945.06 5000.23 3955.1 4997.48 3964.69 4993.47C3971.4 4990.66 3977.87 4987.26 3984.25 4983.8C3987.03 4982.29 3989.78 4980.73 3992.58 4979.22C3994.09 4979.54 3995.68 4979.46 3997.16 4978.91C4001.38 4980.64 4005.61 4982.33 4009.93 4983.87C4012.28 4984.74 4014.65 4985.58 4017.08 4986.28C4019.07 4986.87 4021.11 4987.24 4023.13 4987.61C4023.63 4987.7 4024.14 4987.77 4024.67 4987.85C4028.64 4988.43 4032.67 4988.43 4036.68 4988.16C4045.94 4987.5 4055.17 4984.83 4063.66 4981.1C4072.02 4977.42 4079.89 4972.53 4087.52 4967.53C4094.69 4962.83 4101.73 4957.99 4108.35 4952.53C4112.39 4949.19 4116.79 4945.77 4119.23 4941.04C4120.41 4938.76 4121.45 4936.38 4121.75 4933.8C4121.93 4932.33 4122.02 4930.88 4122.02 4929.41C4122.04 4927.04 4121.84 4924.68 4121.4 4922.37C4120.54 4917.75 4119.19 4913.21 4118.05 4908.67C4117.04 4904.59 4116.05 4900.51 4115.2 4896.41C4115.3 4896.82 4115.37 4897.22 4115.48 4897.63C4115.22 4896.36 4114.98 4895.09 4114.8 4893.82C4114.8 4893.73 4114.8 4893.66 4114.8 4893.56C4114.84 4893.07 4114.89 4892.57 4114.93 4892.11C4114.95 4892.07 4114.95 4892.06 4114.97 4892.04V4892.02C4115.3 4891.89 4115.61 4891.78 4115.94 4891.67C4116.23 4891.6 4116.55 4891.54 4116.86 4891.45C4118.11 4891.25 4119.4 4891.05 4120.68 4890.95C4125.22 4890.79 4129.73 4891.06 4134.23 4891.41C4134.49 4891.43 4134.71 4891.45 4134.95 4891.47C4141.27 4892.04 4147.56 4892.81 4153.84 4893.58C4161.2 4894.45 4168.57 4895.05 4175.96 4895.4C4182.92 4895.71 4189.93 4895.84 4196.89 4895.86C4204.27 4895.86 4211.56 4895.81 4218.9 4896.47C4222.3 4896.84 4225.7 4897.28 4229.06 4897.96C4230.44 4898.34 4231.76 4898.75 4233.09 4899.23C4234.34 4899.72 4235.55 4900.25 4236.76 4900.86C4237.81 4901.45 4238.82 4902.06 4239.8 4902.74C4240.77 4903.45 4241.69 4904.23 4242.59 4905.03C4244.19 4906.6 4245.66 4908.27 4247.08 4910C4251.18 4915.07 4255.48 4920.13 4261.25 4923.36C4264.15 4925 4267.17 4926.36 4270.39 4927.29C4273.42 4928.16 4276.6 4928.93 4279.78 4929.06C4283.88 4929.22 4287.98 4928.64 4291.98 4927.9C4295.44 4927.28 4298.88 4926.5 4302.31 4925.77C4308.86 4924.33 4315.4 4923.03 4321.98 4921.93C4321.98 4921.93 4321.98 4921.93 4321.96 4921.93C4325.57 4921.36 4329.19 4920.84 4332.83 4920.66C4334.24 4920.64 4335.64 4920.68 4337.02 4920.77C4339.04 4921.01 4341.03 4921.32 4343.01 4921.74C4346.05 4922.52 4349.04 4923.47 4352 4924.54C4351.87 4924.48 4351.74 4924.43 4351.6 4924.39C4351.74 4924.43 4351.89 4924.48 4352.06 4924.56C4352.04 4924.56 4352.02 4924.56 4352 4924.56C4352.04 4924.57 4352.07 4924.59 4352.11 4924.59C4352.15 4924.59 4352.19 4924.63 4352.22 4924.63C4352.26 4924.65 4352.3 4924.67 4352.35 4924.68C4352.46 4924.72 4352.59 4924.78 4352.7 4924.81C4356.49 4926.28 4360.16 4927.92 4363.82 4929.59C4365.75 4930.47 4367.68 4931.38 4369.61 4932.22C4372.18 4933.36 4374.91 4934.61 4377.72 4934.98C4380.35 4935.31 4382.9 4935.36 4385.55 4935.09C4386.49 4935 4387.42 4934.87 4388.36 4934.72C4388.53 4934.7 4388.67 4934.68 4388.82 4934.65C4388.95 4935.4 4389.06 4936.14 4389.19 4936.87C4389.85 4940.68 4390.49 4944.54 4391.58 4948.25C4392.04 4949.81 4392.52 4951.39 4393.1 4952.94C4393.84 4954.79 4394.65 4956.58 4395.4 4958.42C4395.49 4958.69 4395.59 4959 4395.68 4959.3C4395.77 4959.81 4395.86 4960.31 4395.93 4960.82C4395.97 4961.36 4395.99 4961.89 4395.99 4962.4C4395.92 4964.1 4395.73 4965.73 4395.53 4967.39C4394.65 4972.44 4393.42 4977.42 4392.13 4982.4C4390.88 4987.24 4389.68 4992.07 4388.91 4997.02C4387.92 5003.25 4387.66 5009.63 4388.16 5015.93C4388.67 5022.62 4389.85 5029.54 4393.42 5035.34C4397.07 5041.34 4403.21 5045.91 4409.28 5049.26C4413.78 5051.72 4418.62 5053.16 4423.34 5055.1C4424.06 5055.42 4424.76 5055.77 4425.46 5056.17C4425.8 5056.39 4426.14 5056.61 4426.49 5056.87C4426.74 5057.11 4427 5057.33 4427.26 5057.55C4427.37 5057.68 4427.5 5057.81 4427.61 5057.95C4427.85 5058.3 4428.07 5058.65 4428.25 5059C4428.43 5059.39 4428.64 5059.79 4428.82 5060.18C4428.19 5060.75 4427.61 5061.35 4427.09 5062C4426.47 5062.81 4425.86 5063.62 4425.27 5064.46C4423.4 5067.24 4421.87 5070.23 4420.46 5073.27C4417.96 5078.67 4415.66 5084.07 4412.9 5089.31C4412.86 5089.35 4412.86 5089.39 4412.85 5089.42C4412.85 5089.44 4412.83 5089.44 4412.83 5089.46C4412.81 5089.5 4412.77 5089.55 4412.75 5089.61C4412.75 5089.63 4412.74 5089.63 4412.74 5089.64C4412.7 5089.72 4412.66 5089.77 4412.64 5089.81C4412.66 5089.81 4412.66 5089.79 4412.68 5089.77C4412.61 5089.92 4412.53 5090.03 4412.46 5090.16C4412.51 5090.03 4412.57 5089.92 4412.63 5089.79C4410.01 5094.5 4407.18 5099.06 4404 5103.39C4404.24 5103.04 4404.52 5102.7 4404.76 5102.35C4402.7 5105.07 4400.55 5107.66 4398.23 5110.12C4397.5 5110.88 4396.72 5111.59 4395.93 5112.29C4394.83 5113.12 4393.69 5113.95 4392.52 5114.72C4391.69 5115.16 4390.86 5115.56 4390 5115.95C4387.86 5116.79 4385.75 5117.51 4383.56 5118.14C4380.14 5118.96 4376.65 5119.46 4373.18 5119.96C4369.13 5120.54 4365.11 5121.15 4361.08 5121.79C4356.23 5122.62 4351.36 5123.54 4346.71 5125.14C4341.51 5126.94 4336.58 5130.65 4334.89 5136.06C4334.02 5138.87 4334.1 5141.94 4335.18 5144.68C4336.05 5146.81 4337.06 5148.8 4338.27 5150.75C4340.66 5154.57 4343.9 5157.95 4347.85 5160.16C4353.38 5163.25 4359.52 5164.88 4365.16 5167.69C4366.21 5168.26 4367.22 5168.87 4368.23 5169.5C4368.56 5169.75 4368.89 5170.01 4369.21 5170.27C4369.48 5170.51 4369.72 5170.78 4370 5171.04C4369.94 5171.15 4369.91 5171.26 4369.85 5171.37C4369.32 5172.27 4368.77 5173.15 4368.18 5174.02C4366.89 5175.78 4365.57 5177.51 4364.17 5179.16C4359.72 5184.02 4354.81 5188.52 4351.01 5193.89C4350.02 5195.32 4349.01 5196.77 4348.18 5198.3C4346.93 5200.54 4345.68 5202.93 4345.07 5205.45C4344.37 5208.36 4344.3 5211.13 4345 5214.04C4345.31 5215.43 4345.75 5216.79 4346.06 5218.19C4346.19 5218.91 4346.28 5219.59 4346.36 5220.3C4346.47 5223.45 4346.21 5226.61 4346.08 5229.75C4345.97 5232.64 4346.03 5235.56 4346.39 5238.41C4346.84 5241.74 4347.61 5244.95 4348.71 5248.12C4349.67 5250.89 4351.06 5253.45 4352.68 5255.89C4356.08 5260.93 4359.72 5265.76 4363.12 5270.82C4362.88 5270.45 4362.64 5270.08 4362.41 5269.71C4363.4 5271.22 4364.45 5272.75 4365.35 5274.33C4365.27 5274.42 4365.18 5274.53 4365.11 5274.64C4364.74 5275.05 4364.35 5275.41 4363.95 5275.8C4363.4 5276.24 4362.85 5276.66 4362.24 5277.1C4361.56 5277.53 4360.88 5277.93 4360.16 5278.3C4359.35 5278.67 4358.56 5279 4357.76 5279.29C4357.48 5279.38 4357.2 5279.46 4356.89 5279.51C4354.63 5279.86 4352.33 5279.93 4350.05 5280.21C4347.53 5280.45 4345.05 5280.96 4342.66 5281.74C4338.71 5283.02 4334.87 5284.82 4331.38 5287.09C4327.66 5289.48 4324.15 5292.14 4320.97 5295.21C4319.04 5297.09 4317.19 5299.02 4315.61 5301.17C4313.44 5304.13 4312.31 5307.89 4312.39 5311.55C4312.44 5313.1 4312.66 5314.62 4312.99 5316.13C4311.74 5316.46 4310.53 5316.88 4309.3 5317.32C4306.29 5318.43 4303.33 5319.7 4300.57 5321.33C4296.98 5323.46 4293.42 5326.26 4291.4 5330.01C4290.18 5332.27 4289.37 5334.51 4288.77 5336.99C4288.47 5338.28 4288.2 5339.58 4287.89 5340.87C4287.96 5340.67 4287.99 5340.47 4288.05 5340.26C4287.96 5340.67 4287.85 5341.09 4287.74 5341.5C4287.26 5343.3 4286.73 5345.08 4286.1 5346.83C4285.73 5347.73 4285.35 5348.63 4284.89 5349.49C4284.78 5349.69 4284.69 5349.88 4284.56 5350.06C4283.79 5350.15 4283.03 5350.23 4282.24 5350.32C4276.16 5350.63 4270.02 5350.47 4263.9 5350.15C4259.74 5349.9 4255.62 5349.31 4251.47 5349.11C4246.93 5348.89 4242.32 5349.4 4238.25 5351.57C4234.21 5353.76 4230.77 5356.7 4227.61 5360.03C4225.13 5362.65 4222.79 5365.43 4220.24 5368.04C4220.22 5368.06 4220.2 5368.06 4220.2 5368.08C4220.2 5368.06 4220.22 5368.06 4220.22 5368.06C4220.2 5368.08 4220.2 5368.1 4220.18 5368.1C4219.47 5368.74 4218.77 5369.38 4218 5370.01C4217.26 5370.5 4216.53 5371.02 4215.75 5371.48C4214.91 5371.94 4214.01 5372.36 4213.13 5372.76C4212.32 5373.06 4211.51 5373.32 4210.68 5373.55C4209.49 5373.81 4208.29 5374.01 4207.1 5374.16C4204.65 5374.38 4202.21 5374.45 4199.78 5374.45C4195.75 5374.36 4191.78 5374.03 4187.83 5373.5C4181.88 5372.6 4176.03 5371.27 4170.22 5369.69C4170.28 5369.69 4170.35 5369.73 4170.41 5369.75C4170.35 5369.75 4170.28 5369.71 4170.22 5369.69C4170.2 5369.69 4170.18 5369.68 4170.17 5369.68C4170.15 5369.68 4170.13 5369.66 4170.11 5369.66C4170.13 5369.66 4170.15 5369.66 4170.17 5369.68C4170.15 5369.68 4170.11 5369.66 4170.07 5369.66C4170.07 5369.66 4170.09 5369.66 4170.11 5369.66C4161.21 5367.16 4151.77 5364.86 4142.45 5366.11C4135.13 5367.1 4128.44 5370.43 4122.63 5374.86C4122.56 5374.91 4122.5 5374.95 4122.45 5374.99C4122.5 5374.95 4122.56 5374.91 4122.59 5374.86C4122.54 5374.91 4122.47 5374.97 4122.41 5375.01C4122.21 5375.15 4122.02 5375.3 4121.84 5375.43C4122.02 5375.28 4122.23 5375.14 4122.41 5375.01C4122.43 5374.99 4122.43 5374.99 4122.45 5374.99C4118.66 5378.02 4115.39 5381.57 4112.78 5385.74C4110.66 5389.14 4109.23 5392.89 4107.37 5396.44C4106.64 5397.69 4105.83 5398.92 4104.98 5400.12C4103.81 5401.66 4102.54 5403.13 4101.2 5404.55C4099.18 5406.61 4097.08 5408.55 4094.89 5410.45C4094.91 5410.43 4094.95 5410.41 4094.97 5410.37C4094.93 5410.41 4094.87 5410.45 4094.84 5410.47C4094.73 5410.56 4094.62 5410.67 4094.49 5410.78C4092.21 5412.62 4089.87 5414.4 4087.45 5416.02C4086.27 5416.77 4085.08 5417.47 4083.83 5418.13C4083.15 5418.42 4082.45 5418.72 4081.77 5418.98C4081.4 5419.09 4081.05 5419.16 4080.66 5419.23C4079.76 5419.38 4078.84 5419.49 4077.93 5419.55C4077.89 5419.55 4077.85 5419.55 4077.82 5419.55C4071.58 5419.75 4065.3 5419.09 4059.07 5418.59C4059.16 5418.59 4059.25 5418.59 4059.36 5418.61C4059.19 5418.59 4059.01 5418.59 4058.85 5418.57C4058.7 5418.55 4058.55 5418.55 4058.4 5418.54C4058.35 5418.54 4058.29 5418.54 4058.26 5418.52C4058.31 5418.52 4058.35 5418.52 4058.4 5418.54C4058.35 5418.54 4058.29 5418.54 4058.26 5418.52H4058.24C4058.2 5418.52 4058.16 5418.52 4058.13 5418.52C4056.8 5418.41 4055.5 5418.31 4054.19 5418.19C4046.75 5417.58 4039.29 5417.05 4031.84 5416.27C4024.01 5415.48 4016.22 5414.36 4008.41 5413.55C3990.78 5411.75 3973 5410.94 3955.28 5410.56C3955.32 5410.56 3955.34 5410.56 3955.37 5410.58C3955.19 5410.58 3955.01 5410.56 3954.82 5410.56C3954.97 5410.56 3955.13 5410.56 3955.3 5410.56C3954.95 5410.54 3954.6 5410.56 3954.27 5410.54C3954.42 5410.54 3954.56 5410.54 3954.71 5410.56C3943.66 5410.32 3932.58 5410.15 3921.51 5409.93C3921.53 5409.93 3921.55 5409.93 3921.57 5409.95C3921.51 5409.95 3921.46 5409.95 3921.4 5409.95C3921.44 5409.95 3921.48 5409.95 3921.53 5409.95C3921.26 5409.95 3921 5409.93 3920.74 5409.93C3920.72 5409.93 3920.7 5409.93 3920.69 5409.93C3920.67 5409.93 3920.65 5409.93 3920.65 5409.93C3920.63 5409.93 3920.61 5409.93 3920.58 5409.93C3920.54 5409.93 3920.52 5409.93 3920.48 5409.93C3920.48 5409.93 3920.48 5409.93 3920.5 5409.93C3919.53 5409.9 3918.54 5409.88 3917.54 5409.84C3899.71 5409.38 3881.9 5408.3 3864.09 5407.16C3856.2 5406.64 3848.3 5406.07 3840.41 5405.65C3831.61 5405.19 3822.82 5404.64 3814.05 5403.41C3810.84 5402.86 3807.65 5402.16 3804.49 5401.29C3799.09 5399.73 3793.83 5397.82 3788.65 5395.67C3786 5394.45 3783.39 5393.17 3780.87 5391.75C3778.35 5390.17 3775.96 5388.52 3773.59 5386.7C3771.11 5384.69 3768.67 5382.62 3766.37 5380.39C3763.92 5377.82 3761.68 5375.06 3759.42 5372.3C3756.87 5369.16 3754.13 5366.22 3751.26 5363.33C3746.53 5358.63 3741.24 5354.57 3736.44 5349.9C3735.08 5348.5 3733.8 5347.07 3732.58 5345.52C3731.96 5344.68 3731.37 5343.81 3730.84 5342.93C3730.56 5342.38 3730.32 5341.86 3730.08 5341.33C3729.75 5340.45 3729.48 5339.57 3729.22 5338.67C3728.87 5337.03 3728.63 5335.39 3728.47 5333.74C3728.5 5334.14 3728.56 5334.58 3728.59 5335.01C3728.39 5333.1 3728.26 5331.17 3728.12 5329.25C3727.93 5327.03 3727.82 5324.75 3727.34 5322.58C3726.59 5319.25 3725.52 5316.2 3723.26 5313.54C3720.14 5309.82 3714.92 5308.37 3710.21 5309.09C3705.43 5309.82 3700.95 5312.01 3696.37 5313.56C3691.98 5315.03 3687.53 5316.28 3683.06 5317.42C3678.85 5318.48 3674.61 5319.46 3670.34 5320.28C3666.19 5321.09 3662.01 5321.81 3657.84 5322.69C3649.07 5324.53 3640.58 5327.34 3631.96 5329.69C3626.7 5331.07 3621.45 5332.31 3616.1 5333.19C3611.43 5333.79 3606.74 5334.16 3602.05 5334.36C3595.67 5334.55 3589.28 5334.29 3582.95 5334.88C3580.07 5335.17 3577.14 5335.58 3574.35 5336.4C3571.24 5337.31 3567.92 5338.44 3565.36 5340.54C3562.83 5342.6 3560.9 5345.01 3559.39 5347.89C3558.08 5350.36 3557.03 5352.93 3556.1 5355.56C3554.94 5358.74 3553.89 5361.97 3552.99 5365.23C3552.35 5367.58 3551.76 5369.95 3551.12 5372.3C3550.73 5372.38 3550.38 5372.47 3549.99 5372.54C3548.17 5372.82 3546.32 5372.97 3544.46 5373.09C3538.98 5373.33 3533.51 5373.19 3528.05 5372.86C3528.23 5372.86 3528.41 5372.89 3528.62 5372.89C3528.23 5372.87 3527.86 5372.84 3527.48 5372.82C3527.66 5372.82 3527.86 5372.86 3528.05 5372.86C3527.86 5372.86 3527.66 5372.82 3527.46 5372.8C3520.99 5372.34 3514.52 5371.72 3508.08 5370.78C3507.2 5370.72 3506.39 5370.6 3505.6 5370.47Z"
        fill="#2D4159"/>
</svg>