<svg
    width="7773"
    height="7615"
    viewBox="0 0 7773 7615"
    fill="none"
    xmlns="http://www.w3.org/2000/svg">
    <path id="BA"
        d="M4759.11 6203.63C4754.16 6199.81 4748.96 6196.31 4743.96 6192.6C4734.22 6185.4 4724.81 6177.77 4716 6169.42C4708.39 6162.07 4701.11 6154.4 4693.72 6146.81C4685.87 6138.8 4677.58 6131.2 4669.07 6123.91C4659.26 6115.47 4648.78 6107.79 4638.5 6099.94C4633.08 6095.8 4627.75 6091.61 4622.51 6087.25C4617.51 6083.08 4612.73 6078.67 4608.04 6074.15C4600.65 6066.74 4593.61 6058.93 4587.09 6050.77C4584.64 6047.48 4582.4 6044.11 4580.27 6040.62C4579.06 6038.5 4577.86 6036.39 4576.81 6034.19C4575.75 6031.96 4574.77 6029.72 4573.8 6027.46C4571.35 6021.59 4569.18 6015.56 4566.7 6009.66C4566.72 6009.68 4566.74 6009.72 4566.74 6009.74C4564.59 6004.63 4562.22 5999.59 4559.57 5994.68C4557.22 5990.36 4554.88 5985.99 4552.09 5981.91C4550.64 5979.77 4549.13 5977.62 4547.37 5975.71C4545.51 5973.71 4543.58 5971.82 4541.5 5970.03C4537.38 5966.47 4533.08 5963.16 4528.93 5959.63C4523.6 5955.16 4518.08 5950.9 4512.11 5947.31C4506.13 5943.71 4500.03 5940.46 4493.76 5937.39C4487.95 5934.54 4482.11 5931.71 4476.39 5928.67C4470.53 5925.58 4464.74 5922.42 4458.98 5919.17C4459.37 5919.39 4459.77 5919.61 4460.14 5919.81C4454.5 5916.56 4448.89 5913.25 4443.65 5909.37C4443.62 5909.35 4443.6 5909.32 4443.56 5909.3C4443.58 5909.32 4443.6 5909.32 4443.62 5909.35C4440.25 5906.78 4437.18 5903.95 4434.11 5901.06C4431.12 5898.21 4428.03 5895.42 4425.11 5892.51C4420.27 5887.57 4415.84 5882.26 4411.43 5876.91C4407.26 5871.85 4403.01 5866.87 4399.04 5861.69C4397.46 5859.59 4395.92 5857.44 4394.5 5855.22C4393.93 5854.17 4393.42 5853.09 4392.94 5851.96C4392.68 5851.25 4392.44 5850.53 4392.22 5849.8C4392.22 5849.81 4392.22 5849.81 4392.22 5849.83C4392.18 5849.67 4392.13 5849.52 4392.09 5849.35C4392.13 5849.48 4392.17 5849.59 4392.2 5849.72C4391.34 5846.54 4390.7 5843.31 4390.22 5840.05C4389.35 5832.35 4389.85 5824.19 4387.06 5816.85C4387.07 5816.89 4387.07 5816.91 4387.09 5816.95C4387.06 5816.85 4387.02 5816.76 4386.98 5816.67C4386.98 5816.69 4386.98 5816.69 4387 5816.71C4386.25 5814.87 4385.44 5813.09 4384.3 5811.47C4383.16 5809.8 4381.93 5808.21 4380.6 5806.69C4378.43 5804.21 4376.03 5801.87 4373.58 5799.65C4368.99 5795.48 4363.82 5792.09 4358.55 5788.88C4355.64 5787.11 4352.85 5785.2 4350.13 5783.18C4348.21 5781.73 4346.27 5780.26 4344.24 5778.93C4339.48 5775.81 4334.41 5773.34 4329.48 5770.53C4328.01 5769.65 4326.58 5768.73 4325.18 5767.72C4324.52 5767.2 4323.9 5766.65 4323.29 5766.07C4322.83 5765.59 4322.41 5765.11 4321.98 5764.59C4321.43 5763.8 4320.92 5763 4320.42 5762.15C4319.8 5760.95 4319.26 5759.78 4318.79 5758.55C4318.45 5757.55 4318.16 5756.58 4317.88 5755.59C4316.69 5749.23 4315.88 5742.74 4315.26 5736.29C4314.63 5729.96 4314.21 5723.62 4314.02 5717.24C4314.02 5717.13 4314.02 5717.02 4314.02 5716.91C4314.02 5716.87 4314.02 5716.84 4314.02 5716.78C4313.99 5713.24 4314.01 5709.69 4314.06 5706.16C4314.12 5702.9 4314.12 5699.65 4314.43 5696.42C4314.5 5696.07 4314.58 5695.72 4314.63 5695.37C4314.94 5694.71 4315.27 5694.04 4315.59 5693.38C4315.73 5693.18 4315.86 5692.96 4315.99 5692.78C4316.01 5692.76 4316.06 5692.74 4316.08 5692.74C4316.62 5692.56 4317.15 5692.37 4317.7 5692.21C4318.1 5692.17 4318.51 5692.15 4318.91 5692.15C4319.45 5692.17 4320 5692.22 4320.53 5692.3C4321.43 5692.45 4322.35 5692.65 4323.23 5692.85C4325.92 5693.62 4328.6 5694.49 4331.23 5695.46C4337.39 5698.13 4343.34 5701.34 4349.37 5704.34C4352.53 5705.92 4355.7 5707.46 4358.99 5708.8C4362.35 5710.17 4365.97 5710.74 4369.57 5711.05C4374.59 5711.47 4379.67 5710.83 4384.33 5708.92C4387.74 5707.52 4390.9 5705.61 4393.8 5703.36C4398.97 5699.39 4403.4 5694.56 4407.88 5689.82C4411.74 5685.77 4415.46 5681.53 4419.54 5677.67C4420.77 5676.65 4422.07 5675.75 4423.38 5674.84C4426.82 5672.67 4430.35 5670.7 4434.02 5668.97C4436.19 5668 4438.4 5667.1 4440.68 5666.34C4443.4 5665.66 4446.14 5665.07 4448.87 5664.54C4448.91 5664.54 4448.95 5664.54 4448.97 5664.52C4449.15 5664.5 4449.33 5664.47 4449.52 5664.43C4449.87 5664.38 4450.2 5664.32 4450.55 5664.27C4450.49 5664.28 4450.42 5664.28 4450.36 5664.3C4458.07 5663.05 4465.82 5662.39 4473.62 5662.22C4473.52 5662.22 4473.43 5662.22 4473.32 5662.22C4473.67 5662.22 4474 5662.21 4474.35 5662.22C4483.84 5662.15 4493.3 5662.89 4502.73 5663.92C4502.64 5663.9 4502.57 5663.9 4502.48 5663.88C4502.6 5663.9 4502.71 5663.92 4502.84 5663.92C4502.81 5663.92 4502.79 5663.92 4502.75 5663.92C4502.97 5663.95 4503.23 5663.97 4503.47 5664.01C4503.38 5663.99 4503.3 5663.99 4503.21 5663.97C4503.32 5663.99 4503.47 5663.99 4503.6 5664.01C4503.56 5664.01 4503.51 5664.01 4503.47 5664.01C4507.6 5664.5 4511.69 5665.09 4515.73 5666.07C4515.77 5666.09 4515.8 5666.09 4515.86 5666.09C4519.41 5667.02 4522.94 5668.16 4526.39 5669.32C4537.13 5672.91 4547.71 5676.93 4558.5 5680.28C4561.23 5681.14 4563.96 5681.93 4566.81 5682.28C4570.34 5682.72 4573.98 5682.02 4577.35 5681.05C4583.58 5679.27 4589.4 5676.16 4595.49 5673.95C4599.06 5672.78 4602.68 5671.97 4606.33 5671.23C4605.93 5671.32 4605.53 5671.4 4605.1 5671.49C4607.36 5671.03 4609.62 5670.55 4611.89 5670.31C4612.2 5670.31 4612.47 5670.33 4612.77 5670.33C4613.41 5670.39 4614.04 5670.46 4614.68 5670.55C4615.8 5670.79 4616.89 5671.1 4617.97 5671.43C4622.86 5673.09 4627.62 5675.04 4632.66 5676.07C4632.47 5676.03 4632.27 5676.01 4632.09 5675.98C4632.34 5676.01 4632.58 5676.07 4632.86 5676.1C4635.76 5676.56 4638.65 5676.66 4641.61 5676.38C4644.22 5676.14 4646.77 5675.37 4649.24 5674.52C4649.15 5674.58 4649.05 5674.6 4648.98 5674.63C4654.04 5672.89 4659.04 5670.94 4664.15 5669.19C4667.11 5668.22 4670.12 5667.34 4673.19 5666.65C4677.25 5665.88 4681.42 5665.41 4685.56 5665.13C4685.47 5665.13 4685.38 5665.13 4685.29 5665.15C4685.36 5665.13 4685.43 5665.13 4685.49 5665.13C4685.41 5665.13 4685.34 5665.13 4685.27 5665.13C4685.25 5665.13 4685.25 5665.15 4685.23 5665.15C4685.25 5665.15 4685.27 5665.15 4685.27 5665.13C4685.67 5665.11 4686.06 5665.07 4686.46 5665.06C4686.19 5665.07 4685.89 5665.11 4685.63 5665.13C4694.11 5664.65 4702.6 5664.98 4711.11 5665.42C4711.55 5665.44 4712.01 5665.48 4712.47 5665.52C4712.07 5665.5 4711.66 5665.48 4711.24 5665.44C4711.88 5665.48 4712.53 5665.52 4713.19 5665.55C4712.77 5665.53 4712.36 5665.52 4711.94 5665.5C4718.24 5665.86 4724.55 5666.27 4730.85 5666.65C4730.8 5666.65 4730.74 5666.65 4730.69 5666.65C4731.13 5666.67 4731.55 5666.71 4732.01 5666.73C4731.59 5666.71 4731.17 5666.67 4730.74 5666.65C4733.13 5666.78 4735.52 5666.91 4737.91 5667.06C4737.49 5667.04 4737.07 5667 4736.66 5666.99C4741.9 5667.3 4747.16 5667.56 4752.32 5668.44C4753.06 5668.6 4753.81 5668.77 4754.55 5668.97C4754.27 5670.88 4753.85 5672.79 4753.52 5674.71C4752.97 5677.79 4752.53 5680.97 4752.56 5684.1C4752.6 5685.72 4752.69 5687.35 4752.97 5688.97C4753.37 5691.18 4754.03 5693.51 4755.56 5695.26C4756.44 5696.25 4757.31 5697.22 4758.22 5698.16C4759.81 5699.74 4761.72 5701.01 4763.61 5702.19C4765.72 5703.47 4768.11 5704.41 4770.5 5705.07C4776.53 5706.73 4782.69 5706.42 4788.87 5706.16C4794.64 5705.92 4800.39 5706.27 4806.13 5705.88C4812.25 5705.46 4818.28 5704.54 4823.7 5701.45C4827.71 5699.19 4831.29 5696.29 4835.34 5694.1C4835.8 5693.9 4836.27 5693.69 4836.75 5693.51C4837.4 5693.31 4838.06 5693.14 4838.74 5692.98C4839.05 5692.94 4839.34 5692.89 4839.66 5692.87C4840.36 5692.83 4841.05 5692.83 4841.75 5692.87C4842.43 5692.94 4843.13 5693.03 4843.83 5693.13C4844.77 5693.35 4845.69 5693.58 4846.59 5693.86C4848.43 5694.49 4850.17 5695.22 4851.94 5696.01C4853.11 5696.56 4854.25 5697.15 4855.36 5697.81C4855.36 5697.83 4855.36 5697.85 4855.36 5697.87C4855.06 5699.17 4854.75 5700.46 4854.36 5701.75C4851.72 5709.41 4848.46 5716.84 4845.01 5724.15C4844.97 5724.26 4844.91 5724.36 4844.88 5724.47C4844.8 5724.63 4844.73 5724.8 4844.64 5724.96C4844.66 5724.94 4844.68 5724.91 4844.68 5724.87C4844.68 5724.87 4844.68 5724.89 4844.66 5724.91C4844.66 5724.89 4844.68 5724.87 4844.68 5724.85C4844.58 5725.07 4844.47 5725.28 4844.38 5725.5C4844.36 5725.53 4844.33 5725.59 4844.31 5725.62C4844.36 5725.51 4844.42 5725.4 4844.47 5725.29C4840.8 5733.01 4836.94 5740.61 4833.3 5748.31C4833.46 5747.94 4833.65 5747.55 4833.83 5747.17C4832.41 5750.16 4830.96 5753.11 4829.84 5756.21C4828.76 5759.15 4827.67 5762.22 4827.08 5765.27C4825.96 5771.07 4825.37 5776.97 4825.41 5782.87C4825.45 5788.79 4826.72 5794.61 4828.83 5800.15C4830.04 5803.34 4831.88 5806.41 4834.12 5809.01C4836.29 5811.47 4838.74 5813.58 4841.31 5815.6C4841.15 5815.48 4840.98 5815.35 4840.83 5815.22C4841.16 5815.48 4841.5 5815.75 4841.84 5816.03C4841.73 5815.94 4841.64 5815.86 4841.51 5815.77C4846.66 5819.76 4852.32 5822.99 4858 5826.19C4863.76 5829.43 4869.56 5832.55 4875.48 5835.46C4881.05 5838.18 4886.7 5840.71 4892.34 5843.2C4897.21 5845.35 4902.17 5847.42 4906.79 5850.11C4907.49 5850.53 4908.17 5851.01 4908.85 5851.49C4908.68 5851.67 4908.52 5851.87 4908.37 5852.04C4908.11 5852.28 4907.84 5852.52 4907.56 5852.72C4906.94 5853.2 4906.29 5853.62 4905.65 5854.02C4904.58 5854.57 4903.52 5855.07 4902.4 5855.55C4898.59 5857.04 4894.71 5858.25 4890.94 5859.8C4886.48 5861.63 4881.9 5863.93 4878.55 5867.5C4876.29 5869.87 4874.64 5872.46 4873.59 5875.59C4872.58 5878.67 4872.63 5882.2 4873.52 5885.31C4874.91 5890.24 4877.87 5894.61 4880.7 5898.84C4880.61 5898.69 4880.5 5898.56 4880.41 5898.42C4882.8 5901.98 4885.28 5905.49 4888.11 5908.71C4891.31 5912.37 4894.84 5915.58 4898.53 5918.75C4898.52 5918.73 4898.48 5918.71 4898.46 5918.69C4900.61 5920.53 4902.8 5922.33 4904.95 5924.15C4906.94 5925.9 4908.87 5927.72 4910.67 5929.68C4911.51 5930.68 4912.32 5931.67 4913.07 5932.72C4913.35 5933.16 4913.61 5933.6 4913.87 5934.06C4914.18 5934.72 4914.47 5935.4 4914.77 5936.08C4914.77 5936.1 4914.77 5936.1 4914.77 5936.12C4914.8 5936.3 4914.82 5936.48 4914.86 5936.67C4914.86 5936.82 4914.88 5936.96 4914.88 5937.09C4914.86 5937.26 4914.84 5937.44 4914.82 5937.59C4914.73 5938.01 4914.62 5938.45 4914.53 5938.87C4914.45 5938.98 4914.4 5939.08 4914.34 5939.19C4914.32 5939.22 4914.29 5939.26 4914.27 5939.28C4914.16 5939.41 4914.03 5939.54 4913.9 5939.66C4913.61 5939.9 4913.31 5940.16 4913 5940.38C4912.65 5940.62 4912.3 5940.84 4911.95 5941.03C4911 5941.48 4910.04 5941.91 4909.05 5942.29C4906.22 5943.27 4903.37 5944.06 4900.48 5944.76C4889.93 5947.09 4879.22 5948.71 4868.48 5949.83C4868.5 5949.83 4868.54 5949.83 4868.55 5949.83C4868.5 5949.83 4868.44 5949.85 4868.39 5949.85H4868.41C4868.39 5949.85 4868.37 5949.85 4868.35 5949.85C4868.26 5949.85 4868.19 5949.87 4868.11 5949.87C4868.15 5949.87 4868.19 5949.85 4868.22 5949.87C4868.08 5949.89 4867.91 5949.9 4867.74 5949.9C4867.8 5949.9 4867.89 5949.89 4867.95 5949.89C4863.63 5950.33 4859.03 5950.4 4854.86 5951.72C4851.46 5952.75 4848.59 5954.55 4846.44 5957.4C4845.1 5959.17 4844.14 5961.13 4843.33 5963.19C4841.72 5967.37 4840.82 5971.74 4840.36 5976.17C4839.97 5979.76 4839.86 5983.36 4839.57 5986.98C4839.49 5987.66 4839.36 5988.32 4839.25 5989C4839.12 5989.42 4839.01 5989.85 4838.88 5990.27C4838.68 5990.75 4838.48 5991.21 4838.26 5991.69C4837.89 5992.35 4837.51 5992.97 4837.08 5993.63C4836.53 5994.37 4835.96 5995.1 4835.36 5995.84C4833.81 5997.48 4832.18 5999.02 4830.47 6000.51C4830.8 6000.23 4831.13 5999.96 4831.44 5999.68C4830.76 6000.27 4830.06 6000.86 4829.38 6001.45C4829.69 6001.17 4830.03 6000.88 4830.36 6000.58C4822.45 6007.26 4813.92 6013.16 4806.22 6020.07C4797.82 6027.62 4790.23 6036.19 4785.03 6046.28C4785.08 6046.17 4785.14 6046.06 4785.19 6045.95C4784.99 6046.34 4784.79 6046.74 4784.58 6047.13C4784.73 6046.83 4784.88 6046.56 4785.03 6046.26C4782.84 6050.65 4781.18 6055.25 4779.73 6059.96C4778.22 6064.75 4776.63 6069.5 4774.75 6074.18C4774.25 6075.32 4773.74 6076.46 4773.22 6077.6C4770.83 6082.71 4768.06 6087.62 4765.61 6092.69C4762.45 6099.28 4760.15 6106.35 4760.06 6113.74C4759.99 6120.36 4761.83 6126.92 4765.21 6132.62C4766.85 6135.4 4768.83 6137.93 4771.09 6140.23C4772.8 6141.96 4774.57 6143.58 4776.18 6145.38C4776.5 6145.78 4776.79 6146.19 4777.1 6146.59C4777.34 6146.92 4777.54 6147.29 4777.75 6147.64C4777.97 6148.12 4778.19 6148.61 4778.39 6149.09C4778.7 6150.05 4779 6151.02 4779.24 6152.01C4779.49 6153.36 4779.71 6154.7 4779.84 6156.08C4780.08 6159.22 4780.08 6162.36 4780.01 6165.51C4780.01 6165.52 4780.01 6165.52 4780.01 6165.54C4780.01 6165.47 4780.01 6165.38 4780.01 6165.3C4780.01 6165.4 4780.01 6165.49 4780.01 6165.58C4780.01 6165.63 4780.01 6165.69 4780.01 6165.76C4779.99 6165.82 4779.99 6165.89 4779.99 6165.95C4779.99 6165.97 4779.99 6165.97 4779.99 6165.98C4779.99 6166.11 4779.97 6166.22 4779.97 6166.35C4779.97 6166.37 4779.97 6166.37 4779.97 6166.37C4779.86 6168.96 4779.68 6171.57 4779.42 6174.15C4779.22 6175.49 4779 6176.79 4778.74 6178.1C4778.39 6179.61 4777.97 6181.09 4777.49 6182.58C4776.85 6184.26 4776.15 6185.89 4775.36 6187.51C4775.32 6187.6 4775.27 6187.67 4775.23 6187.77C4772.58 6192.95 4769.68 6198.01 4767.23 6203.28C4766.44 6204.97 4765.74 6206.74 4765.14 6208.54C4763.15 6206.83 4761.15 6205.21 4759.11 6203.63Z"
        fill="#584434"/>
</svg>