<svg
    width="7773"
    height="7615"
    viewBox="0 0 7773 7615"
    fill="none"
    xmlns="http://www.w3.org/2000/svg">
    <path id="BE"
        d="M2794.62 4775.79C2788.52 4774.84 2782.44 4773.86 2776.37 4772.59C2776.41 4772.59 2776.44 4772.61 2776.48 4772.61C2772.73 4771.78 2769.09 4770.7 2765.49 4769.49C2760.97 4767.79 2756.65 4765.77 2752.31 4763.62C2749.84 4762.32 2747.4 4760.97 2745.07 4759.45C2743.71 4758.44 2742.4 4757.39 2741.15 4756.29C2740.1 4755.31 2739.07 4754.27 2738.12 4753.2C2737.42 4752.26 2736.74 4751.32 2736.08 4750.35C2735.47 4749.34 2734.9 4748.31 2734.35 4747.26C2733.58 4745.52 2732.88 4743.77 2732.29 4741.95C2730.65 4736.31 2729.53 4730.52 2728.15 4724.8C2727.38 4721.55 2726.63 4718.27 2725.56 4715.11C2724.16 4710.99 2721.89 4707.47 2718.72 4704.51C2718.82 4704.58 2718.89 4704.65 2718.98 4704.73C2719.13 4704.85 2719.28 4705 2719.42 4705.13C2719.28 4704.98 2719.13 4704.85 2718.98 4704.73C2718.83 4704.6 2718.69 4704.45 2718.54 4704.32C2718.58 4704.36 2718.6 4704.38 2718.63 4704.41C2714.75 4700.96 2710.38 4697.94 2705.49 4696.09C2701.19 4694.41 2696.68 4693.35 2692.33 4691.88C2691.79 4691.67 2691.26 4691.49 2690.77 4691.27C2690.64 4691.2 2690.53 4691.14 2690.43 4691.07C2690.2 4690.9 2689.97 4690.72 2689.75 4690.54C2689.75 4690.54 2689.75 4690.54 2689.74 4690.52C2689.68 4690.46 2689.64 4690.39 2689.57 4690.3C2689.46 4690.11 2689.35 4689.91 2689.28 4689.71C2689.13 4689.38 2689 4689.03 2688.87 4688.68C2688.63 4687.74 2688.41 4686.82 2688.23 4685.88C2687.95 4684.08 2687.73 4682.28 2687.6 4680.43C2687.47 4673.09 2688.36 4665.87 2689.18 4658.61C2689.59 4655.13 2690.01 4651.66 2690.12 4648.16C2690.21 4645.08 2690.32 4641.58 2689.28 4638.64C2688.19 4635.55 2686.26 4633.02 2683.34 4631.46C2680.64 4630 2677.29 4629.58 2674.24 4629.87C2671.11 4630.19 2668.04 4630.78 2664.99 4631.44C2659.29 4632.72 2653.52 4634.29 2648.12 4636.53C2643.05 4638.64 2639.77 4643.04 2637.6 4647.93C2636.26 4650.92 2635.1 4654.05 2634.04 4657.15C2633.21 4659.67 2632.42 4662.17 2631.72 4664.71C2631.3 4666.2 2630.93 4667.7 2630.51 4669.21C2628.62 4669.12 2626.74 4668.95 2624.85 4668.75C2624.92 4668.77 2624.98 4668.77 2625.03 4668.77C2623.39 4668.59 2621.74 4668.38 2620.1 4668.2C2620.21 4668.22 2620.31 4668.24 2620.44 4668.26C2620.23 4668.22 2620.01 4668.2 2619.81 4668.18C2619.88 4668.2 2619.96 4668.2 2620.01 4668.22C2610.03 4667.1 2599.99 4666.49 2589.99 4665.44C2589.33 4665.35 2588.69 4665.26 2588.05 4665.13C2587.73 4665.02 2587.44 4664.93 2587.13 4664.82C2587.11 4664.82 2587.09 4664.8 2587.05 4664.76H2587.04C2587.02 4664.75 2587.02 4664.75 2587 4664.73C2586.96 4664.62 2586.89 4664.54 2586.85 4664.43C2586.78 4664.25 2586.72 4664.07 2586.67 4663.86C2586.56 4663.4 2586.45 4662.93 2586.36 4662.45C2586.23 4661.27 2586.15 4660.11 2586.1 4658.94C2586.13 4656.84 2586.21 4654.76 2586.39 4652.69C2586.39 4652.74 2586.39 4652.8 2586.37 4652.85C2586.39 4652.65 2586.41 4652.43 2586.43 4652.23C2586.41 4652.37 2586.39 4652.54 2586.39 4652.69C2586.41 4652.59 2586.41 4652.48 2586.41 4652.39C2586.43 4652.3 2586.43 4652.21 2586.45 4652.12C2586.47 4651.93 2586.5 4651.77 2586.5 4651.57C2588.06 4639.93 2590.95 4628.51 2593.6 4617.1C2594.26 4614.25 2594.96 4611.42 2595.53 4608.55C2596.19 4605.33 2596.69 4602.14 2597.02 4598.88C2597.35 4595.79 2597.35 4592.61 2596.91 4589.54C2596.36 4585.76 2595.34 4582.01 2593.08 4578.81C2591.21 4576.14 2588.84 4573.79 2586.06 4572.05C2580.01 4568.33 2573.03 4566.75 2566.14 4565.39C2561.02 4564.36 2555.8 4563.81 2550.69 4562.67C2547.22 4561.79 2543.82 4560.72 2540.47 4559.51C2537.81 4558.39 2535.22 4557.16 2532.68 4555.81C2528.51 4553.46 2524.46 4550.92 2520.53 4548.15C2518.38 4546.51 2516.3 4544.8 2514.28 4543.02C2512.02 4541.05 2509.87 4539.01 2507.48 4537.19C2504.85 4535.21 2502.22 4533.22 2499.43 4531.46C2496.89 4529.82 2494.32 4528.28 2491.82 4526.6C2490.97 4525.94 2490.16 4525.28 2489.39 4524.6C2488.69 4523.88 2488.03 4523.15 2487.37 4522.39C2486.82 4521.6 2486.25 4520.83 2485.71 4520.02C2485.2 4519.12 2484.72 4518.2 2484.28 4517.27C2484.17 4517.01 2484.04 4516.71 2483.91 4516.44C2483.88 4516.37 2483.86 4516.27 2483.82 4516.2C2483.21 4514.58 2482.7 4512.95 2482.17 4511.29C2480.93 4506.81 2479.83 4502.29 2478.56 4497.76C2477.66 4494.47 2476.65 4491.16 2475.11 4488.11C2473.54 4484.99 2471.47 4482.05 2469.06 4479.51C2466.71 4477.01 2463.99 4474.9 2461.06 4473.08C2458.4 4471.4 2455.64 4469.75 2452.75 4468.44C2446.52 4465.61 2439.48 4463.61 2432.61 4464.95C2430.42 4465.37 2428.23 4466.11 2426.38 4467.34C2424.24 4468.77 2422.63 4470.59 2421.38 4472.84C2419.94 4475.43 2418.95 4478.24 2417.63 4480.89C2417.08 4481.84 2416.49 4482.78 2415.84 4483.68C2415.62 4483.98 2415.38 4484.27 2415.13 4484.55C2415.11 4484.55 2415.07 4484.53 2415.04 4484.51C2414.3 4484.22 2413.58 4483.87 2412.88 4483.52C2411.78 4482.87 2410.73 4482.19 2409.7 4481.48C2408.69 4480.69 2407.72 4479.86 2406.76 4478.98C2403.16 4475.3 2400.02 4471.22 2396.54 4467.45C2393.66 4464.27 2390.4 4461.42 2387.68 4458.11C2387.61 4458 2387.54 4457.93 2387.48 4457.82C2387.44 4457.78 2387.43 4457.76 2387.43 4457.71C2387.35 4457.53 2387.28 4457.34 2387.22 4457.16C2387.19 4457.05 2387.19 4456.94 2387.17 4456.85C2387.11 4456.46 2387.08 4456.07 2387.08 4455.69C2387.06 4454.82 2387.11 4453.96 2387.19 4453.11C2387.55 4450.48 2388.07 4447.89 2388.66 4445.32C2389.91 4440.3 2391.34 4435.34 2392.52 4430.32C2393.16 4427.6 2393.66 4424.77 2393.88 4421.97C2394.1 4419 2394.06 4416.06 2393.93 4413.08C2393.79 4410.01 2393.14 4406.85 2392.44 4403.87C2392.04 4402.21 2391.62 4400.58 2391.18 4398.94C2392.26 4398.35 2393.33 4397.75 2394.37 4397.12C2397.41 4395.14 2400.37 4393.08 2403.22 4390.84C2404.54 4389.7 2405.81 4388.52 2407.02 4387.31C2411.21 4382.43 2414.47 4376.85 2418.58 4371.94C2423.9 4365.63 2430.92 4361.09 2438.58 4358.17C2446.32 4355.23 2454.81 4354.73 2462.92 4356.2C2469.08 4357.31 2475 4359.46 2481.04 4361C2481.32 4361.33 2481.58 4361.64 2481.87 4361.96C2483.14 4363.41 2484.43 4364.84 2485.77 4366.24C2486.95 4367.47 2488.32 4368.54 2489.65 4369.6C2492.29 4371.74 2495.46 4373.34 2498.62 4374.57C2501.17 4375.58 2503.84 4376.28 2506.41 4377.16C2508.62 4377.93 2510.79 4378.81 2512.92 4379.75C2518.75 4382.58 2524 4386.35 2529.61 4389.57C2532.75 4391.37 2535.97 4393.04 2539.15 4394.81C2542.04 4396.41 2544.89 4398.08 2547.72 4399.81C2557.53 4405.74 2568.18 4410.71 2579.83 4411.35C2582.66 4411.52 2585.47 4411.42 2588.29 4411.28C2588.98 4411.24 2589.65 4411.22 2590.34 4411.15C2591.76 4411.11 2593.19 4410.89 2594.54 4410.65C2596.15 4410.38 2597.73 4410.03 2599.33 4409.64C2605.05 4408.3 2610.73 4406.4 2616.12 4404.18C2622.11 4401.7 2627.53 4398.06 2632.4 4393.78C2636.45 4390.23 2640.03 4386.24 2643.76 4382.36C2647.53 4378.45 2651.41 4374.66 2655.58 4371.18C2656.81 4370.25 2658.06 4369.36 2659.35 4368.54C2660.67 4367.78 2662.02 4367.07 2663.38 4366.41C2664.15 4366.07 2664.92 4365.78 2665.71 4365.54C2666.04 4365.45 2666.39 4365.38 2666.72 4365.3C2666.87 4365.28 2667 4365.27 2667.16 4365.25C2667.81 4365.27 2668.49 4365.3 2669.15 4365.34C2669.2 4365.36 2669.24 4365.36 2669.28 4365.36C2673.32 4365.87 2677.29 4366.85 2681.22 4367.8C2681.22 4367.8 2681.21 4367.78 2681.19 4367.78C2681.22 4367.78 2681.24 4367.78 2681.28 4367.82C2681.3 4367.82 2681.32 4367.82 2681.34 4367.84C2681.39 4367.84 2681.46 4367.86 2681.52 4367.89C2681.52 4367.88 2681.52 4367.88 2681.52 4367.88C2694.33 4370.87 2706.98 4374.62 2719.28 4379.29C2723.04 4380.72 2726.85 4382.16 2730.43 4384.05C2732.18 4385.03 2733.87 4386.02 2735.51 4387.12C2736.09 4387.54 2736.66 4388.02 2737.23 4388.52C2737.77 4389.07 2738.28 4389.66 2738.78 4390.25C2740.49 4392.49 2741.96 4394.92 2743.43 4397.31C2743.21 4396.94 2743.01 4396.59 2742.79 4396.22C2745.53 4400.74 2748.17 4405.39 2751.54 4409.49C2755.25 4414.05 2759.64 4418.1 2764.4 4421.53C2769.2 4424.99 2774.48 4427.58 2780.36 4428.46C2785.73 4429.29 2791.09 4428.92 2796.48 4428.68C2798.43 4428.61 2800.4 4428.61 2802.36 4428.74C2803.39 4428.85 2804.4 4429 2805.41 4429.16C2805.87 4430.83 2806.26 4432.51 2806.59 4434.22C2806.92 4436.18 2807.14 4438.19 2807.29 4440.17C2807.31 4440.23 2807.29 4440.28 2807.31 4440.34C2807.31 4440.34 2807.29 4440.32 2807.29 4440.3C2807.29 4440.39 2807.29 4440.49 2807.31 4440.6C2807.34 4442.47 2807.29 4444.33 2807.16 4446.16C2806.96 4448.17 2806.74 4450.15 2806.41 4452.14C2806.13 4453.57 2805.8 4455.01 2805.41 4456.44C2804.22 4460.37 2802.78 4464.2 2801.3 4468.04C2801.46 4467.62 2801.61 4467.19 2801.76 4466.79C2800.1 4471.04 2798.35 4475.23 2796.76 4479.51C2794.95 4484.31 2793.08 4489.18 2791.92 4494.18C2791.28 4496.99 2790.8 4499.86 2790.56 4502.74C2790.23 4506.15 2790.05 4509.55 2790.67 4512.91C2791.88 4519.51 2796.31 4525.28 2802.16 4528.48C2807.09 4531.16 2812.75 4532.01 2818.19 4532.93C2823.65 4533.85 2829.13 4534.78 2834.6 4535.61C2834.42 4535.57 2834.24 4535.54 2834.03 4535.5C2834.86 4535.65 2835.71 4535.76 2836.52 4535.89C2839.14 4536.27 2841.77 4536.62 2844.42 4536.75C2847.47 4536.94 2850.52 4537.12 2853.57 4536.94C2854.29 4536.88 2854.99 4536.84 2855.71 4536.75C2856.48 4540.3 2857.66 4543.77 2859.35 4546.95C2860.74 4549.6 2862.36 4552.01 2864.24 4554.34C2865.63 4556.07 2867.1 4557.71 2868.59 4559.32C2871.83 4562.85 2875.21 4566.27 2878.17 4570.02C2879.22 4571.44 2880.15 4572.89 2881.09 4574.4C2881.15 4574.49 2881.2 4574.56 2881.24 4574.66C2882.16 4576.33 2883.02 4578.06 2883.79 4579.8C2884.18 4580.76 2884.49 4581.75 2884.81 4582.76C2885.08 4583.79 2885.32 4584.86 2885.52 4585.91C2885.6 4586.55 2885.69 4587.19 2885.72 4587.85C2885.71 4589.03 2885.65 4590.19 2885.54 4591.35C2885.43 4592.17 2885.3 4593 2885.12 4593.83C2884.55 4595.98 2883.87 4598.11 2883.06 4600.19C2882.2 4602.23 2881.24 4604.21 2880.15 4606.16C2879.25 4607.71 2878.32 4609.19 2877.27 4610.65C2876.46 4611.66 2875.63 4612.67 2874.71 4613.59C2869.46 4618.72 2863.35 4622.89 2858.17 4628.11C2858.17 4628.09 2858.17 4628.09 2858.17 4628.09C2858.11 4628.15 2858.08 4628.16 2858.02 4628.24C2857.97 4628.29 2857.89 4628.35 2857.82 4628.44C2857.89 4628.39 2857.97 4628.31 2858.02 4628.24C2858.08 4628.18 2858.11 4628.15 2858.17 4628.11C2856.7 4629.64 2855.23 4631.31 2854.16 4633.18C2851.57 4632.69 2848.7 4632.96 2846.18 4633.22C2839.81 4633.94 2833.35 4635.11 2827.29 4637.23C2821.5 4639.25 2816.13 4642.23 2811.39 4646.12C2808.98 4648.11 2806.64 4650.46 2804.99 4653.15C2803.32 4655.9 2802.09 4658.9 2801.22 4661.97C2799.57 4667.72 2798.63 4673.66 2797.75 4679.6C2797.01 4684.6 2796.48 4689.69 2795.43 4694.65C2795.17 4695.65 2794.88 4696.64 2794.53 4697.61C2794.22 4698.4 2793.85 4699.17 2793.45 4699.91C2791.48 4703.48 2789.22 4706.88 2787.4 4710.52C2785.14 4715 2783.96 4719.8 2783.65 4724.8C2783.36 4729.54 2784.07 4734.36 2785.73 4738.82C2786.83 4741.77 2788.19 4744.65 2789.46 4747.52C2789.53 4747.68 2789.59 4747.83 2789.66 4747.98C2791.94 4753.27 2794.15 4758.62 2795.78 4764.16C2796.7 4767.46 2797.51 4770.79 2798.3 4774.12C2798.5 4774.91 2798.69 4775.72 2798.87 4776.51C2797.51 4776.25 2796.08 4776.01 2794.62 4775.79Z"
        fill="#584434"/>
</svg>