<svg
    width="7773"
    height="7615"
    viewBox="0 0 7773 7615"
    fill="none"
    xmlns="http://www.w3.org/2000/svg">
    <path id="BG"
        d="M5563.72 6307.82C5562.05 6303.52 5560.16 6299.31 5558.49 6295.04C5557.9 6293.43 5557.4 6291.81 5556.96 6290.19C5556.83 6289.53 5556.74 6288.87 5556.63 6288.21C5556.43 6286.24 5556.37 6284.27 5556.39 6282.29C5556.63 6274.4 5557.57 6266.55 5557.68 6258.67C5557.68 6259.09 5557.66 6259.51 5557.66 6259.94C5557.77 6253.54 5557.33 6247.16 5556.72 6240.78C5556.21 6234.79 5555.75 6228.72 5554.59 6222.82C5553.19 6215.76 5550.84 6208.89 5546.02 6203.39C5543.87 6200.95 5541.5 6198.74 5539.15 6196.5C5536.87 6194.33 5534.7 6192.12 5532.59 6189.79C5530.21 6187.05 5528.04 6184.2 5525.71 6181.46C5524.29 6179.79 5522.92 6178.1 5521.28 6176.65C5519.85 6175.4 5518.41 6174.15 5516.87 6173.01C5513.67 6170.65 5510.34 6168.76 5506.63 6167.33C5503.49 6166.09 5500.25 6165.03 5497.03 6163.96C5497.46 6164.11 5497.88 6164.24 5498.3 6164.39C5491.69 6162.2 5485.05 6160.08 5478.52 6157.66C5476.15 6156.77 5473.8 6155.89 5471.39 6155.18C5469.59 6154.61 5467.81 6154.05 5466.04 6153.39C5465.16 6153.01 5464.28 6152.6 5463.4 6152.16C5463.32 6152.12 5463.27 6152.09 5463.21 6152.05C5462.13 6151.39 5461.13 6150.67 5460.12 6149.94C5458.12 6148.37 5456.19 6146.74 5454.35 6144.96C5453.51 6144.09 5452.68 6143.15 5451.87 6142.2C5451.59 6141.83 5451.36 6141.44 5451.1 6141.06C5450.99 6140.89 5450.9 6140.69 5450.8 6140.54C5450.64 6140.08 5450.49 6139.62 5450.34 6139.17C5450.12 6138.34 5449.96 6137.49 5449.79 6136.65C5449.41 6133.63 5449.22 6130.58 5448.97 6127.55C5448.67 6123.82 5448.25 6120.12 5448.12 6116.39C5448.12 6115.19 5448.16 6114.04 5448.23 6112.84C5448.38 6111.76 5448.54 6110.65 5448.76 6109.57C5448.89 6109.17 5449 6108.76 5449.13 6108.36C5449.44 6107.59 5449.76 6106.83 5450.11 6106.1C5450.31 6105.73 5450.53 6105.36 5450.75 6104.99C5451.01 6104.63 5451.3 6104.28 5451.58 6103.93C5453.45 6101.92 5455.38 6099.94 5457.15 6097.82C5459.63 6094.77 5461.74 6091.43 5463.49 6087.9C5465.64 6083.52 5466.91 6078.73 5467.51 6073.89C5467.83 6071.52 5467.9 6069.17 5467.75 6066.78C5467.64 6064.7 5467.18 6062.62 5466.7 6060.62C5464.72 6052.27 5461.63 6044.2 5458.54 6036.23C5455.64 6028.67 5452.42 6021.23 5449.66 6013.58C5449.28 6012.33 5448.95 6011.04 5448.65 6009.77C5448.62 6009.42 5448.54 6009.06 5448.51 6008.71C5448.51 6008.17 5448.52 6007.62 5448.54 6007.11C5448.56 6006.96 5448.58 6006.83 5448.62 6006.67C5448.67 6006.56 5448.73 6006.45 5448.8 6006.37C5449.54 6005.33 5450.31 6004.3 5451.13 6003.3C5455.88 5997.94 5461.02 5992.95 5466.32 5988.12C5466.76 5987.73 5467.16 5987.37 5467.59 5986.96C5467.29 5987.26 5466.98 5987.53 5466.69 5987.81C5472.07 5982.97 5477.6 5978.36 5483.17 5973.75C5488.41 5969.43 5493.67 5965.07 5498.71 5960.49C5504.19 5955.53 5509.48 5950.27 5513.82 5944.24C5516.19 5940.99 5518.54 5937.37 5518.96 5933.27C5519.41 5929.1 5517.53 5925.47 5514.92 5922.44C5514.99 5922.51 5515.05 5922.57 5515.12 5922.64C5514.97 5922.48 5514.83 5922.33 5514.7 5922.18C5514.75 5922.28 5514.85 5922.35 5514.92 5922.44C5512.62 5920.03 5509.9 5918.32 5506.94 5916.78C5504.42 5915.46 5501.87 5914.17 5499.31 5912.88C5493.62 5910.02 5487.94 5907.13 5482.31 5904.11C5471.24 5898.1 5461.06 5890.68 5449.94 5884.83C5450.31 5885.02 5450.71 5885.24 5451.08 5885.42C5447.27 5883.4 5443.41 5881.65 5439.43 5880.09C5436.36 5878.91 5433.25 5877.81 5430.12 5876.74C5423.67 5874.5 5417.18 5872.31 5410.97 5869.48C5408.54 5868.31 5406.19 5866.96 5403.89 5865.57C5403.07 5865 5402.27 5864.41 5401.5 5863.8C5400.95 5863.27 5400.4 5862.75 5399.9 5862.2C5399.15 5861.34 5398.43 5860.44 5397.73 5859.5C5397.16 5858.66 5396.65 5857.77 5396.15 5856.89C5395.14 5854.81 5394.24 5852.72 5393.42 5850.59C5390.55 5842.81 5388.42 5834.78 5385.31 5827.08C5383.76 5823.22 5382.02 5819.45 5380.16 5815.72C5378.43 5812.24 5376.93 5808.73 5375.6 5805.11C5374.63 5802.35 5373.75 5799.58 5373.05 5796.73C5372.9 5795.95 5372.77 5795.18 5372.68 5794.43C5372.64 5793.86 5372.62 5793.33 5372.62 5792.79C5372.64 5792.55 5372.66 5792.3 5372.68 5792.06C5372.72 5791.98 5372.72 5791.91 5372.75 5791.82C5373.47 5791.23 5374.22 5790.66 5374.98 5790.13C5377.13 5788.77 5379.39 5787.66 5381.65 5786.53C5383.97 5785.39 5386.15 5784.06 5387.97 5782.2C5391.6 5778.53 5393.29 5773.47 5395.6 5768.97C5395.58 5769.01 5395.55 5769.06 5395.53 5769.1C5398.98 5762.39 5402.4 5755.66 5405.77 5748.9C5407.57 5745.26 5409.39 5741.54 5410.66 5737.67C5410.93 5736.84 5411.19 5735.99 5411.43 5735.15C5412.37 5736.16 5413.34 5737.15 5414.3 5738.14C5417.59 5741.45 5421.15 5744.5 5425 5747.19C5427.61 5749.03 5430.29 5750.79 5432.84 5752.74C5434.28 5753.93 5435.66 5755.17 5436.98 5756.49C5437.7 5757.28 5438.38 5758.07 5439.02 5758.92C5439.2 5759.19 5439.39 5759.47 5439.55 5759.76C5439.57 5759.82 5439.55 5759.87 5439.57 5759.94C5439.55 5760.05 5439.55 5760.17 5439.54 5760.28C5439.44 5760.77 5439.31 5761.29 5439.19 5761.78C5437.83 5766.18 5435.99 5770.37 5434.83 5774.83C5434.06 5777.92 5433.54 5781.19 5433.75 5784.37C5433.98 5788 5435.03 5792 5437.99 5794.41C5439.48 5795.59 5440.95 5796.54 5442.73 5797.2C5443.86 5797.61 5444.98 5797.98 5446.15 5798.27C5448.08 5798.77 5450.05 5799.12 5452.02 5799.39C5452.55 5799.47 5453.05 5799.54 5453.58 5799.61C5457.31 5800.13 5461.06 5800.31 5464.81 5800.29C5473.52 5800.29 5482.18 5799.1 5490.8 5798.11C5503.89 5796.6 5517.02 5795.35 5530.1 5793.97C5539.11 5793.03 5548.14 5792.17 5557.11 5791.1C5566.52 5789.96 5575.89 5788.68 5585.27 5787.3C5594.37 5785.96 5603.45 5784.43 5612.51 5782.72C5620.51 5781.21 5628.48 5779.69 5636.52 5778.42C5636.44 5778.44 5636.35 5778.44 5636.28 5778.44C5650.69 5776.29 5665.19 5774.59 5679.71 5773.16C5696.3 5771.51 5712.88 5769.78 5729.42 5767.72C5729.6 5767.68 5729.77 5767.68 5729.95 5767.65C5729.86 5767.65 5729.75 5767.66 5729.66 5767.68C5744.97 5765.77 5760.25 5763.82 5775.61 5762.32C5789.4 5760.96 5803.2 5759.52 5817.01 5758.25C5816.97 5758.25 5816.95 5758.24 5816.92 5758.24C5819.64 5758.01 5822.34 5757.81 5825.06 5757.63C5833.94 5757.04 5842.86 5757.21 5851.7 5756.42C5859.45 5755.72 5867.49 5755.09 5874.93 5752.61C5884.97 5749.28 5893.19 5742.3 5900.81 5735.2C5904.75 5731.54 5908.59 5727.79 5911.42 5723.16C5913.64 5719.52 5915.56 5715.66 5917.39 5711.78C5921.36 5703.36 5924.93 5694.78 5929.32 5686.56C5929.27 5686.62 5929.25 5686.67 5929.21 5686.75C5929.21 5686.73 5929.21 5686.73 5929.21 5686.73C5929.27 5686.62 5929.32 5686.53 5929.36 5686.43C5931.11 5683.27 5932.93 5680.17 5935.06 5677.24C5934.89 5677.45 5934.73 5677.67 5934.56 5677.87C5934.75 5677.63 5934.97 5677.37 5935.15 5677.11C5937.23 5674.47 5939.43 5672.02 5941.81 5669.69C5943.88 5667.85 5946.07 5666.18 5948.33 5664.54C5955.26 5659.63 5962.58 5655.26 5969.86 5650.88C5979.52 5645.08 5989.1 5639.05 5998.59 5632.94C6009.47 5625.92 6020.31 5618.77 6030.88 5611.25C6035.57 5607.93 6040.24 5604.54 6044.93 5601.2C6048.92 5598.33 6052.96 5595.48 6057.3 5593.16C6057.76 5592.93 6058.24 5592.69 6058.71 5592.45C6058.33 5592.65 6057.94 5592.83 6057.57 5593.04C6058.35 5592.65 6059.1 5592.32 6059.87 5592.01C6060.15 5591.93 6060.42 5591.86 6060.74 5591.79C6061.88 5591.6 6063.02 5591.47 6064.16 5591.36C6065.92 5591.31 6067.65 5591.36 6069.41 5591.46C6070.66 5591.53 6071.91 5591.64 6073.14 5591.79C6083.09 5592.8 6092.94 5594.45 6102.89 5595.43C6109.17 5596.07 6115.5 5596.23 6121.84 5596.14C6129.93 5596.01 6138.07 5595.59 6146.1 5594.67C6155.02 5593.66 6163.86 5592.26 6172.61 5590.28C6177.22 5589.25 6181.82 5588.09 6186.38 5586.88C6189.96 5585.94 6193.57 5584.95 6197.2 5584.18C6199.08 5583.81 6200.95 5583.55 6202.83 5583.39C6203.97 5583.33 6205.11 5583.33 6206.23 5583.39C6207.02 5583.48 6207.81 5583.57 6208.58 5583.73C6209.23 5583.9 6209.85 5584.08 6210.48 5584.25C6211.12 5584.49 6211.73 5584.73 6212.35 5584.97C6212.52 5585.08 6212.65 5585.15 6212.79 5585.22C6213.11 5585.46 6213.42 5585.72 6213.71 5585.96C6214.65 5586.82 6215.51 5587.74 6216.36 5588.66C6216.56 5588.9 6216.78 5589.16 6217 5589.4C6221.73 5594.69 6226.36 5600 6231.71 5604.63C6231.56 5604.52 6231.47 5604.41 6231.34 5604.34C6231.6 5604.56 6231.87 5604.8 6232.15 5605.04C6234.02 5606.62 6235.97 5608.11 6238.14 5609.32C6240.29 5610.52 6242.5 5611.58 6244.76 5612.56C6248.73 5614.27 6252.74 5615.85 6256.8 5617.3C6261.16 5618.86 6265.55 5620.31 6270.09 5621.18C6280.11 5623.07 6290.35 5622.52 6300.42 5621.53C6317.92 5619.78 6335.25 5616.67 6352.39 5612.7C6351.39 5615.52 6350.33 5618.31 6349.37 5621.14C6348.86 5622.83 6348.36 5624.52 6347.97 5626.25C6347.92 5626.69 6347.85 5627.12 6347.81 5627.56C6347.86 5627.89 6347.9 5628.2 6347.97 5628.55C6348.18 5629.43 6348.38 5630.3 6348.65 5631.16C6349.72 5633.95 6350.88 5636.69 6351.91 5639.51C6353.65 5644.17 6355.53 5649.23 6355.6 5654.27C6355.69 5660.72 6353.29 5667.1 6350.46 5672.81C6348.38 5676.99 6345.79 5680.66 6342.4 5683.82C6338.32 5687.24 6333.76 5689.43 6328.69 5691.07C6325.44 5692.1 6322.04 5692.43 6318.69 5693.02C6317.5 5693.31 6316.32 5693.6 6315.13 5693.95C6313.23 5694.63 6311.39 5695.41 6309.56 5696.25C6306.84 5697.7 6304.21 5699.21 6301.63 5700.9C6299.52 5702.35 6297.5 5703.9 6295.55 5705.55C6294.57 5706.47 6293.64 5707.39 6292.7 5708.35C6292.28 5708.92 6291.84 5709.49 6291.43 5710.06C6291.3 5710.33 6291.16 5710.57 6291.01 5710.83C6290.57 5711.86 6290.18 5712.92 6289.81 5713.97C6289.41 5715.5 6289.06 5717.04 6288.71 5718.58C6288.54 5719.93 6288.42 5721.25 6288.32 5722.59C6288.29 5723.92 6288.31 5725.22 6288.34 5726.54C6288.75 5730.26 6289.48 5733.93 6290.11 5737.65C6290.84 5742.33 6291.25 5747 6291.52 5751.71C6292.02 5759.89 6291.69 5768.2 6291.25 5776.36C6291.28 5775.86 6291.3 5775.35 6291.34 5774.85C6291.01 5781.41 6290.62 5787.98 6289.98 5794.54C6289.41 5800.51 6288.6 5806.47 6287.99 5812.44C6287.41 5818.18 6287.26 5823.95 6286.65 5829.67C6286.32 5832.66 6285.93 5835.79 6285.05 5838.67C6284 5842.11 6282.68 5845.33 6281.14 5848.58C6279.91 5851.14 6278.6 5853.64 6277.04 5856.05C6275.05 5859.12 6272.85 5862.02 6270.62 5864.91C6266.84 5869.8 6263.01 5874.59 6259.52 5879.7C6259.04 5880.48 6258.58 5881.28 6258.12 5882.11C6257.96 5882.52 6257.79 5882.9 6257.64 5883.31C6257.5 5883.84 6257.37 5884.39 6257.26 5884.94C6256.82 5887.59 6256.49 5890.24 6256.3 5892.92C6256.27 5893.89 6256.28 5894.91 6256.3 5895.9C6256.34 5896.12 6256.36 5896.36 6256.39 5896.58C6256.43 5896.73 6256.47 5896.85 6256.5 5897C6256.52 5897.04 6256.54 5897.06 6256.54 5897.07C6256.85 5897.68 6257.22 5898.25 6257.57 5898.82C6257.9 5899.28 6258.25 5899.74 6258.58 5900.18C6258.89 5900.49 6259.24 5900.81 6259.58 5901.14C6260.59 5901.96 6261.62 5902.72 6262.7 5903.49C6266.62 5905.95 6270.64 5908.21 6274.78 5910.27C6278.47 5911.96 6282.2 5913.53 6286.03 5914.98C6289.89 5916.41 6293.8 5917.61 6297.68 5919.02C6301.91 5920.55 6305.86 5922.61 6309.74 5924.83C6313.49 5926.96 6317.29 5928.97 6321.08 5931.04C6328.4 5935.05 6334.55 5940.58 6340.44 5946.43C6347.64 5953.6 6352.18 5962.53 6354.1 5972.46C6355.2 5978.32 6355.29 5984.35 6355.66 5990.33C6353.38 5990.47 6351.1 5990.58 6348.8 5990.64C6346.74 5990.64 6344.72 5990.57 6342.68 5990.44C6340.38 5990.31 6338.08 5990.05 6335.79 5990.25C6331.28 5990.64 6327.07 5992.09 6323.12 5994.2C6318.91 5996.45 6314.94 5999.02 6311.43 6002.26C6308.78 6004.7 6306.3 6007.29 6303.65 6009.68C6303.54 6009.77 6303.42 6009.88 6303.29 6009.96C6303.14 6010.05 6302.97 6010.14 6302.83 6010.22C6302.59 6010.33 6302.31 6010.44 6302.07 6010.53C6301.36 6010.73 6300.64 6010.91 6299.91 6011.08C6298.91 6011.26 6297.92 6011.37 6296.89 6011.48C6294.61 6011.61 6292.31 6011.61 6290.03 6011.52C6286.23 6011.26 6282.44 6010.8 6278.69 6010.2C6276.98 6009.85 6275.25 6009.48 6273.58 6009.02C6272.13 6008.52 6270.75 6007.99 6269.37 6007.38C6268.53 6006.94 6267.72 6006.47 6266.89 6005.99C6264.94 6004.63 6263.09 6003.17 6261.23 6001.65C6261.19 6001.61 6261.17 6001.59 6261.14 6001.58C6261.16 6001.59 6261.19 6001.61 6261.21 6001.65C6261.14 6001.59 6261.08 6001.54 6261.01 6001.48C6256.65 5997.68 6252.37 5993.78 6247.7 5990.31C6244.04 5987.61 6239.94 5984.7 6235.4 5983.82C6234.21 5983.58 6233.07 5983.4 6231.84 5983.36C6230.46 5983.32 6229.3 5983.49 6227.96 5983.76C6225.81 5984.22 6224.06 5985.09 6222.3 5986.39C6220.95 5987.4 6220 5988.8 6219.01 5990.12C6218.66 5990.49 6218.34 5990.84 6217.98 5991.19C6217.31 5991.8 6216.6 5992.37 6215.86 5992.9C6212.66 5995.11 6209.26 5996.96 6205.84 5998.76C6205.84 5998.76 6205.84 5998.76 6205.86 5998.74C6205.84 5998.76 6205.81 5998.76 6205.79 5998.78C6205.72 5998.82 6205.62 5998.86 6205.55 5998.91C6205.38 5999 6205.2 5999.09 6205.04 5999.19C6205.02 5999.2 6205 5999.2 6204.98 5999.22C6204.94 5999.24 6204.91 5999.26 6204.87 5999.28C6204.83 5999.3 6204.8 5999.32 6204.74 5999.33C6204.76 5999.33 6204.78 5999.31 6204.8 5999.31C6204.65 5999.39 6204.5 5999.46 6204.36 5999.54C6204.34 5999.55 6204.32 5999.55 6204.3 5999.57C6204.21 5999.63 6204.12 5999.66 6204.02 5999.72C6204.08 5999.68 6204.15 5999.65 6204.21 5999.63C6204.14 5999.66 6204.08 5999.7 6204.01 5999.74C6203.97 5999.76 6203.93 5999.77 6203.91 5999.79C6203.95 5999.77 6203.99 5999.76 6204.01 5999.74C6203.69 5999.9 6203.38 6000.05 6203.07 6000.22C6203.16 6000.16 6203.25 6000.11 6203.36 6000.05C6202.06 6000.73 6200.75 6001.41 6199.43 6002.11C6198.73 6002.5 6198.01 6002.84 6197.32 6003.23C6197.68 6003.03 6198.07 6002.84 6198.44 6002.64C6196.74 6003.54 6195.04 6004.44 6193.34 6005.34C6193.47 6005.27 6193.58 6005.2 6193.71 6005.14C6193.58 6005.22 6193.46 6005.29 6193.34 6005.34C6193.29 6005.38 6193.22 6005.4 6193.16 6005.44C6193.12 6005.45 6193.09 6005.49 6193.03 6005.51C6192.89 6005.58 6192.74 6005.66 6192.59 6005.73C6192.61 6005.73 6192.61 6005.73 6192.63 6005.71C6192.57 6005.75 6192.52 6005.77 6192.46 6005.8C6191.19 6006.48 6189.91 6007.16 6188.64 6007.84C6188.42 6007.95 6188.22 6008.06 6188.01 6008.17C6188.07 6008.14 6188.16 6008.1 6188.22 6008.06C6187.32 6008.54 6186.4 6009.04 6185.5 6009.52C6185.48 6009.54 6185.46 6009.54 6185.44 6009.55C6185.24 6009.66 6185.04 6009.76 6184.83 6009.88C6185.04 6009.77 6185.24 6009.66 6185.44 6009.55C6185.2 6009.68 6184.96 6009.81 6184.72 6009.94C6184.76 6009.92 6184.8 6009.88 6184.83 6009.87C6178.27 6013.38 6171.82 6017.2 6165.77 6021.54C6159.08 6026.35 6152.79 6031.78 6147.87 6038.38C6148.07 6038.12 6148.27 6037.84 6148.47 6037.57C6148.22 6037.92 6147.96 6038.27 6147.7 6038.62C6147.72 6038.58 6147.74 6038.56 6147.78 6038.52C6146.45 6040.36 6145.22 6042.22 6144.21 6044.26C6143.49 6045.69 6142.9 6047.14 6142.21 6048.56C6141.75 6049.33 6141.27 6050.12 6140.77 6050.88C6140.04 6051.85 6139.26 6052.77 6138.47 6053.71C6137.7 6054.48 6136.93 6055.21 6136.08 6055.93C6134.67 6057.09 6133.24 6058.21 6131.71 6059.22C6127.92 6061.61 6124.04 6063.82 6120.24 6066.13C6117.92 6067.53 6115.55 6068.95 6113.42 6070.6C6111.27 6072.24 6109.54 6074.26 6107.85 6076.32C6104.56 6080.36 6101.38 6084.44 6098.38 6088.71C6095.5 6092.77 6092.7 6096.87 6090.26 6101.21C6089.96 6101.11 6089.67 6101.02 6089.38 6100.93C6087.06 6100.23 6084.69 6099.79 6082.28 6099.48C6079.87 6099.15 6077.52 6098.93 6075.07 6098.91C6072.7 6098.89 6070.44 6099.18 6068.14 6099.75C6064.98 6100.54 6062.21 6102.11 6059.6 6103.98C6057.21 6105.71 6054.84 6107.47 6052.61 6109.44C6049.32 6112.35 6046.14 6115.49 6043.66 6119.13C6041.34 6122.51 6039.51 6126.28 6039.56 6130.49C6039.56 6133.83 6040.7 6136.89 6042.41 6139.7C6044.1 6142.53 6046.14 6145.16 6048 6147.88C6049.91 6150.73 6051.69 6153.61 6053.42 6156.59C6056.66 6162.64 6059.34 6168.96 6061.97 6175.29C6064.67 6181.81 6067.98 6188.08 6070.72 6194.59C6071.05 6195.47 6071.34 6196.33 6071.6 6197.23C6071.64 6197.29 6071.64 6197.36 6071.66 6197.42C6071.66 6197.55 6071.67 6197.71 6071.67 6197.84C6071.66 6197.91 6071.66 6198.01 6071.62 6198.08C6071.55 6198.28 6071.47 6198.5 6071.42 6198.7C6071.21 6199.02 6071.01 6199.33 6070.79 6199.66C6070.61 6199.9 6070.39 6200.14 6070.17 6200.38C6069.87 6200.67 6069.56 6200.97 6069.23 6201.24C6068.86 6201.5 6068.48 6201.72 6068.13 6201.94C6064.74 6203.81 6061.25 6205.43 6057.76 6207.1C6054.01 6208.92 6050.24 6210.73 6046.42 6212.42C6043.16 6213.74 6039.87 6214.95 6036.53 6216.04C6026.36 6219.07 6015.98 6221.35 6005.85 6224.51C5995.72 6227.67 5986.03 6232.01 5976.03 6235.6C5970.89 6237.29 5965.7 6238.57 5960.41 6239.75C5959.31 6239.97 5958.22 6240.17 5957.12 6240.39C5951.71 6241.42 5946.27 6242.07 5940.81 6242.49C5935.35 6242.78 5929.93 6242.93 5924.49 6243.04C5919.34 6243.12 5914.21 6243.19 5909.07 6242.99C5905.74 6242.77 5902.45 6242.45 5899.16 6241.94C5893.07 6240.76 5887.05 6239.29 5881.14 6237.51C5877.45 6236.3 5873.79 6235.06 5870.23 6233.5C5870.15 6233.46 5870.08 6233.41 5870 6233.39C5870.04 6233.41 5870.1 6233.45 5870.15 6233.46C5870.1 6233.43 5870.04 6233.41 5869.99 6233.37C5869.95 6233.35 5869.91 6233.34 5869.86 6233.32C5869.88 6233.32 5869.88 6233.32 5869.88 6233.32C5869.84 6233.3 5869.78 6233.28 5869.75 6233.26C5864.29 6230.65 5858.94 6227.82 5853.55 6225.05C5847.43 6221.92 5841.29 6218.87 5835.02 6216C5831.26 6214.27 5827.43 6212.84 5823.46 6211.7C5819.97 6210.73 5816.2 6210.54 5812.64 6210.82C5808.5 6211.13 5804.66 6212.51 5800.98 6214.33C5798.52 6215.52 5796.02 6216.68 5793.5 6217.73C5791.61 6218.46 5789.69 6219.13 5787.73 6219.71C5786.99 6219.88 5786.24 6220.03 5785.48 6220.16C5779.9 6220.76 5774.18 6220.69 5768.68 6221.92C5765.74 6222.58 5762.98 6223.65 5760.36 6225.1C5757.8 6226.53 5755.32 6228.12 5752.95 6229.81C5748.46 6232.93 5744.13 6236.28 5739.9 6239.77C5735.61 6243.3 5731.44 6246.98 5727.07 6250.41C5727.12 6250.36 5727.18 6250.32 5727.23 6250.28C5720.43 6255.47 5713.65 6260.69 5706.79 6265.76C5702.8 6268.65 5698.8 6271.44 5694.7 6274.14C5691.72 6276.04 5688.74 6277.88 5685.71 6279.71C5683.87 6280.74 5681.99 6281.68 5680.08 6282.62C5679.11 6283.02 5678.13 6283.45 5677.14 6283.81C5676.42 6284.03 5675.74 6284.24 5675.05 6284.42C5674.81 6284.46 5674.59 6284.51 5674.35 6284.55C5674.02 6284.57 5673.69 6284.59 5673.35 6284.59C5671.98 6284.53 5670.58 6284.46 5669.2 6284.35C5662.82 6283.78 5656.5 6283.28 5650.1 6282.93C5643.34 6282.54 5636.52 6282.25 5629.75 6282.77C5625.54 6283.1 5620.98 6283.57 5617.09 6285.36C5613.83 6286.85 5610.89 6288.72 5608.1 6290.96C5602.8 6295.17 5598.03 6299.95 5592.9 6304.33C5590.8 6306.06 5588.65 6307.69 5586.39 6309.22C5584.24 6310.5 5582.05 6311.72 5579.79 6312.8C5577.73 6313.68 5575.69 6314.47 5573.58 6315.19C5571.54 6315.83 5569.5 6316.51 5567.42 6316.97C5567.38 6316.97 5567.35 6316.97 5567.29 6316.97C5566 6313.92 5564.9 6310.85 5563.72 6307.82Z"
        fill="#584434"/>
</svg>