<svg
    width="7773"
    height="7615"
    viewBox="0 0 7773 7615"
    fill="none"
    xmlns="http://www.w3.org/2000/svg">
    <path
        id="BY"
        d="M5205.22 4137.84C5204.25 4134.02 5203.45 4130.16 5202.9 4126.26C5202.57 4123.36 5202.41 4120.45 5202.37 4117.51C5202.43 4113.84 5202.68 4110.18 5202.98 4106.52C5203.79 4096.8 5204.58 4087.05 5204.7 4077.29C5204.78 4072.86 5204.76 4068.43 5204.26 4064.04C5203.73 4059.13 5202.5 4054.41 5199.59 4050.33C5193.68 4042.04 5184.72 4036.76 5175.4 4033.03C5167.46 4029.83 5159.12 4027.9 5151.18 4024.72C5149.71 4024.08 5148.29 4023.4 5146.89 4022.64C5146.4 4022.35 5145.94 4022.02 5145.46 4021.69C5145.37 4021.6 5145.24 4021.5 5145.13 4021.41C5145.07 4021.28 5144.98 4021.17 5144.91 4021.06C5144.87 4021.03 5144.85 4020.97 5144.83 4020.93C5144.8 4020.79 5144.76 4020.66 5144.71 4020.49C5144.65 4020.22 5144.6 4019.94 5144.54 4019.67C5144.56 4019.83 5144.58 4019.96 5144.6 4020.13C5144.6 4020.13 5144.6 4020.13 5144.58 4020.11C5144.5 4019.59 5144.49 4019.08 5144.45 4018.54C5144.52 4017.57 5144.58 4016.61 5144.65 4015.68C5144.6 4016.08 5144.56 4016.5 5144.49 4016.93C5144.6 4015.81 5144.8 4014.7 5145.07 4013.58C5147.15 4006.08 5149.76 3998.75 5152.76 3991.56C5152.81 3991.47 5152.83 3991.38 5152.89 3991.28V3991.3C5154.72 3987.02 5156.67 3982.79 5158.64 3978.55C5159.96 3975.7 5161.34 3972.85 5162.92 3970.11C5163.97 3968.45 5165.11 3966.85 5166.3 3965.29C5171.82 3958.6 5178.07 3952.57 5183.45 3945.79C5188.99 3938.8 5193.8 3931.12 5197.68 3923.09C5199.61 3919.13 5201.43 3915.15 5202.9 3911.01C5204.36 3906.89 5205.64 3902.59 5206.05 3898.22C5206.27 3895.77 5206.32 3893.36 5206.14 3890.9C5205.92 3887.7 5205.27 3884.54 5204.58 3881.41C5202.77 3873.31 5199.93 3865.55 5196.54 3857.98C5195.48 3855.62 5194.43 3853.31 5193.31 3850.99C5192.72 3849.76 5192.17 3848.44 5191.47 3847.24C5191.32 3846.95 5191.16 3846.64 5190.99 3846.34C5190.5 3845.37 5190 3844.36 5189.47 3843.4C5187.15 3839.1 5184.74 3834.85 5182.13 3830.72C5176.4 3821.65 5170.29 3812.83 5164.3 3803.92C5164.25 3803.82 5164.17 3803.71 5164.1 3803.62C5164.17 3803.71 5164.23 3803.82 5164.3 3803.92C5164.21 3803.79 5164.14 3803.68 5164.04 3803.55C5164.03 3803.51 5164.01 3803.47 5163.97 3803.44C5154.28 3788.92 5144.85 3774.19 5136.95 3758.6C5131.4 3747.23 5126.69 3735.55 5122.54 3723.61C5118.02 3710.02 5114.43 3696.18 5109.72 3682.67C5109.27 3681.36 5108.81 3680.06 5108.33 3678.75C5110.86 3678.73 5113.4 3678.75 5115.94 3678.86C5118.25 3679.03 5120.55 3679.32 5122.89 3679.49C5126.45 3679.75 5130 3679.71 5133.53 3679.01C5140.31 3677.69 5146.8 3675.22 5153.27 3672.85C5159.87 3670.44 5166.45 3667.96 5172.96 3665.33C5186.36 3659.99 5199.48 3654.05 5213 3648.94C5219.61 3646.42 5226.3 3644.16 5232.98 3641.79C5241.03 3638.88 5249.08 3635.59 5256.16 3630.72C5259.74 3628.28 5263.33 3625.37 5266.01 3621.9C5268.2 3619.05 5270.09 3615.98 5271.76 3612.8C5274.87 3606.95 5276.89 3600.76 5278.78 3594.49C5278.78 3594.47 5278.78 3594.45 5278.78 3594.43C5278.78 3594.42 5278.82 3594.4 5278.82 3594.38C5278.86 3594.29 5278.89 3594.16 5278.91 3594.07C5278.91 3594.05 5278.91 3594.05 5278.91 3594.03C5278.95 3593.96 5278.97 3593.88 5278.99 3593.79C5279.02 3593.7 5279.02 3593.63 5279.06 3593.53C5279.06 3593.53 5279.06 3593.53 5279.06 3593.52V3593.53C5279.06 3593.52 5279.06 3593.53 5279.06 3593.52C5279.08 3593.48 5279.08 3593.44 5279.1 3593.42C5279.1 3593.41 5279.1 3593.41 5279.1 3593.41C5279.1 3593.37 5279.12 3593.35 5279.13 3593.33C5279.17 3593.24 5279.17 3593.17 5279.21 3593.09V3593.07C5279.23 3593.04 5279.24 3593 5279.24 3592.96C5279.24 3592.96 5279.24 3592.96 5279.24 3592.98C5279.3 3592.8 5279.34 3592.63 5279.39 3592.47C5279.39 3592.45 5279.39 3592.45 5279.39 3592.43C5279.39 3592.45 5279.39 3592.47 5279.39 3592.47C5279.35 3592.56 5279.35 3592.63 5279.32 3592.71C5279.35 3592.63 5279.37 3592.56 5279.39 3592.47C5279.41 3592.39 5279.43 3592.34 5279.46 3592.27C5279.46 3592.25 5279.46 3592.25 5279.46 3592.23C5279.52 3592.14 5279.54 3592.03 5279.57 3591.92C5279.57 3591.94 5279.57 3591.94 5279.56 3591.95C5279.59 3591.82 5279.63 3591.7 5279.67 3591.57C5279.67 3591.59 5279.67 3591.6 5279.67 3591.62C5279.67 3591.64 5279.67 3591.66 5279.65 3591.68C5279.65 3591.64 5279.65 3591.64 5279.67 3591.62C5279.67 3591.64 5279.67 3591.66 5279.65 3591.68C5279.65 3591.64 5279.67 3591.62 5279.68 3591.59C5279.68 3591.59 5279.68 3591.59 5279.68 3591.57C5279.7 3591.53 5279.72 3591.48 5279.72 3591.44C5279.76 3591.37 5279.78 3591.29 5279.8 3591.22C5279.8 3591.18 5279.83 3591.14 5279.83 3591.11C5279.83 3591.09 5279.83 3591.09 5279.83 3591.07V3591.05C5279.91 3590.87 5279.96 3590.67 5280.03 3590.48C5280.03 3590.5 5280.02 3590.52 5280 3590.54C5280 3590.52 5280 3590.5 5280 3590.5C5280.02 3590.48 5280.02 3590.45 5280.03 3590.43C5280.03 3590.43 5280.03 3590.41 5280.05 3590.41C5280.07 3590.35 5280.07 3590.3 5280.11 3590.26C5280.18 3589.97 5280.29 3589.67 5280.4 3589.38C5281.58 3586 5282.83 3582.58 5284.35 3579.34C5285.31 3577.51 5286.34 3575.74 5287.5 3573.99L5287.48 3574.01C5289.35 3571.24 5291.25 3568.41 5293.4 3565.87C5293.67 3565.61 5293.93 3565.34 5294.21 3565.06C5294.43 3564.91 5294.63 3564.75 5294.85 3564.6C5295.13 3564.44 5295.42 3564.27 5295.71 3564.1C5296.67 3563.68 5297.66 3563.33 5298.66 3563C5298.73 3562.98 5298.82 3562.95 5298.88 3562.93C5298.99 3562.91 5299.11 3562.85 5299.24 3562.82C5302.44 3561.88 5305.64 3561.11 5308.84 3560.26C5313.53 3559.03 5318.67 3558.02 5322.63 3555.06C5326.1 3552.43 5329.13 3549.31 5332.09 3546.13C5334.76 3543.24 5337.26 3540.23 5339.61 3537.12C5339.61 3537.12 5339.61 3537.14 5339.59 3537.14C5339.81 3536.86 5340 3536.61 5340.22 3536.33C5340.27 3536.27 5340.29 3536.24 5340.31 3536.2C5340.33 3536.18 5340.33 3536.18 5340.35 3536.16C5341.89 3534.07 5343.4 3531.92 5344.5 3529.56C5345.35 3527.75 5346.08 3525.91 5346.5 3523.96C5346.82 3522.51 5346.98 3521 5347.11 3519.53C5347.39 3516.29 5346.94 3513.09 5346.82 3509.88C5346.82 3509.66 5346.83 3509.47 5346.85 3509.27C5347.17 3507.69 5347.64 3506.18 5347.9 3504.6C5348.29 3502.53 5348.56 3500.41 5348.64 3498.28C5348.76 3493.66 5348.27 3489.07 5347.61 3484.51C5346.8 3478.83 5345.9 3473.17 5344.65 3467.58C5343.25 3461.42 5341.41 3455.39 5339.78 3449.33C5339.78 3449.33 5339.78 3449.35 5339.78 3449.36C5339.76 3449.25 5339.74 3449.14 5339.68 3449.03L5339.7 3449.05C5339.67 3448.92 5339.65 3448.79 5339.61 3448.65C5339.59 3448.61 5339.57 3448.56 5339.55 3448.48C5339.55 3448.46 5339.54 3448.43 5339.54 3448.43C5339.54 3448.39 5339.52 3448.37 5339.52 3448.33C5339.5 3448.32 5339.5 3448.32 5339.5 3448.3C5339.48 3448.28 5339.48 3448.26 5339.46 3448.24C5339.44 3448.13 5339.43 3448.02 5339.39 3447.93C5339.41 3447.99 5339.43 3448.06 5339.44 3448.13C5338.73 3445.28 5338.07 3442.4 5337.66 3439.46C5337.5 3437.97 5337.39 3436.52 5337.35 3435.01C5337.42 3433.98 5337.53 3432.95 5337.7 3431.9C5338.03 3430.03 5338.43 3428.21 5338.93 3426.37C5339.46 3424.7 5340.07 3423.08 5340.75 3421.46C5341.45 3420.03 5342.18 3418.63 5342.99 3417.25C5343.51 3416.46 5344.02 3415.69 5344.63 3414.93C5344.65 3414.9 5344.7 3414.84 5344.72 3414.81C5344.72 3414.81 5344.74 3414.79 5344.76 3414.77C5346.03 3413.26 5347.39 3411.83 5348.8 3410.43C5352.07 3407.43 5355.53 3404.68 5358.43 3401.35C5361.87 3397.44 5364.89 3393.13 5367.26 3388.48C5369.54 3384.03 5371.54 3379.44 5373.64 3374.9C5375.11 3371.72 5376.56 3368.46 5378.34 3365.41C5378.84 3364.62 5379.39 3363.83 5379.96 3363.08C5380.25 3362.73 5380.57 3362.42 5380.84 3362.12C5381.23 3361.77 5381.61 3361.44 5382 3361.13C5382.66 3360.67 5383.36 3360.23 5384.06 3359.83C5387.84 3357.79 5391.82 3356.11 5395.75 3354.42C5400.79 3352.29 5406.15 3350.08 5410.34 3346.46C5412.59 3344.53 5414.22 3342.25 5415.38 3339.51C5415.9 3338.3 5416.26 3337.01 5416.59 3335.73C5417.15 3333.41 5417.53 3331.02 5417.95 3328.67C5418.47 3325.78 5418.98 3322.9 5419.42 3320.03C5419.99 3316.37 5420.55 3312.75 5420.34 3309.07C5420.11 3304.64 5419.24 3299.83 5416.36 3296.33C5414.17 3293.69 5411.23 3291.78 5408.07 3290.53C5403.51 3288.72 5398.49 3288.63 5393.76 3287.38C5393.07 3287.14 5392.39 3286.9 5391.72 3286.61C5391.54 3286.52 5391.34 3286.44 5391.15 3286.33C5391.13 3285.67 5391.12 3285.01 5391.12 3284.39C5391.17 3281.61 5391.26 3278.87 5391.17 3276.1C5391.1 3273.43 5390.93 3270.73 5390.95 3268.04C5391.02 3264.46 5391.41 3260.88 5391.93 3257.33C5393.1 3249.66 5395.38 3241.72 5393.58 3233.98C5393.58 3233.96 5393.58 3233.98 5393.56 3233.96C5393.54 3233.93 5393.54 3233.91 5393.54 3233.85C5393.52 3233.74 5393.49 3233.61 5393.43 3233.49C5393.47 3233.61 5393.52 3233.72 5393.54 3233.85C5392.62 3230.78 5391.04 3228.06 5388.87 3225.78C5393.03 3223.56 5397.04 3221.15 5400.88 3218.43C5400.75 3218.52 5400.6 3218.63 5400.47 3218.74C5404.52 3215.84 5408.41 3212.75 5411.65 3208.96C5414.13 3206.06 5416.39 3202.99 5418.67 3199.94C5423.29 3193.74 5428.03 3187.68 5433.19 3181.96C5433.3 3181.83 5433.43 3181.74 5433.52 3181.63C5434.41 3180.71 5435.33 3179.81 5436.32 3178.98C5436.45 3178.89 5436.56 3178.78 5436.69 3178.71C5436.78 3178.67 5436.87 3178.62 5436.96 3178.58C5437.16 3178.49 5437.37 3178.43 5437.57 3178.36C5439.37 3177.92 5441.17 3177.66 5442.99 3177.31C5445.75 3176.8 5448.47 3176.04 5451.17 3175.27C5450.99 3175.34 5450.78 3175.38 5450.58 3175.45C5455.86 3173.93 5461.1 3172.26 5466.24 3170.4C5471.7 3168.45 5477.11 3166.39 5482.4 3164.06C5484.72 3163.03 5487.02 3161.92 5489.26 3160.71C5492.77 3158.78 5496.17 3156.72 5498.8 3153.63C5501.21 3150.8 5502.97 3147.37 5503.52 3143.67C5503.93 3140.86 5504.11 3138.06 5504.17 3135.23C5504.26 3129.32 5504.07 3123.4 5504.63 3117.48C5504.79 3116.14 5505.05 3114.79 5505.38 3113.45C5505.56 3112.88 5505.77 3112.29 5505.99 3111.72C5506.21 3111.26 5506.45 3110.79 5506.68 3110.35C5506.85 3110.07 5507.05 3109.79 5507.22 3109.52C5507.64 3109 5508.06 3108.53 5508.5 3108.05C5511.06 3105.57 5513.85 3103.32 5516.56 3101.03C5519.61 3098.42 5522.62 3095.73 5525.6 3093.05C5528.56 3090.36 5531.48 3087.64 5534.39 3084.87C5534.42 3084.83 5534.48 3084.79 5534.51 3084.76C5540.75 3089.79 5548.82 3092.02 5556.74 3092.35C5563.45 3092.62 5570.23 3090.9 5575.14 3086.04C5577.14 3084.08 5578.87 3081.93 5580.54 3079.68C5581.43 3078.51 5582.33 3077.33 5583.3 3076.21C5583.5 3076.04 5583.7 3075.86 5583.87 3075.68C5584.04 3075.57 5584.2 3075.46 5584.38 3075.33C5584.51 3075.29 5584.61 3075.22 5584.73 3075.16C5585.01 3075.07 5585.27 3074.98 5585.52 3074.87C5585.69 3074.83 5585.82 3074.79 5585.97 3074.78C5586.28 3074.74 5586.61 3074.72 5586.94 3074.7C5587.4 3074.7 5587.86 3074.74 5588.32 3074.78C5589.46 3074.96 5590.6 3075.2 5591.76 3075.47C5596.92 3076.91 5602 3078.8 5607.09 3080.57C5613.39 3082.75 5619.79 3085.2 5626.55 3085.31C5633.1 3085.42 5639.42 3083.71 5645.58 3081.67C5649.92 3080.24 5654.25 3078.71 5658.63 3077.39C5660.78 3076.8 5662.91 3076.26 5665.08 3075.92C5665.45 3075.88 5665.82 3075.84 5666.17 3075.82C5666.28 3075.84 5666.42 3075.84 5666.53 3075.86C5666.64 3075.88 5666.79 3075.9 5666.9 3075.92C5667.1 3075.99 5667.32 3076.04 5667.55 3076.12C5667.89 3076.28 5668.24 3076.43 5668.59 3076.61C5668.94 3076.82 5669.29 3077.04 5669.6 3077.28C5670.06 3077.64 5670.52 3078.05 5670.96 3078.45C5671.87 3079.37 5672.71 3080.33 5673.54 3081.3C5677.91 3086.94 5681.5 3093.12 5685.41 3099.08C5687.36 3102.04 5689.33 3105 5691.53 3107.81C5694.86 3112.07 5698.57 3116.39 5703.28 3119.19C5708.22 3122.16 5713.85 3123.67 5719.62 3122.59C5723.89 3121.76 5727.87 3119.9 5731.61 3117.75C5740.3 3112.75 5747.62 3105.58 5754.64 3098.53C5754.62 3098.56 5754.57 3098.62 5754.55 3098.64C5758.92 3094.22 5763.21 3089.67 5767.62 3085.29C5767.6 3085.31 5767.54 3085.35 5767.52 3085.36C5767.56 3085.33 5767.62 3085.27 5767.67 3085.24C5767.71 3085.2 5767.76 3085.18 5767.8 3085.12C5767.8 3085.11 5767.82 3085.09 5767.86 3085.07C5767.95 3085.01 5768.02 3084.92 5768.08 3084.85C5768.04 3084.89 5767.98 3084.94 5767.95 3084.96C5768.06 3084.83 5768.17 3084.74 5768.28 3084.63C5768.22 3084.7 5768.17 3084.76 5768.13 3084.79C5770.3 3082.72 5772.51 3080.73 5774.88 3078.91C5776.16 3077.99 5777.51 3077.13 5778.87 3076.34C5780.14 3075.69 5781.42 3075.07 5782.75 3074.56C5784.11 3074.06 5785.48 3073.65 5786.92 3073.31C5788.72 3072.94 5790.56 3072.64 5792.38 3072.46C5794.33 3072.31 5796.26 3072.26 5798.2 3072.29C5800.17 3072.42 5802.1 3072.64 5804.03 3072.94C5807.8 3073.69 5811.51 3074.68 5815.17 3075.81C5820.5 3077.48 5825.72 3079.37 5830.98 3081.19C5835.81 3082.9 5840.67 3084.57 5845.52 3086.28C5853.81 3089.24 5862.21 3092 5870.26 3095.55C5871.88 3096.28 5873.46 3097.07 5875 3097.99C5875.19 3098.1 5875.35 3098.21 5875.54 3098.34C5875.74 3098.53 5875.96 3098.73 5876.16 3098.93C5876.55 3099.37 5876.92 3099.81 5877.28 3100.29C5877.98 3101.32 5878.63 3102.37 5879.25 3103.43C5880.13 3105.16 5880.92 3106.91 5881.62 3108.69C5882.65 3111.63 5883.48 3114.59 5884.16 3117.64C5885.48 3123.54 5886.81 3129.44 5888.9 3135.14C5891.03 3140.93 5893.86 3146.54 5897.49 3151.56C5900.9 3156.28 5904.64 3160.69 5908.75 3164.83C5911.99 3168.08 5915.41 3171.15 5918.64 3174.41C5918.9 3174.72 5919.18 3175.03 5919.43 3175.33C5919.56 3175.53 5919.69 3175.73 5919.8 3175.91C5919.89 3176.1 5919.99 3176.28 5920.06 3176.46C5920.15 3176.78 5920.26 3177.11 5920.33 3177.44C5920.55 3178.52 5920.72 3179.63 5920.87 3180.73C5921.03 3183.14 5921.09 3185.51 5921.03 3187.92C5920.55 3196.78 5918.79 3205.51 5918.77 3214.37C5918.75 3223.5 5920.52 3232.79 5925.41 3240.62C5929.82 3247.75 5936.75 3253.49 5944.6 3256.46C5948.04 3257.79 5951.58 3258.65 5955.2 3259.39C5958.13 3259.97 5961.12 3260.43 5964.01 3261.19C5964.23 3261.26 5964.45 3261.35 5964.67 3261.44C5964.89 3261.57 5965.15 3261.7 5965.39 3261.83C5965.87 3262.14 5966.33 3262.49 5966.79 3262.82C5967.28 3263.26 5967.74 3263.72 5968.22 3264.17C5968.64 3264.66 5969.06 3265.18 5969.47 3265.67C5970.48 3267.11 5971.36 3268.6 5972.23 3270.12C5975.5 3276.28 5978.42 3282.64 5982.74 3288.14C5987.17 3293.72 5992.48 3298.45 5997.94 3303.01C6001.42 3305.89 6004.89 3308.8 6008.4 3311.63C6012.83 3315.19 6017.58 3318.36 6022.39 3321.37C6027.23 3324.39 6032.21 3327.12 6037.23 3329.79C6041.16 3331.85 6045.04 3333.89 6048.84 3336.19C6052.3 3338.41 6055.61 3340.84 6058.84 3343.37C6068.66 3351.39 6077.61 3360.49 6086.32 3369.68C6089.12 3372.64 6091.8 3375.67 6094.36 3378.87C6096.93 3382.07 6099.41 3385.36 6102.1 3388.48C6107.54 3394.77 6113.51 3400.93 6120.83 3405.01C6128.79 3409.48 6137.9 3410.98 6146.95 3410.98C6152.65 3410.98 6158.33 3410.47 6163.91 3409.38C6168.62 3408.45 6173.25 3407.2 6177.88 3406.07C6177.66 3406.11 6177.44 3406.17 6177.22 3406.2C6177.46 3406.13 6177.68 3406.11 6177.92 3406.06C6177.92 3406.06 6177.92 3406.06 6177.9 3406.06C6177.92 3406.06 6177.96 3406.04 6177.98 3406.06C6178.05 3406.02 6178.16 3406.02 6178.23 3405.98C6179.19 3405.8 6180.16 3405.63 6181.14 3405.5C6181.54 3405.49 6181.95 3405.47 6182.35 3405.47C6182.59 3405.49 6182.79 3405.5 6183.01 3405.54C6183.29 3405.6 6183.56 3405.67 6183.86 3405.73C6184.08 3405.82 6184.28 3405.87 6184.48 3405.96C6184.89 3406.17 6185.26 3406.37 6185.62 3406.57C6186.19 3406.96 6186.78 3407.38 6187.35 3407.8C6188.49 3408.76 6189.52 3409.77 6190.57 3410.82C6193.64 3414.18 6196.38 3417.84 6199.37 3421.26C6202.39 3424.7 6205.51 3428.06 6209.12 3430.91C6212.17 3433.34 6215.53 3435.39 6219.04 3437.1C6222.55 3438.79 6226.12 3440.28 6229.46 3442.29C6230.16 3442.73 6230.82 3443.19 6231.49 3443.7C6232 3444.16 6232.48 3444.62 6232.98 3445.1C6233.45 3445.65 6233.91 3446.22 6234.35 3446.79C6234.85 3447.53 6235.31 3448.28 6235.75 3449.05C6235.97 3449.51 6236.17 3449.93 6236.36 3450.39C6236.49 3450.76 6236.58 3451.15 6236.67 3451.5C6236.74 3451.92 6236.82 3452.34 6236.87 3452.78C6236.93 3453.57 6236.93 3454.35 6236.93 3455.14C6236.82 3456.83 6236.62 3458.5 6236.38 3460.17C6235.68 3464.11 6234.78 3467.97 6233.78 3471.85C6231.39 3480.23 6228.49 3488.43 6225.79 3496.73C6224.52 3500.67 6223.31 3504.62 6222.13 3508.59C6221.16 3511.84 6220.22 3515.12 6219.04 3518.31C6218.62 3519.31 6218.18 3520.3 6217.7 3521.27C6217.5 3521.59 6217.3 3521.88 6217.13 3522.21C6216.84 3522.58 6216.58 3522.91 6216.28 3523.26C6215.64 3523.9 6214.98 3524.51 6214.32 3525.13C6213.66 3525.63 6212.98 3526.13 6212.31 3526.61C6211.51 3527.08 6210.7 3527.54 6209.87 3527.98C6208.6 3528.54 6207.33 3529.01 6206.06 3529.49C6203.99 3530.08 6201.91 3530.56 6199.78 3530.96C6197.44 3531.29 6195.13 3531.49 6192.79 3531.61C6177.48 3531.81 6162.04 3529.53 6146.89 3532.54C6140.07 3533.9 6133.29 3536.35 6127.17 3539.62C6123.95 3541.35 6120.94 3543.22 6118.18 3545.63C6116.07 3547.51 6114.03 3549.42 6112.19 3551.59C6107.43 3557.25 6104.52 3564.31 6104.6 3571.77C6104.71 3579.67 6108.57 3587.34 6112.92 3593.77C6116.14 3598.53 6119.8 3603 6123.92 3606.99C6127.28 3610.26 6130.86 3613.24 6134.36 3616.33C6135.59 3617.47 6136.78 3618.64 6137.9 3619.89C6138.62 3620.81 6139.3 3621.73 6139.96 3622.67C6141.08 3624.53 6142.06 3626.42 6143.03 3628.35C6145.9 3634.62 6148.53 3641 6151.41 3647.23C6154.21 3653.17 6157.24 3658.99 6160.4 3664.71C6163.51 3670.39 6166.71 3676.03 6169.78 3681.71C6173.55 3688.64 6177.31 3695.55 6181.4 3702.3C6187.5 3712.3 6194.21 3722.12 6202.09 3730.79C6206.25 3735.37 6210.7 3739.69 6215.42 3743.64C6209.74 3744.76 6204.12 3746.33 6198.58 3748.03C6185.38 3752.08 6172.3 3756.66 6159.7 3762.39C6151.52 3766.14 6143.4 3770.48 6136.91 3776.82C6133.71 3779.93 6131.01 3783.35 6128.77 3787.21C6126.42 3791.27 6124.49 3795.57 6122.98 3800.02C6120.26 3808 6118.66 3816.36 6116.34 3824.47C6113.95 3832.81 6111.14 3840.99 6108.29 3849.19C6105.61 3856.95 6102.85 3864.69 6100.79 3872.65C6099.5 3877.61 6098.47 3882.63 6097.7 3887.7C6097 3892.26 6096.53 3896.91 6096.65 3901.54C6096.88 3909.74 6098.84 3918.01 6103.09 3925.07C6106.6 3930.9 6111.49 3935.57 6115.46 3941.03C6116.08 3941.97 6116.65 3942.94 6117.21 3943.93C6117.61 3944.76 6117.96 3945.59 6118.29 3946.43C6118.58 3947.31 6118.86 3948.23 6119.1 3949.13C6119.3 3950.16 6119.49 3951.21 6119.63 3952.26C6119.8 3953.8 6119.85 3955.33 6119.87 3956.87C6119.8 3959.32 6119.61 3961.78 6119.3 3964.21C6118.97 3966.17 6118.55 3968.14 6118.03 3970.05C6117.63 3971.45 6117.17 3972.83 6116.62 3974.19C6116.03 3974.15 6115.42 3974.1 6114.82 3974.02C6111.27 3973.51 6107.79 3972.72 6104.36 3971.82C6102.48 3971.3 6100.64 3970.75 6098.81 3970.18C6089.98 3967.42 6081.14 3964.35 6071.91 3963.38C6066.86 3962.85 6061.71 3962.53 6056.64 3962.99C6051.95 3963.4 6047.28 3964.1 6042.68 3965.2C6033.53 3967.41 6024.49 3970.03 6015.74 3973.51C6011.62 3975.14 6007.54 3976.87 6003.49 3978.69C5999.74 3980.38 5996.07 3982.18 5992.3 3983.77C5990.61 3984.43 5988.88 3985.02 5987.13 3985.53C5985.06 3986.03 5982.98 3986.45 5980.88 3986.74C5980 3986.85 5979.1 3986.93 5978.22 3986.96C5977.78 3986.96 5977.32 3986.93 5976.86 3986.89C5976.51 3986.82 5976.12 3986.74 5975.76 3986.67C5974.75 3986.3 5973.75 3985.95 5972.74 3985.55C5971 3984.78 5969.29 3983.93 5967.61 3982.99C5961.23 3979.08 5955.57 3974.12 5949.53 3969.7C5945.35 3966.65 5940.92 3963.69 5935.96 3962.17C5934.47 3961.69 5932.98 3961.28 5931.44 3961.01C5928.86 3960.51 5926.07 3960.57 5923.5 3960.99C5920.74 3961.41 5917.94 3962.06 5915.33 3963.09C5906.84 3966.38 5898.64 3970.66 5891.22 3975.97C5887.41 3978.71 5883.75 3981.56 5880.23 3984.63C5877.87 3986.67 5875.59 3988.77 5873.15 3990.7C5872.49 3991.17 5871.81 3991.63 5871.11 3992.06C5870.74 3992.26 5870.39 3992.44 5870 3992.61C5869.32 3992.85 5868.63 3993.09 5867.95 3993.29C5866.35 3993.67 5864.78 3993.95 5863.2 3994.19C5858.61 3994.76 5853.99 3995.13 5849.38 3995.47C5844.73 3995.82 5840.1 3996.12 5835.45 3996.21C5830.85 3996.28 5826.24 3996.39 5821.62 3996.69C5819.42 3996.84 5817.17 3996.98 5814.97 3997.2C5812.28 3997.46 5809.67 3997.9 5807.05 3998.53C5807.23 3998.47 5807.41 3998.43 5807.63 3998.36C5807.32 3998.45 5806.99 3998.51 5806.7 3998.6C5806.61 3998.62 5806.53 3998.64 5806.48 3998.64C5806.46 3998.64 5806.44 3998.66 5806.4 3998.64C5806.42 3998.64 5806.42 3998.64 5806.42 3998.64C5799.88 4000.38 5793.65 4003.31 5787.8 4006.67C5783.22 4009.32 5778.98 4012.5 5774.66 4015.53C5773.39 4016.38 5772.14 4017.17 5770.81 4017.88C5769.05 4018.75 5767.27 4019.52 5765.43 4020.24C5762.21 4021.34 5758.92 4022.24 5755.61 4023.03C5755.47 4023.07 5755.34 4023.09 5755.19 4023.12C5755.21 4023.12 5755.23 4023.1 5755.25 4023.12C5755.14 4023.14 5755.04 4023.18 5754.93 4023.2C5750.37 4024.13 5745.82 4024.85 5741.18 4025.31C5736.68 4025.7 5732.19 4025.84 5727.67 4025.71C5727.62 4025.71 5727.56 4025.71 5727.51 4025.71C5727.54 4025.71 5727.58 4025.71 5727.62 4025.71C5727.56 4025.71 5727.51 4025.71 5727.47 4025.71C5723.87 4025.49 5720.32 4025.11 5716.75 4024.54C5712.16 4023.65 5707.67 4022.4 5703.24 4020.84C5697.4 4018.67 5691.66 4016.27 5686.02 4013.65C5680.5 4011.14 5675.08 4008.45 5669.42 4006.28H5669.4C5665.25 4004.74 5661.09 4003.45 5656.75 4002.48C5653.17 4001.69 5649.55 4001.04 5645.89 4000.57C5640.78 3999.9 5635.63 3999.43 5630.47 3999.48C5625.8 3999.54 5621.17 3999.9 5616.57 4000.64C5607.42 4002.11 5598.37 4004.35 5589.37 4006.5C5581.13 4008.51 5572.95 4010.75 5564.59 4012.13C5556.81 4013.12 5548.98 4013.36 5541.17 4013.58C5533.74 4013.82 5526.35 4013.99 5518.96 4014.02C5518.98 4014.02 5518.98 4014.02 5518.98 4014.02C5518.96 4014.02 5518.96 4014.02 5518.94 4014.04C5518.94 4014.04 5518.94 4014.04 5518.93 4014.04C5518.89 4014.04 5518.87 4014.04 5518.83 4014.02C5518.69 4014.02 5518.52 4014.02 5518.39 4014.02C5518.32 4014.02 5518.27 4014.02 5518.21 4014.02C5518.23 4014.02 5518.23 4014.02 5518.25 4014.02C5518.12 4014.02 5518.03 4014.04 5517.93 4014.02C5518.03 4014.04 5518.12 4014.02 5518.19 4014.02C5515.91 4014.02 5513.6 4014 5511.32 4013.93C5502.03 4013.71 5492.75 4013.14 5483.49 4012.59C5474.87 4012.06 5466.26 4011.3 5457.62 4010.9C5447.82 4010.42 5437.97 4010.4 5428.19 4010.99C5418.84 4011.56 5409.48 4012.52 5400.33 4014.61C5391.74 4016.56 5383.25 4019.32 5375.25 4023.1C5366.69 4027.15 5358.73 4032.42 5350.95 4037.83C5347.22 4040.44 5343.43 4043.01 5339.59 4045.44C5335.71 4047.86 5331.83 4050.22 5327.99 4052.68C5321.98 4056.54 5316.1 4060.66 5309.89 4064.13C5305.7 4066.32 5301.27 4067.84 5296.93 4069.76C5294.74 4070.71 5292.53 4071.76 5290.57 4073.12C5287.9 4074.94 5285.64 4077.13 5283.69 4079.72C5279.94 4084.74 5277.37 4090.6 5275.27 4096.47C5273.51 4101.32 5272.15 4106.3 5270.16 4111.06C5268.75 4114.22 5267.09 4117.29 5265.31 4120.29C5263.69 4122.9 5261.98 4125.42 5260.09 4127.81C5259.28 4128.76 5258.45 4129.7 5257.57 4130.58C5257.22 4130.9 5256.85 4131.23 5256.45 4131.52C5255.92 4131.89 5255.38 4132.24 5254.83 4132.55C5253.99 4132.97 5253.12 4133.38 5252.24 4133.73C5250.88 4134.22 5249.46 4134.65 5248.07 4135.03C5245.2 4135.71 5242.31 4136.17 5239.39 4136.56C5239.26 4136.56 5239.15 4136.58 5239.04 4136.59C5238.97 4136.59 5238.9 4136.59 5238.82 4136.61C5238.79 4136.61 5238.73 4136.63 5238.69 4136.61C5238.67 4136.61 5238.67 4136.61 5238.67 4136.63C5238.66 4136.63 5238.64 4136.63 5238.62 4136.63C5238.62 4136.63 5238.6 4136.63 5238.58 4136.63C5238.56 4136.63 5238.56 4136.63 5238.55 4136.63C5238.55 4136.63 5238.56 4136.63 5238.58 4136.63C5238.33 4136.65 5238.05 4136.69 5237.79 4136.7C5238.22 4136.65 5238.64 4136.61 5239.04 4136.56C5233.45 4137.18 5227.85 4137.31 5222.2 4137.44C5219.43 4137.49 5216.65 4137.55 5213.88 4137.7C5211.01 4137.83 5208.16 4137.94 5205.39 4138.67C5205.35 4138.3 5205.29 4138.08 5205.22 4137.84Z"
        fill="#584434"/>
</svg>