<svg
    width="7773"
    height="7615"
    viewBox="0 0 7773 7615"
    fill="none"
    xmlns="http://www.w3.org/2000/svg">
    <path id="CH"
        d="M2935.3 5559.64C2936.79 5557.95 2938.31 5556.25 2939.6 5554.36C2940.98 5552.3 2941.94 5550.19 2942.6 5547.8C2943.44 5544.82 2943.35 5541.44 2942.8 5538.42C2941.55 5531.42 2938.48 5524.75 2935.12 5518.52C2931.66 5512.06 2927.98 5505.72 2924.8 5499.12C2924.99 5499.49 2925.15 5499.86 2925.34 5500.26C2924.97 5499.45 2924.58 5498.68 2924.22 5497.87C2924.4 5498.26 2924.58 5498.65 2924.77 5499.01C2921.15 5491.4 2918.37 5483.46 2915.56 5475.52C2913.7 5470.32 2911.77 5465.01 2908.72 5460.39C2905.26 5455.17 2900.65 5450.74 2895.32 5447.47C2885.85 5441.61 2875.47 5436.88 2864.38 5435.15C2862.69 5434.91 2860.98 5434.71 2859.27 5434.73C2857.1 5434.75 2854.62 5435.08 2852.62 5435.96C2850.3 5436.99 2848.21 5438.17 2846.22 5439.77C2844.77 5440.94 2843.43 5442.21 2842.18 5443.61C2838.34 5447.95 2835.04 5452.75 2831.63 5457.4C2825.01 5466.37 2818.21 5475.17 2810.63 5483.37C2807.6 5486.53 2804.42 5489.55 2801.07 5492.4C2801.04 5492.43 2800.98 5492.47 2800.95 5492.49C2800.96 5492.47 2801.02 5492.45 2801.04 5492.43C2801 5492.47 2800.95 5492.51 2800.91 5492.52C2798.69 5494.29 2796.41 5495.96 2794 5497.49C2792.95 5498.11 2791.87 5498.7 2790.76 5499.25C2790.16 5499.49 2789.53 5499.73 2788.91 5499.93C2788.41 5500.06 2787.91 5500.17 2787.4 5500.3C2787.03 5500.34 2786.65 5500.37 2786.28 5500.39C2786.11 5500.39 2785.95 5500.39 2785.8 5500.37C2785.65 5500.32 2785.51 5500.24 2785.4 5500.17C2785.27 5500.1 2785.16 5500.04 2785.06 5499.97C2785.05 5499.88 2785.01 5499.82 2784.97 5499.77C2784.9 5499.42 2784.81 5499.07 2784.73 5498.72C2784.6 5497.69 2784.49 5496.68 2784.42 5495.63C2784.44 5493.46 2784.55 5491.29 2784.75 5489.11C2785.16 5485.3 2785.69 5481.51 2786.46 5477.78C2788.5 5469.23 2791.06 5460.82 2794.07 5452.56C2796.52 5446.09 2799.27 5439.77 2802.03 5433.46C2803.98 5428.98 2805.74 5424.35 2807.95 5419.99C2808.15 5419.68 2808.34 5419.33 2808.54 5419.01C2808.76 5418.76 2808.98 5418.5 2809.2 5418.24C2809.62 5417.8 2810.06 5417.4 2810.52 5417.01C2811.5 5416.31 2812.49 5415.63 2813.5 5415.01C2818.59 5412.1 2823.98 5409.57 2828.85 5406.31C2837.75 5400.36 2845.04 5392.27 2852.2 5384.4C2855.47 5380.82 2858.76 5377.27 2862.16 5373.8C2865.3 5370.58 2868.52 5367.43 2871.64 5364.2C2877.34 5358.26 2882.6 5351.87 2885.76 5344.2C2887.21 5340.63 2888.43 5337.03 2889.51 5333.34C2890.28 5330.67 2891.04 5328.02 2892.03 5325.43C2892.54 5325.17 2893.06 5324.94 2893.61 5324.7C2894.69 5324.29 2895.8 5323.94 2896.92 5323.65C2900.39 5322.8 2903.89 5322.16 2907.3 5321.11C2911.84 5319.72 2916.16 5317.45 2920.02 5314.7C2923.87 5311.94 2927.38 5308.81 2930.54 5305.29C2933.88 5301.52 2936.57 5297.22 2939.12 5292.91C2941.84 5288.34 2944.25 5283.63 2946.27 5278.65C2948.26 5273.78 2950.06 5268.85 2951.72 5263.87C2953.33 5258.94 2954.88 5254 2956.16 5248.98C2957.03 5245.6 2957.8 5242.16 2958.79 5238.83C2958.9 5238.52 2958.99 5238.23 2959.1 5237.93C2959.2 5237.77 2959.27 5237.62 2959.34 5237.47C2960.04 5237.46 2960.7 5237.46 2961.4 5237.49C2965.1 5237.8 2968.76 5238.47 2972.41 5239.07C2976.86 5239.83 2981.35 5240.45 2985.85 5240.76C2996.86 5241.5 3007.93 5240.98 3018.85 5239.39C3029.16 5237.88 3039.29 5235.38 3049.21 5232.13C3058.06 5229.2 3066.53 5225.32 3075.37 5222.42C3078.99 5221.35 3082.65 5220.42 3086.35 5219.72C3088.75 5219.33 3091.16 5219.07 3093.61 5218.89C3098.29 5218.72 3102.98 5218.87 3107.65 5219.26C3107.67 5219.26 3107.67 5219.26 3107.69 5219.26H3107.65C3107.69 5219.26 3107.72 5219.26 3107.76 5219.28C3112.82 5219.79 3117.85 5220.47 3122.85 5221.33C3127.87 5222.2 3132.87 5223.25 3137.96 5223.78C3140.77 5224.07 3143.57 5224.18 3146.4 5224C3149.38 5223.82 3152.24 5223.06 3155.06 5222.16C3159.62 5220.71 3163.97 5218.67 3167.98 5216.08C3174.76 5211.67 3180.02 5205.64 3183.46 5198.3C3185.85 5193.17 3186.88 5187.73 3188 5182.25C3188.11 5181.76 3188.24 5181.24 3188.37 5180.73C3188.55 5180.69 3188.71 5180.66 3188.88 5180.62C3189.49 5180.55 3190.07 5180.49 3190.68 5180.45C3191.16 5180.45 3191.62 5180.45 3192.1 5180.49C3192.48 5180.54 3192.87 5180.6 3193.25 5180.67C3193.73 5180.8 3194.19 5180.93 3194.65 5181.08C3195.28 5181.34 3195.9 5181.61 3196.51 5181.91C3197.28 5182.35 3198.05 5182.82 3198.81 5183.3C3199.8 5184.04 3200.74 5184.79 3201.64 5185.62C3205.02 5188.82 3207.96 5192.47 3211.01 5195.97C3214.17 5199.59 3217.41 5203.14 3220.9 5206.43C3224.84 5210.14 3228.79 5213.72 3233.29 5216.74C3235.52 5218.23 3237.83 5219.61 3240.26 5220.73C3243.03 5222.03 3245.94 5222.86 3248.93 5223.49C3254.56 5224.63 3260.39 5224.74 3266.1 5225.21C3266.36 5225.23 3266.62 5225.25 3266.86 5225.27C3266.87 5225.27 3266.89 5225.27 3266.91 5225.27C3267 5225.29 3267.11 5225.31 3267.21 5225.29C3272.94 5225.82 3278.66 5226.45 3284.36 5227.14C3289.91 5227.86 3295.51 5228.54 3300.99 5229.7C3302.89 5230.14 3304.76 5230.69 3306.64 5231.33C3307.57 5231.7 3308.51 5232.11 3309.43 5232.55C3310.02 5232.86 3310.59 5233.19 3311.14 5233.56C3311.34 5233.72 3311.56 5233.89 3311.8 5234.07C3311.87 5234.17 3311.98 5234.28 3312.08 5234.39C3312.26 5234.62 3312.44 5234.88 3312.63 5235.12C3312.72 5235.3 3312.83 5235.49 3312.9 5235.65C3313.07 5236.08 3313.23 5236.54 3313.38 5236.96C3313.57 5237.68 3313.73 5238.39 3313.88 5239.11C3314.02 5240.18 3314.15 5241.24 3314.21 5242.29C3314.23 5243.56 3314.21 5244.83 3314.12 5246.09C3313.82 5248.74 3313.34 5251.37 3312.79 5253.96C3311.23 5260.69 3309.32 5267.34 3307.2 5273.91C3304.63 5281.83 3301.73 5289.68 3299.41 5297.67C3297.72 5303.58 3296.14 5309.75 3296.16 5315.95C3296.18 5322.27 3297.43 5329.03 3302.15 5333.65C3305.05 5336.5 3308.57 5338.45 3312.26 5340.14C3317.52 5342.56 3323.16 5344.14 3328.84 5345.23C3337.76 5346.94 3347.28 5347.42 3356.16 5345.1C3358.25 5344.57 3360.29 5343.89 3362.24 5342.91C3362.35 5342.88 3362.42 5342.82 3362.53 5342.78C3364.78 5344.94 3367.11 5347.03 3369.39 5349.13C3369.45 5349.18 3369.5 5349.24 3369.56 5349.29C3369.56 5349.29 3369.56 5349.29 3369.57 5349.31C3369.59 5349.33 3369.63 5349.37 3369.67 5349.38C3373.56 5352.99 3377.5 5356.53 3381.5 5359.99C3386.82 5364.6 3392.17 5369.27 3398.66 5372.21C3403.62 5374.46 3408.97 5375.71 3414.45 5375.61C3417.24 5375.58 3420.02 5375.36 3422.81 5375.12C3424.11 5374.99 3425.4 5374.9 3426.69 5374.73C3429.68 5374.35 3432.48 5373.68 3435.11 5372.09C3442.37 5367.75 3446.67 5360.58 3451.65 5354.05C3452.26 5353.32 3452.86 5352.6 3453.53 5351.9C3453.86 5351.61 3454.19 5351.33 3454.54 5351.06C3454.79 5350.91 3455.05 5350.73 3455.31 5350.58C3455.53 5350.49 3455.79 5350.36 3456.03 5350.27C3456.14 5350.21 3456.25 5350.19 3456.37 5350.16C3457.15 5352.58 3457.72 5355.06 3458.45 5357.49C3459.65 5361.48 3461.25 5365.39 3463.62 5368.83C3465.42 5371.42 3467.4 5373.87 3469.59 5376.13C3469.52 5377.01 3469.61 5377.89 3469.81 5378.76C3469.81 5379.05 3469.79 5379.31 3469.76 5379.6C3469.55 5381.5 3469.22 5383.35 3468.84 5385.19C3466.91 5393.45 3464.06 5401.42 3462.07 5409.64C3461.01 5413.96 3460.2 5418.28 3459.98 5422.73C3459.92 5423.57 3459.94 5424.42 3459.94 5425.25C3458.97 5425.36 3457.97 5425.43 3456.98 5425.5C3456.93 5425.5 3456.87 5425.5 3456.82 5425.5C3456.8 5425.5 3456.8 5425.5 3456.78 5425.5C3450.14 5425.6 3443.51 5425.14 3436.89 5424.68C3433.71 5424.46 3430.55 5424.14 3427.35 5424.14C3425.35 5424.12 3423.32 5424.14 3421.36 5424.6C3419.17 5425.12 3417.18 5425.98 3415.16 5426.97C3410.29 5429.42 3405.97 5432.78 3402.66 5437.12C3400 5440.59 3397.44 5444.44 3396.28 5448.68C3395.31 5452.25 3395.35 5455.78 3396.27 5459.38C3396.96 5462.01 3397.88 5464.58 3399.21 5466.97C3400.31 5469 3401.67 5470.93 3403.07 5472.78C3404.1 5474.18 3405.24 5475.5 3406.23 5476.9C3406.3 5477.05 3406.39 5477.18 3406.47 5477.32C3406.56 5477.52 3406.63 5477.75 3406.72 5477.95C3406.76 5478.04 3406.78 5478.13 3406.8 5478.22C3406.84 5478.41 3406.84 5478.59 3406.87 5478.77C3406.8 5478.94 3406.74 5479.09 3406.69 5479.23C3405.88 5480.89 3405.02 5482.51 3404.06 5484.07C3403.21 5485.34 3402.33 5486.57 3401.38 5487.76C3400.82 5488.39 3400.25 5489.01 3399.67 5489.6C3398.75 5490.41 3397.77 5491.16 3396.8 5491.88C3396.87 5491.83 3396.93 5491.79 3397.02 5491.73C3396.89 5491.83 3396.76 5491.92 3396.63 5491.99C3396.63 5491.99 3396.65 5491.97 3396.67 5491.95C3396.63 5491.99 3396.58 5492.01 3396.54 5492.03C3396.56 5492.03 3396.58 5492.01 3396.6 5492.01C3396.38 5492.16 3396.17 5492.3 3395.95 5492.47C3396.16 5492.32 3396.34 5492.17 3396.54 5492.03C3394.72 5493.31 3392.85 5494.49 3390.92 5495.58C3390.88 5495.61 3390.84 5495.63 3390.79 5495.63C3390.4 5495.37 3390.03 5495.08 3389.65 5494.79C3386.32 5491.92 3383.31 5488.65 3380.03 5485.69C3376.25 5482.3 3372.26 5479.03 3367.74 5476.7C3363.05 5474.31 3358.07 5472.49 3352.94 5471.24C3348.8 5470.23 3344.61 5469.71 3340.4 5469C3339.91 5468.9 3339.39 5468.79 3338.9 5468.66C3338.69 5468.59 3338.47 5468.5 3338.29 5468.43C3337.9 5468.24 3337.5 5468.02 3337.13 5467.82C3336.49 5467.4 3335.84 5466.94 3335.22 5466.44C3334.61 5465.91 3334.04 5465.36 3333.47 5464.79C3332.63 5463.85 3331.86 5462.89 3331.08 5461.9C3330.55 5461.09 3330.05 5460.28 3329.58 5459.46C3328.62 5457.47 3327.85 5455.41 3327.09 5453.33C3326.1 5450.67 3324.98 5448.1 3323.53 5445.67C3321.82 5442.8 3319.32 5440.12 3316.76 5437.97C3314.32 5435.91 3311.78 5434.09 3308.93 5432.62C3304.04 5430.14 3298.71 5428.41 3293.18 5429C3287.77 5429.57 3283.38 5433.46 3281.05 5438.22C3279.39 5441.59 3278.79 5445.32 3278.57 5449.01C3278.57 5449.03 3278.57 5449.03 3278.57 5449.05C3278.55 5449.18 3278.55 5449.31 3278.55 5449.44C3278.55 5449.47 3278.55 5449.51 3278.55 5449.53C3278.55 5449.69 3278.53 5449.88 3278.53 5450.06C3278.53 5450.14 3278.53 5450.21 3278.53 5450.26C3278.53 5450.19 3278.53 5450.14 3278.53 5450.06C3278.53 5449.9 3278.55 5449.71 3278.55 5449.53C3278.55 5449.53 3278.55 5449.53 3278.55 5449.51C3278.44 5454.05 3279.08 5458.59 3279.69 5463.11C3280.26 5467.3 3280.88 5471.48 3281.32 5475.69L3281.3 5475.67C3281.67 5479.12 3282.04 5482.58 3282.17 5486.04C3282.11 5486.77 3282.04 5487.52 3281.97 5488.26C3281.73 5489.6 3281.43 5490.94 3281.08 5492.29C3280.44 5494.53 3279.74 5496.7 3279.04 5498.88C3278.49 5500.52 3278.05 5502.16 3277.5 5503.77C3277.48 5503.83 3277.46 5503.87 3277.44 5503.92C3277.26 5504.2 3277.08 5504.47 3276.89 5504.77C3276.23 5505.63 3275.55 5506.46 3274.83 5507.25C3273.55 5508.53 3272.22 5509.8 3270.81 5510.96C3267.41 5513.57 3263.84 5516.02 3260.44 5518.65C3256.47 5521.72 3252.43 5525.01 3249.58 5529.2C3246.4 5533.85 3244.67 5539.32 3244.06 5544.91C3243.55 5549.53 3243.92 5554.12 3244.06 5558.7C3244.08 5559.99 3244.04 5561.29 3243.95 5562.58C3243.88 5563.13 3243.79 5563.7 3243.7 5564.23C3243.53 5564.89 3243.31 5565.56 3243.11 5566.2C3242.85 5566.82 3242.57 5567.41 3242.3 5568C3242.15 5568.24 3242.02 5568.5 3241.86 5568.74C3241.73 5568.9 3241.6 5569.07 3241.47 5569.23C3241.42 5569.29 3241.36 5569.32 3241.31 5569.38C3240.61 5568.97 3239.91 5568.55 3239.23 5568.11C3238.7 5567.72 3238.14 5567.32 3237.61 5566.9C3236.71 5566.07 3235.86 5565.23 3235.04 5564.32C3233.73 5562.67 3232.48 5560.96 3231.32 5559.21C3229.8 5556.68 3228.42 5554.07 3227.11 5551.42C3227.15 5551.51 3227.21 5551.6 3227.24 5551.7C3226.18 5549.51 3225.13 5547.3 3224.06 5545.11C3224.25 5545.48 3224.43 5545.87 3224.61 5546.25C3222.1 5541.02 3219.3 5535.87 3215.7 5531.25C3212.04 5526.55 3207.72 5522.32 3202.98 5518.7C3198.71 5515.43 3194.32 5512.3 3189.8 5509.38C3187.78 5508.08 3185.72 5506.79 3183.59 5505.61C3182.01 5504.73 3180.35 5503.9 3178.82 5502.95C3178.57 5502.78 3178.31 5502.58 3178.07 5502.4C3177.91 5502.23 3177.76 5502.08 3177.59 5501.9C3177.54 5501.81 3177.46 5501.73 3177.41 5501.64C3177.26 5501.11 3177.1 5500.58 3176.97 5500.04C3176.82 5499.05 3176.77 5498.04 3176.71 5497.01C3176.73 5497.43 3176.75 5497.84 3176.77 5498.26C3176.77 5497.93 3176.73 5497.58 3176.73 5497.23C3176.67 5495.36 3176.73 5493.5 3176.86 5491.62C3177.41 5486.33 3178.33 5481.04 3178.64 5475.72C3178.9 5471.26 3177.85 5466.51 3174.56 5463.28C3171.66 5460.43 3167.58 5458.68 3163.57 5458.13C3158.24 5457.4 3152.85 5458.17 3147.67 5459.4C3141.45 5460.89 3134.98 5462.75 3129.38 5465.89C3125.87 5467.84 3122.47 5470.15 3119.93 5473.32C3118.83 5474.73 3117.76 5476.18 3116.91 5477.78C3115.63 5480.13 3114.86 5482.63 3114.29 5485.24C3113.68 5487.89 3113.29 5490.58 3112.82 5493.24C3112.3 5496.02 3111.68 5498.76 3111.05 5501.48C3111.12 5501.07 3111.23 5500.65 3111.33 5500.24C3108.73 5511.02 3105.48 5521.66 3101.99 5532.17C3101.53 5533.52 3101.03 5534.86 3100.52 5536.18C3100.37 5536.48 3100.22 5536.73 3100.08 5537.03C3099.86 5537.36 3099.62 5537.69 3099.36 5538C3098.99 5538.42 3098.61 5538.85 3098.2 5539.25C3097.89 5539.53 3097.58 5539.8 3097.25 5540.06C3096.64 5540.46 3096.03 5540.87 3095.41 5541.24C3093.83 5542.08 3092.23 5542.87 3090.61 5543.63C3089.21 5544.23 3087.83 5544.78 3086.38 5545.26C3085.3 5545.57 3084.21 5545.85 3083.13 5546.09C3082.61 5546.16 3082.12 5546.22 3081.58 5546.25C3077.47 5546.38 3073.31 5546.09 3069.23 5545.92C3065.57 5545.8 3061.92 5545.76 3058.28 5545.52C3056.24 5545.32 3054.21 5545.02 3052.21 5544.56C3051.93 5544.51 3051.66 5544.44 3051.4 5544.36C3051.36 5544.36 3051.35 5544.34 3051.33 5544.34C3051.36 5544.34 3051.38 5544.36 3051.4 5544.36C3051.27 5544.32 3051.14 5544.31 3051.01 5544.25C3051.42 5544.34 3051.82 5544.44 3052.23 5544.55C3047.17 5543.28 3042.23 5541.48 3037.14 5540.28C3030.83 5538.81 3024.29 5538.99 3018 5540.46C3011.82 5541.9 3005.92 5544.64 3000.17 5547.28C2995.45 5549.45 2990.72 5551.66 2985.98 5553.77C2986.02 5553.75 2986.05 5553.75 2986.09 5553.74C2986 5553.77 2985.91 5553.81 2985.83 5553.85C2985.87 5553.81 2985.94 5553.81 2985.98 5553.77C2985.89 5553.83 2985.81 5553.87 2985.72 5553.9C2985.67 5553.92 2985.61 5553.94 2985.56 5553.98C2985.61 5553.96 2985.67 5553.92 2985.72 5553.9C2985.76 5553.88 2985.8 5553.88 2985.83 5553.86C2985.58 5553.98 2985.32 5554.09 2985.08 5554.2C2985.24 5554.12 2985.41 5554.05 2985.57 5553.98C2981.07 5555.87 2976.53 5557.67 2971.88 5559.12C2971.81 5559.14 2971.72 5559.18 2971.64 5559.2C2971.72 5559.18 2971.77 5559.14 2971.84 5559.12C2971.7 5559.16 2971.55 5559.21 2971.38 5559.25C2970.17 5559.56 2968.98 5559.86 2967.74 5560.1C2965.54 5560.41 2963.37 5560.59 2961.16 5560.68C2955.41 5560.8 2949.64 5560.39 2943.87 5560.45C2940.56 5560.48 2937.29 5560.68 2934 5560.98C2934.4 5560.65 2934.86 5560.15 2935.3 5559.64Z"
        fill="#2D4159"/>
</svg>