<svg
    width="7773"
    height="7615"
    viewBox="0 0 7773 7615"
    fill="none"
    xmlns="http://www.w3.org/2000/svg">
    <path
        id="CZ"
        d="M4026.11 4968.36C4026 4968.34 4025.9 4968.31 4025.79 4968.29C4024.25 4967.96 4022.71 4967.59 4021.2 4967.13C4012.8 4964.28 4004.64 4960.86 3996.46 4957.44C3989.1 4954.33 3981.71 4951.3 3974.49 4947.9C3970.06 4945.71 3965.7 4943.45 3961.53 4940.81C3960.68 4940.18 3959.82 4939.56 3958.99 4938.89C3958.96 4938.86 3958.92 4938.82 3958.9 4938.78C3958.92 4938.69 3958.94 4938.58 3958.94 4938.49C3959.38 4936.54 3959.95 4934.61 3960.48 4932.7C3961.14 4930.31 3961.7 4927.94 3962.17 4925.51C3962.17 4925.55 3962.16 4925.57 3962.16 4925.6C3962.16 4925.55 3962.17 4925.51 3962.19 4925.46C3962.17 4925.47 3962.17 4925.47 3962.17 4925.47C3963.31 4919.39 3963.85 4912.59 3960.68 4907C3959.29 4904.52 3957.34 4902.24 3955.04 4900.59C3952.95 4899.1 3950.76 4897.9 3948.44 4896.8C3948.83 4896.98 3949.21 4897.19 3949.6 4897.37C3937.54 4891.54 3924.31 4888.73 3912.17 4883.1C3910.26 4882.13 3908.42 4881.1 3906.66 4879.94C3905.41 4879.06 3904.25 4878.16 3903.09 4877.2C3901.97 4876.17 3900.89 4875.07 3899.88 4873.95C3897.47 4871.1 3895.32 4867.99 3893.24 4864.91C3893.19 4864.83 3893.15 4864.78 3893.11 4864.7C3891.11 4861.69 3889.23 4858.62 3887.25 4855.62C3883.5 4850.02 3879.31 4844.83 3874.12 4840.44C3868.11 4835.35 3860.96 4831.95 3853.55 4829.52H3853.57C3853.55 4829.52 3853.52 4829.48 3853.48 4829.48C3853.43 4829.47 3853.37 4829.45 3853.31 4829.45C3853.26 4829.43 3853.19 4829.39 3853.11 4829.37C3843.72 4826.45 3834 4824.89 3824.33 4823.14C3824.58 4823.2 3824.86 4823.23 3825.1 4823.29C3820.56 4822.43 3816.05 4821.41 3811.61 4820.07C3812.01 4820.2 3812.41 4820.35 3812.82 4820.48C3809.97 4819.54 3807.21 4818.51 3804.47 4817.3C3804.38 4817.26 3804.29 4817.21 3804.22 4817.19C3804.29 4817.22 3804.38 4817.28 3804.47 4817.3C3804.36 4817.26 3804.27 4817.2 3804.18 4817.17C3804.12 4817.15 3804.07 4817.11 3804.01 4817.09C3800.72 4815.46 3797.54 4813.62 3794.46 4811.64C3791.75 4809.8 3789.16 4807.88 3786.66 4805.79C3784.2 4803.58 3781.88 4801.29 3779.66 4798.84C3779.51 4798.66 3779.35 4798.49 3779.2 4798.33C3778.94 4798.03 3778.68 4797.76 3778.45 4797.46C3776.68 4795.37 3774.95 4793.27 3773.26 4791.14C3769.95 4786.95 3766.79 4782.67 3763.54 4778.42C3760.04 4773.81 3756.31 4769.38 3752.97 4764.65C3752.27 4763.55 3751.59 4762.41 3750.95 4761.23C3750.71 4760.66 3750.49 4760.09 3750.25 4759.52C3750.21 4759.36 3750.16 4759.21 3750.12 4759.04C3750.03 4758.49 3749.95 4757.94 3749.9 4757.39C3749.9 4757 3749.88 4756.64 3749.9 4756.25C3750.25 4751.47 3751.31 4746.78 3752.07 4742.08C3753.02 4735.9 3753.76 4729.6 3753.54 4723.35C3753.41 4719.65 3753.15 4715.96 3752.2 4712.35C3751.37 4709.12 3749.9 4706.2 3747.93 4703.53C3746.28 4701.31 3744.24 4699.19 3741.94 4697.61C3740.28 4696.49 3738.56 4695.42 3736.88 4694.34C3735.41 4693.37 3733.96 4692.3 3732.62 4691.16C3731.99 4690.57 3731.39 4689.98 3730.8 4689.36C3730.3 4688.79 3729.86 4688.18 3729.42 4687.57C3729.22 4687.24 3729.03 4686.89 3728.83 4686.55C3728.39 4685.55 3727.97 4684.54 3727.6 4683.51C3726.61 4680.42 3725.85 4677.28 3725.05 4674.17C3724.13 4670.46 3723.17 4666.78 3722.09 4663.13C3720.85 4658.92 3719.55 4654.71 3718.13 4650.57C3716.81 4646.75 3715.43 4642.98 3714.24 4639.14C3713.94 4638.07 3713.69 4637.02 3713.45 4635.96C3713.39 4635.5 3713.34 4635.04 3713.28 4634.56C3713.28 4634.4 3713.3 4634.21 3713.32 4634.03C3713.32 4633.95 3713.34 4633.86 3713.35 4633.79C3713.37 4633.72 3713.39 4633.66 3713.43 4633.59C3713.43 4633.55 3713.46 4633.51 3713.46 4633.48C3713.83 4633.05 3714.2 4632.63 3714.57 4632.21C3714.75 4632.04 3714.94 4631.88 3715.1 4631.71C3715.89 4631.12 3716.72 4630.54 3717.56 4630.02C3720.01 4628.64 3722.55 4627.45 3725.08 4626.29C3725.05 4626.31 3725.01 4626.31 3724.95 4626.33C3724.99 4626.29 3725.05 4626.29 3725.1 4626.25C3725.1 4626.25 3725.1 4626.23 3725.12 4626.25C3725.12 4626.23 3725.14 4626.23 3725.16 4626.22C3725.16 4626.23 3725.14 4626.23 3725.12 4626.25C3725.14 4626.25 3725.16 4626.23 3725.16 4626.22C3725.19 4626.2 3725.21 4626.18 3725.25 4626.18C3731.46 4623.57 3737.82 4621.33 3744.27 4619.41C3749.24 4618.05 3754.25 4616.93 3759.35 4616.05C3768.11 4614.49 3776.83 4612.85 3785.49 4610.72C3794.75 4608.44 3804 4605.9 3812.89 4602.41C3821.94 4598.86 3830.54 4594.43 3838.41 4588.72C3846.51 4582.85 3854.18 4576.44 3861.99 4570.19C3861.66 4570.46 3861.31 4570.74 3861 4571C3861.75 4570.39 3862.52 4569.78 3863.28 4569.18C3862.95 4569.43 3862.6 4569.71 3862.27 4569.99C3869.49 4564.21 3876.92 4558.72 3884.36 4553.22C3891.26 4548.11 3898.08 4542.93 3905.08 4537.98C3912.52 4532.72 3920.04 4527.6 3927.58 4522.5C3935.35 4517.27 3943.22 4512.06 3950.59 4506.24C3954.54 4503.13 3958.35 4499.93 3961.97 4496.46C3965.56 4493.04 3968.86 4489.33 3972.04 4485.56C3977.65 4478.88 3982.72 4471.83 3988.61 4465.39C3990.26 4463.7 3991.97 4462.08 3993.79 4460.56C3994.65 4459.93 3995.52 4459.33 3996.38 4458.74C3997.03 4458.35 3997.71 4458 3998.39 4457.65C3998.53 4457.6 3998.68 4457.54 3998.81 4457.51C3998.99 4457.45 3999.19 4457.43 3999.38 4457.38C3999.95 4457.3 4000.52 4457.25 4001.07 4457.19C4001.42 4457.21 4001.75 4457.21 4002.08 4457.25C4002.47 4457.3 4002.85 4457.36 4003.22 4457.43C4003.24 4457.43 4003.24 4457.43 4003.26 4457.43C4003.61 4457.65 4003.96 4457.89 4004.31 4458.11C4004.47 4458.26 4004.65 4458.39 4004.82 4458.54C4005.04 4458.79 4005.26 4459.03 4005.48 4459.29C4005.79 4459.71 4006.07 4460.15 4006.35 4460.58C4006.68 4461.2 4007.01 4461.84 4007.32 4462.49C4007.47 4462.85 4007.59 4463.22 4007.72 4463.59C4007.82 4463.96 4007.89 4464.31 4007.98 4464.64C4008.09 4465.56 4008.18 4466.49 4008.24 4467.43C4008.33 4471.48 4008.05 4475.5 4007.94 4479.51C4007.78 4486.07 4007.78 4493.26 4012.45 4498.39C4016.88 4503.28 4023 4506 4029.38 4507.43C4036.14 4508.94 4043.46 4509.95 4050.3 4508.33C4057.67 4506.57 4061.88 4499.89 4065.06 4493.57C4068.59 4486.57 4070.81 4479.05 4072.69 4471.48C4073.7 4467.38 4074.76 4463.17 4075.33 4458.96C4076.14 4458.87 4076.95 4458.74 4077.8 4458.59C4079.54 4458.3 4081.31 4457.89 4083.05 4457.6C4084.1 4457.45 4085.11 4457.32 4086.14 4457.27C4086.69 4457.25 4087.26 4457.29 4087.81 4457.3C4088.22 4457.38 4088.59 4457.43 4088.97 4457.51C4089.3 4457.62 4089.63 4457.71 4089.98 4457.82C4090.11 4457.87 4090.24 4457.93 4090.37 4457.98C4090.61 4458.13 4090.85 4458.28 4091.09 4458.44C4097.72 4463.46 4103.48 4469.56 4110.02 4474.75C4113.71 4477.67 4117.7 4480.43 4122.08 4482.27C4125.79 4483.85 4129.67 4484.73 4133.6 4485.59C4135.74 4486.11 4137.83 4486.7 4139.87 4487.43C4141.23 4488 4142.56 4488.61 4143.86 4489.29C4145.42 4490.19 4146.93 4491.15 4148.4 4492.17C4152.19 4495.08 4155.81 4498.2 4159.6 4501.11C4164.54 4504.93 4169.65 4508.5 4175.11 4511.57C4175.17 4511.59 4175.24 4511.64 4175.31 4511.68C4175.37 4511.73 4175.44 4511.75 4175.5 4511.79C4175.57 4511.84 4175.64 4511.86 4175.74 4511.9C4175.85 4511.97 4175.97 4512.03 4176.07 4512.1C4179.23 4513.75 4182.44 4515.23 4185.88 4516.25C4189.21 4517.27 4192.68 4517.96 4196.14 4518.37C4203.09 4519.2 4210.11 4519.58 4217.11 4519.38C4229.59 4519.01 4241.95 4517.08 4254.41 4516.79C4255.66 4516.81 4256.91 4516.84 4258.16 4516.93C4259.15 4517.08 4260.13 4517.27 4261.1 4517.49C4261.4 4517.58 4261.67 4517.67 4261.97 4517.76C4262.02 4517.78 4262.08 4517.82 4262.13 4517.84C4262.2 4517.89 4262.3 4517.93 4262.35 4517.98C4262.76 4518.33 4263.18 4518.7 4263.56 4519.07C4264.41 4519.99 4265.22 4520.92 4265.97 4521.9C4266.6 4522.76 4267.17 4523.63 4267.7 4524.51C4267.85 4524.82 4267.99 4525.11 4268.12 4525.43C4268.18 4525.56 4268.22 4525.68 4268.27 4525.83C4268.27 4525.92 4268.29 4526.03 4268.33 4526.14C4268.34 4526.36 4268.36 4526.57 4268.36 4526.79C4268.36 4526.95 4268.34 4527.16 4268.34 4527.34C4268.27 4527.74 4268.18 4528.17 4268.1 4528.57C4267.15 4531.88 4265.77 4535.06 4264.67 4538.3C4263.29 4542.27 4262.19 4546.35 4261.56 4550.5C4261.05 4553.88 4260.7 4557.28 4261.03 4560.7C4261.4 4564.78 4263.2 4568.48 4265.84 4571.55C4268.33 4574.45 4270.9 4577.25 4273.42 4580.1C4276.62 4583.72 4279.74 4587.39 4282.87 4591.05C4286.56 4595.39 4290.27 4599.71 4294.24 4603.75C4297.98 4607.52 4301.71 4611.42 4306.06 4614.51C4307.99 4615.89 4310.09 4616.97 4312.31 4617.76C4314.13 4618.42 4316.03 4618.7 4317.9 4618.92C4321.08 4619.3 4324.39 4619.07 4327.53 4618.48C4333.77 4617.34 4339.61 4614.86 4345.05 4611.64C4350.9 4608.18 4356.12 4603.64 4360.24 4598.29C4364.76 4592.41 4367.9 4585.17 4367.24 4577.65C4366.82 4573.04 4365.55 4568.57 4364.61 4564.07C4368.25 4564.71 4371.82 4565.67 4375.38 4566.62C4380.27 4567.93 4385.12 4569.31 4390.03 4570.48C4395.18 4571.73 4400.35 4572.69 4405.62 4572.94C4409.89 4573.17 4414.08 4572.58 4418.3 4572.1C4419.65 4571.97 4421.01 4571.88 4422.39 4571.86C4423.19 4571.88 4423.98 4571.95 4424.79 4572.04C4425.14 4572.12 4425.49 4572.19 4425.84 4572.26C4426.34 4572.43 4426.83 4572.6 4427.31 4572.8C4427.79 4573.04 4428.29 4573.28 4428.76 4573.55C4429.15 4573.81 4429.54 4574.08 4429.9 4574.38C4430.34 4574.76 4430.77 4575.15 4431.17 4575.55C4435.03 4580 4438.05 4585.22 4442.66 4588.97C4445.45 4591.25 4448.47 4593.11 4451.67 4594.76C4454.22 4596.05 4456.8 4597.3 4459.28 4598.72C4460.23 4599.3 4461.15 4599.95 4462.04 4600.61C4462.33 4600.87 4462.6 4601.14 4462.88 4601.38C4462.92 4601.42 4462.94 4601.47 4462.97 4601.51C4463.06 4601.66 4463.16 4601.79 4463.25 4601.93C4463.45 4602.36 4463.63 4602.78 4463.84 4603.2C4464.26 4604.45 4464.61 4605.74 4464.92 4607.03C4465.9 4611.34 4466.83 4615.76 4468.85 4619.73C4470.14 4622.28 4471.61 4624.65 4473.47 4626.82C4476.41 4630.24 4480.38 4632.5 4484.76 4633.5C4490.38 4634.76 4495.97 4634.03 4501.54 4632.94C4507.49 4631.77 4513.45 4630.57 4519.48 4629.87C4523.6 4629.47 4527.7 4629.32 4531.83 4629.4C4531.41 4629.4 4531 4629.4 4530.58 4629.38C4532.7 4629.45 4534.83 4629.65 4536.96 4629.97C4539.52 4630.43 4542.01 4631.01 4544.53 4631.69C4549.15 4633.11 4553.63 4634.91 4558.08 4636.8C4563.56 4639.25 4568.91 4641.91 4574.07 4644.97C4574.02 4644.95 4573.98 4644.91 4573.93 4644.89C4577.93 4647.37 4581.74 4650.11 4585.45 4653.02C4588.14 4655.2 4590.71 4657.5 4593.19 4659.97C4595.16 4662.1 4596.98 4664.3 4598.67 4666.64C4604.22 4674.54 4609.22 4682.87 4613.8 4691.38C4615.12 4693.92 4616.33 4696.49 4617.42 4699.14C4618.52 4702.23 4619.48 4705.35 4620.41 4708.49C4621.61 4712.46 4622.97 4716.34 4625.01 4719.96C4625.23 4720.39 4625.49 4720.81 4625.73 4721.23C4623.25 4720.42 4620.75 4719.58 4618.28 4718.75C4612.88 4716.97 4607.31 4715.26 4601.55 4715.07C4597.99 4714.96 4594.24 4715.31 4590.87 4716.56C4588.96 4717.26 4587.16 4718.07 4585.47 4719.21C4583.87 4720.29 4582.44 4721.51 4581.08 4722.89C4579.02 4724.98 4577.31 4727.46 4575.64 4729.89C4573.98 4732.28 4572.29 4734.69 4570.54 4737.02C4567.84 4740.5 4565.01 4743.84 4562.2 4747.22C4559.31 4750.68 4556.43 4754.17 4553.39 4757.52C4551.32 4759.69 4549.18 4761.84 4547.13 4764.06C4544.81 4766.56 4542.75 4769.15 4540.88 4772C4537.13 4777.76 4534.42 4784.21 4532.13 4790.68C4529.5 4798.09 4527.29 4805.62 4525.18 4813.2C4523.28 4820.04 4521.74 4826.95 4519.74 4833.75C4519.07 4835.72 4518.39 4837.65 4517.62 4839.56C4517.11 4840.59 4516.59 4841.58 4516.06 4842.59C4515.69 4843.12 4515.32 4843.68 4514.94 4844.19C4513.87 4845.48 4512.73 4846.73 4511.56 4847.9C4510.21 4849.08 4508.85 4850.2 4507.46 4851.3C4505.73 4852.52 4503.93 4853.6 4502.11 4854.67C4502.05 4854.69 4502.02 4854.72 4501.96 4854.74C4501.96 4854.74 4501.94 4854.74 4501.92 4854.76C4501.92 4854.76 4501.94 4854.76 4501.96 4854.74C4501.89 4854.78 4501.83 4854.81 4501.76 4854.87C4499.41 4856.1 4497.02 4857.17 4494.57 4858.18C4487.22 4860.9 4479.61 4862.85 4472.03 4864.91C4472.05 4864.91 4472.05 4864.91 4472.07 4864.91C4471.52 4865.05 4470.97 4865.22 4470.4 4865.37C4470.8 4865.26 4471.21 4865.15 4471.59 4865.02C4466.19 4866.47 4460.77 4867.83 4455.33 4869.1C4450.01 4870.31 4444.66 4871.28 4439.26 4872.15C4433.34 4873.05 4427.38 4873.88 4421.48 4874.87C4418.62 4875.33 4415.75 4876.03 4413.19 4877.44C4410.42 4878.97 4408.01 4880.95 4406.23 4883.58C4403.95 4886.91 4403.1 4890.86 4402.37 4894.72C4401.82 4897.61 4401.34 4900.55 4400.75 4903.43C4400.49 4904.45 4400.2 4905.44 4399.87 4906.41C4399.66 4906.95 4399.43 4907.46 4399.19 4907.98C4398.95 4908.4 4398.71 4908.78 4398.45 4909.19C4398.16 4909.57 4397.86 4909.96 4397.53 4910.33C4397.22 4910.6 4396.93 4910.9 4396.63 4911.16C4396.25 4911.45 4395.84 4911.73 4395.46 4912C4395.18 4911.85 4394.89 4911.71 4394.59 4911.6C4392.86 4910.93 4390.97 4911.65 4389.76 4912.94C4389.3 4913.42 4388.97 4913.99 4388.71 4914.61C4387.94 4914.79 4387.16 4914.94 4386.37 4915.09C4384.92 4915.31 4383.49 4915.46 4382.05 4915.57C4381.83 4915.55 4381.6 4915.53 4381.36 4915.55C4381.19 4915.53 4381.04 4915.49 4380.88 4915.47C4380.71 4915.44 4380.55 4915.36 4380.38 4915.33C4376.98 4914 4373.73 4912.37 4370.38 4910.88C4366.43 4909.1 4362.44 4907.41 4358.36 4905.9C4354.04 4904.32 4349.68 4902.9 4345.18 4902.07C4340.62 4901.23 4336.1 4900.84 4331.45 4901.03C4326.93 4901.19 4322.44 4901.95 4317.96 4902.66C4314.34 4903.27 4310.7 4903.93 4307.09 4904.63C4300.35 4905.95 4293.66 4907.63 4286.89 4908.84C4286.82 4908.84 4286.74 4908.86 4286.67 4908.86C4286.6 4908.86 4286.56 4908.88 4286.51 4908.89C4284.85 4909.1 4283.23 4909.28 4281.62 4909.39C4281.25 4909.39 4280.88 4909.39 4280.51 4909.37C4279.69 4909.24 4278.84 4909.12 4278.01 4908.93C4276.8 4908.64 4275.6 4908.29 4274.43 4907.88C4273.53 4907.52 4272.63 4907.13 4271.78 4906.71C4271.14 4906.34 4270.53 4905.95 4269.91 4905.55C4269.1 4904.96 4268.33 4904.3 4267.61 4903.64C4265.81 4901.85 4264.19 4899.96 4262.59 4898.01C4262.85 4898.34 4263.12 4898.67 4263.4 4899.02C4260.83 4895.86 4258.29 4892.72 4255.24 4889.98C4251.78 4886.87 4247.88 4884.34 4243.69 4882.35C4239.98 4880.62 4236.03 4879.35 4232.02 4878.51C4227.98 4877.63 4223.8 4877.2 4219.69 4876.82C4210.26 4875.95 4200.79 4876.27 4191.34 4876.16C4182.92 4876.05 4174.52 4875.71 4166.14 4875.07C4158.16 4874.35 4150.24 4873.21 4142.26 4872.44C4137.79 4872 4133.31 4871.58 4128.82 4871.38C4124.49 4871.19 4120.17 4871.16 4115.88 4871.74C4111.77 4872.33 4107.23 4873.2 4103.88 4875.84C4102.01 4877.3 4100.26 4878.8 4098.88 4880.75C4097.76 4882.41 4096.95 4884.15 4096.4 4886.05C4095.37 4889.56 4095 4893.47 4095.63 4897.07C4095.98 4899.23 4096.4 4901.36 4096.88 4903.49C4098.51 4910.84 4100.53 4918.09 4102.24 4925.44C4102.34 4925.99 4102.43 4926.54 4102.5 4927.11C4102.56 4928.2 4102.58 4929.26 4102.56 4930.35C4102.54 4930.51 4102.52 4930.7 4102.5 4930.86V4930.88C4102.46 4930.95 4102.45 4931.03 4102.41 4931.1C4102.23 4931.47 4102.02 4931.8 4101.82 4932.15C4101.07 4932.94 4100.3 4933.67 4099.49 4934.39C4093.35 4939.72 4086.77 4944.54 4080 4949.08C4080.37 4948.84 4080.7 4948.6 4081.07 4948.38C4073.9 4953.16 4066.6 4957.68 4058.95 4961.71C4056.12 4963.05 4053.26 4964.26 4050.32 4965.31C4047.3 4966.25 4044.27 4967.09 4041.22 4967.83C4039.58 4968.12 4037.96 4968.38 4036.31 4968.54C4034.29 4968.67 4032.3 4968.75 4030.28 4968.73C4029.07 4968.64 4027.89 4968.49 4026.73 4968.32C4026.57 4968.42 4026.33 4968.4 4026.11 4968.36Z"
        fill="#584434"/>
</svg>