<svg
    width="7773"
    height="7615"
    viewBox="0 0 7773 7615"
    fill="none"
    xmlns="http://www.w3.org/2000/svg">
    <path id="DE"
        d="M3331.38 5326.04C3328.69 5325.45 3326.06 5324.73 3323.51 5323.89C3321.82 5323.23 3320.15 5322.51 3318.53 5321.72C3317.88 5321.37 3317.24 5321 3316.62 5320.62C3316.45 5320.47 3316.25 5320.32 3316.08 5320.19C3316.05 5320.14 3316.03 5320.06 3316.01 5320.01C3315.92 5319.66 3315.84 5319.33 3315.77 5318.98C3315.72 5318.45 3315.66 5317.91 3315.62 5317.38C3315.61 5316.31 3315.64 5315.28 3315.72 5314.22C3315.94 5312.42 3316.23 5310.65 3316.63 5308.87C3317.66 5304.46 3319.02 5300.12 3320.46 5295.82C3322.37 5290.01 3324.37 5284.26 3326.23 5278.45C3328.01 5272.77 3329.69 5267.05 3331.06 5261.26C3332.37 5255.84 3333.49 5250.34 3333.67 5244.73C3333.78 5241.06 3333.49 5237.23 3332.59 5233.67C3331.71 5230.03 3330.4 5226.44 3328.11 5223.43C3326.01 5220.64 3323.45 5218.3 3320.42 5216.52C3317.55 5214.85 3314.54 5213.58 3311.4 5212.51C3304.78 5210.29 3297.74 5209.39 3290.86 5208.47C3283.53 5207.51 3276.16 5206.7 3268.82 5206.02C3268.8 5206.02 3268.8 5206.02 3268.79 5206.02C3268.75 5206.02 3268.73 5206.02 3268.69 5206C3268.71 5206 3268.71 5206 3268.73 5206C3265.29 5205.71 3261.84 5205.47 3258.36 5205.2C3258.16 5205.16 3257.94 5205.16 3257.76 5205.14C3257.89 5205.16 3258.01 5205.18 3258.12 5205.18C3257.81 5205.16 3257.46 5205.12 3257.11 5205.08C3257.26 5205.08 3257.44 5205.1 3257.59 5205.1C3255.7 5204.92 3253.84 5204.68 3251.97 5204.33C3251.19 5204.15 3250.4 5203.91 3249.67 5203.67C3249.04 5203.43 3248.46 5203.17 3247.87 5202.9C3246.19 5202 3244.61 5201.02 3243.05 5199.94C3240.7 5198.23 3238.51 5196.35 3236.38 5194.37C3233.92 5192.07 3231.53 5189.72 3229.25 5187.27C3226.6 5184.4 3224.12 5181.45 3221.56 5178.54C3217.78 5174.2 3213.82 5170.03 3208.99 5166.81C3204.12 5163.56 3198.48 5161.35 3192.56 5161.08C3189.85 5160.95 3187.13 5161.19 3184.47 5161.72C3180.94 5162.42 3177.19 5164.02 3174.69 5166.65C3172.19 5169.26 3170.39 5172.35 3169.49 5175.88C3168.84 5178.41 3168.4 5181 3167.87 5183.58C3167.52 5185.08 3167.08 5186.57 3166.6 5188.04C3166.21 5189.06 3165.79 5190.03 3165.33 5191.02C3164.78 5192.03 3164.19 5193.01 3163.55 5193.98C3163.02 5194.66 3162.48 5195.31 3161.95 5195.97C3161.27 5196.65 3160.59 5197.31 3159.87 5197.93C3158.92 5198.67 3157.96 5199.37 3156.97 5200.01C3155.61 5200.82 3154.21 5201.56 3152.78 5202.24C3151.29 5202.86 3149.76 5203.43 3148.2 5203.93C3147.35 5204.17 3146.53 5204.37 3145.66 5204.53C3145.22 5204.59 3144.78 5204.64 3144.34 5204.66C3143.18 5204.66 3142.08 5204.64 3140.94 5204.59C3136.58 5204.07 3132.24 5203.34 3127.94 5202.55C3123.99 5201.85 3120.02 5201.13 3116.03 5200.67C3107.3 5199.61 3098.42 5198.93 3089.65 5199.72C3080.32 5200.56 3071.14 5203.06 3062.41 5206.33C3058.72 5207.71 3055.06 5209.18 3051.36 5210.62C3051.31 5200.08 3051.2 5189.55 3051.22 5179.02C3051.22 5171.48 3051.38 5163.93 3051.47 5156.37C3051.47 5155.84 3051.49 5155.31 3051.49 5154.77C3051.66 5152.92 3051.84 5151.06 3052.04 5149.2C3052.04 5149.22 3052.06 5149.24 3052.06 5149.26C3052.06 5149.17 3052.08 5149.06 3052.08 5148.96C3052.1 5148.82 3052.12 5148.65 3052.12 5148.52C3052.12 5148.5 3052.12 5148.5 3052.12 5148.5C3053.02 5141.06 3054.21 5133.65 3055.37 5126.24C3056.6 5118.25 3057.8 5110.27 3059.53 5102.37C3061.05 5095.99 3062.94 5089.7 3065.24 5083.52C3067.47 5077.48 3069.87 5071.47 3071.49 5065.23C3073.42 5057.86 3074.64 5050.38 3075.74 5042.86C3076.55 5037.35 3077.28 5031.78 3078.48 5026.34C3078.97 5024.44 3079.53 5022.59 3080.19 5020.75C3080.92 5019 3081.77 5017.31 3082.65 5015.62C3084.29 5012.72 3086.14 5009.92 3088.07 5007.2C3097.14 4995 3107.32 4983.67 3117.85 4972.7C3117.56 4973.03 3117.25 4973.34 3116.93 4973.66C3122.65 4967.7 3128.51 4961.85 3133.86 4955.59C3137.98 4950.77 3141.99 4945.53 3143.88 4939.39C3145.68 4933.58 3145.99 4927.42 3144.97 4921.41C3143.88 4915 3141.07 4908.45 3136.45 4903.82C3133.07 4900.4 3128.62 4897.94 3124.03 4896.65C3121.07 4895.81 3118.09 4895 3115.04 4894.61C3108.33 4893.73 3101.57 4893.44 3094.78 4893.77C3088.37 4894.08 3082.01 4894.59 3075.61 4895.18C3069.67 4895.73 3063.73 4896.23 3057.78 4896.45C3054.78 4896.49 3051.82 4896.47 3048.85 4896.25C3047.61 4896.06 3046.4 4895.9 3045.21 4895.64C3043.77 4895.26 3042.38 4894.83 3041 4894.32C3039.95 4893.9 3038.94 4893.42 3037.95 4892.9C3037.19 4892.48 3036.47 4892.04 3035.76 4891.56C3035.28 4891.16 3034.8 4890.73 3034.32 4890.31C3032.28 4888.31 3030.39 4886.18 3028.35 4884.19C3026.03 4881.95 3023.74 4879.71 3021.27 4877.65C3016.79 4873.91 3012.01 4870.59 3006.71 4868.11C3000.67 4865.24 2994.29 4863.22 2987.89 4861.3C2982.78 4859.82 2977.63 4858.49 2972.47 4857.28C2972.87 4857.37 2973.3 4857.48 2973.7 4857.57C2965.85 4855.72 2958 4854.06 2950.17 4852.24C2948.04 4851.71 2945.96 4851.08 2943.9 4850.35C2943.08 4850.04 2942.29 4849.67 2941.51 4849.28C2940.08 4848.44 2938.68 4847.59 2937.32 4846.64C2937.21 4846.56 2937.1 4846.49 2936.99 4846.42C2936.09 4845.73 2935.24 4845 2934.38 4844.25C2933.11 4842.9 2931.92 4841.54 2930.78 4840.15C2929.71 4838.69 2928.7 4837.26 2927.73 4835.77C2926.18 4833.11 2924.8 4830.37 2923.55 4827.56C2920.14 4819.45 2917.89 4810.85 2913.59 4803.14C2911.61 4799.6 2909.2 4796.34 2906.48 4793.35C2904.66 4791.34 2902.65 4789.5 2900.91 4787.45C2900.8 4787.34 2900.72 4787.21 2900.65 4787.1C2900.61 4786.75 2900.58 4786.4 2900.58 4786.03C2900.58 4785.68 2900.59 4785.31 2900.61 4784.96C2900.76 4783.86 2900.93 4782.78 2901.16 4781.69C2902.19 4777.54 2903.81 4773.55 2905.34 4769.54C2905.19 4769.95 2905.02 4770.33 2904.88 4770.74C2908.9 4760.35 2914.36 4748.66 2910.06 4737.46C2906.04 4727.02 2896.53 4720.83 2887.91 4714.49C2884.27 4711.71 2880.74 4708.81 2877.43 4705.61C2876.81 4704.95 2876.17 4704.27 2875.54 4703.57C2875.41 4703.4 2875.3 4703.2 2875.17 4703.04C2874.82 4702.39 2874.49 4701.73 2874.16 4701.07C2874 4700.63 2873.85 4700.19 2873.7 4699.73C2873.48 4698.79 2873.26 4697.85 2873.08 4696.91C2872.69 4693.83 2872.45 4690.72 2872.36 4687.59C2872.31 4683.26 2872.51 4678.92 2872.53 4674.56C2872.56 4670.44 2872.4 4666.33 2872.21 4662.23C2872.07 4658.66 2871.92 4655.11 2871.68 4651.57C2871.51 4648.9 2871.2 4646.22 2871.13 4643.55C2871.13 4643.28 2871.15 4643.02 2871.15 4642.74C2871.22 4642.67 2871.29 4642.56 2871.37 4642.45C2871.64 4642.1 2871.94 4641.79 2872.25 4641.46C2872.23 4641.47 2872.21 4641.49 2872.19 4641.51C2877.69 4636.27 2883.96 4631.99 2889.23 4626.53C2893.59 4622.01 2897.01 4616.47 2899.64 4610.79C2901.94 4605.85 2904 4600.39 2904.71 4594.97C2905.17 4591.62 2905.47 4588.15 2905.02 4584.8C2904.53 4580.94 2903.66 4577.08 2902.23 4573.46C2899.49 4566.46 2895.45 4560.01 2890.52 4554.36C2886.66 4550.01 2882.47 4545.92 2878.79 4541.4C2878.3 4540.74 2877.84 4540.08 2877.4 4539.38C2876.92 4538.48 2876.46 4537.6 2876.04 4536.68C2875.65 4535.72 2875.32 4534.78 2875.01 4533.81C2874.8 4532.95 2874.6 4532.08 2874.46 4531.2C2874.22 4529.29 2874.03 4527.4 2873.96 4525.48C2873.96 4521.84 2874.18 4518.26 2874.6 4514.68C2874.6 4514.71 2874.6 4514.73 2874.58 4514.77C2874.58 4514.67 2874.58 4514.6 2874.6 4514.49C2875.21 4509.71 2876 4504.95 2876.31 4500.13C2876.62 4495.7 2876.64 4491.2 2876.13 4486.79C2875.67 4482.89 2874.82 4479.05 2873.54 4475.36C2872.53 4472.4 2871.29 4469.49 2870.47 4466.46C2870.45 4466.44 2870.45 4466.42 2870.43 4466.4C2870.45 4466.42 2870.45 4466.44 2870.45 4466.46C2870.43 4466.4 2870.43 4466.37 2870.41 4466.31C2870.15 4465.17 2869.92 4464.05 2869.73 4462.89C2869.66 4461.99 2869.64 4461.13 2869.6 4460.23C2869.77 4455.15 2870.28 4450.1 2871.06 4445.08C2872.01 4439.29 2873.13 4433.5 2874.82 4427.86C2874.71 4428.26 2874.58 4428.67 2874.47 4429.07C2876.39 4422.75 2879.07 4416.72 2881.46 4410.56C2883.26 4405.95 2884.86 4401.15 2885.48 4396.22C2885.87 4393.24 2886.04 4390.34 2885.83 4387.36C2885.67 4384.57 2885.25 4381.72 2884.66 4379C2883.37 4373.34 2881.55 4367.89 2879.23 4362.55C2876.62 4356.53 2873.68 4350.63 2870.74 4344.77C2867.99 4339.27 2865.12 4333.83 2862.18 4328.45C2859.71 4323.89 2857.29 4319.35 2855.23 4314.59C2854.81 4313.43 2854.38 4312.29 2854.05 4311.11C2854.01 4310.97 2854 4310.84 2853.96 4310.69C2853.94 4310.63 2853.96 4310.56 2853.94 4310.51C2853.94 4310.43 2853.94 4310.38 2853.96 4310.29C2854 4310.12 2854.03 4309.95 2854.05 4309.79C2854.09 4309.7 2854.13 4309.61 2854.13 4309.51C2854.35 4309.09 2854.57 4308.65 2854.79 4308.23C2855.06 4307.82 2855.32 4307.42 2855.6 4307C2856.04 4306.48 2856.48 4305.97 2856.92 4305.49C2857.56 4304.9 2858.21 4304.35 2858.85 4303.82C2859.49 4303.41 2860.1 4302.99 2860.76 4302.62C2861.35 4302.33 2861.94 4302.03 2862.53 4301.77C2863.28 4301.48 2864.05 4301.24 2864.82 4300.98C2867.19 4300.41 2869.58 4299.95 2872.01 4299.59C2875.65 4299.15 2879.31 4298.8 2883.02 4298.59C2888.85 4298.3 2894.69 4298.32 2900.54 4298.21C2906.55 4298.14 2912.54 4297.99 2918.55 4297.71C2921.38 4297.57 2924.23 4297.42 2927.06 4297.23C2930.1 4297.01 2933.19 4296.85 2936.18 4296.28C2939.29 4295.69 2942.3 4294.9 2945.19 4293.59C2947.87 4292.4 2950.43 4290.73 2952.73 4288.87C2955.54 4286.61 2957.85 4283.83 2960.01 4280.93C2961.81 4278.5 2963.55 4276.06 2965.06 4273.43C2968.15 4268.12 2970.92 4262.68 2972.6 4256.72C2974.23 4250.89 2975.39 4244.83 2975.41 4238.74C2975.43 4235.12 2975.32 4231.56 2974.99 4227.95C2974.69 4224.55 2974.29 4221.11 2973.9 4217.71C2973.92 4217.77 2973.92 4217.84 2973.94 4217.92C2973.94 4217.84 2973.92 4217.77 2973.9 4217.7C2973.88 4217.46 2973.87 4217.25 2973.85 4217.05C2973.81 4216.65 2973.77 4216.24 2973.7 4215.84C2973.64 4215.42 2973.59 4214.99 2973.55 4214.57C2973.61 4214.97 2973.64 4215.38 2973.7 4215.8C2972.84 4208.03 2972.06 4200.23 2971.64 4192.44C2971.24 4184.68 2971.13 4176.92 2970.94 4169.15C2970.76 4161.96 2970.61 4154.74 2969.69 4147.6C2969.38 4145.23 2969.01 4142.84 2968.55 4140.49C2968.33 4139.39 2968.08 4138.27 2967.87 4137.15C2968.13 4136.89 2968.39 4136.65 2968.64 4136.39C2969.38 4135.75 2970.12 4135.14 2970.89 4134.57C2971.88 4133.93 2972.87 4133.34 2973.92 4132.79C2976.03 4131.76 2978.22 4130.88 2980.37 4129.94C2984.05 4128.34 2987.71 4126.56 2991.05 4124.37C2994.12 4122.38 2997.14 4120.25 2999.93 4117.88C3003.11 4115.16 3006.29 4112.38 3008.99 4109.19C3011.81 4105.86 3014.21 4102.2 3016.07 4098.27C3017.85 4094.54 3018.99 4090.47 3019.69 4086.37C3020.87 4079.33 3020.59 4072.13 3021.66 4065.07C3021.93 4063.8 3022.25 4062.55 3022.6 4061.32C3023.22 4059.39 3023.94 4057.51 3024.75 4055.66C3025.92 4053.23 3027.23 4050.92 3028.63 4048.6C3033.77 4040.75 3039.62 4033.42 3045.04 4025.75C3046.93 4023.08 3048.81 4020.36 3050.3 4017.44C3051.22 4015.68 3052.06 4013.88 3052.54 4011.93C3053.11 4009.61 3053.33 4007.24 3053.31 4004.85C3053.26 3999.24 3051.95 3993.69 3050.17 3988.42C3048.29 3982.83 3045.61 3977.39 3042.43 3972.42C3037.43 3964.58 3031.53 3957.41 3025.94 3949.98C3026.35 3949.74 3026.75 3949.5 3027.12 3949.26C3029.47 3947.63 3031.68 3945.92 3033.88 3944.12C3035.89 3942.26 3037.8 3940.33 3039.65 3938.31C3040.9 3936.86 3042.1 3935.38 3043.26 3933.84C3043.83 3932.94 3044.4 3932.04 3044.97 3931.16C3045.1 3930.9 3045.22 3930.66 3045.35 3930.4C3045.44 3930.18 3045.52 3929.94 3045.59 3929.72C3045.63 3929.48 3045.67 3929.23 3045.72 3928.99C3045.74 3928.51 3045.74 3928.03 3045.74 3927.55C3045.72 3927.35 3045.67 3927.13 3045.65 3926.93C3045.59 3926.75 3045.54 3926.56 3045.5 3926.38C3045.41 3926.1 3045.3 3925.81 3045.19 3925.53C3045.08 3925.35 3044.97 3925.15 3044.89 3924.98C3044.56 3924.54 3044.25 3924.13 3043.9 3923.71C3043.31 3923.01 3042.72 3922.33 3042.14 3921.63C3040.57 3919.78 3039.47 3916.95 3039.2 3914.56C3038.35 3907.81 3041.7 3900.68 3046.36 3895.92C3048.33 3893.9 3050.37 3892.11 3052.56 3890.33C3054.62 3888.62 3057.14 3887.32 3059.49 3886.07C3063.09 3884.15 3066.95 3882.94 3070.81 3881.73C3078.22 3879.37 3085.98 3878.35 3093.7 3877.76C3100.61 3877.26 3107.37 3877.81 3114.23 3878.55C3116.42 3878.66 3118.61 3878.66 3120.79 3878.55C3123.27 3878.35 3125.7 3878.07 3128.16 3877.7C3130.46 3877.32 3132.69 3876.97 3135.06 3876.87C3141.1 3876.65 3147.17 3880.59 3150.44 3885.46C3153.13 3889.39 3154.89 3893.69 3156.45 3898.14C3158 3902.57 3158.97 3907.09 3159.36 3911.76C3159.8 3916.75 3159.49 3921.65 3158.83 3926.6C3157.78 3934.36 3155.3 3941.97 3152.65 3949.32V3949.3C3152.56 3949.52 3152.48 3949.74 3152.39 3949.98C3152.3 3950.26 3152.19 3950.53 3152.1 3950.79C3152.06 3950.9 3152.02 3951.01 3151.99 3951.1C3152.85 3951.51 3153.72 3951.86 3154.6 3952.2C3157.45 3953.2 3160.35 3954.02 3163.31 3954.7C3166.99 3955.49 3170.64 3956.28 3174.3 3957.08C3174.82 3957.2 3175.35 3957.28 3175.88 3957.37C3176.27 3957.37 3176.64 3957.37 3177 3957.37C3177.12 3957.35 3177.23 3957.35 3177.32 3957.31C3177.54 3957.26 3177.76 3957.2 3177.98 3957.13C3178.88 3956.78 3179.76 3956.41 3180.64 3956.01C3181.07 3955.81 3181.47 3955.57 3181.88 3955.33C3182.34 3955 3182.78 3954.65 3183.24 3954.32C3184.5 3953.14 3185.74 3951.97 3186.95 3950.72C3187.57 3949.98 3188.18 3949.24 3188.77 3948.49C3189.16 3947.92 3189.56 3947.31 3189.93 3946.73C3190.02 3946.54 3190.09 3946.36 3190.17 3946.18C3190.26 3945.9 3190.37 3945.6 3190.44 3945.33C3190.44 3945.31 3190.44 3945.31 3190.44 3945.29C3190.3 3943.55 3190.04 3941.84 3189.76 3940.09C3188.07 3932.43 3186.42 3924.69 3184.12 3917.15C3181.51 3909.37 3178.68 3901.54 3177.89 3893.33C3176.99 3883.82 3176.44 3873.4 3182.34 3865.24C3184.21 3862.61 3186.56 3859.93 3189.23 3857.98C3192.08 3855.88 3195.13 3854.34 3198.49 3853.24C3202.74 3851.84 3207.13 3851.01 3211.6 3850.9C3215.41 3850.83 3219.25 3851.12 3222.94 3851.99C3225.57 3852.61 3228.09 3853.58 3230.63 3854.58C3231.71 3854.95 3232.78 3855.28 3233.84 3855.55C3234.5 3855.68 3235.15 3855.79 3235.83 3855.88C3236.07 3855.88 3236.27 3855.88 3236.51 3855.9C3236.75 3855.88 3236.99 3855.83 3237.22 3855.81C3237.37 3855.75 3237.5 3855.7 3237.63 3855.64C3237.67 3855.61 3237.74 3855.57 3237.78 3855.57C3238.18 3855.26 3238.58 3854.95 3238.97 3854.65C3239.71 3853.97 3240.42 3853.31 3241.12 3852.59C3241.64 3851.99 3242.11 3851.42 3242.57 3850.81C3243.01 3850.11 3243.46 3849.41 3243.86 3848.71C3244.54 3847.32 3245.11 3845.86 3245.66 3844.43C3247.74 3838.66 3249.61 3832.79 3251.07 3826.82C3251.38 3825.13 3251.65 3823.48 3251.82 3821.77C3251.84 3821.03 3251.82 3820.3 3251.82 3819.56C3251.71 3817.92 3251.54 3816.32 3251.32 3814.73C3251.21 3814.25 3251.1 3813.79 3250.99 3813.31C3250.59 3812.15 3250.13 3811.03 3249.65 3809.93C3248.88 3808.44 3248.01 3806.99 3247.11 3805.55C3245.15 3802.59 3243.2 3799.63 3241.54 3796.49C3239.74 3793.02 3238.4 3789.36 3237.39 3785.59C3235.46 3778.38 3235.44 3770.98 3236.16 3763.62C3236.64 3758.77 3237.67 3754.01 3238.97 3749.3C3240.77 3742.91 3242.3 3736.47 3243.7 3729.97C3244.15 3727.82 3244.49 3725.72 3244.71 3723.55C3244.72 3722.96 3244.71 3722.36 3244.72 3721.79C3244.61 3720.54 3244.43 3719.34 3244.17 3718.13C3244.23 3718.46 3244.28 3718.81 3244.36 3719.14C3244.03 3717.85 3243.64 3716.62 3243.25 3715.35C3241.65 3711.01 3240.02 3706.64 3238.09 3702.41C3237.78 3701.88 3237.48 3701.36 3237.21 3700.81C3236.54 3699.84 3235.83 3698.9 3235.04 3698.02C3235.26 3698.28 3235.5 3698.55 3235.72 3698.81C3234.8 3697.85 3233.88 3696.91 3232.9 3696.01C3229.76 3693.26 3226.58 3690.61 3223.7 3687.61C3219.38 3683.09 3216.51 3676.75 3215.33 3670.65C3214.63 3666.92 3214.12 3663.26 3213.9 3659.47C3213.75 3656.77 3213.68 3654.08 3213.62 3651.4C3214.85 3651.16 3216.05 3650.9 3217.24 3650.65C3217.26 3650.65 3217.28 3650.65 3217.28 3650.65C3217.67 3650.56 3218.05 3650.48 3218.46 3650.39C3218.33 3650.43 3218.22 3650.45 3218.11 3650.46C3218.22 3650.45 3218.35 3650.43 3218.46 3650.39C3219.41 3650.19 3220.37 3649.97 3221.29 3649.78C3220.9 3649.88 3220.48 3649.95 3220.07 3650.04C3223.86 3649.25 3227.7 3648.53 3231.54 3648.15C3233.86 3647.96 3236.16 3647.95 3238.46 3648.02C3240.99 3648.2 3243.49 3648.5 3245.99 3648.92C3248.79 3649.45 3251.54 3650.06 3254.26 3650.89C3258.46 3652.32 3262.57 3654.03 3266.64 3655.79C3277.72 3660.61 3288.66 3665.9 3300.2 3669.53C3307.83 3671.92 3316.91 3674.32 3324.3 3669.84C3328.56 3667.26 3331.47 3663.33 3334.56 3659.54C3336.21 3657.63 3337.92 3655.81 3339.76 3654.08C3341.84 3652.25 3344.08 3650.61 3346.34 3649.03C3349.65 3646.84 3353.1 3644.89 3356.56 3642.93C3359.87 3641.07 3363.18 3639.14 3366.54 3637.36C3369.8 3640.15 3373.16 3642.85 3376.54 3645.54C3381.12 3649.2 3385.33 3653.2 3389.61 3657.17C3391.25 3658.55 3392.9 3659.82 3394.61 3661.07C3395.97 3662.01 3397.35 3662.96 3398.71 3663.96C3402.41 3666.6 3405.22 3670.22 3407.48 3674.14C3411.39 3680.89 3411.49 3689.1 3410.46 3696.6C3409.39 3704.4 3406.47 3711.77 3403.77 3719.08C3403.73 3719.16 3403.71 3719.21 3403.69 3719.29C3405.55 3720.43 3407.44 3721.47 3409.37 3722.5C3416.21 3726.01 3423.16 3729.32 3430.36 3732.06C3435.97 3734.01 3441.61 3735.74 3447.37 3737.13C3453.38 3738.62 3459.46 3739.95 3465.49 3741.38C3470.62 3742.61 3475.64 3744.08 3480.47 3746.2C3484.15 3747.85 3487.66 3749.97 3491.19 3751.88C3493.86 3753.2 3496.58 3754.36 3499.39 3755.39C3502.4 3756.51 3505.34 3757.78 3507.79 3759.93C3513.97 3765.37 3515.2 3773.11 3516.59 3780.74C3516.74 3781.36 3516.87 3781.97 3517.05 3782.59C3517.11 3782.74 3517.18 3782.91 3517.26 3783.07C3517.57 3783.62 3517.86 3784.16 3518.19 3784.73C3519.61 3787.28 3520.4 3790.24 3520.4 3793.16C3520.4 3799.01 3517.94 3804.39 3514.46 3808.99C3511.61 3812.78 3508.41 3816.21 3505.18 3819.67C3506.13 3820.42 3507.07 3821.14 3508.05 3821.86C3509.94 3823.13 3511.85 3824.38 3513.86 3825.48C3514.06 3825.61 3514.3 3825.72 3514.52 3825.83C3516.41 3826.71 3518.32 3827.52 3520.29 3828.27C3526.3 3830.26 3532.48 3831.93 3538.69 3833.31C3542.53 3834.08 3546.35 3834.72 3550.27 3835.11C3553.28 3835.26 3556.26 3835.31 3559.28 3835.22C3560.64 3835.11 3561.98 3834.95 3563.32 3834.74C3563.82 3834.6 3564.31 3834.49 3564.85 3834.36C3564.59 3834.45 3564.31 3834.52 3564.06 3834.61C3564.09 3834.6 3564.15 3834.6 3564.18 3834.6C3564.88 3834.36 3565.56 3834.1 3566.24 3833.81C3566.74 3833.53 3567.25 3833.24 3567.75 3832.96C3568.63 3832.34 3569.5 3831.69 3570.36 3831.03C3572.27 3829.34 3574.04 3827.57 3575.78 3825.72C3579.53 3821.43 3583.06 3816.91 3587.24 3813.02C3592.49 3808.09 3598.12 3803.81 3604.68 3800.74C3616.7 3795.13 3630.14 3793.4 3642.75 3789.63C3645.32 3788.75 3647.82 3787.76 3650.3 3786.66C3651.87 3785.83 3653.39 3784.98 3654.9 3784.06C3656.48 3782.98 3657.99 3781.82 3659.51 3780.65C3661.72 3778.71 3663.82 3776.71 3665.86 3774.62C3667.47 3772.78 3669.02 3770.9 3670.47 3768.97C3672.42 3766.03 3674.13 3763.04 3675.76 3759.93C3677.73 3756.23 3679.73 3752.58 3682.23 3749.23C3686.39 3743.73 3692.09 3740.02 3698.45 3737.5C3703.41 3735.54 3708.83 3734.84 3714.11 3734.51C3722.2 3733.97 3730.34 3735.06 3738.32 3736.36C3742.45 3737.04 3746.55 3737.76 3750.67 3738.48C3753.85 3739.05 3756.99 3739.63 3760.17 3739.98C3760.65 3738.9 3761.11 3737.83 3761.55 3736.69C3761.39 3737.15 3761.22 3737.61 3761.06 3738.07C3764.6 3728.2 3767.95 3718.2 3773.23 3709.08C3775.34 3705.44 3777.89 3702.48 3781.17 3699.84C3785.45 3696.38 3791.06 3695.35 3796.39 3695.24C3800.85 3695.17 3805.52 3696.69 3809.64 3698.37C3812.34 3699.45 3814.95 3700.72 3817.53 3702.06C3823.28 3705.06 3828.89 3708.27 3834.44 3711.57C3840.67 3715.28 3846.73 3719.29 3851.88 3724.41C3858.28 3730.77 3862.27 3739.95 3858.87 3748.84C3855.41 3757.81 3846.28 3762.96 3838.59 3767.91C3839.07 3767.61 3839.51 3767.3 3839.95 3767.01C3836.79 3769.08 3833.59 3771.14 3830.71 3773.55C3830.6 3773.64 3830.49 3773.73 3830.39 3773.81C3829.88 3774.28 3829.38 3774.78 3828.87 3775.24C3828.74 3775.39 3828.59 3775.57 3828.48 3775.72C3828.56 3775.92 3828.63 3776.1 3828.68 3776.29C3829.24 3777.35 3829.86 3778.37 3830.58 3779.34C3830.26 3778.88 3829.97 3778.38 3829.64 3777.92C3829.99 3778.4 3830.34 3778.9 3830.72 3779.36C3831.66 3780.41 3832.62 3781.38 3833.61 3782.37C3834.57 3783.18 3835.56 3783.97 3836.53 3784.73C3837.69 3785.48 3838.85 3786.18 3840.04 3786.86C3842.43 3788 3844.84 3789.03 3847.3 3789.93C3853.28 3791.97 3859.29 3793.64 3865.45 3795C3871.22 3796.23 3877.01 3797.41 3882.56 3799.51C3888.37 3801.69 3893.41 3805.07 3897.27 3809.96C3901.09 3814.84 3903.59 3821.21 3904.51 3827.28C3904.95 3830.11 3905.04 3833.03 3905.06 3835.9C3905.02 3838.7 3904.77 3841.47 3904.77 3844.28C3904.84 3844.96 3904.91 3845.63 3905.02 3846.32C3905.13 3846.82 3905.26 3847.3 3905.43 3847.79C3905.37 3847.61 3905.34 3847.43 3905.26 3847.26C3905.43 3847.65 3905.56 3848.02 3905.72 3848.38C3906.22 3849.28 3906.7 3850.15 3907.23 3851.01C3907.36 3851.18 3907.47 3851.34 3907.6 3851.51C3907.85 3851.82 3908.13 3852.1 3908.39 3852.37C3908.79 3852.72 3909.22 3853.05 3909.62 3853.36C3910.32 3853.84 3911.05 3854.26 3911.79 3854.72C3913.41 3855.51 3915.02 3856.25 3916.66 3856.91C3916.51 3857.08 3916.4 3857.28 3916.26 3857.46C3914.8 3859.58 3914.42 3862 3914.75 3864.5C3915.69 3871.58 3917.03 3878.62 3918.42 3885.61C3919.78 3892.33 3921.26 3899.06 3923.19 3905.66C3925.1 3912.26 3927.34 3918.71 3929.93 3925.09C3932.3 3930.95 3935.08 3936.63 3937.54 3942.41C3938.46 3944.59 3939.25 3946.84 3939.97 3949.13C3940.26 3950.37 3940.5 3951.62 3940.72 3952.88C3941.18 3956.34 3941.51 3959.81 3941.82 3963.29C3942.16 3967.06 3942.47 3970.84 3942.58 3974.65C3942.62 3978.1 3942.5 3981.58 3942.19 3985.03C3942.01 3986.49 3941.77 3987.94 3941.46 3989.37C3941.03 3990.94 3940.54 3992.42 3940 3993.95C3939.32 3995.53 3938.61 3997.09 3937.8 3998.6C3933.64 4006.21 3929.36 4013.71 3926.42 4021.85C3924.67 4026.71 3923.17 4031.63 3922.45 4036.74C3921.62 4042.83 3922.01 4049.13 3924.05 4054.96C3927.1 4063.62 3933.2 4070.95 3938.88 4078.03C3942.1 4082.02 3945.34 4086.01 3948.57 4090C3951.82 4094 3955.12 4097.99 3958.02 4102.28C3959.09 4104 3960.1 4105.79 3961.05 4107.61C3961.62 4108.91 3962.17 4110.23 3962.65 4111.54C3962.93 4112.5 3963.18 4113.49 3963.44 4114.44C3963.74 4116.19 3963.96 4117.92 3964.1 4119.68C3964.36 4125.51 3964.2 4131.3 3964.42 4137.13C3964.62 4142.11 3965.04 4147.09 3965.94 4151.98C3966.93 4157.26 3968.94 4162.51 3971.97 4166.98C3974.95 4171.41 3978.85 4174.96 3982.52 4178.8C3984.58 4181.08 3986.51 4183.45 3988.37 4185.89C3989.49 4187.48 3990.5 4189.07 3991.46 4190.75C3992.67 4193.12 3993.7 4195.55 3994.65 4198.03C3996.97 4204.35 3998.99 4210.77 4001.31 4217.07C4003.53 4223.23 4006.03 4229.28 4008.48 4235.34C4008.83 4236.28 4009.14 4237.22 4009.43 4238.19C4009.8 4239.77 4010.11 4241.35 4010.37 4242.95C4010.63 4245.88 4010.74 4248.78 4010.74 4251.72C4010.65 4257.25 4010.15 4262.82 4009.67 4268.34C4009.16 4274.51 4008.68 4280.65 4008.5 4286.83C4008.4 4290.07 4008.4 4293.3 4008.48 4296.54C4008.53 4299.5 4008.64 4302.49 4009.08 4305.43C4010.04 4311.9 4011.49 4318.32 4014.62 4324.13C4017.36 4329.2 4020.7 4333.81 4024.1 4338.43C4027.5 4343.04 4030.96 4347.6 4034.29 4352.25C4040.52 4360.98 4046.69 4369.82 4052.34 4378.92C4054.6 4382.71 4056.71 4386.55 4058.55 4390.52C4059.12 4391.9 4059.64 4393.26 4060.08 4394.66C4060.32 4395.63 4060.54 4396.59 4060.72 4397.6C4060.94 4399.05 4061.09 4400.54 4061.14 4402.01C4061.16 4404.53 4061.03 4407.05 4060.83 4409.55C4060.17 4415.45 4059.16 4421.29 4058.07 4427.1C4057.19 4431.7 4056.25 4436.39 4056.22 4441.09C4056.2 4443.9 4056.42 4446.83 4057.39 4449.47C4058.22 4451.72 4059.51 4453.81 4061.2 4455.47C4061.18 4455.5 4061.18 4455.52 4061.14 4455.56C4060.24 4457.64 4059.38 4459.75 4058.57 4461.86C4055.92 4468.74 4053.7 4475.76 4050.44 4482.4C4050.43 4482.43 4050.43 4482.45 4050.39 4482.49C4050.39 4482.51 4050.39 4482.52 4050.37 4482.54C4050.33 4482.64 4050.3 4482.71 4050.24 4482.8C4050.24 4482.82 4050.24 4482.82 4050.24 4482.82C4050.24 4482.84 4050.22 4482.87 4050.22 4482.89C4050.17 4482.97 4050.13 4483.04 4050.11 4483.13C4049.97 4483.37 4049.82 4483.63 4049.69 4483.89C4049.87 4483.52 4050.06 4483.17 4050.26 4482.82C4049.27 4484.69 4048.22 4486.51 4047.04 4488.28C4046.6 4488.87 4046.16 4489.44 4045.7 4490.01C4045.68 4490.01 4045.68 4490.01 4045.68 4490.01C4045.37 4490.06 4045.04 4490.06 4044.71 4490.1C4043.44 4490.12 4042.17 4490.1 4040.89 4490.02C4039.14 4489.84 4037.37 4489.55 4035.61 4489.23C4035.55 4489.2 4035.48 4489.2 4035.41 4489.18C4035.39 4489.18 4035.35 4489.18 4035.32 4489.16C4035.24 4489.14 4035.17 4489.12 4035.1 4489.11C4033.72 4488.77 4032.37 4488.43 4031.03 4488C4030.43 4487.76 4029.84 4487.51 4029.27 4487.23C4028.9 4487.05 4028.53 4486.83 4028.18 4486.61C4028 4486.46 4027.8 4486.29 4027.61 4486.16C4027.56 4485.67 4027.52 4485.19 4027.5 4484.71C4027.47 4482.08 4027.52 4479.47 4027.63 4476.84C4027.83 4472.64 4028.02 4468.41 4027.63 4464.2C4027.21 4459.77 4025.89 4455.43 4023.64 4451.55C4021.24 4447.43 4018.18 4443.9 4014.1 4441.37C4008.13 4437.64 4000.13 4436.94 3993.42 4439.01C3988 4440.72 3983.29 4444.05 3979.07 4447.8C3975.5 4451 3972.27 4454.58 3969.23 4458.26C3963.44 4465.25 3958.11 4472.54 3951.94 4479.22C3948.63 4482.6 3945.21 4485.8 3941.59 4488.81C3940.12 4489.97 3938.63 4491.15 3937.12 4492.27C3929.66 4497.82 3921.94 4503.02 3914.22 4508.24C3906.68 4513.33 3899.18 4518.48 3891.77 4523.76C3884.97 4528.59 3878.35 4533.63 3871.64 4538.59C3864.2 4544.1 3856.81 4549.67 3849.57 4555.45C3849.9 4555.19 3850.25 4554.91 3850.56 4554.64C3846.18 4558.13 3841.85 4561.66 3837.47 4565.13C3837.64 4565.01 3837.8 4564.88 3837.95 4564.75C3832.32 4569.2 3826.64 4573.57 3820.56 4577.41C3817.05 4579.4 3813.45 4581.2 3809.77 4582.84C3804.44 4585.06 3799 4586.93 3793.5 4588.61C3784.13 4591.25 3774.66 4593.52 3765.08 4595.37C3760.8 4596.18 3756.5 4596.9 3752.2 4597.72C3747.51 4598.63 3742.91 4599.75 3738.35 4601.07C3729.59 4603.63 3720.87 4606.75 3712.66 4610.78C3708.01 4613.04 3703.59 4615.68 3700.01 4619.51C3697.27 4622.39 3695.3 4625.76 3694.4 4629.67C3693.56 4633.44 3693.83 4637.26 3694.59 4641.01C3695.49 4645.44 3697.16 4649.73 3698.65 4653.99C3700.08 4657.98 3701.41 4662.01 3702.64 4666.03C3704.22 4671.38 3705.58 4676.79 3706.98 4682.21C3708.17 4686.9 3709.42 4691.69 3711.72 4696.01C3714.03 4700.33 3717.33 4703.94 3721.08 4707.08C3723.85 4709.4 3726.96 4711.23 3729.99 4713.18C3730.38 4713.48 3730.78 4713.75 3731.19 4714.06C3731.35 4714.25 3731.52 4714.4 3731.68 4714.58C3732.03 4714.98 3732.36 4715.42 3732.67 4715.88C3732.8 4716.07 3732.91 4716.27 3733.01 4716.47C3733.08 4716.6 3733.12 4716.71 3733.17 4716.86C3733.3 4717.26 3733.41 4717.69 3733.5 4718.13C3733.7 4719.21 3733.83 4720.3 3733.92 4721.4C3734.05 4723.88 3734.09 4726.36 3733.96 4728.86C3733.48 4735.53 3732.25 4742.08 3731.19 4748.68C3730.71 4751.67 3730.21 4754.84 3730.4 4757.91C3730.62 4761.69 3731.3 4765.41 3732.91 4768.88C3736.39 4776.27 3741.87 4782.41 3746.81 4788.82C3751.18 4794.5 3755.39 4800.35 3759.95 4805.9C3761.2 4807.43 3762.49 4808.95 3763.8 4810.46C3763.89 4810.55 3763.98 4810.66 3764.07 4810.77C3764.31 4811.07 3764.57 4811.38 3764.86 4811.67C3766.07 4813.07 3767.34 4814.41 3768.63 4815.74C3771.57 4818.69 3774.7 4821.49 3778 4824.01C3785.3 4829.52 3793.43 4834.45 3802.08 4837.5C3806.97 4839.23 3811.92 4840.61 3816.99 4841.64C3821.61 4842.57 3826.28 4843.35 3830.91 4844.19C3830.82 4844.17 3830.71 4844.15 3830.6 4844.15C3836.35 4845.22 3842.08 4846.45 3847.69 4848.18C3847.76 4848.22 3847.82 4848.22 3847.87 4848.25C3847.8 4848.22 3847.73 4848.22 3847.64 4848.18C3847.75 4848.22 3847.86 4848.25 3847.95 4848.27C3849.97 4848.97 3851.95 4849.72 3853.85 4850.62C3855.48 4851.42 3857.07 4852.3 3858.61 4853.29C3859.88 4854.15 3861.05 4855.07 3862.25 4856.05C3863.57 4857.26 3864.82 4858.53 3866.02 4859.85C3867.62 4861.76 3869.09 4863.73 3870.48 4865.77C3870.65 4866.01 3870.8 4866.25 3870.96 4866.49C3872.86 4869.37 3874.69 4872.33 3876.61 4875.24C3876.55 4875.16 3876.53 4875.13 3876.48 4875.07C3876.64 4875.33 3876.83 4875.59 3876.99 4875.84C3877.05 4875.95 3877.12 4876.03 3877.18 4876.14C3877.14 4876.08 3877.1 4876.01 3877.06 4875.95C3880.08 4880.48 3883.19 4884.96 3886.94 4888.88C3891.9 4894.04 3897.82 4897.96 3904.27 4901.05C3915.94 4906.6 3928.74 4909.28 3940.43 4914.69C3941.27 4915.13 3942.1 4915.57 3942.91 4916.03C3943.06 4916.14 3943.17 4916.23 3943.31 4916.34C3943.35 4916.36 3943.41 4916.41 3943.42 4916.45C3943.44 4916.56 3943.46 4916.71 3943.48 4916.84C3943.5 4917.28 3943.48 4917.7 3943.48 4918.14C3943.41 4919.23 3943.26 4920.29 3943.07 4921.36C3942.5 4924.23 3941.75 4927.04 3940.94 4929.87C3940.21 4932.5 3939.47 4935.14 3939.29 4937.9C3939.1 4940.73 3939.31 4943.69 3940.52 4946.32C3941.6 4948.71 3943.06 4950.81 3944.95 4952.64C3946.03 4953.69 3947.17 4954.63 3948.37 4955.53C3952.43 4958.64 3957.08 4961.16 3961.66 4963.43C3965.08 4965.14 3968.55 4966.78 3972.03 4968.34C3969.95 4969.46 3967.82 4970.57 3965.7 4971.65C3965.72 4971.65 3965.72 4971.65 3965.72 4971.65C3960.76 4974.11 3955.72 4976.3 3950.48 4978.14C3946.95 4979.32 3943.37 4980.31 3939.73 4981.14C3935.56 4981.98 3931.38 4982.61 3927.16 4983.09C3923.46 4983.42 3919.73 4983.43 3916.02 4983.38C3915.96 4983.38 3915.92 4983.36 3915.89 4983.38C3915.81 4983.36 3915.74 4983.38 3915.67 4983.36C3915.5 4983.36 3915.34 4983.36 3915.19 4983.34C3915.26 4983.36 3915.34 4983.34 3915.41 4983.36C3915.23 4983.34 3915.01 4983.36 3914.8 4983.34C3914.93 4983.34 3915.04 4983.34 3915.19 4983.34C3910.19 4983.2 3905.19 4982.99 3900.19 4982.94C3894.95 4982.86 3889.53 4982.99 3884.38 4984.11C3881.57 4984.72 3878.59 4985.4 3876.04 4986.8C3871.83 4989.08 3867.86 4992.24 3865.91 4996.76C3864.4 5000.27 3863.57 5003.97 3862.64 5007.66C3859.88 5018.05 3856.27 5028.1 3852.38 5038.1C3851.57 5040.11 3850.74 5042.09 3849.79 5044.02C3849.53 5044.43 3849.29 5044.83 3849.01 5045.23C3848.59 5045.79 3848.15 5046.32 3847.71 5046.85C3847.53 5047 3847.36 5047.16 3847.18 5047.33C3846.68 5047.72 3846.15 5048.1 3845.61 5048.47C3844.22 5049.28 3842.8 5049.98 3841.35 5050.66C3841.18 5050.73 3841.02 5050.8 3840.85 5050.88C3835.61 5053.23 3830.3 5055.49 3825.25 5058.27C3820.34 5060.95 3815.47 5063.89 3810.95 5067.2C3805.25 5071.41 3800.15 5076.21 3796.15 5082.05C3793.24 5086.26 3791.04 5090.79 3789.92 5095.78C3788.85 5100.49 3789.24 5105.29 3790.43 5109.92C3791.04 5112.26 3792.01 5114.55 3793.02 5116.76C3794.02 5118.93 3795.03 5121.04 3796.15 5123.16C3798.57 5127.7 3801.35 5132.09 3804.42 5136.24C3807.76 5140.8 3811.83 5144.72 3815.93 5148.58C3819.69 5152.13 3823.3 5155.78 3826.72 5159.64C3827.58 5160.71 3828.39 5161.78 3829.16 5162.86C3829.51 5163.47 3829.86 5164.06 3830.17 5164.66C3830.47 5165.32 3830.71 5165.95 3830.93 5166.63C3831.4 5168.27 3831.75 5169.96 3832.1 5171.65C3832.6 5174.66 3832.93 5177.71 3833.06 5180.77C3833.21 5184.75 3833.19 5188.78 3832.87 5192.79C3832.73 5194.09 3832.53 5195.4 3832.29 5196.68C3832.29 5196.72 3832.27 5196.76 3832.27 5196.78C3830.63 5196.76 3829.03 5196.68 3827.42 5196.59C3816.07 5195.53 3804.79 5193.71 3793.56 5191.89C3781.35 5189.9 3769.2 5187.71 3757.03 5185.36C3744.68 5182.97 3732.34 5180.36 3719.9 5178.39C3713.81 5177.44 3707.45 5176.83 3701.31 5177.44C3695.38 5178.03 3689.53 5179.15 3683.7 5180.34C3677.69 5181.57 3671.7 5182.86 3665.76 5184.4C3659.83 5185.99 3653.93 5187.75 3648.08 5189.64C3635.8 5193.6 3623.6 5197.82 3612 5203.52C3601.3 5208.74 3591.19 5215.19 3581.04 5221.44C3571.28 5227.46 3561.65 5233.82 3551.43 5239.04C3550.29 5239.57 3549.19 5240.05 3548.03 5240.49C3547.83 5240.56 3547.62 5240.6 3547.42 5240.67C3546.32 5240.86 3545.21 5241 3544.11 5241.11C3543.23 5241.15 3542.33 5241.19 3541.43 5241.17C3540.84 5241.13 3540.25 5241.09 3539.66 5241.02C3539.15 5240.93 3538.65 5240.84 3538.16 5240.71C3538.05 5240.69 3537.94 5240.65 3537.83 5240.62C3537.18 5240.42 3536.58 5240.18 3535.95 5239.96C3535.77 5239.88 3535.62 5239.79 3535.44 5239.7C3535.31 5239.61 3535.2 5239.53 3535.07 5239.42C3535.01 5239.37 3534.92 5239.29 3534.85 5239.22C3534.39 5238.67 3533.95 5238.12 3533.52 5237.58C3532.72 5236.37 3531.98 5235.14 3531.26 5233.87C3528.76 5229.59 3525.99 5225.54 3522.49 5222.03C3520.09 5219.59 3517.2 5217.58 3514.06 5216.24C3511.21 5214.99 3508.23 5214.44 3505.14 5214.26C3496.45 5213.76 3487.68 5213.65 3478.98 5214.28C3475.75 5214.5 3472.55 5214.81 3469.35 5215.29C3466.78 5215.67 3464.22 5216.21 3461.85 5217.31C3458.45 5218.87 3455.57 5221.32 3453.05 5224.02C3447.81 5229.62 3444.55 5236.54 3441.98 5243.69C3441.96 5243.72 3441.96 5243.74 3441.94 5243.78C3441.94 5243.76 3441.96 5243.74 3441.96 5243.74C3441.96 5243.76 3441.94 5243.78 3441.94 5243.78C3441.94 5243.8 3441.93 5243.85 3441.91 5243.87C3440.36 5248.25 3438.97 5252.68 3437.44 5257.07C3436.93 5258.48 3436.37 5259.9 3435.77 5261.26C3434.43 5260.51 3433.14 5259.66 3431.85 5258.8C3424.48 5253.47 3417.86 5247.12 3411.17 5240.97C3411.23 5241 3411.27 5241.06 3411.32 5241.09C3404.85 5235.1 3398.6 5228.82 3391.69 5223.32C3388.38 5220.71 3384.91 5218.23 3381.17 5216.26C3377.55 5214.37 3373.8 5212.66 3369.7 5212.18C3365.88 5211.74 3362.17 5212.36 3358.69 5214.06C3356.06 5215.31 3353.71 5217.14 3351.6 5219.11C3345.92 5224.28 3341.85 5231.04 3340.2 5238.58C3338.05 5248.39 3340.26 5258.23 3342.9 5267.71C3345.92 5278.54 3349.5 5289.27 3351.45 5300.36C3352.19 5305.06 3352.74 5309.79 3353.01 5314.55C3353.07 5316.96 3353.03 5319.38 3352.83 5321.81C3352.68 5323.28 3352.5 5324.73 3352.26 5326.19C3352.19 5326.22 3352.13 5326.22 3352.09 5326.26C3351.12 5326.52 3350.15 5326.74 3349.13 5326.92C3347.44 5327.18 3345.75 5327.34 3344.04 5327.42C3342.19 5327.44 3340.35 5327.38 3338.51 5327.27C3337.48 5327.16 3336.49 5327.03 3335.48 5326.88C3334.17 5326.55 3332.77 5326.31 3331.38 5326.04Z"
        fill="#584434"/>
</svg>