<svg
    width="7773"
    height="7615"
    viewBox="0 0 7773 7615"
    fill="none"
    xmlns="http://www.w3.org/2000/svg">
    <path
        id="DK"
        d="M3306.71 3651.14C3306.67 3651.12 3306.64 3651.11 3306.58 3651.11C3299.3 3648.72 3292.24 3645.74 3285.22 3642.63C3274.19 3637.74 3263.18 3632.21 3251.21 3630C3245.15 3628.86 3239.01 3628.13 3232.83 3628.46C3226.27 3628.81 3219.91 3630.1 3213.49 3631.46C3212.89 3631.58 3212.32 3631.71 3211.73 3631.84C3211.01 3626.47 3210.94 3621.18 3212.02 3615.85C3213.29 3609.51 3216.69 3603.85 3220.06 3598.41C3222.59 3594.34 3225.24 3590.35 3227.52 3586.14C3228.18 3584.8 3228.81 3583.44 3229.36 3582.05C3229.89 3580.43 3230.35 3578.83 3230.74 3577.19C3230.9 3576.2 3231.05 3575.19 3231.16 3574.18C3231.45 3569.47 3231.38 3564.75 3231.42 3560.04C3231.47 3554.62 3231.88 3549.21 3231.75 3543.79C3231.64 3542.43 3231.47 3541.13 3231.25 3539.79C3230.98 3538.7 3230.7 3537.65 3230.39 3536.59C3230.02 3535.59 3229.61 3534.58 3229.19 3533.61C3228.73 3532.71 3228.2 3531.84 3227.63 3531.04C3227.87 3531.38 3228.09 3531.73 3228.31 3532.1C3228.02 3531.73 3227.74 3531.37 3227.45 3531.02C3227.13 3530.7 3226.84 3530.39 3226.53 3530.08C3226.1 3529.71 3225.66 3529.36 3225.22 3528.99C3225.59 3529.23 3225.94 3529.51 3226.31 3529.75C3225.17 3528.88 3223.97 3528.15 3222.72 3527.43C3220.7 3526.46 3218.62 3525.58 3216.51 3524.77C3212.23 3523.37 3207.91 3522.23 3203.62 3520.83C3198.18 3519.05 3192.83 3517.12 3187.39 3515.36C3182.54 3513.79 3177.59 3512.49 3172.69 3511.18C3170.28 3510.56 3167.87 3509.97 3165.55 3509.11C3161.9 3507.76 3157.76 3505.5 3155.81 3501.97C3154.86 3500.21 3154.27 3498.68 3153.79 3496.77C3153.13 3494.2 3153.48 3491.5 3153.77 3488.9C3154.27 3484.97 3156.05 3481.13 3157.61 3477.49C3159.34 3473.48 3161.27 3469.55 3163.2 3465.63C3165.44 3461.09 3167.92 3456.74 3170.66 3452.49C3173.33 3448.41 3175.98 3444.33 3178.31 3440.06C3178.81 3439.05 3179.27 3438.02 3179.73 3436.97C3180 3436.11 3180.26 3435.25 3180.52 3434.36C3180.94 3432.18 3181.23 3429.99 3181.4 3427.77C3181.44 3427.51 3181.45 3427.25 3181.47 3426.99C3181.47 3427.03 3181.45 3427.07 3181.45 3427.1C3181.67 3423.37 3181.91 3419.66 3181.78 3415.93C3181.73 3415.5 3181.69 3415.1 3181.66 3414.7C3181.58 3414.4 3181.51 3414.11 3181.44 3413.83C3181.33 3413.56 3181.2 3413.26 3181.07 3412.95C3180.9 3412.66 3180.72 3412.36 3180.55 3412.07C3179.67 3410.78 3178.73 3409.55 3177.74 3408.34C3177.74 3408.34 3177.76 3408.35 3177.78 3408.35C3175.65 3405.84 3173.57 3403.34 3171.67 3400.63C3169.21 3397.12 3167.26 3393.28 3165.42 3389.42C3161.45 3380.95 3158.84 3371.53 3157.48 3362.31C3156.82 3357.78 3156.51 3353.28 3156.6 3348.7C3156.66 3344.72 3157.52 3340.73 3158.72 3336.94C3159.98 3332.97 3162.24 3328.78 3165.31 3325.91C3171.34 3320.27 3178.97 3317.16 3185.94 3312.86C3185.96 3312.84 3185.98 3312.82 3185.99 3312.8C3186.01 3312 3186.1 3311.19 3186.25 3310.36C3186.95 3306.37 3189.03 3302.84 3191.56 3299.77C3196.88 3293.36 3205.52 3290.16 3213.68 3290.1C3223.48 3290.03 3232.92 3292.38 3242.39 3294.57C3243.47 3294.77 3244.56 3294.94 3245.66 3295.08C3247.3 3295.19 3248.93 3295.21 3250.59 3295.21C3252.41 3295.08 3254.21 3294.86 3256.01 3294.57C3257.15 3294.33 3258.29 3294.05 3259.43 3293.76C3259.54 3293.72 3259.65 3293.69 3259.76 3293.61C3259.85 3293.56 3259.93 3293.52 3260.02 3293.47C3257.76 3290.1 3256.53 3286.44 3255.83 3282.46C3255.15 3278.65 3255.13 3274.79 3254.98 3270.95C3254.89 3269.26 3254.71 3267.58 3254.45 3265.91C3254.32 3265.42 3254.19 3264.92 3254.04 3264.4C3254.03 3264.35 3254.01 3264.29 3253.99 3264.24C3253.93 3264.18 3253.92 3264.11 3253.86 3264.04C3253.82 3264 3253.79 3263.93 3253.73 3263.87C3253.47 3263.61 3253.24 3263.36 3252.98 3263.1C3252.32 3262.53 3251.62 3261.98 3250.96 3261.37C3248.49 3259.15 3246.65 3256.65 3245.68 3253.43C3243.44 3245.91 3248.11 3238.78 3253.84 3234.35C3259.04 3230.29 3264.74 3226.98 3270.77 3224.33C3273.79 3223.01 3276.91 3221.96 3279.96 3220.77C3279.56 3220.09 3279.14 3219.44 3278.71 3218.76C3278.16 3217.93 3277.61 3217.11 3277.06 3216.26C3276.76 3216.37 3276.47 3216.46 3276.18 3216.57C3273.47 3217.57 3270.74 3218.52 3267.98 3219.33C3265.24 3220.12 3262.59 3220.27 3259.96 3219.85C3259.63 3220.07 3259.34 3220.31 3259.03 3220.53C3257.63 3221.76 3256.32 3223.08 3255.06 3224.44C3250.4 3229.75 3246.29 3235.6 3241.18 3240.51C3237.11 3244.39 3232.39 3247.05 3227.35 3249.44C3223.14 3251.43 3218.68 3252.81 3214.08 3253.6C3210.44 3254.22 3206.88 3253.85 3203.24 3253.52C3201.38 3253.45 3199.63 3253.6 3197.8 3253.12C3195.24 3252.49 3193.4 3251.04 3191.78 3249.02C3189.89 3246.68 3189.71 3243.8 3189.96 3240.95C3190.19 3238.58 3191.66 3236.15 3192.94 3234.24C3194.06 3232.58 3195.22 3230.91 3196.4 3229.29C3198.81 3226.02 3201.27 3222.81 3203.62 3219.5C3205.44 3216.72 3207.13 3213.89 3208.71 3210.99C3212.7 3203.03 3216.03 3194.72 3219.98 3186.72C3224.73 3177.07 3232.43 3169.79 3241.65 3164.42C3246.01 3161.91 3251.01 3160.27 3255.88 3159.15C3260.9 3157.95 3266.01 3157.24 3271.14 3156.63C3280.97 3155.49 3290.88 3154.92 3300.77 3154.41C3300.26 3154.42 3299.71 3154.46 3299.19 3154.48C3301.01 3154.37 3302.81 3154.17 3304.61 3153.91C3305.94 3153.6 3307.24 3153.25 3308.55 3152.86C3309.36 3152.53 3310.18 3152.18 3310.97 3151.81C3311.4 3151.58 3311.8 3151.34 3312.2 3151.12C3312.87 3150.66 3313.51 3150.18 3314.17 3149.68C3315.66 3148.34 3317.08 3146.92 3318.44 3145.47C3320.42 3143.19 3322.3 3140.84 3324.06 3138.36C3324.58 3137.57 3325.09 3136.78 3325.55 3135.97C3325.64 3135.75 3325.75 3135.51 3325.84 3135.31C3325.88 3135.2 3325.9 3135.09 3325.94 3134.98C3326.07 3134.17 3326.19 3133.38 3326.29 3132.57C3326.58 3130.14 3327.13 3127.75 3327.81 3125.4C3329.15 3120.88 3331.45 3116.5 3333.88 3112.5C3336.41 3108.27 3339.21 3104.22 3342.28 3100.4C3345.31 3096.63 3348.77 3093.29 3352.41 3090.14C3359.72 3083.82 3367.7 3078.03 3377.08 3075.22C3385.16 3072.79 3393.53 3071.41 3401.6 3068.89C3402.9 3068.42 3404.19 3067.88 3405.46 3067.33C3407.22 3066.43 3408.93 3065.46 3410.64 3064.41C3411.65 3063.71 3412.63 3062.97 3413.58 3062.2C3417.7 3058.49 3421.56 3054.48 3425.99 3051.12C3430.75 3047.52 3435.92 3044.24 3441.49 3042C3445.35 3040.47 3449.65 3039.85 3453.69 3041.01C3459.33 3042.64 3462.99 3047.15 3465.12 3052.39C3466.83 3056.61 3467.07 3061.39 3467.15 3065.88C3467.18 3068.75 3467.02 3071.61 3466.82 3074.46C3466.37 3081.04 3465.51 3087.55 3464.04 3094.02C3462.66 3100.03 3460.97 3105.95 3459.41 3111.91C3457.9 3117.66 3456.61 3123.45 3454.89 3129.17C3453.23 3134.59 3451.36 3139.99 3450.01 3145.51C3449.83 3146.54 3449.67 3147.57 3449.52 3148.63C3449.44 3150.18 3449.43 3151.74 3449.46 3153.3C3449.9 3157.83 3450.73 3162.27 3451.43 3166.76C3452.28 3171.92 3452.64 3177.15 3452.57 3182.37C3452.37 3194.42 3447.79 3205.55 3445.03 3217.14C3444.1 3221.85 3443.69 3226.68 3443.32 3231.46C3443.03 3235.56 3442.85 3239.63 3442.96 3243.72C3443.12 3245.54 3443.32 3247.38 3443.64 3249.18C3444.24 3251.94 3444.96 3254.66 3445.79 3257.36C3446.47 3259.28 3447.22 3261.13 3448.07 3262.99C3448.47 3263.74 3448.89 3264.5 3449.32 3265.23C3449.68 3265.75 3450.05 3266.24 3450.44 3266.76C3450.88 3267.18 3451.28 3267.62 3451.72 3268.03C3452.02 3268.26 3452.29 3268.47 3452.59 3268.71C3453.32 3269.18 3454.08 3269.64 3454.85 3270.1C3456.87 3271.08 3458.93 3271.92 3461.04 3272.71C3465.47 3274.2 3470 3275.38 3474.5 3276.68C3481.23 3278.65 3487.28 3281.76 3492.96 3285.87C3495.69 3287.86 3498.08 3290.6 3500.18 3293.26C3502.16 3295.75 3503.82 3298.48 3505.38 3301.26C3507 3304.16 3508.19 3307.33 3509.08 3310.52C3509.55 3312.33 3510 3314.2 3510.27 3316.02C3510.8 3319.62 3510.69 3323.1 3510.14 3326.66C3508.76 3335.54 3503.54 3343.24 3498.08 3350.08C3493.51 3355.84 3487.81 3361.33 3481.48 3365.1C3476.06 3368.32 3470.33 3370.74 3464.28 3372.55C3458.38 3374.29 3452.44 3375.82 3446.6 3377.64C3442.85 3378.96 3439.21 3380.38 3435.59 3382.03C3433.53 3383.1 3431.52 3384.22 3429.56 3385.45C3428.58 3386.17 3427.63 3386.92 3426.69 3387.69C3426.27 3388.12 3425.82 3388.52 3425.38 3388.94C3424.68 3389.75 3424.02 3390.58 3423.36 3391.42C3422.66 3392.51 3421.98 3393.61 3421.32 3394.73C3420.25 3396.9 3419.3 3399.09 3418.43 3401.35C3417.77 3403.45 3417.2 3405.56 3416.69 3407.71C3416.61 3408.04 3416.56 3408.39 3416.49 3408.72C3415.7 3412.53 3415.13 3416.39 3414.32 3420.19C3413.34 3424.6 3412.13 3428.92 3410.4 3433.1C3406.93 3441.37 3401.93 3449.16 3395.38 3455.32C3389.48 3460.87 3382.92 3465.72 3375.68 3469.35C3372.31 3471.02 3368.91 3472.54 3365.37 3473.81C3362.37 3474.9 3359.3 3475.76 3356.25 3476.73C3355.94 3476.85 3355.66 3476.96 3355.38 3477.05C3355.26 3482.95 3355.73 3488.87 3355.77 3494.77C3355.79 3500.1 3355.62 3505.41 3355.83 3510.72C3356.16 3515.45 3357.11 3520.06 3357.68 3524.75C3358.44 3531.02 3358.42 3537.19 3357.79 3543.46C3357.15 3549.8 3356.4 3556.27 3354.61 3562.41C3352.33 3570.12 3347.92 3576.99 3344.12 3584.03C3344.1 3584.05 3344.1 3584.09 3344.1 3584.09C3344.1 3584.1 3344.08 3584.12 3344.08 3584.14C3344.01 3584.31 3343.91 3584.47 3343.84 3584.64C3343.84 3584.6 3343.86 3584.58 3343.88 3584.55C3343.86 3584.6 3343.82 3584.64 3343.8 3584.69C3343.69 3584.91 3343.56 3585.13 3343.45 3585.35C3343.51 3585.26 3343.56 3585.17 3343.6 3585.1C3342.5 3587.17 3341.47 3589.29 3340.55 3591.46C3340.55 3591.51 3340.53 3591.59 3340.49 3591.64C3340.48 3591.71 3340.48 3591.77 3340.46 3591.84C3340.46 3592.19 3340.46 3592.52 3340.46 3592.87C3340.53 3593.57 3340.62 3594.29 3340.72 3594.99C3341.73 3599.62 3342.88 3604.21 3344.32 3608.7C3344.8 3610 3345.31 3611.25 3345.9 3612.52C3347.06 3614.8 3348.31 3617.06 3349.67 3619.25C3350.73 3620.81 3351.86 3622.32 3353.03 3623.77C3353.45 3624.25 3353.88 3624.75 3354.3 3625.21C3349.32 3627.21 3344.41 3629.42 3339.67 3631.93C3334.13 3634.86 3328.95 3638.35 3324.47 3642.71C3322.63 3644.45 3320.92 3646.35 3319.26 3648.28C3318.05 3649.73 3316.87 3651.2 3315.51 3652.5C3315.33 3652.65 3315.16 3652.8 3314.98 3652.94C3314.85 3652.94 3314.7 3652.94 3314.58 3652.94C3313.99 3652.87 3313.4 3652.82 3312.83 3652.72C3310.7 3652.26 3308.71 3651.71 3306.71 3651.14Z"
        fill="#2D4159"/>
    <path
        id="DK"
        d="M3685.3 3512.18C3685.97 3511.04 3686.66 3509.97 3687.36 3508.83C3690.07 3505.14 3693.01 3501.53 3696.08 3498.09C3700.32 3493.65 3705.4 3489.51 3706.94 3483.3C3707.91 3479.31 3708.02 3475.25 3708.17 3471.18C3708.3 3467.95 3708.32 3464.75 3708.36 3461.51C3708.37 3458.08 3708.45 3454.55 3708.06 3451.09C3707.62 3447.34 3706.68 3443.7 3705.38 3440.17C3703.83 3435.96 3701.72 3431.9 3699.15 3428.28C3697.38 3425.85 3695.36 3423.59 3693.37 3421.28C3693.34 3421.18 3693.21 3421.11 3693.12 3421C3693.13 3420.91 3693.15 3420.76 3693.12 3420.61C3693.25 3419.75 3693.37 3418.89 3693.56 3417.97C3694.33 3414.79 3695.38 3411.55 3695.67 3408.28C3695.86 3406.04 3696.15 3403.72 3695.78 3401.5C3695.4 3399.03 3694.84 3396.79 3693.96 3394.49C3692.69 3391.35 3690.67 3388.41 3688.48 3385.82C3684.99 3381.72 3680.56 3378.8 3675.64 3376.7C3667.9 3373.35 3659.24 3374.02 3651.46 3376.46C3651.46 3376.46 3651.46 3376.46 3651.46 3376.52C3651.41 3376.52 3651.41 3376.52 3651.41 3376.52C3651.41 3376.52 3651.35 3376.52 3651.35 3376.55C3642.57 3379.46 3634.59 3384.53 3627.93 3391C3626.9 3391.94 3625.97 3392.97 3625.03 3394.02C3623.45 3395.76 3621.85 3397.93 3620.99 3400.17C3619.83 3403.45 3618.91 3406.61 3618.83 3410.14C3618.8 3411.66 3618.93 3413.21 3619 3414.73C3619.33 3419.16 3620.32 3423.59 3621.61 3427.82C3624.13 3435.87 3628.56 3442.91 3632.99 3450.01C3635.03 3453.26 3636.94 3456.64 3639.42 3459.57C3640.51 3460.91 3641.61 3462.1 3642.77 3463.3C3640.36 3466.64 3637.95 3469.97 3635.38 3473.15C3632.92 3472.16 3630.47 3471 3628.03 3469.9C3625.1 3468.63 3622.18 3467.47 3619.33 3466.11C3618.93 3465.85 3618.52 3465.65 3618.15 3465.39C3617.97 3465.26 3617.84 3465.15 3617.68 3465.03C3617.68 3464.97 3617.64 3464.92 3617.6 3464.86C3617.6 3464.81 3617.57 3464.75 3617.57 3464.71C3617.42 3464.35 3617.38 3464 3617.27 3463.65C3617.07 3462.34 3616.92 3461.04 3616.81 3459.69C3616.74 3457.47 3616.72 3455.21 3616.57 3452.97C3616.35 3449.79 3615.45 3446.9 3614.09 3444.05C3610.78 3437.12 3603.19 3433.15 3595.86 3432.12C3590.36 3431.37 3584.57 3431.9 3579.18 3433.02C3575.84 3433.72 3572.55 3434.66 3569.33 3435.76C3565.14 3437.12 3561.24 3439.25 3557.55 3441.57C3551.46 3445.45 3545.64 3449.62 3540.07 3454.16C3538.69 3454.49 3537.31 3454.84 3535.93 3455.17C3531.39 3456.28 3527.27 3460.15 3525.03 3464.07C3522.92 3467.75 3521.3 3471.7 3520.49 3475.85C3518.51 3486.09 3520.99 3496.35 3525.07 3505.76C3528.51 3513.59 3532.9 3520.89 3538.43 3527.41C3538.6 3527.63 3538.76 3527.8 3538.93 3528.02C3539.02 3528.08 3539.06 3528.19 3539.09 3528.19C3542.22 3531.79 3545.4 3535.26 3548.47 3538.87C3551.76 3542.89 3554.79 3547.12 3557.92 3551.33C3561.02 3555.63 3564.31 3559.8 3568.27 3563.33C3570.93 3565.65 3573.87 3567.39 3577.24 3568.59C3580.09 3569.6 3583.16 3570.15 3586.15 3570.57C3590.88 3571.27 3595.69 3571.62 3600.4 3572.47C3601.72 3572.82 3603.01 3573.15 3604.28 3573.57C3604.59 3573.72 3604.92 3573.87 3605.25 3573.96C3605.25 3573.96 3605.25 3573.99 3605.29 3574.01C3605.58 3574.31 3605.84 3574.58 3606.13 3574.91C3607.58 3576.75 3608.82 3578.81 3610.25 3580.69C3612.27 3583.39 3614.48 3585.74 3617.07 3587.89C3624.7 3594.27 3632.6 3601.18 3642.77 3602.67L3643.1 3602.73C3649.42 3603.55 3655.41 3603.06 3661.5 3601.38C3666.46 3600.1 3671.17 3597.54 3675.34 3594.6C3682.69 3589.38 3688.63 3581.44 3690.69 3572.52C3692.03 3566.68 3692.57 3560.7 3691.72 3554.66C3691.39 3552.21 3690.91 3549.77 3690.43 3547.28C3688.83 3539.38 3685.49 3531.94 3683.69 3524.11C3683.59 3523.11 3683.43 3522.16 3683.34 3521.11C3683.34 3520.17 3683.3 3519.27 3683.34 3518.35C3683.39 3517.71 3683.48 3517.05 3683.58 3516.42C3683.74 3515.91 3683.93 3515.34 3684.05 3514.82C3684.46 3513.92 3684.88 3513.06 3685.3 3512.18ZM3588.49 3460.71C3588.58 3460.72 3588.63 3460.69 3588.73 3460.71C3588.85 3463.19 3588.98 3465.67 3589.31 3468.08C3588.95 3465.69 3588.71 3463.21 3588.49 3460.71Z"
        fill="#2D4159"/>
    <path
        id="DK"
        d="M3563.47 3707.48C3559.3 3706.38 3555.53 3704.6 3552 3702.12C3549.85 3700.57 3547.83 3698.83 3545.67 3697.26C3540.78 3693.9 3535.58 3690.85 3531.23 3686.79C3526.98 3682.78 3523.19 3678.2 3519.41 3673.73L3519.39 3673.72C3518.65 3672.82 3517.94 3671.9 3517.26 3670.98C3515.25 3668.22 3514.04 3665.17 3513.52 3661.82C3513.14 3659.3 3513.23 3656.57 3513.73 3654.07C3514.35 3650.83 3515.51 3647.96 3517.42 3645.26C3519.63 3642.17 3522.92 3640.21 3526.28 3638.64C3528.85 3637.47 3531.67 3636.75 3534.41 3636.14C3536.48 3635.68 3538.71 3635.26 3540.82 3635.33C3543.95 3635.41 3546.7 3636.09 3549.59 3637.17C3554.83 3639.12 3559.68 3642.15 3564.63 3644.75C3568.19 3646.6 3571.8 3648.35 3575.56 3649.8C3576.74 3650.19 3577.9 3650.54 3579.07 3650.87C3580.36 3650.37 3581.61 3649.84 3582.84 3649.27C3587.16 3647.12 3591.24 3644.71 3595.31 3642.12C3600.64 3638.7 3606.11 3635.48 3611.61 3632.32C3618.5 3628.37 3626.24 3624.78 3634.39 3625C3638.78 3625.13 3642.95 3626.2 3646.94 3628C3649.31 3629.08 3651.48 3630.35 3653.56 3631.92C3657.25 3634.69 3659.37 3639.12 3660.03 3643.59C3660.8 3648.85 3658.82 3653.96 3656.24 3658.44C3653.83 3662.61 3650.58 3666.35 3647.12 3669.67C3643.98 3672.67 3640.58 3675.43 3637.09 3678.05C3633.54 3680.72 3629.7 3682.93 3625.95 3685.26C3625.27 3685.72 3624.64 3686.18 3624.02 3686.69C3623.72 3686.95 3623.45 3687.23 3623.19 3687.52C3622.92 3687.87 3622.62 3688.22 3622.35 3688.59C3622.35 3688.62 3622.31 3688.66 3622.29 3688.7C3622.24 3688.84 3622.18 3688.99 3622.11 3689.12C3622.07 3689.21 3622.05 3689.3 3622.03 3689.38C3621.74 3691.2 3621.63 3693.02 3621.15 3694.82C3620.4 3697.67 3618.93 3700.3 3616.92 3702.45C3613.03 3706.66 3607.66 3708.77 3602.13 3709.8C3595.8 3710.98 3589.35 3710.98 3582.93 3710.7C3580.23 3710.57 3577.57 3710.31 3574.92 3709.93C3571.04 3709.3 3567.24 3708.49 3563.47 3707.48Z"
        fill="#2D4159"/>
    <path
        id="DK"
        d="M3457.66 3676.88C3453.27 3675.92 3448.69 3673.46 3445.51 3670.22C3443.8 3668.5 3442.4 3666.53 3441.39 3664.3C3440.42 3662.06 3440.09 3659.75 3439.96 3657.32C3439.83 3654.95 3440.13 3652.6 3440.11 3650.21C3439.98 3648.68 3439.79 3647.19 3439.56 3645.68C3439.37 3644.91 3439.17 3644.14 3438.93 3643.37C3438.78 3643.02 3438.65 3642.67 3438.51 3642.34C3438.4 3642.12 3438.27 3641.88 3438.14 3641.66C3437.97 3641.42 3437.79 3641.2 3437.64 3640.96C3437.33 3640.63 3436.98 3640.3 3436.65 3639.97C3436.14 3639.54 3435.62 3639.12 3435.09 3638.72C3429.81 3635.06 3424.37 3631.66 3419.57 3627.38C3419.65 3627.45 3419.7 3627.5 3419.78 3627.58C3419.67 3627.47 3419.56 3627.38 3419.43 3627.28C3419.35 3627.21 3419.26 3627.14 3419.19 3627.06L3419.11 3626.99L3419.13 3627.01L3419.08 3626.95L3419.1 3626.97C3416.5 3624.54 3414.06 3621.99 3411.91 3619.14C3409.74 3616.24 3407.61 3613.28 3405.42 3610.39C3401.17 3604.84 3396.67 3599.56 3392.79 3593.74H3392.81C3389.96 3589.38 3387.55 3584.53 3387.31 3579.25C3387.13 3575.85 3387.87 3572.43 3388.21 3569.05C3388.23 3568.39 3388.25 3567.76 3388.25 3567.14C3388.23 3567.01 3388.23 3566.88 3388.21 3566.77C3388.16 3566.68 3388.07 3566.57 3388.01 3566.49C3387.46 3565.92 3386.87 3565.39 3386.3 3564.82C3384.06 3562.76 3382.11 3560.63 3380.46 3558.08C3378.14 3554.45 3377.72 3550.23 3377.68 3546.05C3377.59 3540.26 3378.8 3534.31 3380.9 3528.92C3382.99 3523.59 3385.7 3518.44 3389.89 3514.45C3393.97 3510.59 3399.76 3508.61 3405 3506.88C3404.89 3506.92 3404.8 3506.95 3404.68 3506.99C3405.11 3506.84 3405.53 3506.7 3405.99 3506.57C3405.79 3506.62 3405.59 3506.7 3405.37 3506.79C3405.62 3506.7 3405.9 3506.62 3406.17 3506.53C3406.25 3506.46 3406.32 3506.42 3406.41 3506.35C3411.65 3502.36 3417.68 3499.07 3424.26 3498.08C3426.43 3497.75 3428.64 3497.78 3430.81 3497.95C3433.95 3498.15 3437.04 3498.57 3439.98 3499.77C3442.9 3500.98 3445.46 3502.98 3447.5 3505.37C3448.95 3507.08 3450.29 3508.88 3451.72 3510.63C3452.13 3511.07 3452.53 3511.5 3452.97 3511.92C3453.18 3512.1 3453.4 3512.27 3453.62 3512.43C3453.97 3512.65 3454.32 3512.86 3454.68 3513.08C3459.98 3515.59 3465.77 3517.16 3470.86 3520.21C3476.76 3523.72 3480.73 3529.18 3485.05 3534.36C3488.08 3537.84 3491.28 3541.16 3494.48 3544.51C3496.61 3546.75 3498.73 3549.05 3500.58 3551.55C3502.62 3554.31 3504.26 3557.21 3505.69 3560.32C3511.94 3573.9 3504.37 3587.28 3498.07 3599.14C3497.51 3600.28 3497 3601.44 3496.54 3602.63C3496.12 3603.96 3495.77 3605.3 3495.44 3606.68C3494.46 3611.47 3493.87 3616.33 3493.43 3621.24C3493.12 3626.03 3493.14 3630.78 3493.41 3635.57C3493.41 3635.13 3493.38 3634.71 3493.36 3634.27C3493.54 3637.12 3493.84 3639.93 3494.32 3642.76C3495.12 3646.07 3496.28 3649.34 3496.47 3652.78C3496.74 3658.94 3493.73 3664.29 3489.28 3668.33C3486.89 3670.52 3484.19 3672.41 3481.3 3673.86C3477.9 3675.59 3474.3 3676.46 3470.55 3677.1C3466.98 3677.71 3463.16 3677.78 3459.57 3677.26C3458.89 3677.12 3458.29 3677.01 3457.66 3676.88Z"
        fill="#2D4159"/>
</svg>