<svg
    width="7773"
    height="7615"
    viewBox="0 0 7773 7615"
    fill="none"
    xmlns="http://www.w3.org/2000/svg">
    <path
        id="EE"
        d="M5011.31 2803.83C5011.34 2803.6 5011.38 2803.38 5011.4 2803.16C5011.4 2802.94 5011.42 2802.69 5011.4 2802.43C5011.36 2802.13 5011.33 2801.82 5011.29 2801.51C5011.16 2801.07 5011.03 2800.61 5010.88 2800.15C5009.51 2796.22 5007.96 2792.34 5006.97 2788.29C5005.7 2783.04 5004.84 2777.69 5004.16 2772.32C5002.94 2762.65 5002.8 2752.94 5002.28 2743.22C5002.3 2743.79 5002.34 2744.34 5002.36 2744.91C5002.12 2741.12 5001.6 2737.45 5000.94 2733.73C5000.87 2733.46 5000.81 2733.2 5000.76 2732.91C5000.55 2732.82 5000.35 2732.74 5000.17 2732.65C5000.02 2732.61 4999.87 2732.56 4999.73 2732.52C4999.51 2732.48 4999.25 2732.45 4999.03 2732.43C4998.84 2732.43 4998.66 2732.41 4998.48 2732.41C4998.2 2732.45 4997.93 2732.47 4997.67 2732.5C4997.81 2732.47 4997.93 2732.45 4998.07 2732.41C4998.04 2732.43 4998 2732.41 4997.98 2732.41C4997.65 2732.47 4997.34 2732.56 4996.99 2732.65C4996.29 2732.93 4995.59 2733.2 4994.89 2733.48C4994.89 2733.51 4994.87 2733.53 4994.87 2733.55C4994.75 2734.27 4994.67 2734.98 4994.6 2735.72C4994.58 2735.7 4994.58 2735.68 4994.58 2735.68C4994.1 2741.09 4992.83 2746.47 4989.29 2750.83C4987.02 2753.62 4984.54 2756.11 4981.47 2758.04C4978.77 2759.76 4975.98 2761.09 4972.96 2762.13C4965.04 2764.63 4956.62 2765.44 4948.46 2763.5C4945.26 2762.74 4942.19 2761.69 4939.27 2760.15C4937.04 2758.97 4935.02 2757.65 4932.96 2756.18C4930.02 2754.1 4927.28 2751.58 4924.71 2749.01C4919.78 2744.12 4915.57 2738.62 4911.47 2733.05C4909.38 2730.21 4907.38 2727.26 4905.68 2724.16C4904.23 2721.55 4903 2718.83 4901.73 2716.12C4901.33 2715.33 4900.92 2714.56 4900.48 2713.79C4900.21 2713.42 4899.93 2713.05 4899.64 2712.69C4899.6 2712.65 4899.56 2712.6 4899.53 2712.56C4899.4 2712.47 4899.29 2712.37 4899.16 2712.28C4898.96 2712.17 4898.79 2712.06 4898.59 2711.95C4898.3 2711.82 4898 2711.68 4897.69 2711.55C4897.38 2711.44 4897.06 2711.36 4896.73 2711.27C4896.36 2711.22 4895.98 2711.16 4895.57 2711.12C4894.89 2711.09 4894.2 2711.07 4893.52 2711.09C4891.57 2711.25 4889.6 2711.58 4887.65 2711.46C4884.31 2711.2 4881.46 2710.22 4878.74 2708.24C4877.25 2707.15 4876.09 2705.81 4874.93 2704.42C4872.03 2700.94 4869.34 2697.25 4866.7 2693.59C4865.57 2692.06 4864.47 2690.48 4863.33 2688.94C4862.05 2687.19 4860.65 2685.54 4859.38 2683.79C4856.11 2679.16 4854.33 2673.39 4855.41 2667.69C4856.26 2663.15 4857.74 2658.92 4859.97 2654.88C4861.2 2652.61 4862.56 2650.48 4864.01 2648.39C4867.85 2643.06 4872.3 2638.28 4876.97 2633.63C4878.48 2632.14 4880.02 2630.68 4881.55 2629.21C4878.61 2627.25 4875.69 2625.24 4872.91 2623.06C4869.07 2619.99 4865.52 2616.55 4862.32 2612.8C4859.97 2610.01 4857.76 2607.1 4855.94 2603.88C4853.26 2599.16 4851.94 2593.88 4851.29 2588.5C4850.89 2585.01 4851.04 2581.33 4851.38 2577.82C4851.75 2574.44 4852.34 2571.04 4853.44 2567.82C4854.56 2564.51 4855.83 2561.22 4857.54 2558.17C4859.36 2554.91 4861.4 2551.86 4863.53 2548.83C4867.58 2543.06 4872.62 2537.87 4877.58 2532.91C4882.45 2528.02 4887.78 2523.65 4893.15 2519.33C4897.89 2515.54 4902.85 2511.92 4908 2508.67C4918.24 2502.25 4929.36 2497.58 4940.26 2492.38C4939.75 2492.6 4939.25 2492.86 4938.74 2493.1C4941.13 2491.92 4943.46 2490.71 4945.68 2489.35C4946.25 2488.96 4946.82 2488.54 4947.36 2488.1C4947.87 2487.64 4948.37 2487.16 4948.86 2486.64C4950.59 2484.71 4952.21 2482.69 4953.79 2480.61C4955.98 2477.73 4958.33 2475.04 4961 2472.56C4966.16 2467.71 4972.82 2463.57 4979.73 2461.57C4980.61 2460.06 4981.51 2458.57 4982.5 2457.12C4984.97 2453.46 4988.13 2450.61 4992.15 2448.74C4996.45 2446.74 5001.05 2445.76 5005.74 2445.08C5010.39 2444.42 5015.11 2444.02 5019.82 2443.94C5024.29 2443.87 5028.77 2444.27 5033.24 2444.64C5035.04 2444.79 5036.88 2444.92 5038.71 2444.92C5038.75 2444.9 5038.81 2444.92 5038.86 2444.9C5039.1 2444.84 5039.32 2444.77 5039.54 2444.7C5040.26 2444.44 5040.94 2444.14 5041.64 2443.85C5043.26 2443 5044.84 2442.12 5046.4 2441.17C5048.2 2439.9 5049.96 2438.61 5051.71 2437.23C5052.78 2436.28 5053.81 2435.28 5054.8 2434.27C5056.2 2432.67 5057.5 2430.98 5058.84 2429.37C5061.07 2426.7 5063.59 2424.42 5066.27 2422.21C5070.9 2418.39 5076.4 2415.36 5081.86 2412.88C5092.67 2407.99 5103.93 2404.49 5115.75 2403.21C5121.36 2402.58 5127.06 2402.62 5132.68 2402.67C5138.27 2402.75 5143.86 2403.02 5149.43 2403.47C5159.69 2404.29 5169.78 2406.68 5179.89 2408.52C5183.66 2409.2 5187.39 2409.79 5191.19 2410.21C5194.74 2410.38 5198.27 2410.38 5201.82 2410.23C5206.95 2409.92 5212.02 2409.48 5217.09 2408.72C5222.65 2407.88 5228.22 2406.92 5233.8 2406.17C5243.47 2404.83 5253.21 2404.94 5262.94 2404.49C5270.95 2403.91 5278.8 2402.4 5286.74 2401.31C5289.46 2400.95 5292.15 2400.67 5294.87 2400.47C5298.18 2402.91 5301.45 2405.47 5304.46 2408.26C5305.71 2409.51 5306.91 2410.8 5308.01 2412.14C5308.97 2413.39 5309.87 2414.68 5310.71 2416C5312.2 2418.56 5313.54 2421.17 5314.74 2423.83C5315.68 2426.04 5316.5 2428.26 5317.2 2430.54C5318.18 2434.02 5318.88 2437.53 5319.41 2441.09C5319.43 2441.22 5319.44 2441.33 5319.44 2441.44C5319.44 2441.46 5319.44 2441.48 5319.44 2441.48C5319.96 2445.89 5320.2 2450.38 5320.2 2454.84C5320.13 2460.98 5319.57 2467.07 5318.67 2473.13C5315.27 2494.69 5310.75 2516.05 5306.47 2537.47C5305.44 2542.49 5304.52 2547.56 5304.45 2552.71C5304.35 2558.52 5305.49 2564.22 5307.06 2569.82C5309.11 2577.27 5311.93 2584.51 5314.98 2591.59C5319.46 2601.97 5324.33 2612.19 5329.28 2622.36C5336.98 2638.17 5345.11 2653.72 5353.19 2669.32C5358.1 2678.77 5363.05 2688.26 5367.05 2698.13C5367.04 2698.13 5367.04 2698.11 5367.02 2698.09C5368.65 2702.26 5370.14 2706.51 5371.34 2710.85C5371.85 2712.94 5372.28 2715.06 5372.57 2717.21C5372.72 2718.72 5372.81 2720.24 5372.83 2721.77C5372.77 2723.66 5372.66 2725.55 5372.44 2727.45C5371.19 2736.29 5369.09 2745.04 5367.18 2753.72C5366.17 2758.18 5365.16 2762.63 5364.3 2767.12C5363.49 2771.1 5362.77 2775.22 5362.73 2779.3C5362.72 2783.16 5363.4 2786.93 5364.61 2790.53C5360.23 2790.77 5355.88 2791.82 5351.65 2792.89C5346.37 2794.23 5341.17 2795.98 5336.03 2797.7C5331.21 2799.34 5326.43 2801.14 5321.74 2803.11C5311.39 2807.48 5301.1 2811.97 5290.73 2816.27C5285.97 2818.24 5281.19 2820.13 5276.43 2822.06C5272.96 2823.48 5269.61 2825.09 5266.21 2826.64C5265.94 2826.77 5265.68 2826.88 5265.4 2827C5265.29 2826.99 5265.2 2826.99 5265.11 2826.99C5264.76 2826.91 5264.37 2826.84 5264.02 2826.77C5263.4 2826.58 5262.77 2826.4 5262.17 2826.16C5260.97 2825.64 5259.83 2825.09 5258.69 2824.49C5252.87 2821.05 5247.39 2817.06 5242 2813.03C5237.9 2809.8 5233.97 2806.42 5230.26 2802.76C5230.24 2802.74 5230.22 2802.72 5230.2 2802.7C5225.05 2797.37 5220.13 2791.84 5214.89 2786.62C5210.51 2782.26 5205.66 2778.44 5200.37 2775.3C5197.63 2773.66 5194.61 2772.45 5191.6 2771.45C5188.46 2770.41 5185.18 2769.6 5181.89 2769.14C5170.48 2767.52 5158.95 2767.85 5147.48 2767.32C5141.86 2766.93 5136.34 2766.23 5130.75 2765.3C5130.74 2765.3 5130.72 2765.3 5130.7 2765.3C5130.39 2765.24 5130.09 2765.17 5129.8 2765.13C5129.78 2765.13 5129.76 2765.13 5129.74 2765.13C5129.49 2765.08 5129.21 2765.04 5128.95 2764.98C5124.25 2764.06 5119.65 2762.69 5115.11 2761.18C5113.18 2760.54 5111.27 2759.86 5109.34 2759.19C5106.88 2758.31 5104.38 2757.45 5101.8 2756.91C5095.75 2755.72 5089.54 2756.27 5083.82 2758.59C5078.95 2760.59 5074.28 2763.09 5070.24 2766.45C5066.45 2769.58 5063 2773.13 5059.49 2776.51C5055.74 2780.04 5051.97 2783.57 5047.96 2786.78C5047.89 2786.84 5047.8 2786.91 5047.72 2786.97C5043.27 2790.35 5038.38 2793.2 5033.57 2796.07C5033.42 2796.16 5033.27 2796.23 5033.13 2796.33C5033.05 2796.36 5033 2796.4 5032.94 2796.44C5027.04 2799.87 5020.99 2802.98 5014.75 2805.76C5013.24 2806.38 5011.73 2806.97 5010.22 2807.52C5010.61 2806.31 5010.98 2805.08 5011.31 2803.83Z"
        fill="#584434"/>
    <path
        id="EE"
        d="M4747.16 2817.06C4743.94 2815.64 4740.8 2813.99 4737.93 2811.97C4732.36 2808.05 4727.69 2802.94 4723.35 2797.76C4721.22 2795.24 4719.15 2792.67 4717.4 2789.85C4715.84 2787.35 4714.51 2784.78 4713.54 2781.99C4712.2 2778.05 4711.63 2773.94 4711.77 2769.76C4712 2762.37 4714.55 2754.41 4719.64 2748.94C4722.2 2746.18 4725.36 2744.36 4728.96 2743.38C4730.41 2742.98 4731.94 2742.82 4733.45 2742.56C4734.37 2742.36 4735.27 2742.14 4736.19 2741.86C4736.99 2741.55 4737.82 2741.23 4738.65 2740.87C4742.45 2738.96 4746.11 2736.64 4749.75 2734.36C4750.62 2733.35 4751.52 2732.37 4752.47 2731.46C4756.96 2727.1 4762.49 2724.45 4767.95 2721.58C4773.08 2718.9 4778.5 2717.04 4783.94 2715.1C4788.02 2713.66 4792.07 2712.5 4796.33 2711.73C4799.16 2711.2 4802.01 2710.85 4804.86 2710.46C4809.79 2709.78 4814.73 2709.23 4819.71 2708.97C4819.18 2708.99 4818.65 2709.03 4818.13 2709.05C4819 2708.99 4819.84 2708.96 4820.69 2708.9H4820.71C4820.72 2708.9 4820.72 2708.9 4820.74 2708.9C4820.83 2708.9 4820.95 2708.88 4821.04 2708.88C4826.92 2708.62 4832.75 2708.94 4838.63 2709.45C4844.27 2709.95 4849.88 2711.14 4855.36 2712.45C4857.97 2713.04 4860.54 2713.68 4863.06 2714.54C4867.1 2715.87 4871.51 2717.83 4874.03 2721.44C4875.71 2723.79 4877.08 2726.8 4876.88 2729.8C4876.62 2733.26 4875.59 2736.42 4873.04 2738.86C4870.78 2741.05 4868.11 2742.02 4865.21 2742.85C4864.69 2743.13 4864.16 2743.4 4863.67 2743.72C4863.54 2743.81 4863.41 2743.9 4863.28 2744.01C4863.24 2744.07 4863.19 2744.14 4863.17 2744.18C4862.98 2744.45 4862.84 2744.75 4862.65 2745.02C4861.55 2747.3 4860.54 2749.64 4859.49 2751.93C4858.13 2754.95 4856.64 2757.89 4855.08 2760.83C4853.59 2763.64 4852.03 2766.49 4849.99 2768.97C4847.8 2771.6 4845.39 2774.01 4842.82 2776.27C4840.03 2778.72 4837.1 2781.05 4833.94 2782.98C4830.89 2784.84 4827.56 2785.98 4824.14 2786.91C4818.44 2788.46 4812.6 2789.58 4806.9 2791.29C4806.06 2791.6 4805.23 2791.93 4804.4 2792.28C4804.27 2792.35 4804.13 2792.45 4803.98 2792.52C4803.9 2792.58 4803.85 2792.61 4803.78 2792.67C4803.46 2792.96 4803.15 2793.27 4802.86 2793.57C4800.78 2795.94 4798.74 2798.29 4796.46 2800.46C4793.76 2803.02 4790.87 2805.41 4787.88 2807.61C4784.79 2809.87 4781.57 2811.91 4778.28 2813.84C4774.88 2815.85 4770.96 2817.59 4767.14 2818.53C4764 2819.3 4760.85 2819.82 4757.6 2819.73C4756.79 2819.71 4756 2819.63 4755.21 2819.5C4752.36 2819.1 4749.71 2818.18 4747.16 2817.06Z"
        fill="#584434"/>
    <path
        id="EE"
        d="M4732.23 2688C4728.41 2686.16 4724.99 2683.31 4722.03 2680.32C4719.4 2677.65 4717.27 2674.21 4715.91 2670.74C4714.07 2666.09 4713.19 2661.16 4714.49 2656.22C4716.41 2649.07 4721.46 2643.13 4726.64 2638.04C4731.81 2632.96 4737.54 2628.57 4744.38 2626.03C4748.24 2624.6 4752.23 2623.57 4756.31 2622.93C4761.46 2619.31 4767.43 2617.45 4773.52 2615.94C4780.36 2614.23 4787.25 2612.74 4794.33 2612.62C4797.76 2612.56 4801.22 2613.06 4804.62 2613.53C4807.73 2613.98 4810.87 2614.31 4813.9 2615.08C4819.03 2616.38 4823.54 2619.82 4827.45 2623.28C4830.43 2625.92 4833.06 2629.03 4834.45 2632.82C4835.08 2634.49 4835.58 2636.22 4835.78 2638C4836.13 2640.76 4835.63 2643.3 4834.68 2645.83C4833.85 2648.04 4832.32 2650.24 4830.83 2652.01C4828.89 2654.38 4826.59 2656.42 4824.07 2658.15C4818.37 2662.03 4811.73 2663.85 4805.19 2665.7C4800.21 2667.14 4795.1 2668.02 4790.17 2669.53C4789.69 2669.71 4789.25 2669.89 4788.78 2670.08C4788.63 2670.15 4788.5 2670.24 4788.35 2670.32C4788.1 2670.52 4787.82 2670.7 4787.56 2670.89C4786.74 2671.66 4785.93 2672.45 4785.15 2673.28C4782.97 2675.72 4780.87 2678.24 4778.63 2680.65C4775.96 2683.51 4772.64 2686.05 4769.09 2687.78C4765.45 2689.54 4761.7 2690.54 4757.69 2691.03C4753.45 2691.57 4749.18 2691.38 4744.93 2691.05C4745.34 2691.07 4745.74 2691.11 4746.17 2691.12C4744.64 2691 4743.11 2690.85 4741.59 2690.63C4738.39 2690.22 4735.19 2689.43 4732.23 2688Z"
        fill="#584434"/>
</svg>