<svg
    width="7773"
    height="7615"
    viewBox="0 0 7773 7615"
    fill="none"
    xmlns="http://www.w3.org/2000/svg">
    <path id="ES"
        d="M2412.35 6842.35C2410.11 6840.77 2408.2 6838.84 2406.21 6836.96C2404.83 6835.83 2403.38 6834.8 2401.89 6833.82C2401.95 6833.86 2402 6833.89 2402.06 6833.93C2399.69 6832.35 2397.37 6830.71 2395 6829.12C2391.49 6826.84 2387.83 6824.74 2384.08 6822.85C2379.78 6820.81 2375.33 6819.02 2370.83 6817.44C2368.64 6816.74 2366.43 6816.16 2364.19 6815.64C2360.94 6815.05 2357.65 6814.61 2354.39 6813.97C2348.79 6812.85 2342.57 6810.48 2339.02 6805.79C2336.75 6802.81 2335.64 6798.91 2336.07 6795.16C2336.34 6792.63 2337.22 6790.27 2338.29 6787.98C2340.13 6783.97 2342.5 6780.31 2344.93 6776.67C2344.65 6777.08 2344.39 6777.48 2344.12 6777.89C2346.76 6773.9 2349.59 6769.85 2353.33 6766.82C2355.61 6764.96 2358.34 6763.51 2361.36 6763.64C2363.8 6763.77 2366.06 6764.43 2368.07 6765.94C2368.91 6766.6 2369.59 6767.35 2370.26 6768.16C2370.46 6768.31 2370.66 6768.47 2370.86 6768.62C2371.89 6769.25 2372.96 6769.82 2374.04 6770.37C2380.26 6773.27 2386.67 6775.7 2393.07 6778.14C2397.02 6779.65 2400.92 6781.3 2404.85 6782.88C2407.13 6782.74 2409.41 6782.66 2411.73 6782.88C2416.12 6783.29 2420.44 6784.48 2424.5 6786.21C2429.59 6788.38 2434.17 6791.73 2437.31 6796.32C2438.58 6798.18 2439.72 6800.13 2440.53 6802.24C2440.82 6803.03 2441.12 6803.84 2441.45 6804.63C2442.74 6807.09 2444.1 6809.5 2445.24 6812.06C2446.19 6814.21 2447.02 6816.4 2447.68 6818.64C2448.75 6822.31 2448.8 6826.1 2448.42 6829.87C2447.26 6841.25 2435.49 6848.43 2424.74 6847.07C2424.54 6847.06 2424.32 6847.02 2424.12 6847C2419.83 6846.38 2415.92 6844.85 2412.35 6842.35Z"
        fill="#2D4159"/>
    <path id="ES"
        d="M1872.91 6989.7C1872.09 6984.42 1874.75 6980.1 1877.45 6975.86C1879.03 6973.34 1880.49 6970.77 1881.81 6968.12C1881.77 6968.21 1881.72 6968.29 1881.68 6968.38C1881.77 6968.17 1881.87 6967.99 1881.96 6967.79C1881.96 6967.72 1881.96 6967.62 1881.98 6967.53C1882.14 6963.67 1882.82 6959.96 1884.13 6956.34C1884.07 6956.13 1884.02 6955.93 1883.96 6955.73C1883.41 6954.17 1882.84 6952.64 1882.43 6951.02C1881.74 6948.16 1882.09 6944.87 1883.56 6942.26C1884.9 6939.94 1887.14 6938.18 1889.59 6937.18C1891.75 6936.3 1894.13 6936.01 1896.42 6935.62C1901.66 6934.74 1906.96 6934.04 1912.21 6933.29C1912.73 6933.21 1913.26 6933.12 1913.78 6933.05C1914.03 6932.88 1914.31 6932.73 1914.57 6932.59C1917.6 6930.88 1920.98 6929.17 1924.4 6928.32C1930.14 6926.91 1936.22 6926.91 1942.01 6928.25C1948 6929.66 1953.7 6932.59 1957.84 6937.2C1961.66 6941.43 1964.46 6947.31 1964.4 6953.1C1964.36 6956.65 1962.89 6960.44 1960.32 6962.92C1958.11 6965.05 1955.19 6966.83 1952.03 6967.09C1949.16 6967.33 1946.59 6966.96 1943.85 6966.41C1943.26 6966.32 1942.67 6966.23 1942.08 6966.15C1941.68 6966.13 1941.29 6966.13 1940.89 6966.13C1940.85 6966.13 1940.83 6966.15 1940.8 6966.15C1939.38 6969.04 1937.88 6971.8 1936.11 6974.48C1934.05 6977.57 1931.64 6980.34 1929.13 6983.06C1924 6988.63 1918.13 6993.45 1911.37 6996.91C1905.65 6999.81 1899.22 7001.89 1892.78 7001.94C1891.24 7001.96 1889.59 7001.85 1887.95 7001.61C1881.04 7000.62 1874.03 6997.16 1872.91 6989.7Z"
        fill="#2D4159"/>
    <path id="ES" d="M569.334 7361.04C563.36 7359.38 557.588 7357.03 551.779 7354.84C546.191 7352.73 540.603 7350.58 535.254 7347.89C532.828 7346.7 530.475 7345.37 528.251 7343.81C525.236 7341.7 522.479 7339.29 519.684 7336.88C513.747 7331.73 507.552 7326.94 501.358 7322.12C495.126 7317.27 488.784 7312.4 483.343 7306.64C477.351 7300.28 472.02 7292.82 468.38 7284.84C466.413 7280.54 464.686 7276.13 463.031 7271.68C461.064 7266.33 459.098 7261.06 457.958 7255.45C456.34 7247.47 457.59 7239.4 459.594 7231.63C460.789 7226.94 462.553 7222.45 464.281 7217.91C464.649 7216.83 464.998 7215.74 465.292 7214.66C465.145 7214.48 464.998 7214.27 464.869 7214.09C464.649 7213.87 464.447 7213.65 464.263 7213.43C462.516 7211.87 460.715 7210.36 458.822 7208.94C452.701 7204.77 446.212 7200.93 441.01 7195.62C438.822 7193.35 437.26 7190.39 436.028 7187.55C434.815 7184.59 434.043 7181.52 433.841 7178.32C433.546 7174.16 433.657 7170.06 434.355 7165.95C435.256 7160.58 437.738 7155.32 440.568 7150.71C442.462 7147.62 444.833 7144.73 447.296 7142.09C449.631 7139.57 452.241 7137.33 454.759 7135.03C450.458 7133.02 446.046 7131.39 441.635 7129.66C438.914 7128.63 436.193 7127.57 433.546 7126.39C430.256 7124.9 427.094 7123.25 423.951 7121.52C418.345 7118.45 413.253 7114.2 408.492 7109.97C403.988 7105.97 399.558 7101.81 395.33 7097.49C386.433 7088.45 378.18 7078.8 371.213 7068.15C368.143 7063.5 365.147 7058.76 362.555 7053.84C361.471 7051.79 360.552 7049.64 359.449 7047.6C359.265 7047.51 359.099 7047.46 358.934 7047.36C357.059 7046.76 355.202 7046.24 353.272 7045.8C346.839 7044.42 340.295 7043.61 333.751 7043.05C331.82 7042.92 329.927 7042.79 327.997 7042.81C327.777 7042.82 327.556 7042.86 327.317 7042.88C327.004 7042.95 326.674 7043.05 326.361 7043.14C319.321 7045.62 312.685 7049.15 305.718 7051.85C303.622 7052.64 301.49 7053.41 299.358 7054.15C299.156 7044.86 298.751 7035.56 298.31 7026.28C297.869 7017.09 297.409 7007.86 297.189 6998.67C297.005 6990.55 296.601 6982.31 297.409 6974.2C297.63 6972.49 297.869 6970.79 298.255 6969.06C298.678 6967.68 299.156 6966.32 299.652 6964.99C300.295 6963.47 300.994 6961.98 301.784 6960.51C302.336 6959.61 302.924 6958.73 303.549 6957.9C303.623 6957.81 303.678 6957.73 303.733 6957.66C304.45 6956.8 305.203 6955.95 305.994 6955.12C306.858 6954.33 307.777 6953.58 308.714 6952.86C312.244 6950.4 315.902 6948.14 319.468 6945.73C324.045 6942.59 328.567 6939.33 332.923 6935.91C337.519 6932.33 341.967 6928.54 345.956 6924.3C349.43 6920.6 352.482 6916.48 356.103 6912.92C357.004 6912.16 357.941 6911.45 358.897 6910.77C360.129 6909.92 361.379 6909.11 362.684 6908.38C365.441 6907.02 368.235 6905.8 371.103 6904.7C374.154 6903.62 377.261 6902.74 380.404 6901.94C382.261 6901.54 384.099 6901.21 385.992 6900.95C389.853 6900.69 393.676 6900.86 397.555 6900.92C400.128 6900.95 402.665 6900.66 405.146 6899.9C407.426 6899.24 409.337 6898.1 411.212 6896.74C414.484 6894.33 417.425 6891.12 419.778 6887.83C422.609 6883.91 424.76 6879.67 426.653 6875.24C429.833 6867.81 432.223 6859.83 432.793 6851.78C432.793 6851.82 432.793 6851.85 432.793 6851.89C432.811 6851.78 432.811 6851.69 432.811 6851.58C432.811 6851.56 432.811 6851.54 432.811 6851.52C432.977 6847.81 432.756 6843.78 430.771 6840.57C429.778 6838.93 428.73 6837.5 427.499 6836.03C425.881 6834.12 424.135 6832.3 422.407 6830.51C417.517 6825.44 412.444 6820.53 407.389 6815.6C407.499 6815.72 407.591 6815.81 407.683 6815.9C407.554 6815.77 407.444 6815.66 407.315 6815.53L407.334 6815.55C407.315 6815.53 407.297 6815.51 407.279 6815.49C407.242 6815.46 407.205 6815.42 407.187 6815.38C407.223 6815.42 407.242 6815.46 407.279 6815.49C407.113 6815.33 406.966 6815.18 406.782 6815.02C406.911 6815.13 407.058 6815.26 407.187 6815.38C405.624 6813.82 404.098 6812.22 402.72 6810.49C401.709 6809.13 400.771 6807.7 399.871 6806.25C398.29 6803.4 396.948 6800.42 395.698 6797.42C395.68 6797.37 395.643 6797.3 395.624 6797.24C395.606 6797.22 395.606 6797.19 395.588 6797.17C395.588 6797.15 395.569 6797.13 395.569 6797.11C395.496 6796.93 395.422 6796.74 395.349 6796.56C395.312 6796.49 395.294 6796.43 395.257 6796.36C395.238 6796.32 395.238 6796.3 395.22 6796.27C393.952 6793.11 392.702 6789.89 391.764 6786.6C391.139 6783.66 390.698 6780.68 390.404 6777.68C390.349 6776.06 390.294 6774.47 390.367 6772.87C390.477 6771.89 390.606 6770.92 390.79 6769.94C391.084 6768.75 391.415 6767.61 391.819 6766.45C393.033 6763.16 394.393 6759.89 395.937 6756.75C396.415 6755.9 396.948 6755.05 397.499 6754.25C398.713 6752.57 399.999 6750.99 401.396 6749.48C403.418 6747.39 405.587 6745.48 407.812 6743.62C407.481 6743.88 407.15 6744.14 406.819 6744.39C411.727 6740.44 416.892 6736.8 422.205 6733.44C424.3 6732.21 426.451 6730.97 428.639 6729.89C433.767 6727.33 438.73 6724.61 443.326 6721.18C447.645 6717.94 451.763 6714.49 455.642 6710.75C459.778 6706.78 463.84 6702.63 467.406 6698.12C471.046 6693.53 473.803 6688.27 473.895 6682.28C473.968 6678.25 473.344 6674.36 472.057 6670.55C470.77 6666.78 468.822 6663.48 466.34 6660.39C464.281 6657.81 461.983 6655.37 459.594 6653.07C457.461 6651.03 455.256 6649.08 453.215 6646.97C452.204 6645.77 451.23 6644.56 450.348 6643.31C449.079 6641.42 447.94 6639.49 446.892 6637.48C446.855 6637.39 446.818 6637.32 446.763 6637.23C446.763 6637.21 446.763 6637.21 446.745 6637.19C446.745 6637.21 446.745 6637.21 446.763 6637.23C446.763 6637.23 446.763 6637.24 446.782 6637.26C446.8 6637.32 446.818 6637.35 446.837 6637.41C446.8 6637.35 446.8 6637.32 446.782 6637.26C446.745 6637.21 446.708 6637.15 446.671 6637.1C443.601 6630.66 440.421 6624.14 438.271 6617.34C438.124 6616.73 437.995 6616.14 437.866 6615.53C437.829 6615.13 437.774 6614.69 437.738 6614.27C437.738 6613.48 437.774 6612.7 437.83 6611.9C438.436 6607.15 439.282 6602.5 439.539 6597.7C439.705 6594.98 439.796 6592.23 439.447 6589.52C439.116 6586.99 438.528 6584.54 437.811 6582.08C434.944 6572.08 430.293 6562.89 425.183 6553.9C425.091 6553.73 424.999 6553.57 424.907 6553.4C424.043 6551.77 423.289 6550.08 422.572 6548.35C422.333 6547.65 422.113 6546.97 421.892 6546.27C421.782 6545.72 421.708 6545.17 421.635 6544.6C421.58 6543.55 421.543 6542.48 421.543 6541.44C421.561 6541.27 421.58 6541.07 421.598 6540.89C421.69 6540.72 421.8 6540.55 421.892 6540.37C421.966 6540.3 422.021 6540.24 422.094 6540.15C422.131 6540.15 422.15 6540.15 422.186 6540.13C423.142 6540.15 424.061 6540.22 424.999 6540.33C432.26 6541.22 439.41 6542.61 446.598 6543.83C454.704 6545.19 462.884 6546.12 471.083 6546.8C481.965 6547.71 493.747 6548.37 503.325 6542.15C506.597 6540.02 509.666 6537.56 512.718 6535.11C516.817 6531.84 520.843 6528.55 524.942 6525.28C528.508 6522.41 531.835 6519.38 534.923 6516C538.342 6512.21 541.541 6507.93 543.728 6503.31C545.144 6500.33 546.173 6497.28 547 6494.1C548.177 6489.56 548.36 6485.04 547.405 6480.45C546.835 6477.63 545.511 6474.84 544.151 6472.32C543.269 6470.67 542.331 6469.09 541.394 6467.49C541.43 6467.54 541.467 6467.63 541.504 6467.69C541.339 6467.41 541.173 6467.14 541.008 6466.84C541.136 6467.04 541.265 6467.27 541.394 6467.47C541.247 6467.19 541.081 6466.93 540.916 6466.66C539.408 6464.1 537.864 6461.57 536.357 6458.99C535.659 6457.8 534.978 6456.57 534.409 6455.3C534.261 6454.95 534.133 6454.58 534.004 6454.25C533.967 6454.18 533.967 6454.1 533.949 6454.05C533.894 6453.61 533.857 6453.15 533.839 6452.71C533.857 6452.28 533.894 6451.88 533.912 6451.46C534.004 6450.89 534.096 6450.35 534.206 6449.78C534.464 6448.9 534.758 6448.04 535.052 6447.17C535.567 6446.02 536.118 6444.89 536.706 6443.77C537.625 6442.21 538.6 6440.7 539.629 6439.23C539.997 6438.79 540.364 6438.37 540.787 6437.95C541.081 6437.65 541.394 6437.41 541.669 6437.16C541.872 6437.03 542.074 6436.9 542.276 6436.75C542.699 6436.53 543.103 6436.33 543.508 6436.11C546.081 6435.08 548.746 6434.36 551.246 6433.2C554.224 6431.83 557.129 6430.21 559.831 6428.3C564.316 6425.1 567.404 6420.43 568.856 6415.13C569.739 6411.88 570.235 6408.53 570.492 6405.19C570.989 6399.01 570.952 6392.78 571.264 6386.59C571.577 6380.34 572.036 6374.09 572.643 6367.87C572.625 6368.06 572.588 6368.24 572.57 6368.44C573.103 6363.89 573.691 6359.35 574.573 6354.86C575.419 6350.67 576.338 6346.51 577.33 6342.4C577.239 6342.8 577.128 6343.24 577.018 6343.65C577.239 6342.76 577.459 6341.88 577.68 6341C577.643 6341.15 577.606 6341.28 577.569 6341.42C579.867 6332.1 582.11 6322.82 583.819 6313.37C585.492 6304.05 586.08 6294.55 588.121 6285.32C588.672 6283.28 589.279 6281.29 589.996 6279.31C590.492 6278.22 590.988 6277.14 591.521 6276.07C591.981 6275.28 592.477 6274.53 593.01 6273.76C593.543 6273.1 594.095 6272.45 594.665 6271.83C596.521 6270.06 598.47 6268.41 600.473 6266.81C603.984 6264.14 607.642 6261.75 611.429 6259.51C615.767 6256.99 620.234 6254.66 624.811 6252.64C629.296 6250.82 633.855 6249.27 638.506 6247.91C641.392 6247.1 644.296 6246.35 647.182 6245.54C650.84 6244.51 654.314 6243.34 657.733 6241.66C663.487 6238.87 669.149 6235.87 674.865 6233.01C679.828 6230.49 684.792 6228.01 689.828 6225.65C694.883 6223.3 700.067 6221.2 705.03 6218.67C710.232 6216.02 715.159 6213.04 719.478 6209.05C722.364 6206.39 724.736 6203.02 725.839 6199.2C726.39 6197.33 726.592 6195.36 726.703 6193.41C726.923 6188.91 726.629 6184.4 726.023 6179.92C725.085 6173.26 723.357 6165.87 718.155 6161.22C715.03 6158.48 711.207 6157.29 707.31 6156.13C705.196 6155.49 703.1 6154.92 700.986 6154.26C700.95 6154.24 700.876 6154.24 700.821 6154.22C700.729 6154.18 700.637 6154.16 700.545 6154.13C698.946 6153.58 697.365 6152.99 695.821 6152.33C694.828 6151.83 693.854 6151.32 692.917 6150.71C692.512 6150.43 692.126 6150.16 691.758 6149.86C692.108 6145.07 692.935 6140.34 693.836 6135.64C693.909 6135.25 693.983 6134.83 694.056 6134.44C694.038 6134.59 694.019 6134.74 693.983 6134.86C694.019 6134.72 694.038 6134.59 694.056 6134.44C694.056 6134.4 694.056 6134.39 694.075 6134.37C694.902 6130.08 695.784 6125.8 696.574 6121.52C697.365 6117.22 698.229 6112.86 698.578 6108.47C698.78 6105.86 698.964 6103.27 698.946 6100.64C698.946 6098.12 698.688 6095.25 697.972 6092.86C696.905 6089.35 695.453 6085.99 692.917 6083.27C691.005 6081.22 688.836 6079.59 686.225 6078.5C680.601 6076.13 674.351 6075.32 668.266 6075.2C664.241 6075.1 660.197 6075.32 656.189 6075.55C651.447 6075.78 646.704 6076.1 641.98 6076.41C642.384 6076.37 642.807 6076.35 643.23 6076.32C640.399 6076.48 637.587 6076.65 634.737 6076.57C634.333 6076.54 633.947 6076.48 633.524 6076.43C632.072 6076.06 630.583 6075.66 629.131 6075.21C627.035 6074.46 624.977 6073.62 622.955 6072.68C621.925 6072.16 620.933 6071.65 619.958 6071.1C617.036 6069.02 614.26 6066.65 611.448 6064.39C608.948 6062.37 606.448 6060.32 603.948 6058.3C599.168 6054.37 593.856 6050.82 587.937 6048.87C579.959 6046.23 571.356 6044.9 562.937 6045.58C555.511 6046.15 548.195 6047.44 540.787 6048.32C540.805 6048.32 540.842 6048.32 540.861 6048.32C540.805 6048.32 540.769 6048.34 540.714 6048.34C529.335 6049.57 517.846 6050.14 506.413 6050.67C494.538 6051.23 482.663 6051.89 470.77 6051.81C464.392 6051.65 458.013 6051.12 451.69 6050.27C447.701 6049.63 443.73 6048.73 439.815 6047.68C438.179 6047.16 436.561 6046.59 434.962 6045.99C433.069 6045.1 431.249 6044.15 429.466 6043.12C428.933 6042.77 428.4 6042.4 427.866 6042.03C427.885 6042.02 427.885 6042 427.885 6042C432.627 6031.8 438.436 6022.09 443.05 6011.81C444.521 6008.56 445.918 6005.27 446.873 6001.81C447.645 5999.02 447.94 5996.3 447.94 5993.4C447.921 5991.14 447.112 5988.84 446.23 5986.78C444.043 5981.63 438.657 5978.76 433.473 5977.53C428.197 5976.28 422.793 5975.97 417.407 5975.82C410.146 5975.66 402.848 5975.12 395.588 5975.62C384.963 5976.37 374.54 5978.62 364.191 5981.06C353.64 5983.56 343.052 5985.79 332.335 5987.44C332.685 5987.37 333.034 5987.33 333.401 5987.27C328.604 5987.99 323.788 5988.63 318.953 5989.06C318.622 5989.09 318.31 5989.11 317.979 5989.13C317.997 5988.95 318.034 5988.76 318.052 5988.58C318.144 5986.69 318.163 5984.83 318.126 5982.94C317.777 5977.4 317.023 5971.98 316.398 5966.52C316.122 5964.21 315.957 5961.89 315.865 5959.55C315.736 5956.15 316.435 5953.01 317.648 5949.81C318.512 5947.46 320.24 5945.35 321.913 5943.49C324.321 5940.82 327.391 5938.97 330.534 5937.31C333.291 5935.82 336.416 5934.79 339.431 5933.93C346.563 5931.89 353.897 5930.75 361.03 5928.67C363.695 5927.83 366.342 5926.95 368.915 5925.88C369.982 5925.36 371.011 5924.83 372.04 5924.28C372.224 5924.13 372.426 5924 372.61 5923.88C372.739 5923.75 372.904 5923.6 373.051 5923.47C373.07 5923.42 373.125 5923.36 373.162 5923.31C373.217 5923.21 373.254 5923.12 373.29 5923.07C373.345 5922.88 373.419 5922.7 373.493 5922.51C373.437 5922.68 373.401 5922.85 373.382 5923.01C373.382 5922.99 373.382 5922.99 373.401 5922.97C373.639 5921.93 373.768 5920.9 373.805 5919.81C373.768 5920.25 373.732 5920.7 373.695 5921.14C373.695 5920.6 373.695 5920.07 373.695 5919.54C373.566 5917.81 373.364 5916.08 373.088 5914.37C372.114 5909.35 371.048 5904.43 370.919 5899.26C370.809 5895.57 371.305 5891.87 371.268 5888.16C371.231 5887.88 371.213 5887.63 371.176 5887.35C371.14 5887.17 371.103 5886.98 371.048 5886.78C370.974 5886.54 370.882 5886.32 370.809 5886.08C370.588 5885.71 370.404 5885.35 370.184 5885C369.853 5884.61 369.485 5884.23 369.136 5883.86C368.585 5883.36 368.015 5882.88 367.408 5882.42C365.331 5881.03 363.162 5879.8 360.956 5878.62C357.445 5876.87 353.879 5875.18 350.35 5873.51C345.754 5871.38 341.03 5869.35 338.53 5864.67C333.714 5855.77 340.92 5847.31 346.048 5840.46C347.041 5839.04 347.978 5837.59 348.861 5836.1C349.044 5835.68 349.228 5835.26 349.431 5834.83C349.339 5835.07 349.265 5835.29 349.173 5835.51C349.192 5835.49 349.21 5835.46 349.228 5835.42C349.486 5834.72 349.725 5834.01 349.908 5833.29C350.019 5832.76 350.111 5832.19 350.184 5831.65C350.166 5831.91 350.147 5832.19 350.129 5832.42C350.092 5832.52 350.074 5832.61 350.055 5832.7C350.092 5832.61 350.111 5832.52 350.129 5832.42C350.111 5832.55 350.092 5832.68 350.092 5832.81C350.258 5831.47 350.294 5830.13 350.203 5828.79C350.221 5829.17 350.239 5829.56 350.239 5829.96C350.166 5829.48 350.111 5828.99 350.074 5828.49C349.982 5828.09 349.89 5827.7 349.761 5827.28C349.633 5826.87 349.486 5826.47 349.375 5826.06C349.522 5826.43 349.688 5826.78 349.853 5827.13C349.394 5825.99 348.824 5824.89 348.181 5823.82C347.519 5822.87 346.802 5821.89 346.103 5820.95C344.026 5818.6 341.857 5816.34 339.596 5814.15C337.078 5811.86 334.504 5809.69 331.894 5807.52C330.387 5806.27 328.898 5804.98 327.372 5803.79C325.828 5802.76 324.229 5801.82 322.666 5800.9C319.78 5799.21 317.005 5797.43 314.358 5795.39C310.075 5792.09 307.133 5787.54 304.946 5782.7C304.174 5781.01 303.88 5779.01 303.531 5777.21C303.237 5775.61 302.998 5773.97 303.016 5772.35C303.016 5770.33 303.163 5768.49 303.365 5766.49C303.586 5764.48 304.303 5762.33 304.872 5760.42C306.839 5753.82 310.718 5747.83 313.696 5741.67C316.802 5735.29 319.909 5728.92 324.192 5723.22C326.067 5720.75 328.015 5718.4 330.184 5716.21C331.563 5714.84 332.96 5713.49 334.504 5712.28C336.306 5710.92 338.125 5709.49 340.148 5708.44C342.317 5707.32 344.339 5706.38 346.581 5705.46C349.927 5704.08 353.566 5703.47 357.114 5702.94C359.118 5702.61 361.158 5702.5 363.199 5702.41C367.224 5702.19 371.268 5702.24 375.294 5702.41C383.989 5702.74 392.481 5704.41 400.992 5706.05C407.352 5707.3 413.731 5708.55 420.201 5709.25C422.628 5709.38 425.036 5709.39 427.444 5709.34C432.315 5709.01 437.149 5708.27 442.057 5708.2C447.609 5708.09 453.087 5709.34 458.436 5710.61C469.024 5713.14 479.207 5717.06 489.814 5719.58C490.604 5719.73 491.376 5719.89 492.167 5720.02C491.965 5717.39 491.744 5714.78 491.689 5712.15C491.578 5707.34 492.112 5702.7 493.27 5698.02C493.748 5696.05 494.703 5694.08 495.567 5692.24C496.339 5690.59 497.35 5688.97 498.49 5687.52C501.082 5684.25 503.95 5681.34 507.313 5678.84C510.457 5676.53 513.747 5674.47 517.093 5672.43C522.828 5668.97 528.857 5665.66 535.034 5663.09C542.092 5660.13 549.592 5658.44 557.221 5657.74C564.904 5657.04 572.514 5656.99 580.217 5657.54C588.158 5658.13 596.062 5659.19 603.966 5660.11C610.896 5660.92 617.9 5661.45 624.83 5662.34C631.539 5663.2 637.991 5666.51 642.495 5671.58C645.436 5674.93 648.101 5678.37 650.491 5682.12C655.068 5689.56 658.983 5697.23 662.733 5705.11C666.52 5713.09 670.233 5721.07 674.516 5728.79C675.766 5730.77 677.053 5732.72 678.431 5734.63C682.42 5735.59 686.391 5736.62 690.38 5737.57C699.828 5739.83 709.295 5742.06 718.798 5744.1C731.905 5746.75 745.029 5749.14 758.301 5750.92C771.867 5752.76 785.452 5754.12 799.109 5755.35C819.587 5756.86 840.046 5757.52 860.579 5756.8C876.369 5756.01 892.122 5754.43 907.931 5754.21C911.681 5754.17 915.394 5754.23 919.125 5754.45C927.213 5754.94 934.989 5757.41 941.625 5762.1C949.842 5767.9 955.761 5776.3 962.011 5784.14C965.393 5788.09 968.977 5791.78 972.727 5795.39C975.65 5797.94 978.61 5800.37 981.716 5802.66C988.26 5807.08 995.006 5811.08 1001.99 5814.78C1011.37 5819.43 1020.8 5823.95 1030.1 5828.75C1029.97 5828.68 1029.88 5828.62 1029.75 5828.55C1035.35 5831.45 1040.91 5834.39 1046.49 5837.31C1051.05 5839.59 1055.65 5841.84 1060.26 5843.97C1064.23 5845.73 1068.3 5847.28 1072.36 5848.84C1076.75 5850.33 1081.13 5851.82 1085.59 5853.09C1090.79 5854.56 1096.05 5855.86 1101.33 5857.07C1112.12 5859.23 1123.02 5860.83 1133.92 5862.41C1135.89 5862.7 1137.85 5862.98 1139.84 5863.29C1151.49 5865 1162.91 5867.46 1174.23 5870.66C1184.93 5873.69 1196.01 5875.48 1206.38 5879.7C1211.49 5881.78 1216.42 5884.46 1220.74 5887.92C1224.19 5890.7 1227.04 5894.1 1230.2 5897.17C1232.85 5899.56 1235.63 5901.74 1238.51 5903.82C1240.39 5905.05 1242.32 5906.17 1244.3 5907.22C1247.02 5908.49 1249.74 5909.59 1252.54 5910.62C1256.64 5911.93 1260.75 5913.05 1264.95 5914.04C1269.95 5915.07 1274.95 5915.79 1280 5916.28C1282.32 5916.43 1284.58 5916.47 1286.86 5916.43C1286.75 5916.43 1286.64 5916.45 1286.53 5916.45C1295.48 5915.95 1304.43 5914.87 1313.38 5914.26C1321.75 5913.71 1330.15 5913.91 1338.49 5913.56C1342.04 5913.38 1345.57 5913.03 1349.08 5912.5C1353.57 5911.65 1357.98 5910.44 1362.5 5909.74C1368.93 5908.75 1375.27 5909.7 1381.54 5911.25C1384.83 5912.06 1388.03 5913.27 1391.23 5914.39C1394.72 5915.6 1398.14 5917 1401.47 5918.6C1404.72 5920.16 1407.79 5922.02 1410.66 5924.17C1413.2 5926.06 1415.38 5928.36 1417.65 5930.58C1418.55 5931.37 1419.48 5932.11 1420.46 5932.83C1420.68 5932.97 1420.9 5933.1 1421.14 5933.23C1421.63 5933.45 1422.17 5933.69 1422.68 5933.91C1423.88 5934.28 1425.05 5934.61 1426.28 5934.9C1427.74 5935.16 1429.24 5935.33 1430.71 5935.51C1434.34 5935.68 1437.92 5935.71 1441.56 5935.64C1453.86 5934.94 1466.05 5933.43 1478.34 5932.66C1481.41 5932.46 1484.46 5932.35 1487.53 5932.31C1488.12 5932.85 1488.71 5933.36 1489.32 5933.88C1493.09 5937.26 1496.85 5940.62 1500.62 5944C1507.33 5950.03 1513.93 5956.21 1520.46 5962.42C1520.47 5962.44 1520.49 5962.44 1520.53 5962.48L1520.55 5962.5L1520.57 5962.51C1520.57 5962.5 1520.55 5962.5 1520.55 5962.5C1520.57 5962.51 1520.6 5962.55 1520.62 5962.57C1524.13 5965.97 1527.61 5969.39 1530.97 5972.92C1534.52 5976.59 1538.08 5980.25 1541.3 5984.22C1544.55 5988.62 1547.51 5993.21 1550.25 5997.95C1553.4 6003.56 1556.32 6009.26 1559.39 6014.9C1562.26 6020.2 1565.2 6025.49 1568.1 6030.79C1569.59 6033.54 1571.06 6036.3 1572.68 6038.95C1574.52 6041.98 1576.78 6044.77 1579.15 6047.42C1581.72 6050.23 1584.59 6052.66 1587.79 6054.7C1591.08 6056.81 1594.74 6058.38 1598.32 6059.92C1597.92 6059.75 1597.51 6059.57 1597.11 6059.41C1601.91 6061.48 1606.87 6063.19 1611.69 6065.23C1617.79 6067.97 1623.71 6071.17 1629.55 6074.37C1635.1 6077.4 1640.56 6080.66 1646.02 6083.93C1656.63 6090.34 1667.16 6096.92 1677.24 6104.13C1677.2 6104.11 1677.16 6104.07 1677.13 6104.06C1677.18 6104.11 1677.24 6104.13 1677.29 6104.18C1677.33 6104.22 1677.36 6104.24 1677.4 6104.26C1677.38 6104.24 1677.36 6104.24 1677.36 6104.22C1677.66 6104.44 1677.93 6104.63 1678.23 6104.83C1678.15 6104.77 1678.06 6104.74 1677.99 6104.68C1686.45 6110.82 1694.99 6116.83 1703.45 6122.99C1703.87 6123.32 1704.31 6123.63 1704.75 6123.94C1705.27 6124.33 1705.82 6124.74 1706.35 6125.12C1709.51 6127.53 1712.57 6130.07 1715.76 6132.46C1719.94 6135.56 1724.29 6138.25 1728.98 6140.58C1733.15 6142.66 1737.51 6144.42 1741.89 6146.08C1746.19 6147.71 1750.8 6148.63 1755.3 6149.44C1764.07 6151.04 1773.06 6152.44 1781.99 6151.96C1786.26 6151.74 1790.52 6151.39 1794.77 6150.99C1798.81 6150.62 1802.84 6150.1 1806.88 6149.96C1807.55 6149.99 1808.19 6150.03 1808.85 6150.08C1809.6 6150.21 1810.32 6150.38 1811.09 6150.54C1812.93 6151.08 1814.75 6151.7 1816.55 6152.4C1817.9 6153.03 1819.24 6153.69 1820.54 6154.42C1823.69 6156.39 1826.61 6158.65 1829.6 6160.86C1832.75 6163.17 1835.98 6165.3 1839.46 6167.09C1842.82 6168.8 1846.37 6170.18 1849.97 6171.28C1851.86 6171.87 1853.79 6172.49 1855.74 6172.82C1858.13 6173.23 1860.47 6173.41 1862.88 6173.37C1867.97 6173.26 1872.97 6171.94 1877.67 6170.1C1881.94 6168.43 1886.09 6166.04 1889.62 6163.12C1892.76 6160.51 1895.6 6157.49 1897.91 6154.11C1899.66 6151.61 1901.04 6148.89 1902.54 6146.22C1902.76 6145.91 1902.97 6145.6 1903.19 6145.29C1903.3 6145.16 1903.41 6145.07 1903.52 6144.96C1903.76 6144.77 1903.98 6144.59 1904.22 6144.4C1904.36 6144.29 1904.53 6144.2 1904.68 6144.09C1904.84 6144 1905.03 6143.93 1905.19 6143.85C1905.43 6143.78 1905.67 6143.69 1905.93 6143.61C1906.4 6143.5 1906.88 6143.43 1907.38 6143.34C1907.95 6143.3 1908.52 6143.28 1909.11 6143.26C1910.28 6143.34 1911.44 6143.45 1912.62 6143.61C1914.44 6144.02 1916.24 6144.48 1918 6145.01C1917.99 6145.01 1917.95 6144.99 1917.93 6144.99C1918 6145.01 1918.08 6145.03 1918.15 6145.05C1918.11 6145.05 1918.08 6145.03 1918.06 6145.01C1918.11 6145.03 1918.15 6145.03 1918.21 6145.05C1919.75 6145.54 1921.29 6146.04 1922.82 6146.56C1925.78 6147.53 1928.7 6148.58 1931.62 6149.62C1937.78 6151.81 1943.96 6153.93 1950.08 6156.17C1956.05 6158.34 1961.9 6160.84 1967.63 6163.54C1970.85 6165.16 1973.99 6166.9 1977.08 6168.85C1982.82 6172.8 1988.22 6177.18 1993.85 6181.26C2000.35 6186 2006.97 6190.69 2013.87 6194.88C2017.19 6196.88 2020.67 6198.63 2024.12 6200.36C2027.47 6202.03 2030.85 6203.63 2034.29 6205.16C2040.89 6208.06 2047.54 6210.86 2054.03 6213.98C2060.08 6216.98 2066.07 6220.16 2071.71 6223.8C2073.72 6225.23 2075.68 6226.68 2077.56 6228.28C2078.35 6229.05 2079.12 6229.83 2079.88 6230.62C2081.14 6232.18 2082.36 6233.8 2083.51 6235.45C2084.71 6237.42 2085.83 6239.4 2086.88 6241.46C2088.02 6244.02 2089.05 6246.63 2089.97 6249.29C2090.72 6251.63 2091.46 6254.02 2092.23 6256.35C2093.7 6260.89 2095.39 6265.34 2097.25 6269.73C2099.1 6274.07 2101.01 6278.41 2103.24 6282.58C2105.87 6287.49 2109.29 6291.74 2113.79 6295.03C2118.53 6298.48 2124.12 6300.49 2129.87 6301.31C2130.22 6301.37 2130.59 6301.42 2130.94 6301.46C2135.54 6302.01 2140.19 6302.21 2144.82 6301.97C2150.3 6301.66 2156.01 6300.95 2160.87 6298.21C2168.95 6293.67 2175.42 6286.92 2183.04 6281.74C2183.9 6281.22 2184.74 6280.74 2185.61 6280.27C2186.84 6279.71 2188.07 6279.2 2189.34 6278.72C2191.95 6277.89 2194.56 6277.21 2197.24 6276.64C2199.6 6276.22 2201.97 6275.93 2204.34 6275.71C2206.42 6275.6 2208.49 6275.58 2210.59 6275.65C2214.85 6275.95 2219.08 6276.55 2223.29 6277.34C2228.57 6278.41 2233.79 6279.68 2239.1 6280.58C2244.08 6281.44 2249.14 6281.92 2254.19 6281.79C2262.57 6281.55 2270.81 6279.81 2279.15 6279.09C2281.95 6278.96 2284.72 6279.02 2287.5 6279.16C2294.71 6279.73 2301.86 6280.96 2308.97 6282.18C2309.06 6282.2 2309.15 6282.2 2309.25 6282.23C2309.85 6285.04 2310.13 6287.95 2310.26 6290.84C2310.53 6296.99 2309.82 6303.06 2308.58 6309.09C2307.94 6312.27 2307.44 6315.49 2306.65 6318.63C2305.72 6322.47 2304.15 6326.15 2302.11 6329.55C2296.54 6338.85 2287.04 6344.31 2278.79 6350.89C2278.01 6351.5 2277.28 6352.1 2276.53 6352.73C2275.79 6353.37 2275.07 6354.03 2274.38 6354.71C2274.36 6354.75 2274.3 6354.79 2274.28 6354.8C2274.28 6354.82 2274.26 6354.84 2274.26 6354.88C2274.21 6354.99 2274.17 6355.1 2274.12 6355.21C2273.73 6356.48 2273.35 6357.76 2272.83 6359C2271.31 6362.71 2268.93 6365.91 2266.36 6368.94C2262.37 6373.66 2257.54 6377.73 2252.78 6381.68C2248.36 6385.36 2243.84 6388.92 2239.38 6392.58C2235.3 6395.94 2231.31 6399.4 2226.95 6402.38C2216.8 6409.27 2205.77 6414.56 2194.91 6420.21C2189.36 6423.06 2183.88 6426.09 2178.53 6429.29C2173.27 6432.41 2168.15 6435.76 2162.93 6438.94C2158.48 6441.64 2153.99 6444.18 2149.36 6446.59C2145.04 6448.79 2140.65 6450.94 2136.47 6453.44C2135.28 6454.23 2134.12 6455.06 2133 6455.94C2131.01 6457.71 2129.1 6459.55 2127.3 6461.49C2124.95 6464.2 2122.65 6466.95 2120.5 6469.78C2118.22 6472.72 2116.12 6475.74 2113.59 6478.46C2106.68 6485.96 2095.61 6486.9 2086.09 6488.02C2068.7 6490.04 2051.27 6491.7 2034.01 6494.71C2033.52 6494.8 2033.04 6494.91 2032.54 6495C2032.49 6495.02 2032.43 6495.02 2032.39 6495.04C2032.38 6495.04 2032.36 6495.06 2032.36 6495.06C2032.34 6495.06 2032.32 6495.08 2032.28 6495.08C2023.24 6496.92 2014.2 6498.96 2005.12 6500.57C1995.98 6502.21 1986.73 6503.42 1977.56 6504.82C1967.95 6506.29 1958.32 6507.8 1948.65 6509.08C1939.68 6510.28 1930.71 6511.38 1921.81 6513.04C1916.17 6514.18 1910.61 6515.63 1905.14 6517.37C1899.64 6519.21 1894.22 6521.31 1888.9 6523.7C1884.44 6525.87 1880.14 6528.29 1875.95 6530.96C1871.94 6533.66 1868.13 6536.62 1864.42 6539.73C1862.05 6541.82 1859.7 6543.97 1857.49 6546.25C1857.86 6547.21 1858.21 6548.15 1858.61 6549.07C1858.92 6549.67 1859.27 6550.22 1859.62 6550.81C1860.12 6551.51 1860.61 6552.17 1861.17 6552.83C1862.49 6554.32 1863.92 6555.72 1865.38 6557.06C1866.52 6558.07 1867.64 6559.07 1868.67 6560.17C1871.13 6562.78 1871.9 6566.22 1871.64 6569.71C1871.52 6571.47 1871.04 6573.15 1870.41 6574.8C1870.03 6575.9 1869.44 6576.88 1869 6577.96C1869 6578.02 1868.98 6578.07 1868.96 6578.15C1868.76 6581.34 1868.65 6584.56 1867.51 6587.59C1865.19 6593.84 1861 6599.17 1856.41 6603.9C1851.85 6608.6 1846.17 6611.95 1840.3 6614.67C1834.9 6617.21 1829.22 6618.99 1823.8 6621.51C1819.59 6623.62 1815.52 6625.98 1811.55 6628.48C1803.34 6633.88 1795.84 6640.2 1788.1 6646.27C1780.69 6652.04 1773.13 6657.54 1765.91 6663.48C1758.3 6670 1751.26 6677 1744.48 6684.38C1736.37 6693.47 1729.15 6703.27 1721.76 6712.94C1714.37 6722.59 1706.85 6732.1 1699.42 6741.73C1691.76 6751.65 1684.09 6761.86 1674.96 6770.5C1670.36 6774.81 1665.6 6779.06 1660.53 6782.83C1655.18 6786.82 1649.61 6790.44 1643.96 6793.99C1639.74 6796.65 1635.51 6799.26 1631.3 6801.97C1626.87 6804.91 1622.53 6807.94 1618.41 6811.3C1616.74 6812.74 1615.1 6814.21 1613.54 6815.77C1613.16 6816.23 1612.75 6816.67 1612.37 6817.15C1612.31 6817.22 1612.29 6817.3 1612.24 6817.37C1612.2 6817.44 1612.15 6817.53 1612.13 6817.61C1612.33 6818.09 1612.55 6818.55 1612.77 6819.02C1614.53 6822.61 1616.35 6826.16 1617.77 6829.91C1619.46 6834.43 1620.56 6839.15 1621.41 6843.93C1622.95 6852.74 1624.15 6861.58 1625.77 6870.38C1626.56 6874.28 1627.48 6878.14 1628.67 6881.96C1629.13 6883.14 1629.63 6884.32 1630.16 6885.46C1631.23 6887.48 1632.38 6889.43 1633.63 6891.34C1636.56 6895.82 1639.46 6900.22 1641.56 6905.16C1643.56 6909.96 1644.13 6915.2 1644.99 6920.31C1645.16 6921.12 1645.38 6921.93 1645.6 6922.72C1645.67 6922.92 1645.75 6923.14 1645.84 6923.36C1645.97 6923.6 1646.1 6923.82 1646.24 6924.04C1646.45 6924.33 1646.68 6924.61 1646.89 6924.87C1647.09 6925.09 1647.31 6925.31 1647.49 6925.53C1648.73 6926.56 1649.99 6927.51 1651.3 6928.45C1652.95 6929.5 1654.64 6930.46 1656.39 6931.39C1662.14 6934.19 1668.47 6936.3 1673.5 6940.36C1676.15 6942.48 1678.47 6945 1680.82 6947.4C1683.27 6949.88 1685.8 6952.27 1688.38 6954.63C1688.08 6954.35 1687.77 6954.08 1687.46 6953.8C1690.88 6956.89 1694.22 6959.92 1696.72 6963.86C1698.08 6966.01 1699.13 6968.4 1699.63 6970.91C1700.12 6973.4 1700.32 6976.15 1699.68 6978.63C1698.78 6982.09 1697.07 6985.33 1694.55 6987.9C1691.22 6991.34 1687.55 6994.04 1683.3 6996.28C1680.01 6998.03 1676.5 6999.26 1672.99 7000.44C1669.33 7001.65 1665.6 7002.57 1661.91 7003.58C1658.49 7004.52 1655.16 7005.56 1651.81 7006.69C1643.93 7009.46 1636.24 7012.62 1628.65 7016.15C1617.03 7021.78 1605.78 7028.12 1594.15 7033.65C1582.7 7039.09 1570.69 7043.34 1559.26 7048.78C1559.24 7048.78 1559.24 7048.8 1559.22 7048.8C1559.22 7048.8 1559.22 7048.8 1559.24 7048.8C1559.22 7048.8 1559.21 7048.82 1559.21 7048.82C1559.11 7048.84 1559.04 7048.91 1558.93 7048.93L1558.91 7048.95C1558.64 7049.07 1558.36 7049.2 1558.08 7049.35C1555.09 7050.82 1552.18 7052.49 1549.33 7054.24C1547.46 7055.54 1545.66 7056.87 1543.84 7058.27C1541.08 7060.69 1538.49 7063.21 1535.95 7065.88C1534.74 7067.27 1533.58 7068.67 1532.46 7070.14C1532.17 7070.64 1531.87 7071.13 1531.6 7071.63C1531.21 7072.46 1530.82 7073.28 1530.51 7074.13C1530.29 7074.94 1530.07 7075.73 1529.87 7076.56C1529.57 7078.3 1529.33 7080.01 1529.15 7081.78C1528.99 7089.92 1529.32 7098.08 1529.04 7106.22C1528.75 7114.28 1527.59 7122.18 1525.81 7130.01C1524.92 7133.93 1523.43 7137.71 1521.94 7141.44C1520.46 7145.16 1518.73 7148.8 1516.93 7152.36C1513.32 7159.55 1509.35 7166.54 1505.66 7173.67C1505.77 7173.45 1505.88 7173.24 1505.99 7173.01C1505.86 7173.28 1505.71 7173.54 1505.58 7173.81C1505.53 7173.91 1505.49 7174 1505.46 7174.07C1505.51 7173.98 1505.55 7173.89 1505.58 7173.81C1503.65 7177.71 1501.89 7181.66 1500.18 7185.63C1498.45 7189.57 1496.49 7193.24 1493.64 7196.48C1489.39 7201.26 1483.84 7204.38 1478.05 7206.9C1472.5 7209.35 1466.3 7210.8 1460.33 7211.72C1454.52 7212.6 1448.8 7213.06 1442.92 7213.04C1437.72 7213 1432.53 7212.34 1427.35 7212.27C1421.25 7212.2 1415.16 7212.66 1409.06 7213.01C1402.98 7213.35 1396.91 7213.17 1390.83 7212.51C1387.9 7212.2 1384.98 7211.85 1382.04 7211.57C1377.26 7211.28 1372.52 7211.28 1367.7 7211.46C1361.98 7211.88 1356.34 7212.56 1350.68 7213.57C1346.07 7214.62 1341.56 7215.89 1337.04 7217.36C1336.95 7217.38 1336.86 7217.44 1336.76 7217.45C1327.15 7221 1317.76 7225.01 1308.47 7229.31C1301.16 7232.88 1293.93 7236.68 1287.04 7241.04C1285.99 7241.75 1284.96 7242.49 1283.99 7243.26C1282.7 7244.38 1281.45 7245.52 1280.26 7246.75C1279.76 7247.32 1279.3 7247.89 1278.86 7248.46C1278.6 7248.87 1278.36 7249.27 1278.14 7249.7C1278.13 7249.73 1278.13 7249.75 1278.09 7249.79C1277.98 7250.19 1277.85 7250.6 1277.76 7251C1277.04 7255.39 1276.82 7259.86 1276.01 7264.22C1274.76 7270.91 1271.31 7277.21 1267.5 7282.76C1263.88 7288.02 1259.96 7293.02 1255.81 7297.86C1251.97 7302.32 1247.91 7306.59 1243.9 7310.91C1241.8 7313.3 1239.85 7315.8 1238.02 7318.39C1235.15 7322.69 1232.45 7327.23 1228.97 7331.09C1224.56 7335.96 1219.14 7339.93 1212.76 7341.73C1209.34 7342.69 1205.57 7343.02 1202.08 7342.43C1198.51 7341.84 1195.04 7340.3 1192.06 7338.3C1187.87 7335.52 1184.36 7331.99 1180.7 7328.59C1179.84 7327.87 1178.95 7327.16 1178 7326.48C1177.96 7326.44 1177.91 7326.4 1177.89 7326.39C1177.82 7326.33 1177.76 7326.29 1177.71 7326.24C1174.05 7323.79 1170.35 7321.42 1166.73 7318.92C1163.28 7316.57 1159.86 7314.14 1156.18 7312.18C1155.79 7311.97 1155.39 7311.81 1155 7311.61C1154.14 7311.35 1153.28 7311.13 1152.39 7310.93C1151.75 7310.82 1151.11 7310.72 1150.48 7310.65C1149.54 7310.61 1148.62 7310.61 1147.69 7310.63C1147.67 7310.63 1147.67 7310.63 1147.65 7310.63C1147.17 7310.76 1146.69 7310.87 1146.22 7311C1145.94 7311.13 1145.63 7311.26 1145.32 7311.39C1144.62 7311.77 1143.97 7312.14 1143.29 7312.53C1142.69 7312.95 1142.12 7313.39 1141.53 7313.85C1140.79 7314.53 1140.08 7315.21 1139.38 7315.91C1137.41 7318.21 1135.61 7320.61 1133.59 7322.82C1131.22 7325.39 1128.4 7327.38 1125.37 7329.14C1119.32 7332.69 1112.61 7335.15 1105.89 7337.07C1103 7337.89 1100.02 7338.59 1097.06 7339.05C1094.8 7339.42 1092.56 7339.44 1090.39 7339.12C1087.41 7338.68 1084.6 7337.56 1082.08 7335.54C1079.75 7333.66 1078.06 7330.96 1076.59 7328.35C1075.41 7326.29 1074.43 7324.12 1073.44 7321.97C1071.68 7318.11 1070.24 7314.18 1069.07 7310.14C1065.37 7310.03 1061.66 7309.86 1057.98 7309.71C1040.74 7308.96 1023.59 7307.69 1006.48 7305.74C996.385 7304.57 986.348 7302.91 976.349 7301.24C969.768 7300.14 963.169 7299.03 956.588 7298.1C939.713 7295.69 922.747 7293.96 905.798 7292.18C900.56 7291.64 895.339 7291.11 890.1 7290.61C877.564 7289.55 864.99 7288.89 852.454 7287.93C839.182 7286.92 825.965 7285.45 812.712 7284.27C813.282 7284.31 813.852 7284.36 814.422 7284.4C808.227 7283.89 802.032 7283.32 795.837 7282.76C795.856 7282.76 795.856 7282.76 795.874 7282.76C795.837 7282.76 795.819 7282.75 795.782 7282.75C795.249 7282.71 794.716 7282.67 794.183 7282.6C794.238 7282.6 794.312 7282.62 794.385 7282.64C791.977 7282.42 789.551 7282.19 787.143 7282.08C786.922 7283.35 786.72 7284.66 786.518 7285.93C785.929 7289.42 784.955 7292.69 783.117 7295.76C780.286 7300.48 775.305 7302.86 770.25 7304.46C765.599 7305.94 760.911 7306.81 756.04 7307.18C750.489 7307.64 744.864 7307.54 739.313 7307.43C734.092 7307.34 728.872 7307.01 723.67 7306.59C718.688 7306.17 713.743 7305.65 708.799 7304.95C706.905 7304.68 704.994 7304.38 703.1 7304.07C700.343 7303.63 697.53 7303.21 694.755 7302.86C692.769 7302.71 690.821 7302.67 688.854 7302.65C687.053 7302.78 685.288 7302.97 683.505 7303.22C681.648 7303.63 679.847 7304.09 678.027 7304.58C674.939 7305.61 671.943 7306.85 668.983 7308.19C656.649 7313.92 644.811 7320.8 633.248 7327.97C629.425 7330.39 625.859 7333.06 622.219 7335.74C618.616 7338.39 614.958 7340.89 611.466 7343.65C608.837 7345.87 606.374 7348.3 603.801 7350.59C601.007 7353.13 598.084 7355.56 595.032 7357.78C592.202 7359.9 589.058 7361.75 585.529 7362.4C582.661 7362.91 579.738 7362.82 576.834 7362.4C574.077 7362.27 571.65 7361.68 569.334 7361.04Z"
        fill="#2D4159"/>
    <path
        id="ES"
        d="M2273.09 6825.59C2263.92 6820.7 2253.64 6818.89 2243.46 6817.11C2243.59 6816.93 2243.6 6816.8 2243.68 6816.65C2244.3 6815.42 2244.96 6814.19 2245.46 6812.88C2246.55 6809.85 2246.93 6806.89 2246.67 6803.66C2246.31 6799.08 2243.26 6794.74 2239.96 6791.69C2237.83 6789.7 2235.3 6787.96 2232.69 6786.6C2228.29 6784.34 2223.83 6782.59 2219.08 6781.36C2210.74 6779.21 2201.79 6778.2 2193.18 6778.01C2187.85 6777.87 2182.61 6778.58 2177.58 6780.35C2172.91 6781.98 2168.51 6784.83 2164.75 6788.03C2161.44 6790.84 2158.68 6794.13 2155.81 6797.35C2155 6798.16 2154.23 6799.04 2153.42 6799.85C2146.9 6801.41 2140.46 6803.27 2134.21 6805.66C2125.81 6808.86 2118.4 6813.78 2111.11 6818.91C2104.27 6823.67 2097.43 6828.62 2091.03 6834.04C2087.43 6837.11 2084.01 6840.29 2080.98 6843.93C2078.24 6847.22 2075.24 6850.82 2074.14 6855.03C2072.91 6859.83 2074.49 6865.13 2078.18 6868.42C2081.66 6871.49 2086.05 6872.86 2090.59 6873.38C2095.19 6873.91 2099.78 6874.08 2104.4 6874.17C2112.98 6874.3 2121.58 6873.43 2130.19 6872.83C2131.18 6872.83 2132.12 6872.77 2133.09 6872.81C2133.42 6872.9 2133.75 6873.05 2134.01 6873.19C2135.17 6873.75 2136.2 6874.35 2137.3 6874.96C2137.47 6875.12 2137.71 6875.27 2137.87 6875.44C2138.09 6875.62 2138.31 6875.8 2138.48 6876.01C2138.97 6876.67 2139.47 6877.29 2139.97 6877.96C2141.31 6880.16 2142.61 6882.42 2143.81 6884.72C2144.21 6885.66 2144.6 6886.65 2145 6887.61C2145.57 6889.76 2146.05 6891.89 2146.73 6894C2147.94 6897.83 2149.47 6901.48 2151.9 6904.76C2153.66 6907.18 2155.61 6909.63 2157.82 6911.69C2161.95 6915.68 2166.82 6918.76 2171.95 6921.34C2176.23 6923.4 2180.66 6925.33 2185.33 6926.39C2187.43 6926.89 2189.52 6927.31 2191.69 6927.62C2194.49 6928.03 2197.35 6928.3 2200.24 6928.47C2204.97 6928.76 2209.65 6928.76 2214.3 6928.18C2218.51 6927.66 2222.54 6925.73 2226.1 6923.56C2228.16 6922.29 2230.22 6920.97 2232.08 6919.37C2236.89 6915.34 2241.82 6910.66 2244.3 6904.81C2246.25 6900.22 2247.23 6895.35 2248.18 6890.47C2248.73 6887.75 2249.32 6885.03 2250.17 6882.35C2250.35 6881.78 2250.57 6881.28 2250.79 6880.77C2250.99 6880.46 2251.12 6880.18 2251.32 6879.87C2252.3 6878.58 2253.27 6877.29 2254.34 6876.03C2256.16 6874.02 2258.02 6872.07 2260 6870.25C2260.85 6869.54 2261.77 6868.89 2262.7 6868.23C2264.06 6867.4 2265.41 6866.65 2266.84 6865.93C2269.69 6864.68 2272.59 6863.58 2275.39 6862.06C2279.82 6859.65 2283.59 6856.12 2285.09 6851.17C2288.11 6841.32 2281.67 6830.2 2273.09 6825.59ZM2214.51 6812.59C2214.71 6811.93 2214.89 6811.27 2215 6810.6C2215.09 6810.62 2215.19 6810.68 2215.33 6810.7C2215.02 6811.34 2214.74 6811.93 2214.51 6812.59Z"
        fill="#2D4159"/>
</svg>