<svg
    width="7773"
    height="7615"
    viewBox="0 0 7773 7615"
    fill="none"
    xmlns="http://www.w3.org/2000/svg">
    <path
        id="FI"
        d="M4776.39 2463.78C4775.21 2463.52 4774.07 2463.15 4772.97 2462.67C4771.85 2462.1 4770.69 2461.5 4769.57 2460.89C4766.83 2459.42 4764.4 2456.79 4762.65 2454.25C4760.8 2451.53 4759.75 2448.57 4758.76 2445.45C4757.86 2442.67 4757.99 2439.42 4758.22 2436.57C4758.5 2433.23 4759.38 2430.08 4760.52 2426.94C4762.8 2420.8 4765.6 2414.99 4768.61 2409.16C4768.61 2409.16 4768.63 2409.15 4768.63 2409.13C4766.88 2407.84 4765.12 2406.59 4763.48 2405.14C4759.29 2401.37 4755.56 2397.2 4752.77 2392.25C4752.75 2392.23 4752.75 2392.22 4752.75 2392.16C4752.82 2393.32 4752.93 2394.48 4753 2395.62C4753.32 2399.79 4753.48 2403.94 4753.17 2408.12C4752.45 2415.39 4750.36 2423.01 4745.36 2428.54C4742.56 2431.63 4739.42 2434.11 4735.54 2435.69C4731.06 2437.51 4725.85 2437.4 4721.26 2436C4706.53 2431.5 4698.15 2416.63 4695.21 2402.33C4693.87 2394.88 4693.67 2387.36 4693.96 2379.84C4694.24 2372.86 4695.01 2365.86 4694.86 2358.85C4694.83 2358.5 4694.79 2358.15 4694.75 2357.79C4694.7 2357.75 4694.64 2357.71 4694.6 2357.68C4693.45 2356.68 4692.21 2355.76 4690.96 2354.88C4688.06 2352.93 4685.05 2351.15 4682.14 2349.2C4678.8 2346.94 4675.8 2344.31 4672.84 2341.61C4671.3 2340.21 4669.72 2338.91 4668.06 2337.68C4667.8 2337.51 4667.53 2337.34 4667.27 2337.2C4666.66 2336.92 4666.04 2336.65 4665.43 2336.41C4665.03 2336.3 4664.62 2336.17 4664.22 2336.06C4663.34 2335.89 4662.44 2335.76 4661.54 2335.65C4660.32 2335.6 4659.15 2335.6 4657.95 2335.6C4655.45 2335.82 4653.01 2336.15 4650.54 2336.57C4645.4 2337.69 4640.32 2339.05 4635.21 2340.41C4629.75 2341.89 4624.07 2343.61 4618.32 2343.37C4612.44 2343.14 4607 2341.17 4601.57 2338.96C4596.33 2336.81 4591.35 2333.96 4586.37 2331.24C4581.85 2328.78 4577.86 2325.6 4573.98 2322.23C4569.85 2318.65 4565.65 2315.14 4561.68 2311.39C4554.88 2304.99 4548.27 2298.17 4544.52 2289.51C4541.3 2282.09 4542.49 2273.56 4544.64 2266.06C4545.84 2261.83 4547.64 2257.75 4549.5 2253.8C4552.73 2246.87 4556.41 2240.16 4559.97 2233.39C4563.47 2226.52 4566.83 2219.61 4569.55 2212.4C4571.78 2206.01 4573.61 2199.48 4575.16 2192.86C4576.04 2188.56 4576.74 2184.24 4577.16 2179.88C4577.35 2174.92 4577.27 2169.92 4577.01 2164.96C4577.03 2165.14 4577.03 2165.34 4577.03 2165.53C4577 2164.83 4576.98 2164.11 4576.92 2163.41V2163.43C4576.92 2163.41 4576.92 2163.38 4576.92 2163.34V2163.32C4576.9 2163.16 4576.9 2162.99 4576.89 2162.84C4576.87 2162.73 4576.87 2162.62 4576.89 2162.53C4576.89 2162.55 4576.89 2162.57 4576.87 2162.59C4576.87 2162.57 4576.87 2162.55 4576.87 2162.5C4576.87 2162.48 4576.87 2162.46 4576.87 2162.44C4576.87 2162.42 4576.87 2162.4 4576.85 2162.4C4576.85 2162.2 4576.83 2162.04 4576.81 2161.83C4576.81 2161.85 4576.81 2161.85 4576.81 2161.87C4576.54 2158.27 4576.13 2154.68 4575.53 2151.14C4575.16 2149.35 4574.74 2147.62 4574.22 2145.9C4573.78 2144.7 4573.26 2143.54 4572.75 2142.39C4571.79 2140.57 4570.78 2138.8 4569.68 2137.07C4568.1 2134.89 4566.43 2132.75 4564.68 2130.68C4561.02 2126.48 4557.25 2122.39 4553.74 2118.05C4550.2 2113.69 4547.36 2108.82 4544.77 2103.86C4541.96 2098.51 4539.81 2092.86 4538.41 2086.98C4537.29 2082.24 4536.43 2077.48 4535.05 2072.83C4534.35 2070.82 4533.61 2068.8 4532.75 2066.85C4531.63 2064.78 4530.43 2062.75 4529.17 2060.77C4526.61 2056.93 4523.95 2053.2 4521.02 2049.63C4517.37 2045.6 4513.41 2041.82 4509.61 2037.92C4505.58 2033.82 4501.76 2029.56 4497.94 2025.29C4494.28 2021.19 4490.64 2017.04 4487.13 2012.77C4483.6 2008.51 4480.29 2003.97 4477.84 1998.99C4472.44 1987.99 4470.51 1975.62 4470.38 1963.49C4470.31 1957.37 4471.48 1951.3 4473.38 1945.51C4475.12 1940.11 4477.73 1934.98 4480.16 1929.85C4481.1 1927.92 4481.91 1925.99 4482.72 1924.01C4483.29 1922.24 4483.78 1920.5 4484.22 1918.69C4484.44 1917.32 4484.66 1915.94 4484.87 1914.54C4484.94 1913.4 4484.98 1912.28 4484.99 1911.14C4484.88 1909.98 4484.76 1908.84 4484.55 1907.68C4484.48 1907.32 4484.37 1906.95 4484.28 1906.56C4484.11 1906.16 4483.95 1905.72 4483.74 1905.31C4483.29 1904.43 4482.79 1903.53 4482.27 1902.68C4481.91 1902.17 4481.54 1901.65 4481.15 1901.18C4477.79 1897.3 4474.19 1893.68 4470.66 1889.89C4466.63 1885.55 4462.99 1880.99 4460.03 1875.88C4456.89 1870.48 4455.34 1864.19 4454.5 1858.07C4454.04 1854.76 4453.95 1851.2 4454.09 1847.85C4454.39 1841.82 4454.98 1835.79 4455.82 1829.82C4456.5 1825 4457.44 1820.2 4458.21 1815.41C4459.06 1810.24 4459.81 1805.04 4460.44 1799.86C4461.7 1789.38 4462.05 1778.66 4464.37 1768.33C4466.23 1760.02 4469.15 1750.92 4475.45 1744.87C4480.42 1740.13 4487.73 1738.64 4494.39 1738.46C4498.52 1738.33 4502.46 1739.14 4506.45 1740.02C4507.46 1740.21 4508.49 1740.35 4509.52 1740.48C4509.9 1740.5 4510.31 1740.5 4510.69 1740.5C4511.5 1740.43 4512.33 1740.33 4513.16 1740.21C4514.06 1739.99 4514.94 1739.73 4515.82 1739.47C4517.24 1738.97 4518.62 1738.39 4519.98 1737.78C4523.05 1736.24 4526 1734.53 4528.87 1732.69C4531.46 1730.98 4534.06 1729.25 4536.78 1727.71C4538.43 1726.77 4540.14 1725.96 4541.9 1725.24C4542.33 1724.75 4542.7 1724.25 4543.1 1723.75C4544.94 1721.18 4546.61 1718.53 4548.21 1715.83C4550.6 1711.51 4552.71 1707.1 4554.68 1702.58C4556.3 1698.39 4557.68 1694.16 4558.93 1689.84C4561.7 1679.09 4564.13 1668.3 4567.42 1657.69C4569.09 1652.25 4571.11 1646.88 4572.97 1641.49C4574.55 1636.9 4575.95 1632.29 4577.24 1627.58C4577.18 1627.84 4577.11 1628.08 4577.05 1628.35C4577.13 1628.08 4577.2 1627.78 4577.27 1627.51C4577.36 1627.21 4577.44 1626.94 4577.51 1626.64C4577.44 1626.9 4577.36 1627.17 4577.29 1627.43C4578.12 1624.29 4578.94 1621.13 4580.12 1618.08C4581.7 1613.98 4583.96 1610.02 4586.76 1606.64C4591.74 1600.63 4597.88 1595.94 4604.02 1591.16C4603.56 1591.51 4603.12 1591.86 4602.66 1592.21C4603.74 1591.37 4604.84 1590.52 4605.93 1589.68C4605.47 1590.02 4605.03 1590.37 4604.57 1590.72C4610.08 1586.39 4615.47 1581.95 4620.56 1577.12C4623.37 1574.2 4625.97 1571.18 4628.5 1568.02C4631.11 1564.42 4633.52 1560.76 4635.8 1556.92C4637.47 1553.76 4639.02 1550.56 4640.43 1547.29C4641.94 1543.26 4643.28 1539.22 4644.46 1535.12C4646.57 1527.05 4648.32 1518.89 4651.09 1511.02C4653.7 1503.5 4656.7 1496.11 4658.94 1488.46C4660.1 1483.98 4660.98 1479.48 4661.99 1474.97C4663.17 1469.66 4664.57 1464.42 4666.26 1459.27C4667.88 1454.31 4669.81 1449.49 4671.76 1444.66C4673.78 1439.68 4675.71 1434.66 4677.73 1429.7C4679.77 1424.62 4682.03 1419.59 4684.86 1414.9C4687.86 1409.92 4691.15 1405.18 4694.59 1400.47C4697.27 1396.81 4700.01 1393.14 4703.19 1389.88C4704.95 1388.1 4706.87 1386.52 4708.65 1384.81C4708.76 1383.69 4708.81 1382.58 4708.83 1381.46C4708.81 1380.51 4708.76 1379.55 4708.65 1378.59C4708.32 1376.66 4707.86 1374.79 4707.38 1372.9C4706.88 1371.19 4706.31 1369.51 4705.65 1367.88C4705.36 1367.27 4705.06 1366.68 4704.75 1366.08C4704.4 1365.54 4704.09 1365.03 4703.7 1364.51C4700.67 1360.82 4697.23 1357.47 4696.83 1352.36C4696.5 1348.23 4698.46 1344.59 4699.64 1340.75C4699.92 1339.72 4700.1 1338.65 4700.27 1337.62C4700.47 1335.71 4700.63 1333.82 4700.65 1331.89C4700.63 1330.71 4700.56 1329.55 4700.45 1328.39C4700.17 1325.03 4700.63 1321.98 4702.4 1319.07C4705.25 1314.37 4711.64 1313.67 4716.44 1315.23C4720.84 1316.7 4724.84 1319.11 4728.68 1321.65C4734.14 1325.23 4739.18 1329.94 4742.89 1335.32C4744.35 1337.44 4745.5 1339.68 4746.44 1342.05C4747.07 1343.67 4747.54 1345.31 4748.15 1346.9C4748.17 1346.94 4748.21 1347 4748.21 1347.01C4748.3 1347.09 4748.37 1347.14 4748.46 1347.18C4748.52 1347.2 4748.57 1347.24 4748.65 1347.25C4748.81 1347.33 4749 1347.36 4749.16 1347.44C4749.42 1347.49 4749.7 1347.55 4749.97 1347.6C4750.43 1347.66 4750.87 1347.68 4751.33 1347.69C4751.88 1347.68 4752.43 1347.62 4753 1347.57C4753.41 1347.49 4753.81 1347.4 4754.22 1347.29C4754.49 1347.2 4754.79 1347.11 4755.06 1347.01C4755.3 1346.9 4755.52 1346.79 4755.74 1346.68C4756.11 1346.44 4756.46 1346.19 4756.83 1345.95C4756.85 1345.91 4756.9 1345.86 4756.94 1345.82C4756.96 1345.8 4756.97 1345.76 4756.99 1345.75C4757.21 1345.42 4757.43 1345.1 4757.64 1344.77C4757.89 1344.26 4758.15 1343.72 4758.41 1343.17C4759.07 1341.35 4759.68 1339.51 4760.21 1337.62C4760.49 1336.48 4760.76 1335.36 4760.95 1334.17C4761 1333.45 4761.04 1332.71 4761.09 1331.98C4760.98 1330.08 4760.76 1328.21 4760.49 1326.33C4760.56 1326.79 4760.61 1327.24 4760.69 1327.7C4759.86 1322 4758.87 1316.32 4758.24 1310.6C4757.99 1308.19 4757.95 1305.77 4757.84 1303.38C4757.69 1303.34 4757.54 1303.3 4757.38 1303.23C4754.31 1302.42 4751.63 1301.43 4749.14 1299.33C4746.17 1296.8 4744.36 1292.81 4743.45 1289.11C4742.54 1285.47 4742.36 1281.69 4741.92 1277.95C4741.68 1276.41 4741.39 1274.83 4741 1273.3C4740.71 1272.4 4740.39 1271.5 4740.06 1270.6C4739.09 1267.92 4738.52 1265.16 4738.06 1262.35C4736.83 1254.5 4736.35 1246.58 4735.38 1238.71C4734.79 1234.87 4733.98 1231.08 4733.02 1227.31C4732.6 1225.95 4732.16 1224.65 4731.64 1223.34C4731.44 1222.9 4731.22 1222.5 4731.02 1222.05C4731.15 1222.26 4731.24 1222.46 4731.37 1222.64C4731.46 1222.79 4731.55 1222.95 4731.64 1223.1C4731.11 1222.13 4730.52 1221.19 4729.86 1220.31C4729.09 1219.37 4728.28 1218.51 4727.43 1217.62C4725.63 1215.99 4723.76 1214.44 4721.85 1212.95C4717.31 1209.61 4712.67 1206.36 4708.13 1203.03C4703.83 1199.87 4699.62 1196.63 4695.08 1193.8C4693.63 1193.01 4692.18 1192.28 4690.65 1191.59C4689 1190.95 4687.32 1190.4 4685.63 1189.89C4684.29 1189.61 4682.97 1189.33 4681.61 1189.11C4679.55 1188.89 4677.51 1188.76 4675.43 1188.71C4672.71 1188.76 4670.05 1188.97 4667.34 1189.3C4656.5 1191.17 4645.89 1194.22 4634.99 1195.69C4635.05 1195.69 4635.12 1195.68 4635.18 1195.66C4634.38 1195.77 4633.59 1195.86 4632.8 1195.93C4632.49 1194.79 4632.16 1193.65 4631.83 1192.53C4631.85 1192.57 4631.85 1192.61 4631.87 1192.64C4631.87 1192.61 4631.85 1192.59 4631.85 1192.55C4631.87 1192.59 4631.87 1192.62 4631.89 1192.66C4631.89 1192.68 4631.9 1192.7 4631.9 1192.7C4631.89 1192.68 4631.89 1192.68 4631.89 1192.66C4632.01 1193.03 4632.11 1193.4 4632.2 1193.76C4632.12 1193.45 4632.03 1193.14 4631.96 1192.84C4631.94 1192.79 4631.9 1192.75 4631.9 1192.7C4631.9 1192.68 4631.92 1192.66 4631.9 1192.64C4631.9 1192.61 4631.89 1192.55 4631.87 1192.51C4631.83 1192.39 4631.79 1192.26 4631.76 1192.11C4628.23 1179.81 4624.57 1167.57 4621.43 1155.16C4620.03 1149.59 4618.74 1144 4617.25 1138.45C4615.67 1132.59 4613.69 1126.72 4610.56 1121.49C4607.03 1115.59 4602.4 1110.64 4597.66 1105.7C4593.61 1101.45 4589.61 1097.13 4585.69 1092.75C4582.13 1088.75 4578.47 1084.85 4574.57 1081.19C4570.21 1077.06 4565.51 1073.29 4561.1 1069.21C4560.21 1068.36 4559.37 1067.5 4558.56 1066.56C4558.38 1066.28 4558.16 1066.01 4557.97 1065.7C4557.82 1065.4 4557.68 1065.11 4557.51 1064.83C4557.33 1064.35 4557.18 1063.86 4557.03 1063.38C4556.79 1062.41 4556.59 1061.41 4556.45 1060.4C4556.24 1058.49 4556.17 1056.54 4556.19 1054.61C4556.19 1054.56 4556.19 1054.5 4556.21 1054.45C4556.21 1054.43 4556.21 1054.43 4556.21 1054.41C4556.21 1054.34 4556.21 1054.24 4556.21 1054.17C4556.94 1035.02 4561.92 1016.4 4564.61 997.481C4565.54 990.827 4566.3 984.025 4566.15 977.298C4566.02 969.963 4565.65 962.39 4562.7 955.57C4561.1 951.912 4559.2 948.548 4556.48 945.589C4554.2 943.125 4551.74 940.901 4549.13 938.824C4544.96 935.423 4540.75 932.078 4536.83 928.365C4534.96 926.526 4533.19 924.596 4531.52 922.556C4529.85 920.46 4528.27 918.328 4526.85 916.085C4526.5 915.479 4526.19 914.854 4525.88 914.229C4525.82 914.1 4525.77 913.953 4525.69 913.843C4525.43 913.236 4525.21 912.611 4525.01 912.005C4524.66 910.718 4524.41 909.431 4524.18 908.108C4523.85 905.424 4523.61 902.722 4523.52 900.038C4523.16 887.888 4523.71 875.737 4523.36 863.623C4523.25 860.167 4523.03 856.693 4522.51 853.274C4522.22 851.381 4521.81 849.469 4521.21 847.649C4520.66 846.105 4520.1 844.506 4519.31 843.09C4518.21 841.16 4517.07 839.304 4515.51 837.705C4513.8 835.903 4511.78 834.414 4509.52 833.311C4507.33 832.227 4505.07 831.326 4502.79 830.389C4501.35 829.745 4499.94 829.084 4498.58 828.33C4497.81 827.852 4497.05 827.337 4496.32 826.786C4496.1 826.602 4495.88 826.418 4495.66 826.234C4495.49 826.05 4495.33 825.867 4495.18 825.72C4494.92 825.333 4494.68 824.948 4494.44 824.562C4494.3 824.286 4494.17 824.01 4494.04 823.716C4493.58 822.466 4493.21 821.234 4492.86 819.966C4491.56 814.746 4490.58 809.47 4489.59 804.176C4488.58 798.735 4487.59 793.312 4486.78 787.853C4486.83 788.275 4486.89 788.717 4486.94 789.158C4486.3 784.599 4485.86 780.059 4485.75 775.463C4485.75 775.279 4485.73 775.077 4485.73 774.893C4485.73 774.985 4485.73 775.077 4485.75 775.206C4485.71 765.077 4486.52 754.949 4486.1 744.82C4485.82 738.037 4485.27 730.96 4482.95 724.527C4481.76 721.163 4480.33 717.854 4478.19 714.968C4476.17 712.192 4473.97 709.582 4471.8 706.935C4463.74 697.137 4455.62 687.377 4447.57 677.579C4443.36 672.487 4439.21 667.322 4434.52 662.653C4432.13 660.282 4429.63 658.076 4426.91 656.09C4424.3 654.16 4421.52 652.414 4418.73 650.76C4412.39 646.973 4405.82 643.572 4398.84 641.109C4392.24 638.775 4385.44 637.12 4378.73 635.208C4379.02 635.282 4379.3 635.374 4379.59 635.447C4368.21 632.139 4357.26 627.562 4346.32 623.003C4334.72 618.15 4323.2 613.15 4311.08 609.676C4311.17 609.694 4311.27 609.713 4311.36 609.731C4307.42 608.646 4303.42 607.691 4299.41 606.827C4296.47 606.202 4293.53 605.577 4290.6 604.805C4289.08 604.345 4287.57 603.812 4286.08 603.242C4284.83 602.654 4283.6 602.011 4282.41 601.331C4281.73 600.889 4281.06 600.43 4280.4 599.933C4279.54 599.18 4278.67 598.426 4277.85 597.617C4275.83 595.485 4273.91 593.242 4272.04 590.981C4264.12 581.404 4256.69 571.423 4248.91 561.717C4244.67 556.405 4240.42 551.056 4235.77 546.074C4233.42 543.537 4231.01 541.056 4228.46 538.721C4228.36 538.629 4228.25 538.538 4228.16 538.446C4230.05 536.571 4231.69 534.457 4232.92 532.049C4234.36 529.199 4235.31 526.258 4236.25 523.207C4238.18 516.976 4240.33 510.891 4243.01 504.917C4243.8 503.263 4244.67 501.627 4245.62 500.046C4246.4 498.869 4247.21 497.711 4248.07 496.608C4248.86 495.726 4249.67 494.88 4250.5 494.053C4250.99 493.63 4251.51 493.226 4252.02 492.821C4252.63 492.417 4253.25 492.031 4253.88 491.645C4254.3 491.443 4254.71 491.241 4255.15 491.039C4255.39 490.965 4255.64 490.873 4255.88 490.8C4255.95 490.781 4256.03 490.763 4256.1 490.763C4256.43 490.744 4256.76 490.744 4257.09 490.744C4257.15 490.744 4257.19 490.763 4257.24 490.744C4257.52 490.799 4257.81 490.873 4258.11 490.928C4258.18 490.947 4258.27 490.965 4258.36 491.002C4258.9 491.241 4259.45 491.516 4259.98 491.774C4261.51 492.711 4262.92 493.685 4264.37 494.733C4267.17 496.921 4269.83 499.237 4272.55 501.516C4275.88 504.274 4279.28 506.939 4282.79 509.457C4288.77 513.722 4295.27 517.214 4301.16 521.571C4302.61 522.747 4303.99 523.942 4305.33 525.211C4306.96 526.92 4308.51 528.685 4309.98 530.523C4316.74 539.696 4322.37 549.677 4329.34 558.721C4337.07 568.776 4347.75 575.908 4358.65 582.121C4365.73 586.165 4373.01 590.062 4380.86 592.36C4389.96 595.025 4399.54 596.974 4408.87 594.437C4417.61 592.066 4426.08 588.316 4433.84 583.665C4437.55 581.46 4441.04 578.923 4444.19 575.982C4447.07 573.316 4449.76 570.467 4452.51 567.673C4452.62 567.581 4452.7 567.489 4452.81 567.397C4452.83 567.397 4452.84 567.379 4452.84 567.36C4452.92 567.287 4452.97 567.232 4453.03 567.158C4452.97 567.214 4452.92 567.287 4452.84 567.324C4454.63 565.614 4456.47 563.96 4458.4 562.397C4459.52 561.57 4460.64 560.817 4461.8 560.063C4462.57 559.64 4463.36 559.217 4464.17 558.813C4465.23 558.39 4466.3 558.004 4467.42 557.673C4471.04 556.681 4474.77 556.037 4478.49 555.449C4482.13 554.898 4485.78 554.456 4489.46 554.291C4491.61 554.254 4493.78 554.346 4495.93 554.548C4496.92 554.659 4497.9 554.824 4498.89 555.008C4499.63 555.228 4500.36 555.449 4501.1 555.688C4503.05 556.497 4504.9 557.397 4506.74 558.372C4514.24 562.563 4521.56 567.342 4529.55 570.541C4531.96 571.478 4534.5 572.452 4537.07 572.765C4539.96 573.151 4543.04 573.427 4545.91 572.673C4550.38 571.478 4554.66 569.383 4557.57 565.688C4565.49 555.651 4565.82 542.141 4568.54 530.1C4569.88 524.898 4571.59 519.769 4573.52 514.751C4573.43 514.935 4573.37 515.137 4573.28 515.303C4573.37 515.082 4573.47 514.862 4573.56 514.659C4573.56 514.696 4573.52 514.733 4573.52 514.751C4573.54 514.733 4573.56 514.678 4573.58 514.641C4573.58 514.641 4573.56 514.641 4573.56 514.659C4573.61 514.531 4573.65 514.402 4573.71 514.273C4573.67 514.402 4573.61 514.531 4573.58 514.641C4575.42 510.082 4577.44 505.597 4579.74 501.259C4580.73 499.641 4581.76 498.079 4582.86 496.553C4583.61 495.634 4584.4 494.696 4585.21 493.832C4588.3 490.91 4591.68 488.373 4594.72 485.377C4599.13 481.039 4603.5 476.039 4605.12 469.918C4605.97 466.811 4606.32 463.576 4605.87 460.359C4605.54 458.061 4604.85 455.892 4604.09 453.686C4602.86 450.047 4601.59 446.444 4600.54 442.749C4598.61 435.433 4597.44 427.951 4596.3 420.507C4595.05 412.4 4593.91 404.312 4592.6 396.224C4591.35 388.357 4590.16 380.471 4589.2 372.566C4588.21 364.478 4587.33 356.39 4587.29 348.247C4587.29 348.651 4587.29 349.074 4587.27 349.497C4587.27 344.552 4587.49 339.608 4588.19 334.736C4588.65 332.181 4589.24 329.681 4589.97 327.181C4591.28 323.395 4592.79 319.682 4594.2 315.968C4596.1 311.134 4597.92 306.244 4599.53 301.299C4602.44 292.623 4604.17 283.69 4606.63 274.903C4607.05 273.543 4607.53 272.219 4608.03 270.896C4608.23 270.51 4608.43 270.105 4608.63 269.738C4608.76 269.517 4608.91 269.333 4609.04 269.149C4609.15 269.002 4609.26 268.892 4609.39 268.763C4609.61 268.58 4609.85 268.377 4610.08 268.212C4610.3 268.083 4610.51 267.955 4610.71 267.826C4610.95 267.716 4611.22 267.587 4611.46 267.495C4612.03 267.311 4612.58 267.127 4613.15 266.98C4613.94 266.852 4614.75 266.741 4615.54 266.631C4618.47 266.392 4621.39 266.337 4624.33 266.41C4627.4 266.502 4630.49 266.723 4633.56 266.668C4636.22 266.613 4638.89 266.392 4641.5 266.006C4647.09 265.234 4652.42 263.341 4656.99 259.958C4660.84 257.109 4663.34 253.028 4665.05 248.653C4666.31 245.455 4667.42 242.201 4668.76 239.021C4669.75 236.834 4670.84 234.702 4672.07 232.643C4673.3 230.694 4674.62 228.819 4676.08 227.018C4677.23 225.639 4678.47 224.297 4679.75 223.011C4680.73 222.147 4681.72 221.338 4682.75 220.566C4683.23 220.235 4683.72 219.941 4684.2 219.647C4684.4 219.573 4684.59 219.481 4684.79 219.389C4684.97 219.353 4685.14 219.316 4685.32 219.297C4685.38 219.316 4685.45 219.334 4685.52 219.371C4686.79 219.996 4688.04 220.676 4689.27 221.43C4693.13 223.856 4696.88 226.43 4700.47 229.242C4703.39 231.613 4706.15 234.132 4708.85 236.76C4711.55 239.389 4714.22 242.091 4717.2 244.407C4721.5 247.734 4726.26 250.308 4731.26 252.385C4737.14 254.848 4743.21 256.778 4749.24 258.837C4756.64 261.374 4764.07 263.929 4771.4 266.741C4778.67 269.591 4785.72 272.807 4792.64 276.465C4796.62 278.653 4800.58 280.877 4804.29 283.524C4805.72 284.59 4807.1 285.748 4808.41 286.925C4809.42 287.917 4810.36 288.947 4811.24 290.013C4812.01 291.024 4812.75 292.035 4813.44 293.101C4814.14 294.314 4814.79 295.564 4815.39 296.833C4816.39 299.149 4817.27 301.52 4818.02 303.91C4818.59 305.913 4819.09 307.954 4819.49 309.994C4819.77 311.63 4819.97 313.266 4820.1 314.921C4820.17 316.777 4820.15 318.634 4820.06 320.509C4820.06 320.545 4820.08 320.564 4820.08 320.582C4820.06 320.674 4820.08 320.748 4820.06 320.84C4819.69 325.178 4819.01 329.498 4818.17 333.781C4818.26 333.376 4818.33 332.953 4818.43 332.567C4817.64 336.519 4816.84 340.49 4816.09 344.46C4816.16 344.056 4816.24 343.652 4816.31 343.247C4816.07 344.46 4815.85 345.692 4815.63 346.905C4814.11 355.14 4812.67 363.449 4811.94 371.776C4811.59 375.783 4811.4 379.827 4811.53 383.871C4811.66 387.897 4811.75 392.033 4812.6 396.004C4813.66 401.059 4815.3 405.93 4817.89 410.452C4819.95 414.018 4822.36 417.437 4825.56 420.084C4826.15 420.58 4826.77 421.021 4827.41 421.463C4826.99 426.701 4826.77 431.996 4827.12 437.234C4827.47 442.381 4828.32 447.547 4829.97 452.436C4831.22 456.223 4832.91 459.807 4834.51 463.447C4835.14 464.973 4835.7 466.535 4836.2 468.116C4836.38 468.943 4836.53 469.734 4836.68 470.524C4836.75 471.168 4836.81 471.829 4836.83 472.509C4836.81 473.281 4836.75 474.017 4836.68 474.77C4836.46 476.223 4836.16 477.656 4835.82 479.09C4834.58 483.281 4832.98 487.362 4831.59 491.535C4828.76 500.009 4826.64 508.685 4825.3 517.509C4824.68 521.7 4824.51 525.909 4824.66 530.155C4824.73 532.122 4825.01 534.071 4825.3 536.019C4825.67 538.464 4826.2 540.964 4827.01 543.28C4828.57 547.729 4830.54 551.956 4833.3 555.78C4835.58 558.96 4838.22 561.809 4841.07 564.456C4846.44 569.456 4852.45 573.592 4858.61 577.507C4870.81 585.246 4883.64 591.974 4896.64 598.279C4911.9 605.669 4927.17 612.948 4942.04 621.128C4950.24 625.76 4958.24 630.687 4965.85 636.238C4969.75 639.253 4973.5 642.396 4977.08 645.797C4978.51 647.267 4979.91 648.738 4981.25 650.318C4982.25 651.624 4983.2 652.947 4984.07 654.326C4984.71 655.447 4985.28 656.568 4985.85 657.745C4986.27 658.829 4986.68 659.896 4987.01 660.998C4987.15 661.642 4987.28 662.248 4987.41 662.855C4987.56 664.123 4987.63 665.373 4987.67 666.642C4987.61 670.208 4987.3 673.756 4986.9 677.285C4986.88 677.358 4986.88 677.414 4986.88 677.469C4986.88 677.487 4986.88 677.487 4986.88 677.506C4986.9 677.561 4986.88 677.616 4986.88 677.671C4986.88 677.616 4986.9 677.561 4986.9 677.506C4984.38 696.108 4980.15 714.527 4975.54 732.707C4972.67 743.92 4969.62 755.059 4966.99 766.327C4964.84 775.537 4962.93 784.764 4961.77 794.158C4961.16 798.9 4960.79 803.643 4960.7 808.404C4960.59 812.466 4960.7 816.584 4961.22 820.609C4961.82 825.242 4962.74 829.764 4964.31 834.157C4965.7 838.054 4967.6 841.657 4969.8 845.131C4973.33 850.645 4977.49 855.756 4981.6 860.829C4991.97 873.586 5002.89 885.865 5014.01 897.942C5025.35 910.277 5036.6 922.685 5047.41 935.497C5047.13 935.184 5046.86 934.854 5046.58 934.523C5055.08 944.688 5063.35 955.055 5071.29 965.662C5078.59 975.386 5085.66 985.275 5092.23 995.533C5095.39 1000.7 5098.38 1005.9 5101.01 1011.36C5102.61 1014.98 5104.06 1018.64 5105.3 1022.43C5106.12 1025.22 5106.78 1028.03 5107.32 1030.9C5107.56 1032.72 5107.74 1034.54 5107.87 1036.36C5107.89 1038.2 5107.83 1040 5107.68 1041.82C5107.15 1046.52 5106.38 1051.16 5106.09 1055.9C5105.7 1061.93 5105.88 1068.12 5106.73 1074.12C5107.76 1081.69 5109.38 1089.1 5111.31 1096.47C5112.92 1102.7 5114.47 1108.97 5115.61 1115.33C5115.53 1114.89 5115.46 1114.48 5115.39 1114.04C5116.4 1119.89 5117.3 1125.75 5118.53 1131.54C5119.78 1137.31 5121.29 1143.01 5123.13 1148.67C5126.23 1158.19 5130.63 1167.24 5133.77 1176.78C5134.34 1178.67 5134.83 1180.58 5135.22 1182.55C5135.61 1184.9 5135.83 1187.2 5135.96 1189.54C5135.96 1189.57 5135.96 1189.59 5135.96 1189.61C5135.97 1190 5135.99 1190.38 5136.01 1190.77C5135.99 1190.46 5135.97 1190.14 5135.96 1189.83C5136.16 1194.13 5136.25 1198.45 5136.62 1202.75C5136.82 1204.98 5137.11 1207.16 5137.46 1209.35C5137.98 1212.38 5138.62 1215.34 5140.13 1218.05C5143.14 1223.4 5147.89 1227.38 5152.83 1230.9C5157.78 1234.46 5162.89 1237.62 5168.33 1240.38C5173.27 1242.88 5178.46 1244.9 5183.44 1247.38C5185.13 1248.27 5186.82 1249.22 5188.44 1250.29C5188.99 1250.69 5189.52 1251.12 5190.05 1251.54C5190.29 1251.76 5190.53 1252 5190.73 1252.22C5190.85 1252.37 5190.96 1252.53 5191.08 1252.66C5191.16 1252.79 5191.21 1252.94 5191.3 1253.05C5191.32 1253.08 5191.32 1253.14 5191.34 1253.17C5191.54 1253.87 5191.71 1254.57 5191.87 1255.27C5192.06 1256.48 5192.19 1257.7 5192.28 1258.91C5192.39 1261.89 5192.3 1264.83 5192.11 1267.79C5191.4 1276.83 5189.91 1285.8 5189.21 1294.86C5188.47 1304.13 5188.8 1314.09 5194.37 1321.98C5197.17 1325.93 5200.62 1329.17 5204.54 1332C5208.23 1334.64 5212.26 1337.07 5216.38 1339C5220.51 1340.95 5224.78 1342.58 5229.1 1344.04C5233.53 1345.51 5238.09 1346.74 5242.59 1348.04C5242.3 1347.93 5242 1347.86 5241.71 1347.77C5242.06 1347.88 5242.41 1347.99 5242.76 1348.1C5242.7 1348.08 5242.65 1348.04 5242.59 1348.04C5242.65 1348.04 5242.7 1348.1 5242.76 1348.1C5242.77 1348.1 5242.81 1348.12 5242.83 1348.14C5246.38 1349.24 5249.87 1350.42 5253.31 1351.83C5255.22 1352.71 5257.08 1353.65 5258.89 1354.72C5259.56 1355.16 5260.24 1355.6 5260.88 1356.08C5261.3 1356.44 5261.71 1356.83 5262.15 1357.22C5262.7 1357.86 5263.23 1358.52 5263.77 1359.18C5264.81 1360.67 5265.79 1362.2 5266.71 1363.74C5268.18 1366.43 5269.5 1369.2 5270.68 1372.03C5271.49 1374.15 5272.24 1376.26 5272.92 1378.43C5273.32 1380.01 5273.66 1381.61 5273.93 1383.23C5274.04 1384.11 5274.1 1384.99 5274.13 1385.89C5274.12 1386.57 5274.06 1387.25 5274.01 1387.93C5273.91 1388.37 5273.84 1388.83 5273.75 1389.27C5273.58 1389.83 5273.4 1390.36 5273.2 1390.89C5271.91 1393.87 5270.38 1396.72 5268.84 1399.57C5268.78 1399.7 5268.71 1399.81 5268.66 1399.94C5268.64 1399.95 5268.64 1399.99 5268.6 1400.01C5268.62 1399.99 5268.64 1399.95 5268.66 1399.94C5268.64 1399.97 5268.6 1400.05 5268.58 1400.08C5268.58 1400.08 5268.58 1400.07 5268.58 1400.05C5268.49 1400.19 5268.42 1400.32 5268.36 1400.45C5268.36 1400.47 5268.36 1400.49 5268.34 1400.51C5264.92 1406.57 5261.3 1412.53 5257.54 1418.32C5253.16 1425.06 5248.4 1431.66 5244.89 1438.92C5240.33 1448.39 5236.8 1460.49 5243.45 1469.9C5248.14 1476.55 5255.48 1480.74 5262.66 1484.22C5272.77 1489.11 5283.56 1492.64 5294.19 1496.2C5308.84 1501.07 5323.62 1505.56 5338.01 1511.17C5350.35 1516.17 5362.31 1521.94 5373.95 1528.41C5373.6 1528.21 5373.21 1528 5372.86 1527.78C5383.19 1533.57 5393.47 1539.49 5403.69 1545.47C5413.16 1551 5422.64 1556.59 5431.54 1563.02C5433.87 1564.8 5436.13 1566.66 5438.28 1568.65C5439.94 1570.34 5441.56 1572.07 5443.06 1573.89C5443.58 1574.57 5444.06 1575.26 5444.53 1575.96C5444.79 1576.44 5445.05 1576.92 5445.29 1577.4C5445.36 1577.6 5445.42 1577.8 5445.49 1578.02C5445.56 1578.41 5445.64 1578.79 5445.71 1579.18C5445.79 1579.99 5445.82 1580.78 5445.86 1581.57C5445.8 1584.97 5445.53 1588.37 5445.14 1591.73C5443.78 1603.3 5441.81 1614.79 5439.68 1626.24C5437.13 1640.06 5434.65 1653.9 5431.61 1667.62C5431.5 1668.07 5431.39 1668.55 5431.3 1669.01C5428.6 1680.56 5425.14 1691.86 5421.58 1703.17C5418.63 1712.39 5415.73 1721.64 5412.92 1730.9C5409.77 1741.22 5406.89 1751.58 5404.06 1761.97C5400.33 1775.63 5396.52 1789.27 5392.35 1802.8C5387.72 1817.65 5382.97 1832.52 5377.97 1847.28C5375.27 1855.3 5372.42 1863.27 5369.17 1871.1C5368.43 1872.89 5367.68 1874.65 5366.93 1876.43C5366.74 1876.82 5366.56 1877.19 5366.43 1877.57C5364.92 1881.16 5363.4 1884.72 5361.91 1888.31C5357.51 1899.03 5353.75 1909.96 5350.03 1920.9C5346.08 1932.56 5342.11 1944.19 5337.72 1955.7C5337.79 1955.51 5337.85 1955.35 5337.9 1955.18C5335.14 1962.24 5332.2 1969.25 5328.95 1976.08C5329.02 1975.95 5329.08 1975.81 5329.17 1975.68C5329.1 1975.84 5329 1975.99 5328.93 1976.16C5328.93 1976.18 5328.93 1976.21 5328.89 1976.23C5328.89 1976.23 5328.89 1976.23 5328.89 1976.21C5328.88 1976.27 5328.86 1976.3 5328.84 1976.36C5328.84 1976.36 5328.82 1976.38 5328.82 1976.4C5328.82 1976.4 5328.8 1976.41 5328.8 1976.43C5328.8 1976.43 5328.8 1976.43 5328.78 1976.43C5328.78 1976.43 5328.78 1976.43 5328.8 1976.43C5328.78 1976.47 5328.77 1976.49 5328.75 1976.52C5328.77 1976.49 5328.76 1976.47 5328.78 1976.43C5323.18 1987.79 5317.06 1998.88 5310.33 2009.59C5305.14 2017.72 5299.61 2025.66 5294.8 2034.01C5290.51 2041.47 5286.6 2049.24 5283.67 2057.35C5280.97 2064.81 5278.67 2072.44 5276.47 2080.07C5273.97 2088.75 5271.62 2097.48 5269.54 2106.28C5266.65 2118.51 5264.17 2130.86 5262.22 2143.27C5260.71 2152.84 5259.35 2162.46 5257.57 2171.98C5256.95 2175.23 5256.32 2178.47 5255.68 2181.72C5254.89 2182.55 5254.08 2183.38 5253.25 2184.15C5249.02 2188.29 5244.28 2191.98 5239.37 2195.29C5220.44 2208.06 5197.52 2213.17 5175.51 2217.97C5169.34 2219.31 5163.12 2220.6 5156.88 2221.48C5150.94 2222.35 5144.95 2222.37 5138.99 2223.32C5137.83 2223.58 5136.71 2223.85 5135.57 2224.17C5134.65 2224.52 5133.75 2224.87 5132.85 2225.25C5131.84 2225.82 5130.85 2226.37 5129.85 2226.96C5127.98 2228.23 5126.16 2229.57 5124.41 2231.02C5121.77 2233.38 5119.25 2235.86 5116.82 2238.47C5112.96 2242.84 5109.34 2247.37 5105.99 2252.13C5103.31 2256.02 5100.68 2259.96 5097.54 2263.54C5093.95 2267.64 5089.98 2271.19 5085.77 2274.64C5081.71 2278.01 5077.37 2281.04 5073.09 2284.13C5068.68 2287.27 5064.34 2290.49 5060.02 2293.78C5055.88 2296.96 5051.77 2300.18 5047.45 2303.14C5042.65 2306.43 5037.65 2309.39 5032.7 2312.42C5022.78 2318.47 5013.11 2324.9 5002.98 2330.58C4997.06 2333.89 4990.96 2336.85 4984.71 2339.53C4978.4 2342.2 4971.92 2344.5 4965.44 2346.78C4953.29 2351.08 4941.02 2354.79 4929.29 2360.21C4921.47 2364.04 4913.88 2368.19 4906.55 2372.9C4906.2 2373.12 4905.85 2373.34 4905.5 2373.58C4901.51 2376.2 4897.73 2379.02 4894.07 2382.07C4893.85 2382.27 4893.63 2382.44 4893.41 2382.62C4886.97 2388.13 4881.07 2394.31 4875.32 2400.56C4867.87 2408.78 4860.47 2417.03 4852.73 2424.99C4844.73 2433.23 4835.98 2440.58 4826.64 2447.23C4822.3 2450.32 4817.87 2453.37 4813.2 2455.96C4807.73 2459.03 4801.79 2461.22 4795.67 2462.67C4793.02 2463.34 4790.28 2463.74 4787.58 2464.11C4785.6 2464.38 4783.59 2464.44 4781.61 2464.49C4780.69 2464.51 4779.68 2464.42 4778.7 2464.27C4777.97 2464.14 4777.16 2463.98 4776.39 2463.78Z"
        fill="#584434"/>
    <path
        id="FI"
        d="M4574.22 2408.74C4570.76 2406.63 4567.51 2404.09 4564.59 2401.26C4561.78 2398.54 4559.17 2395.6 4556.5 2392.71C4555.84 2392.03 4555.14 2391.39 4554.42 2390.74C4553.98 2390.4 4553.52 2390.05 4553.06 2389.72C4551.79 2389.02 4550.51 2388.43 4549.2 2387.78C4546.89 2386.61 4544.63 2385.16 4542.57 2383.59C4539.48 2381.26 4536.59 2378.5 4534.59 2375.19C4530.71 2368.76 4531.56 2360.38 4536.13 2354.51C4538.25 2351.83 4540.97 2349.46 4544.24 2348.36C4546.85 2347.45 4549.72 2347.14 4552.46 2347.47C4555.31 2347.86 4558.04 2348.69 4560.78 2349.46C4566.35 2351.02 4571.81 2352.79 4577.35 2354.44C4580.08 2355.23 4582.84 2355.97 4585.67 2356.48C4586.19 2356.54 4586.68 2356.59 4587.18 2356.63C4587.36 2356.61 4587.53 2356.61 4587.69 2356.61C4587.8 2356.57 4587.91 2356.55 4588.03 2356.54C4589.86 2355.75 4591.66 2354.79 4593.52 2354C4596.22 2352.86 4599.02 2351.81 4601.81 2350.95C4608.17 2349 4614.64 2348.08 4621.26 2348.87C4625.27 2349.35 4629.18 2350.25 4633.01 2351.44C4636.06 2351.65 4639 2352.11 4641.98 2352.93C4645.49 2353.93 4649.07 2354.9 4652.47 2356.22C4655.17 2357.27 4657.64 2358.48 4660.08 2360.08C4662.1 2361.39 4663.67 2363.37 4664.97 2365.4C4666.42 2367.62 4667.55 2369.97 4668.15 2372.56C4668.45 2373.93 4668.52 2375.34 4668.63 2376.76C4668.76 2378.15 4668.89 2379.57 4669 2380.98C4669.26 2385.27 4668.45 2389.57 4666.46 2393.39C4663.83 2398.43 4659.2 2402.33 4653.94 2404.4C4651.13 2405.51 4648.32 2406.09 4645.27 2405.89C4643.65 2405.78 4642.07 2405.32 4640.51 2404.86C4637.79 2404.13 4635.03 2403.5 4632.23 2403.02C4631.79 2402.99 4631.35 2402.97 4630.95 2402.91C4630.84 2402.91 4630.73 2402.91 4630.58 2402.91C4630.36 2402.95 4630.14 2403.01 4629.92 2403.04C4619.35 2405.8 4609.33 2411.26 4598.14 2410.85C4598.39 2410.87 4598.67 2410.87 4598.96 2410.87C4593.12 2410.8 4587.16 2412.05 4581.46 2411.22C4579 2410.93 4576.57 2410.16 4574.22 2408.74Z"
        fill="#584434"/>
    <path
        id="FI"
        d="M4396.82 2459.79C4393.73 2459.27 4390.69 2458.35 4387.83 2457.1C4384.78 2455.78 4381.8 2454.27 4378.91 2452.64C4373.97 2449.88 4368.75 2446.2 4368.14 2440.1C4367.85 2437.34 4368.73 2434.46 4370.36 2432.2C4371.38 2430.74 4372.81 2429.53 4374.19 2428.43C4376.15 2426.85 4378.25 2425.39 4380.31 2423.91C4380.29 2423.92 4380.27 2423.94 4380.24 2423.98C4380.33 2423.89 4380.44 2423.83 4380.51 2423.78C4382.73 2422.14 4384.9 2420.45 4386.96 2418.67C4387.96 2417.67 4388.91 2416.68 4389.83 2415.65C4390.31 2415.03 4390.73 2414.4 4391.15 2413.74C4391.3 2413.5 4391.45 2413.23 4391.56 2412.95C4391.82 2412.34 4392.05 2411.72 4392.26 2411.08C4392.66 2409.59 4393.07 2408.08 4393.6 2406.63C4394.48 2404.24 4395.88 2402.12 4397.5 2400.16C4399.66 2397.51 4402.42 2395.27 4405.07 2393.12C4410.66 2388.59 4416.76 2384.7 4422.68 2380.6C4423.38 2380.08 4424.09 2379.53 4424.77 2378.94C4426.28 2377.51 4427.81 2376.22 4429.63 2375.16C4432.13 2373.72 4434.87 2372.75 4437.61 2371.87C4442.55 2370.27 4447.83 2369.2 4453.03 2368.87C4453.4 2368.78 4453.74 2368.72 4454.13 2368.65C4458.97 2367.69 4464.11 2367.45 4468.96 2368.17C4472.18 2368.65 4475.69 2369.61 4478.34 2371.59C4480.09 2372.88 4481.57 2374.35 4483.05 2375.93C4482.79 2375.65 4482.55 2375.4 4482.31 2375.16C4485.47 2378.52 4488.98 2381.57 4492.16 2384.95C4492.22 2385.01 4492.25 2385.06 4492.31 2385.12C4492.88 2385.71 4493.45 2386.24 4494.07 2386.77C4494.53 2387.14 4495.05 2387.45 4495.56 2387.8C4496.85 2388.58 4498.16 2389.33 4499.44 2390.16C4500.86 2391.08 4502.11 2392.16 4503.45 2393.19C4505.88 2395.08 4508.43 2396.85 4511.06 2398.48C4514.61 2400.62 4518.27 2402.64 4521.7 2404.99C4524.74 2407.09 4527.47 2409.51 4530.29 2411.9C4533.98 2414.81 4538.12 2417.16 4541.43 2420.52C4545.91 2425.08 4549.5 2430.63 4550.88 2436.94C4551.85 2441.53 4550.75 2446.57 4547.57 2450.08C4545.23 2452.69 4542.24 2454.07 4538.82 2454.66C4536.37 2455.04 4533.91 2454.84 4531.48 2454.48C4529.83 2454.22 4528.21 2453.76 4526.57 2453.45C4526.13 2453.41 4525.73 2453.34 4525.31 2453.32C4524.72 2453.7 4524.15 2454.11 4523.56 2454.53C4523.58 2454.51 4523.58 2454.51 4523.58 2454.51C4520.82 2456.48 4518.04 2458.39 4515.23 2460.21C4511.57 2462.58 4507.64 2464.07 4503.39 2465.01C4499.92 2465.78 4496.37 2466.29 4492.81 2466.68C4488.67 2467.16 4484.53 2467.58 4480.4 2467.58C4480.23 2467.58 4480.05 2467.58 4479.9 2467.56C4475.73 2467.49 4471.65 2466.99 4467.53 2466.37C4463.17 2465.69 4459.06 2464.33 4455.12 2462.31C4451.93 2460.67 4448.78 2458.85 4445.69 2457.01C4443.87 2455.91 4442.13 2454.75 4440.4 2453.5C4439.41 2452.8 4438.45 2452.05 4437.48 2451.35C4435.95 2452.05 4434.48 2452.84 4432.95 2453.57C4430.51 2454.77 4428.05 2455.95 4425.55 2457.03C4422.4 2458.39 4419.15 2459.55 4415.84 2460.34C4412.57 2461.13 4409.37 2461.22 4406.02 2461.04C4404.33 2460.95 4402.66 2460.76 4400.99 2460.5C4399.63 2460.27 4398.21 2460.03 4396.82 2459.79Z"
        fill="#584434"/>
</svg>