<svg
    width="7773"
    height="7615"
    viewBox="0 0 7773 7615"
    fill="none"
    xmlns="http://www.w3.org/2000/svg">
    <path id="FR"
        d="M3274.12 6542.26C3267.13 6541.11 3260.46 6538.44 3253.84 6536.05C3250.33 6534.78 3246.78 6533.57 3243.64 6531.51C3241.07 6529.84 3238.84 6527.78 3236.75 6525.55C3234.96 6523.68 3233.05 6521.97 3231.25 6520.11C3229.01 6517.74 3226.78 6515.37 3224.41 6513.13C3222.06 6511.01 3219.63 6508.97 3217.28 6506.84C3217.57 6507.12 3217.87 6507.37 3218.14 6507.65C3215.74 6505.44 3213.35 6503.26 3211.05 6500.98C3208.36 6498.31 3206.16 6495.3 3204.43 6491.95C3200.99 6485.32 3200.81 6477.98 3201.4 6470.7C3201.67 6467.34 3202.48 6463.96 3203.2 6460.68C3203.86 6457.58 3204.67 6454.49 3205.7 6451.49C3207.67 6445.7 3209.93 6440.06 3212 6434.34C3211.97 6434.4 3211.95 6434.47 3211.91 6434.53C3212.46 6432.93 3212.98 6431.29 3213.38 6429.64C3213.49 6429.01 3213.58 6428.41 3213.68 6427.76C3213.68 6427.49 3213.68 6427.21 3213.68 6426.92C3213.68 6426.92 3213.66 6426.9 3213.66 6426.86L3213.62 6426.81C3213.47 6426.59 3213.31 6426.4 3213.18 6426.18C3212.76 6425.72 3212.32 6425.26 3211.88 6424.82C3208.7 6422.05 3205.09 6419.75 3202.02 6416.86C3199.85 6414.8 3198.4 6411.9 3197.48 6409.12C3196.91 6407.3 3196.64 6405.46 3196.31 6403.59C3196.27 6403.44 3196.23 6403.3 3196.2 6403.13C3196.16 6403.02 3196.1 6402.93 3196.09 6402.85C3195.86 6402.41 3195.63 6401.99 3195.37 6401.59C3195.09 6401.18 3194.84 6400.8 3194.52 6400.43C3194.71 6400.65 3194.89 6400.85 3195.07 6401.05C3194.69 6400.59 3194.3 6400.13 3193.92 6399.69C3192.81 6398.41 3191.56 6397.23 3190.31 6396.09C3188.79 6394.77 3187.26 6393.53 3185.64 6392.36C3182.26 6390.13 3178.64 6388.33 3175.28 6386.11C3172.15 6383.94 3169.43 6381.46 3167.04 6378.52C3166.03 6377.25 3165.15 6375.89 3164.41 6374.47C3162.69 6371.09 3162.28 6367.4 3162.61 6363.68C3162.94 6359.88 3163.88 6356.26 3164.73 6352.56C3165.48 6349.25 3166.14 6345.93 3166.86 6342.58C3167.56 6339.29 3168.27 6335.98 3168.99 6332.69C3169.85 6328.57 3170.46 6323.9 3173.18 6320.52C3176.23 6316.68 3181.16 6314.58 3185.53 6312.62C3188.9 6311.09 3192.26 6309.58 3195.61 6308C3195.55 6308.04 3195.48 6308.06 3195.42 6308.11C3197.39 6307.12 3199.36 6306.09 3201.25 6304.95C3201.97 6304.47 3202.65 6303.98 3203.33 6303.44C3203.49 6303.3 3203.66 6303.13 3203.84 6302.98C3203.88 6302.93 3203.9 6302.89 3203.93 6302.86C3203.93 6302.6 3203.93 6302.38 3203.92 6302.12C3203.73 6299.99 3203.47 6297.91 3203.35 6295.8C3203.18 6292.91 3203.59 6289.99 3204.32 6287.21C3205.06 6284.42 3206.08 6281.68 3207.37 6279.11C3208.75 6276.35 3210.53 6274.02 3212.65 6271.74C3216.05 6268.08 3220.35 6265.28 3224.93 6263.26C3229.19 6261.37 3233.71 6260.41 3238.25 6259.55C3237.89 6259.62 3237.52 6259.7 3237.15 6259.75C3238.86 6259.42 3240.53 6259.11 3242.24 6258.78C3241.87 6258.83 3241.49 6258.92 3241.14 6258.98C3241.56 6258.89 3241.97 6258.81 3242.39 6258.74C3242.39 6258.74 3242.35 6258.76 3242.32 6258.74C3249.87 6257.21 3257.32 6255.16 3264.83 6253.45C3268.51 6252.62 3272.19 6251.79 3275.84 6250.91C3279.32 6250.08 3282.83 6249.31 3286.23 6248.26C3287.46 6247.84 3288.68 6247.4 3289.83 6246.86C3290.5 6246.52 3291.16 6246.17 3291.8 6245.78C3292.15 6245.52 3292.52 6245.27 3292.85 6245.01C3293.03 6244.84 3293.18 6244.68 3293.34 6244.53C3293.38 6244.47 3293.44 6244.42 3293.47 6244.38C3293.68 6244.03 3293.88 6243.68 3294.06 6243.34C3295.46 6240.36 3296.71 6237.32 3297.83 6234.25C3298.51 6232.25 3299.08 6230.25 3299.54 6228.21C3300.59 6222.18 3300.83 6216.04 3301.98 6210.03C3303.4 6202.9 3305.46 6195.85 3309.01 6189.48C3311.41 6185.16 3315.42 6180.65 3320.88 6181.39C3328.53 6182.44 3330.49 6191.06 3331.69 6197.42C3332.37 6201.08 3332.74 6204.77 3333.27 6208.43C3333.82 6212.38 3334.54 6216.3 3335.27 6220.23C3335.22 6219.84 3335.13 6219.48 3335.07 6219.11C3337.65 6232.49 3340.37 6245.8 3344.56 6258.78C3344.72 6259.29 3344.89 6259.81 3345.05 6260.32C3344.91 6259.92 3344.78 6259.49 3344.63 6259.07C3346.08 6263.45 3347.53 6267.78 3349.02 6272.16C3350.42 6276.39 3352.26 6280.54 3353.2 6284.9C3354.61 6291.5 3353.4 6297.84 3351.12 6304.11C3349.59 6308.32 3347.77 6312.4 3346.19 6316.59C3345.92 6317.47 3345.64 6318.37 3345.4 6319.27C3345.31 6319.91 3345.22 6320.56 3345.14 6321.2C3345.13 6321.72 3345.13 6322.23 3345.13 6322.76C3345.24 6323.72 3345.37 6324.68 3345.53 6325.63C3346.73 6331.24 3348.32 6336.75 3349.45 6342.4C3350.82 6349.68 3351.84 6357.03 3351.71 6364.45C3351.6 6369.69 3351.08 6374.97 3350.38 6380.17C3349.98 6383.08 3349.39 6385.96 3348.75 6388.83C3347.83 6392.93 3346.14 6396.66 3344.06 6400.3C3342.2 6403.5 3340.11 6406.59 3338.05 6409.69C3335.86 6412.98 3333.64 6416.27 3331.17 6419.38C3328.91 6422.27 3326.32 6424.89 3323.56 6427.3C3321.14 6429.43 3318.73 6431.57 3316.49 6433.88C3315.11 6435.52 3313.82 6437.19 3312.54 6438.94C3312.24 6439.4 3311.93 6439.84 3311.6 6440.3C3310.26 6442.39 3309.01 6444.53 3307.85 6446.71C3306.21 6450.39 3304.78 6454.14 3303.42 6457.95C3303.58 6457.52 3303.71 6457.12 3303.88 6456.69C3303.62 6457.52 3303.34 6458.35 3303.07 6459.2C3303.16 6459.78 3303.25 6460.35 3303.33 6460.96C3304.21 6467.28 3304.67 6473.62 3304.72 6480C3304.78 6486.11 3304.04 6492.19 3302.54 6498.07C3301.25 6503.15 3299.19 6507.96 3297.39 6512.87C3296.93 6514.36 3296.51 6515.89 3296.16 6517.43C3295.64 6520.02 3295.16 6522.63 3294.76 6525.24C3294.63 6528.66 3294.69 6531.95 3293.27 6535.22C3290.18 6542.41 3281.45 6543.37 3274.59 6542.36C3274.47 6542.32 3274.3 6542.28 3274.12 6542.26Z"
        fill="#2D4159"/>
    <path id="FR"
        d="M3024.99 5947.2C3019.45 5945.31 3013.75 5943.84 3008.11 5942.48C3002.47 5941.06 2996.84 5939.79 2991.24 5938.38C2980.26 5935.69 2969.38 5932.72 2958.57 5929.61C2949.36 5926.98 2940.1 5924.3 2931.18 5920.68C2928.17 5919.44 2925.21 5918.08 2922.34 5916.47C2920.61 5915.47 2918.96 5914.3 2917.43 5913.05C2914.16 5910.46 2912.05 5906.74 2910.43 5903.01C2907.18 5895.31 2906.94 5886.56 2906.7 5878.36C2906.5 5870.95 2906.73 5863.6 2907.08 5856.23C2907.21 5852.96 2907.4 5849.69 2907.49 5846.39C2907.53 5843.8 2907.56 5841.14 2907.76 5838.51C2907.91 5837.24 2907.98 5835.97 2908.22 5834.74C2908.55 5833.16 2909.01 5831.71 2909.58 5830.16C2910.34 5828.01 2911.77 5826.01 2913.13 5824.13C2914.97 5821.65 2916.97 5819.34 2918.81 5816.84C2919.8 5815.46 2920.7 5814.01 2921.51 5812.5C2921.97 5811.63 2922.36 5810.7 2922.75 5809.78C2922.89 5809.41 2923 5809.02 2923.11 5808.6C2923.13 5808.42 2923.22 5808.22 2923.24 5807.98C2923.22 5807.83 2923.19 5807.63 2923.17 5807.48C2923.04 5806.73 2922.84 5806.01 2922.65 5805.24C2922.58 5805.07 2922.54 5804.92 2922.49 5804.72C2922.18 5804.13 2921.83 5803.49 2921.53 5802.9C2920.39 5801.21 2919.27 5799.58 2918.08 5797.96C2915.12 5794.28 2911.88 5790.81 2908.7 5787.33C2905.45 5783.71 2902.23 5780.09 2899.12 5776.4C2896.15 5772.87 2893.28 5769.19 2890.8 5765.33C2889.55 5763.42 2888.41 5761.43 2887.38 5759.41C2886.13 5756.91 2885.17 5754.32 2884.55 5751.51C2883.81 5748.49 2883.85 5745.15 2884.2 5742.06C2884.57 5739.21 2884.99 5736.36 2885.6 5733.51C2886.85 5727.59 2889.68 5722.04 2894 5717.76C2898.54 5713.29 2904.53 5710.39 2910.12 5707.52C2914.16 5705.4 2918.43 5703.57 2922.47 5701.51C2924.4 5700.41 2926.29 5699.21 2928.17 5697.96C2929.22 5697.13 2930.28 5696.31 2931.29 5695.42C2932.21 5694.52 2933.08 5693.62 2933.9 5692.7C2934.56 5691.86 2935.13 5691.07 2935.7 5690.2C2936.24 5689.3 2936.72 5688.38 2937.19 5687.46C2937.63 5686.4 2938.04 5685.33 2938.44 5684.25C2938.76 5683.07 2939.07 5681.93 2939.34 5680.74C2939.71 5679.21 2939.8 5677.61 2939.93 5676.05C2939.93 5674.67 2939.95 5673.25 2939.91 5671.77C2939.66 5669.12 2939.31 5666.51 2938.85 5663.94C2937.54 5658.09 2935.76 5652.41 2933.92 5646.73C2930.87 5638.02 2927.45 5629.43 2923.44 5621.12C2920.1 5614.38 2916.44 5607.8 2912.3 5601.47C2909.75 5597.65 2907.03 5594.06 2904.23 5590.39C2902.75 5588.4 2901.44 5586.29 2900.54 5583.95C2898.61 5578.95 2899.79 5573.66 2902.32 5569.1C2907.27 5560.28 2914.77 5553.4 2921.46 5545.96C2922.18 5545.08 2922.89 5544.25 2923.57 5543.31C2923.57 5543.26 2923.65 5543.18 2923.65 5543.13C2923.7 5543.13 2923.7 5543.13 2923.7 5543.09L2923.72 5543C2923.7 5542.8 2923.68 5542.6 2923.7 5542.45C2923.63 5541.95 2923.59 5541.55 2923.46 5541.09C2923.3 5540.28 2923.11 5539.51 2922.87 5538.74C2921.92 5536.24 2920.94 5533.77 2919.82 5531.35C2917.58 5526.88 2915.03 5522.47 2912.62 5518.07C2909.95 5513.11 2907.49 5508.07 2905.14 5502.95C2902.98 5498.09 2901.15 5493.17 2899.33 5488.17C2897.73 5483.55 2896.15 5478.88 2894.2 5474.38C2893.67 5473.28 2893.13 5472.25 2892.51 5471.18C2891.94 5470.37 2891.37 5469.6 2890.74 5468.81C2890.19 5468.18 2889.58 5467.62 2888.98 5467.03C2888.1 5466.25 2887.23 5465.54 2886.29 5464.86C2883.87 5463.22 2881.33 5461.77 2878.74 5460.35C2876.17 5459.09 2873.59 5457.93 2870.89 5456.9C2868.54 5456.11 2866.18 5455.43 2863.79 5454.88C2862.45 5454.58 2861.11 5454.33 2859.81 5454.2C2859.75 5454.2 2859.75 5454.2 2859.75 5454.2C2859.66 5454.18 2859.55 5454.21 2859.46 5454.2C2859.29 5454.27 2859.13 5454.4 2858.98 5454.47C2858.81 5454.6 2858.65 5454.71 2858.48 5454.84C2857.97 5455.32 2857.45 5455.83 2856.94 5456.29C2853.22 5460.52 2850.03 5465.23 2846.64 5469.75C2843.15 5474.51 2839.6 5479.25 2835.91 5483.88C2828.81 5492.63 2821.24 5501.03 2812.47 5508.17C2805.76 5513.68 2798.06 5518.55 2789.22 5519.73C2787.21 5519.97 2785.16 5519.91 2783.12 5519.73C2780.16 5519.43 2777.38 5518.15 2774.86 5516.64C2773.13 5515.65 2771.7 5514.31 2770.34 5512.83C2768.7 5511.16 2767.69 5509.05 2766.77 5506.95C2765.84 5504.84 2765.56 5502.45 2765.19 5500.22C2764.92 5498.7 2764.9 5497.14 2764.88 5495.59C2764.88 5490.22 2765.47 5484.89 2766.24 5479.6C2767.16 5473.68 2768.8 5467.87 2770.43 5462.05C2773.26 5452.17 2776.85 5442.45 2780.89 5432.97C2783.5 5426.9 2786.13 5420.78 2788.89 5414.69C2790.43 5411.24 2792.14 5407.93 2794.77 5405.12C2796.68 5403.13 2798.7 5401.46 2801 5399.88C2803.35 5398.3 2805.91 5396.9 2808.43 5395.56C2810.95 5394.2 2813.5 5392.86 2816.02 5391.46C2817.43 5390.58 2818.76 5389.64 2820.12 5388.66C2823.19 5386.16 2826.18 5383.5 2829.02 5380.7C2835.32 5374.23 2841.18 5367.43 2847.51 5360.96C2852.95 5355.36 2858.7 5350.04 2863.54 5343.92C2864.46 5342.73 2865.28 5341.48 2866.06 5340.21C2866.79 5338.85 2867.45 5337.47 2868.1 5336.04C2870.34 5330.21 2871.51 5324.09 2873.89 5318.34C2875.34 5314.86 2877.47 5311.72 2880.69 5309.59C2882.93 5308.13 2885.28 5307.1 2887.78 5306.2C2891.42 5304.86 2895.26 5304.2 2899.09 5303.32C2900.41 5302.97 2901.72 5302.56 2903 5302.07C2904.11 5301.59 2905.23 5301.06 2906.29 5300.49C2907.41 5299.82 2908.52 5299.09 2909.57 5298.32C2911 5297.25 2912.36 5296.07 2913.66 5294.88C2914.77 5293.72 2915.87 5292.6 2916.88 5291.37C2918.89 5288.76 2920.69 5285.91 2922.38 5283.06C2924.27 5279.84 2926 5276.5 2927.52 5273.08C2930.36 5266.2 2932.86 5259.24 2935.01 5252.18C2935.02 5252.09 2935.02 5252.03 2935.08 5251.99L2935.36 5251.15C2935.3 5251.24 2935.28 5251.33 2935.21 5251.42C2936.16 5248.26 2937.03 5245.08 2937.84 5241.9C2938.52 5239.26 2939.11 5236.57 2939.88 5233.98C2940.76 5231 2942.03 5228.34 2943.74 5225.74C2945.96 5222.33 2949.77 5219.94 2953.61 5218.81C2956.75 5217.9 2960.26 5218.02 2963.5 5218.25C2966.18 5218.45 2968.77 5218.87 2971.42 5219.31C2977.14 5220.25 2982.82 5221.13 2988.55 5221.57C2993.98 5221.87 2999.31 5221.77 3004.71 5221.43C3010.54 5221 3016.35 5220.23 3022.12 5219.2C3025.41 5218.56 3028.66 5217.84 3031.9 5217C3031.9 5215.67 3031.95 5214.24 3031.9 5212.91C3031.9 5210.21 3031.9 5207.51 3031.92 5204.79C3031.92 5198.01 3031.79 5191.13 3031.75 5184.35C3031.7 5177.01 3031.82 5169.64 3031.93 5162.27C3032.04 5153.43 3032.16 5144.59 3033.06 5135.77C3033.55 5130.38 3034.38 5125.03 3035.54 5119.79C3036.49 5115.21 3037.8 5110.73 3038.81 5106.15L3038.88 5105.62C3038.88 5105.56 3038.9 5105.53 3038.96 5105.43L3039.01 5105.1C3040 5100.32 3040.9 5095.58 3041.93 5090.82C3042.6 5087.97 3043.28 5085.01 3044.29 5082.2C3045.22 5079.44 3046.49 5076.81 3048 5074.33C3048.07 5074.24 3048.13 5074.15 3048.18 5074.06C3048.83 5072.29 3049.49 5070.56 3050.08 5068.82C3051.4 5065.18 3052.47 5061.54 3053.4 5057.79C3055.79 5046.87 3056.92 5035.77 3058.97 5024.79C3059.86 5020.11 3061.24 5015.42 3063.2 5011.08C3065.22 5006.65 3067.82 5002.5 3070.52 4998.47C3073.39 4994.32 3076.53 4990.35 3079.71 4986.43C3082.94 4982.42 3086.29 4978.49 3089.65 4974.59C3095.87 4967.51 3102.39 4960.86 3108.9 4954.08C3108.9 4954.08 3108.95 4954.04 3109.01 4954C3109.01 4953.95 3109.08 4953.91 3109.08 4953.87C3113.72 4949.13 3118.31 4944.35 3122.32 4939.08C3123.02 4938.05 3123.7 4937.02 3124.3 4935.92C3124.63 4935.38 3124.91 4934.78 3125.15 4934.17C3125.33 4933.62 3125.52 4932.99 3125.7 4932.44C3125.79 4931.76 3125.94 4931.1 3126 4930.42C3126.07 4929.59 3126.11 4928.71 3126.12 4927.88C3126.05 4926.98 3126 4926.08 3125.88 4925.18C3125.74 4924.46 3125.61 4923.71 3125.43 4922.99C3125.22 4922.37 3125.02 4921.74 3124.8 4921.23C3124.54 4920.6 3124.25 4919.96 3123.94 4919.43C3123.59 4918.84 3123.22 4918.29 3122.82 4917.74C3122.76 4917.74 3122.72 4917.68 3122.69 4917.63C3122.47 4917.44 3122.3 4917.28 3122.06 4917.13C3121.62 4916.82 3121.22 4916.56 3120.76 4916.3C3120.43 4916.16 3120.15 4916.06 3119.87 4915.93C3118.18 4915.35 3116.49 4914.89 3114.78 4914.45C3113.09 4914.15 3111.42 4913.89 3109.69 4913.64C3106.11 4913.31 3102.41 4913.21 3098.83 4913.23C3090.83 4913.43 3082.89 4914.21 3074.95 4914.91C3066.97 4915.66 3058.88 4916.3 3050.83 4915.95C3042.71 4915.64 3034.89 4913.56 3027.8 4909.57C3022.1 4906.43 3018.02 4901.36 3013.42 4896.78C3010.81 4894.39 3008.17 4892.02 3005.28 4889.89C3003.81 4888.84 3002.28 4887.87 3000.65 4886.89C2998.55 4885.79 2996.42 4884.85 2994.23 4883.99C2985.83 4880.88 2977.23 4878.49 2968.52 4876.43C2968.19 4876.34 2967.85 4876.25 2967.47 4876.17C2961.27 4874.72 2954.99 4873.31 2948.74 4871.96C2945.26 4871.16 2941.79 4870.31 2938.37 4869.12C2936.22 4868.36 2934.12 4867.46 2932.08 4866.38C2929.8 4865.11 2927.65 4863.71 2925.52 4862.11C2917.03 4855.9 2910.8 4846.71 2906.57 4837.19C2904.9 4833.45 2903.39 4829.63 2902.03 4825.79C2901.02 4822.94 2899.97 4820.07 2898.79 4817.24C2897.98 4815.4 2897.07 4813.58 2896.09 4811.82C2895.71 4811.12 2895.25 4810.51 2894.8 4809.87H2894.75C2892.47 4811.4 2890.17 4812.89 2887.84 4814.37C2887.73 4814.45 2887.62 4814.48 2887.51 4814.58C2887.36 4814.65 2887.18 4814.78 2887.01 4814.89C2883.44 4817.08 2879.81 4819.1 2876.04 4820.92C2875.93 4820.96 2875.83 4820.99 2875.78 4821.03C2875.67 4821.07 2875.56 4821.14 2875.41 4821.18C2875.39 4821.23 2875.39 4821.23 2875.36 4821.21C2871.46 4822.96 2867.62 4824.26 2863.26 4824.47C2862.12 4824.5 2861 4824.43 2859.95 4824.28C2857.1 4823.86 2854.4 4822.83 2851.85 4821.52C2851.75 4821.51 2851.66 4821.45 2851.57 4821.4C2851.57 4821.4 2851.48 4821.38 2851.48 4821.34H2851.42C2849.18 4820.18 2847.05 4818.97 2844.81 4817.87C2839.22 4814.98 2833.56 4812.33 2827.67 4810.18C2823.32 4808.66 2818.87 4807.37 2814.6 4805.61C2810.25 4803.79 2806.33 4800.61 2804.37 4796.23C2803.45 4794.12 2802.77 4792 2802.16 4789.8C2799.13 4790.05 2796.02 4790.07 2792.97 4790.13C2786.63 4790.09 2780.27 4789.54 2773.91 4788.82L2771.7 4788.49C2759.9 4786.76 2748.5 4782.3 2737.99 4776.71C2727.68 4771.16 2719.46 4762.1 2715.25 4751.14C2711.63 4741.65 2710.3 4731.47 2707.4 4721.75C2707.27 4721.32 2707.07 4720.92 2706.89 4720.5C2706.81 4720.29 2706.7 4720.13 2706.57 4719.91C2706.46 4719.69 2706.3 4719.49 2706.13 4719.27C2705.95 4719.14 2705.82 4718.97 2705.65 4718.84C2704.96 4718.2 2704.16 4717.54 2703.37 4716.93C2702.22 4716.18 2701.02 4715.46 2699.81 4714.78C2698.89 4714.36 2697.95 4714.01 2697.01 4713.64C2691.48 4711.84 2685.62 4710.79 2680.54 4707.83C2676.22 4705.39 2673.06 4701.38 2671.13 4696.86C2669.85 4693.86 2669.2 4690.52 2668.74 4687.3C2667.13 4676.09 2668.98 4664.84 2670.16 4653.7C2670.27 4652.54 2670.4 4651.36 2670.47 4650.2C2668.74 4650.54 2667.05 4650.98 2665.32 4651.42C2662.25 4652.21 2659.17 4653.13 2656.19 4654.27C2655.78 4655 2655.42 4655.77 2655.07 4656.56C2655.07 4656.56 2655.07 4656.56 2655.07 4656.62C2653.5 4660.33 2652.18 4664.23 2651.02 4668.15C2649.88 4671.86 2649.13 4675.74 2647.55 4679.4C2646.43 4682.08 2644.52 4684.36 2642.09 4686.09C2639.31 4687.94 2636.06 4688.6 2632.75 4688.71C2627.84 4688.88 2622.99 4688.13 2618.14 4687.61L2617.71 4687.56C2617.51 4687.52 2617.31 4687.56 2617.13 4687.52C2611.35 4686.91 2605.56 4686.47 2599.79 4685.92C2597.02 4685.72 2594.2 4685.44 2591.43 4685.19C2587.05 4684.8 2582.84 4684.38 2578.76 4682.54C2575.58 4681.09 2573.08 4678.66 2570.97 4675.94C2568.41 4672.56 2567.48 4668.15 2566.91 4664.03C2566.41 4660.76 2566.59 4657.43 2566.72 4654.16C2566.78 4652.83 2566.87 4651.42 2567.07 4650.11L2567.2 4649.25C2568.21 4640.68 2570.12 4632.24 2572.09 4623.88C2573.06 4619.54 2574.09 4615.22 2575.12 4610.83C2576.01 4606.79 2576.94 4602.74 2577.49 4598.62C2577.62 4597.03 2577.77 4595.41 2577.75 4593.79C2577.72 4593.05 2577.62 4592.34 2577.53 4591.58C2577.49 4591.18 2577.4 4590.83 2577.31 4590.43L2577.27 4590.37C2577.2 4590.21 2577.13 4590.06 2577.05 4589.89C2577.02 4589.84 2576.96 4589.78 2576.96 4589.78C2576.83 4589.62 2576.7 4589.51 2576.58 4589.34C2576.41 4589.18 2576.19 4588.99 2576.01 4588.81C2575.64 4588.55 2575.29 4588.37 2574.92 4588.11C2574.46 4587.89 2574 4587.69 2573.49 4587.47C2571.91 4586.9 2570.34 4586.42 2568.73 4585.98C2563.36 4584.69 2557.97 4583.77 2552.53 4582.93C2546.7 4582.03 2541.02 4580.46 2535.46 4578.5C2529.52 4576.35 2523.98 4573.48 2518.6 4570.28C2513.27 4567.04 2508.16 4563.53 2503.4 4559.49C2500.11 4556.7 2496.94 4553.77 2493.51 4551.11C2491.32 4549.56 2489.08 4548.04 2486.83 4546.64C2483.84 4544.82 2480.93 4542.93 2478.19 4540.79C2475.36 4538.61 2473.01 4535.85 2470.86 4533.02C2468.73 4530.15 2467.18 4526.92 2465.79 4523.66C2463.03 4517.01 2461.6 4509.86 2459.78 4502.89C2459.78 4502.85 2459.78 4502.85 2459.74 4502.8C2459.21 4501 2458.67 4499.29 2457.99 4497.52C2457.74 4496.99 2457.41 4496.46 2457.15 4495.92C2456.69 4495.32 2456.28 4494.71 2455.84 4494.1C2455.38 4493.53 2454.96 4493.04 2454.45 4492.52C2453.91 4492.06 2453.36 4491.59 2452.79 4491.09C2450.95 4489.78 2449.02 4488.63 2447.07 4487.45C2445.53 4486.64 2443.97 4485.87 2442.28 4485.23C2441.49 4484.91 2440.68 4484.69 2439.87 4484.49C2439.24 4484.34 2438.58 4484.2 2437.96 4484.1C2437.57 4484.09 2437.17 4484.09 2436.74 4484.07C2435.81 4486.11 2435.02 4488.15 2434.04 4490.08C2432.46 4493.09 2430.64 4495.83 2428.36 4498.26V4498.31C2428.25 4498.41 2428.2 4498.48 2428.12 4498.57C2426.74 4499.89 2425.29 4501.05 2423.58 4501.99C2421.47 4503.06 2419.3 4503.63 2416.95 4503.92C2413.09 4504.43 2409.13 4503.22 2405.62 4501.62C2399.63 4498.87 2394.5 4494.53 2390.04 4489.69C2386.56 4485.83 2383.36 4481.83 2379.78 4478.06C2378.14 4476.44 2376.51 4474.82 2374.89 4473.17C2374.08 4472.3 2373.27 4471.4 2372.57 4470.47C2369.94 4467.23 2368.38 4463.44 2367.79 4459.33C2366.98 4453.41 2368.16 4447.38 2369.5 4441.61C2370.62 4436.99 2371.93 4432.47 2373.09 4427.86C2373.62 4425.58 2374.04 4423.28 2374.39 4420.96C2374.5 4419.6 2374.54 4418.28 2374.59 4416.96C2374.48 4415.32 2374.37 4413.72 2374.17 4412.07C2373.75 4409.9 2373.29 4407.75 2372.81 4405.61C2372.74 4405.45 2372.7 4405.3 2372.68 4405.21C2371.58 4405.34 2370.48 4405.48 2369.32 4405.61C2368.77 4405.69 2368.22 4405.8 2367.66 4405.85C2367.11 4405.93 2366.54 4406.04 2365.99 4406.15C2362.35 4406.75 2358.8 4407.51 2355.27 4408.43C2348.55 4410.06 2341.91 4411.64 2335.15 4412.82L2335.09 4412.86C2334.39 4412.95 2333.68 4413.1 2332.92 4413.19C2332.21 4413.33 2331.47 4413.41 2330.75 4413.5C2329.85 4413.67 2328.9 4413.78 2327.94 4413.89C2327.22 4414.03 2326.47 4414.12 2325.79 4414.16C2323.79 4414.46 2321.78 4414.66 2319.74 4414.75C2319.08 4414.86 2318.46 4414.86 2317.79 4414.91C2313.25 4415.04 2308.79 4414.97 2304.23 4414.75C2299.78 4414.49 2295.28 4414.03 2290.79 4414.11C2288.44 4414.11 2286.14 4414.25 2283.88 4414.53C2282.37 4414.69 2280.86 4414.97 2279.39 4415.3C2277.87 4415.61 2276.43 4416.04 2274.93 4416.51C2274.21 4416.75 2273.47 4416.99 2272.76 4417.27C2270.63 4418.09 2268.6 4419.07 2266.67 4420.21C2263.47 4422.19 2260.48 4424.57 2257.81 4427.23C2256.89 4428.19 2255.96 4429.18 2255.11 4430.19C2253.4 4432.19 2251.84 4434.38 2250.39 4436.62C2249.69 4437.75 2248.97 4438.92 2248.35 4440.06C2247.68 4441.24 2247.06 4442.43 2246.49 4443.63C2245.86 4444.86 2245.3 4446.07 2244.76 4447.32C2243.71 4449.73 2242.76 4452.25 2241.91 4454.73V4454.79C2241.55 4455.91 2241.14 4457.08 2240.81 4458.22C2240.44 4459.34 2240.13 4460.48 2239.85 4461.68C2239.63 4462.58 2239.39 4463.48 2239.21 4464.38C2238.88 4466.02 2238.59 4467.63 2238.35 4469.27C2238.35 4469.33 2238.35 4469.33 2238.33 4469.36C2238.18 4470.32 2238.09 4471.29 2238 4472.27C2237.98 4472.65 2237.94 4473.06 2237.92 4473.44C2237.63 4477.19 2237.61 4480.98 2237.65 4484.73C2237.83 4494.55 2237.92 4504.36 2237.76 4514.18C2237.72 4516.79 2237.69 4519.38 2237.59 4522.03C2237.39 4530.08 2237 4538.13 2236.36 4546.22C2235.92 4550.92 2235.33 4555.57 2234.47 4560.21C2234.01 4562.41 2233.44 4564.58 2232.72 4566.75V4566.81C2232.65 4567.04 2232.5 4567.26 2232.43 4567.5C2232.13 4568.15 2231.84 4568.79 2231.55 4569.43C2231.21 4570.08 2230.83 4570.67 2230.44 4571.29C2229.54 4572.49 2228.57 4573.68 2227.61 4574.82C2227.19 4575.26 2226.75 4575.63 2226.29 4576.05C2225.99 4576.36 2225.64 4576.69 2225.31 4576.99C2224.43 4577.65 2223.55 4578.31 2222.63 4578.9C2222.15 4579.18 2221.71 4579.45 2221.23 4579.67C2219.71 4580.63 2218.16 4581.49 2216.62 4582.25C2215.48 4582.93 2214.32 4583.5 2213.16 4584.05C2212.52 4584.36 2211.88 4584.71 2211.25 4585C2210.61 4585.35 2209.93 4585.65 2209.28 4585.94C2205.39 4587.69 2201.47 4589.18 2197.5 4590.72C2196.31 4591.18 2195.09 4591.69 2193.88 4592.21C2192.61 4592.82 2191.4 4593.42 2190.17 4594.03C2187.81 4595.32 2185.44 4596.68 2183.22 4598.18C2182.24 4598.83 2181.31 4599.47 2180.33 4600.11C2179.4 4600.81 2178.4 4601.51 2177.52 4602.21C2175.63 4603.7 2173.88 4605.22 2172.3 4606.95C2171.2 4608.07 2170.26 4609.21 2169.34 4610.41C2168.86 4611.03 2168.42 4611.6 2167.94 4612.23L2166.64 4614.1C2166.47 4614.29 2166.34 4614.45 2166.16 4614.67C2165.94 4614.84 2165.66 4615.04 2165.39 4615.21C2165.33 4615.24 2165.22 4615.28 2165.17 4615.32C2159.01 4617.76 2152.5 4619.41 2146.33 4621.95C2144.76 4622.56 2143.24 4623.22 2141.77 4623.9C2140.24 4624.56 2138.72 4625.22 2137.23 4625.94C2134.38 4627.3 2131.51 4628.64 2128.61 4630.04C2128.51 4630.08 2128.4 4630.11 2128.24 4630.19C2128.18 4630.22 2128.15 4630.22 2128.09 4630.26C2128.04 4630.3 2127.94 4630.28 2127.89 4630.31C2127.89 4630.37 2127.83 4630.35 2127.83 4630.35C2126.68 4630.87 2125.52 4631.34 2124.32 4631.77C2123.02 4632.32 2121.71 4632.81 2120.41 4633.22C2119.53 4633.59 2118.64 4633.9 2117.76 4634.16C2117.1 4634.3 2116.47 4634.51 2115.83 4634.62C2115.15 4634.86 2114.49 4635.02 2113.85 4635.11C2113.11 4635.35 2112.41 4635.5 2111.66 4635.59C2110.89 4635.83 2110.13 4635.96 2109.32 4636.09L2109.27 4636.12C2103.06 4637.17 2096.81 4637.89 2090.56 4638.55C2086.16 4638.99 2081.73 4639.38 2077.36 4640.02C2075.94 4640.26 2074.47 4640.54 2073.06 4640.77L2073 4640.81C2071.53 4641.09 2070.1 4641.47 2068.66 4641.8C2067.28 4642.19 2065.89 4642.58 2064.56 4642.98C2064.51 4643.02 2064.45 4643.05 2064.4 4643.05C2062.28 4643.73 2060.15 4644.45 2058.07 4645.19C2055.89 4645.96 2053.7 4646.82 2051.53 4647.58C2049.38 4648.38 2047.21 4649.21 2045.02 4649.97C2044.05 4650.31 2043.09 4650.72 2042.12 4651.01C2041.18 4651.42 2040.21 4651.71 2039.21 4652.06C2037.06 4652.69 2034.97 4653.22 2032.74 4653.62C2030.08 4654.03 2027.36 4654.36 2024.67 4654.91C2020.98 4655.61 2017.34 4656.6 2013.9 4657.96C2012.4 4658.53 2010.92 4659.14 2009.44 4659.87C2009.44 4659.91 2009.44 4659.91 2009.38 4659.85C2007.95 4660.63 2006.55 4661.42 2005.19 4662.24C2005.19 4662.24 2005.19 4662.24 2005.13 4662.24C2004.25 4662.85 2003.39 4663.42 2002.56 4664.03C2000.74 4665.39 1999.05 4666.8 1997.34 4668.38V4668.44C1996.26 4669.51 1995.17 4670.83 1994.29 4672.17C1993.92 4672.61 1993.68 4673.02 1993.46 4673.48C1993.13 4674.01 1992.91 4674.58 1992.67 4675.13C1992.45 4675.68 1992.27 4676.25 1992.06 4676.86C1991.81 4677.56 1991.61 4678.31 1991.4 4679.03C1990.89 4681.18 1990.72 4683.4 1991.27 4685.61C1992.16 4688.99 1993.7 4691.91 1995.96 4694.56C1997.4 4696.2 1998.94 4697.7 2000.56 4699.16C2001.26 4699.76 2002.05 4700.41 2002.8 4701.01C2003.53 4701.66 2004.29 4702.26 2005.04 4702.81C2007.73 4704.93 2010.48 4706.95 2013.35 4708.84C2014.16 4709.36 2014.99 4709.87 2015.83 4710.39C2016.64 4710.85 2017.45 4711.36 2018.26 4711.93C2018.08 4712.24 2017.93 4712.52 2017.69 4712.83C2017.38 4713.24 2017.08 4713.62 2016.73 4714.03C2016.55 4714.28 2016.37 4714.5 2016.18 4714.73C2016 4714.95 2015.87 4715.13 2015.7 4715.3C2015.01 4715.99 2014.27 4716.67 2013.53 4717.35C2012.65 4718.05 2011.72 4718.71 2010.74 4719.3C2007.93 4721.05 2005.12 4722.76 2002.3 4724.52C2001.72 4724.87 2001.16 4725.24 2000.58 4725.55C1999.99 4725.86 1999.36 4726.16 1998.77 4726.47C1998.66 4726.55 1998.61 4726.6 1998.5 4726.64C1998.39 4726.71 1998.28 4726.75 1998.19 4726.78L1998.13 4726.82C1997.98 4726.84 1997.87 4726.93 1997.76 4727C1997.71 4727 1997.62 4727.02 1997.56 4727.08C1996.46 4727.56 1995.35 4728.09 1994.2 4728.51C1991.51 4729.74 1988.77 4730.86 1986.05 4732.04C1982.32 4733.66 1978.59 4735.24 1974.73 4736.43L1974.68 4736.47C1973.7 4736.77 1972.76 4737.02 1971.75 4737.22C1971.31 4737.26 1970.8 4737.33 1970.3 4737.35C1969.86 4737.33 1969.42 4737.32 1968.98 4737.32C1968.06 4737.22 1967.16 4737.04 1966.24 4736.86C1964.91 4736.53 1963.59 4736.12 1962.21 4735.72C1961.44 4735.35 1960.63 4735.04 1959.86 4734.69C1958.9 4734.16 1957.97 4733.57 1957.07 4732.94C1956.31 4732.39 1955.56 4731.78 1954.8 4731.18C1952.56 4728.97 1950.56 4726.62 1948.37 4724.38C1945.21 4721.16 1941.61 4718.51 1937.87 4715.99C1932.27 4712.23 1926.05 4708.25 1919.35 4707.02C1915.71 4706.4 1911.86 4706.36 1908.13 4706.32C1904.64 4706.36 1901.11 4706.18 1897.6 4706.31C1890.34 4706.53 1883.26 4708.14 1876.09 4709.41C1874.13 4709.73 1872.12 4709.96 1870.14 4710.07C1868.91 4710.09 1867.73 4710.06 1866.5 4710.04C1865.54 4709.89 1864.51 4709.8 1863.5 4709.6C1859.7 4708.7 1855.98 4707.52 1852.25 4706.42C1848.28 4705.26 1844.31 4704.12 1840.34 4703.05C1839.44 4702.83 1838.54 4702.59 1837.64 4702.32C1837.42 4698.44 1837.16 4694.56 1836.53 4690.68C1835.28 4683.4 1834.09 4676.05 1832.34 4668.9C1831.39 4665.06 1830.27 4661.25 1828.61 4657.72C1827.09 4654.36 1825.52 4650.92 1822.91 4648.24C1821.08 4646.29 1819 4644.71 1816.55 4643.57C1813.37 4642.08 1809.86 4641.56 1806.46 4640.96C1805.14 4640.61 1803.81 4640.22 1802.55 4639.84C1799.57 4638.66 1796.66 4637.3 1793.69 4636.12C1788.7 4634.12 1783.7 4632.36 1778.58 4630.76C1772.49 4628.92 1766.13 4627.26 1759.79 4626.58C1754.66 4626.03 1749.2 4626.57 1744.39 4628.57C1741.13 4629.91 1738.14 4631.58 1735.18 4633.62C1732.33 4635.63 1729.62 4637.89 1727.11 4640.31C1725.86 4641.51 1724.63 4642.76 1723.45 4644.07C1722.33 4645.37 1721.19 4646.69 1720.07 4648V4648.05C1719.81 4648.42 1719.53 4648.72 1719.28 4649.08C1718.71 4649.89 1718.15 4650.65 1717.6 4651.44C1717.29 4651.93 1716.98 4652.43 1716.65 4652.93C1716.26 4653.55 1715.91 4654.25 1715.56 4654.93C1715.27 4655.63 1714.97 4656.33 1714.72 4657.02C1714.51 4657.72 1714.26 4658.48 1714.11 4659.19C1714 4659.58 1713.91 4659.91 1713.85 4660.28C1713.8 4660.66 1713.74 4660.99 1713.63 4661.38C1713.45 4662.34 1713.36 4663.31 1713.36 4664.28C1713.34 4665.11 1713.39 4665.96 1713.52 4666.82C1713.56 4667.52 1713.71 4668.24 1713.85 4668.88C1713.95 4669.34 1714.02 4669.74 1714.11 4670.15C1714.22 4670.46 1714.26 4670.81 1714.37 4671.12C1715.54 4675.24 1717.44 4679.1 1719.97 4682.52C1720.8 4683.62 1721.72 4684.69 1722.6 4685.75C1723.49 4686.82 1724.4 4687.83 1725.34 4688.92C1726.22 4689.93 1727.07 4690.94 1727.92 4691.89C1730.12 4694.69 1732.2 4697.54 1734.15 4700.48C1734.83 4701.56 1735.45 4702.69 1736.02 4703.81C1736.79 4705.64 1737.49 4707.52 1738.1 4709.38C1738.56 4710.98 1738.96 4712.56 1739.33 4714.14C1739.37 4714.23 1739.4 4714.34 1739.39 4714.43C1739.83 4716.16 1740.16 4717.83 1740.51 4719.56V4719.61C1740.65 4720.66 1740.78 4721.71 1740.87 4722.81C1740.87 4723.22 1740.86 4723.6 1740.84 4724.04L1740.65 4725.29C1740.53 4725.77 1740.42 4726.25 1740.25 4726.77C1739.2 4729.52 1737.84 4732.11 1736.52 4734.78C1736.32 4735.09 1736.17 4735.48 1735.98 4735.79C1735.98 4735.79 1735.98 4735.79 1735.98 4735.85C1735.86 4736.07 1735.71 4736.34 1735.58 4736.56C1734.17 4739.27 1732.77 4742 1731.67 4744.8C1731.21 4745.86 1730.8 4746.99 1730.45 4748.07C1729.83 4749.95 1729.4 4751.91 1729.11 4753.88C1728.78 4756.14 1728.69 4758.49 1728.69 4760.75C1728.72 4761.89 1728.74 4763.07 1728.82 4764.23C1728.98 4766.07 1729.17 4767.87 1729.4 4769.63C1729.61 4771.29 1729.86 4772.94 1730.05 4774.6C1730.56 4778.16 1730.91 4781.76 1731.08 4785.39C1731.26 4789.1 1731.46 4792.83 1731.96 4796.49C1732.12 4797.74 1732.29 4798.99 1732.49 4800.2C1732.71 4801.71 1732.99 4803.18 1733.26 4804.69C1733.54 4805.86 1733.76 4807.02 1734.04 4808.2C1735.62 4815.22 1737.69 4822.17 1739.07 4829.26C1739.39 4831.23 1739.64 4833.14 1739.85 4835.13V4835.18C1739.81 4835.37 1739.85 4835.57 1739.81 4835.77L1739.72 4836.45C1739.68 4836.69 1739.59 4836.93 1739.51 4837.17C1739.33 4837.68 1739.11 4838.23 1738.89 4838.8C1738.82 4838.99 1738.72 4839.23 1738.6 4839.45V4839.5C1738.52 4839.65 1738.47 4839.78 1738.34 4839.96C1738.12 4840.22 1737.86 4840.53 1737.62 4840.84C1737.46 4840.97 1737.27 4841.14 1737.16 4841.27L1736.89 4841.47C1736.78 4841.56 1736.61 4841.63 1736.5 4841.71C1736.28 4841.87 1736.06 4841.98 1735.8 4842.09C1735.75 4842.13 1735.69 4842.13 1735.65 4842.11C1735.08 4842.37 1734.5 4842.63 1733.87 4842.85C1733.67 4842.92 1733.47 4842.94 1733.25 4842.99C1733.1 4843.03 1732.95 4843.05 1732.79 4843.09C1731.76 4843.03 1730.73 4843.03 1729.7 4842.98L1728.98 4842.87C1728.6 4842.76 1728.23 4842.61 1727.86 4842.5C1721.85 4840.18 1716.04 4837.22 1710.18 4834.5C1703.83 4831.51 1697.33 4829.17 1690.54 4827.44C1683.43 4825.57 1675.95 4825 1668.6 4825.07C1662.38 4825.15 1656.23 4826.16 1649.98 4826.52C1649.09 4826.54 1648.16 4826.56 1647.22 4826.52C1646.46 4826.56 1645.78 4826.56 1645.05 4826.54C1644.31 4826.58 1643.63 4826.54 1642.88 4826.52C1642.18 4826.56 1641.45 4826.56 1640.77 4826.51C1638.21 4826.23 1635.69 4825.86 1633.16 4825.35C1625.45 4823.53 1617.62 4820.81 1609.7 4820.09C1607.48 4819.82 1605.23 4819.72 1602.99 4819.89C1602.09 4819.96 1601.15 4820.07 1600.23 4820.22C1596.76 4820.75 1593.38 4821.67 1590.11 4822.83C1586.83 4824.02 1583.67 4825.42 1580.51 4826.89C1580.51 4826.95 1580.46 4826.93 1580.4 4826.93C1578.34 4827.9 1576.28 4828.88 1574.21 4829.87C1573.58 4830.13 1572.9 4830.42 1572.28 4830.57C1571.58 4830.92 1570.97 4831.12 1570.29 4831.36C1569.87 4831.49 1569.52 4831.54 1569.17 4831.63C1568.76 4831.73 1568.4 4831.82 1568.05 4831.91C1567.99 4831.91 1567.99 4831.95 1567.94 4831.95C1567.4 4831.62 1566.82 4831.23 1566.28 4830.86C1564.5 4829.56 1562.83 4828.23 1561.17 4826.82C1559.96 4825.66 1558.86 4824.47 1557.75 4823.22C1557 4822.32 1556.36 4821.38 1555.71 4820.4C1555.29 4819.65 1554.9 4818.9 1554.46 4818.16C1554.22 4817.48 1553.93 4816.75 1553.69 4816.08C1553.51 4815.37 1553.3 4814.65 1553.16 4813.95C1552.64 4810.09 1552.59 4806.14 1551.96 4802.26C1551.61 4799.56 1551.23 4796.84 1550.44 4794.26C1549.61 4791.49 1548.62 4788.82 1547.39 4786.19C1542.86 4776.73 1535.2 4769.25 1526.52 4763.64C1522.26 4760.85 1517.7 4758.36 1512.94 4756.58C1512 4756.2 1511.03 4755.86 1510.05 4755.51C1509.26 4755.24 1508.45 4754.98 1507.66 4754.72C1504.02 4753.7 1500.35 4752.96 1496.52 4752.89C1493.32 4752.87 1490.24 4753.11 1487.2 4753.64C1486.19 4753.84 1485.16 4754.08 1484.13 4754.37L1484.08 4754.41C1481.56 4755.18 1479 4756.03 1476.54 4756.86C1476.08 4756.99 1475.62 4757.11 1475.16 4757.24C1475.62 4757.11 1476.03 4756.99 1476.5 4756.8C1474.59 4757.41 1472.7 4757.87 1470.82 4758.33C1468.73 4758.86 1466.6 4759.34 1464.41 4759.8C1460.03 4760.74 1455.66 4761.67 1451.23 4762.45L1451.17 4762.48C1445.66 4763.44 1440.07 4764.06 1434.65 4765.48C1433.62 4765.72 1432.65 4766.03 1431.67 4766.32C1428.67 4767.26 1425.77 4768.36 1422.76 4769.36C1420.18 4770.11 1417.65 4770.68 1415 4771.23C1411.93 4771.71 1408.84 4771.95 1405.72 4772.13C1399.83 4772.3 1394.08 4772.3 1388.23 4771.88C1382.46 4771.32 1376.75 4770.39 1371.05 4769.21C1366.41 4768.2 1361.78 4766.97 1357.21 4765.55C1352.87 4764.23 1348.6 4762.78 1344.21 4761.58C1339.28 4760.22 1334.41 4759.21 1329.3 4758.8C1325.02 4758.47 1320.83 4758.51 1316.58 4758.97C1310.53 4759.65 1304.49 4760.64 1298.6 4762.1C1297.08 4762.46 1295.53 4762.89 1294.01 4763.24C1293.75 4763.29 1293.55 4763.36 1293.35 4763.38C1292.02 4763.73 1290.68 4764.08 1289.39 4764.49C1286.31 4765.4 1283.25 4766.43 1280.35 4767.74C1277.24 4769.1 1274.12 4770.57 1271.34 4772.48C1269.8 4773.53 1268.2 4774.72 1266.73 4776.08C1266.21 4776.56 1265.75 4777.02 1265.3 4777.5C1264.84 4777.98 1264.41 4778.51 1264.03 4779.04C1263.6 4779.52 1263.24 4780.05 1262.91 4780.64C1262.65 4781.01 1262.45 4781.42 1262.24 4781.84C1262.12 4782.06 1261.97 4782.33 1261.88 4782.61C1261.66 4783.12 1261.44 4783.62 1261.31 4784.15C1260.44 4787.43 1260.31 4790.64 1261.16 4793.88C1261.55 4795.31 1262.08 4796.73 1262.67 4798.09C1264.17 4801.51 1265.81 4804.8 1267.45 4808.14C1267.98 4809.25 1268.49 4810.4 1269.01 4811.56C1269.12 4811.82 1269.27 4812.15 1269.43 4812.41C1270.02 4813.77 1270.66 4815.15 1271.34 4816.52C1271.6 4817.15 1271.89 4817.83 1272.24 4818.44C1272.81 4819.61 1273.44 4820.68 1274.08 4821.75C1274.73 4822.72 1275.33 4823.69 1276.03 4824.59C1276.56 4825.31 1277.15 4826.03 1277.74 4826.71C1277.83 4826.82 1277.91 4826.87 1278 4827C1278.55 4827.63 1279.16 4828.2 1279.8 4828.8C1279.89 4828.91 1280.02 4828.99 1280.11 4829.04C1280.72 4829.58 1281.32 4830.11 1282.06 4830.55C1282.13 4830.66 1282.28 4830.73 1282.37 4830.79C1283.49 4831.6 1284.67 4832.26 1285.92 4832.83C1287.12 4833.45 1288.37 4833.93 1289.69 4834.32C1290.63 4834.61 1291.53 4834.89 1292.48 4835.13C1293.44 4835.37 1294.34 4835.59 1295.29 4835.79C1297.15 4836.21 1299.03 4836.52 1300.88 4836.91H1300.94C1302.19 4837.13 1303.47 4837.37 1304.72 4837.61C1305.72 4837.85 1306.67 4838.09 1307.67 4838.34C1308.86 4838.66 1310.04 4839.04 1311.16 4839.39C1311.31 4839.41 1311.45 4839.43 1311.58 4839.5C1312.89 4840 1314.19 4840.53 1315.48 4841.16C1316.49 4841.71 1317.52 4842.33 1318.51 4842.98C1318.95 4843.33 1319.39 4843.66 1319.83 4844.01C1320.74 4844.92 1321.64 4845.84 1322.48 4846.76C1322.92 4847.37 1323.35 4847.92 1323.81 4848.53L1323.84 4848.58C1323.57 4848.78 1323.29 4848.99 1323.01 4849.21C1320.9 4850.86 1318.88 4852.59 1316.88 4854.47V4854.52C1314.74 4856.62 1312.72 4858.73 1310.85 4861.03V4861.08C1310.13 4862.02 1309.39 4862.9 1308.68 4863.77C1307.96 4864.69 1307.24 4865.57 1306.47 4866.45C1305.44 4867.48 1304.39 4868.51 1303.27 4869.48C1302.56 4870.07 1301.82 4870.6 1301.12 4871.05C1299.72 4872.13 1298.31 4873.1 1296.89 4874.02C1296.23 4874.52 1295.53 4874.96 1294.87 4875.4C1293.51 4876.25 1292.21 4877.07 1290.81 4877.9C1289.49 4878.78 1288.09 4879.67 1286.78 4880.57C1285.9 4881.17 1285.04 4881.78 1284.19 4882.44C1282.19 4883.97 1280.28 4885.6 1278.53 4887.48V4887.53C1276.43 4889.8 1274.52 4892.37 1273.51 4895.27C1273.35 4895.75 1273.18 4896.21 1273.05 4896.73C1272.94 4897.2 1272.81 4897.72 1272.74 4898.21L1272.67 4898.75C1272.13 4903.69 1273.84 4908.56 1277.41 4912.04C1278.05 4912.68 1278.75 4913.32 1279.5 4913.88C1282.56 4916.28 1286.12 4918.14 1289.54 4920.02C1291.14 4920.9 1292.72 4921.82 1294.32 4922.74C1295.5 4923.4 1296.67 4924.11 1297.85 4924.83C1299.21 4925.62 1300.61 4926.47 1301.95 4927.35C1302.72 4927.81 1303.47 4928.31 1304.25 4928.82L1305.99 4929.96C1307.34 4930.93 1308.64 4932.02 1309.93 4933.05C1311.2 4934.11 1312.41 4935.24 1313.64 4936.3C1316.12 4938.54 1318.55 4940.77 1321.03 4942.96C1326.05 4947.39 1331.53 4951.93 1337.81 4954.37C1339.91 4955.16 1342.06 4955.93 1344.21 4956.39C1344.93 4956.54 1345.64 4956.71 1346.36 4956.8C1347.32 4956.95 1348.25 4957.02 1349.17 4957.07C1350.44 4957.11 1351.69 4957.05 1352.98 4956.98C1354.17 4956.91 1355.33 4956.78 1356.47 4956.65H1356.53C1359.08 4956.34 1361.69 4955.97 1364.25 4955.66C1365.15 4955.49 1366.01 4955.42 1366.91 4955.31C1368.66 4955.07 1370.4 4954.94 1372.15 4954.79C1373.73 4954.78 1375.2 4954.76 1376.76 4954.89C1377.44 4954.94 1378.07 4955.03 1378.75 4955.13C1379.61 4955.25 1380.53 4955.38 1381.43 4955.57C1382 4955.69 1382.61 4955.88 1383.18 4956.06C1383.9 4956.23 1384.65 4956.43 1385.35 4956.67C1386.8 4957.22 1388.22 4957.88 1389.61 4958.53C1390.97 4959.32 1392.33 4960.11 1393.64 4960.99C1395.07 4961.98 1396.38 4963.07 1397.81 4964.11C1399.23 4965.16 1400.61 4966.19 1402.04 4967.18C1405.04 4969.21 1408.12 4971.03 1411.25 4972.81C1415.07 4975 1418.84 4977.17 1422.66 4979.21H1422.72C1423.9 4979.87 1425.11 4980.44 1426.29 4981.06C1427.52 4981.69 1428.71 4982.31 1429.91 4982.86C1430.83 4983.34 1431.69 4983.76 1432.57 4984.19C1433.49 4984.61 1434.41 4985.09 1435.27 4985.57C1438.53 4987.22 1441.8 4989.08 1444.85 4991.1C1446.73 4992.46 1448.58 4993.91 1450.33 4995.4C1450.97 4996.02 1451.52 4996.61 1452.13 4997.24L1452.83 4998.18C1453.21 4998.87 1453.56 4999.52 1453.95 5000.27C1454.17 5000.84 1454.37 5001.41 1454.58 5002.04C1455.26 5004.39 1455.84 5006.85 1456.62 5009.28C1457.15 5010.97 1457.79 5012.64 1458.49 5014.28C1459.08 5015.64 1459.76 5017.02 1460.46 5018.36C1461.56 5020.53 1463.05 5022.53 1464.76 5024.3C1465.18 5024.76 1465.66 5025.22 1466.14 5025.67C1466.65 5026.19 1467.17 5026.7 1467.74 5027.15C1468.78 5028.08 1469.92 5028.98 1471.17 5029.9C1473.75 5031.81 1476.41 5033.38 1479.26 5034.83C1483.1 5036.81 1487.06 5038.34 1491.21 5039.57C1492.09 5039.85 1492.99 5040.12 1493.89 5040.36C1494.89 5040.6 1495.84 5040.84 1496.84 5041.1C1497.68 5041.32 1498.6 5041.5 1499.46 5041.67C1500.46 5041.87 1501.47 5042.05 1502.48 5042.26C1504.78 5042.7 1507.09 5043.08 1509.35 5043.41C1511.52 5043.78 1513.67 5044.15 1515.82 5044.55C1517.59 5044.96 1519.39 5045.42 1521.12 5046.02C1523.69 5046.98 1526.19 5048.05 1528.62 5049.19C1531.45 5050.69 1534.15 5052.37 1536.85 5054.13C1538.42 5055.25 1539.9 5056.45 1541.39 5057.7C1541.82 5058.16 1542.24 5058.6 1542.66 5059.11C1543.42 5060.01 1544.17 5060.95 1544.79 5061.98C1545.66 5063.49 1546.5 5065.03 1547.37 5066.54C1547.51 5066.85 1547.72 5067.13 1547.88 5067.4C1548.4 5068.32 1548.95 5069.22 1549.5 5070.1C1550.05 5070.97 1550.62 5071.85 1551.25 5072.66C1553.64 5075.86 1556.47 5078.69 1559.08 5081.72C1559.44 5082.22 1559.81 5082.71 1560.18 5083.21C1560.46 5083.69 1560.69 5084.13 1560.91 5084.61C1561.14 5085.09 1561.3 5085.6 1561.48 5086.11C1561.5 5086.26 1561.54 5086.37 1561.56 5086.57C1561.74 5087.68 1561.93 5088.74 1562.11 5089.85C1562.66 5093.12 1563.27 5096.32 1564.48 5099.53C1564.76 5100.31 1565.09 5101.1 1565.42 5101.83C1565.75 5102.62 1566.08 5103.36 1566.43 5104.09C1567.44 5106.21 1568.58 5108.25 1569.9 5110.21C1570.31 5110.82 1570.77 5111.43 1571.21 5112.03C1572.07 5113.19 1573.05 5114.31 1574.02 5115.34C1574.57 5115.97 1575.18 5116.5 1575.8 5117.03C1576.41 5117.57 1577.02 5118.1 1577.7 5118.54C1578.32 5119.04 1578.98 5119.48 1579.66 5119.86C1580.97 5120.66 1582.31 5121.34 1583.71 5121.89C1584.44 5122.2 1585.23 5122.51 1585.99 5122.77C1587.59 5123.3 1589.26 5123.69 1590.97 5124C1592.55 5124.28 1594.2 5124.42 1595.86 5124.57C1597.22 5124.72 1598.52 5124.86 1599.87 5125.07L1600.79 5125.2C1600.97 5125.23 1601.21 5125.31 1601.39 5125.38C1601.63 5125.42 1601.81 5125.49 1602.05 5125.58C1603.12 5125.99 1604.19 5126.48 1605.23 5127C1605.82 5127.33 1606.41 5127.66 1606.96 5128.03C1607.33 5128.28 1607.66 5128.58 1608.03 5128.82C1608.16 5128.98 1608.32 5129.15 1608.49 5129.33C1608.62 5129.5 1608.74 5129.66 1608.82 5129.77C1609.09 5130.25 1609.31 5130.69 1609.55 5131.17C1609.77 5131.68 1609.98 5132.27 1610.16 5132.79C1610.4 5133.56 1610.58 5134.28 1610.71 5135.03V5135.08C1610.73 5135.29 1610.8 5135.54 1610.82 5135.73C1610.93 5136.63 1611.04 5137.53 1611.12 5138.49C1611.19 5138.94 1611.23 5139.39 1611.26 5139.85C1611.26 5140.19 1611.26 5140.58 1611.24 5140.93C1611.28 5142.02 1611.26 5143.15 1611.19 5144.28V5144.33C1611.19 5144.72 1611.12 5145.16 1611.06 5145.58L1610.97 5146.21C1610.91 5146.21 1610.91 5146.21 1610.91 5146.24C1610.73 5146.46 1610.49 5146.72 1610.31 5147C1609.48 5147.92 1608.63 5148.72 1607.62 5149.5C1607.31 5149.85 1606.93 5150.18 1606.54 5150.53C1604.37 5152.53 1602.09 5154.4 1599.87 5156.44C1599.13 5157.12 1598.34 5157.84 1597.53 5158.56C1597.48 5158.65 1597.4 5158.72 1597.29 5158.82C1595.58 5160.43 1593.89 5162.16 1592.31 5163.89C1591.48 5164.81 1590.73 5165.67 1589.94 5166.59C1589.17 5167.51 1588.43 5168.48 1587.75 5169.42C1587.02 5170.4 1586.34 5171.39 1585.69 5172.36C1585.05 5173.36 1584.46 5174.35 1583.93 5175.4C1583.38 5176.44 1582.88 5177.51 1582.42 5178.58C1581.96 5179.73 1581.54 5180.91 1581.21 5182.14C1580.88 5183.37 1580.64 5184.66 1580.45 5185.91C1580.27 5187.16 1580.14 5188.43 1580.09 5189.79C1579.98 5191.15 1579.98 5192.58 1580 5194.05V5194.11C1580.11 5199.68 1581.43 5205.1 1583.8 5210.12C1584.37 5211.28 1584.94 5212.45 1585.6 5213.58C1586.23 5214.75 1586.89 5215.84 1587.57 5216.96C1589.66 5220.41 1592.04 5223.76 1594.24 5227.14C1595.42 5229.15 1596.52 5231.11 1597.55 5233.19C1598.58 5235.56 1599.57 5237.91 1600.44 5240.36C1601.59 5244.86 1602.2 5249.48 1603.23 5253.96C1604.35 5258.76 1605.66 5263.61 1607.75 5268.12C1611.28 5275.67 1616.72 5282.18 1622.05 5288.52C1622.13 5288.68 1622.26 5288.8 1622.35 5288.91H1622.4C1625.4 5292.6 1628.43 5296.18 1631.45 5299.82C1633.52 5302.4 1635.69 5305.08 1637.71 5307.78C1638.41 5308.67 1639.08 5309.6 1639.68 5310.52C1640.51 5311.97 1641.32 5313.43 1642.09 5314.92C1642.6 5316.07 1643.03 5317.21 1643.41 5318.35C1643.82 5319.7 1644.15 5321.02 1644.52 5322.31C1645.6 5326.31 1646.59 5330.28 1647.84 5334.22C1649.87 5340.56 1652.94 5346.77 1656.56 5352.36C1657.03 5353.13 1657.53 5353.83 1658.06 5354.55C1661.7 5359.6 1666.35 5363.79 1671.74 5367.03C1674.86 5368.92 1677.99 5370.8 1681.06 5372.67C1682.49 5373.57 1683.98 5374.53 1685.42 5375.48C1685.78 5375.72 1686.19 5375.98 1686.54 5376.24C1689.17 5378.09 1691.79 5380.01 1694.55 5381.73C1695.45 5382.3 1696.35 5382.89 1697.31 5383.43C1698.95 5384.31 1700.6 5385.19 1702.2 5386.05C1703.03 5386.48 1703.83 5386.94 1704.66 5387.4C1705.47 5387.86 1706.26 5388.32 1707.07 5388.83C1708.1 5389.57 1709.09 5390.39 1710.1 5391.29C1710.75 5391.88 1711.35 5392.56 1711.98 5393.24C1712.4 5393.74 1712.81 5394.31 1713.17 5394.9C1713.49 5395.43 1713.76 5395.93 1714.07 5396.46V5396.51C1714.15 5396.72 1714.2 5396.94 1714.33 5397.14C1714.37 5397.29 1714.44 5397.41 1714.46 5397.56C1714.5 5397.62 1714.53 5397.73 1714.57 5397.78C1714.66 5398.15 1714.72 5398.5 1714.81 5398.85L1714.77 5399.03C1714.79 5399.27 1714.79 5399.58 1714.75 5399.86L1714.68 5400.39C1714.53 5401.05 1714.33 5401.77 1714.13 5402.38C1713.15 5404.99 1712.11 5407.54 1711.08 5410.15C1710.54 5411.4 1710.01 5412.71 1709.53 5414.01C1709.39 5414.38 1709.24 5414.77 1709.07 5415.13C1708.28 5417.19 1707.53 5419.23 1706.79 5421.29C1706.78 5421.49 1706.7 5421.68 1706.61 5421.86C1706.17 5423.19 1705.73 5424.49 1705.34 5425.81C1704.96 5427.14 1704.57 5428.46 1704.22 5429.84C1703.89 5431.16 1703.58 5432.54 1703.34 5433.88C1703.03 5435.32 1702.77 5436.81 1702.55 5438.24C1702.38 5439.4 1702.25 5440.61 1702.07 5441.81C1701.85 5443.88 1701.76 5445.94 1701.72 5447.91C1701.68 5449.14 1701.72 5450.32 1701.74 5451.49C1701.96 5456.73 1702.22 5462.01 1702.68 5467.28C1703.19 5473.17 1704.4 5479.01 1706.61 5484.49C1707.66 5487.16 1708.96 5489.6 1710.38 5492.03C1711.79 5494.45 1713.32 5496.84 1714.9 5499.18C1715.87 5500.59 1716.79 5502.01 1717.71 5503.48C1719.55 5506.31 1721.35 5509.18 1723.26 5511.97C1725.87 5515.7 1728.69 5519.27 1731.3 5523.04C1731.96 5524.16 1732.62 5525.39 1733.28 5526.62C1734.09 5528.51 1734.85 5530.44 1735.54 5532.41C1736.28 5534.49 1736.96 5536.6 1737.62 5538.72C1738.76 5542.67 1739.31 5546.69 1740.4 5550.65C1741.59 5554.91 1743.26 5558.99 1744.61 5563.18C1745.03 5564.62 1745.36 5566.09 1745.69 5567.61C1746 5569.87 1746.21 5572.23 1746.35 5574.56C1746.41 5576.49 1746.44 5578.37 1746.44 5580.28C1746.5 5582.26 1746.52 5584.18 1746.57 5586.11C1746.55 5586.25 1746.57 5586.4 1746.55 5586.49C1746.57 5587.69 1746.61 5588.81 1746.68 5589.95C1746.74 5591.97 1746.87 5594.01 1747.07 5596.01C1747.12 5597.01 1747.27 5598.02 1747.36 5599.01C1747.6 5601.11 1747.93 5603.18 1748.37 5605.26C1749.53 5610.74 1750.86 5616.16 1752.18 5621.62C1752.62 5623.37 1753.06 5625.09 1753.48 5626.88C1753.48 5626.93 1753.52 5626.99 1753.52 5627.02C1752.2 5625.99 1750.87 5624.96 1749.61 5623.88C1747.75 5622.08 1746.06 5620.26 1744.31 5618.33C1742.73 5616.33 1741.26 5614.25 1739.86 5612.12C1738.41 5609.65 1737.11 5607.08 1735.86 5604.51C1735.31 5603.24 1734.85 5601.99 1734.4 5600.7C1733.82 5598.7 1733.32 5596.66 1732.88 5594.62C1732.29 5590.2 1732.16 5585.7 1731.78 5581.27C1731.35 5576.14 1730.49 5570.89 1729.2 5565.89C1726.7 5556.07 1722.18 5546.95 1718.85 5537.39C1717.07 5532.36 1715.58 5527.17 1713.6 5522.25C1712.58 5519.69 1711.54 5517.12 1710.16 5514.8C1708.1 5511.35 1705.89 5507.63 1702.77 5505.11C1698.38 5501.51 1693.21 5499.73 1687.53 5500.32C1686.89 5500.37 1686.28 5500.48 1685.66 5500.63C1685.03 5500.79 1684.42 5500.94 1683.85 5501.16C1682.66 5501.62 1681.54 5502.15 1680.45 5502.84C1679.92 5503.15 1679.42 5503.52 1678.93 5503.88C1678.43 5504.31 1677.92 5504.67 1677.48 5505.1C1677.02 5505.52 1676.56 5505.94 1676.15 5506.44C1675.75 5506.86 1675.32 5507.36 1674.96 5507.84C1672.9 5510.48 1671.67 5513.55 1670.75 5516.71C1670.49 5517.76 1670.23 5518.86 1669.98 5519.89C1669.96 5520.08 1669.88 5520.28 1669.85 5520.46C1669.72 5520.98 1669.63 5521.57 1669.52 5522.08C1669.04 5524.32 1668.5 5526.62 1667.93 5528.85C1667.16 5532.03 1666.46 5535.22 1665.78 5538.42V5538.48C1665.6 5539.49 1665.43 5540.48 1665.29 5541.51C1665.05 5543.11 1664.88 5544.65 1664.74 5546.25C1664.48 5548.68 1664.31 5551.11 1664.11 5553.55C1663.87 5556.53 1663.58 5559.49 1663.34 5562.45C1663.25 5563.72 1663.12 5564.97 1663.08 5566.25C1662.97 5567.71 1662.9 5569.18 1662.82 5570.65C1662.73 5572.56 1662.71 5574.47 1662.73 5576.38C1662.75 5576.62 1662.71 5576.88 1662.71 5577.12C1662.73 5577.36 1662.73 5577.61 1662.75 5577.85C1662.75 5579.18 1662.81 5580.46 1662.92 5581.77C1662.9 5582.21 1662.93 5582.61 1662.97 5583.05C1663.06 5584.49 1663.19 5585.89 1663.34 5587.34C1663.38 5588.13 1663.45 5588.94 1663.52 5589.73C1663.74 5592.23 1663.96 5594.71 1664.15 5597.24C1664.15 5597.59 1664.2 5597.89 1664.2 5598.24C1664.2 5599.87 1664.17 5601.47 1664.07 5603.09C1663.84 5604.78 1663.6 5606.42 1663.23 5608.13C1662.48 5610.92 1661.63 5613.7 1660.67 5616.51C1660.1 5618 1659.55 5619.49 1658.95 5620.98C1657.4 5624.78 1655.73 5628.57 1654.04 5632.37C1651.17 5638.84 1648.3 5645.31 1645.99 5652C1645.45 5653.6 1644.92 5655.24 1644.39 5656.89C1643.85 5658.49 1643.41 5660.15 1642.94 5661.8C1642.44 5663.55 1642.03 5665.31 1641.61 5667.12C1641.5 5667.48 1641.45 5667.83 1641.35 5668.2C1641.04 5669.63 1640.78 5671.12 1640.56 5672.56V5672.61C1640.56 5672.67 1640.56 5672.67 1640.55 5672.7C1640.34 5674.1 1640.18 5675.55 1640.03 5676.95C1639.87 5678.4 1639.7 5679.85 1639.57 5681.36C1639.41 5682.81 1639.3 5684.27 1639.22 5685.74C1639.11 5687.19 1639 5688.66 1638.87 5690.11C1638.58 5693.07 1638.16 5695.96 1637.59 5698.88C1637.13 5700.63 1636.67 5702.39 1636.13 5704.08C1635.58 5705.48 1634.96 5706.76 1634.31 5708.11C1633.65 5709.25 1632.99 5710.42 1632.29 5711.54C1631.59 5712.67 1630.84 5713.73 1630.12 5714.87L1626.61 5719.67C1626.48 5719.8 1626.37 5719.93 1626.24 5720.11C1624.53 5722.43 1622.86 5724.72 1621.19 5727.1C1620.38 5728.25 1619.55 5729.47 1618.74 5730.68C1617.99 5731.84 1617.16 5733.11 1616.45 5734.34C1614.76 5737.13 1613.16 5740.05 1611.69 5743C1611.19 5743.95 1610.71 5744.98 1610.27 5745.94C1608.41 5749.89 1606.81 5754.01 1605.38 5758.16C1604.79 5759.85 1604.24 5761.58 1603.69 5763.29C1603.06 5765.22 1602.49 5767.09 1601.96 5769.04C1601.67 5770.04 1601.37 5771.06 1601.12 5772.11C1600.6 5773.91 1600.14 5775.75 1599.76 5777.66C1599.41 5779.04 1599.09 5780.48 1598.86 5781.86C1598.12 5785.59 1597.46 5789.37 1597.09 5793.22C1596.74 5797 1596.52 5800.86 1596.21 5804.65C1595.93 5807.61 1595.6 5810.51 1595.12 5813.45C1595.03 5814.08 1594.94 5814.7 1594.81 5815.33C1594.48 5816.62 1594.13 5817.88 1593.76 5819.12C1593.38 5820.38 1592.99 5821.67 1592.62 5822.94C1590.9 5828.29 1588.98 5833.62 1587.31 5839.04C1586.87 5840.37 1586.48 5841.67 1586.14 5843.01C1585.75 5844.34 1585.4 5845.71 1585.05 5847.04C1583.97 5851.41 1583.08 5855.84 1582.27 5860.31C1581.76 5863.09 1581.26 5865.86 1580.75 5868.71C1580.01 5873.12 1579.2 5877.53 1578.32 5881.95C1578.32 5882 1578.32 5882 1578.3 5882.04C1577.72 5884.7 1577.04 5887.31 1576.36 5889.92C1575.79 5892.2 1575.16 5894.46 1574.48 5896.74C1572.86 5902.37 1571.02 5907.9 1569.13 5913.43C1568.65 5914.74 1568.1 5916.04 1567.53 5917.33C1567.44 5917.57 1567.31 5917.74 1567.24 5917.97C1567.24 5918.03 1567.18 5918.03 1567.18 5918.07C1566.85 5918.62 1566.58 5919.21 1566.19 5919.79C1565.95 5920.11 1565.71 5920.36 1565.49 5920.62V5920.68C1565.25 5920.93 1564.98 5921.14 1564.76 5921.36C1564.19 5921.82 1563.58 5922.28 1562.94 5922.66C1561.82 5923.32 1560.64 5923.95 1559.46 5924.52C1558.58 5924.83 1557.7 5925.2 1556.82 5925.46C1555.93 5925.82 1555 5926.17 1554.06 5926.48C1547.9 5928.25 1541.69 5929.59 1535.33 5930.73C1528.32 5931.82 1521.26 5932.61 1514.17 5933.05C1513.67 5933.07 1513.18 5933.05 1512.7 5933.07C1515.25 5935.07 1517.81 5937.11 1520.31 5939.21C1526.94 5944.65 1533.47 5950.23 1539.68 5956.12C1543.53 5959.77 1547.28 5963.43 1551.01 5967.16C1554.22 5970.4 1557 5973.95 1559.66 5977.64C1567.29 5988.4 1573.08 6000.38 1579.52 6011.85C1579.66 6012.18 1579.83 6012.44 1580.03 6012.72C1580.03 6012.77 1580.07 6012.83 1580.11 6012.88C1580.11 6012.94 1580.14 6012.94 1580.14 6012.99C1580.27 6013.16 1580.34 6013.32 1580.42 6013.47L1580.55 6013.63C1580.55 6013.69 1580.58 6013.74 1580.62 6013.8C1580.66 6013.85 1580.71 6013.91 1580.69 6013.96C1580.82 6014.13 1580.9 6014.28 1580.97 6014.44C1580.97 6014.44 1580.97 6014.5 1581.01 6014.5C1582.64 6017.49 1584.22 6020.38 1585.86 6023.34C1586.02 6023.6 1586.17 6023.87 1586.28 6024.13C1586.32 6024.19 1586.32 6024.19 1586.32 6024.24C1586.37 6024.24 1586.37 6024.24 1586.36 6024.3H1586.41C1586.41 6024.35 1586.45 6024.35 1586.45 6024.41C1586.52 6024.57 1586.59 6024.66 1586.63 6024.77C1586.67 6024.87 1586.7 6024.94 1586.74 6024.98C1587.94 6026.98 1589.06 6028.91 1590.36 6030.82C1591.48 6032.25 1592.64 6033.67 1593.87 6035.03C1594.61 6035.78 1595.38 6036.48 1596.23 6037.14C1596.85 6037.64 1597.48 6038.06 1598.14 6038.5C1600.11 6039.57 1602.13 6040.56 1604.15 6041.5C1607.86 6043.03 1611.65 6044.37 1615.38 6045.84C1619.76 6047.62 1624.04 6049.57 1628.25 6051.76C1636.13 6055.77 1643.85 6060.14 1651.46 6064.66C1658.8 6069.04 1666.08 6073.49 1673.27 6078.19C1676.87 6080.49 1680.51 6082.84 1684.04 6085.32C1688.03 6088.08 1691.89 6090.89 1695.8 6093.74C1702.38 6098.54 1709.04 6103.15 1715.62 6108.01H1715.65C1719.99 6111.3 1724.24 6114.68 1728.52 6117.92C1730.58 6119.35 1732.66 6120.64 1734.83 6121.89C1738.76 6123.93 1742.84 6125.71 1746.98 6127.35C1748.76 6128.01 1750.53 6128.61 1752.44 6129.07C1758.72 6130.53 1765.18 6131.52 1771.61 6132.33H1771.66C1771.66 6132.33 1771.72 6132.33 1771.76 6132.35C1773.98 6132.57 1776.24 6132.66 1778.54 6132.69C1784.27 6132.49 1790.06 6131.98 1795.82 6131.39C1798.76 6131.08 1801.7 6130.82 1804.68 6130.62C1808.15 6130.4 1811.65 6130.8 1815.03 6131.59C1821.35 6133.12 1827.31 6135.8 1832.75 6139.31C1837.25 6142.18 1841.22 6145.67 1845.73 6148.54C1847.36 6149.46 1849.02 6150.25 1850.67 6151.04C1852.89 6151.96 1855.25 6152.75 1857.56 6153.37C1858.32 6153.58 1859.03 6153.74 1859.81 6153.91C1860.39 6153.94 1860.93 6153.98 1861.52 6154.02C1862.2 6154.02 1862.89 6153.98 1863.59 6153.89C1864.49 6153.78 1865.45 6153.61 1866.31 6153.45C1867.49 6153.14 1868.57 6152.79 1869.71 6152.38C1870.87 6151.9 1872.03 6151.33 1873.15 6150.76C1874.11 6150.21 1875.08 6149.62 1876.02 6148.96C1876.92 6148.26 1877.8 6147.55 1878.65 6146.79C1879.35 6146.1 1880.04 6145.32 1880.69 6144.59C1881.37 6143.65 1882.01 6142.66 1882.69 6141.68C1883.94 6139.55 1885.1 6137.31 1886.4 6135.18C1888.94 6130.93 1893.19 6127.8 1897.65 6125.89C1905.43 6122.57 1914.25 6123.8 1922.14 6126.13C1922.29 6126.15 1922.43 6126.17 1922.53 6126.22C1922.91 6126.33 1923.24 6126.43 1923.56 6126.54C1923.94 6126.65 1924.27 6126.74 1924.58 6126.89C1932.4 6129.35 1940.06 6132.16 1947.73 6134.9C1951.66 6136.26 1955.56 6137.57 1959.42 6139.07C1963.63 6140.67 1967.75 6142.4 1971.86 6144.24C1975.89 6146.06 1979.77 6148.06 1983.63 6150.25C1987.73 6152.57 1991.53 6155.49 1995.3 6158.3C2002.21 6163.45 2009.09 6168.69 2016.2 6173.52C2016.38 6173.65 2016.57 6173.78 2016.79 6173.91C2019.4 6175.62 2021.94 6177.36 2024.62 6178.89C2027.34 6180.41 2030.1 6181.85 2032.89 6183.25C2040.52 6186.92 2048.31 6190.17 2056.02 6193.67C2060.35 6195.63 2064.64 6197.69 2068.83 6199.92C2072.89 6202.09 2077.01 6204.26 2080.81 6206.79C2084.45 6209.14 2088.11 6211.76 2091.22 6214.77C2094.49 6217.91 2097.41 6221.53 2099.86 6225.39C2102.37 6229.4 2104.47 6233.56 2106.25 6237.89C2107.78 6241.66 2108.92 6245.58 2110.13 6249.38C2110.28 6249.99 2110.5 6250.56 2110.67 6251.13C2112.87 6257.6 2115.48 6263.94 2118.42 6270.12C2119.36 6272.08 2120.37 6274 2121.53 6275.83C2121.86 6276.28 2122.19 6276.72 2122.52 6277.16C2123.04 6277.67 2123.59 6278.24 2124.1 6278.78C2124.41 6278.98 2124.73 6279.22 2125.04 6279.46C2125.79 6279.97 2126.58 6280.38 2127.34 6280.83C2127.91 6281.06 2128.46 6281.24 2128.97 6281.46C2129.58 6281.64 2130.21 6281.79 2130.83 6281.94L2131.55 6282.05C2133.33 6282.31 2135.11 6282.53 2136.86 6282.67C2136.91 6282.64 2136.97 6282.64 2137.06 6282.65C2139.51 6282.77 2142.03 6282.75 2144.45 6282.65C2145.9 6282.53 2147.3 6282.34 2148.75 6282.1C2149.16 6282.01 2149.58 6281.88 2150.02 6281.79C2150.44 6281.61 2150.87 6281.42 2151.33 6281.24C2151.88 6280.87 2152.41 6280.56 2152.96 6280.25C2160.7 6274.79 2167.41 6267.89 2175.85 6263.43C2179.74 6261.35 2184.03 6259.95 2188.33 6258.81C2189.97 6258.41 2191.71 6257.93 2193.42 6257.69C2193.42 6257.69 2193.42 6257.69 2193.48 6257.69C2193.79 6257.58 2194.08 6257.53 2194.43 6257.49C2195.09 6257.38 2195.74 6257.29 2196.4 6257.14C2198.71 6256.74 2201.07 6256.55 2203.4 6256.39C2212.1 6255.89 2220.66 6257.14 2229.17 6258.89C2232.7 6259.66 2236.23 6260.41 2239.76 6261.13C2242.68 6261.7 2245.53 6262.12 2248.49 6262.36C2250.94 6262.53 2253.4 6262.53 2255.86 6262.4C2260.79 6261.99 2265.7 6261.13 2270.61 6260.52C2273.86 6260.12 2277.17 6259.75 2280.42 6259.7C2284.23 6259.57 2288.03 6259.77 2291.87 6260.19C2294.01 6260.41 2296.14 6260.61 2298.27 6260.93C2298.11 6260.41 2297.92 6259.93 2297.76 6259.42C2298.03 6253.45 2298.27 6247.53 2298.64 6241.59C2299.21 6234 2300.06 6226.5 2298.95 6218.91C2298.77 6217.8 2298.58 6216.68 2298.35 6215.62C2298.27 6215.12 2298.14 6214.6 2298.01 6214.15C2297.68 6212.71 2297.33 6211.33 2296.95 6209.95C2296.29 6207.69 2295.59 6205.43 2294.83 6203.15C2293.03 6197.67 2291.78 6192.03 2290.61 6186.33C2289.41 6180.01 2288.62 6173.69 2288.18 6167.27C2288 6164.09 2287.98 6160.84 2288.16 6157.62C2288.36 6155.58 2288.66 6153.56 2289.01 6151.5C2289.26 6150.45 2289.5 6149.4 2289.85 6148.37C2290.29 6147.05 2290.81 6145.86 2291.43 6144.62L2291.49 6144.59C2291.71 6144.13 2291.91 6143.72 2292.22 6143.32C2292.43 6142.91 2292.63 6142.49 2292.89 6142.09C2293.93 6140.56 2295.15 6139.13 2296.32 6137.71C2297.08 6136.98 2297.81 6136.26 2298.6 6135.58C2299.94 6134.5 2301.27 6133.5 2302.68 6132.58C2304.85 6131.22 2307.1 6130.03 2309.34 6128.78C2310.42 6128.15 2311.54 6127.53 2312.61 6126.89C2313.69 6126.21 2314.78 6125.53 2315.83 6124.79C2319.76 6122.16 2323.07 6118.71 2326.27 6115.29C2327.21 6114.29 2328.12 6113.3 2329.12 6112.31C2331.52 6109.66 2333.97 6107.01 2336.52 6104.44C2337.11 6103.83 2337.74 6103.25 2338.36 6102.69C2339.01 6102 2339.74 6101.37 2340.48 6100.75C2340.88 6100.31 2341.34 6099.88 2341.86 6099.46C2342.32 6098.98 2342.77 6098.56 2343.33 6098.1C2344.36 6097.13 2345.42 6096.19 2346.54 6095.27C2346.78 6095.01 2347.11 6094.77 2347.39 6094.5C2347.68 6094.24 2347.96 6094 2348.23 6093.74C2350.81 6091.67 2353.38 6089.57 2356.03 6087.6C2358.6 6085.56 2361.19 6083.58 2363.84 6081.67C2364.63 6081.04 2365.4 6080.47 2366.18 6079.88C2368.18 6078.36 2370.16 6076.83 2372.17 6075.29C2380.33 6068.95 2388.27 6062.38 2396.08 6055.75C2400.02 6052.38 2403.86 6049 2407.79 6045.66C2408.64 6044.94 2409.48 6044.22 2410.4 6043.58C2411.19 6042.86 2412.09 6042.2 2412.96 6041.54C2414.63 6040.16 2416.47 6038.8 2418.27 6037.49C2420.09 6036.13 2421.96 6034.79 2423.82 6033.49C2425.59 6032.22 2427.33 6031.01 2429.13 6029.83H2429.19C2429.26 6029.74 2429.35 6029.7 2429.41 6029.61C2429.46 6029.61 2429.52 6029.57 2429.57 6029.53C2429.8 6029.37 2430.05 6029.26 2430.27 6029.09C2430.38 6029.02 2430.49 6028.89 2430.66 6028.8H2430.71C2430.93 6028.63 2431.14 6028.52 2431.36 6028.36C2432.83 6027.44 2434.23 6026.56 2435.71 6025.8C2436.38 6025.36 2437.02 6025.01 2437.7 6024.66C2438.34 6024.26 2438.99 6023.93 2439.63 6023.56C2440.57 6023.16 2441.47 6022.79 2442.35 6022.44C2443.42 6023.58 2444.39 6024.7 2445.35 6025.88C2447.75 6028.6 2450.25 6031.32 2452.96 6033.73C2453.91 6034.61 2454.87 6035.44 2455.88 6036.26C2458.6 6038.49 2461.5 6040.49 2464.56 6042.25C2466.41 6043.36 2468.27 6044.42 2470.13 6045.53C2471.03 6046.06 2471.95 6046.59 2472.85 6047.16C2473.75 6047.73 2474.65 6048.27 2475.55 6048.89H2475.6C2476.93 6049.86 2478.21 6050.84 2479.5 6051.87C2481.01 6053.06 2482.44 6054.28 2483.84 6055.56C2484.06 6055.75 2484.24 6055.88 2484.41 6056.04C2488.18 6059.59 2491.82 6063.27 2495.4 6067C2499.11 6070.84 2502.94 6074.7 2507.24 6077.88C2508.49 6078.74 2509.68 6079.63 2510.99 6080.45C2514.08 6082.59 2517.33 6084.53 2520.68 6086.21C2523.86 6087.75 2527.16 6088.98 2530.42 6090.29C2531.54 6090.75 2532.7 6091.21 2533.86 6091.68C2534.46 6091.92 2535.01 6092.14 2535.62 6092.33C2538.51 6093.45 2541.41 6094.46 2544.41 6095.23C2545.82 6095.58 2547.26 6095.89 2548.71 6096.11C2549.72 6096.26 2550.73 6096.37 2551.72 6096.41C2553.62 6096.54 2555.6 6096.48 2557.51 6096.17C2558.52 6096.02 2559.48 6095.82 2560.45 6095.56H2560.51C2566.63 6093.8 2570.64 6089.26 2574.31 6084.35C2577.35 6080.36 2580.4 6076.34 2583.41 6072.29C2584.02 6071.5 2584.63 6070.69 2585.25 6069.85C2585.25 6069.79 2585.27 6069.75 2585.33 6069.7C2586.26 6068.41 2587.15 6067.07 2587.97 6065.71V6065.66C2588.76 6064.24 2589.46 6062.82 2590.03 6061.34C2591.63 6057.14 2592.4 6052.88 2593.28 6048.52C2593.93 6045.47 2594.63 6042.36 2595.62 6039.37C2596.1 6038.16 2596.61 6036.91 2597.18 6035.71C2597.73 6034.72 2598.32 6033.71 2598.95 6032.71C2599.61 6031.83 2600.23 6030.99 2600.95 6030.16C2601.06 6030.07 2601.17 6029.94 2601.3 6029.87C2601.46 6029.74 2601.63 6029.61 2601.74 6029.48C2602 6029.37 2602.22 6029.26 2602.48 6029.15C2602.59 6029.07 2602.64 6029.02 2602.75 6028.98C2602.95 6028.91 2603.1 6028.89 2603.3 6028.87C2603.41 6028.84 2603.56 6028.82 2603.71 6028.78C2604.06 6029.04 2604.48 6029.24 2604.88 6029.53C2606.39 6030.64 2607.9 6031.85 2609.37 6033.16C2612.44 6036.06 2615.44 6039.17 2618.21 6042.38C2620.05 6044.63 2621.81 6047 2623.43 6049.44C2623.76 6049.94 2624.04 6050.42 2624.31 6050.84C2622.82 6053.23 2621.26 6055.56 2619.87 6058.01C2619.2 6059.15 2618.54 6060.32 2617.88 6061.52C2617.46 6062.35 2617 6063.12 2616.59 6063.93C2616.39 6064.33 2616.19 6064.7 2615.97 6065.12C2615.6 6065.91 2615.2 6066.74 2614.83 6067.51C2614.31 6068.61 2613.82 6069.74 2613.41 6070.86C2613.14 6071.41 2612.95 6071.98 2612.73 6072.53C2612.25 6073.78 2611.81 6075.1 2611.48 6076.39C2611.28 6077.14 2611.08 6077.86 2610.91 6078.56C2610.77 6079.28 2610.6 6080.05 2610.47 6080.86C2610.18 6082.93 2610.1 6085.08 2610.32 6087.33C2610.42 6088.08 2610.55 6088.78 2610.69 6089.46C2610.86 6090.03 2611.02 6090.54 2611.19 6091.06C2611.26 6091.22 2611.3 6091.37 2611.37 6091.54C2611.57 6092.11 2611.89 6092.7 2612.14 6093.28C2612.24 6093.39 2612.25 6093.5 2612.35 6093.6C2613.01 6094.77 2613.78 6095.88 2614.72 6096.94C2614.72 6096.94 2614.75 6097 2614.81 6097C2615.27 6097.55 2615.73 6098.06 2616.26 6098.54C2616.78 6099.06 2617.31 6099.53 2617.88 6099.96C2618.39 6100.43 2618.98 6100.86 2619.55 6101.24C2620.91 6102.12 2622.25 6102.97 2623.67 6103.76C2624.35 6104.17 2625.05 6104.5 2625.77 6104.9C2627.86 6105.99 2630.07 6107.05 2632.18 6108.1C2633.6 6108.83 2635.01 6109.59 2636.37 6110.38C2643.6 6114.53 2650.42 6119.31 2657.38 6123.83C2659.31 6125.1 2661.3 6126.32 2663.3 6127.49C2667.9 6130.34 2672.58 6133.04 2677.18 6135.87C2677.49 6136.06 2677.82 6136.26 2678.17 6136.52C2680.47 6137.93 2682.71 6139.4 2684.96 6140.91H2685.01C2687.88 6142.9 2690.76 6144.99 2693.61 6147.09C2693.96 6147.34 2694.28 6147.58 2694.64 6147.82C2696.68 6149.35 2698.72 6150.84 2700.78 6152.31C2704.96 6155.34 2709.16 6158.26 2713.56 6160.93C2714.64 6161.57 2715.73 6162.23 2716.81 6162.88C2717.9 6163.52 2718.98 6164.13 2720.14 6164.73C2722.05 6165.75 2723.98 6166.77 2725.95 6167.75C2727.46 6168.52 2729.04 6169.24 2730.6 6169.95C2732.4 6170.76 2734.16 6171.52 2735.98 6172.22C2736.17 6172.29 2736.35 6172.36 2736.54 6172.44C2738.17 6173.08 2739.84 6173.67 2741.5 6174.2C2741.87 6174.35 2742.31 6174.46 2742.68 6174.57C2743.8 6174.94 2744.94 6175.25 2746.08 6175.51C2746.46 6175.62 2746.79 6175.67 2747.18 6175.76C2747.69 6175.89 2748.17 6176 2748.7 6176.08C2749.24 6176.2 2749.72 6176.28 2750.29 6176.35C2752.55 6176.68 2755.01 6176.79 2757.07 6176.41C2757.12 6176.41 2757.18 6176.37 2757.22 6176.39C2758.54 6176.13 2759.81 6175.87 2761.04 6175.47C2761.5 6175.34 2761.92 6175.16 2762.38 6174.97H2762.44C2763.81 6174.29 2764.95 6173.58 2766.2 6172.73C2767.51 6171.85 2768.63 6170.58 2769.7 6169.35C2769.86 6169.18 2769.99 6169.05 2770.16 6168.93C2770.16 6168.87 2770.21 6168.89 2770.21 6168.89C2770.21 6168.83 2770.27 6168.85 2770.27 6168.85C2770.32 6168.81 2770.43 6168.78 2770.47 6168.78H2770.52C2770.87 6168.72 2771.19 6168.69 2771.54 6168.63C2773.02 6168.59 2774.49 6168.67 2776 6168.74C2779.15 6168.85 2782.25 6169.07 2785.43 6169.18C2786.61 6169.2 2787.78 6169.27 2788.96 6169.31L2789.16 6169.35C2792.6 6169.4 2796.09 6169.42 2799.55 6169.29C2800.84 6169.24 2802.12 6169.18 2803.37 6169.11C2805.01 6168.94 2806.72 6168.82 2808.35 6168.65C2808.46 6168.61 2808.5 6168.63 2808.56 6168.63C2810.16 6168.43 2811.77 6168.21 2813.34 6167.91C2817.18 6167.23 2821 6166.33 2824.79 6165.36C2826.07 6164.95 2827.31 6164.61 2828.61 6164.2C2830.21 6163.7 2831.75 6163.19 2833.37 6162.62C2834.79 6162.09 2836.24 6161.57 2837.66 6160.93C2840.6 6159.68 2843.5 6158.25 2846.17 6156.55C2851.55 6153.01 2856.5 6148.91 2861.39 6144.7C2869.77 6137.51 2877.93 6129.9 2885.72 6121.98C2887.56 6120.18 2889.31 6118.32 2891.11 6116.46C2892.86 6114.61 2894.66 6112.75 2896.4 6110.89C2900.52 6106.57 2904.69 6102.36 2908.59 6097.86C2909.42 6096.9 2910.19 6095.99 2910.98 6095.01C2911.77 6094 2912.51 6093.03 2913.24 6092.05C2917.67 6086 2921.39 6079.51 2925.59 6073.28C2926.77 6071.59 2928 6069.9 2929.38 6068.32C2929.71 6067.99 2930.01 6067.68 2930.39 6067.38C2930.69 6067.09 2930.96 6066.78 2931.31 6066.48C2931.97 6065.93 2932.69 6065.4 2933.35 6064.92C2934.22 6064.41 2935.12 6063.91 2936.04 6063.45C2937.51 6062.79 2939.01 6062.22 2940.52 6061.7H2940.58C2944.14 6060.55 2947.8 6059.52 2951.38 6058.47C2952.82 6058.04 2954.27 6057.6 2955.67 6057.13C2957.32 6056.57 2958.98 6055.99 2960.65 6055.34C2967.91 6052.51 2975.17 6049.26 2981.79 6045.1C2982.76 6044.52 2983.74 6043.87 2984.66 6043.27C2986.53 6041.96 2988.35 6040.6 2990.17 6039.3C2990.61 6038.91 2991.05 6038.58 2991.49 6038.27C2991.57 6037.49 2991.66 6036.76 2991.77 6036.04C2992.56 6031.37 2993.52 6026.8 2994.69 6022.2C2996.48 6015.09 2998.83 6008.05 3001.64 6001.26C3004.84 5993.47 3008.74 5986.01 3012.63 5978.62C3016.4 5971.28 3020.21 5963.87 3023.06 5956.17C3024.12 5953.32 3025.04 5950.36 3025.76 5947.42C3025.5 5947.44 3025.21 5947.29 3024.99 5947.2ZM1299.27 4898.89C1299.14 4898.82 1298.99 4898.77 1298.9 4898.69C1300.29 4897.61 1301.77 4896.6 1303.29 4895.6C1301.82 4896.62 1300.48 4897.7 1299.27 4898.89Z"
        fill="#2D4159"/>
</svg>