<svg
    width="7773"
    height="7615"
    viewBox="0 0 7773 7615"
    fill="none"
    xmlns="http://www.w3.org/2000/svg">
    <path id="HR"
        d="M4675.08 6160.27C4674.79 6160.1 4674.46 6159.9 4674.16 6159.75C4670.14 6157.75 4665.95 6156.02 4661.66 6154.53C4653.85 6151.89 4646.02 6149.24 4638.1 6146.94C4634.07 6145.76 4629.97 6144.83 4626 6143.5C4620.03 6141.54 4614.51 6138.61 4608.91 6135.71C4603.26 6132.81 4597.81 6129.74 4592.51 6126.24C4587.38 6122.86 4582.2 6119.53 4577.09 6116.11C4571.54 6112.38 4566.21 6108.25 4561.76 6103.23C4556.67 6097.51 4552.35 6091.19 4548.8 6084.44C4546.8 6080.58 4545.07 6076.67 4542.84 6072.92C4541.98 6071.65 4541.06 6070.44 4540.1 6069.2C4538.08 6066.89 4535.91 6064.68 4533.67 6062.55C4532.29 6061.37 4530.86 6060.21 4529.39 6059.13C4527.77 6058.08 4526.1 6057.11 4524.41 6056.21C4522.31 6055.2 4520.18 6054.24 4518.06 6053.21C4515.62 6052.04 4513.36 6050.71 4511.12 6049.24C4507.73 6046.8 4504.77 6043.91 4501.41 6041.43C4500.18 6040.67 4498.97 6039.94 4497.7 6039.26C4493.4 6037.18 4488.93 6035.44 4484.44 6033.8C4482.07 6033.03 4479.7 6032.31 4477.27 6031.76C4476.37 6031.59 4475.49 6031.47 4474.61 6031.36C4474.39 6031.37 4474.2 6031.37 4473.98 6031.39C4472.77 6031.5 4471.58 6031.69 4470.38 6031.89C4468.84 6032.24 4467.35 6032.64 4465.84 6033.08C4463.19 6034.06 4460.66 6035.2 4458.1 6036.35C4454.5 6037.99 4450.88 6038.82 4446.89 6038.45C4443.65 6038.17 4440.38 6036.47 4437.72 6034.7C4435.57 6033.27 4433.54 6031.69 4431.43 6030.18C4429.44 6028.84 4427.37 6027.59 4425.24 6026.47C4424.39 6026.08 4423.49 6025.71 4422.62 6025.38C4422.18 6025.25 4421.74 6025.14 4421.26 6025.01C4420.66 6024.92 4420.05 6024.85 4419.43 6024.81C4419.06 6024.79 4418.69 6024.79 4418.34 6024.81C4416.78 6024.96 4415.25 6025.18 4413.69 6025.42C4412.13 6025.77 4410.6 6026.15 4409.08 6026.63C4407.88 6027.05 4406.72 6027.5 4405.57 6028.03C4404.67 6028.49 4403.75 6029 4402.88 6029.52C4402.31 6029.92 4401.76 6030.34 4401.21 6030.79C4400.71 6031.23 4400.25 6031.7 4399.78 6032.18C4399.33 6032.7 4398.93 6033.21 4398.53 6033.73C4397.31 6035.62 4396.25 6037.62 4394.76 6039.33C4392.07 6042.4 4388.65 6044.63 4384.81 6045.93C4376.5 6048.74 4367.64 6047.88 4359.74 6044.19C4355.33 6042.11 4351.45 6039.26 4347.92 6035.9C4344.63 6032.75 4342.04 6028.78 4339.7 6024.88C4337.64 6021.45 4335.7 6017.83 4334.45 6014C4332.98 6009.59 4332.28 6005.2 4332.11 6000.57C4332.04 5998.65 4332.06 5996.74 4332 5994.81C4331.95 5994.11 4331.85 5993.41 4331.76 5992.72C4331.67 5992.31 4331.54 5991.93 4331.43 5991.52C4331.28 5991.15 4331.16 5990.79 4330.99 5990.44C4330.66 5989.79 4330.29 5989.19 4329.92 5988.56C4327.15 5984.41 4324.04 5980.49 4320.97 5976.54C4318.97 5973.97 4317.15 5971.23 4315.53 5968.38C4314.26 5966.1 4313.09 5963.78 4311.71 5961.56C4311.29 5960.93 4310.81 5960.31 4310.33 5959.7C4309.72 5959.06 4309.1 5958.43 4308.45 5957.83C4307.13 5956.69 4305.73 5955.6 4304.32 5954.59C4302.96 5953.71 4301.56 5952.94 4300.11 5952.18C4298.22 5951.28 4296.32 5950.44 4294.47 5949.52C4291.8 5948.18 4289.32 5946.63 4286.93 5944.85C4282.61 5941.63 4278.97 5937.57 4275.07 5933.91C4273.93 5932.92 4272.76 5932 4271.56 5931.12C4271.01 5930.81 4270.44 5930.47 4269.87 5930.16C4268.36 5929.45 4266.82 5928.82 4265.28 5928.21C4260.5 5926.63 4255.64 5925.31 4250.73 5924.23C4246.76 5923.34 4242.79 5922.52 4238.93 5921.25C4232.3 5919.08 4226.6 5915.27 4220.44 5912.15C4217.02 5910.48 4213.44 5909.13 4209.96 5907.53C4203.93 5904.76 4198.33 5900 4199.15 5892.68C4199.43 5889.98 4200.97 5887.61 4203.03 5885.94C4205.31 5884.04 4208.2 5883.38 4211.03 5882.9C4215.18 5882.19 4219.54 5882.28 4223.73 5882.19C4230.09 5882.04 4236.47 5881.87 4242.81 5881.6C4245.92 5881.36 4249.03 5880.95 4252.08 5880.38C4254.39 5879.91 4256.67 5879.3 4258.97 5878.66C4256.19 5877.02 4253.4 5875.37 4250.66 5873.64C4246.65 5871.08 4242.72 5868.4 4238.86 5865.6C4234.96 5862.81 4231.23 5859.81 4227.35 5857C4224.14 5854.87 4220.85 5852.92 4217.43 5851.1C4213.95 5849.36 4210.35 5847.96 4206.67 5846.65C4199.06 5844.12 4190.97 5842.3 4184.12 5838.01C4180.48 5835.73 4177.41 5832.66 4175 5829.15C4172.98 5826.16 4171.36 5822.92 4169.5 5819.83C4168.51 5818.36 4167.43 5816.95 4166.31 5815.59C4164.3 5813.31 4162.21 5811.12 4160 5809.06C4156.91 5806.3 4153.71 5803.71 4150.7 5800.9C4143.7 5794.34 4141.31 5784.83 4141.27 5775.53C4141.25 5769.45 4142.26 5763.53 4143.75 5757.63C4144.89 5753.05 4146.42 5748.58 4147.5 5743.99C4147.7 5742.9 4147.85 5741.78 4147.96 5740.7C4148.07 5737.94 4148 5735.22 4147.85 5732.48C4147.61 5729.56 4147.28 5726.69 4146.77 5723.81C4146.4 5722.08 4145.99 5720.37 4145.52 5718.64C4145.15 5717.65 4144.74 5716.66 4144.32 5715.64C4143.99 5714.98 4143.64 5714.34 4143.26 5713.73C4142.61 5712.78 4141.91 5711.86 4141.2 5710.96C4140.72 5710.46 4140.22 5709.98 4139.74 5709.47C4138.26 5708.2 4136.73 5706.99 4135.13 5705.81C4131.91 5703.77 4128.59 5701.95 4125.22 5700.17C4125.39 5700.24 4125.55 5700.33 4125.7 5700.41C4125.33 5700.22 4124.97 5700.02 4124.62 5699.84C4124.56 5699.82 4124.51 5699.78 4124.45 5699.76C4124.45 5699.76 4124.45 5699.76 4124.47 5699.78C4118.99 5697.04 4113.46 5694.41 4108.13 5691.42C4103.92 5689.05 4100.2 5686.01 4096.36 5683.16C4095.54 5682.61 4094.73 5682.1 4093.88 5681.6C4093.46 5681.4 4093 5681.21 4092.56 5681.03C4091.14 5680.59 4089.69 5680.19 4088.26 5679.84C4086.62 5679.54 4085 5679.3 4083.37 5679.1C4081.14 5679.01 4078.95 5679.01 4076.73 5679.1C4073.5 5679.36 4070.28 5679.67 4067.08 5680.2C4064.05 5680.85 4061.07 5681.6 4058.09 5682.5C4056.03 5683.2 4054.01 5683.99 4052.01 5684.87C4051.86 5684.95 4051.69 5685.02 4051.55 5685.09C4052.36 5686.05 4053.13 5686.99 4053.92 5687.94C4055.24 5689.58 4056.34 5691.31 4057.41 5693.11C4059.38 5696.42 4060.59 5699.96 4061.58 5703.64C4062.72 5707.83 4062.48 5712.43 4061.99 5716.67C4061.69 5719.1 4060.94 5721.55 4060.17 5723.84C4058.57 5728.7 4056 5733.22 4052.96 5737.33C4046.38 5746.27 4038.46 5754.17 4032.06 5763.24C4031.6 5763.93 4031.16 5764.65 4030.78 5765.35C4030.35 5766.25 4029.99 5767.15 4029.64 5768.09C4028.7 5771.01 4028.04 5773.99 4027.43 5777.02C4026.73 5780.35 4026.18 5783.75 4025.15 5787C4024.25 5789.83 4023.07 5792.33 4021.31 5794.74C4018.48 5798.62 4013.31 5801.25 4008.59 5801.76C4006.4 5802 4004.25 5801.98 4002.06 5801.56C3998.96 5800.96 3996.27 5799.63 3993.53 5798.09C3989.89 5796.01 3986.62 5792.79 3983.85 5789.69C3981.66 5787.21 3979.56 5784.69 3977.63 5781.98C3975.61 5779.17 3973.94 5776.05 3972.38 5772.96C3969.53 5767.3 3967.25 5761.3 3965.12 5755.33C3960.48 5742.3 3958.24 5728.68 3955.74 5715.13C3954.93 5711.25 3953.94 5707.41 3952.82 5703.6C3951.38 5699.47 3949.84 5695.41 3948.08 5691.42C3947.27 5689.84 3946.42 5688.31 3945.52 5686.82C3943.96 5684.54 3942.29 5682.37 3940.52 5680.24C3940.67 5680.39 3940.83 5680.59 3941 5680.77C3938.28 5677.57 3935.39 5674.49 3932.95 5671.09C3929.82 5666.75 3927.89 5661.9 3927.73 5656.53C3927.6 5652.37 3928.94 5648.33 3931.33 5644.95C3933.44 5641.91 3936.11 5639.34 3938.85 5636.9C3943.24 5632.96 3948.28 5629.87 3953.24 5626.69C3952.84 5626.95 3952.45 5627.19 3952.05 5627.45C3952.82 5626.97 3953.55 5626.47 3954.32 5626C3953.92 5626.23 3953.53 5626.49 3953.13 5626.75C3955 5625.52 3956.83 5624.29 3958.57 5622.93C3960.17 5622.36 3961.79 5621.84 3963.41 5621.34C3967.14 5620.33 3970.85 5619.38 3974.66 5618.73C3975.65 5618.61 3976.62 5618.51 3977.63 5618.46C3977.95 5618.46 3978.26 5618.48 3978.57 5618.5C3979.34 5618.59 3980.1 5618.72 3980.85 5618.86C3981.29 5619.01 3981.73 5619.12 3982.17 5619.29C3984.66 5620.33 3987.01 5621.62 3989.38 5622.89C3991.44 5623.99 3993.53 5624.98 3995.68 5625.9C4001.33 5628.35 4007.01 5630.7 4012.74 5632.89C4012.36 5632.74 4011.95 5632.58 4011.59 5632.43C4014.69 5633.62 4017.8 5634.87 4020.87 5636.25C4023.96 5637.61 4026.99 5639.08 4030.08 5640.44C4032.91 5641.71 4035.83 5642.81 4038.88 5643.31C4039.07 5643.33 4039.25 5643.37 4039.45 5643.4C4042.72 5643.88 4046.14 5643.88 4049.4 5643.18C4055.13 5641.97 4060.65 5639.58 4065.83 5636.88C4068.86 5635.28 4071.68 5633.51 4074.3 5631.27C4076.79 5629.18 4079.03 5626.79 4081.14 5624.32C4084.97 5619.89 4088.09 5615.04 4091.47 5610.35C4092.5 5608.99 4093.59 5607.72 4094.75 5606.51C4095.57 5605.72 4096.44 5604.97 4097.32 5604.25C4097.61 5604.05 4097.93 5603.85 4098.22 5603.66C4101.97 5607.69 4105.44 5612.01 4109.12 5616.12C4113.04 5620.48 4117.06 5624.76 4121.47 5628.66C4123.84 5630.77 4126.34 5632.91 4129.06 5634.52C4132.23 5636.38 4135.55 5637.78 4139.16 5638.55C4142.35 5639.23 4145.65 5639.23 4148.9 5639.1C4151.84 5638.99 4154.78 5638.75 4157.69 5638.38C4163.14 5637.69 4168.6 5636.64 4174.04 5635.79C4179.58 5634.93 4185.11 5634.21 4190.64 5633.51C4196.4 5632.8 4202.13 5632.12 4207.81 5631C4211.23 5630.3 4214.69 5629.51 4217.81 5627.87C4221.91 5625.72 4225.53 5622.5 4227.67 5618.35C4229.23 5615.32 4230.05 5611.79 4230.7 5608.42C4231.19 5605.83 4231.6 5603.2 4231.97 5600.57C4231.99 5600.63 4231.97 5600.7 4231.97 5600.76C4232.72 5595.52 4233.31 5590.32 4233.62 5585.06C4234.03 5579.58 4234.25 5574.07 4235.09 5568.64C4235.33 5567.54 4235.61 5566.47 4235.94 5565.39C4236.19 5564.65 4236.49 5563.94 4236.8 5563.18C4236.93 5562.94 4237.06 5562.71 4237.19 5562.47C4237.28 5562.36 4237.35 5562.23 4237.43 5562.14C4237.79 5561.79 4238.12 5561.44 4238.47 5561.11C4239.94 5559.89 4241.49 5558.79 4243.05 5557.76C4245.72 5556.05 4248.42 5554.38 4251.08 5552.69C4251.27 5552.58 4251.47 5552.47 4251.65 5552.32C4251.78 5552.26 4251.89 5552.19 4252.02 5552.1C4251.95 5552.15 4251.86 5552.21 4251.76 5552.26C4255.09 5550.21 4258.36 5548.11 4261.49 5545.83C4265.28 5543.06 4268.77 5540.06 4272.08 5536.73C4271.76 5537.03 4271.47 5537.34 4271.16 5537.63C4274.23 5534.54 4277.15 5531.27 4279.04 5527.28C4279.82 5525.65 4280.51 5523.97 4281.03 5522.23C4281.89 5519.43 4282.13 5516.49 4282.08 5513.55C4281.98 5508.81 4280.26 5503.85 4277.77 5499.84C4276.18 5497.16 4274.45 5494.55 4272.96 5491.79C4271.98 5489.82 4271.08 5487.82 4270.29 5485.8C4269.91 5484.71 4269.59 5483.59 4269.32 5482.43C4269.3 5482.3 4269.28 5482.14 4269.26 5481.99C4269.25 5481.81 4269.26 5481.64 4269.25 5481.46C4269.26 5481.4 4269.26 5481.35 4269.26 5481.29C4269.32 5481.02 4269.39 5480.76 4269.48 5480.5C4269.74 5479.82 4270.02 5479.18 4270.28 5478.55C4270.81 5477.45 4271.41 5476.37 4272.08 5475.34C4273.03 5473.88 4274.1 5472.47 4275.18 5471.13C4276.64 5469.45 4278.23 5467.87 4279.87 5466.38C4284.21 5462.62 4288.88 5459.27 4293.6 5456.04C4302.59 5449.91 4311.93 5444.33 4321.01 5438.3C4323.49 5436.66 4325.99 5435.02 4328.33 5433.19C4331.1 5431.04 4333.97 5428.88 4336.25 5426.18C4337.9 5424.2 4339.37 5422.08 4340.33 5419.66C4341.01 5417.93 4341.3 5416.05 4341.36 5414.2C4341.41 5412.56 4341.38 5410.91 4341.52 5409.29C4341.56 5409.09 4341.6 5408.89 4341.65 5408.67C4341.65 5408.63 4341.67 5408.59 4341.69 5408.55C4341.73 5408.48 4341.74 5408.41 4341.8 5408.32V5408.3C4342.17 5408.04 4342.5 5407.8 4342.87 5407.58C4345.99 5405.85 4349.34 5404.55 4352.52 5403C4356.16 5401.22 4359.76 5399.35 4363.27 5397.32C4366.21 5395.63 4369.19 5393.89 4371.95 5391.9C4374.17 5393.55 4376.45 5395.14 4378.82 5396.59C4384.83 5400.25 4391.32 5402.75 4397.96 5404.97C4404.63 5407.19 4411.15 5409.68 4417.51 5412.67C4417.15 5412.49 4416.76 5412.3 4416.39 5412.12C4416.78 5412.3 4417.2 5412.51 4417.62 5412.69C4417.68 5412.73 4417.74 5412.75 4417.79 5412.78C4427.31 5417.41 4436.48 5422.64 4445.34 5428.37C4448.62 5430.52 4451.83 5432.73 4454.87 5435.23C4456.36 5436.51 4457.77 5437.91 4459.08 5439.38C4459.98 5440.43 4460.84 5441.55 4461.65 5442.65C4464.09 5446.53 4465.8 5450.78 4468.49 5454.47C4471.25 5458.24 4474.74 5461.31 4478.34 5464.25C4482.99 5468.04 4487.7 5471.83 4492.49 5475.48C4497.84 5479.53 4503.32 5483.52 4509.04 5487.08C4516.08 5491.48 4523.84 5494.51 4531.34 5498.02C4531.19 5497.95 4531.04 5497.89 4530.91 5497.8C4531.17 5497.91 4531.41 5498.04 4531.67 5498.17C4531.8 5498.22 4531.92 5498.3 4532.05 5498.35C4531.98 5498.31 4531.92 5498.3 4531.85 5498.26C4534.52 5499.56 4537.13 5500.98 4539.76 5502.41C4545.91 5505.76 4552.18 5508.94 4558.62 5511.79C4566.52 5515.28 4574.64 5518.18 4582.93 5520.61C4591.32 5523.04 4600.07 5524.34 4608.8 5524.32C4612.38 5524.31 4615.93 5523.92 4619.46 5523.33C4623.26 5522.69 4627.03 5521.86 4630.89 5521.55C4632 5521.48 4633.12 5521.49 4634.2 5521.51C4635.38 5521.6 4636.55 5521.75 4637.69 5521.93C4640.76 5522.61 4643.74 5523.57 4646.78 5524.34C4649.53 5525.06 4652.33 5525.65 4655.18 5526C4661.37 5526.75 4667.68 5526.33 4673.82 5525.24C4689.09 5522.58 4703.65 5516.84 4716.68 5508.41C4720.05 5506.2 4723.34 5503.92 4726.44 5501.37C4729.33 5499.05 4732.07 5496.49 4734.7 5493.9C4736.63 5492.01 4738.5 5490.04 4740.38 5488.09C4740.51 5488.79 4740.63 5489.49 4740.78 5490.17C4741.92 5495.74 4743.34 5501.27 4745.19 5506.66C4746.28 5509.84 4747.67 5512.82 4749.51 5515.65C4751.18 5518.2 4753.06 5520.59 4755.08 5522.87C4758.74 5527.03 4762.75 5530.76 4766.85 5534.47C4770.23 5537.52 4773.37 5540.83 4776.4 5544.23C4777.09 5545.04 4777.75 5545.85 4778.37 5546.7C4778.56 5547.01 4778.74 5547.32 4778.92 5547.65C4779.05 5547.95 4779.16 5548.22 4779.29 5548.53C4779.33 5548.7 4779.38 5548.85 4779.42 5548.99C4779.46 5549.21 4779.49 5549.42 4779.51 5549.64C4779.57 5550.67 4779.58 5551.68 4779.55 5552.69C4779.53 5553.09 4779.51 5553.5 4779.47 5553.88C4779.22 5556.71 4778.54 5559.53 4778.65 5562.39C4778.74 5564.49 4779 5566.64 4779.68 5568.63C4780.56 5571.2 4781.9 5573.4 4783.72 5575.41C4787.67 5579.76 4793.33 5582.52 4798.74 5584.54C4803.92 5586.47 4809.2 5588.15 4814.58 5589.32C4817.76 5590.02 4821 5590.5 4824.25 5590.98C4826.04 5591.22 4827.8 5591.47 4829.58 5591.77C4829.6 5591.77 4829.62 5591.77 4829.62 5591.77C4829.86 5591.8 4830.1 5591.84 4830.32 5591.9C4830.08 5591.86 4829.84 5591.8 4829.62 5591.77C4829.6 5591.77 4829.6 5591.77 4829.58 5591.77C4829.84 5591.8 4830.08 5591.86 4830.32 5591.9C4830.39 5591.92 4830.47 5591.92 4830.54 5591.93C4830.54 5591.93 4830.52 5591.93 4830.5 5591.93C4832.67 5592.36 4834.86 5592.83 4836.99 5593.46C4837.91 5593.79 4838.81 5594.14 4839.71 5594.53C4840.17 5594.76 4840.65 5595 4841.09 5595.28C4841.22 5595.35 4841.31 5595.43 4841.42 5595.5C4841.5 5595.65 4841.57 5595.78 4841.62 5595.9C4841.81 5596.27 4841.96 5596.64 4842.1 5597.03C4842.67 5598.79 4843.11 5600.59 4843.5 5602.43C4843.79 5603.84 4844.03 5605.26 4844.18 5606.66C4844.2 5606.86 4844.2 5607.06 4844.22 5607.26C4843.5 5607.59 4842.78 5607.91 4842.01 5608.2C4840.61 5608.7 4839.18 5609.14 4837.75 5609.52C4837.08 5609.62 4836.42 5609.71 4835.74 5609.76C4831.73 5610.08 4827.71 5610.32 4823.68 5610.7C4823.98 5610.66 4824.25 5610.65 4824.55 5610.61C4820.5 5610.98 4816.37 5611.29 4812.43 5612.43C4806.57 5614.08 4801.68 5619.03 4800.61 5625.11C4799.6 5630.88 4800.39 5636.71 4801.35 5642.45C4802.14 5647.15 4803.11 5651.97 4804.8 5656.45C4806.68 5661.42 4809.69 5665.65 4813.74 5669.08C4815.52 5670.61 4817.42 5671.99 4819.35 5673.29C4820.41 5674.03 4821.53 5674.69 4822.58 5675.42C4822.62 5675.48 4822.62 5675.55 4822.64 5675.61C4822.62 5675.55 4822.62 5675.5 4822.6 5675.44C4822.87 5676.4 4823.19 5677.35 4823.57 5678.27C4820.23 5680.35 4817.08 5682.8 4813.61 5684.65C4813.1 5684.89 4812.58 5685.09 4812.08 5685.3C4811.46 5685.48 4810.87 5685.63 4810.25 5685.77C4808.81 5686.03 4807.36 5686.2 4805.89 5686.31C4801.22 5686.56 4796.55 5686.4 4791.88 5686.51C4787.56 5686.6 4783.21 5686.99 4778.87 5686.8C4778.15 5686.73 4777.43 5686.64 4776.72 5686.53C4776.24 5686.42 4775.74 5686.29 4775.27 5686.16C4774.84 5685.99 4774.42 5685.83 4774.02 5685.66C4773.65 5685.48 4773.32 5685.28 4772.99 5685.08C4772.64 5684.84 4772.31 5684.6 4771.97 5684.36C4771.96 5683.81 4771.98 5683.24 4771.99 5682.69C4772.36 5678.49 4773.43 5674.39 4773.92 5670.22C4774.29 5667.01 4774.18 5663.75 4773.04 5660.68C4771.75 5657.23 4769.09 5654.6 4766 5652.72C4763.67 5651.31 4760.95 5650.42 4758.32 5649.8C4755.56 5649.14 4752.75 5648.7 4749.92 5648.42C4744.42 5647.85 4738.89 5647.59 4733.35 5647.3C4733.3 5647.3 4733.24 5647.28 4733.19 5647.28C4733.21 5647.28 4733.23 5647.28 4733.23 5647.28C4733.17 5647.26 4733.12 5647.28 4733.06 5647.28C4733.1 5647.28 4733.12 5647.28 4733.13 5647.3C4732.6 5647.26 4732.07 5647.24 4731.53 5647.21C4731.94 5647.23 4732.34 5647.24 4732.77 5647.28C4732.1 5647.24 4731.44 5647.21 4730.8 5647.15C4731.2 5647.17 4731.63 5647.21 4732.05 5647.23C4725.6 5646.86 4719.16 5646.4 4712.75 5646.05C4713.17 5646.07 4713.58 5646.09 4714 5646.11C4713.26 5646.07 4712.53 5646.03 4711.77 5645.98C4712.2 5645.99 4712.62 5646.03 4713.04 5646.05C4703.61 5645.5 4694.13 5645.11 4684.66 5645.7C4684.64 5645.7 4684.64 5645.7 4684.64 5645.7C4684.62 5645.7 4684.59 5645.7 4684.57 5645.7C4676.92 5646.23 4669.31 5647.17 4661.96 5649.45C4655.86 5651.31 4649.92 5653.68 4643.91 5655.79C4643.78 5655.83 4643.69 5655.85 4643.56 5655.88C4642.38 5656.29 4641.21 5656.64 4640.01 5656.93C4639.72 5656.99 4639.4 5657.02 4639.11 5657.06C4638.5 5657.06 4637.88 5657.08 4637.27 5657.06C4636.92 5657.02 4636.59 5657.01 4636.24 5656.95C4635.14 5656.69 4634.05 5656.4 4632.95 5656.07C4628.45 5654.54 4623.98 5652.54 4619.28 5651.62C4616.15 5651.01 4613.08 5650.68 4609.9 5650.94C4607.95 5651.11 4606.04 5651.47 4604.11 5651.82C4599.28 5652.74 4594.44 5653.73 4589.77 5655.31C4584.39 5657.15 4579.28 5659.56 4573.96 5661.62C4572.97 5661.95 4571.96 5662.28 4570.93 5662.56C4570.42 5662.67 4569.9 5662.78 4569.39 5662.85C4569.2 5662.87 4569.04 5662.87 4568.85 5662.89C4568.74 5662.87 4568.65 5662.87 4568.54 5662.85C4568.17 5662.78 4567.81 5662.7 4567.46 5662.61C4560.84 5660.79 4554.39 5658.35 4547.92 5656.12C4541.85 5654.01 4535.78 5651.82 4529.64 5649.87C4523.45 5647.89 4517.2 5646.11 4510.73 5645.28C4504.63 5644.49 4498.51 5643.84 4492.37 5643.38C4479.2 5642.41 4465.95 5642.43 4452.85 5644.21C4445.46 5645.22 4437.81 5646.4 4430.82 5649.14C4424.11 5651.75 4417.62 5655.17 4411.69 5659.21C4408.86 5661.14 4406.27 5663.26 4403.86 5665.72C4401.67 5667.96 4399.5 5670.26 4397.37 5672.54C4393.25 5676.91 4389.19 5681.33 4384.83 5685.46C4383.75 5686.42 4382.66 5687.32 4381.52 5688.22C4380.55 5688.86 4379.57 5689.5 4378.56 5690.11C4377.86 5690.44 4377.13 5690.77 4376.43 5691.09C4376.21 5691.16 4375.97 5691.23 4375.75 5691.31C4375.38 5691.38 4375.05 5691.44 4374.7 5691.51C4373.93 5691.56 4373.16 5691.6 4372.39 5691.64C4371.39 5691.6 4370.4 5691.51 4369.43 5691.42C4368.73 5691.29 4368.07 5691.18 4367.39 5691.05C4366.67 5690.81 4365.97 5690.57 4365.25 5690.3C4359.8 5687.85 4354.48 5685.06 4349.12 5682.37C4346.36 5680.99 4343.62 5679.63 4340.82 5678.33C4337.57 5676.86 4334.21 5675.77 4330.83 5674.73C4327.24 5673.62 4323.64 5672.89 4319.89 5672.65C4316.78 5672.47 4313.55 5672.91 4310.62 5673.99C4307.24 5675.24 4303.93 5676.89 4301.58 5679.73C4298.56 5683.29 4296.12 5687.89 4295.4 5692.54C4294.89 5695.88 4294.8 5699.23 4294.74 5702.59C4294.59 5708.99 4294.52 5715.39 4294.8 5721.77C4295.09 5728.59 4295.62 5735.42 4296.4 5742.21C4296.76 5745.5 4297.19 5748.77 4297.66 5752.02C4298.2 5755.68 4298.69 5759.34 4299.8 5762.89C4301.98 5770.04 4305.9 5776.89 4311.67 5781.73C4316.82 5786.07 4322.87 5788.92 4328.71 5792.13C4330.88 5793.38 4333.01 5794.71 4335.07 5796.14C4337.41 5797.79 4339.65 5799.54 4341.96 5801.23C4346.84 5804.72 4352.18 5807.52 4357 5811.05C4359.45 5813 4361.74 5815.09 4363.97 5817.3C4365.18 5818.56 4366.38 5819.87 4367.52 5821.25C4367.85 5821.74 4368.18 5822.22 4368.49 5822.76C4368.69 5823.12 4368.89 5823.51 4369.04 5823.9C4369.1 5824.06 4369.15 5824.21 4369.19 5824.37C4369.43 5825.4 4369.59 5826.45 4369.76 5827.5C4370.25 5831.78 4370.33 5836.12 4370.79 5840.4C4371.3 5845.26 4372.28 5849.96 4373.51 5854.67C4373.51 5854.65 4373.51 5854.63 4373.51 5854.63C4374.41 5858.07 4375.75 5861.38 4377.52 5864.48C4380.84 5870.33 4385.27 5875.6 4389.5 5880.79C4393.75 5885.97 4397.99 5891.14 4402.31 5896.23C4406.98 5901.74 4411.98 5906.91 4417.28 5911.82C4419.54 5913.91 4421.74 5916.03 4424 5918.12C4426.43 5920.38 4428.99 5922.48 4431.6 5924.5C4431.49 5924.41 4431.37 5924.33 4431.28 5924.24C4436.34 5928.16 4441.76 5931.52 4447.29 5934.74C4453.05 5938.1 4458.93 5941.3 4464.79 5944.44C4470.27 5947.39 4475.79 5950.2 4481.34 5952.9C4487 5955.64 4492.64 5958.4 4498.1 5961.48C4502.49 5964.1 4506.78 5966.83 4510.88 5969.89C4514.61 5972.88 4518.23 5976.01 4521.94 5979.02C4525.18 5981.63 4528.43 5984.21 4531.43 5987.07C4532.42 5988.08 4533.38 5989.13 4534.28 5990.25C4536.04 5992.64 4537.62 5995.16 4539.11 5997.75C4542.59 6003.84 4545.82 6010.05 4548.62 6016.5C4548.63 6016.59 4548.69 6016.69 4548.73 6016.81C4548.8 6016.98 4548.87 6017.15 4548.95 6017.29C4548.96 6017.33 4548.96 6017.38 4548.98 6017.42C4549.02 6017.46 4549.04 6017.48 4549.04 6017.53C4549.06 6017.57 4549.06 6017.59 4549.06 6017.62C4549.11 6017.77 4549.17 6017.9 4549.22 6018.03C4549.17 6017.9 4549.13 6017.77 4549.06 6017.62C4549.07 6017.62 4549.07 6017.64 4549.07 6017.64C4549.2 6017.94 4549.31 6018.23 4549.44 6018.52C4549.37 6018.36 4549.3 6018.19 4549.22 6018.03C4550.97 6022.31 4552.6 6026.61 4554.28 6030.91C4556.19 6035.77 4558.19 6040.69 4560.67 6045.29C4564.09 6051.65 4567.9 6057.83 4572.42 6063.47C4576.57 6068.69 4580.99 6073.69 4585.47 6078.63C4590.25 6083.89 4595.31 6088.87 4600.49 6093.74C4605.47 6098.45 4610.8 6102.81 4616.15 6107.11C4626.46 6115.4 4637.22 6123.14 4647.58 6131.37C4657.69 6139.4 4667.45 6147.97 4676.66 6157.05C4676.35 6156.76 4676.04 6156.44 4675.74 6156.15C4677.44 6157.84 4679.11 6159.55 4680.76 6161.24C4678.83 6160.87 4676.96 6160.53 4675.08 6160.27Z"
        fill="#2D4159"/>
</svg>