<svg
    width="7773"
    height="7615"
    viewBox="0 0 7773 7615"
    fill="none"
    xmlns="http://www.w3.org/2000/svg">
    <path id="HU"
        d="M4595.54 5503.64C4591.1 5502.72 4586.72 5501.46 4582.38 5500.08C4582.25 5500.02 4582.14 5499.99 4582.01 5499.95C4574.63 5497.47 4567.42 5494.51 4560.42 5491.16C4556.24 5489.12 4552.16 5486.95 4548.12 5484.77C4544.87 5483 4541.56 5481.29 4538.17 5479.73C4534.44 5478.02 4530.67 5476.42 4526.98 5474.67C4523.73 5473.06 4520.55 5471.31 4517.48 5469.36C4512.24 5465.91 4507.15 5462.19 4502.22 5458.35C4497.64 5454.8 4493.05 5451.2 4488.62 5447.49C4487.44 5446.44 4486.32 5445.37 4485.23 5444.23C4484.77 5443.7 4484.35 5443.15 4483.97 5442.58C4482.09 5439.6 4480.75 5436.33 4478.84 5433.35C4476.89 5430.3 4474.68 5427.47 4472.18 5424.84C4468.41 5420.87 4464.11 5417.49 4459.57 5414.44C4448.86 5407.27 4437.75 5400.85 4426.15 5395.23C4426.25 5395.28 4426.32 5395.32 4426.41 5395.36C4420.47 5392.51 4414.46 5389.99 4408.23 5387.89C4403.18 5386.16 4398.09 5384.55 4393.25 5382.3C4391.39 5381.37 4389.57 5380.37 4387.83 5379.23C4385.82 5377.93 4383.93 5376.51 4382.02 5375.08C4380.53 5373.98 4379.02 5372.87 4377.59 5371.68C4377.09 5371.22 4376.61 5370.74 4376.12 5370.28C4375.66 5369.73 4375.22 5369.16 4374.81 5368.59C4373.47 5366.39 4372.35 5364.05 4371.1 5361.84C4369.94 5359.8 4368.73 5357.8 4367.46 5355.83C4364.56 5351.29 4361.52 5346.77 4358.14 5342.58C4354.67 5338.28 4350.81 5334.35 4346.73 5330.63C4343.53 5327.75 4340.38 5324.86 4337.48 5321.7C4336.63 5320.69 4335.81 5319.66 4335.05 5318.59C4334.56 5317.8 4334.08 5317.01 4333.64 5316.18C4333.25 5315.3 4332.88 5314.4 4332.55 5313.48C4332.39 5312.91 4332.22 5312.36 4332.08 5311.81C4332.08 5311.79 4332.11 5311.77 4332.11 5311.75C4333.29 5310.49 4334.52 5309.25 4335.79 5308.08C4337.41 5306.68 4339.08 5305.38 4340.84 5304.16C4342.31 5303.22 4343.8 5302.36 4345.33 5301.59C4346.23 5301.17 4347.17 5300.78 4348.09 5300.43C4348.89 5300.17 4349.68 5299.95 4350.49 5299.77C4354.13 5299.18 4357.83 5299.27 4361.45 5298.45C4364.5 5297.78 4367.44 5296.5 4370.2 5295.01C4372.81 5293.63 4375.2 5291.9 4377.39 5289.93C4380.6 5287.05 4383.75 5283.08 4384.63 5278.72C4385.11 5276.3 4385.31 5273.91 4384.87 5271.46C4384.46 5269.11 4383.66 5266.94 4382.48 5264.86C4380.68 5261.7 4378.53 5258.7 4376.49 5255.69C4374.06 5252.12 4371.47 5248.72 4369.02 5245.17C4368.62 5244.55 4368.25 5243.91 4367.88 5243.26C4367.52 5242.45 4367.18 5241.63 4366.87 5240.76C4366.6 5239.88 4366.38 5238.96 4366.16 5238.04C4365.95 5236.81 4365.79 5235.58 4365.68 5234.35C4365.53 5230.76 4365.9 5227.23 4365.97 5223.65C4366.03 5220.73 4365.92 5217.84 4365.38 5214.97C4365.07 5213.28 4364.57 5211.65 4364.17 5209.99C4364.26 5209.75 4364.37 5209.51 4364.48 5209.27C4365 5208.26 4365.57 5207.27 4366.19 5206.3C4367.09 5204.97 4368.09 5203.7 4369.11 5202.47C4372.42 5198.72 4376.03 5195.3 4379.32 5191.52C4381.5 5189 4383.49 5186.3 4385.35 5183.54C4387.5 5180.32 4389.32 5176.68 4389.61 5172.77C4389.89 5169.42 4389.35 5166.26 4388.01 5163.17C4386.84 5160.45 4384.94 5158.15 4382.77 5156.15C4379.72 5153.32 4376.1 5151.17 4372.33 5149.4C4367.79 5147.25 4362.9 5145.87 4358.42 5143.65C4357.99 5143.39 4357.57 5143.14 4357.17 5142.9C4357 5142.75 4356.84 5142.64 4356.69 5142.51C4357.11 5142.4 4357.55 5142.29 4357.98 5142.2C4363.55 5140.99 4369.21 5140.16 4374.85 5139.33C4379.68 5138.63 4384.54 5138.06 4389.22 5136.74C4394.17 5135.34 4399.08 5133.58 4403.47 5130.84C4408.29 5127.86 4412.39 5123.85 4416.04 5119.55C4422.13 5112.33 4427.18 5104.31 4431.52 5095.91C4434.67 5089.83 4437.05 5083.32 4440.33 5077.27C4440.82 5076.45 4441.32 5075.62 4441.87 5074.83C4442.04 5074.64 4442.2 5074.44 4442.37 5074.22C4442.42 5074.17 4442.5 5074.09 4442.57 5074.06C4443.27 5073.52 4443.97 5073.03 4444.72 5072.57C4445.51 5072.18 4446.3 5071.8 4447.07 5071.43C4448.25 5070.97 4449.43 5070.56 4450.64 5070.2C4452.04 5069.92 4453.4 5069.7 4454.77 5069.48C4455.53 5069.46 4456.25 5069.41 4456.98 5069.41C4457.24 5069.42 4457.51 5069.44 4457.77 5069.46C4458.21 5069.57 4458.67 5069.66 4459.13 5069.74C4460.05 5070.01 4460.97 5070.31 4461.91 5070.64C4464 5071.54 4466.01 5072.57 4467.99 5073.69C4471.58 5075.78 4474.98 5078.12 4478.29 5080.64C4481.94 5083.5 4485.36 5086.61 4488.69 5089.9C4488.4 5089.61 4488.06 5089.3 4487.77 5089C4490.77 5092 4493.67 5095.14 4496.74 5098.06C4500.47 5101.59 4504.5 5104.96 4508.87 5107.62C4513.58 5110.47 4518.58 5112.64 4523.87 5114C4528.96 5115.31 4534.24 5116.02 4539.5 5116.41C4544.41 5116.76 4549.33 5116.87 4554.24 5116.46C4554.64 5116.43 4555.03 5116.37 4555.43 5116.3C4555.47 5116.3 4555.51 5116.3 4555.54 5116.3C4568.01 5114.81 4579.39 5109.4 4591.41 5106.19C4594.26 5105.54 4597.14 5105.03 4600.05 5104.63C4608.54 5103.85 4617.09 5104.06 4625.64 5103.89C4632.14 5103.76 4638.65 5103.58 4645.16 5103.14C4648.21 5102.93 4651.28 5102.71 4654.24 5101.91C4657.01 5101.15 4659.72 5100.14 4662.27 5098.87C4669.42 5095.29 4674.77 5089.06 4679.64 5082.88C4684.16 5077.16 4688.45 5071.21 4692.49 5065.14C4695.23 5061.02 4697.88 5056.81 4699.99 5052.37C4701.74 5048.67 4703.1 5044.88 4704.29 5041.01C4705.32 5037.64 4706.33 5034.26 4707.66 5031.02C4707.66 5030.99 4707.67 5030.95 4707.71 5030.91C4707.84 5030.73 4707.95 5030.56 4708.1 5030.38C4708.37 5030.05 4708.65 5029.74 4708.94 5029.41C4709.62 5028.84 4710.32 5028.29 4711.06 5027.75C4711.5 5027.49 4711.94 5027.24 4712.4 5026.96C4712.1 5027.11 4711.79 5027.26 4711.52 5027.4C4711.83 5027.24 4712.14 5027.09 4712.45 5026.93C4712.66 5026.81 4712.88 5026.72 4713.08 5026.61C4715.19 5025.6 4717.33 5024.72 4719.53 5023.91C4728.24 5021.19 4737.16 5019.31 4746.06 5017.31C4754.64 5015.4 4763.21 5013.4 4771.7 5011.12C4781.44 5008.52 4791.13 5005.84 4800.82 5003.03C4809.62 5000.45 4818.39 4997.72 4827.19 4995.03C4835.47 4992.5 4843.81 4990.05 4852.05 4987.35C4855.3 4986.26 4858.57 4985.2 4861.72 4983.75C4864.47 4982.48 4867.1 4981.03 4869.66 4979.35C4872.6 4977.44 4875.3 4975.33 4877.65 4972.7C4879.93 4970.16 4881.97 4967.51 4883.85 4964.68C4887.01 4959.87 4889.67 4954.46 4891.35 4948.93C4894.18 4939.56 4895.78 4929.87 4899.14 4920.66C4901.46 4914.7 4904.23 4908.95 4907.32 4903.36C4909.25 4899.83 4911.22 4896.36 4913.09 4892.81C4914.67 4889.8 4916.25 4886.78 4917.95 4883.8C4917.96 4883.78 4917.96 4883.77 4917.98 4883.75C4918 4883.73 4918 4883.71 4918.02 4883.69C4918.02 4883.67 4918.04 4883.67 4918.04 4883.66C4918.06 4883.64 4918.06 4883.62 4918.07 4883.6C4918.07 4883.6 4918.07 4883.6 4918.07 4883.62C4918.17 4883.43 4918.28 4883.25 4918.39 4883.07C4918.28 4883.25 4918.19 4883.42 4918.07 4883.6C4918.96 4882.15 4919.91 4880.73 4920.94 4879.39C4921.66 4878.53 4922.39 4877.7 4923.18 4876.91C4923.7 4876.45 4924.21 4876.03 4924.77 4875.6C4925.06 4875.42 4925.35 4875.22 4925.65 4875.03C4926.22 4874.87 4926.77 4874.72 4927.32 4874.57C4928.24 4874.41 4929.14 4874.28 4930.04 4874.19C4930.98 4874.13 4931.88 4874.12 4932.8 4874.13C4933.96 4874.21 4935.11 4874.34 4936.25 4874.5C4937.93 4874.87 4939.6 4875.31 4941.25 4875.81C4946.49 4877.57 4951.64 4879.63 4957.06 4880.82C4962.71 4882.07 4968.42 4882.83 4974.21 4882.75C4984.8 4882.66 4995.13 4880.22 5005.66 4879.28C5008.96 4879.06 5012.26 4879.02 5015.57 4879.19C5015.57 4879.19 5015.57 4879.19 5015.59 4879.19C5015.7 4879.19 5015.81 4879.19 5015.92 4879.21C5020.08 4879.54 5024.21 4880 5028.35 4879.26C5034.47 4878.14 5040.11 4875.2 5045.52 4872.2C5049.86 4869.81 5054.05 4867.2 5058.31 4864.67C5060.92 4863.1 5063.55 4861.49 5066.25 4860.09C5067.87 4864.04 5069.14 4868.1 5070.35 4872.19C5070.22 4871.74 5070.09 4871.32 5069.98 4870.9C5070.65 4873.2 5071.29 4875.49 5071.97 4877.79C5071.97 4877.77 5071.97 4877.77 5071.97 4877.77C5073.79 4884.02 5075.87 4890.44 5079.56 4895.84C5082.74 4900.46 5088.57 4903.56 5094.08 4904.21C5099.14 4904.81 5104.05 4904.3 5109.01 4903.25C5113.46 4902.31 5117.85 4901.05 5122.12 4899.5C5125.61 4898.25 5129.1 4896.82 5132.32 4894.96C5137.54 4891.89 5142.04 4887.83 5147.11 4884.56C5148.93 4883.47 5150.83 4882.48 5152.76 4881.58C5155.35 4883.27 5158 4884.89 5160.68 4886.45C5170.15 4892 5180.07 4896.89 5190.2 4901.12C5195.79 4903.45 5201.42 4905.62 5206.97 4907.98C5212.66 4910.36 5218.27 4912.86 5223.84 4915.51C5230.86 4919 5237.55 4923.12 5244.23 4927.24C5249.8 4930.66 5255.31 4934.24 5261.32 4936.87C5262.08 4937.18 5262.85 4937.5 5263.62 4937.79C5263.18 4938.84 5262.76 4939.89 5262.35 4940.95C5262.41 4940.82 5262.44 4940.69 5262.5 4940.58C5262.2 4941.32 5261.93 4942.06 5261.63 4942.79C5261.54 4943.08 5261.41 4943.38 5261.32 4943.65C5261.14 4944.17 5260.92 4944.68 5260.73 4945.2C5260.46 4945.92 5260.18 4946.63 5259.89 4947.37C5259.15 4949.19 5258.42 4951.01 5257.55 4952.74C5257.3 4953.16 5257.06 4953.58 5256.78 4953.99C5256.74 4954.04 5256.67 4954.08 5256.63 4954.13C5256.45 4954.26 5256.29 4954.37 5256.1 4954.48C5252.98 4956.17 5249.63 4957.48 5246.38 4958.93C5242.87 4960.49 5239.34 4962.04 5235.81 4963.62C5228.9 4966.71 5221.97 4969.78 5215.13 4973.03C5210.28 4975.33 5205.35 4977.5 5200.72 4980.22C5197.76 4981.96 5195.07 4983.89 5192.43 4986.1C5190.13 4988.03 5188.03 4990.18 5185.99 4992.38C5181.75 4996.96 5178.16 5002.4 5175.83 5008.19C5174.63 5011.12 5173.77 5014.11 5173.16 5017.22C5172.68 5019.54 5172.43 5021.87 5171.93 5024.2C5171.51 5025.82 5170.99 5027.37 5170.4 5028.95C5167.41 5036.1 5163.99 5043.06 5160.28 5049.88C5157.94 5054.15 5155.5 5058.38 5153.05 5062.57C5151.58 5065.07 5150.18 5067.6 5148.82 5070.16C5147.57 5072.55 5146.29 5074.94 5145.28 5077.44C5143.03 5082.95 5141.29 5088.67 5140.52 5094.61C5139.74 5100.34 5139.65 5106.04 5139.85 5111.81C5139.84 5111.41 5139.82 5110.99 5139.8 5110.58C5139.96 5115.75 5140.42 5120.86 5141.01 5125.99C5141.51 5130.27 5142.06 5134.53 5142.28 5138.87C5142.3 5139.59 5142.26 5140.29 5142.23 5140.99C5142.1 5142.03 5141.91 5143.06 5141.69 5144.05C5141.03 5146.78 5140.2 5149.48 5139.32 5152.12C5138.42 5154.55 5137.43 5156.94 5136.32 5159.29C5135.28 5161.37 5134.1 5163.39 5132.85 5165.36C5129.19 5170.8 5125.11 5175.93 5121.07 5181.11C5116.58 5186.83 5112.02 5192.66 5108.82 5199.24C5108.79 5199.33 5108.73 5199.4 5108.7 5199.51C5107.04 5203.24 5105.88 5207.05 5105.3 5211.11C5104.84 5214.24 5104.6 5217.4 5104.17 5220.54C5103.14 5227.2 5101.8 5233.8 5100.17 5240.32C5100.17 5240.3 5100.19 5240.28 5100.19 5240.27C5100.19 5240.32 5100.15 5240.4 5100.13 5240.45C5100.13 5240.41 5100.15 5240.36 5100.15 5240.32C5100.11 5240.43 5100.09 5240.54 5100.06 5240.65C5100.02 5240.87 5099.95 5241.08 5099.91 5241.3C5099.91 5241.28 5099.91 5241.26 5099.91 5241.22C5099.91 5241.2 5099.91 5241.19 5099.91 5241.17C5099.91 5241.22 5099.87 5241.3 5099.85 5241.35C5099.21 5243.63 5098.57 5245.91 5097.72 5248.13C5097.32 5249.11 5096.86 5250.05 5096.38 5250.98C5095.66 5252.18 5094.93 5253.3 5094.14 5254.42C5092.85 5256.06 5091.45 5257.62 5090.02 5259.14C5090 5259.16 5089.97 5259.2 5089.95 5259.22C5089.87 5259.27 5089.82 5259.35 5089.74 5259.42C5088.88 5260.3 5088 5261.15 5087.1 5262.01C5084.95 5264.05 5082.7 5266.06 5080.83 5268.34C5079.58 5269.86 5078.22 5271.55 5077.48 5273.39C5076.67 5275.36 5076.07 5277.34 5075.81 5279.46C5075.19 5284.55 5075.24 5289.68 5075.61 5294.81C5075.96 5299.35 5076.44 5303.87 5077.02 5308.35C5077.67 5313.17 5078.42 5318 5078.7 5322.86C5078.72 5324.03 5078.71 5325.21 5078.64 5326.37C5078.59 5326.85 5078.51 5327.31 5078.46 5327.76C5078.26 5328.48 5078.07 5329.18 5077.81 5329.88C5077.39 5330.93 5076.95 5331.94 5076.47 5332.95C5075.55 5334.66 5074.58 5336.33 5073.49 5337.97C5073.48 5338 5073.44 5338.04 5073.42 5338.08C5073.03 5338.61 5072.63 5339.09 5072.24 5339.58C5071.67 5340.12 5071.11 5340.63 5070.54 5341.15C5069.91 5341.64 5069.27 5342.14 5068.61 5342.6C5067.41 5343.33 5066.18 5344 5064.89 5344.6C5063.62 5345.15 5062.34 5345.61 5061.03 5346.05C5059.34 5346.53 5057.63 5346.94 5055.9 5347.27C5051.53 5347.89 5047.1 5347.89 5042.76 5348.57C5039.76 5349.03 5036.84 5349.71 5033.99 5350.71C5030.65 5351.86 5027.54 5353.48 5024.54 5355.36C5024.47 5355.41 5024.41 5355.45 5024.34 5355.48C5024.32 5355.5 5024.3 5355.5 5024.29 5355.52C5024.29 5355.52 5024.29 5355.54 5024.27 5355.54C5020.11 5358.24 5016.27 5361.39 5012.14 5364.11C5007.06 5367.25 5001.58 5369.75 4996.12 5372.21C4996.16 5372.19 4996.22 5372.18 4996.27 5372.16C4992.49 5373.85 4988.7 5375.48 4984.91 5377.19C4984.76 5377.25 4984.65 5377.3 4984.49 5377.38C4984.43 5377.41 4984.36 5377.43 4984.31 5377.47C4984.43 5377.41 4984.53 5377.34 4984.65 5377.29C4984.42 5377.38 4984.18 5377.51 4983.94 5377.62C4983.97 5377.6 4984.01 5377.6 4984.07 5377.58C4981.29 5378.85 4978.51 5380.17 4975.76 5381.46C4973.22 5382.56 4970.59 5383.52 4967.94 5384.33C4966.95 5384.6 4965.96 5384.9 4964.97 5385.19C4963.17 5385.72 4961.57 5386.57 4960.28 5387.84C4958.97 5386.33 4957.34 5385.1 4955.45 5384.18C4949.56 5381.29 4942.67 5381.35 4936.27 5381.99C4927.17 5382.91 4918.28 5385.04 4909.34 5386.84C4904.51 5387.78 4899.67 5388.76 4894.84 5389.69C4894.44 5389.77 4894.03 5389.86 4893.61 5389.93C4893.68 5389.91 4893.77 5389.9 4893.85 5389.88C4879.47 5392.62 4864.66 5394.55 4851.42 5401.15C4844.49 5404.6 4837.95 5408.87 4831.66 5413.35C4825.67 5417.62 4820.03 5422.25 4814.53 5427.12C4814.86 5426.83 4815.17 5426.55 4815.5 5426.24C4810.37 5430.78 4805.37 5435.45 4800.3 5440.02C4800.14 5440.17 4799.99 5440.3 4799.82 5440.45C4799.8 5440.46 4799.77 5440.5 4799.75 5440.52C4799.68 5440.58 4799.6 5440.63 4799.53 5440.7C4799.51 5440.7 4799.51 5440.72 4799.51 5440.72C4799.49 5440.72 4799.49 5440.74 4799.49 5440.74C4799.47 5440.76 4799.47 5440.76 4799.46 5440.78C4799.44 5440.81 4799.4 5440.83 4799.36 5440.87C4799.27 5440.94 4799.18 5441.02 4799.07 5441.11C4796.51 5443.3 4793.9 5445.43 4791.13 5447.36C4789.64 5448.33 4788.11 5449.21 4786.55 5450.02C4785.3 5450.58 4784.03 5451.09 4782.73 5451.57C4780.63 5452.23 4778.52 5452.74 4776.37 5453.2C4770.5 5454.29 4764.57 5454.82 4758.65 5455.56C4752.54 5456.29 4746.64 5457.82 4741.41 5461.22C4736.2 5464.62 4731.87 5469.01 4727.58 5473.48C4723.98 5477.25 4720.32 5480.94 4716.44 5484.43C4713.83 5486.73 4711.06 5488.81 4708.19 5490.76C4708.28 5490.7 4708.41 5490.61 4708.5 5490.56C4704.24 5493.37 4699.84 5495.9 4695.25 5498.2H4695.27C4695.27 5498.2 4695.27 5498.2 4695.25 5498.2C4695.16 5498.26 4695.06 5498.29 4694.97 5498.35C4691.88 5499.82 4688.76 5501.11 4685.54 5502.23C4681.17 5503.66 4676.74 5504.86 4672.25 5505.78C4669.53 5506.25 4666.79 5506.66 4664.05 5506.84C4662.53 5506.93 4660.98 5506.92 4659.46 5506.86C4657.99 5506.73 4656.52 5506.55 4655.03 5506.27C4652.09 5505.65 4649.22 5504.78 4646.32 5503.99C4641.37 5502.65 4636.26 5501.77 4631.13 5502.04C4624.26 5502.41 4617.62 5504.21 4610.78 5504.8C4608.71 5504.89 4606.65 5504.86 4604.57 5504.75C4602.33 5504.58 4600.1 5504.36 4597.86 5504.03C4597.11 5503.9 4596.32 5503.77 4595.54 5503.64Z"
        fill="#2D4159"/>
</svg>