<svg
    width="7773"
    height="7615"
    viewBox="0 0 7773 7615"
    fill="none"
    xmlns="http://www.w3.org/2000/svg">
    <path id="IE"
        d="M1357.35 3757.7C1357.41 3756.38 1357.39 3755.11 1357.28 3753.81C1357.26 3752.98 1357.13 3752.12 1357.06 3751.27C1356.89 3750.06 1356.71 3748.9 1356.45 3747.72C1356.25 3746.8 1355.97 3745.88 1355.72 3745C1355.62 3744.89 1355.61 3744.74 1355.59 3744.58C1355.59 3744.52 1355.55 3744.52 1355.55 3744.47C1355.51 3744.41 1355.51 3744.36 1355.48 3744.32C1355.35 3743.9 1355.2 3743.55 1355.02 3743.13C1354.89 3742.67 1354.65 3742.23 1354.47 3741.82C1353.62 3739.87 1352.61 3738.02 1351.54 3736.23C1351.12 3735.48 1350.62 3734.76 1350.2 3734.03C1350.04 3733.81 1349.87 3733.59 1349.76 3733.33C1349.6 3733.11 1349.43 3732.83 1349.32 3732.63C1348.88 3731.97 1348.38 3731.31 1347.98 3730.66C1347.52 3730.06 1347.08 3729.4 1346.67 3728.75C1346.51 3728.59 1346.38 3728.42 1346.31 3728.2C1345.85 3727.59 1345.4 3726.93 1345.02 3726.29C1344.63 3725.54 1344.25 3724.86 1343.92 3724.12C1343.79 3723.7 1343.6 3723.29 1343.46 3722.93C1343.4 3722.58 1343.31 3722.21 1343.24 3721.8C1343.16 3720.99 1343.07 3720.2 1343 3719.41C1343.03 3718.18 1343.11 3717.02 1343.18 3715.79C1343.47 3713.77 1343.86 3711.8 1344.26 3709.8C1345.53 3704.87 1347.22 3700.04 1347.72 3695C1347.87 3693.31 1347.87 3691.58 1347.78 3689.89C1347.76 3689.64 1347.76 3689.4 1347.74 3689.14C1347.65 3687.71 1347.52 3686.31 1347.43 3684.86C1347.44 3680.33 1348 3675.92 1347.9 3671.44C1347.83 3665.61 1346.67 3660.04 1344.5 3654.65C1342.59 3649.95 1339.78 3645.56 1336.69 3641.51C1336.16 3640.79 1335.61 3640.11 1335.07 3639.45C1334.49 3638.77 1333.93 3638.11 1333.35 3637.43C1332.76 3636.81 1332.17 3636.13 1331.62 3635.46C1331.01 3634.84 1330.44 3634.16 1329.83 3633.48C1329.89 3633.15 1329.93 3632.8 1329.93 3632.47C1328.2 3631.24 1326.51 3629.89 1324.89 3628.59C1321.45 3625.81 1318.22 3622.74 1315.59 3619.2C1312.26 3614.73 1310.37 3609.12 1310.41 3603.57C1310.44 3599.29 1311.16 3595.02 1311.45 3590.72C1311.49 3589.05 1311.54 3587.39 1311.49 3585.7C1311.47 3585.12 1311.47 3584.56 1311.43 3584.03C1311.36 3583.83 1311.36 3583.57 1311.34 3583.33C1311.2 3581.7 1310.99 3580.04 1310.7 3578.37C1310.57 3577.85 1310.44 3577.36 1310.28 3576.84C1310.17 3576.53 1310.02 3576.22 1309.91 3575.94C1309.76 3575.63 1309.6 3575.35 1309.43 3575.13C1309.39 3575.08 1309.36 3574.97 1309.3 3574.97C1309.01 3574.67 1308.81 3574.4 1308.48 3574.16C1305.13 3571.46 1301.66 3569.03 1298.42 3566.24C1296.54 3564.58 1294.76 3562.89 1293.13 3561.03C1290.9 3558.5 1289.01 3555.85 1287.48 3552.78C1285.06 3547.8 1284.47 3542.4 1284.73 3536.92C1285.07 3530.87 1285.99 3524.84 1286.4 3518.79C1286.49 3516.84 1286.44 3514.86 1286.32 3512.93C1286.14 3510.78 1285.87 3508.68 1285.52 3506.61C1285.37 3506 1285.2 3505.43 1285.04 3504.8C1284.89 3504.44 1284.74 3504.07 1284.65 3503.72C1284.3 3503.13 1283.93 3502.52 1283.53 3501.94C1283.33 3501.66 1283.16 3501.39 1282.96 3501.13C1282.91 3501.11 1282.87 3501.05 1282.83 3501.05V3501C1282.74 3500.93 1282.65 3500.93 1282.59 3500.87C1282.54 3500.87 1282.5 3500.85 1282.46 3500.8L1281.21 3500.61C1281.01 3500.69 1280.81 3500.71 1280.61 3500.72C1280.46 3500.76 1280.3 3500.78 1280.19 3500.85C1279.73 3501.04 1279.3 3501.22 1278.88 3501.4C1277.24 3502.25 1275.63 3503.13 1274.1 3504.14C1269.08 3507.54 1264.41 3511.44 1259.12 3514.31C1255.9 3516.05 1252.69 3517.54 1249.27 3518.77C1246.42 3519.79 1243.46 3520.43 1240.57 3521.35C1240.26 3521.5 1239.95 3521.64 1239.62 3521.81C1239.08 3522.06 1238.6 3522.34 1238.05 3522.65C1237.61 3522.98 1237.23 3523.28 1236.77 3523.65C1232.34 3527.63 1227.92 3531.61 1223.04 3535.08C1218.75 3538.09 1214.21 3540.54 1208.97 3541.35C1206.36 3541.7 1203.57 3541.55 1200.92 3541.16C1199.23 3540.92 1197.5 3540.61 1195.85 3540.17C1192.39 3539.27 1189.08 3537.95 1186 3536.18C1182.78 3534.33 1180 3531.75 1177.26 3529.34C1172.72 3525.34 1168.37 3521.11 1164.03 3516.83C1160.21 3513.02 1156.29 3509.2 1152.63 3505.21C1148.48 3500.61 1145.06 3495.39 1142.38 3489.82C1139.88 3484.64 1139.16 3479.12 1139.1 3473.44C1139.05 3468.46 1139.53 3463.46 1140.35 3458.57C1140.41 3458.24 1140.46 3457.89 1140.56 3457.56L1140.65 3456.94C1141.66 3451.72 1142.96 3446.55 1145.43 3441.85C1148.86 3435.21 1154.93 3430.34 1162.14 3428.54C1166.27 3427.56 1170.41 3426.79 1174.54 3425.82C1178.88 3424.79 1183.18 3423.63 1187.41 3422.29C1188.83 3421.75 1190.22 3421.22 1191.58 3420.63C1192.28 3420.25 1192.98 3419.86 1193.68 3419.42C1193.84 3419.29 1194.07 3419.13 1194.29 3418.96C1194.91 3418.35 1195.55 3417.71 1196.14 3417.07C1197.47 3415.49 1198.68 3413.85 1199.82 3412.09C1201.68 3409.2 1203.33 3406.26 1204.91 3403.19C1206 3400.78 1206.99 3398.37 1208.31 3396.06C1209.86 3393.28 1212.01 3390.69 1214.21 3388.41C1217.93 3384.57 1222.13 3381.35 1226.6 3378.37C1226.6 3378.32 1226.66 3378.34 1226.66 3378.34C1226.88 3378.17 1226.99 3378.1 1227.15 3377.97C1227.21 3377.93 1227.32 3377.89 1227.37 3377.86C1231.4 3375.19 1235.61 3372.71 1239.76 3370.17C1244.41 3367.31 1249.06 3364.46 1253.72 3361.59C1262.72 3355.91 1271.97 3350.47 1280.85 3344.7C1280.9 3344.61 1281.01 3344.53 1281.12 3344.49C1281.34 3344.38 1281.56 3344.22 1281.73 3344.09L1281.78 3344.05C1282 3343.89 1282.23 3343.78 1282.45 3343.61C1282.56 3343.52 1282.67 3343.48 1282.78 3343.41C1288.95 3339.2 1295.06 3334.83 1300.86 3330.16C1306.43 3325.71 1312.1 3321.32 1317.46 3316.65C1321.25 3313.32 1324.91 3309.86 1328.51 3306.41C1328.49 3305.91 1328.46 3305.36 1328.44 3304.86C1328.36 3304.31 1328.31 3303.76 1328.24 3303.21C1328.2 3303.15 1328.2 3303.15 1328.2 3303.1C1328.02 3302.03 1327.7 3301 1327.43 3299.99C1327.21 3299.48 1326.99 3298.94 1326.77 3298.43C1324.28 3292.84 1319.58 3288.37 1314.03 3285.58C1313.24 3285.21 1312.46 3284.86 1311.62 3284.53C1310.13 3283.93 1308.62 3283.41 1307.17 3282.99C1303.71 3282.03 1300.2 3281.52 1296.49 3281.72C1295.94 3281.74 1295.39 3281.81 1294.85 3281.83C1294.8 3281.87 1294.76 3281.81 1294.76 3281.81C1293.81 3281.92 1292.85 3282.07 1291.93 3282.29C1289.14 3282.91 1286.49 3283.82 1283.79 3284.85C1282.63 3285.32 1281.44 3285.73 1280.26 3286.15C1280.2 3286.19 1280.09 3286.22 1280 3286.21C1278.9 3286.63 1277.81 3287.01 1276.71 3287.46C1275.94 3287.73 1275.19 3288.06 1274.41 3288.39C1273.57 3288.82 1272.76 3289.24 1272.01 3289.72C1271.8 3289.7 1271.62 3289.66 1271.44 3289.59L1270.9 3289.51C1267.98 3288.94 1265.06 3288.36 1262.21 3288.78C1260.55 3289.02 1259.01 3289.39 1257.56 3289.92C1256.78 3289.86 1256.05 3289.79 1255.28 3289.73C1251.62 3289.5 1247.92 3289.59 1244.34 3290.16C1238.7 3291.06 1233.62 3293.71 1228.51 3296C1226.47 3296.83 1224.41 3297.51 1222.3 3298.15C1221.68 3298.36 1221.01 3298.56 1220.39 3298.76C1216.77 3299.66 1213.16 3300.45 1209.52 3301.11C1206.4 3301.59 1203.26 3301.87 1200.13 3302.01C1199.45 3301.96 1198.77 3301.96 1198.07 3301.9C1197.45 3301.81 1196.88 3301.68 1196.25 3301.59C1191.4 3300.19 1186.8 3298.25 1181.69 3297.79C1180.1 3297.66 1178.57 3297.57 1176.99 3297.58C1176.23 3297.62 1175.44 3297.66 1174.65 3297.69C1173.9 3297.79 1173.17 3297.82 1172.36 3297.9C1171.6 3297.99 1170.85 3298.12 1170.1 3298.21C1169.29 3298.34 1168.53 3298.47 1167.78 3298.61C1167.03 3298.74 1166.25 3298.93 1165.5 3299.07C1164.73 3299.26 1163.97 3299.44 1163.2 3299.62C1155.48 3301.55 1147.87 3305.21 1141.27 3309.61C1139.6 3310.69 1138 3311.83 1136.35 3312.97C1135.13 3313.83 1133.92 3314.73 1132.76 3315.65C1130.43 3317.47 1128.13 3319.37 1125.92 3321.35C1124.78 3322.36 1123.75 3323.39 1122.67 3324.42C1121.75 3325.32 1120.78 3326.22 1119.86 3327.16C1119.56 3327.45 1119.32 3327.73 1119.05 3328.02C1118.94 3328.15 1118.81 3328.28 1118.7 3328.41C1116.81 3330.6 1115.08 3332.91 1114.31 3335.6C1113.96 3336.68 1113.72 3337.88 1113.64 3339.05C1113.64 3339.44 1113.63 3339.84 1113.63 3340.23C1113.63 3340.58 1113.63 3340.91 1113.66 3341.28C1113.7 3341.68 1113.79 3342.09 1113.88 3342.49V3342.55C1114.05 3343.06 1114.18 3343.52 1114.36 3343.94C1115.15 3345.87 1116.24 3347.66 1117.28 3349.49C1117.41 3349.66 1117.47 3349.86 1117.54 3350.03C1117.67 3350.19 1117.72 3350.4 1117.82 3350.56C1118.02 3350.89 1118.2 3351.26 1118.41 3351.57C1118.53 3351.99 1118.68 3352.4 1118.81 3352.82C1118.81 3352.88 1118.79 3352.91 1118.74 3352.95C1118.55 3353.23 1118.31 3353.48 1118.13 3353.74C1117.61 3354.2 1117.1 3354.68 1116.6 3355.1C1115.96 3355.54 1115.35 3356 1114.69 3356.39C1114.16 3356.65 1113.68 3356.92 1113.15 3357.14C1112.65 3357.45 1112.14 3357.67 1111.6 3357.95C1109.99 3358.59 1108.31 3359.24 1106.62 3359.73C1103.04 3360.69 1099.32 3361.22 1095.74 3362.18C1093.57 3362.8 1091.51 3363.54 1089.56 3364.68C1087.95 3365.62 1086.38 3366.63 1084.88 3367.78C1084.16 3368.37 1083.48 3368.96 1082.78 3369.59C1082.1 3370.23 1081.46 3370.87 1080.81 3371.55C1078.39 3374.29 1076.46 3377.45 1075.37 3381.15C1074.58 3383.8 1074.16 3386.44 1074.07 3389.03C1074.09 3390.23 1074.12 3391.41 1074.25 3392.56C1074.38 3393.72 1074.6 3394.88 1074.88 3396C1075.21 3397.14 1075.58 3398.23 1076.05 3399.33C1076.38 3400.06 1076.71 3400.8 1077.06 3401.5C1077.06 3401.55 1077.06 3401.55 1077.06 3401.55C1077.89 3403 1078.77 3404.36 1079.73 3405.58C1079.89 3405.8 1080.1 3406.04 1080.26 3406.26C1080.59 3406.64 1080.94 3407.05 1081.27 3407.43H1081.33C1081.88 3408 1082.45 3408.57 1083.04 3409.16C1083.64 3409.75 1084.25 3410.32 1084.91 3410.85C1085.57 3411.39 1086.2 3411.88 1086.86 3412.38C1087.54 3412.82 1088.26 3413.28 1088.99 3413.67C1089.82 3414.14 1090.63 3414.55 1091.46 3414.97C1093.94 3416.13 1096.46 3417.09 1099.16 3417.82C1101.49 3418.41 1103.9 3418.76 1106.2 3419.09C1106.97 3419.2 1107.71 3419.25 1108.42 3419.36C1109.16 3419.42 1109.89 3419.48 1110.67 3419.55C1112.71 3419.7 1114.73 3419.75 1116.77 3419.84C1118 3419.88 1119.21 3419.9 1120.45 3419.99C1121.68 3420.03 1122.89 3420.1 1124.1 3420.17L1124.99 3420.3C1125.43 3420.91 1125.83 3421.55 1126.14 3422.2C1126.59 3422.8 1126.95 3423.39 1127.3 3424.03C1127.87 3424.9 1128.42 3425.82 1128.97 3426.7C1129.07 3426.81 1129.09 3426.92 1129.18 3427.03C1129.27 3427.09 1129.31 3427.2 1129.38 3427.31L1129.42 3427.36C1128.94 3427.58 1128.4 3427.86 1127.93 3428.08C1126.97 3428.48 1126.03 3428.83 1125.06 3429.18C1124.12 3429.53 1123.13 3429.88 1122.15 3430.19C1121.53 3429.75 1120.85 3429.36 1120.15 3429.07C1117.6 3428.06 1115.04 3427.29 1112.28 3426.97C1108.41 3426.55 1104.62 3426.85 1100.78 3427.51C1095.34 3428.39 1089.86 3430.14 1085.15 3433.04C1080.01 3436.22 1075.04 3440.23 1072.23 3445.67C1070.83 3448.43 1070.39 3451.2 1070.26 3454.05C1070.23 3454.99 1070.23 3455.93 1070.3 3456.86V3456.92C1070.06 3456.94 1069.75 3456.94 1069.51 3456.9C1069.25 3456.92 1068.98 3456.86 1068.74 3456.83C1068.3 3456.77 1067.82 3456.74 1067.38 3456.68C1067.43 3456.68 1067.43 3456.64 1067.49 3456.64C1062.19 3455.87 1056.95 3454.66 1051.72 3453.5C1046.68 3452.32 1041.53 3451.42 1036.48 3450.28C1035.63 3450.06 1034.77 3449.84 1033.87 3449.55C1033.59 3449.42 1033.31 3449.27 1033 3449.13C1032.6 3448.87 1032.19 3448.61 1031.79 3448.35C1031.31 3447.93 1030.83 3447.53 1030.36 3447.07C1029.82 3446.64 1029.34 3446.22 1028.87 3445.76C1028 3444.95 1027.14 3444.13 1026.31 3443.32C1026.15 3443.15 1025.96 3442.97 1025.8 3442.8C1025.7 3442.75 1025.58 3442.62 1025.48 3442.51C1025.36 3442.38 1025.17 3442.27 1025.04 3442.14C1020.32 3437.76 1015.12 3433.94 1009.46 3430.91C1004.22 3428.08 998.646 3426.13 993.021 3424.13C992.599 3423.96 992.194 3423.76 991.772 3423.59C991.68 3423.48 991.606 3423.37 991.569 3423.28V3423.22C989.382 3419.36 987.25 3415.74 984.455 3412.34C981.772 3409.14 978.628 3406.37 975.264 3403.87C971.974 3401.46 968.555 3399.29 964.805 3397.66C958.831 3395.06 952.342 3394.7 945.945 3395.63C943.537 3395.96 941.184 3396.52 938.831 3397.14H938.776C937.581 3397.51 936.46 3397.84 935.265 3398.21C934.125 3398.59 932.931 3399 931.791 3399.37C930.284 3399.93 928.776 3400.5 927.269 3401.07C922.857 3402.64 918.482 3404.27 914.071 3405.84C911.222 3406.85 908.501 3407.93 905.817 3409.14C904.917 3409.55 904.016 3410.03 903.17 3410.49C901.994 3411.09 900.872 3411.77 899.714 3412.49C894.99 3415.49 890.303 3418.94 886.369 3422.89C884.218 3425.14 881.976 3427.32 880.101 3429.75C879.66 3430.38 879.182 3430.95 878.741 3431.57C878.722 3431.66 878.667 3431.72 878.557 3431.79C876.976 3434.16 875.597 3436.57 874.531 3439.18C873.98 3440.54 873.538 3441.94 873.171 3443.35C873.024 3444.07 872.858 3444.79 872.748 3445.56C872.619 3446.37 872.491 3447.25 872.472 3448.08C872.417 3449.49 872.491 3450.94 872.674 3452.4C872.766 3453.1 872.914 3453.81 873.061 3454.51C873.722 3457.36 874.807 3460.08 876.296 3462.62C877.748 3465.1 879.549 3467.29 881.571 3469.35C882.086 3469.82 882.601 3470.34 883.115 3470.82C884.678 3472.27 886.351 3473.61 888.079 3474.88C889.99 3476.29 891.902 3477.69 893.869 3479.07C895.836 3480.45 897.803 3481.75 899.714 3483.17C901.663 3484.64 903.611 3486.15 905.431 3487.8C905.468 3487.86 905.523 3487.86 905.56 3487.91C905.652 3487.97 905.725 3488.08 905.817 3488.15C905.946 3488.32 906.056 3488.54 906.13 3488.68C906.258 3488.85 906.369 3489.01 906.497 3489.18C906.736 3489.6 906.92 3490.02 907.141 3490.47C907.325 3491.27 907.453 3492.03 907.637 3492.86C907.747 3493.46 907.913 3494.03 908.023 3494.58C908.17 3495.19 908.336 3495.76 908.501 3496.37C908.666 3496.94 908.832 3497.49 909.034 3498.08C909.255 3498.65 909.457 3499.22 909.714 3499.8C911.626 3504.16 914.677 3507.91 918.482 3510.83C919.236 3511.44 919.99 3511.99 920.799 3512.51H920.854C920.504 3513.79 920.265 3515.13 920.174 3516.5V3516.55C920.155 3516.94 920.155 3517.34 920.155 3517.73C920.155 3518.11 920.192 3518.52 920.229 3518.92C920.265 3519.71 920.394 3520.52 920.578 3521.29V3521.33C920.376 3521.4 920.21 3521.48 919.971 3521.49C916.497 3522.36 913.041 3523.09 909.494 3523.76C906.516 3524.25 903.464 3524.64 900.505 3525.3C899.696 3525.47 898.869 3525.65 898.06 3525.87C897.031 3526.11 896.02 3526.35 895.045 3526.66C892.325 3527.45 889.678 3528.33 887.031 3529.33C884.421 3530.37 881.829 3531.51 879.347 3532.78C877.968 3533.46 876.59 3534.2 875.193 3534.93C875.027 3535.06 874.862 3535.13 874.66 3535.24C866.903 3539.47 859.329 3544.42 852.896 3550.47C852.271 3551.05 851.645 3551.66 851.002 3552.3C850.414 3552.95 849.789 3553.59 849.201 3554.25C848.024 3555.56 846.885 3556.92 845.837 3558.33C843.227 3562.08 841.076 3566.31 841.039 3570.92C841.002 3574.86 841.388 3578.61 842.767 3582.3C844.771 3587.73 847.785 3593.07 851.848 3597.27C852.068 3597.45 852.234 3597.67 852.436 3597.89C852.657 3598.11 852.859 3598.3 853.098 3598.48C853.484 3598.88 853.906 3599.29 854.348 3599.69C854.44 3599.75 854.513 3599.82 854.605 3599.93C855.469 3600.7 856.406 3601.42 857.326 3602.16C858.245 3602.89 859.237 3603.57 860.23 3604.21C861.259 3604.86 862.307 3605.45 863.41 3606C864.403 3606.53 865.469 3607.04 866.535 3607.54C867.601 3608 868.667 3608.44 869.733 3608.9C873.042 3610.22 876.406 3611.4 879.715 3612.67C881.167 3613.22 882.564 3613.77 883.906 3614.42C884.347 3614.67 884.807 3614.93 885.211 3615.24C885.836 3615.74 886.443 3616.25 887.012 3616.79C887.104 3616.84 887.178 3616.95 887.27 3617.06C887.307 3617.12 887.362 3617.17 887.399 3617.17C888.171 3618.57 888.851 3620.04 889.623 3621.49C890.413 3622.89 891.24 3624.25 892.343 3625.48C893.06 3626.27 893.851 3627.03 894.586 3627.72C895.376 3628.42 896.203 3629.08 896.994 3629.75C898.667 3631.03 900.376 3632.17 902.122 3633.4C902.214 3633.46 902.251 3633.52 902.343 3633.59C902.325 3633.74 902.288 3633.92 902.325 3634.08C901.461 3639.32 900.156 3644.49 900.799 3649.91C901.02 3651.71 901.406 3653.53 901.883 3655.33C902.049 3655.9 902.159 3656.46 902.38 3656.99C902.545 3657.56 902.711 3658.07 902.931 3658.59C903.244 3659.47 903.611 3660.32 904.034 3661.11C904.917 3662.85 905.946 3664.53 907.141 3666.09C907.711 3666.86 908.391 3667.6 909.089 3668.29C909.439 3668.64 909.788 3668.94 910.137 3669.23C910.486 3669.58 910.872 3669.93 911.277 3670.24H911.313C911.938 3670.72 912.563 3671.16 913.188 3671.6C914.494 3672.48 915.799 3673.26 917.177 3673.96C918.243 3674.45 919.236 3674.95 920.321 3675.35C920.652 3675.5 920.964 3675.65 921.35 3675.76C922.049 3676.05 922.802 3676.27 923.556 3676.47H923.611C924.31 3676.68 925.082 3676.84 925.835 3677.04C926.607 3677.15 927.361 3677.32 928.188 3677.45C929.916 3677.74 931.662 3677.96 933.445 3678.16L933.648 3678.18C934.953 3678.33 936.313 3678.48 937.673 3678.57C937.71 3678.57 937.71 3678.57 937.765 3678.59C932.453 3680.52 927.122 3682.3 921.773 3683.97C913.041 3686.79 904.825 3690.5 897.104 3695.43C895.101 3696.66 893.207 3698.11 891.369 3699.65C891.314 3699.69 891.314 3699.75 891.204 3699.78C889.457 3701.34 887.766 3703.02 886.185 3704.76C886.13 3704.86 886.057 3704.89 886.02 3704.93C884.476 3706.73 883.024 3708.57 881.755 3710.5C880.432 3712.52 879.292 3714.62 878.336 3716.75C877.546 3718.5 876.884 3720.33 876.314 3722.15C876.075 3723.05 875.8 3723.99 875.616 3724.91C875.175 3726.95 874.862 3729.03 874.752 3731.14C874.623 3733.04 874.696 3734.87 874.825 3736.71C874.862 3736.77 874.844 3736.86 874.844 3736.95C874.899 3737.59 874.954 3738.2 875.009 3738.84C875.083 3739.4 875.138 3739.95 875.156 3740.53C875.266 3741.09 875.34 3741.69 875.358 3742.24L875.285 3742.78C875.248 3743.02 875.156 3743.26 875.082 3743.44C875.009 3743.53 874.954 3743.66 874.936 3743.75C874.807 3743.97 874.678 3744.16 874.549 3744.38C873.943 3745.19 873.281 3745.96 872.583 3746.75C870.303 3748.86 867.895 3750.83 865.708 3753.02C863.667 3755.13 861.792 3757.23 860.469 3759.84C859.899 3760.99 859.384 3762.19 858.961 3763.4C858.943 3763.49 858.943 3763.55 858.888 3763.64C858.52 3764.82 858.19 3765.99 858.024 3767.21C857.822 3768.55 857.822 3769.93 857.969 3771.27C858.134 3772.52 858.337 3773.84 858.631 3775.11C858.686 3775.42 858.778 3775.77 858.888 3776.09C858.943 3776.38 859.053 3776.66 859.145 3776.97C859.348 3777.59 859.568 3778.16 859.862 3778.75C860.12 3779.28 860.45 3779.82 860.708 3780.35C861.296 3781.32 861.958 3782.3 862.693 3783.25C863.024 3783.7 863.392 3784.19 863.814 3784.65C864.899 3785.99 866.204 3787.11 867.638 3788.07C868.134 3788.38 868.63 3788.66 869.127 3788.97C870.689 3789.78 872.307 3790.46 873.888 3791.05C873.98 3791.07 874.072 3791.09 874.127 3791.14C874.605 3791.25 875.064 3791.43 875.542 3791.54C876.149 3791.73 876.719 3791.88 877.307 3792C880.799 3792.72 884.384 3792.79 887.913 3792.52C889.218 3792.41 890.45 3792.3 891.755 3792.15C893.354 3791.95 894.917 3791.73 896.479 3791.51C897.38 3791.4 898.299 3791.23 899.2 3791.07C900.358 3790.9 901.516 3790.66 902.692 3790.44C904.77 3790.06 906.792 3789.61 908.832 3789.12C910.927 3788.64 912.968 3788.11 915.027 3787.56C917.067 3787.02 919.071 3786.47 921.074 3785.88C922.876 3785.37 924.677 3784.84 926.424 3784.25C928.225 3783.68 929.99 3783.09 931.754 3782.46C933.942 3781.66 936.147 3780.74 938.372 3779.98C938.978 3780.17 939.548 3780.3 940.155 3780.5C941.294 3780.81 942.471 3781.18 943.592 3781.55C945.339 3782.04 947.066 3782.65 948.813 3783.24L948.758 3783.27C948.647 3783.35 948.537 3783.38 948.427 3783.48C948.372 3783.57 948.261 3783.6 948.151 3783.68C946.497 3784.58 944.842 3785.41 943.114 3786.2C941.92 3786.66 940.725 3787.08 939.53 3787.48C939.475 3787.48 939.475 3787.48 939.475 3787.48C938.262 3787.94 937.085 3788.37 935.835 3788.73C925.78 3791.25 915.449 3792.8 905.321 3795.09C900.431 3796.2 895.505 3797.3 890.615 3798.4C885.836 3799.47 881.13 3800.66 876.369 3801.58C874.77 3801.78 873.116 3801.99 871.48 3802.04C870.891 3802 870.303 3802.02 869.678 3801.97L869.237 3801.91C865.965 3801.03 862.767 3800.07 859.458 3799.39C857.932 3799.08 856.406 3798.81 854.844 3798.62C849.274 3798 843.741 3797.48 838.153 3797.02C833.576 3796.64 829.054 3796.38 824.458 3796.05C823.962 3796.07 823.484 3796.01 822.988 3795.97C817.97 3795.68 812.896 3795.33 807.896 3794.91C805.176 3794.61 802.529 3794.23 799.9 3793.73C799.128 3793.66 798.319 3793.49 797.547 3793.33C796.775 3793.22 796.058 3793.07 795.305 3792.91C794.588 3792.79 793.871 3792.65 793.154 3792.5C789.974 3791.69 786.941 3790.96 783.632 3791.4C782.07 3791.62 780.599 3791.99 779.184 3792.57C778.504 3792.87 777.805 3793.2 777.162 3793.55C776.518 3793.95 775.912 3794.36 775.305 3794.76C774.698 3795.22 774.129 3795.66 773.577 3796.18C773.301 3796.43 772.952 3796.67 772.732 3796.93C772.456 3797.19 772.162 3797.45 771.923 3797.74C770.875 3798.82 769.882 3799.95 768.963 3801.2C768.044 3802.45 767.162 3803.68 766.335 3805C765.71 3805.94 765.158 3806.95 764.57 3807.94C764.037 3808.95 763.485 3809.95 762.934 3810.99C762.438 3812 761.941 3813.07 761.5 3814.08C761.059 3815.15 760.599 3816.21 760.195 3817.28C759.864 3818.16 759.533 3819.06 759.221 3819.95C759.202 3820.04 759.202 3820.09 759.147 3820.13C758.265 3822.76 757.438 3825.44 756.978 3828.18C756.335 3831.88 756.372 3835.33 756.978 3838.95C756.978 3839.01 756.978 3839.01 756.96 3839.04L756.997 3839.1C756.427 3839.56 755.967 3840.04 755.361 3840.48L755.342 3840.53C753.063 3842.32 750.71 3843.99 748.21 3845.55C748.155 3845.59 748.045 3845.62 747.953 3845.66C747.879 3845.75 747.842 3845.75 747.732 3845.77C747.401 3845.97 747.089 3846.18 746.721 3846.32C746.041 3846.56 745.361 3846.82 744.699 3847C743.817 3847.32 742.898 3847.57 742.015 3847.85C741.335 3848.09 740.673 3848.29 739.993 3848.49C736.942 3849.52 733.927 3850.66 730.986 3851.89C724.019 3854.76 717.126 3858.77 711.648 3863.91C710.214 3865.28 708.836 3866.65 707.494 3868.09C707.439 3868.18 707.365 3868.31 707.255 3868.4C706.667 3869.04 706.134 3869.7 705.582 3870.37C704.001 3872.39 702.567 3874.56 701.409 3876.98C700.968 3877.9 700.637 3878.84 700.307 3879.83V3879.89C699.792 3881.69 699.461 3883.6 699.424 3885.51C699.406 3886.34 699.424 3887.24 699.498 3888.09C699.498 3888.14 699.534 3888.2 699.516 3888.29C699.59 3889.13 699.718 3890 699.884 3890.84C700.049 3891.71 700.27 3892.57 700.545 3893.4C701.226 3895.42 702.145 3897.31 703.358 3899.08C704.259 3900.35 705.214 3901.52 706.225 3902.65C706.317 3902.7 706.354 3902.81 706.446 3902.87C706.483 3902.92 706.483 3902.92 706.52 3902.98C706.906 3903.38 707.384 3903.84 707.77 3904.25C708.67 3905.11 709.681 3905.99 710.674 3906.89C710.803 3907 710.968 3907.19 711.152 3907.3C711.28 3907.42 711.409 3907.54 711.593 3907.66C711.722 3907.74 711.814 3907.85 711.961 3907.9C712.273 3908.14 712.622 3908.4 712.935 3908.64C714.13 3909.5 715.343 3910.37 716.593 3911.19H716.648C716.924 3911.38 717.236 3911.58 717.549 3911.76L717.586 3911.82C717.678 3911.84 717.769 3911.89 717.843 3912C715.876 3913.05 713.799 3914.02 711.887 3915.07C711.409 3915.35 710.913 3915.68 710.435 3915.94C709.461 3916.54 708.542 3917.13 707.641 3917.85C707.2 3918.18 706.759 3918.56 706.354 3918.93C701.52 3923.34 699.387 3929.52 699.516 3935.79C699.553 3937.17 699.682 3938.62 699.976 3940C700.012 3940.4 700.104 3940.81 700.251 3941.17C700.454 3942.19 700.693 3943.16 701.042 3944.15C701.483 3945.44 702.053 3946.71 702.714 3947.88C703.339 3949.01 703.965 3950.09 704.645 3951.17C704.994 3951.76 705.417 3952.31 705.803 3952.92C706.078 3953.36 706.464 3953.86 706.777 3954.3C708.247 3956.34 709.902 3958.25 711.593 3960.07C712.88 3961.39 714.222 3962.66 715.619 3963.91C716.317 3964.56 717.016 3965.14 717.714 3965.7C718.468 3966.3 719.166 3966.89 719.92 3967.44C720.986 3968.23 722.052 3968.99 723.174 3969.74C723.982 3970.31 724.736 3970.81 725.563 3971.27C726.317 3971.78 727.144 3972.24 727.953 3972.75C728.137 3972.83 728.265 3972.96 728.449 3973.07C729.901 3973.91 731.354 3974.81 732.732 3975.71C733.688 3976.3 734.571 3976.91 735.453 3977.59C736.262 3978.1 737.107 3978.67 737.916 3979.23C738.1 3979.3 738.284 3979.43 738.467 3979.56C739.092 3979.94 739.773 3980.35 740.416 3980.73C746.114 3984.13 752.64 3984.3 759.055 3984.24C761.868 3984.17 764.662 3984.22 767.493 3984.39C768.485 3984.39 769.496 3984.45 770.526 3984.54C771.059 3984.61 771.592 3984.68 772.07 3984.81C772.768 3985.02 773.393 3985.2 774.055 3985.4C774.202 3985.48 774.386 3985.55 774.515 3985.62C774.735 3985.75 774.919 3985.88 775.14 3986.01C775.268 3986.12 775.36 3986.19 775.489 3986.3C775.654 3986.47 775.82 3986.69 776.004 3986.87C776.095 3986.98 776.114 3987.09 776.206 3987.2C776.408 3987.53 776.555 3987.85 776.739 3988.21C776.959 3988.78 777.162 3989.41 777.364 3990.03C777.603 3990.86 777.823 3991.67 777.989 3992.53C778.026 3992.68 778.007 3992.79 777.989 3992.88C778.026 3992.97 778.044 3993.14 778.026 3993.29C778.044 3993.88 778.007 3994.46 777.952 3995.09C777.805 3996.1 777.621 3997.06 777.419 3998.07C777.107 3999.11 776.776 4000.14 776.426 4001.17C776.04 4002.06 775.673 4002.94 775.305 4003.77C774.882 4004.65 774.515 4005.47 774.092 4006.34C773.43 4007.53 772.676 4008.65 771.96 4009.78C771.647 4010.27 771.371 4010.82 771.096 4011.32C770.893 4011.72 770.728 4012.15 770.562 4012.57C770.397 4012.99 770.25 4013.42 770.14 4013.84C770.029 4014.26 769.919 4014.7 769.79 4015.12C769.129 4018.03 769.221 4021.1 770.232 4023.95C770.342 4024.15 770.415 4024.37 770.489 4024.57C770.544 4024.83 770.654 4025.05 770.783 4025.25C770.949 4025.73 771.187 4026.15 771.426 4026.52C771.426 4026.52 771.426 4026.52 771.426 4026.58C771.812 4027.28 772.309 4027.94 772.75 4028.6C773.357 4029.43 774.055 4030.16 774.772 4030.86C776.978 4032.96 779.588 4034.67 782.272 4036.14C783.687 4036.89 785.213 4037.55 786.647 4038.21C791.316 4040.27 796.389 4041.56 801.352 4042.59C803.319 4043.01 805.231 4043.4 807.198 4043.69C808.981 4043.95 810.819 4044.17 812.676 4044.24C814.495 4044.32 816.315 4044.28 818.098 4044.15C819.293 4044.08 820.433 4043.95 821.591 4043.78C822.749 4043.62 823.907 4043.38 825.028 4043.16C826.517 4042.77 827.988 4042.4 829.477 4041.94C832.124 4041.1 834.716 4040.14 837.234 4039.04C837.289 4039 837.326 4039 837.381 4038.97C838.282 4038.51 839.238 4038.1 840.138 4037.64C844.274 4035.58 848.318 4033.27 852.307 4030.86C859.973 4026.17 866.958 4020.46 873.998 4014.83H874.035C874.641 4014.33 875.211 4013.88 875.873 4013.42C876.498 4012.92 877.105 4012.42 877.821 4011.93C879.053 4010.93 880.377 4010 881.737 4009.1C881.847 4009.06 881.902 4009.02 881.994 4008.99C881.994 4008.99 882.049 4008.95 882.104 4008.95C882.362 4008.93 882.546 4008.91 882.803 4008.89C883.446 4008.89 884.071 4008.93 884.715 4008.99L885.009 4009.02C885.799 4009.04 886.626 4009.06 887.417 4009.13C888.446 4009.19 889.512 4009.24 890.542 4009.35C891.516 4009.39 892.545 4009.5 893.556 4009.59C897.086 4010.01 900.597 4010.57 904.089 4011.28C904.898 4011.5 905.652 4011.71 906.442 4011.98C907.196 4012.2 907.913 4012.39 908.648 4012.64C910.027 4013.05 911.424 4013.49 912.821 4014.04H912.876C914.273 4014.65 915.596 4015.27 916.938 4015.92C917.637 4016.21 918.317 4016.5 919.016 4016.82C919.714 4017.07 920.413 4017.37 921.111 4017.61C922.049 4017.9 923.004 4018.18 923.997 4018.38C924.438 4018.45 924.861 4018.54 925.284 4018.62C926.056 4018.73 926.828 4018.8 927.618 4018.86C928.537 4018.95 929.475 4018.93 930.412 4018.93C931.331 4018.97 932.232 4018.89 933.188 4018.84C933.298 4018.8 933.427 4018.82 933.537 4018.78H933.592C934.236 4018.73 934.842 4018.62 935.449 4018.56C936.056 4018.45 936.662 4018.34 937.269 4018.23C938.942 4017.88 940.633 4017.44 942.269 4016.95C942.526 4016.84 942.839 4016.72 943.114 4016.61C943.169 4016.58 943.28 4016.54 943.317 4016.54C943.684 4016.39 943.997 4016.25 944.364 4016.1C945.78 4015.51 947.25 4014.94 948.666 4014.32C948.666 4014.26 948.721 4014.28 948.721 4014.28C949.824 4013.8 950.89 4013.32 951.938 4012.79C952.949 4012.29 953.96 4011.82 954.971 4011.26C955.026 4011.23 955.136 4011.19 955.228 4011.15C955.393 4011.08 955.559 4010.95 955.706 4010.88C956.515 4010.42 957.36 4009.94 958.188 4009.43C959.162 4008.84 960.191 4008.2 961.129 4007.5H961.165C962.324 4006.63 963.482 4005.82 964.584 4005C964.695 4004.87 964.805 4004.78 964.915 4004.7C966.184 4003.77 967.36 4002.75 968.555 4001.69C969.676 4000.71 970.706 3999.74 971.753 3998.65C971.809 3998.56 971.864 3998.53 971.937 3998.43C973.04 3997.31 974.051 3996.14 975.025 3994.85C976.128 3993.34 977.195 3991.82 978.169 3990.24C979.014 3988.78 979.786 3987.28 980.448 3985.7C980.908 3984.59 981.422 3983.47 981.919 3982.37C982.286 3981.54 982.654 3980.7 983.077 3979.89C983.279 3979.48 983.536 3979.11 983.794 3978.71C983.977 3978.43 984.217 3978.23 984.4 3977.96C984.676 3977.7 984.97 3977.44 985.246 3977.24H985.301C985.65 3976.95 985.908 3976.74 986.239 3976.54C987.25 3975.95 988.316 3975.42 989.382 3974.92C989.437 3974.89 989.437 3974.89 989.492 3974.85C989.933 3974.57 990.448 3974.41 990.926 3974.13C992.819 3973.32 994.786 3972.63 996.753 3971.98C997.929 3971.71 999.088 3971.49 1000.3 3971.27C1001.51 3971.1 1002.71 3970.99 1003.94 3970.92C1005.94 3970.97 1007.86 3971.05 1009.86 3971.19C1011.02 3971.32 1012.18 3971.49 1013.33 3971.71C1013.68 3971.71 1014.01 3971.8 1014.34 3971.85C1014.84 3971.87 1015.3 3972 1015.83 3972.11L1016.51 3972.2C1016.61 3972.22 1016.72 3972.24 1016.79 3972.3C1019.99 3973.01 1023.17 3973.77 1026.42 3974C1027.45 3974.06 1028.43 3974.1 1029.45 3974.1C1032.51 3974.06 1035.5 3973.8 1038.54 3973.56C1041.13 3973.34 1043.7 3973.23 1046.33 3973.12C1047.23 3973.07 1048.13 3972.99 1048.96 3972.96C1049.84 3972.94 1050.7 3972.87 1051.59 3972.81C1052.58 3972.75 1053.52 3972.7 1054.51 3972.64C1055.26 3972.55 1056.02 3972.48 1056.81 3972.39C1057.67 3972.26 1058.52 3972.15 1059.36 3972.02H1059.42C1061.18 3971.73 1062.95 3971.41 1064.67 3971.06C1064.78 3971.03 1064.82 3970.99 1064.88 3970.99C1070.28 3969.76 1075.5 3968.01 1080.69 3965.82C1082.27 3965.16 1083.85 3964.46 1085.43 3963.71C1087.43 3962.77 1089.45 3961.8 1091.46 3960.81C1092.78 3960.11 1094.12 3959.48 1095.43 3958.88C1096.75 3958.18 1098.07 3957.55 1099.45 3956.96C1101.35 3956.16 1103.28 3955.46 1105.23 3954.81C1105.48 3954.7 1105.8 3954.65 1106.09 3954.65C1106.4 3954.56 1106.71 3954.5 1106.95 3954.43C1107.45 3954.41 1107.89 3954.32 1108.41 3954.3C1108.64 3954.28 1108.88 3954.32 1109.14 3954.3C1110.48 3954.5 1111.73 3954.72 1113.02 3955.02C1121.75 3957.28 1130.59 3958.71 1139.36 3960.64C1140.32 3960.88 1141.25 3961.12 1142.19 3961.45C1143.15 3961.69 1144.08 3962.02 1145.02 3962.35C1145.9 3962.72 1146.73 3963.14 1147.6 3963.62C1148.63 3964.26 1149.67 3964.91 1150.65 3965.64C1151.64 3966.28 1152.67 3966.98 1153.64 3967.7C1154.01 3967.9 1154.36 3968.16 1154.73 3968.4C1157.58 3970.38 1160.46 3972.18 1163.61 3973.58C1165.5 3974.41 1167.47 3975.13 1169.51 3975.68C1171.25 3976.17 1172.98 3976.52 1174.76 3976.78L1174.91 3976.8C1174.97 3976.8 1174.97 3976.8 1175 3976.82C1175.04 3976.82 1175.04 3976.82 1175.1 3976.84C1176.49 3977.04 1177.94 3977.2 1179.36 3977.31C1182.56 3977.59 1185.79 3977.72 1189.01 3977.98C1190.13 3978.05 1191.31 3978.12 1192.47 3978.23C1192.72 3978.21 1193 3978.27 1193.24 3978.31L1193.92 3978.4C1196.49 3978.67 1199.07 3979.19 1201.55 3979.76C1203.92 3980.35 1206.22 3981.14 1208.57 3981.91C1209.27 3982.17 1209.93 3982.35 1210.59 3982.5C1211.84 3982.77 1213.09 3982.96 1214.34 3983.09C1215.46 3983.16 1216.58 3983.18 1217.69 3983.14C1218.29 3983.09 1218.83 3983.07 1219.38 3982.99C1221.03 3982.79 1222.65 3982.5 1224.29 3982.09C1224.34 3982.06 1224.34 3982.06 1224.4 3982.06C1224.97 3981.89 1225.48 3981.73 1226.05 3981.56C1228.7 3980.66 1231.38 3979.72 1234.05 3978.69C1234.19 3978.62 1234.36 3978.55 1234.51 3978.51C1236.97 3977.44 1239.4 3976.32 1241.77 3975.03C1242.19 3974.81 1242.61 3974.61 1243.03 3974.39C1243.26 3974.28 1243.46 3974.15 1243.68 3974.04C1244.32 3973.69 1244.91 3973.29 1245.57 3972.88C1245.96 3972.59 1246.38 3972.37 1246.77 3972.07H1246.82C1248.04 3971.17 1249.16 3970.25 1250.15 3969.23C1250.44 3968.88 1250.74 3968.53 1251.05 3968.12C1251.29 3967.81 1251.53 3967.55 1251.73 3967.24C1252.08 3966.8 1252.39 3966.36 1252.7 3965.92C1253.71 3964.34 1254.6 3962.7 1255.3 3960.97C1255.44 3960.55 1255.61 3960.09 1255.79 3959.61C1255.96 3959.19 1256.1 3958.77 1256.23 3958.31C1257.87 3952.88 1257.28 3947.19 1257.59 3941.62C1257.85 3939.58 1258.18 3937.61 1258.6 3935.66C1258.7 3935.33 1258.81 3934.94 1258.9 3934.63C1259.34 3933.62 1259.8 3932.59 1260.33 3931.58C1261.12 3930.22 1261.97 3928.88 1262.89 3927.57C1263.55 3926.69 1264.27 3925.84 1264.98 3925.02C1265.94 3923.82 1266.95 3922.7 1267.94 3921.56C1269.54 3919.78 1271.12 3918.03 1272.76 3916.3C1274.39 3914.52 1275.98 3912.79 1277.57 3910.99C1278.22 3910.26 1278.86 3909.56 1279.52 3908.82C1280.13 3908.07 1280.77 3907.33 1281.42 3906.58C1281.49 3906.45 1281.6 3906.32 1281.71 3906.18C1284.28 3903.07 1286.77 3899.93 1289.19 3896.75C1289.32 3896.56 1289.43 3896.38 1289.56 3896.25C1290.85 3894.58 1292.08 3892.83 1293.31 3891.14C1294.49 3889.48 1295.7 3887.9 1296.93 3886.25C1298.11 3884.59 1299.34 3882.96 1300.5 3881.36C1301.73 3879.72 1302.91 3878.07 1304.04 3876.36C1305.22 3874.71 1306.34 3873.05 1307.43 3871.34C1307.81 3870.81 1308.13 3870.22 1308.51 3869.67C1308.57 3869.63 1308.59 3869.58 1308.62 3869.54C1310.04 3867.28 1311.45 3864.94 1312.7 3862.55C1312.79 3862.32 1312.92 3862.06 1313.05 3861.82C1313.47 3860.9 1313.86 3860.02 1314.19 3859.08C1314.19 3859.08 1314.25 3859.04 1314.25 3858.99C1314.49 3858.44 1314.67 3857.83 1314.85 3857.21C1315.68 3854.58 1316.07 3851.93 1316.36 3849.26L1316.45 3848.64C1316.6 3846.99 1316.67 3845.39 1316.82 3843.71C1316.84 3843.57 1316.82 3843.42 1316.84 3843.33C1316.93 3842.35 1316.97 3841.42 1317.06 3840.5L1317.15 3839.82C1317.17 3839.67 1317.24 3839.52 1317.32 3839.39C1317.28 3839.28 1317.35 3839.15 1317.41 3839.06C1317.43 3838.92 1317.45 3838.77 1317.52 3838.64C1317.59 3838.49 1317.67 3838.31 1317.74 3838.18C1318.13 3837.56 1318.46 3836.95 1318.88 3836.43C1319.65 3835.46 1320.44 3834.54 1321.27 3833.58C1322.78 3832.08 1324.27 3830.59 1325.77 3829.08C1325.77 3829.03 1325.88 3829.01 1325.88 3829.01C1327.1 3827.72 1328.38 3826.42 1329.6 3825.13C1329.78 3824.91 1329.96 3824.69 1330.13 3824.52C1330.88 3823.75 1331.58 3822.96 1332.3 3822.13C1333 3821.34 1333.66 3820.57 1334.32 3819.72C1334.98 3818.88 1335.61 3818.05 1336.27 3817.21C1336.88 3816.36 1337.5 3815.48 1338.09 3814.58C1339.36 3812.68 1340.48 3810.74 1341.54 3808.79C1342.02 3807.83 1342.52 3806.82 1343.01 3805.79C1343.46 3804.78 1343.9 3803.75 1344.3 3802.68C1344.76 3801.58 1345.17 3800.46 1345.59 3799.32C1345.99 3798.25 1346.36 3797.11 1346.76 3795.99C1347.21 3794.69 1347.65 3793.42 1348.07 3792.15C1348.36 3791.16 1348.69 3790.18 1349.04 3789.25C1349.23 3788.59 1349.49 3787.94 1349.72 3787.28C1350.99 3783.33 1352.3 3779.43 1353.51 3775.48L1353.53 3775.42C1354.12 3773.44 1354.65 3771.45 1355.18 3769.47C1355.68 3767.48 1356.16 3765.48 1356.56 3763.42C1356.86 3762.13 1357.04 3760.88 1357.13 3759.56C1357.26 3758.97 1357.32 3758.33 1357.35 3757.7ZM725.251 3886.08C725.177 3885.97 725.085 3885.92 724.994 3885.84C725.361 3885.35 725.784 3884.87 726.188 3884.45C725.802 3884.94 725.49 3885.5 725.251 3886.08Z"
        fill="#2D4159"/>
</svg>