<svg
    width="7773"
    height="7615"
    viewBox="0 0 7773 7615"
    fill="none"
    xmlns="http://www.w3.org/2000/svg">
    <path id="IT"
        d="M4253.68 7504.75C4247.08 7503.02 4241.58 7499.1 4236.4 7494.82C4232.74 7491.77 4229.32 7488.44 4225.85 7485.19C4222.54 7482.06 4219.25 7478.96 4215.94 7475.81C4209.12 7469.36 4202.68 7462.47 4197.24 7454.77C4193.36 7449.29 4189.63 7443.68 4185.52 7438.41C4184.27 7436.99 4182.98 7435.65 4181.64 7434.36C4180.57 7433.44 4179.47 7432.52 4178.33 7431.68C4177.65 7431.24 4176.97 7430.83 4176.25 7430.43C4175.35 7429.99 4174.43 7429.58 4173.49 7429.21C4172.67 7428.98 4171.84 7428.75 4170.99 7428.57C4168.57 7428.17 4166.14 7427.91 4163.68 7427.71C4159.34 7427.52 4155.02 7427.67 4150.7 7427.89C4150 7427.96 4149.3 7428.04 4148.62 7428.13C4145.17 7429.42 4141.88 7431.2 4138.51 7432.69C4134.21 7434.54 4129.73 7436 4125.15 7436.93C4118.51 7438.31 4111.67 7437.27 4105.13 7435.91C4100.5 7434.93 4095.9 7433.81 4091.33 7432.5C4081.14 7429.58 4070.76 7425.13 4063.26 7417.43C4059.95 7414.01 4057.06 7410.17 4054.16 7406.4C4051.44 7402.84 4048.72 7399.23 4046 7395.65C4043.81 7392.76 4041.6 7389.9 4039.31 7387.08C4037.56 7385.08 4035.74 7383.22 4033.81 7381.38C4031.51 7379.49 4029.18 7377.71 4026.73 7375.98C4022.23 7373.09 4017.61 7370.48 4012.91 7367.98C4009.27 7366.2 4005.61 7364.4 4001.79 7362.98C4001.55 7362.89 4001.31 7362.82 4001.07 7362.73C4001 7362.71 4000.92 7362.67 4000.85 7362.65C3999.75 7362.27 3998.68 7361.88 3997.58 7361.49C3997.93 7361.62 3998.29 7361.75 3998.66 7361.88C3993.57 7360.08 3988.24 7358.83 3982.98 7357.67C3978.2 7356.73 3973.41 7356.04 3968.57 7355.41C3963.53 7354.75 3958.53 7353.68 3953.61 7352.47C3943.72 7350.04 3934.29 7346.37 3924.8 7342.73C3922.95 7342.12 3921.05 7341.64 3919.12 7341.2C3916.13 7340.67 3913.11 7340.21 3910.06 7339.93C3909.25 7339.9 3908.43 7339.9 3907.63 7339.9C3906.9 7339.97 3906.15 7340.06 3905.37 7340.15C3904.47 7340.37 3903.57 7340.63 3902.69 7340.89C3900.52 7341.68 3898.41 7342.62 3896.33 7343.57C3891.33 7346.05 3886.46 7348.87 3881.18 7350.7C3877.82 7351.86 3874.6 7352.08 3871.07 7351.83C3869.27 7351.7 3867.21 7351.05 3865.54 7350.32C3863.28 7349.33 3860.98 7348.3 3859.03 7346.75C3855.1 7343.61 3852.14 7339.53 3849.66 7335.17C3843.21 7323.77 3839.9 7311 3836.17 7298.52C3835.19 7295.65 3834.05 7292.84 3832.75 7290.1C3831.68 7288.04 3830.54 7286.06 3829.29 7284.09C3827.45 7281.29 3825.56 7278.5 3823.83 7275.63C3821.85 7272.32 3819.86 7269.05 3819.47 7265.12C3819.13 7261.42 3820.08 7258 3821.88 7254.81C3823.72 7251.63 3826.85 7249.35 3829.71 7247.21C3832.71 7244.93 3835.98 7243.02 3839.16 7241C3843.1 7238.39 3846.88 7235.67 3850.56 7232.73C3854.16 7229.86 3857.64 7226.88 3861.28 7224.09C3864.95 7221.3 3868.78 7218.72 3872.73 7216.37C3876.24 7214.25 3879.88 7212.34 3883.41 7210.27C3886.64 7208.35 3889.91 7206.52 3893.26 7204.73C3894.66 7204.02 3896.05 7203.3 3897.43 7202.56C3899.8 7201.31 3902.32 7199.77 3905.04 7199.51C3907.52 7199.29 3909.95 7199.44 3912.3 7200.43C3914.88 7201.53 3916.92 7203.3 3918.87 7205.27C3920.85 7207.29 3922.51 7209.75 3924.07 7212.12C3926.64 7215.98 3928.96 7220.01 3931.26 7224.02C3932.03 7225.36 3932.78 7226.7 3933.61 7228C3933.79 7228.26 3933.99 7228.54 3934.18 7228.78C3934.22 7228.81 3934.25 7228.87 3934.29 7228.91C3934.55 7229.09 3934.79 7229.29 3935.06 7229.48C3935.19 7229.57 3935.3 7229.64 3935.43 7229.71C3935.92 7229.66 3936.4 7229.59 3936.9 7229.51C3937.98 7229.27 3939.07 7228.98 3940.13 7228.65C3942.14 7227.95 3944.12 7227.16 3946.07 7226.28C3946.73 7225.91 3947.38 7225.56 3948.02 7225.17C3948.28 7224.99 3948.52 7224.81 3948.76 7224.62C3949.09 7224.31 3949.44 7224 3949.75 7223.67C3951.79 7221.28 3953.61 7218.85 3956.13 7216.87C3959.67 7214.05 3964.03 7213.01 3968.35 7211.98C3968.35 7211.64 3968.33 7211.31 3968.33 7211.02C3968.35 7202.14 3976.71 7197.18 3984.32 7195.12C3993.9 7192.56 4004.07 7193.3 4013.75 7194.77C4018.66 7195.51 4023.53 7196.37 4028.39 7197.33C4033.29 7198.26 4038.33 7199.16 4043.02 7200.91C4046.79 7202.31 4050.35 7204 4053.64 7206.33C4056.57 7208.39 4059.16 7210.84 4061.66 7213.39C4064.95 7216.72 4067.85 7220.45 4070.83 7224.05C4073.02 7226.7 4075.21 7229.35 4077.39 7231.99C4077.67 7232.31 4077.94 7232.64 4078.24 7232.93C4080 7235.01 4081.8 7237.03 4083.7 7238.96C4083.92 7239.14 4084.16 7239.35 4084.4 7239.51C4084.54 7239.59 4084.65 7239.68 4084.8 7239.77C4085.28 7239.97 4085.76 7240.17 4086.23 7240.36C4086.79 7240.52 4087.36 7240.69 4087.93 7240.82C4089.19 7241.02 4090.48 7241.17 4091.77 7241.26C4093.02 7241.28 4094.25 7241.26 4095.5 7241.24C4097.82 7241 4100.11 7240.67 4102.41 7240.3C4114.6 7237.8 4126.6 7234.59 4138.79 7232.1C4151.95 7229.38 4165.2 7227.03 4178.37 7224.49C4183.18 7223.56 4187.96 7222.62 4192.65 7221.22C4193.68 7220.85 4194.71 7220.45 4195.72 7220.01C4196.12 7219.79 4196.49 7219.6 4196.88 7219.37C4197.13 7219.2 4197.37 7219 4197.63 7218.8C4197.81 7218.63 4197.98 7218.46 4198.14 7218.28C4198.31 7218.1 4198.46 7217.91 4198.59 7217.73C4198.9 7217.21 4199.19 7216.72 4199.49 7216.22C4199.8 7215.56 4200.07 7214.86 4200.33 7214.2C4201.38 7210.89 4202.21 7207.58 4204.03 7204.55C4207.02 7199.57 4212.15 7195.95 4217.79 7194.66C4217.85 7194.64 4217.9 7194.62 4218 7194.6C4218.09 7192.91 4219.47 7191.24 4221.54 7191.88C4224.78 7192.84 4228.07 7193.76 4231.36 7194.62C4232.85 7194.86 4234.34 7195.12 4235.85 7195.39C4238.4 7195.84 4240.96 7196.3 4243.53 7196.57C4245.05 7196.63 4246.58 7196.61 4248.12 7196.57C4255.53 7196 4262.87 7194.97 4270.33 7194.86C4275.55 7194.75 4280.79 7195.41 4286.05 7195.32L4286.06 7195.3C4288.36 7194.2 4290.55 7193.01 4292.72 7191.64C4293.62 7191.02 4294.5 7190.36 4295.38 7189.64C4295.99 7189.09 4296.56 7188.54 4297.15 7187.97C4298.07 7186.94 4298.93 7185.85 4299.76 7184.72C4301.34 7182.36 4302.81 7179.94 4304.47 7177.66C4306.16 7175.32 4308.05 7173.24 4310.04 7171.17C4311.82 7169.31 4313.73 7167.55 4315.64 7165.82C4318.16 7163.52 4320.7 7161.19 4323.38 7159.11C4334.32 7150.62 4348.25 7154.86 4360.73 7155.86C4361.71 7155.87 4362.66 7155.89 4363.64 7155.84C4363.99 7155.8 4364.32 7155.76 4364.65 7155.71C4365.46 7155.52 4366.28 7155.29 4367.09 7155.05C4370.4 7153.89 4373.55 7152.58 4377.02 7151.96C4379.24 7151.55 4381.65 7151.55 4383.88 7151.85C4389.08 7152.53 4393.64 7156.66 4394.3 7161.96C4395.01 7167.56 4391.95 7172.9 4389.08 7177.47C4387.09 7180.63 4384.91 7183.69 4382.7 7186.72C4378.45 7192.58 4374.11 7198.35 4369.94 7204.31C4369.98 7204.24 4370.02 7204.18 4370.05 7204.13C4360.93 7217.49 4351.96 7231.02 4344.23 7245.28C4342.53 7248.68 4341.01 7252.12 4339.7 7255.71C4338.4 7259.99 4337.37 7264.33 4336.43 7268.7C4334.87 7276.94 4333.23 7285.25 4332.46 7293.57C4332.41 7294.95 4332.41 7296.29 4332.46 7297.67C4332.59 7299.12 4332.79 7300.58 4333.03 7302.03C4334.01 7306.92 4335.26 7311.72 4336.78 7316.44C4338.42 7321.05 4340.31 7325.59 4342.08 7330.15C4343.6 7334.16 4345.07 7338.2 4346.84 7342.14C4347.46 7343.39 4348.12 7344.6 4348.86 7345.8C4349.59 7346.86 4350.37 7347.93 4351.17 7348.94C4351.62 7349.44 4352.07 7349.9 4352.52 7350.37C4352.99 7350.8 4353.47 7351.16 4353.97 7351.53C4359.68 7355.34 4366.19 7357.98 4370.51 7363.52C4374.35 7368.41 4375.66 7374.6 4376.52 7380.59C4377.11 7384.6 4377.48 7388.61 4377.39 7392.67C4377.29 7395.87 4376.63 7398.99 4375.27 7401.9C4373.75 7405.12 4371.67 7408 4369.65 7410.92C4368.64 7412.41 4367.7 7413.92 4366.85 7415.5C4366.6 7416.05 4366.36 7416.62 4366.16 7417.17C4365.97 7417.8 4365.79 7418.42 4365.62 7419.07C4365.42 7420.39 4365.27 7421.71 4365.16 7423.04C4364.91 7427.39 4364.94 7431.71 4364.91 7436.07C4364.89 7441.09 4364.41 7445.92 4363.1 7450.76C4360.71 7459.6 4355.9 7467.63 4350.62 7475.04C4348.16 7478.5 4345.55 7481.88 4342.94 7485.26C4341.58 7487.03 4340.18 7488.72 4338.66 7490.35C4335.79 7493.4 4332.59 7495.9 4328.95 7498C4319.89 7503.18 4309.13 7504.87 4298.9 7505.81C4289.37 7506.68 4279.7 7506.38 4270.15 7506.16C4265.97 7506.05 4261.62 7506.05 4257.43 7505.43C4256.19 7505.32 4254.93 7505.08 4253.68 7504.75Z"
        fill="#2D4159"/>
    <path id="IT"
        d="M3215.46 7079.07C3214.72 7078.3 3214.19 7077.42 3213.68 7076.5C3213.59 7076.45 3213.47 7076.41 3213.36 7076.35C3210.33 7075.43 3207.19 7074.81 3204.14 7073.91C3200.48 7072.82 3196.86 7071.48 3193.42 7069.85C3186.29 7066.41 3179.38 7062.53 3172.65 7058.36C3165.96 7054.24 3159.36 7049.83 3153.66 7044.42C3148.27 7039.35 3143.38 7033.73 3138.22 7028.43C3135.33 7025.51 3132.41 7022.64 3130.11 7019.22C3127.54 7015.38 3125.88 7011.19 3124.52 7006.8C3123.86 7004.7 3123.53 7002.48 3123.16 7000.29C3122.81 6998.23 3122.56 6996.12 3122.47 6994.02C3122.3 6990.03 3122.48 6986.04 3123.04 6982.09C3124.14 6974.2 3127.37 6966.94 3130.7 6959.77C3133.81 6953.08 3137.08 6946.5 3139.63 6939.57C3139.73 6939.33 3139.8 6939.11 3139.89 6938.89C3141.2 6935.09 3142.35 6931.23 3143.27 6927.31C3143.53 6925.99 3143.73 6924.65 3143.86 6923.3C3143.92 6921.76 3143.92 6920.2 3143.86 6918.65C3143.68 6916.36 3143.38 6914.1 3143.03 6911.85C3142.58 6909.68 3142.02 6907.55 3141.42 6905.42C3141.25 6904.89 3141.07 6904.35 3140.88 6903.82C3141.01 6904.22 3141.14 6904.65 3141.27 6905.05C3139.21 6899.19 3136.01 6893.78 3134.65 6887.68C3133.9 6884.34 3133.46 6880.92 3133.46 6877.48C3133.48 6874.08 3133.97 6870.79 3134.74 6867.48C3136.31 6860.9 3139.98 6855.07 3143.92 6849.68C3147.21 6845.22 3150.76 6840.95 3154.01 6836.49C3155.06 6834.89 3156.03 6833.27 3156.93 6831.62C3158.05 6829.24 3159.06 6826.82 3159.96 6824.35C3160.52 6822.55 3160.99 6820.73 3161.44 6818.9C3161.73 6817.08 3161.97 6815.29 3162.12 6813.44C3162.23 6811.25 3162.28 6809.08 3162.21 6806.87C3161.89 6803.09 3161.32 6799.37 3160.66 6795.64C3159.95 6792.3 3159.17 6788.99 3158.51 6785.64C3158.57 6785.86 3158.6 6786.1 3158.62 6786.32C3157.54 6780.68 3156.66 6775 3155.63 6769.34C3154.8 6765.29 3153.86 6761.3 3152.8 6757.35C3151.86 6754.67 3150.83 6752.06 3149.65 6749.5C3148.66 6747.68 3147.65 6745.94 3146.56 6744.19C3142.23 6737.83 3137.56 6731.73 3132.61 6725.85C3132.85 6726.12 3133.11 6726.4 3133.35 6726.69C3132.96 6726.25 3132.59 6725.81 3132.23 6725.37C3132.35 6725.51 3132.48 6725.68 3132.59 6725.83C3132.32 6725.5 3132.04 6725.17 3131.75 6724.83C3131.69 6724.78 3131.66 6724.71 3131.58 6724.65C3131.6 6724.65 3131.6 6724.67 3131.62 6724.67C3130.94 6723.88 3130.26 6723.05 3129.58 6722.26C3129.91 6722.65 3130.22 6723.05 3130.55 6723.44C3125.39 6717.61 3119.97 6712.02 3114.52 6706.45C3108.44 6700.24 3102.41 6693.64 3098.42 6685.83C3093.81 6676.73 3092.17 6665.92 3094.8 6655.99C3096.44 6649.78 3099.93 6644.52 3104.27 6639.87C3105.39 6638.68 3106.53 6637.56 3107.76 6636.47C3109.4 6635.07 3111.11 6633.86 3112.96 6632.78C3115.43 6631.34 3118.57 6630.15 3121.44 6629.96C3123.18 6629.82 3124.86 6629.8 3126.56 6629.87C3131.79 6630.31 3136.88 6631.45 3142.01 6632.43C3147.21 6633.4 3152.39 6634.14 3157.65 6634.56C3162.41 6634.8 3167.21 6634.63 3171.99 6634.4C3174.05 6634.23 3176.09 6634.01 3178.13 6633.68C3178.88 6633.48 3179.67 6633.29 3180.42 6633.05C3183.7 6631.9 3186.86 6630.52 3190 6629.16C3193.92 6627.47 3197.83 6625.77 3201.71 6623.99C3201.86 6623.92 3202 6623.86 3202.15 6623.79C3205.29 6622.24 3208.31 6620.48 3211.29 6618.62C3214.47 6616.49 3217.52 6614.23 3220.77 6612.19C3224.14 6610.08 3227.72 6608.31 3231.29 6606.56C3234.69 6604.93 3238.11 6603.33 3241.53 6601.73C3243.92 6598.81 3246.47 6596.03 3249.23 6593.46C3251.89 6590.99 3254.69 6588.59 3257.7 6586.58C3261.05 6584.38 3264.52 6582.56 3268.22 6581.03C3275.37 6578.04 3283.16 6576.57 3290.79 6575.33C3293.88 6574.84 3296.97 6574.51 3300.07 6574.27C3303.16 6574.03 3306.4 6573.83 3309.43 6574.45C3314.1 6575.39 3318.49 6577.63 3322.17 6580.65C3326.65 6584.38 3329.7 6589.16 3332 6594.47C3334.34 6599.87 3335.48 6605.59 3337.26 6611.16C3340.33 6619.91 3344.81 6628.09 3347.3 6637.04C3348.42 6641.07 3349.12 6645.2 3349.94 6649.28C3350.84 6653.71 3352 6658.05 3353.36 6662.35C3354.89 6666.73 3356.6 6671.03 3358.51 6675.28C3360.07 6678.42 3361.74 6681.49 3363.62 6684.5C3367.07 6689.83 3370.99 6694.87 3374.72 6700C3378.86 6705.61 3383.07 6711.32 3385.66 6717.83C3387.22 6721.82 3387.83 6725.92 3388.12 6730.15C3388.4 6734.04 3388.42 6737.94 3388.12 6741.84C3387.83 6745.4 3387.13 6748.86 3385.64 6752.15C3384.26 6755.22 3382.5 6757.9 3380.27 6760.4C3379.11 6761.6 3377.94 6762.72 3376.71 6763.8C3376.82 6763.71 3376.93 6763.6 3377.04 6763.51C3376.93 6763.6 3376.8 6763.73 3376.67 6763.82C3376.45 6764.04 3376.21 6764.23 3375.97 6764.43C3376.16 6764.28 3376.3 6764.15 3376.47 6764.01C3374.81 6765.4 3373.14 6766.75 3371.49 6768.11C3371.56 6768.05 3371.63 6767.98 3371.71 6767.92C3371.63 6768 3371.54 6768.05 3371.47 6768.12L3371.49 6768.11C3371.47 6768.12 3371.45 6768.14 3371.41 6768.16C3371.41 6768.18 3371.39 6768.2 3371.38 6768.22C3371.36 6768.22 3371.36 6768.23 3371.34 6768.25C3371.3 6768.27 3371.28 6768.29 3371.25 6768.31C3371.27 6768.29 3371.3 6768.25 3371.34 6768.25C3371.16 6768.4 3371.01 6768.53 3370.84 6768.68C3370.81 6768.71 3370.77 6768.73 3370.73 6768.75C3370.75 6768.73 3370.77 6768.71 3370.79 6768.69C3366.62 6772.32 3362.52 6776.14 3358.71 6780.15C3358.47 6780.44 3358.23 6780.75 3357.99 6781.05C3357.76 6781.43 3357.53 6781.84 3357.33 6782.22C3356.63 6783.68 3355.99 6785.16 3355.44 6786.65C3355.18 6787.52 3354.92 6788.36 3354.7 6789.26C3354.57 6790.05 3354.45 6790.84 3354.37 6791.63C3354.37 6792.22 3354.35 6792.81 3354.37 6793.38C3354.39 6793.62 3354.45 6793.84 3354.46 6794.06C3354.54 6794.26 3354.57 6794.48 3354.63 6794.7C3354.74 6794.98 3354.85 6795.26 3354.96 6795.55C3355.09 6795.77 3355.22 6795.97 3355.33 6796.18C3355.53 6796.45 3355.75 6796.73 3355.95 6797.02C3356.25 6797.31 3356.52 6797.61 3356.84 6797.9C3357.79 6798.75 3358.77 6799.52 3359.81 6800.24C3361.65 6801.41 3363.53 6802.52 3365.46 6803.53C3368.4 6805.09 3371.39 6806.52 3373.97 6808.67C3377.86 6811.95 3380.2 6817 3379.83 6822.15C3379.65 6825.14 3379.08 6828.07 3378.2 6830.95C3376.27 6837.22 3373.09 6842.7 3369.15 6847.92C3366.1 6851.98 3362.61 6855.71 3359.63 6859.81C3359.04 6860.75 3358.49 6861.67 3357.98 6862.63C3357.68 6863.25 3357.42 6863.89 3357.17 6864.56C3356.74 6866.03 3356.36 6867.52 3356.05 6868.99C3354.34 6878.31 3353.66 6887.77 3352.9 6897.18C3352.09 6907.35 3350.92 6917.46 3350.18 6927.64C3350.15 6928.3 3350.09 6929 3350.03 6929.67C3349.98 6930.69 3349.91 6931.69 3349.83 6932.68C3349.83 6932.68 3349.83 6932.66 3349.83 6932.64C3349.32 6940.25 3349.08 6947.88 3348.97 6955.51C3348.84 6963.29 3349.26 6971.08 3349.48 6978.87C3349.74 6987.57 3349.54 6996.81 3345.73 7004.81C3342.2 7012.26 3336.71 7018.89 3330.15 7023.85C3325.46 7027.42 3319.5 7029.09 3313.69 7029.39C3310.09 7029.57 3306.67 7028.91 3303.34 7027.6C3300.94 7026.63 3298.84 7024.85 3296.97 7023.14C3294.47 7020.86 3292.43 7018.03 3290.9 7015.03C3289.7 7012.6 3288.91 7010.01 3287.85 7007.51C3287.77 7007.37 3287.68 7007.22 3287.61 7007.07C3287.55 7007.02 3287.54 7006.96 3287.5 7006.92C3287.33 7006.76 3287.17 7006.61 3287.02 7006.45C3286.86 7006.3 3286.67 7006.19 3286.51 7006.04C3283.73 7004.15 3280.86 7002.29 3277.89 7000.71C3277.39 7000.49 3276.91 7000.27 3276.41 7000.05C3276.05 6999.94 3275.7 6999.85 3275.33 6999.76C3275.09 6999.72 3274.83 6999.68 3274.6 6999.66C3274.01 6999.63 3273.42 6999.63 3272.83 6999.65C3272.3 6999.7 3271.8 6999.76 3271.29 6999.85C3270.81 6999.98 3270.33 7000.1 3269.83 7000.25C3269.15 7000.49 3268.51 7000.75 3267.87 7001.04C3266.97 7001.5 3266.08 7002 3265.22 7002.53C3264.45 7003.06 3263.69 7003.62 3262.96 7004.19C3262.39 7004.72 3261.86 7005.23 3261.34 7005.78C3260.39 7006.87 3259.52 7008.01 3258.68 7009.17C3256.51 7012.38 3254.58 7015.73 3252.78 7019.17C3251.87 7021.1 3251.1 7023.03 3250.37 7025.01C3249.17 7028.67 3248.25 7032.35 3247.44 7036.1C3246.6 7040.38 3245.81 7044.66 3244.6 7048.87C3243.29 7053.41 3241.6 7057.84 3239.58 7062.13C3237.54 7066.45 3235.33 7070.6 3232.59 7074.52C3231.54 7076.06 3230.31 7077.47 3228.95 7078.74C3227.19 7080.42 3224.96 7081.37 3222.57 7081.78C3221.88 7081.9 3221.18 7081.9 3220.48 7081.79C3218.6 7081.45 3216.77 7080.42 3215.46 7079.07Z"
        fill="#2D4159"/>
    <path id="IT"
        d="M4430.45 7226.75C4427.72 7225.69 4425.44 7223.85 4423.08 7222.14C4421.43 7221.06 4419.72 7220.1 4418.18 7218.81C4416.12 7217.09 4414.17 7215.23 4412.44 7213.19C4409.32 7209.44 4407.86 7204.71 4407.66 7199.9C4407.42 7194.44 4408.93 7189.05 4410.42 7183.85C4413.21 7174.02 4416.96 7164.48 4420.14 7154.75C4422.99 7146.02 4425.93 7137.23 4427.92 7128.26C4428.47 7125.03 4428.82 7121.76 4429.06 7118.47C4429.46 7110.71 4429.66 7102.99 4430.53 7095.29C4431.12 7090.2 4431.94 7085.14 4432.35 7080.01C4432.66 7074.96 4432.73 7069.94 4435.6 7065.47C4437.22 7062.95 4439.32 7061.1 4441.89 7059.55C4444.15 7058.17 4446.93 7057.42 4449.44 7056.7C4453.3 7055.55 4457.2 7054.46 4461.02 7053.25C4464.37 7052.03 4467.64 7050.69 4470.9 7049.22C4473.71 7047.79 4476.48 7046.28 4479.2 7044.61C4480.56 7043.67 4481.91 7042.71 4483.17 7041.69C4483.36 7041.52 4483.51 7041.37 4483.69 7041.21C4484.37 7040.42 4485.01 7039.59 4485.62 7038.76C4488.36 7034.68 4490.95 7030.51 4493.56 7026.37C4495.56 7023.21 4497.55 7020.01 4499.35 7016.72C4499.42 7016.56 4499.5 7016.37 4499.57 7016.23C4499.55 7016.01 4499.52 7015.79 4499.48 7015.58C4499.37 7015.12 4499.24 7014.66 4499.11 7014.2C4498.62 7012.84 4498.08 7011.5 4497.51 7010.16C4497.11 7009.41 4496.69 7008.67 4496.26 7007.94C4492.68 7002.68 4488.47 6997.9 4484.41 6992.97C4480.29 6987.99 4476.56 6982.72 4473.01 6977.33C4469.08 6971.39 4465.07 6965.51 4461.21 6959.54C4457.22 6953.34 4453.49 6946.94 4449.88 6940.49C4443.19 6928.51 4436.48 6916.56 4430.71 6904.08C4424.37 6890.31 4419.96 6875.7 4415.64 6861.21C4414.66 6857.79 4413.58 6854.41 4412.51 6851.03C4409.08 6841.06 4405.18 6831.41 4400.71 6821.89C4397.77 6816.01 4394.59 6810.27 4391.1 6804.7C4386.74 6798.27 4382 6792.15 4377 6786.18C4377.2 6786.41 4377.39 6786.65 4377.59 6786.89C4374.44 6783.2 4371.28 6779.56 4367.77 6776.23C4367.11 6775.68 4366.43 6775.11 4365.73 6774.56C4365.64 6774.5 4365.55 6774.48 4365.46 6774.45C4365.29 6774.45 4365.11 6774.45 4364.92 6774.45C4364.72 6774.48 4364.52 6774.5 4364.3 6774.52C4363.56 6774.7 4362.85 6774.91 4362.13 6775.11C4360.92 6775.57 4359.72 6776.07 4358.53 6776.6C4358.43 6776.64 4358.36 6776.67 4358.31 6776.73C4358.43 6776.65 4358.56 6776.6 4358.69 6776.52C4355 6778.34 4351.5 6780.5 4347.86 6782.43C4343.25 6784.91 4338.6 6786.6 4333.38 6786.98C4326.6 6787.24 4320 6785.73 4313.34 6784.37C4307.46 6783.2 4301.69 6781.95 4296.08 6779.78C4292.04 6778.22 4288.16 6776.25 4284.41 6774.1C4281.14 6772.19 4277.94 6770.15 4274.58 6768.44C4271.29 6766.8 4267.92 6765.31 4264.65 6763.6C4262.15 6762.3 4259.8 6760.72 4257.66 6758.88C4256.23 6757.65 4254.82 6756.36 4253.49 6755C4251.49 6752.94 4249.91 6750.59 4248.42 6748.12C4240.66 6735.28 4239.82 6719.87 4237.26 6705.44C4236.67 6702.63 4235.99 6699.82 4235.18 6697.04C4234.8 6695.97 4234.39 6694.91 4233.95 6693.84C4233.58 6693.14 4233.18 6692.45 4232.77 6691.77C4231.75 6690.33 4230.7 6688.95 4229.63 6687.57C4228.77 6686.6 4227.85 6685.68 4226.91 6684.78C4225.9 6683.95 4224.87 6683.14 4223.84 6682.39C4221.18 6680.66 4218.44 6679.12 4215.62 6677.65C4210.44 6675.09 4205.26 6672.63 4199.85 6670.63C4199.3 6670.46 4198.77 6670.3 4198.24 6670.15C4197.92 6670.28 4197.63 6670.41 4197.33 6670.53C4193.93 6672.24 4190.64 6674.16 4187 6675.33C4181.08 6677.24 4174.95 6675.83 4169.76 6672.72C4165.97 6670.48 4162.94 6667.21 4159.89 6664.08C4156.88 6660.99 4153.82 6657.94 4150.68 6654.98C4149.39 6653.88 4148.09 6652.81 4146.75 6651.8C4146.07 6651.36 4145.35 6650.94 4144.67 6650.53C4143.62 6650.08 4142.56 6649.65 4141.47 6649.23C4136.32 6647.54 4131.01 6646.33 4125.76 6644.96C4120.41 6643.59 4115.06 6642.21 4109.74 6640.59C4103.4 6638.64 4097.12 6636.36 4091.4 6632.92C4087.7 6630.74 4084.3 6627.96 4081.44 6624.76C4078.24 6621.16 4075.74 6617.04 4073.18 6613C4070.57 6609.01 4067.8 6605.17 4064.76 6601.53C4063.05 6599.6 4061.33 6597.78 4059.49 6596.01C4057.45 6594.3 4055.35 6592.69 4053.18 6591.12C4046.29 6586.47 4039.18 6582.15 4032.14 6577.65C4024.78 6572.94 4017.43 6568.37 4009.67 6564.38C4003.74 6561.44 3997.56 6559.03 3991.33 6556.79C3984.38 6554.49 3977.38 6552.45 3970.21 6550.87C3966.36 6550.11 3962.54 6549.4 3958.66 6548.94C3955.32 6548.79 3951.99 6548.85 3948.68 6549.03C3948.66 6549.03 3948.66 6549.03 3948.66 6549.03C3948.35 6549.05 3948.06 6549.07 3947.74 6549.08C3947.76 6549.08 3947.78 6549.08 3947.78 6549.08C3947.73 6549.08 3947.65 6549.08 3947.6 6549.1C3947.63 6549.1 3947.69 6549.1 3947.73 6549.1C3940.21 6549.65 3932.71 6550.43 3925.15 6550.65C3921.64 6550.72 3918.13 6550.59 3914.64 6550.06C3909.69 6549.25 3904.97 6547.36 3900.37 6545.41C3892.93 6542.26 3885.56 6538.94 3878.22 6535.56C3870.63 6532.08 3863.24 6528.22 3855.83 6524.36C3856.26 6524.58 3856.7 6524.8 3857.1 6524.99C3856.11 6524.51 3855.14 6523.99 3854.14 6523.5C3846.48 6519.6 3838.63 6516.14 3831.05 6512.1C3823.08 6507.82 3815.58 6502.36 3809.46 6495.68C3803.78 6489.47 3799.53 6482.3 3795.58 6474.91C3791.94 6468.09 3788.3 6461.24 3784.22 6454.66C3782.42 6451.99 3780.52 6449.38 3778.5 6446.88C3776.88 6445.04 3775.19 6443.28 3773.43 6441.59C3768.9 6437.56 3764.18 6433.77 3759.64 6429.73C3753.72 6424.4 3748.1 6418.77 3742.2 6413.41C3742.6 6413.79 3743.02 6414.16 3743.43 6414.55C3739.02 6410.58 3734.57 6406.66 3730.27 6402.58C3726.57 6399.05 3722.93 6395.47 3719.16 6391.99C3713.92 6387.34 3708.54 6382.87 3703.23 6378.32C3697.36 6373.26 3691.57 6368.21 3685.32 6363.63C3676.37 6357.49 3667.18 6351.74 3658.45 6345.26C3654.33 6342.21 3650.25 6339.13 3646.15 6336.06C3641.5 6332.62 3637.23 6328.83 3632.97 6324.93C3633.39 6325.3 3633.82 6325.69 3634.24 6326.06C3631.55 6323.61 3628.83 6321.2 3625.93 6319.03C3623.21 6317.23 3620.42 6315.56 3617.55 6314C3615.27 6312.89 3612.95 6311.86 3610.58 6310.96C3608.25 6310.21 3605.88 6309.59 3603.47 6309C3600.8 6308.37 3598.14 6307.88 3595.6 6306.85C3591.24 6305.08 3587.6 6302.21 3585.1 6298.19C3583.38 6295.36 3582.24 6292.38 3581.19 6289.29C3581.19 6289.31 3581.19 6289.31 3581.19 6289.33C3580.51 6287.29 3579.74 6285.27 3578.87 6283.28C3577.92 6281.42 3576.89 6279.64 3575.8 6277.86C3575.34 6277.21 3574.9 6276.59 3574.42 6275.95C3573.16 6274.55 3571.83 6273.23 3570.43 6271.92C3568.01 6269.77 3565.47 6267.73 3563.06 6265.52C3560.2 6262.82 3557.57 6259.9 3555.18 6256.76C3552.94 6253.78 3550.75 6250.76 3548.96 6247.49C3547.02 6243.96 3545.32 6240.29 3543.6 6236.63C3543.82 6237.11 3544.04 6237.56 3544.26 6238.04C3543.63 6236.7 3542.97 6235.36 3542.33 6234.02C3539.9 6229.13 3537.37 6224.27 3534.5 6219.64C3533.82 6218.65 3533.14 6217.68 3532.42 6216.7C3531.39 6215.54 3530.33 6214.46 3529.2 6213.41C3527.95 6212.38 3526.69 6211.39 3525.42 6210.43C3522.62 6208.56 3519.77 6206.81 3516.8 6205.25C3515.14 6204.46 3513.47 6203.72 3511.76 6203.08C3510.84 6202.79 3509.92 6202.55 3508.97 6202.33C3508.47 6202.23 3507.99 6202.16 3507.49 6202.11C3507.26 6202.11 3507.04 6202.11 3506.78 6202.11C3506.52 6202.12 3506.28 6202.18 3505.99 6202.22C3505.05 6202.44 3504.09 6202.71 3503.16 6202.99C3500.84 6203.76 3498.58 6204.61 3496.21 6205.16C3491.36 6206.33 3486.63 6206.2 3481.94 6204.33C3478.41 6202.95 3475.42 6200.1 3473.6 6196.83C3471.69 6193.39 3470.91 6189.51 3470.46 6185.65C3470.11 6182.91 3470.07 6180.12 3469.96 6177.35C3469.85 6174.86 3469.72 6172.36 3469.59 6169.92C3469.17 6163.56 3468.6 6157.18 3468.69 6150.76C3468.78 6145.64 3469.06 6140.51 3469.35 6135.4C3468.38 6133.74 3467.42 6132.13 3466.45 6130.51C3464.52 6127.31 3462.64 6124.09 3460.88 6120.78C3458.69 6116.67 3456.87 6112.42 3455.03 6108.17C3452.04 6101.26 3449.19 6094.24 3446.87 6087.09C3444.35 6079.3 3443.3 6071.23 3441.87 6063.23C3440.69 6057.66 3439.06 6052.2 3437.79 6046.67C3436.45 6040.8 3435.14 6034.96 3433.51 6029.17C3431.94 6023.65 3430.4 6018.16 3428.99 6012.61C3427.68 6007.55 3426.58 6002.39 3425.05 5997.39C3424.78 5996.63 3424.48 5995.91 3424.17 5995.2C3423.76 5994.41 3423.32 5993.62 3422.88 5992.83C3421.08 5990.22 3419.24 5987.68 3417.24 5985.25C3415.14 5982.88 3412.96 5980.57 3410.68 5978.4C3409.74 5977.57 3408.78 5976.78 3407.79 5976.01C3407.4 5975.77 3407.04 5975.53 3406.63 5975.33C3405.22 5974.68 3403.8 5974.08 3402.35 5973.53C3400.36 5972.92 3398.38 5972.42 3396.38 5971.96C3394.1 5971.58 3391.82 5971.25 3389.52 5971.01C3383.91 5970.73 3378.34 5970.86 3372.72 5971.19C3365.55 5971.67 3358.32 5972.63 3351.14 5971.93C3345.49 5971.38 3340.15 5968.95 3335.59 5965.6C3332.83 5963.6 3330.13 5961.49 3327.35 5959.5C3322.72 5956.49 3317.85 5953.88 3313.01 5951.15C3307.13 5947.83 3301.6 5944 3296.23 5939.92C3291.14 5936.06 3286.43 5931.76 3281.69 5927.55C3276.98 5923.38 3272.19 5919.39 3267.17 5915.66C3262.15 5912.3 3257.04 5909.26 3251.71 5906.41C3243.64 5902.55 3235.48 5899.1 3227.1 5895.95C3223.03 5894.59 3218.95 5893.38 3214.76 5892.31C3210.63 5891.58 3206.53 5891.03 3202.34 5890.6C3197.32 5890.37 3192.35 5890.31 3187.35 5890.57C3185.9 5890.71 3184.52 5890.9 3183.07 5891.16C3182.37 5891.3 3181.69 5891.52 3181.01 5891.73C3180.18 5892.02 3179.39 5892.33 3178.6 5892.68C3177.52 5893.23 3176.47 5893.8 3175.44 5894.45C3174.05 5895.38 3172.69 5896.38 3171.38 5897.42C3169.03 5899.52 3166.86 5901.74 3164.73 5904.04C3162.13 5907.18 3159.65 5910.38 3157.26 5913.66C3150.98 5922.85 3145.08 5932.35 3139.19 5941.82C3135.94 5947.06 3133.16 5952.55 3130.22 5957.96C3127.1 5963.65 3123.55 5968.95 3119.73 5974.21C3116.29 5978.93 3112.45 5983.45 3108.64 5987.9C3105.02 5992.16 3101.22 5996.34 3097.04 6000.03C3090.09 6006.19 3081.64 6010.9 3073 6014.2C3066.68 6016.63 3060.17 6017.97 3053.42 6018.36C3050.43 6018.52 3047.37 6018.36 3044.4 6018.03C3041.22 6017.68 3038.28 6016.69 3035.26 6015.64C3033.88 6015.18 3032.5 6014.79 3031.09 6014.46C3030.24 6014.32 3029.38 6014.19 3028.53 6014.11C3027.74 6014.08 3026.95 6014.08 3026.18 6014.09C3025.83 6014.13 3025.46 6014.19 3025.1 6014.22C3024.71 6014.32 3024.32 6014.44 3023.96 6014.54C3023.24 6014.81 3022.54 6015.11 3021.86 6015.4C3020.52 6016.12 3019.21 6016.83 3017.93 6017.62C3016.42 6018.67 3014.95 6019.81 3013.52 6020.95C3012.54 6021.8 3011.55 6022.64 3010.59 6023.49C3012.95 6017.81 3015.48 6012.22 3018.28 6006.74C3018.18 6006.93 3018.11 6007.13 3018 6007.31C3023.22 5997.24 3029.07 5987.48 3034.27 5977.39C3037.78 5970.58 3041 5963.6 3043.22 5956.28C3043.99 5953.71 3044.73 5951.06 3045.17 5948.4C3045.43 5946.69 3045.67 5944.89 3045.46 5943.16C3045.28 5941.41 3044.8 5939.74 3043.96 5938.2C3042.98 5936.34 3041.57 5934.89 3040 5933.54C3038.24 5932.02 3036 5930.88 3033.85 5930C3032.34 5929.37 3030.81 5928.77 3029.27 5928.25C3026.6 5927.39 3023.88 5926.54 3021.16 5925.84C3015.3 5924.3 3009.36 5922.88 3003.46 5921.47C2992.1 5918.77 2980.85 5915.77 2969.62 5912.61C2960.23 5909.92 2950.74 5907.33 2941.55 5903.97C2941.49 5903.93 2941.44 5903.91 2941.37 5903.89C2941.42 5903.91 2941.49 5903.93 2941.55 5903.97C2941.44 5903.93 2941.35 5903.89 2941.24 5903.86C2938.44 5902.79 2935.7 5901.63 2933.04 5900.29C2932.06 5899.76 2931.13 5899.17 2930.19 5898.55C2930.01 5898.38 2929.82 5898.25 2929.62 5898.09C2929.51 5897.94 2929.4 5897.81 2929.27 5897.68C2929.2 5897.57 2929.12 5897.46 2929.05 5897.33C2928.77 5896.76 2928.48 5896.19 2928.22 5895.6C2927.89 5894.67 2927.63 5893.75 2927.36 5892.77C2926.97 5890.81 2926.66 5888.84 2926.42 5886.85C2925.8 5878.51 2925.81 5870.13 2926.16 5861.76C2926.33 5857.33 2926.57 5852.9 2926.73 5848.47C2926.83 5845.53 2926.83 5842.63 2927.03 5839.7C2927.08 5839.1 2927.17 5838.49 2927.29 5837.9C2927.36 5837.72 2927.45 5837.54 2927.54 5837.37C2927.82 5836.89 2928.13 5836.43 2928.43 5835.95C2930.41 5833.25 2932.62 5830.72 2934.6 5828.01C2934.6 5828.03 2934.6 5828.03 2934.6 5828.03C2934.64 5827.98 2934.69 5827.94 2934.71 5827.89C2934.79 5827.76 2934.88 5827.65 2934.95 5827.52L2934.97 5827.5C2937.21 5824.26 2939.2 5820.86 2940.59 5817.17C2941.18 5815.64 2941.68 5814.15 2942.01 5812.55C2942.52 5810.18 2942.58 5807.79 2942.34 5805.37C2941.94 5801.21 2940.41 5797.17 2938.35 5793.55C2934.53 5786.78 2929.03 5781.05 2923.85 5775.33C2919.47 5770.51 2915.17 5765.68 2911.07 5760.62C2909.36 5758.42 2907.75 5756.14 2906.27 5753.77C2905.45 5752.33 2904.64 5750.9 2903.96 5749.39C2903.81 5749.01 2903.65 5748.6 2903.52 5748.2C2903.46 5747.92 2903.41 5747.65 2903.35 5747.37C2903.33 5747.04 2903.3 5746.71 2903.3 5746.38C2903.32 5745.13 2903.43 5743.9 2903.55 5742.65C2903.85 5740.63 2904.23 5738.68 2904.69 5736.67C2904.84 5736.21 2904.99 5735.74 2905.15 5735.28C2905.32 5734.89 2905.48 5734.54 2905.67 5734.17C2906.11 5733.49 2906.57 5732.83 2907.05 5732.19C2907.18 5732.06 2907.3 5731.89 2907.43 5731.77C2907.93 5731.36 2908.46 5730.96 2908.98 5730.55C2911.42 5728.92 2913.98 5727.48 2916.57 5726.09C2916.2 5726.29 2915.81 5726.47 2915.45 5726.67C2924.49 5721.88 2934.47 5718.29 2942.32 5711.53C2946.22 5708.18 2949.82 5704.43 2952.4 5699.96C2953.79 5697.56 2955.08 5695.07 2956.02 5692.43C2957.1 5689.43 2957.85 5686.45 2958.44 5683.35C2958.42 5683.49 2958.41 5683.64 2958.39 5683.79C2958.42 5683.57 2958.46 5683.35 2958.5 5683.13C2958.52 5682.94 2958.57 5682.74 2958.61 5682.56C2958.59 5682.7 2958.55 5682.83 2958.52 5682.98C2960.26 5672.24 2958.53 5661.36 2955.46 5650.99C2952.62 5641.34 2949.29 5631.82 2945.35 5622.56C2941.42 5613.29 2936.81 5604.21 2931.51 5595.66C2929.09 5591.79 2926.61 5587.98 2923.92 5584.31C2922.41 5582.25 2920.83 5580.3 2919.34 5578.28C2919.49 5578.04 2919.62 5577.8 2919.77 5577.56C2921.31 5579.53 2923.61 5580.78 2926.18 5581.16C2926.57 5581.22 2926.97 5581.25 2927.38 5581.25C2929.66 5581.33 2931.95 5580.87 2934.22 5580.65C2936.18 5580.48 2938.17 5580.3 2940.13 5580.19C2943.3 5580.04 2946.42 5580.08 2949.56 5580.15C2954.71 5580.28 2959.86 5580.5 2965.01 5580.11C2970.63 5579.71 2976 5578.46 2981.31 5576.6C2992.89 5572.54 3003.75 5566.82 3015.04 5562.1C3014.99 5562.14 3014.91 5562.15 3014.88 5562.17C3014.75 5562.23 3014.64 5562.3 3014.51 5562.34C3014.49 5562.34 3014.47 5562.36 3014.45 5562.38C3014.38 5562.39 3014.31 5562.43 3014.25 5562.45C3014.32 5562.43 3014.4 5562.39 3014.45 5562.38C3014.53 5562.34 3014.62 5562.3 3014.69 5562.27C3017.01 5561.33 3019.31 5560.46 3021.68 5559.75C3022.8 5559.49 3023.9 5559.29 3025.02 5559.12C3026.18 5559.01 3027.32 5558.94 3028.5 5558.9C3029.05 5558.92 3029.62 5558.97 3030.19 5559.01C3031.6 5559.23 3033 5559.54 3034.36 5559.89C3035.81 5560.28 3037.25 5560.68 3038.66 5561.13C3044.05 5562.8 3049.45 5564.45 3055.1 5564.95C3060.46 5565.45 3065.87 5565.48 3071.23 5565.67C3077.52 5565.9 3083.83 5566.33 3089.97 5564.56C3093.37 5563.59 3096.6 5562.32 3099.82 5560.83C3102.54 5559.58 3105.33 5558.26 3107.74 5556.47C3111.05 5554.03 3114.06 5551.24 3116.25 5547.72C3117.83 5545.17 3118.92 5542.39 3119.87 5539.56C3121.77 5534.03 3123.55 5528.48 3125.22 5522.87C3126.99 5516.88 3128.64 5510.89 3130.08 5504.8C3130.74 5501.94 3131.38 5499.09 3131.91 5496.18C3132.35 5493.83 3132.7 5491.46 3133.2 5489.1C3133.37 5488.55 3133.51 5488.02 3133.7 5487.49C3133.88 5487.19 3134.05 5486.88 3134.25 5486.6C3134.58 5486.2 3134.91 5485.78 3135.26 5485.39C3135.46 5485.23 3135.63 5485.06 3135.83 5484.89C3136.33 5484.53 3136.82 5484.18 3137.32 5483.87C3138.35 5483.26 3139.4 5482.73 3140.44 5482.21C3142.94 5481.2 3145.48 5480.34 3148.09 5479.58C3150.81 5478.83 3153.57 5478.22 3156.38 5477.74C3157.17 5477.65 3157.96 5477.56 3158.77 5477.51H3158.79C3158.29 5481.9 3157.67 5486.26 3157.26 5490.67C3156.77 5495.83 3156.86 5501.42 3158.33 5506.44C3159.01 5508.88 3159.93 5511.18 3161.45 5513.24C3162.19 5514.23 3163.02 5515.19 3163.86 5516.07C3165.72 5517.96 3167.92 5519.47 3170.22 5520.76C3174.08 5522.89 3177.83 5525.08 3181.49 5527.49C3185.79 5530.43 3190 5533.48 3193.97 5536.81C3195.5 5538.22 3196.99 5539.69 3198.42 5541.2C3199.63 5542.67 3200.77 5544.16 3201.89 5545.68C3203.84 5548.77 3205.55 5551.97 3207.15 5555.24C3208.86 5558.81 3210.48 5562.49 3212.43 5565.94C3215.99 5572.25 3220.29 5578.28 3226.01 5582.83C3228.7 5584.98 3231.76 5586.84 3234.96 5588.18C3237.83 5589.4 3241.18 5589.87 3244.26 5589.29C3245.44 5589.05 3246.54 5588.83 3247.68 5588.4C3249.03 5587.91 3250.15 5587.21 3251.32 5586.44C3256.97 5582.72 3260.48 5576.44 3262.21 5570.08C3264.04 5563.37 3263.09 5556.51 3263.09 5549.65C3263.16 5548.46 3263.25 5547.28 3263.4 5546.09C3263.57 5545.22 3263.79 5544.4 3264.01 5543.57C3264.25 5542.91 3264.48 5542.28 3264.74 5541.66C3264.96 5541.27 3265.18 5540.89 3265.42 5540.48C3265.61 5540.24 3265.81 5539.99 3265.99 5539.75C3266.76 5538.88 3267.63 5538.04 3268.49 5537.23C3268.6 5537.14 3268.71 5537.01 3268.84 5536.92C3274.63 5531.97 3281.34 5528.11 3286.73 5522.69C3289.32 5520.06 3291.8 5517.32 3293.68 5514.12C3295.07 5511.73 3296.01 5509.07 3296.93 5506.46C3298.95 5500.74 3300.7 5494.88 3301.36 5488.81C3301.71 5485.8 3301.32 5482.76 3301.03 5479.77C3300.7 5476.33 3300.42 5472.87 3299.98 5469.44C3299.26 5464.01 3298.36 5458.61 3297.79 5453.15C3297.74 5452.27 3297.68 5451.37 3297.66 5450.47C3297.7 5450.04 3297.74 5449.6 3297.79 5449.14C3298.25 5449.33 3298.69 5449.51 3299.13 5449.69C3299.87 5450.04 3300.59 5450.45 3301.29 5450.85C3301.91 5451.27 3302.5 5451.7 3303.11 5452.16C3303.86 5452.78 3304.59 5453.44 3305.27 5454.14C3305.73 5454.66 3306.19 5455.15 3306.62 5455.69C3306.84 5456.04 3307.04 5456.4 3307.26 5456.77C3308.84 5460.04 3309.76 5463.55 3311.34 5466.83C3313.56 5471.4 3316.49 5475.43 3320 5479.09C3323.29 5482.49 3327.57 5485.61 3332.13 5487.08C3334.98 5488 3337.94 5488.44 3340.9 5488.87C3341.71 5488.98 3342.53 5489.1 3343.36 5489.25C3346.05 5489.75 3348.66 5490.37 3351.25 5491.09C3353.27 5491.75 3355.25 5492.52 3357.2 5493.37C3358.2 5493.88 3359.17 5494.36 3360.11 5494.93C3359.89 5494.8 3359.67 5494.66 3359.46 5494.51C3359.7 5494.66 3359.94 5494.8 3360.16 5494.95C3360.14 5494.93 3360.13 5494.93 3360.11 5494.93C3360.16 5494.95 3360.2 5494.99 3360.25 5495.01C3360.27 5495.02 3360.31 5495.04 3360.33 5495.06C3360.35 5495.06 3360.35 5495.06 3360.35 5495.06C3360.37 5495.06 3360.38 5495.08 3360.38 5495.08C3360.4 5495.08 3360.4 5495.1 3360.42 5495.1C3360.42 5495.1 3360.44 5495.12 3360.46 5495.12C3360.48 5495.12 3360.48 5495.13 3360.48 5495.13C3360.51 5495.15 3360.53 5495.17 3360.57 5495.19C3360.66 5495.24 3360.73 5495.3 3360.81 5495.35C3360.79 5495.34 3360.77 5495.34 3360.73 5495.32C3360.77 5495.34 3360.82 5495.37 3360.84 5495.39C3362.06 5496.22 3363.18 5497.12 3364.3 5498.04C3366.21 5499.64 3368.05 5501.31 3369.85 5503.02C3371.95 5505.01 3373.95 5507.1 3376.16 5508.96C3379.87 5512.08 3383.99 5514.77 3388.93 5515.41C3392.39 5515.85 3395.35 5514.91 3398.31 5513.44C3401.17 5511.92 3403.86 5510.19 3406.5 5508.28C3409.08 5506.42 3411.58 5504.34 3413.65 5501.94C3416.28 5498.92 3418.56 5495.65 3420.35 5492.08C3421.58 5489.64 3422.9 5487.05 3423.62 5484.34C3424.24 5482.08 3424.56 5479.66 3424.11 5477.32C3423.86 5476.13 3423.58 5474.99 3423.23 5473.85C3423.25 5473.88 3423.25 5473.9 3423.27 5473.94C3423.23 5473.83 3423.19 5473.72 3423.16 5473.61C3423.18 5473.68 3423.21 5473.77 3423.23 5473.85C3422.24 5471.02 3420.79 5468.5 3419 5466.09C3418.18 5464.95 3417.31 5463.83 3416.5 5462.65C3415.93 5461.73 3415.38 5460.81 3414.89 5459.88C3414.5 5459.07 3414.21 5458.26 3413.91 5457.43C3413.69 5456.72 3413.51 5455.98 3413.34 5455.23C3413.34 5455.02 3413.31 5454.86 3413.27 5454.68C3413.31 5454.58 3413.32 5454.49 3413.34 5454.42C3413.54 5453.92 3413.75 5453.46 3413.97 5453C3414.33 5452.32 3414.74 5451.66 3415.16 5451C3415.9 5449.97 3416.65 5449 3417.46 5448.02C3417.33 5448.17 3417.18 5448.33 3417.06 5448.46C3417.22 5448.3 3417.37 5448.13 3417.51 5447.95C3417.53 5447.93 3417.55 5447.93 3417.55 5447.91C3417.51 5447.95 3417.5 5447.98 3417.46 5448.02C3417.51 5447.97 3417.55 5447.91 3417.61 5447.86C3417.61 5447.86 3417.61 5447.86 3417.63 5447.84C3417.63 5447.84 3417.63 5447.84 3417.64 5447.84H3417.63C3417.63 5447.84 3417.63 5447.84 3417.64 5447.82C3417.64 5447.82 3417.64 5447.82 3417.64 5447.84V5447.82C3417.64 5447.8 3417.66 5447.8 3417.66 5447.8C3417.66 5447.8 3417.68 5447.8 3417.68 5447.78C3417.75 5447.71 3417.83 5447.64 3417.88 5447.56C3418.6 5446.83 3419.35 5446.07 3420.14 5445.37C3420.99 5444.69 3421.85 5444.05 3422.75 5443.43C3423.05 5443.26 3423.36 5443.09 3423.65 5442.93C3423.71 5442.89 3423.76 5442.89 3423.82 5442.86C3423.86 5442.86 3423.87 5442.86 3423.91 5442.86C3424.04 5442.86 3424.17 5442.86 3424.3 5442.87C3425.18 5442.97 3426.03 5443.09 3426.89 5443.21C3428.54 5443.44 3430.18 5443.7 3431.85 5443.83C3434.57 5444.05 3437.29 5444.23 3440.01 5444.4C3445.44 5444.75 3450.88 5445.01 3456.34 5444.93C3459.85 5444.88 3463.65 5444.64 3467.04 5443.65C3470.77 5442.56 3474.15 5440.98 3476.59 5437.84C3478.25 5435.72 3479 5433.06 3479.06 5430.39C3479.11 5427.18 3478.86 5423.96 3479.11 5420.72C3479.35 5418.57 3479.72 5416.51 3480.14 5414.38C3481.67 5407.64 3483.65 5400.98 3485.16 5394.18C3485.07 5394.55 3485 5394.93 3484.9 5395.32C3485.58 5392.27 3486.26 5389.16 3486.61 5386.06C3493.12 5387.91 3499.76 5389.27 3506.47 5390.26C3507.92 5390.47 3509.37 5390.67 3510.82 5390.83C3519.54 5391.9 3528.36 5392.62 3537.14 5392.67C3541.92 5392.71 3546.72 5392.6 3551.46 5391.96C3555.6 5391.4 3559.64 5390.34 3563.08 5387.95C3565.6 5386.22 3567.48 5383.85 3568.61 5381C3569.48 5378.83 3569.96 5376.5 3570.56 5374.25C3571.59 5370.41 3572.68 5366.59 3573.98 5362.82C3573.93 5362.99 3573.85 5363.15 3573.8 5363.3C3573.89 5363.08 3573.96 5362.86 3574.06 5362.62C3574.11 5362.45 3574.17 5362.29 3574.22 5362.12C3574.18 5362.27 3574.11 5362.42 3574.07 5362.56C3574.72 5360.8 3575.42 5359.05 3576.24 5357.36C3576.46 5356.94 3576.72 5356.5 3576.98 5356.11C3577.03 5356.06 3577.07 5356.02 3577.13 5356C3577.16 5355.98 3577.22 5355.96 3577.25 5355.95C3577.77 5355.72 3578.3 5355.54 3578.82 5355.34C3579.74 5355.06 3580.66 5354.84 3581.59 5354.68C3583.8 5354.36 3585.99 5354.16 3588.17 5354.03C3596.3 5353.81 3604.4 5353.98 3612.49 5353.19C3620.95 5352.36 3629.13 5350.56 3637.29 5348.35C3643.63 5346.61 3649.94 5344.66 3656.32 5342.97C3661.15 5341.81 3666.06 5340.91 3670.95 5339.97C3675.76 5339.05 3680.54 5338.04 3685.29 5336.87C3690.43 5335.6 3695.58 5334.27 3700.63 5332.64C3703.06 5331.83 3705.45 5330.98 3707.84 5330.1C3708.08 5330.03 3708.3 5329.93 3708.54 5329.86C3708.85 5333.67 3709.04 5337.51 3709.79 5341.28C3710.89 5346.53 3712.8 5351.61 3716 5355.95C3719.2 5360.3 3722.9 5364.14 3726.96 5367.73C3730.82 5371.15 3734.75 5374.46 3738.39 5378.06C3740.56 5380.32 3742.66 5382.62 3744.62 5385.04C3746.64 5387.54 3748.67 5390.04 3750.87 5392.42C3753.89 5395.72 3757.31 5398.67 3760.8 5401.42C3764.31 5404.2 3767.91 5406.79 3771.81 5409.01C3775.95 5411.37 3780.28 5413.33 3784.7 5415.08C3788.56 5416.61 3792.42 5418.02 3796.39 5419.2C3800.27 5420.34 3804.16 5421.39 3808.15 5422.16C3812.64 5423 3817.21 5423.52 3821.77 5423.96C3830.72 5424.8 3839.73 5425.04 3848.72 5425.63C3865.82 5426.73 3882.95 5428 3900.08 5428.72C3915.13 5429.36 3930.21 5429.58 3945.26 5429.8C3941.22 5434.14 3937.21 5438.48 3932.98 5442.6C3930.78 5444.68 3928.5 5446.64 3926.07 5448.46C3924.18 5449.79 3922.27 5451.04 3920.34 5452.29C3918.31 5453.61 3916.24 5454.93 3914.44 5456.53C3912.32 5458.39 3910.5 5460.56 3909.16 5463.04C3907.03 5466.97 3906.62 5471.6 3907.93 5475.87C3908.81 5478.7 3910.28 5481.4 3912.56 5483.33C3914.47 5484.93 3916.46 5486.24 3918.66 5487.41C3921.11 5488.76 3923.65 5489.91 3926.18 5491C3931.31 5493.2 3936.62 5494.95 3941.79 5497.06C3942.36 5497.3 3942.91 5497.58 3943.44 5497.84C3943.19 5499.23 3942.82 5500.61 3942.45 5501.95C3941.55 5504.97 3940.59 5507.96 3939.8 5511C3939.89 5510.59 3940.02 5510.19 3940.12 5509.78C3938.31 5516.51 3937.14 5523.55 3938.64 5530.48C3939.95 5536.57 3943.15 5541.84 3946.64 5546.92C3949.78 5551.46 3953.18 5555.78 3956.49 5560.19C3959.45 5564.16 3962.52 5568.06 3965.7 5571.86C3968.17 5574.86 3970.72 5577.78 3972.95 5580.98C3973.2 5581.38 3973.44 5581.81 3973.68 5582.25C3973.77 5582.47 3973.88 5582.69 3973.97 5582.91C3974.05 5583.11 3974.08 5583.29 3974.14 5583.46C3974.16 5583.61 3974.2 5583.77 3974.21 5583.94C3974.21 5584.07 3974.21 5584.21 3974.21 5584.34C3974.2 5584.58 3974.18 5584.78 3974.14 5584.99C3974.07 5585.37 3973.99 5585.78 3973.88 5586.16C3973.64 5586.9 3973.39 5587.63 3973.09 5588.33C3972.82 5588.94 3972.54 5589.56 3972.23 5590.15C3972.12 5590.33 3972.01 5590.5 3971.9 5590.68C3971.82 5590.79 3971.73 5590.87 3971.64 5590.98C3971.44 5591.2 3971.22 5591.4 3970.98 5591.6C3970.68 5591.81 3970.41 5592.03 3970.1 5592.21C3966.73 5594.23 3963.15 5595.9 3959.62 5597.63C3959.67 5597.61 3959.75 5597.6 3959.8 5597.56C3955.87 5599.47 3951.92 5601.35 3947.98 5603.24C3940.35 5600.83 3932.67 5598.7 3924.82 5597.08C3925.28 5597.19 3925.76 5597.26 3926.22 5597.37C3923.28 5596.79 3920.32 5596.31 3917.34 5596.03C3915.72 5595.96 3914.12 5595.94 3912.52 5596C3910.89 5596.14 3909.25 5596.36 3907.63 5596.64C3906.42 5596.9 3905.23 5597.23 3904.03 5597.6C3902.54 5598.11 3901.09 5598.66 3899.66 5599.29C3898.28 5599.99 3896.94 5600.74 3895.61 5601.57C3894.38 5602.41 3893.2 5603.33 3892.05 5604.27C3889.88 5606.22 3887.78 5608.26 3885.78 5610.41C3884.45 5611.93 3883.19 5613.5 3881.86 5615.04C3879.47 5617.83 3876.84 5620.26 3873.83 5622.39C3870.01 5625.08 3865.89 5627.26 3861.72 5629.4C3856.86 5631.88 3851.92 5634.23 3846.92 5636.42C3838.68 5640.04 3830.15 5643.07 3821.64 5646.01C3817.64 5647.41 3813.61 5648.55 3809.46 5649.34C3806.09 5649.97 3802.69 5650.28 3799.33 5650.79C3798.08 5651.09 3796.83 5651.44 3795.58 5651.79C3792.73 5652.81 3789.95 5653.94 3787.2 5655.19C3784.88 5656.36 3782.62 5657.61 3780.39 5658.95C3778.15 5660.52 3775.98 5662.15 3773.85 5663.9C3771.09 5666.38 3768.39 5668.94 3765.82 5671.67C3762.88 5675.06 3760.12 5678.59 3757.51 5682.23C3756.46 5683.77 3755.49 5685.31 3754.59 5686.93C3754.57 5686.95 3754.57 5686.99 3754.53 5687.01C3754.6 5687.54 3754.66 5688.05 3754.77 5688.57C3755.25 5690.74 3755.85 5692.85 3756.5 5694.98C3756.99 5696.34 3757.49 5697.69 3758.04 5699.03C3758.56 5700 3759.07 5700.98 3759.62 5701.95C3760.58 5703.37 3761.61 5704.69 3762.67 5706.01C3766.26 5710.06 3769.81 5714.14 3773.72 5717.81C3775.16 5719.05 3776.63 5720.22 3778.15 5721.34C3781.64 5723.7 3785.25 5725.81 3788.79 5728.07C3793.54 5731.07 3797.99 5734.36 3801.97 5738.33C3805.08 5741.42 3807.54 5745.24 3809.53 5749.1C3811.55 5753.03 3813.28 5757.32 3814.18 5761.65C3815.47 5767.87 3815.78 5774.34 3812.62 5780.09C3809.14 5786.45 3804.05 5791.75 3798.24 5795.99C3791.83 5800.7 3784.71 5804.12 3777.97 5808.2C3777.95 5808.23 3777.91 5808.25 3777.88 5808.29C3777.86 5808.46 3777.82 5808.66 3777.8 5808.8C3777.8 5809.14 3777.8 5809.45 3777.82 5809.76C3778.15 5814.3 3778.79 5818.82 3779.59 5823.29C3780.04 5825.48 3780.67 5827.63 3781.33 5829.76C3784.07 5837.88 3787.01 5845.94 3789.14 5854.28C3790.23 5858.45 3791.07 5862.7 3792.21 5866.87C3793.59 5871.89 3795.23 5876.87 3796.77 5881.85C3799.14 5889.54 3800.58 5897.37 3801.59 5905.33C3802.01 5908.67 3802.38 5912.06 3802.64 5915.42C3802.91 5918.58 3803.06 5921.76 3803.56 5924.94C3803.85 5926.25 3804.18 5927.57 3804.55 5928.88C3804.97 5929.98 3805.43 5931.04 3805.91 5932.11C3806.24 5932.81 3806.62 5933.49 3807.03 5934.17C3807.42 5934.72 3807.82 5935.25 3808.24 5935.79C3808.96 5936.56 3809.69 5937.35 3810.45 5938.1C3811.26 5938.8 3812.12 5939.46 3812.99 5940.11C3814.25 5940.92 3815.5 5941.65 3816.81 5942.39C3823.19 5945.47 3829.79 5947.94 3836.46 5950.31C3836.39 5950.27 3836.29 5950.25 3836.22 5950.22C3847.16 5953.95 3858.26 5957.22 3869.51 5959.89C3879.68 5962.31 3890.37 5964.06 3899.79 5968.8C3908.52 5973.19 3915.17 5980.8 3921.13 5988.4C3923.52 5991.41 3925.59 5994.68 3927.52 5998.01C3928.74 6000.11 3929.89 6002.28 3931.18 6004.33C3931.66 6005.03 3932.16 6005.73 3932.69 6006.39C3933.39 6007.15 3934.12 6007.86 3934.86 6008.58C3937.36 6010.73 3939.93 6012.77 3942.45 6014.87C3945.41 6017.33 3948.3 6019.88 3951.33 6022.2C3954.51 6024.61 3957.85 6026.74 3960.98 6029.2C3964.93 6032.33 3968.83 6035.47 3972.85 6038.49C3978.39 6042.62 3983.4 6047.24 3988.07 6052.33C3992.63 6057.29 3996.86 6062.59 4001.14 6067.77C4005.32 6072.9 4009.01 6078.39 4012.32 6084.13C4013.92 6086.89 4015.35 6089.72 4016.77 6092.59C4018.44 6095.97 4020.1 6099.35 4021.47 6102.88C4025.85 6114.22 4028.57 6126.11 4031.33 6137.9C4033.75 6148.34 4036.22 6158.71 4039.49 6168.91C4040.87 6172.9 4042.41 6176.79 4044.16 6180.65C4045.79 6183.91 4047.52 6187.07 4049.41 6190.18C4050.92 6192.42 4052.52 6194.57 4054.21 6196.66C4056.71 6199.33 4059.21 6201.98 4061.88 6204.48C4065.57 6207.69 4069.34 6210.8 4073.05 6213.96C4077.69 6217.88 4082.06 6222.07 4086.31 6226.37C4094.41 6234.55 4102.23 6243.34 4108.95 6252.69C4115.94 6262.38 4121.93 6272.67 4127.56 6283.19C4132.37 6292.1 4137.34 6300.91 4142.74 6309.46C4142.67 6309.33 4142.57 6309.2 4142.46 6309.07C4142.68 6309.4 4142.89 6309.71 4143.11 6310.03C4143.14 6310.06 4143.14 6310.1 4143.18 6310.16C4143.16 6310.14 4143.14 6310.12 4143.13 6310.08C4143.14 6310.1 4143.16 6310.12 4143.18 6310.16C4144.98 6312.89 4146.89 6315.56 4148.93 6318.13C4149.89 6319.16 4150.86 6320.17 4151.88 6321.17C4153.16 6322.25 4154.47 6323.26 4155.83 6324.25C4165.48 6330.82 4175.57 6336.79 4185.75 6342.47C4191.18 6345.5 4196.67 6348.33 4202.04 6351.5C4206.54 6354.14 4210.9 6357.01 4215.5 6359.49C4218.9 6361.17 4222.41 6362.54 4225.96 6363.83C4234.78 6366.73 4243.77 6369.01 4252.83 6370.93C4256.93 6371.72 4260.99 6372.23 4265.15 6372.6C4265.27 6372.62 4265.38 6372.62 4265.53 6372.62C4265.53 6372.62 4265.53 6372.62 4265.53 6372.64C4265.57 6372.62 4265.62 6372.64 4265.7 6372.64C4265.64 6372.62 4265.61 6372.62 4265.57 6372.62C4265.7 6372.62 4265.84 6372.64 4265.97 6372.65C4265.99 6372.65 4266.01 6372.65 4266.03 6372.64C4266.05 6372.64 4266.05 6372.64 4266.06 6372.64C4266.08 6372.64 4266.12 6372.64 4266.14 6372.65C4271.29 6372.98 4276.43 6373.13 4281.6 6373.24C4286.69 6373.33 4291.78 6373.48 4296.85 6373.22C4303.25 6372.69 4309.57 6371.57 4315.95 6370.72C4322.52 6369.88 4329.12 6369.33 4335.71 6368.78C4342.98 6368.17 4350.22 6367.84 4357.48 6367.95C4364.06 6368.04 4370.58 6368 4377.15 6367.6C4377.06 6367.6 4376.96 6367.62 4376.85 6367.62C4386.47 6367.01 4396.04 6366.39 4405.68 6366.61C4409.55 6366.7 4413.43 6367.01 4417.26 6367.49C4420.51 6367.91 4423.73 6368.5 4426.78 6369.66C4436.1 6373.17 4442.4 6383.94 4438.05 6393.55C4436.41 6397.16 4433.64 6400.06 4430.8 6402.8C4427.5 6405.98 4423.95 6408.96 4420.44 6411.92C4420.86 6411.59 4421.26 6411.22 4421.69 6410.87C4420.35 6411.99 4419 6413.11 4417.66 6414.27C4417.68 6414.25 4417.68 6414.25 4417.7 6414.23C4417.68 6414.25 4417.64 6414.29 4417.62 6414.31C4417.62 6414.33 4417.61 6414.33 4417.59 6414.34C4417.57 6414.34 4417.57 6414.36 4417.57 6414.36C4413.64 6417.71 4409.67 6421.05 4406.1 6424.79C4405.84 6425.08 4405.6 6425.36 4405.36 6425.67C4405.31 6426.15 4405.23 6426.61 4405.2 6427.08C4405.18 6428.24 4405.2 6429.38 4405.27 6430.56C4405.42 6432.45 4405.62 6434.34 4405.95 6436.22C4406.21 6437.47 4406.54 6438.68 4406.89 6439.91C4407.7 6442.19 4408.67 6444.4 4409.57 6446.66C4410.68 6449.34 4411.56 6452.08 4412.48 6454.82C4412.97 6456.24 4413.51 6457.63 4414.11 6459.03C4414.55 6459.86 4415.01 6460.69 4415.53 6461.49C4415.69 6461.71 4415.84 6461.95 4416.03 6462.17C4416.28 6462.41 4416.52 6462.69 4416.78 6462.93C4417.33 6463.37 4417.86 6463.79 4418.41 6464.21C4420.73 6465.74 4423.1 6467.12 4425.55 6468.41C4426.1 6468.68 4426.67 6468.98 4427.24 6469.25C4427.97 6467.95 4429.43 6467.16 4431.02 6467.58C4432.9 6468.07 4433.78 6469.97 4433.34 6471.75C4433.38 6471.81 4433.45 6471.9 4433.51 6471.97C4433.67 6472.12 4433.84 6472.3 4434 6472.47C4439.26 6474.89 4444.61 6477.16 4450.03 6479.12C4449.96 6479.1 4449.9 6479.09 4449.85 6479.07C4450.14 6479.16 4450.42 6479.27 4450.71 6479.36C4450.75 6479.36 4450.79 6479.38 4450.82 6479.4C4454.96 6480.8 4459.15 6482.08 4463.08 6484.07C4464.26 6484.67 4465.33 6485.34 4466.21 6486.22C4475.34 6488.85 4484.52 6491.35 4493.28 6494.91C4499.76 6497.52 4506 6500.52 4512.29 6503.44C4518.49 6506.31 4524.81 6508.83 4531.22 6511.11C4530.77 6510.94 4530.31 6510.78 4529.85 6510.61C4535.14 6512.3 4540.45 6513.74 4545.86 6514.91C4555.38 6516.64 4564.96 6517.21 4574.55 6518.39C4585.08 6519.67 4595.25 6522.39 4605.34 6525.54C4610.34 6527.1 4615.29 6528.75 4620.29 6530.39C4624.86 6531.9 4629.5 6533.35 4633.98 6535.19C4637.79 6536.73 4641.39 6538.83 4644.68 6541.31C4648.21 6543.97 4651.19 6547.45 4654.38 6550.52C4661.24 6556.4 4668.59 6561.69 4676.02 6566.84C4675.54 6566.53 4675.06 6566.2 4674.6 6565.89C4675.36 6566.4 4676.09 6566.9 4676.83 6567.39C4676.63 6567.25 4676.41 6567.12 4676.2 6566.97C4683.34 6571.86 4690.49 6576.82 4698.13 6580.85C4700.98 6582.25 4703.87 6583.51 4706.85 6584.6C4711.9 6586.33 4717.14 6587.48 4722.36 6588.57C4728.57 6589.78 4734.81 6590.88 4741 6592.17C4747.51 6593.53 4753.94 6595.92 4759.95 6598.72C4765.49 6601.31 4770.5 6604.63 4775.15 6608.57C4779.68 6612.37 4783.78 6616.64 4788.1 6620.63C4791.68 6623.75 4795.45 6626.56 4799.25 6629.4C4801.99 6631.44 4804.6 6633.6 4807.34 6635.57C4809.71 6637.12 4812.16 6638.49 4814.68 6639.78C4822.89 6643.88 4831.4 6647.65 4839.14 6652.61C4842.74 6654.91 4846.38 6657.28 4849.67 6660.02C4853.04 6662.8 4855.91 6665.96 4858.7 6669.28C4863.11 6674.5 4867.38 6679.76 4870.06 6686.12C4870.69 6687.61 4871.2 6689.21 4871.51 6690.79C4872.03 6693.35 4872.36 6695.97 4871.97 6698.58C4871.62 6700.81 4871.11 6702.94 4870.43 6705.07C4868.85 6710.04 4866.49 6714.58 4864.01 6719.12C4863.94 6719.28 4863.85 6719.45 4863.77 6719.61C4863.44 6720.29 4863.13 6720.99 4862.84 6721.69C4862.69 6722.21 4862.54 6722.72 4862.41 6723.24C4862.34 6723.77 4862.27 6724.26 4862.23 6724.78C4862.1 6728.69 4862.47 6732.56 4862.41 6736.45C4862.34 6741.78 4861.59 6746.98 4860.45 6752.15C4859.45 6756.62 4857.85 6760.94 4855.8 6765.04C4853.59 6769.41 4851.2 6773.84 4847.76 6777.35C4844.29 6780.88 4839.67 6782.87 4834.69 6782.83C4829.14 6782.81 4823.65 6780.77 4818.63 6778.53C4811.92 6775.53 4805.28 6772.06 4799.27 6767.83C4796.15 6765.66 4793.3 6763.29 4790.52 6760.66C4787.86 6758.16 4785.56 6755.24 4783.39 6752.32C4779.24 6746.69 4776.09 6740.2 4773.46 6733.73C4772.29 6730.77 4771.11 6727.78 4769.79 6724.83C4769.27 6723.88 4768.74 6722.92 4768.19 6721.99C4766.42 6719.49 4764.58 6717.06 4762.64 6714.69C4759.9 6711.71 4756.92 6709.01 4753.94 6706.27C4752.89 6705.31 4751.83 6704.36 4750.8 6703.4C4748.74 6701.54 4746.64 6699.78 4744.36 6698.14C4743.3 6697.43 4742.21 6696.75 4741.07 6696.12C4740.03 6695.63 4738.98 6695.18 4737.89 6694.76C4737.1 6694.5 4736.31 6694.28 4735.5 6694.08C4734.38 6693.9 4733.26 6693.75 4732.12 6693.64C4726.28 6693.36 4720.43 6693.47 4714.59 6693.38C4708.78 6693.33 4702.99 6693.18 4697.18 6692.98C4685.28 6692.56 4673.43 6691.77 4661.63 6689.96C4655.6 6689.06 4649.51 6688.05 4643.67 6686.29C4642.31 6685.88 4640.95 6685.39 4639.66 6684.78C4636.11 6683.05 4633.43 6680.39 4631.43 6677C4629.53 6673.79 4628.41 6670.24 4626.96 6666.82C4626.76 6666.42 4626.54 6666.05 4626.3 6665.66C4625.82 6664.98 4625.36 6664.32 4624.84 6663.66C4624.75 6663.57 4624.64 6663.46 4624.55 6663.37C4624.38 6663.22 4624.2 6663.11 4624.02 6662.98C4623.78 6662.83 4623.5 6662.67 4623.26 6662.52C4622.91 6662.37 4622.55 6662.23 4622.22 6662.06C4621.76 6661.93 4621.28 6661.78 4620.82 6661.64C4621.3 6661.73 4621.76 6661.82 4622.2 6661.91C4620.43 6661.49 4618.65 6661.23 4616.83 6661.18C4617.31 6661.21 4617.77 6661.23 4618.23 6661.27C4617.51 6661.25 4616.81 6661.25 4616.09 6661.27C4614.48 6661.43 4612.9 6661.67 4611.3 6661.93C4609.46 6662.39 4607.64 6662.85 4605.8 6663.38C4602.73 6664.43 4599.73 6665.61 4596.76 6666.99C4593.8 6668.48 4590.89 6670.06 4588.04 6671.78C4585.73 6673.35 4583.49 6675.04 4581.33 6676.8C4580.01 6677.98 4578.74 6679.19 4577.51 6680.46C4577.05 6680.99 4576.63 6681.53 4576.19 6682.08C4575.97 6682.45 4575.76 6682.8 4575.53 6683.18C4575.51 6683.33 4575.49 6683.48 4575.45 6683.64C4575.38 6686.23 4575.49 6688.84 4575.64 6691.42C4575.6 6691.01 4575.58 6690.61 4575.54 6690.18C4575.97 6696.31 4576.26 6702.37 4576.1 6708.51C4575.89 6714.98 4575.47 6721.47 4573.87 6727.76C4571.04 6738.95 4563.91 6748.46 4558.45 6758.47C4557.84 6759.72 4557.27 6761.01 4556.78 6762.32C4556.46 6763.38 4556.17 6764.48 4555.91 6765.57C4555.62 6767.17 4555.38 6768.75 4555.21 6770.37C4554.9 6775.44 4554.96 6780.51 4554.42 6785.57C4553.91 6790.73 4552.7 6795.75 4551.24 6800.72C4548.36 6810.6 4543.54 6819.74 4539.81 6829.3C4539.72 6829.67 4539.63 6830.05 4539.53 6830.44C4539.5 6830.73 4539.46 6831.05 4539.42 6831.32C4539.42 6831.71 4539.42 6832.08 4539.44 6832.44C4539.46 6832.7 4539.48 6832.94 4539.52 6833.21C4539.57 6833.44 4539.61 6833.64 4539.66 6833.86C4539.75 6834.04 4539.81 6834.23 4539.88 6834.41C4539.94 6834.48 4539.96 6834.54 4539.99 6834.58C4540.01 6834.59 4540.01 6834.59 4540.03 6834.61C4540.09 6834.65 4540.14 6834.69 4540.2 6834.74C4540.45 6834.89 4540.71 6835.05 4540.97 6835.2C4541.78 6835.57 4542.57 6835.92 4543.39 6836.25C4546.24 6837.17 4549.13 6837.92 4552.05 6838.55C4558.45 6839.61 4564.9 6840.22 4571.33 6841.05C4578.37 6841.95 4585.42 6843.03 4592.31 6844.61C4598.71 6846.08 4604.96 6848.21 4611.13 6850.37C4616.81 6852.35 4622.29 6854.78 4627.68 6857.46C4632.14 6859.68 4636.66 6861.89 4640.91 6864.5C4643.08 6865.86 4645.12 6867.42 4646.99 6869.13C4649.84 6871.67 4651.94 6874.59 4653.98 6877.79C4657.14 6882.77 4659.26 6888.67 4660.78 6894.32C4662.16 6899.24 4662.77 6904.32 4663.24 6909.41C4663.58 6912.83 4663.85 6916.25 4664.04 6919.67C4664.26 6923.73 4664.05 6927.81 4664.22 6931.87C4664.35 6933.69 4664.53 6935.49 4664.83 6937.29C4665.14 6938.62 4665.47 6939.92 4665.85 6941.23C4666.35 6942.61 4666.92 6943.95 4667.51 6945.27C4670.51 6951.3 4674.15 6957.05 4676.63 6963.32C4677.88 6966.41 4678.72 6969.61 4679.16 6972.9C4679.48 6975.23 4679.46 6977.83 4678.81 6980.11C4677.66 6984.28 4675.14 6987.64 4671.79 6990.36C4662.95 6997.57 4651.09 6999.42 4640.16 7001.21C4630.03 7002.84 4619.79 7003.63 4609.7 7005.49C4606.17 7006.28 4602.73 7007.18 4599.29 7008.25C4596.78 7009.15 4594.35 7010.1 4591.9 7011.17C4589.46 7012.4 4587.07 7013.74 4584.68 7015.18C4581.68 7017.2 4578.83 7019.35 4576.06 7021.63C4574.35 7023.14 4572.75 7024.72 4571.17 7026.37C4569.88 7027.82 4568.63 7029.3 4567.44 7030.8C4567.14 7031.3 4566.83 7031.78 4566.56 7032.27C4566.32 7032.81 4566.11 7033.32 4565.86 7033.82C4565.95 7033.58 4566.02 7033.34 4566.11 7033.1C4566.19 7032.88 4566.24 7032.68 4566.32 7032.46C4566.22 7032.7 4566.13 7032.95 4566.06 7033.19C4566.06 7033.21 4566.04 7033.21 4566.02 7033.23C4566.02 7033.21 4566.04 7033.21 4566.06 7033.19C4565.77 7034.04 4565.51 7034.9 4565.29 7035.77C4565.01 7037.37 4564.81 7038.98 4564.66 7040.62C4564.59 7042.75 4564.61 7044.88 4564.7 7047.03C4565.01 7050.55 4565.54 7054.04 4566.17 7057.51C4566.63 7059.85 4567.22 7062.16 4567.92 7064.44C4568.32 7065.55 4568.74 7066.59 4569.2 7067.66C4571.76 7072.27 4574.83 7076.61 4577.46 7081.19C4578.65 7083.21 4579.7 7085.31 4580.64 7087.46C4582.69 7092.24 4583.08 7097.33 4582.51 7102.46C4582.12 7105.84 4580.78 7109.46 4579.07 7112.42C4577.4 7115.3 4575.49 7117.97 4573.14 7120.38C4570.67 7122.9 4567.95 7125.08 4565.07 7127.14C4562.24 7129.13 4559.22 7130.82 4556.1 7132.31C4553.56 7133.54 4550.89 7134.53 4548.3 7135.67C4546.39 7136.65 4544.55 7137.66 4542.75 7138.78C4540.95 7140.01 4539.18 7141.3 4537.51 7142.66C4536.08 7143.93 4534.72 7145.27 4533.39 7146.63C4528.5 7152.14 4524.07 7158.1 4519.55 7163.91C4516.12 7168.37 4512.79 7172.99 4509.55 7177.62C4509.81 7177.23 4510.09 7176.87 4510.34 7176.48C4507.94 7179.97 4505.6 7183.5 4503.51 7187.2C4501.65 7190.43 4500.01 7193.78 4498.28 7197.09C4494.92 7203.47 4490.86 7209.6 4485.16 7214.15C4482.55 7216.2 4479.61 7217.69 4476.59 7219.09C4474.08 7220.25 4471.56 7221.37 4468.98 7222.4C4463.3 7224.66 4457.66 7226.85 4451.56 7227.62C4447.75 7228.1 4443.95 7228.39 4440.09 7228.26C4438.45 7228.21 4436.83 7228.12 4435.2 7227.88C4433.62 7227.71 4432.02 7227.34 4430.45 7226.75Z"
        fill="#2D4159"/>

</svg>