<svg
    width="7773"
    height="7615"
    viewBox="0 0 7773 7615"
    fill="none"
    xmlns="http://www.w3.org/2000/svg">
    <path id="KO"
        d="M5169.45 6252.14C5166.73 6251.09 5164.06 6249.95 5161.45 6248.63C5160.4 6248 5159.36 6247.36 5158.36 6246.68C5157.59 6246.04 5156.86 6245.41 5156.12 6244.75C5155.64 6244.25 5155.17 6243.74 5154.72 6243.23C5153.64 6241.74 5152.65 6240.19 5151.71 6238.63C5150.63 6236.76 5149.54 6234.84 5148.64 6232.89C5147.83 6230.93 5147.13 6228.92 5146.51 6226.87C5145.94 6224.73 5145.48 6222.56 5144.93 6220.43C5144.28 6217.89 5143.51 6215.49 5142.46 6213.13C5142.46 6213.12 5142.45 6213.1 5142.45 6213.08C5141.62 6211.24 5140.66 6209.51 5139.49 6207.86C5137.7 6205.34 5135.39 6203.34 5132.83 6201.63C5130.06 6199.75 5127.22 6198.01 5124.5 6196.06C5120.53 6193.12 5116.58 6190.29 5112.21 6187.95C5108.02 6185.71 5103.75 6183.63 5099.49 6181.52C5093.99 6178.81 5088.59 6175.97 5083.11 6173.26C5077.69 6170.58 5072.13 6168.26 5066.51 6166.06C5060.53 6163.72 5054.3 6161.68 5047.93 6160.62C5047.8 6160.6 5047.67 6160.58 5047.54 6160.56C5047.85 6159.44 5048.11 6158.28 5048.27 6157.14C5048.66 6154.24 5048.64 6151.35 5048.57 6148.43C5048.55 6148.5 5048.57 6148.58 5048.55 6148.65C5048.49 6146.04 5048.4 6143.47 5048.35 6140.87C5048.33 6140.05 5048.33 6139.22 5048.29 6138.39C5048.29 6138.08 5048.29 6137.77 5048.31 6137.44C5048.33 6133.06 5048.57 6128.72 5049.1 6124.39C5049.4 6122.36 5049.75 6120.34 5050.26 6118.37C5050.74 6116.87 5051.25 6115.38 5051.84 6113.93C5052.61 6112.24 5053.44 6110.6 5054.38 6109C5055.17 6107.79 5055.98 6106.63 5056.86 6105.51C5057.87 6104.28 5058.92 6103.08 5060.02 6101.9C5060.48 6101.52 5060.92 6101.13 5061.38 6100.73C5062.23 6100.12 5063.07 6099.53 5063.97 6098.94C5067.1 6097.09 5070.44 6095.47 5073.42 6093.39C5075.39 6092.02 5077.3 6090.56 5078.97 6088.82C5080.22 6087.49 5081.31 6086.1 5082.3 6084.59C5082.23 6084.72 5082.13 6084.85 5082.04 6084.97C5082.17 6084.81 5082.3 6084.61 5082.39 6084.42C5082.48 6084.29 5082.56 6084.18 5082.61 6084.06C5082.59 6084.11 5082.56 6084.17 5082.52 6084.22C5083.26 6082.99 5083.92 6081.68 5084.47 6080.34C5085.06 6080.32 5085.65 6080.27 5086.23 6080.23C5088.24 6080.07 5090.11 6079.63 5091.97 6078.85C5093.4 6078.3 5094.73 6077.49 5096.03 6076.7C5098.84 6075.01 5101.4 6072.95 5103.88 6070.84C5106.03 6069.02 5108.14 6067.16 5110.2 6065.23C5113.57 6062.09 5116.56 6058.5 5120.18 6055.62C5121.31 6054.79 5122.46 6054 5123.55 6053.17C5126.4 6051.04 5128.97 6048.73 5130.61 6045.49C5133.31 6040.23 5132.96 6033.96 5131.01 6028.52C5129.98 6025.62 5128.6 6022.9 5127.15 6020.21C5127.17 6020.27 5127.21 6020.31 5127.22 6020.36C5125.9 6017.97 5124.5 6015.6 5122.91 6013.36C5121.25 6011.02 5119.49 6008.76 5117.76 6006.52C5117.5 6006.13 5117.24 6005.77 5117.02 6005.38C5117.02 6005.29 5117 6005.18 5116.99 6005.09C5117.04 6005.01 5117.08 6004.96 5117.13 6004.9C5117.81 6004.11 5118.49 6003.38 5119.23 6002.68C5119.27 6002.64 5119.3 6002.61 5119.36 6002.57C5119.38 6002.55 5119.41 6002.51 5119.43 6002.49C5120.94 6001.13 5122.46 5999.87 5124.1 5998.67C5125.02 5998.03 5125.94 5997.44 5126.93 5996.87C5127.17 5996.78 5127.43 5996.65 5127.67 5996.54C5127.81 5996.54 5127.98 5996.54 5128.13 5996.56C5128.59 5996.58 5129.04 5996.63 5129.49 5996.69C5130.61 5996.91 5131.69 5997.18 5132.79 5997.49C5135.02 5998.29 5137.21 5999.17 5139.38 6000.12C5145.26 6002.97 5150.96 6006.13 5156.47 6009.65C5156.45 6009.63 5156.42 6009.63 5156.4 6009.61C5156.42 6009.63 5156.45 6009.65 5156.47 6009.65C5156.58 6009.72 5156.69 6009.79 5156.8 6009.87C5156.88 6009.92 5156.95 6009.96 5157.02 6010.01C5160.13 6012.09 5163.16 6014.2 5166.05 6016.61C5172.5 6022.29 5178.22 6028.89 5185.44 6033.63C5185.22 6033.49 5184.98 6033.34 5184.76 6033.19C5185.13 6033.43 5185.48 6033.67 5185.83 6033.89C5185.77 6033.85 5185.7 6033.82 5185.64 6033.76C5188.9 6035.82 5192.24 6037.6 5195.79 6039.13C5199.52 6040.71 5203.4 6041.98 5207.33 6043.05C5214.72 6045.07 5222.24 6046.76 5229.81 6048.16C5229.41 6048.08 5228.99 6047.99 5228.58 6047.92C5229.13 6048.01 5229.7 6048.14 5230.24 6048.23C5230.22 6048.23 5230.2 6048.21 5230.18 6048.21C5230.66 6048.3 5231.16 6048.39 5231.63 6048.49C5231.56 6048.47 5231.51 6048.47 5231.43 6048.45C5232.04 6048.56 5232.61 6048.67 5233.22 6048.76C5233.16 6048.76 5233.11 6048.74 5233.03 6048.74C5233.23 6048.78 5233.45 6048.8 5233.68 6048.85C5233.86 6048.87 5234.06 6048.91 5234.24 6048.96C5234.21 6048.96 5234.15 6048.95 5234.1 6048.95C5234.65 6049.04 5235.18 6049.15 5235.73 6049.24C5235.31 6049.17 5234.91 6049.07 5234.5 6049C5238.55 6049.77 5242.5 6050.6 5246.41 6051.76C5248.29 6052.38 5250.11 6053.05 5251.91 6053.87C5253.91 6054.9 5255.88 6055.95 5257.77 6057.13C5260.92 6059.22 5263.93 6061.46 5266.82 6063.89C5267.9 6064.85 5268.97 6065.82 5269.94 6066.87C5270.26 6067.25 5270.53 6067.66 5270.83 6068.06C5270.94 6068.23 5271.03 6068.38 5271.12 6068.54C5271.12 6068.65 5271.14 6068.78 5271.16 6068.87C5271.17 6069.72 5271.17 6070.54 5271.12 6071.39C5270.75 6074.79 5270.22 6078.17 5269.56 6081.54C5269.56 6081.59 5269.54 6081.65 5269.54 6081.7C5269.52 6081.72 5269.52 6081.76 5269.52 6081.78C5269.5 6081.81 5269.5 6081.85 5269.5 6081.87C5269.5 6081.89 5269.5 6081.9 5269.5 6081.92C5269.5 6081.98 5269.48 6082.05 5269.46 6082.11C5269.45 6082.18 5269.43 6082.24 5269.43 6082.31C5269.41 6082.38 5269.39 6082.46 5269.37 6082.53C5268.84 6084.98 5268.25 6087.42 5267.79 6089.86C5266.95 6094.57 5267.5 6099.94 5270.07 6103.98C5272.22 6107.38 5275.38 6110.05 5278.53 6112.49C5280.51 6114.04 5282.63 6115.4 5284.7 6116.78C5286.03 6117.69 5287.31 6118.63 5288.55 6119.68C5288.82 6119.96 5289.08 6120.21 5289.35 6120.51C5289.78 6121.21 5290.14 6121.92 5290.49 6122.64C5290.73 6123.17 5290.95 6123.71 5291.14 6124.26C5291.73 6126.3 5292.2 6128.37 5292.57 6130.47C5293.16 6134.07 5293.49 6137.71 5293.69 6141.39C5293.67 6140.97 5293.66 6140.56 5293.64 6140.16C5293.99 6147.46 5293.86 6154.79 5294.21 6162.11C5294.34 6164.99 5294.48 6167.88 5294.85 6170.75C5295 6171.83 5295.16 6172.93 5295.38 6174.02C5292.55 6174.79 5289.72 6175.62 5286.95 6176.59C5282.94 6177.99 5278.97 6179.59 5275.05 6181.22C5271.49 6182.71 5267.99 6184.27 5264.52 6185.95C5260.9 6187.69 5257.41 6189.7 5253.9 6191.66C5253.64 6191.79 5253.38 6191.94 5253.12 6192.07C5253.31 6191.98 5253.51 6191.88 5253.69 6191.79C5248.86 6194.46 5244.06 6197.16 5239.24 6199.88C5239.06 6199.99 5238.86 6200.1 5238.68 6200.19C5238.53 6200.27 5238.38 6200.36 5238.23 6200.43C5234.5 6202.49 5230.81 6204.55 5227.09 6206.65C5227.02 6206.66 5226.95 6206.72 5226.87 6206.77C5226.86 6206.77 5226.84 6206.79 5226.84 6206.79C5226.73 6206.85 5226.62 6206.92 5226.51 6206.98C5226.51 6206.99 5226.49 6206.99 5226.49 6207.01C5226.41 6207.03 5226.32 6207.09 5226.27 6207.14C5226.25 6207.16 5226.21 6207.16 5226.19 6207.16C5226.18 6207.18 5226.14 6207.2 5226.12 6207.2C5226.1 6207.22 5226.1 6207.22 5226.1 6207.22L5226.08 6207.23C5226.03 6207.27 5225.94 6207.31 5225.9 6207.34H5225.88C5225.73 6207.44 5225.59 6207.51 5225.44 6207.58C5225.4 6207.62 5225.37 6207.64 5225.31 6207.66C5225.27 6207.67 5225.24 6207.71 5225.18 6207.73C5224.89 6207.9 5224.59 6208.04 5224.3 6208.21C5224.32 6208.21 5224.34 6208.19 5224.36 6208.19C5222.87 6209.02 5221.4 6209.84 5219.93 6210.65C5217.3 6212.16 5214.7 6213.63 5212.09 6215.16C5202.32 6220.82 5192.52 6226.79 5184.98 6235.36C5181.76 6239 5178.88 6242.99 5176.43 6247.16C5175.24 6249.2 5174.08 6251.26 5172.96 6253.34C5171.73 6252.91 5170.57 6252.55 5169.45 6252.14Z"
        fill="#2D4159"/>
</svg>