<svg
    width="7773"
    height="7615"
    viewBox="0 0 7773 7615"
    fill="none"
    xmlns="http://www.w3.org/2000/svg">
    <path
        id="LT"
        d="M5099.08 3657.54C5099.12 3657.6 5099.12 3657.65 5099.16 3657.71C5099.08 3657.54 5099.01 3657.39 5098.94 3657.25C5098.99 3657.36 5099.03 3657.45 5099.08 3657.54C5098.97 3657.26 5098.84 3657.03 5098.72 3656.77C5098.79 3656.92 5098.86 3657.08 5098.94 3657.25C5098.84 3657.06 5098.75 3656.86 5098.66 3656.68C5098.66 3656.68 5098.66 3656.68 5098.66 3656.66C5093.75 3646.14 5090.19 3635.04 5083.81 3625.28C5079.6 3618.86 5073.68 3613.55 5067.1 3609.66C5059.71 3605.26 5051.58 3601.9 5043.18 3600.04C5043.22 3600.04 5043.24 3600.06 5043.28 3600.06C5043.13 3600.02 5042.96 3599.99 5042.8 3599.95C5042.76 3599.95 5042.74 3599.93 5042.71 3599.93C5036.99 3598.77 5031.22 3597.93 5025.44 3597.16C5020.81 3596.53 5016.16 3595.96 5011.58 3595.1C5008.97 3594.51 5006.44 3593.79 5003.9 3592.95C5000.39 3591.62 4997.01 3590.12 4993.68 3588.42C4990.32 3586.66 4987.01 3584.77 4983.75 3582.82C4982.17 3581.88 4980.63 3580.91 4979.09 3579.97C4976.27 3578.26 4973.35 3576.49 4970.06 3576C4968.92 3575.83 4967.8 3575.76 4966.68 3575.8C4966.53 3573.74 4966.44 3571.68 4966.51 3569.6C4966.57 3568.83 4966.66 3568.07 4966.77 3567.28C4966.95 3566.4 4967.17 3565.54 4967.41 3564.67C4967.96 3563.09 4968.61 3561.57 4969.31 3560.04C4972.85 3552.74 4977.04 3545.81 4980.56 3538.52C4985.94 3527.14 4989.71 3515.06 4992.32 3502.75C4993.55 3496.95 4994.91 3490.65 4993.77 3484.73C4993.24 3481.92 4992.21 3479.33 4990.46 3477.03C4988.83 3474.92 4986.57 3473.33 4984.1 3472.38C4981.49 3471.33 4978.61 3470.91 4975.81 3470.61C4964.93 3469.51 4953.92 3469.75 4943 3469.29C4943.28 3469.29 4943.53 3469.31 4943.81 3469.31C4939.78 3469.12 4935.78 3468.74 4931.79 3468.08C4927.62 3467.27 4923.52 3466.24 4919.45 3464.95C4910.3 3461.97 4901.26 3458.56 4892.18 3455.36C4882.56 3452.01 4873.04 3448.46 4863.3 3445.5C4851.22 3441.83 4839.11 3438.63 4826.57 3436.9C4814.35 3435.21 4801.94 3435.15 4789.62 3434.93C4790.01 3434.95 4790.38 3434.95 4790.72 3434.95C4784.14 3434.84 4777.56 3434.68 4770.98 3434.29C4764.46 3433.9 4757.95 3433.37 4751.46 3432.82C4747.34 3432.49 4743.23 3432.05 4739.13 3431.66C4739.18 3430.72 4739.26 3429.79 4739.35 3428.85C4740.19 3420.54 4742.53 3412.53 4744.48 3404.44C4744.73 3403.19 4744.94 3401.92 4745.12 3400.65C4745.16 3399.84 4745.19 3399.09 4745.19 3398.28C4745.14 3397.93 4745.12 3397.6 4745.08 3397.25C4745.01 3396.9 4744.94 3396.55 4744.84 3396.2C4745.01 3396.66 4745.16 3397.16 4745.3 3397.62C4744.97 3396.39 4744.53 3395.21 4744.02 3394.05C4742.99 3392.14 4741.92 3390.25 4740.76 3388.39C4734.64 3379.09 4728.32 3370.01 4723.06 3360.19C4717.73 3350.19 4712.77 3340.01 4706.88 3330.32C4705.16 3327.77 4703.37 3325.29 4701.48 3322.84C4699.04 3320.1 4696.52 3317.51 4693.83 3315.01C4688.7 3310.47 4683.45 3306.02 4679.86 3300.08C4673.78 3289.96 4672.62 3277.73 4676.06 3266.52C4676.59 3264.79 4677.27 3263.12 4678.12 3261.5C4679.97 3263.06 4681.94 3264.53 4684.07 3265.64C4686.06 3266.68 4688.1 3267.55 4690.27 3268.1C4692.23 3268.6 4694.2 3268.91 4696.2 3269.2C4699.55 3269.7 4702.97 3269.88 4706.35 3269.55C4710.71 3269.13 4714.79 3267.97 4718.85 3266.33C4732.36 3260.87 4744.9 3253.17 4756.63 3244.59C4756.57 3244.63 4756.53 3244.64 4756.5 3244.68C4756.64 3244.57 4756.79 3244.48 4756.94 3244.37C4757.14 3244.22 4757.31 3244.09 4757.49 3243.95C4757.36 3244.02 4757.25 3244.11 4757.12 3244.2C4761.33 3241.1 4765.43 3237.95 4769.13 3234.24C4772.8 3230.58 4775.78 3226.17 4778.19 3221.63C4780.27 3217.64 4782.14 3213.58 4784.05 3209.52C4786 3205.4 4787.8 3201.1 4790.05 3197.13C4790.12 3197.02 4790.19 3196.92 4790.27 3196.81C4791.15 3196.74 4792.03 3196.7 4792.91 3196.72C4796.81 3196.83 4800.71 3197.16 4804.62 3197.14C4808.54 3197.11 4812.38 3196.52 4816.22 3195.75C4823.44 3194.3 4830.43 3191.8 4837.3 3189.15C4844.01 3186.57 4850.65 3183.87 4857.41 3181.43C4863.81 3179.13 4870.28 3176.96 4876.81 3175.03C4881.18 3173.78 4885.58 3172.57 4889.97 3171.41C4893.92 3170.38 4897.91 3169.33 4901.97 3168.65C4903.26 3168.51 4904.56 3168.41 4905.89 3168.38C4907.27 3168.43 4908.65 3168.52 4910.01 3168.67C4911.18 3168.84 4912.34 3169.08 4913.5 3169.33C4920.15 3171.15 4926.57 3173.62 4933.09 3175.77C4939.84 3178.01 4946.64 3179.66 4953.68 3180.55C4960.72 3181.43 4967.89 3181.83 4974.93 3180.73C4979.09 3180.09 4982.87 3178.19 4986.88 3176.91C4991.03 3175.73 4995.23 3174.7 4999.47 3174C5005.28 3173.14 5011.11 3172.59 5016.97 3172.38C5019.82 3172.35 5022.67 3172.33 5025.52 3172.38C5032.54 3172.53 5039.54 3172.83 5046.55 3173.3C5054.25 3173.84 5061.97 3174.52 5069.69 3175.05C5073.27 3175.29 5076.84 3175.51 5080.44 3175.67C5084.89 3175.86 5089.69 3176.13 5093.94 3174.63C5098.04 3173.19 5101.62 3170.62 5104.49 3167.37C5106.84 3164.68 5108.4 3161.37 5110.11 3158.23C5110.15 3158.16 5110.19 3158.08 5110.22 3158.01C5112.01 3154.92 5113.94 3151.96 5116.01 3149.06C5119.87 3144.02 5124.16 3139.39 5128.35 3134.63C5130.68 3131.96 5133 3129.26 5135.24 3126.47C5136.4 3125.03 5137.52 3123.52 5138.7 3122.11C5138.86 3122.37 5139.03 3122.61 5139.17 3122.84C5139.76 3123.91 5140.33 3125.01 5140.83 3126.15C5143 3131.3 5144.49 3136.78 5147.26 3141.67C5149.3 3145.23 5151.95 3148.56 5154.95 3151.35C5157.34 3153.58 5160.35 3155.42 5163.25 3156.85C5168.92 3159.66 5175.17 3161.8 5181.56 3161.76C5187.57 3161.74 5193.57 3161.06 5199.58 3160.84C5201.97 3160.8 5204.3 3160.88 5206.67 3161.1C5207.72 3161.26 5208.75 3161.48 5209.78 3161.72C5212.33 3162.44 5214.82 3163.3 5217.32 3164.24C5223.62 3166.83 5229.8 3169.74 5236.14 3172.26C5242.7 3174.85 5249.43 3177.03 5256.34 3178.49C5262.83 3179.87 5269.36 3181.01 5275.94 3181.92C5281.95 3182.73 5288.11 3183.25 5294.01 3184.74C5295.62 3185.23 5297.22 3185.77 5298.8 3186.39C5299.56 3186.74 5300.29 3187.11 5301.03 3187.53C5302.28 3188.32 5303.47 3189.17 5304.67 3190.07C5306.19 3191.32 5307.66 3192.64 5309.1 3194.02C5313.14 3198.16 5316.73 3202.7 5320.51 3207.05C5323.66 3210.69 5326.84 3214.2 5330.18 3217.62C5331.65 3219.09 5333.16 3220.49 5334.8 3221.79C5337.15 3223.63 5339.7 3225.21 5342.46 3226.41C5344.08 3227.13 5345.73 3227.75 5347.44 3228.28C5349 3228.78 5350.7 3229.41 5352.37 3229.74C5352.68 3229.83 5353.01 3229.9 5353.32 3229.99C5353.86 3230.16 5354.37 3230.31 5354.92 3230.43C5355.24 3230.53 5355.55 3230.62 5355.84 3230.71C5355.42 3230.58 5355.02 3230.47 5354.59 3230.36C5358.47 3231.46 5362.22 3232.71 5365.9 3234.28C5368.43 3235.42 5370.93 3236.67 5373.34 3238.06C5373.78 3238.36 5374.23 3238.65 5374.63 3238.96C5374.67 3238.98 5374.7 3239.04 5374.72 3239.06C5374.74 3239.28 5374.76 3239.5 5374.76 3239.72C5374.7 3241.1 5374.57 3242.46 5374.39 3243.82C5373.31 3250.56 5371.98 3257.27 5371.58 3264.09C5371.28 3269.55 5371.74 3274.94 5371.74 3280.4C5371.74 3280.42 5371.74 3280.42 5371.74 3280.42C5371.74 3280.64 5371.72 3280.89 5371.74 3281.11C5371.67 3283.56 5371.56 3286.06 5371.74 3288.5C5371.96 3291.44 5372.81 3294.33 5374.39 3296.83C5376.28 3299.83 5379.08 3301.98 5382.22 3303.54C5385.81 3305.34 5389.63 3306.5 5393.6 3307.16C5395.93 3307.58 5398.29 3307.84 5400.6 3308.43C5400.66 3308.43 5400.71 3308.47 5400.77 3308.47C5400.81 3308.63 5400.82 3308.78 5400.84 3308.93C5400.92 3309.66 5400.93 3310.4 5400.95 3311.13C5400.86 3312.49 5400.71 3313.85 5400.51 3315.19C5400.01 3318.36 5399.44 3321.46 5398.89 3324.61C5398.49 3326.92 5398.14 3329.27 5397.53 3331.55C5397.53 3331.61 5397.51 3331.65 5397.5 3331.68C5396.61 3332.29 5395.71 3332.84 5394.78 3333.36C5385.33 3338.34 5374.22 3340.82 5366.6 3348.72C5362.53 3352.93 5359.85 3358.24 5357.41 3363.5C5354.5 3369.77 5351.93 3376.28 5348.42 3382.23C5347.44 3383.74 5346.41 3385.21 5345.31 3386.64C5344.17 3387.97 5342.98 3389.27 5341.73 3390.52C5339.89 3392.23 5337.96 3393.85 5336.08 3395.56C5333.91 3397.6 5331.89 3399.71 5330 3401.99C5330 3401.99 5330 3401.98 5330 3401.96C5330 3401.98 5329.98 3401.99 5329.98 3402.01C5329.96 3402.03 5329.96 3402.03 5329.96 3402.05C5329.96 3402.07 5329.94 3402.07 5329.94 3402.09C5329.85 3402.18 5329.78 3402.29 5329.69 3402.4C5329.7 3402.38 5329.72 3402.36 5329.74 3402.34C5324.13 3409.4 5320.46 3417.93 5318.88 3426.77C5318.49 3428.96 5318.12 3431.2 5318.01 3433.43C5317.88 3435.76 5318.01 3438.04 5318.27 3440.34C5318.77 3444.66 5319.7 3448.87 5320.77 3453.06C5320.79 3453.19 5320.84 3453.28 5320.86 3453.41C5320.88 3453.44 5320.88 3453.5 5320.9 3453.56C5321.98 3457.6 5323.16 3461.59 5324.26 3465.63C5324.3 3465.78 5324.35 3465.96 5324.37 3466.13C5324.39 3466.17 5324.39 3466.18 5324.39 3466.22C5324.41 3466.31 5324.47 3466.42 5324.48 3466.51C5326.14 3473.21 5327.42 3479.97 5328.38 3486.77C5328.38 3486.73 5328.38 3486.68 5328.38 3486.64C5328.8 3489.77 5329.17 3492.89 5329.28 3496.02C5329.26 3497.16 5329.21 3498.26 5329.08 3499.38C5328.78 3501.2 5328.31 3502.98 5327.9 3504.8C5327.09 3508.57 5327.59 3512.32 5327.81 3516.11C5327.81 3517.06 5327.76 3518.02 5327.68 3518.99C5327.64 3519.23 5327.61 3519.49 5327.55 3519.71C5327.52 3519.82 5327.48 3519.93 5327.42 3520.04C5327.24 3520.48 5327.06 3520.89 5326.85 3521.31C5325.26 3523.99 5323.29 3526.44 5321.27 3528.85C5319.69 3530.74 5318.03 3532.63 5316.32 3534.47C5314.87 3536 5313.36 3537.43 5311.76 3538.83C5311.54 3538.98 5311.36 3539.14 5311.14 3539.27C5311.14 3539.27 5311.12 3539.27 5311.12 3539.29C5310.79 3539.4 5310.48 3539.51 5310.16 3539.64C5308.42 3540.15 5306.65 3540.65 5304.89 3541.09C5298.66 3542.74 5292.17 3544.03 5286.38 3546.97C5280.92 3549.75 5277.31 3554.64 5273.9 3559.53C5271.73 3562.6 5269.54 3565.67 5267.83 3569.01C5266.05 3572.51 5264.56 3576.09 5263.23 3579.77C5260.86 3586.29 5259.17 3593.07 5256.62 3599.54C5255.7 3601.59 5254.69 3603.57 5253.6 3605.52C5252.89 3606.73 5252.15 3607.91 5251.36 3609.07C5251.07 3609.43 5250.77 3609.8 5250.46 3610.17C5249.59 3611.07 5248.68 3611.93 5247.74 3612.76C5246.67 3613.61 5245.55 3614.4 5244.41 3615.15C5242.57 3616.29 5240.66 3617.36 5238.73 3618.33C5233.53 3620.81 5228.09 3622.82 5222.67 3624.73C5215.79 3627.1 5208.95 3629.54 5202.17 3632.19C5195.35 3634.86 5188.59 3637.65 5181.84 3640.5C5168.95 3645.96 5155.98 3651.18 5142.8 3655.92C5142.92 3655.89 5143.05 3655.83 5143.18 3655.79C5143.03 3655.85 5142.89 3655.9 5142.76 3655.94C5142.7 3655.96 5142.67 3655.98 5142.61 3656C5138.9 3657.34 5135.17 3658.64 5131.32 3659.56C5130.3 3659.78 5129.27 3659.93 5128.24 3660.06C5127.28 3660.11 5126.36 3660.13 5125.42 3660.1C5123.29 3659.93 5121.2 3659.67 5119.1 3659.51C5116.45 3659.32 5113.83 3659.23 5111.18 3659.21C5108.86 3659.19 5106.56 3659.21 5104.27 3659.21C5103.22 3659.21 5102.15 3659.21 5101.09 3659.25C5100.74 3659.25 5100.39 3659.27 5100.04 3659.29C5099.69 3658.79 5099.38 3658.17 5099.08 3657.54Z"
        fill="#2D4159"/>
</svg>