<svg
    width="7773"
    height="7615"
    viewBox="0 0 7773 7615"
    fill="none"
    xmlns="http://www.w3.org/2000/svg">
    <path id="LU"
        d="M2862.49 4804.93C2862.38 4804.89 2862.25 4804.85 2862.12 4804.82C2861.7 4804.65 2861.28 4804.47 2860.87 4804.26C2854.58 4800.99 2848.37 4797.61 2841.88 4794.82C2838.61 4793.42 2835.28 4792.13 2831.88 4790.97C2829.31 4790.05 2826.68 4789.25 2824.09 4788.36C2823.3 4788.07 2822.53 4787.76 2821.77 4787.41C2821.64 4787.06 2821.53 4786.71 2821.41 4786.38C2819.7 4780.4 2818.45 4774.27 2816.98 4768.22C2815.8 4763.38 2814.62 4758.55 2812.99 4753.82C2811.33 4749.04 2809.36 4744.38 2807.32 4739.74C2807.47 4740.13 2807.66 4740.5 2807.82 4740.88C2807.03 4739.06 2806.22 4737.23 2805.41 4735.41C2805.41 4735.41 2805.41 4735.42 2805.43 4735.42C2805.43 4735.41 2805.43 4735.41 2805.41 4735.41C2804.79 4733.95 2804.2 4732.48 2803.68 4730.99C2803.54 4730.35 2803.39 4729.69 2803.26 4729.01C2803.19 4728.48 2803.13 4727.92 2803.1 4727.41C2803.12 4726.49 2803.15 4725.59 2803.23 4724.69C2803.3 4724.05 2803.41 4723.44 2803.52 4722.83C2803.72 4722.06 2803.96 4721.29 2804.22 4720.53C2804.57 4719.71 2804.99 4718.9 2805.39 4718.09C2807.58 4714.14 2810.28 4710.39 2812.03 4706.21C2813.91 4701.86 2814.84 4697.23 2815.5 4692.56C2816.63 4684.67 2817.49 4676.75 2819.16 4668.97C2819.51 4667.47 2819.97 4665.98 2820.47 4664.49C2820.67 4664.08 2820.84 4663.66 2821.06 4663.22C2821.2 4662.96 2821.39 4662.69 2821.57 4662.43C2821.9 4662.01 2822.25 4661.56 2822.62 4661.16C2823.54 4660.26 2824.47 4659.4 2825.43 4658.55C2826.74 4657.54 2828.06 4656.62 2829.46 4655.76C2831.39 4654.6 2833.41 4653.57 2835.47 4652.63C2840.72 4650.48 2846.15 4648.73 2851.61 4647.14C2851.31 4647.23 2851 4647.32 2850.71 4647.41C2851.09 4647.3 2851.48 4647.19 2851.88 4647.08C2851.96 4648.33 2852.07 4649.56 2852.16 4650.79C2852.65 4657.52 2852.97 4664.25 2853.11 4670.99C2853.11 4670.59 2853.1 4670.17 2853.1 4669.74C2853.17 4674.45 2853 4679.16 2852.95 4683.86C2852.93 4687.02 2852.95 4690.22 2853.19 4693.38C2853.52 4697.52 2853.92 4701.78 2855.23 4705.76C2856.66 4710.11 2858.83 4714.28 2862.01 4717.65C2864.25 4719.98 2866.61 4722.23 2869.07 4724.34C2873.35 4728.03 2878 4731.25 2882.54 4734.62C2884.51 4736.14 2886.44 4737.68 2888.24 4739.41C2888.96 4740.15 2889.64 4740.92 2890.28 4741.73C2890.67 4742.3 2891.04 4742.85 2891.4 4743.42C2891.51 4743.66 2891.64 4743.88 2891.75 4744.1C2891.81 4744.25 2891.85 4744.38 2891.9 4744.52C2891.99 4745 2892.08 4745.48 2892.16 4745.96C2892.18 4746.1 2892.19 4746.27 2892.19 4746.42C2892.16 4747.02 2892.12 4747.63 2892.03 4748.24C2892.01 4748.38 2891.99 4748.53 2891.96 4748.68C2891.92 4748.84 2891.88 4749.01 2891.85 4749.17C2891.16 4752.28 2890.04 4755.28 2888.9 4758.24C2888.26 4759.93 2887.6 4761.6 2886.96 4763.27V4763.25C2883.83 4771.45 2880.54 4779.83 2881.24 4788.79C2881.4 4790.81 2881.9 4792.7 2882.65 4794.5C2880.89 4795.68 2879.12 4796.84 2877.32 4797.96C2877.27 4797.98 2877.23 4798.01 2877.19 4798.03C2877.12 4798.07 2877.07 4798.12 2876.99 4798.16C2876.94 4798.2 2876.88 4798.23 2876.83 4798.27C2876.9 4798.22 2876.96 4798.2 2877.01 4798.14C2873.87 4800.13 2870.61 4801.93 2867.23 4803.53C2867.18 4803.57 2867.14 4803.57 2867.1 4803.6C2866.18 4803.99 2865.26 4804.36 2864.33 4804.65C2864 4804.74 2863.68 4804.83 2863.37 4804.89C2863.24 4804.91 2863.08 4804.93 2862.91 4804.94C2862.8 4804.93 2862.71 4804.93 2862.58 4804.94C2862.58 4804.93 2862.54 4804.93 2862.49 4804.93Z"
        fill="#2D4159"/>
</svg>