<svg
    width="7773"
    height="7615"
    viewBox="0 0 7773 7615"
    fill="none"
    xmlns="http://www.w3.org/2000/svg">
    <path
        id="LV"
        d="M4692.58 3250.84C4692.01 3250.64 4691.48 3250.43 4690.93 3250.21C4689.99 3249.77 4689.09 3249.29 4688.17 3248.78C4688.04 3248.69 4687.9 3248.6 4687.77 3248.52C4688.08 3248.17 4688.41 3247.82 4688.74 3247.46C4691.87 3244.13 4695.12 3240.97 4698.21 3237.68C4698.36 3237.51 4698.47 3237.35 4698.61 3237.2C4698.28 3232.79 4697.71 3228.38 4697.22 3224C4696.74 3219.48 4696.17 3214.97 4695.4 3210.49C4694.83 3207.93 4694.16 3205.45 4693.41 3202.95C4690.65 3195.55 4687.2 3188.45 4684.31 3181.08C4681.46 3173.76 4679.37 3166.17 4676.11 3159.02C4674.04 3154.98 4671.65 3151.08 4669.92 3146.87C4667.07 3139.87 4666.94 3132.46 4667.84 3125.09C4668.48 3119.81 4670.23 3114.63 4671.74 3109.59C4672.84 3105.9 4673.93 3102.22 4674.81 3098.51C4675.52 3094.59 4675.65 3090.46 4677.42 3086.83C4680.84 3079.85 4688.37 3076.39 4694.75 3072.57C4696.83 3071.17 4698.81 3069.74 4700.74 3068.19C4701.41 3067.59 4702.07 3067 4702.69 3066.39C4702.38 3066.76 4702.07 3067.09 4701.72 3067.46C4702.05 3067.11 4702.38 3066.78 4702.69 3066.39C4702.71 3066.37 4702.71 3066.37 4702.73 3066.36C4703.01 3066.01 4703.3 3065.68 4703.58 3065.31C4703.91 3064.78 4704.22 3064.22 4704.51 3063.67C4704.53 3063.62 4704.57 3063.56 4704.57 3063.51C4704.46 3063.75 4704.33 3063.97 4704.2 3064.22C4704.44 3063.67 4704.68 3063.1 4704.9 3062.55C4705.08 3061.98 4705.23 3061.43 4705.38 3060.86C4705.49 3060.27 4705.56 3059.7 4705.65 3059.11C4705.69 3058.16 4705.71 3057.22 4705.69 3056.26C4705.65 3055.77 4705.58 3055.25 4705.51 3054.74C4704.04 3047.96 4701.81 3041.34 4700.08 3034.59C4698.7 3029.11 4697.68 3023.51 4695.98 3018.14C4694.92 3014.94 4693.92 3011.85 4694.46 3008.4C4694.94 3005.2 4695.95 3002.13 4697.23 2999.19C4699.94 2992.99 4702.64 2986.8 4705.05 2980.48C4707.29 2974.01 4709.09 2967.41 4711.46 2960.95C4714 2954.02 4717.36 2947.35 4721.87 2941.47C4728.21 2933.2 4737.01 2926.97 4747.36 2924.91C4751.42 2924.1 4755.47 2923.49 4759.62 2923.38C4763.1 2923.29 4766.55 2923.29 4770.01 2923.16C4772.27 2922.98 4774.51 2922.74 4776.75 2922.39C4777.99 2922.15 4779.2 2921.86 4780.41 2921.51C4780.45 2921.49 4780.5 2921.47 4780.58 2921.45C4780.61 2921.41 4780.69 2921.4 4780.74 2921.36C4780.87 2921.27 4781 2921.18 4781.13 2921.06C4781.63 2920.62 4782.07 2920.15 4782.54 2919.67C4786.35 2915.16 4789.68 2910.29 4793.68 2905.96C4796.42 2902.94 4800.04 2900.16 4803.81 2898.51C4806.24 2897.46 4808.7 2896.71 4811.26 2896.19C4815.39 2895.37 4819.49 2895.53 4823.61 2896.25C4828.59 2897.11 4833.11 2899.41 4837.51 2901.8C4840.69 2903.57 4843.81 2905.86 4846.59 2908.22C4852.51 2913.22 4857.76 2918.9 4863.35 2924.28C4865.87 2926.45 4868.41 2928.53 4871.07 2930.51C4876.94 2934.52 4882.97 2938.27 4888.92 2942.15C4895.26 2946.27 4901.49 2950.55 4907.67 2954.85C4907.58 2954.8 4907.49 2954.74 4907.4 2954.7C4917.49 2961.74 4927.87 2969.04 4935.63 2978.71C4938.39 2982.17 4940.81 2986.41 4942.03 2990.66C4943 2994.04 4943.48 2997.35 4943.52 3000.88C4943.53 3003.73 4943.07 3006.65 4942.45 3009.43C4941.25 3014.89 4939.44 3020.14 4937.95 3025.53C4937.95 3025.6 4937.93 3025.68 4937.91 3025.73C4937.93 3025.77 4937.93 3025.77 4937.93 3025.79C4937.96 3025.82 4938.02 3025.88 4938.04 3025.92C4938.09 3026.01 4938.17 3026.08 4938.24 3026.15C4938.46 3026.32 4938.66 3026.5 4938.9 3026.67C4939.34 3026.95 4939.8 3027.22 4940.24 3027.46C4940.78 3027.68 4941.27 3027.88 4941.81 3028.12C4942.39 3028.32 4943 3028.49 4943.59 3028.65C4944.93 3028.86 4946.24 3029.04 4947.58 3029.19C4950 3029.3 4952.39 3029.32 4954.84 3029.22C4955.13 3029.21 4955.43 3029.19 4955.68 3029.17C4959.4 3028.84 4963.06 3028.4 4966.75 3027.81C4971.33 3026.87 4975.81 3025.7 4980.28 3024.32C4985.35 3022.53 4990.35 3020.55 4995.26 3018.31C4996.64 3017.59 4997.98 3016.84 4999.31 3016.04C5000.7 3015.11 5002.03 3014.1 5003.33 3013.07C5005.11 3011.52 5006.79 3009.91 5008.44 3008.25C5009.47 3007.06 5010.44 3005.86 5011.44 3004.63C5012.38 3003.25 5013.24 3001.87 5014.07 3000.4C5014.4 2999.68 5014.71 2998.93 5015 2998.2C5015.19 2997.59 5015.37 2996.96 5015.52 2996.32C5015.65 2995.66 5015.76 2995.02 5015.81 2994.34C5015.83 2993.25 5015.83 2992.18 5015.79 2991.1C5015.3 2986.39 5014.14 2981.78 5013.66 2977.08C5013.4 2974.3 5013.18 2971.54 5013.26 2968.75C5013.35 2965.79 5013.72 2962.88 5014.25 2959.94C5015.3 2954.17 5017.58 2948.64 5020.43 2943.53C5022.72 2939.39 5025.46 2935.49 5027.76 2931.38C5028.51 2929.76 5029.21 2928.12 5029.86 2926.47C5030.54 2924.39 5031.16 2922.3 5031.73 2920.16C5032.15 2918.07 5032.47 2915.99 5032.74 2913.86C5032.83 2911.75 5032.89 2909.63 5032.85 2907.52C5032.52 2903.79 5031.97 2900.11 5031.33 2896.43C5030.55 2892.52 5029.75 2888.6 5028.68 2884.74C5028.37 2883.84 5028.04 2882.98 5027.67 2882.1C5027.26 2881.34 5026.84 2880.59 5026.42 2879.83C5025.65 2878.75 5024.86 2877.67 5024.03 2876.62C5022.87 2875.39 5021.71 2874.19 5020.52 2873.01C5017.49 2870.33 5014.32 2867.83 5011.35 2865.09C5008.13 2862.13 5005.13 2858.75 5003.39 2854.69C5001.31 2849.91 5000.43 2845.09 5000.63 2839.89C5000.76 2836.64 5001.35 2833.46 5002.15 2830.33C5006.16 2829.5 5010.11 2828.42 5013.94 2827.06C5019.4 2825.07 5024.73 2822.81 5029.95 2820.29C5035.24 2817.76 5040.33 2814.82 5045.37 2811.78C5049.82 2809.1 5054.38 2806.53 5058.5 2803.35C5066.69 2797 5073.83 2789.52 5081.47 2782.57C5082.37 2781.8 5083.29 2781.05 5084.27 2780.35C5085.35 2779.62 5086.49 2778.99 5087.63 2778.35C5089.06 2777.63 5090.53 2777.01 5092.02 2776.42C5092.41 2776.31 5092.78 2776.2 5093.16 2776.09C5093.49 2776.05 5093.83 2775.99 5094.16 2775.94C5094.91 2775.92 5095.66 2775.88 5096.42 2775.9C5096.78 2775.94 5097.17 2775.99 5097.56 2776.05C5098.7 2776.31 5099.8 2776.62 5100.9 2777.01C5100.5 2776.88 5100.09 2776.73 5099.71 2776.6C5106.62 2778.9 5113.44 2781.55 5120.55 2783.22C5122.35 2783.64 5124.28 2784.21 5126.2 2784.39C5126.45 2784.43 5126.71 2784.49 5126.99 2784.54C5126.77 2784.49 5126.53 2784.45 5126.31 2784.43C5126.71 2784.51 5127.15 2784.6 5127.57 2784.67C5127.45 2784.63 5127.32 2784.62 5127.19 2784.58C5134.51 2785.92 5141.86 2786.69 5149.3 2787.04C5155.86 2787.35 5162.46 2787.37 5169.04 2787.61C5173.03 2787.87 5177.02 2788.22 5181.01 2788.9C5182.26 2789.19 5183.49 2789.5 5184.74 2789.85C5186.31 2790.39 5187.83 2790.99 5189.32 2791.66C5190.29 2792.19 5191.29 2792.74 5192.24 2793.29C5194.06 2794.54 5195.81 2795.85 5197.5 2797.24C5200.86 2800.24 5203.99 2803.44 5207.11 2806.73C5206.84 2806.42 5206.54 2806.12 5206.27 2805.83C5210.57 2810.42 5214.8 2815.11 5219.34 2819.47C5223.62 2823.59 5228.29 2827.28 5233.05 2830.79C5237.59 2834.15 5242.24 2837.43 5247.04 2840.37C5253.12 2844.1 5260.51 2847.33 5267.83 2846.42C5272.39 2845.81 5276.38 2843.24 5280.48 2841.32C5284.61 2839.49 5288.82 2837.81 5292.98 2836.07C5297.64 2834.04 5302.31 2832 5306.96 2829.91C5307.02 2829.87 5307.11 2829.84 5307.19 2829.8C5307.22 2829.78 5307.26 2829.78 5307.3 2829.76C5307.37 2829.71 5307.46 2829.67 5307.53 2829.63C5307.52 2829.65 5307.48 2829.65 5307.44 2829.67C5307.7 2829.54 5307.98 2829.41 5308.25 2829.28C5308.34 2829.25 5308.45 2829.19 5308.56 2829.15C5308.56 2829.15 5308.56 2829.16 5308.55 2829.17C5308.58 2829.14 5308.62 2829.12 5308.69 2829.1C5308.89 2829.01 5309.13 2828.9 5309.35 2828.81C5309.32 2828.82 5309.28 2828.82 5309.23 2828.84C5309.3 2828.81 5309.35 2828.81 5309.39 2828.77C5309.39 2828.79 5309.37 2828.79 5309.35 2828.81C5315.07 2826.21 5320.77 2823.59 5326.47 2821.01C5326.12 2821.18 5325.75 2821.32 5325.4 2821.49C5325.97 2821.23 5326.49 2820.99 5327.04 2820.75C5327 2820.77 5326.98 2820.79 5326.93 2820.81C5327.22 2820.68 5327.52 2820.55 5327.79 2820.42C5327.85 2820.39 5327.88 2820.39 5327.92 2820.37C5327.94 2820.35 5327.94 2820.35 5327.94 2820.35C5327.96 2820.33 5327.98 2820.33 5327.98 2820.33C5328.16 2820.24 5328.31 2820.17 5328.47 2820.09C5328.45 2820.11 5328.45 2820.11 5328.44 2820.13C5328.51 2820.07 5328.6 2820.06 5328.69 2820H5328.71C5328.75 2819.98 5328.78 2819.96 5328.82 2819.95C5328.95 2819.91 5329.04 2819.85 5329.15 2819.82C5335.86 2816.88 5342.66 2814.12 5349.5 2811.49C5356.01 2808.97 5362.55 2806.36 5369.26 2804.3C5368.97 2804.39 5368.65 2804.49 5368.36 2804.56C5369.52 2804.21 5370.66 2803.88 5371.8 2803.51C5371.94 2803.71 5372.09 2803.88 5372.24 2804.08C5378.69 2811.78 5387.33 2817.3 5395.6 2822.81C5400.2 2825.88 5404.72 2829.01 5408.97 2832.5C5411.3 2834.54 5413.56 2836.65 5415.71 2838.88C5417.46 2840.75 5419.11 2842.7 5420.68 2844.76C5421.91 2846.51 5423.05 2848.33 5424.11 2850.17C5424.54 2850.97 5424.92 2851.8 5425.29 2852.63C5425.66 2853.64 5425.97 2854.67 5426.26 2855.7C5427.05 2859.3 5427.61 2862.92 5428.05 2866.58C5428.84 2873.66 5429.24 2880.7 5429.33 2887.83C5429.35 2887.76 5429.33 2887.68 5429.35 2887.61C5429.33 2897.19 5428.75 2906.75 5429.08 2916.3C5429.39 2924.45 5431.7 2932.11 5436.15 2938.93C5439.81 2944.54 5445.01 2949.34 5450.66 2952.96C5453.43 2954.74 5456.41 2956.34 5459.5 2957.52C5463.76 2959.15 5468.1 2960.26 5472.53 2961.27C5473.41 2961.49 5474.31 2961.74 5475.2 2962.02C5475.25 2962.06 5475.31 2962.08 5475.34 2962.09C5475.42 2962.13 5475.47 2962.15 5475.51 2962.2C5475.64 2962.3 5475.75 2962.39 5475.88 2962.48C5476.56 2963.12 5477.2 2963.77 5477.84 2964.45C5478.85 2965.66 5479.81 2966.91 5480.73 2968.18C5486.01 2976.01 5490.53 2984.35 5495.18 2992.57C5499.92 3000.92 5504.79 3009.17 5509.39 3017.61C5509.41 3017.61 5509.41 3017.61 5509.42 3017.63C5509.44 3017.63 5509.44 3017.64 5509.44 3017.66C5509.46 3017.68 5509.48 3017.7 5509.5 3017.72C5509.5 3017.74 5509.52 3017.74 5509.52 3017.75C5509.5 3017.75 5509.5 3017.75 5509.5 3017.75C5509.52 3017.75 5509.52 3017.75 5509.52 3017.75C5509.53 3017.77 5509.55 3017.81 5509.57 3017.83C5512.33 3022.97 5515.01 3028.2 5517.11 3033.65C5517.81 3035.64 5518.38 3037.64 5518.89 3039.68C5520.38 3046.96 5520.44 3054.5 5522.16 3061.74C5523.03 3065.29 5524.11 3068.8 5525.55 3072.16C5523.28 3073.62 5521.08 3075.2 5518.93 3076.82C5512.64 3081.48 5506.34 3086.14 5500.21 3090.95C5496.83 3093.6 5493.4 3096.36 5491.02 3099.96C5487.9 3104.74 5486.3 3110.16 5485.62 3115.77C5485.07 3120.16 5484.98 3124.57 5484.94 3128.98C5484.92 3132.55 5484.96 3136.13 5484.55 3139.66C5484.52 3139.94 5484.46 3140.23 5484.41 3140.51C5484.41 3140.55 5484.37 3140.58 5484.37 3140.6C5484.37 3140.62 5484.35 3140.64 5484.35 3140.66C5484.35 3140.67 5484.33 3140.69 5484.33 3140.69C5484.13 3140.93 5483.91 3141.17 5483.71 3141.41C5483.06 3141.85 5482.42 3142.27 5481.74 3142.7C5478.69 3144.41 5475.53 3145.91 5472.29 3147.29C5472.68 3147.15 5473.06 3146.96 5473.45 3146.81C5464.63 3150.56 5455.47 3153.78 5446.25 3156.48C5445.62 3156.67 5444.98 3156.85 5444.35 3157.03C5444.76 3156.92 5445.16 3156.8 5445.58 3156.67C5443.19 3157.33 5440.8 3157.94 5438.4 3158.38C5436.02 3158.82 5433.75 3159.22 5431.43 3159.9C5425 3161.83 5420.38 3167.09 5416.1 3171.98C5412.5 3176.1 5409.06 3180.38 5405.77 3184.77C5403.12 3188.28 5400.62 3191.91 5397.83 3195.31C5396.85 3196.46 5395.8 3197.59 5394.7 3198.63C5393.05 3200.1 5391.28 3201.46 5389.48 3202.77C5387.44 3204.18 5385.38 3205.49 5383.27 3206.74C5379.08 3209.13 5374.74 3211.35 5370.31 3213.23C5369.45 3213.56 5368.58 3213.89 5367.7 3214.18C5364.48 3213.06 5361.19 3212.13 5357.86 3211.22C5357.94 3211.24 5357.99 3211.26 5358.05 3211.28C5355.6 3210.6 5353.16 3209.9 5350.77 3208.95C5350 3208.6 5349.21 3208.19 5348.45 3207.79C5347.94 3207.46 5347.46 3207.13 5346.98 3206.76C5346.03 3205.95 5345.09 3205.1 5344.19 3204.24C5344.11 3204.15 5344.02 3204.07 5343.95 3204.02C5340.36 3200.34 5336.96 3196.45 5333.64 3192.53C5328.99 3187.03 5324.45 3181.3 5318.88 3176.69C5315.55 3173.93 5312.11 3171.32 5308.21 3169.42C5304.59 3167.7 5300.66 3166.37 5296.73 3165.51C5292.39 3164.55 5287.94 3164 5283.53 3163.43C5281.08 3163.14 5278.6 3162.83 5276.16 3162.46C5269.43 3161.41 5262.72 3160.21 5256.1 3158.6C5251.3 3157.26 5246.64 3155.62 5242 3153.78C5232.87 3149.96 5223.95 3145.36 5214.34 3142.95C5204.32 3140.42 5194.15 3142.11 5183.99 3142.46C5183.9 3142.46 5183.79 3142.46 5183.69 3142.46C5183.73 3142.46 5183.75 3142.46 5183.79 3142.46C5183.73 3142.46 5183.68 3142.46 5183.62 3142.46C5182.56 3142.46 5181.51 3142.46 5180.46 3142.4C5179.61 3142.26 5178.79 3142.07 5177.96 3141.91C5177.02 3141.63 5176.1 3141.34 5175.18 3141.04C5173.82 3140.45 5172.5 3139.83 5171.2 3139.13C5170.26 3138.58 5169.34 3137.99 5168.46 3137.37C5168.16 3137.11 5167.9 3136.87 5167.61 3136.61C5167.21 3136.19 5166.82 3135.75 5166.45 3135.29C5165.75 3134.39 5165.09 3133.43 5164.45 3132.48C5164.06 3131.78 5163.71 3131.08 5163.4 3130.36C5163.49 3130.6 5163.62 3130.86 5163.71 3131.1C5163.59 3130.84 5163.49 3130.6 5163.38 3130.36H5163.4C5163.38 3130.36 5163.38 3130.38 5163.38 3130.36C5163.33 3130.22 5163.27 3130.09 5163.22 3129.94C5163.27 3130.07 5163.33 3130.2 5163.38 3130.33C5161.36 3125.58 5159.87 3120.64 5157.63 3116.01C5155.79 3112.26 5153.42 3108.71 5150.31 3105.9C5147.52 3103.36 5144.1 3101.59 5140.31 3101.21C5136.73 3100.88 5133.18 3101.82 5130.22 3103.84C5127.43 3105.75 5125.17 3108.19 5123.07 3110.8C5120.99 3113.4 5118.92 3116.02 5116.77 3118.54C5112.26 3123.78 5107.45 3128.8 5103.15 3134.22C5100.74 3137.2 5098.44 3140.29 5096.42 3143.52C5094.54 3146.54 5092.81 3149.65 5091.1 3152.77C5090.77 3153.38 5090.41 3153.98 5090.02 3154.55C5089.86 3154.74 5089.69 3154.94 5089.51 3155.12C5089.36 3155.29 5089.17 3155.44 5088.99 3155.6C5088.79 3155.73 5088.62 3155.84 5088.46 3155.97C5088.24 3156.1 5088 3156.19 5087.78 3156.3C5087.78 3156.3 5087.76 3156.32 5087.74 3156.32C5087.3 3156.37 5086.84 3156.39 5086.4 3156.43C5081.6 3156.46 5076.84 3156.12 5072.1 3155.78C5066.68 3155.42 5061.23 3154.98 5055.79 3154.55C5040.87 3153.38 5025.87 3152.49 5010.92 3153.25C5003.46 3153.63 4995.98 3154.72 4988.72 3156.41C4984.99 3157.29 4981.27 3158.28 4977.65 3159.55C4976.07 3160.09 4974.58 3160.8 4973.02 3161.34C4972.45 3161.46 4971.9 3161.58 4971.33 3161.69C4969.93 3161.87 4968.53 3161.94 4967.12 3162C4963.68 3162 4960.24 3161.76 4956.82 3161.39C4956.71 3161.37 4956.62 3161.37 4956.51 3161.37C4956.48 3161.37 4956.44 3161.37 4956.42 3161.35C4953.28 3160.91 4950.15 3160.38 4947.05 3159.64C4940.56 3157.92 4934.27 3155.58 4927.95 3153.43C4924.53 3152.27 4921.09 3151.17 4917.58 3150.34C4913.46 3149.35 4909.2 3148.91 4904.97 3149.02C4897.47 3149.19 4890.13 3151.28 4882.91 3153.23C4875.17 3155.31 4867.47 3157.59 4859.86 3160.09C4852.91 3162.37 4846.07 3164.94 4839.27 3167.59C4832.8 3170.1 4826.39 3172.7 4819.77 3174.85C4819.66 3174.88 4819.55 3174.92 4819.44 3174.96C4815.93 3175.95 4812.42 3176.8 4808.83 3177.42C4806.96 3177.62 4805.08 3177.73 4803.19 3177.77C4798.35 3177.62 4793.46 3177 4788.63 3177.51C4785.67 3177.81 4782.4 3178.52 4779.92 3180.27C4777.73 3181.8 4775.76 3183.6 4774.33 3185.88C4772.91 3188.14 4771.72 3190.49 4770.58 3192.9C4767.03 3200.38 4763.78 3208.06 4759.66 3215.23C4758.87 3216.5 4757.97 3217.73 4757.07 3218.95C4756.17 3219.97 4755.25 3220.97 4754.27 3221.92C4751.24 3224.7 4747.99 3227.18 4744.7 3229.61C4744.77 3229.55 4744.86 3229.5 4744.94 3229.44C4744.92 3229.46 4744.88 3229.48 4744.84 3229.5C4744.9 3229.46 4744.95 3229.4 4745.01 3229.37C4744.92 3229.44 4744.81 3229.52 4744.71 3229.59C4738.48 3234.13 4732.07 3238.45 4725.4 3242.25C4720.4 3245.01 4715.32 3247.64 4710.06 3249.9C4708.85 3250.36 4707.6 3250.78 4706.37 3251.15C4705.4 3251.33 4704.44 3251.5 4703.45 3251.65C4702.53 3251.7 4701.63 3251.72 4700.73 3251.74C4698.7 3251.67 4696.68 3251.56 4694.66 3251.33C4693.89 3251.15 4693.23 3250.99 4692.58 3250.84Z"
        fill="#2D4159"/>
</svg>