<svg
    width="7773"
    height="7615"
    viewBox="0 0 7773 7615"
    fill="none"
    xmlns="http://www.w3.org/2000/svg">
    <path
        id="MD"
        d="M6177 5239.37C6177.31 5239.62 6177.63 5239.9 6177.96 5240.17C6175.15 5237.71 6172.46 5235.12 6169.96 5232.34C6168.91 5231.09 6167.9 5229.83 6166.97 5228.5C6164.85 5225.16 6163.11 5221.63 6161.41 5218.06C6157.66 5209.7 6154.85 5200.95 6152.22 5192.16C6149.69 5183.59 6147.41 5174.94 6145.39 5166.26C6145.4 5166.39 6145.42 5166.48 6145.46 5166.59C6145.42 5166.44 6145.4 5166.32 6145.37 5166.17C6145.31 5165.97 6145.28 5165.78 6145.22 5165.58C6145.22 5165.56 6145.22 5165.53 6145.2 5165.47C6145.2 5165.43 6145.18 5165.42 6145.2 5165.4C6141.23 5148.28 6138.6 5130.89 6137.35 5113.38C6137.35 5113.39 6137.35 5113.41 6137.33 5113.45C6137.33 5113.39 6137.33 5113.34 6137.33 5113.28C6137.33 5113.3 6137.33 5113.3 6137.33 5113.32C6137.33 5113.16 6137.33 5112.99 6137.3 5112.84C6137.3 5112.81 6137.3 5112.75 6137.28 5112.7C6137.3 5112.73 6137.28 5112.79 6137.3 5112.84C6137.32 5112.92 6137.3 5112.99 6137.32 5113.08C6137.3 5112.81 6137.28 5112.53 6137.26 5112.27C6137.28 5112.4 6137.28 5112.57 6137.3 5112.71C6136.93 5106.45 6136.64 5100.2 6136.21 5093.93C6135.85 5088.32 6135.44 5082.7 6134.36 5077.18C6133.29 5071.85 6131.6 5066.72 6129.12 5061.89C6127.9 5059.52 6126.56 5057.22 6125.18 5054.96C6123.16 5051.65 6121.31 5048.25 6119.56 5044.77C6111.82 5028.41 6105.81 5011.26 6098.46 4994.76C6095.29 4987.61 6091.73 4980.62 6087.63 4973.97C6083.18 4966.69 6077.68 4960.18 6071.36 4954.48C6058.93 4943.21 6044.51 4934.67 6030.28 4925.93C6016.1 4917.2 6002.15 4908.14 5988.44 4898.71C5988.79 4898.95 5989.14 4899.19 5989.51 4899.46C5983.79 4895.46 5978.09 4891.38 5972.65 4886.98C5966.95 4882.35 5961.38 4877.53 5955.92 4872.63C5955.81 4872.52 5955.7 4872.42 5955.61 4872.31C5955.65 4872.35 5955.68 4872.39 5955.72 4872.42C5955.66 4872.37 5955.61 4872.31 5955.55 4872.26C5955.55 4872.26 5955.55 4872.24 5955.54 4872.24L5955.55 4872.26C5955.52 4872.22 5955.48 4872.2 5955.46 4872.19C5948.73 4865.86 5942.41 4859.24 5936.51 4852.13C5932.93 4847.65 5929.54 4843 5926.35 4838.25C5923.72 4834.3 5921.18 4830.27 5918.51 4826.34C5915.98 4822.63 5913.33 4818.86 5910.19 4815.61C5906.77 4812.06 5903.09 4808.9 5899.16 4805.95C5892.58 4801.03 5885.32 4797.06 5877.38 4794.74C5870.61 4792.76 5863.72 4791.82 5856.73 4790.99C5857.16 4791.03 5857.58 4791.1 5858 4791.14C5857.23 4791.05 5856.46 4790.96 5855.68 4790.85C5856.11 4790.9 5856.51 4790.96 5856.93 4791.01C5853.02 4790.51 5849.1 4790 5845.26 4788.99C5843.94 4788.58 5842.65 4788.11 5841.38 4787.57C5840.12 4786.98 5838.9 4786.32 5837.69 4785.59C5836.66 4784.89 5835.67 4784.14 5834.71 4783.36C5833.7 4782.46 5832.73 4781.54 5831.84 4780.55C5831.13 4779.71 5830.45 4778.84 5829.82 4777.92C5829.22 4776.99 5828.66 4776.01 5828.13 4775.02C5824.66 4767.79 5823.11 4759.72 5818.37 4753.13C5816.75 4750.83 5814.8 4748.66 5812.58 4746.93C5810.21 4745.09 5807.62 4743.71 5804.75 4742.76C5804.49 4742.67 5804.23 4742.59 5803.98 4742.52C5804.33 4742 5804.68 4741.49 5805.02 4740.97C5808.13 4736.51 5811.16 4731.97 5814.77 4727.89C5815.08 4727.56 5815.39 4727.24 5815.72 4726.95C5815.85 4726.86 5816 4726.78 5816.13 4726.69C5816.49 4726.47 5816.88 4726.27 5817.25 4726.07C5817.32 4726.07 5817.4 4726.03 5817.45 4725.99C5817.97 4725.87 5818.48 4725.74 5819.01 4725.63C5823.63 4725 5828.31 4724.85 5832.95 4724.49C5837.27 4724.16 5841.57 4723.79 5845.85 4723.18C5851.05 4722.43 5856.29 4721.32 5861.2 4719.41C5866.35 4717.43 5870.92 4714.38 5875.37 4711.18C5875.28 4711.25 5875.19 4711.32 5875.08 4711.38C5875.32 4711.23 5875.52 4711.07 5875.74 4710.9C5875.74 4710.9 5875.74 4710.88 5875.76 4710.88C5875.78 4710.88 5875.78 4710.88 5875.78 4710.87C5875.91 4710.79 5876 4710.72 5876.09 4710.64C5876.03 4710.7 5875.96 4710.74 5875.89 4710.79C5879.8 4707.89 5883.42 4704.63 5887.19 4701.55C5891.16 4698.31 5895.34 4695.35 5899.6 4692.56C5899.25 4692.78 5898.9 4693.02 5898.53 4693.24C5899.34 4692.7 5900.13 4692.21 5900.92 4691.67C5900.74 4691.82 5900.52 4691.97 5900.3 4692.1C5905.28 4688.88 5910.35 4685.87 5915.68 4683.29C5915.78 4683.24 5915.89 4683.2 5915.98 4683.14C5918.06 4682.21 5920.19 4681.34 5922.32 4680.61C5924.36 4680 5926.4 4679.49 5928.48 4679.12C5931.24 4678.7 5933.99 4678.49 5936.77 4678.4C5939.34 4678.35 5941.92 4678.37 5944.47 4678.62C5946.09 4678.83 5947.65 4679.08 5949.23 4679.47C5950.39 4679.82 5951.55 4680.2 5952.69 4680.66C5954.01 4681.29 5955.3 4681.95 5956.57 4682.65C5957.71 4683.4 5958.85 4684.19 5959.93 4685.02C5968.39 4691.95 5975.98 4699.76 5984.06 4707.1C5988.72 4711.25 5993.57 4715.28 5999.1 4718.16C6001.86 4719.6 6004.74 4720.77 6007.78 4721.56C6010.33 4722.22 6013 4722.92 6015.65 4723.13C6029.51 4724.21 6043.31 4720.37 6056.66 4717.1C6068.35 4714.23 6079.95 4710.68 6091.84 4708.77C6093.64 4708.51 6095.44 4708.31 6097.26 4708.22C6100.04 4708.2 6102.81 4708.35 6105.59 4708.62C6107.06 4708.81 6108.53 4709.05 6109.96 4709.36C6111.4 4709.74 6112.79 4710.17 6114.17 4710.68C6115.59 4711.27 6116.97 4711.95 6118.33 4712.67C6120.11 4713.7 6121.88 4714.84 6123.62 4715.9C6126.05 4717.37 6128.51 4718.73 6131.03 4720C6135.55 4722.28 6140.39 4724.05 6145.2 4725.59C6149.69 4727.04 6154.19 4728.4 6158.75 4729.63C6162.92 4730.74 6167.15 4731.67 6171.21 4733.11C6171.58 4733.25 6171.91 4733.42 6172.28 4733.57C6172.39 4733.77 6172.48 4733.99 6172.59 4734.21C6172.63 4734.39 6172.66 4734.58 6172.7 4734.78C6172.74 4735.33 6172.77 4735.86 6172.81 4736.42C6172.79 4738.46 6172.65 4740.44 6172.43 4742.46C6172.39 4742.7 6172.37 4742.98 6172.33 4743.22C6171.73 4748.02 6170.84 4752.76 6170.02 4757.54C6168.99 4763.68 6168.09 4769.89 6168.38 4776.12C6168.55 4779.82 6169.37 4783.42 6170.37 4786.97C6171.32 4790.29 6172.55 4793.57 6174.23 4796.6C6176.16 4800.15 6178.73 4803.25 6181.25 4806.38C6183.29 4808.88 6185.48 4811.3 6187.77 4813.6C6192.44 4818.33 6197.3 4822.83 6202.06 4827.44C6201.98 4827.35 6201.93 4827.3 6201.85 4827.22C6201.97 4827.33 6202.08 4827.43 6202.19 4827.54C6202.28 4827.61 6202.35 4827.7 6202.42 4827.77C6202.5 4827.85 6202.55 4827.92 6202.61 4827.98C6202.54 4827.9 6202.48 4827.85 6202.42 4827.77C6208.1 4833.44 6213.44 4839.39 6219.13 4845.04C6219.12 4845.04 6219.12 4845.04 6219.1 4845.04C6219.28 4845.22 6219.46 4845.38 6219.63 4845.55C6219.76 4845.68 6219.91 4845.81 6220.03 4845.95C6219.94 4845.86 6219.85 4845.75 6219.76 4845.66C6222.41 4848.2 6225.15 4850.64 6227.81 4853.16C6228.86 4854.23 6229.87 4855.33 6230.83 4856.49C6231.41 4857.28 6232 4858.12 6232.52 4858.99C6233.2 4860.18 6233.77 4861.43 6234.34 4862.68C6236.47 4867.92 6238.32 4873.25 6240.51 4878.49C6240.46 4878.33 6240.38 4878.16 6240.33 4877.99C6241.34 4880.4 6242.41 4882.81 6243.89 4884.98C6245.6 4887.42 6247.64 4889.32 6250.35 4890.6C6253.69 4892.2 6257.81 4892.13 6261.32 4891.25C6268.16 4889.54 6274.43 4885.07 6278.89 4879.69C6282.53 4875.27 6285.66 4870.48 6288.69 4865.62C6291.25 4861.56 6293.65 4857.35 6296.47 4853.45C6296.69 4853.2 6296.89 4852.92 6297.11 4852.66C6297.28 4852.79 6297.44 4852.94 6297.59 4853.07C6297.85 4853.34 6298.07 4853.6 6298.31 4853.88C6298.6 4854.3 6298.89 4854.76 6299.17 4855.22C6300.36 4857.31 6301.39 4859.48 6302.37 4861.69C6302.44 4861.85 6302.51 4862.02 6302.59 4862.19C6302.59 4862.2 6302.61 4862.22 6302.62 4862.24C6303.51 4864.39 6304.28 4866.62 6304.94 4868.86C6304.96 4868.95 6305 4869.04 6305.01 4869.13C6305.01 4869.1 6305 4869.04 6304.98 4869.01C6305 4869.06 6305.01 4869.1 6305.01 4869.15C6307.18 4877.26 6308.58 4885.59 6311.8 4893.4C6315.05 4901.34 6319.32 4908.89 6323.67 4916.28C6323.65 4916.27 6323.65 4916.25 6323.65 4916.25C6323.65 4916.25 6323.67 4916.27 6323.67 4916.28C6323.87 4916.63 6324.08 4916.98 6324.3 4917.33C6324.19 4917.15 6324.08 4916.96 6323.97 4916.74C6326.8 4921.6 6329.68 4926.47 6332.97 4931.01C6337.15 4936.71 6341.74 4941.93 6346.82 4946.83C6351.17 4951.01 6355.82 4954.9 6360.66 4958.51C6371.12 4966.34 6382.62 4972.57 6394.04 4978.86C6393.97 4978.8 6393.87 4978.76 6393.8 4978.71C6398.06 4981.06 6402.33 4983.38 6406.56 4985.73C6406.19 4985.53 6405.8 4985.31 6405.44 4985.11C6407.79 4986.39 6410.12 4987.7 6412.38 4989.11C6411.69 4989.96 6410.97 4990.75 6410.21 4991.54C6408.17 4993.62 6406.06 4995.62 6403.93 4997.64C6401.83 4999.63 6399.7 5001.65 6397.46 5003.51C6397.09 5003.76 6396.72 5004.02 6396.35 5004.24C6396.06 5004.39 6395.8 5004.52 6395.51 5004.65C6394.99 5004.85 6394.5 5005 6393.98 5005.18C6393.1 5005.4 6392.22 5005.57 6391.32 5005.73C6389.42 5005.95 6387.53 5006.08 6385.62 5006.19C6380.88 5006.19 6376.15 5005.86 6371.41 5005.36C6371.39 5005.36 6371.36 5005.36 6371.34 5005.34C6371.32 5005.34 6371.3 5005.34 6371.26 5005.33C6371.28 5005.33 6371.32 5005.33 6371.34 5005.34C6371.1 5005.33 6370.84 5005.29 6370.58 5005.27C6370.8 5005.29 6371.04 5005.29 6371.26 5005.33C6363.69 5004.37 6356.13 5003.18 6348.58 5001.98C6342.05 5000.95 6335.55 4999.85 6328.98 4999.13C6322.18 4998.38 6315.35 4998.76 6308.62 4999.92C6302.26 5000.99 6295.99 5002.64 6289.74 5004.15C6283.6 5005.6 6277.46 5007.05 6271.23 5008.03C6271.43 5008.01 6271.61 5007.97 6271.8 5007.96C6271.45 5007.99 6271.1 5008.05 6270.73 5008.1C6270.75 5008.1 6270.77 5008.1 6270.79 5008.1H6270.81H6270.82C6270.95 5008.08 6271.08 5008.07 6271.23 5008.03C6271.1 5008.05 6270.95 5008.07 6270.82 5008.1C6270.82 5008.1 6270.81 5008.1 6270.79 5008.1C6270.77 5008.1 6270.73 5008.1 6270.71 5008.1C6270.7 5008.1 6270.7 5008.1 6270.68 5008.1C6270.71 5008.1 6270.75 5008.1 6270.79 5008.08C6270.77 5008.08 6270.71 5008.1 6270.68 5008.1C6270.55 5008.12 6270.44 5008.14 6270.31 5008.16C6270.25 5008.18 6270.2 5008.18 6270.14 5008.18C6270.13 5008.18 6270.09 5008.18 6270.07 5008.19C6270.03 5008.19 6270 5008.19 6269.96 5008.21C6260.24 5009.55 6250.46 5010.29 6240.75 5011.94C6238.16 5012.39 6235.59 5012.88 6233.05 5013.62C6230.29 5014.43 6227.74 5015.51 6225.55 5017.44C6222.61 5020.03 6220.81 5023.45 6219.89 5027.2C6218.78 5031.81 6219.54 5036.48 6220.48 5041.04C6221.03 5043.71 6221.74 5046.28 6222.59 5048.86C6222.57 5048.84 6222.57 5048.82 6222.57 5048.82C6222.57 5048.84 6222.57 5048.84 6222.59 5048.86C6222.59 5048.89 6222.61 5048.93 6222.63 5048.97C6222.64 5049.04 6222.66 5049.11 6222.7 5049.19C6222.74 5049.31 6222.77 5049.44 6222.81 5049.55C6222.81 5049.54 6222.81 5049.5 6222.81 5049.5C6222.77 5049.39 6222.74 5049.3 6222.7 5049.19C6222.68 5049.13 6222.66 5049.09 6222.65 5049.04C6222.7 5049.19 6222.76 5049.35 6222.79 5049.5C6224.72 5055.03 6227.52 5060.22 6230.48 5065.25C6233.14 5069.7 6236.05 5074 6238.62 5078.51C6239 5079.28 6239.39 5080.07 6239.74 5080.86C6240.27 5082.29 6240.81 5083.74 6241.25 5085.21C6241.38 5085.82 6241.51 5086.41 6241.6 5087C6241.65 5087.66 6241.71 5088.3 6241.74 5088.95C6241.71 5090.27 6241.63 5091.56 6241.52 5092.86C6241.28 5094.42 6241.03 5095.97 6240.71 5097.51C6240.38 5098.89 6240 5100.27 6239.57 5101.61C6238.91 5103.36 6238.2 5105.07 6237.42 5106.76C6235.95 5109.74 6234.35 5112.64 6232.61 5115.51C6232 5116.48 6231.39 5117.44 6230.71 5118.41C6227.39 5123.3 6223.71 5127.88 6220.73 5133.01C6217.15 5139.15 6214.34 5145.71 6212.02 5152.44C6210 5158.43 6208.75 5164.7 6208.31 5171C6207.92 5176.72 6207.92 5182.4 6208.03 5188.14C6208.03 5188.12 6208.03 5188.12 6208.03 5188.1C6208.03 5188.12 6208.03 5188.14 6208.03 5188.15C6208.03 5188.15 6208.03 5188.15 6208.03 5188.14C6208.05 5188.3 6208.03 5188.5 6208.05 5188.69C6208.05 5188.52 6208.03 5188.36 6208.05 5188.19C6208.05 5188.39 6208.05 5188.56 6208.07 5188.74C6208.07 5188.72 6208.07 5188.72 6208.07 5188.71C6208.07 5188.72 6208.07 5188.76 6208.07 5188.78C6208.07 5188.8 6208.07 5188.82 6208.07 5188.83C6208.07 5188.87 6208.07 5188.89 6208.07 5188.91C6208.07 5188.83 6208.07 5188.76 6208.07 5188.67C6208.07 5188.8 6208.07 5188.91 6208.07 5189.02C6208.07 5189.09 6208.07 5189.16 6208.07 5189.24C6208.07 5189.18 6208.07 5189.13 6208.07 5189.07C6208.07 5189.2 6208.07 5189.35 6208.07 5189.5C6208.07 5189.59 6208.07 5189.68 6208.07 5189.77C6208.07 5189.73 6208.07 5189.7 6208.07 5189.66C6208.16 5197.22 6208.07 5204.84 6207.31 5212.36C6206.98 5215.06 6206.52 5217.75 6205.95 5220.41C6205.46 5222.56 6204.89 5224.73 6204.17 5226.85C6203.77 5227.88 6203.33 5228.91 6202.85 5229.9C6202.3 5230.89 6201.73 5231.87 6201.05 5232.8C6199.5 5234.86 6197.76 5236.76 6196.03 5238.69C6196.32 5238.39 6196.6 5238.08 6196.89 5237.77C6194.47 5240.38 6192.02 5242.95 6189.59 5245.56C6189.65 5245.51 6189.7 5245.45 6189.76 5245.4C6189.65 5245.51 6189.52 5245.65 6189.41 5245.76C6189.54 5245.62 6189.69 5245.45 6189.81 5245.3C6189.81 5245.3 6189.8 5245.32 6189.8 5245.34C6189.78 5245.36 6189.76 5245.38 6189.74 5245.4C6189.76 5245.38 6189.76 5245.36 6189.8 5245.34C6189.8 5245.32 6189.81 5245.3 6189.83 5245.3C6189.85 5245.28 6189.85 5245.29 6189.87 5245.27C6189.02 5246.2 6188.11 5247.14 6187.24 5248.12C6183.88 5245.23 6180.42 5242.33 6177 5239.37Z"
        fill="#2D4159"/>
</svg>