<svg
    width="7773"
    height="7615"
    viewBox="0 0 7773 7615"
    fill="none"
    xmlns="http://www.w3.org/2000/svg">
    <path id="ME"
        d="M4934.8 6317.73C4929.45 6316.31 4924.31 6314.12 4919.29 6311.86C4913.04 6309.05 4906.92 6305.82 4901 6302.36C4895.92 6299.42 4890.98 6296.29 4886.18 6292.97C4881.55 6289.75 4877.23 6286.22 4873 6282.51C4870.41 6280.23 4867.91 6277.86 4865.47 6275.45C4863.09 6273.08 4860.69 6270.67 4858.61 6268.02C4855.02 6263.45 4851.99 6258.52 4848.98 6253.57C4848.33 6252.66 4847.69 6251.77 4847.01 6250.93C4846.66 6250.56 4846.31 6250.19 4845.96 6249.82C4844.9 6248.92 4843.81 6248.08 4842.71 6247.25C4841.04 6246.22 4839.33 6245.27 4837.58 6244.35C4835.3 6243.21 4833.02 6242.16 4830.63 6241.22C4828.17 6240.43 4825.65 6239.77 4823.13 6239.2C4819.64 6238.56 4816.15 6238.1 4812.6 6237.66C4808.9 6237.21 4805.25 6236.74 4801.7 6235.65C4797.05 6234.27 4792.86 6232.03 4788.63 6229.68C4787.07 6228.8 4785.5 6227.91 4783.94 6227.05C4783.19 6226.11 4782.4 6225.19 4781.61 6224.29C4782.08 6222.18 4782.43 6220.03 4782.82 6217.88C4783.08 6216.59 4783.41 6215.3 4783.78 6214.05C4784.47 6212.23 4785.3 6210.49 4786.15 6208.74C4788.19 6204.77 4790.36 6200.85 4792.38 6196.88C4792.38 6196.88 4792.36 6196.88 4792.36 6196.9C4792.36 6196.88 4792.38 6196.87 4792.38 6196.85C4792.38 6196.83 4792.4 6196.83 4792.42 6196.81C4792.42 6196.81 4792.42 6196.81 4792.42 6196.83C4792.42 6196.81 4792.43 6196.79 4792.45 6196.76C4792.45 6196.76 4792.47 6196.74 4792.47 6196.72C4792.58 6196.48 4792.71 6196.26 4792.8 6196.02C4792.82 6195.98 4792.86 6195.93 4792.87 6195.89C4792.87 6195.85 4792.91 6195.82 4792.91 6195.8C4792.91 6195.8 4792.91 6195.78 4792.93 6195.78C4793.9 6193.8 4794.84 6191.74 4795.58 6189.64C4796.53 6186.92 4797.27 6184.24 4797.87 6181.41C4798.89 6176.2 4799.27 6170.97 4799.44 6165.67C4799.44 6166.09 4799.4 6166.54 4799.4 6166.96C4799.62 6160.4 4799.53 6153.93 4798.13 6147.49L4798.15 6147.51C4798.13 6147.49 4798.13 6147.45 4798.11 6147.44C4798.1 6147.33 4798.08 6147.22 4798.04 6147.12C4798.06 6147.25 4798.08 6147.34 4798.11 6147.44C4796.96 6142.49 4795.1 6137.68 4791.83 6133.72C4790.37 6131.98 4788.87 6130.32 4787.23 6128.74C4785.89 6127.46 4784.58 6126.13 4783.37 6124.72C4782.97 6124.2 4782.58 6123.63 4782.23 6123.08C4781.74 6122.25 4781.31 6121.41 4780.91 6120.53C4780.65 6119.85 4780.38 6119.16 4780.15 6118.45C4779.97 6117.71 4779.81 6116.98 4779.69 6116.24C4779.62 6115.6 4779.58 6114.96 4779.53 6114.31C4779.55 6113.37 4779.62 6112.42 4779.71 6111.48C4780.01 6109.83 4780.39 6108.19 4780.87 6106.59C4781.83 6103.85 4783.06 6101.21 4784.36 6098.61C4784.38 6098.56 4784.4 6098.5 4784.42 6098.47C4784.42 6098.47 4784.42 6098.47 4784.42 6098.45C4784.82 6097.68 4785.23 6096.92 4785.61 6096.15C4785.39 6096.54 4785.21 6096.92 4785.01 6097.31C4787.8 6092 4790.56 6086.67 4792.87 6081.11C4792.71 6081.52 4792.53 6081.92 4792.36 6082.33C4794.55 6077.11 4796.4 6071.81 4798.08 6066.41C4799.31 6062.44 4800.65 6058.56 4802.45 6054.81C4803.65 6052.53 4805.01 6050.36 4806.5 6048.25C4806.55 6048.17 4806.59 6048.12 4806.64 6048.06C4806.66 6048.06 4806.66 6048.05 4806.66 6048.05C4806.66 6048.05 4806.66 6048.05 4806.64 6048.05C4806.66 6048.05 4806.66 6048.05 4806.66 6048.03V6048.01C4806.68 6048.01 4806.68 6047.99 4806.68 6047.99C4806.7 6047.95 4806.74 6047.9 4806.77 6047.84C4806.77 6047.82 4806.79 6047.82 4806.79 6047.82C4806.79 6047.82 4806.79 6047.86 4806.77 6047.84C4806.83 6047.79 4806.84 6047.73 4806.86 6047.7C4810.06 6043.5 4813.65 6039.64 4817.49 6036.04C4817.52 6036 4817.58 6035.99 4817.62 6035.93C4817.62 6035.91 4817.64 6035.91 4817.64 6035.89C4817.67 6035.86 4817.73 6035.8 4817.76 6035.78C4817.78 6035.75 4817.8 6035.73 4817.86 6035.69C4817.93 6035.64 4817.97 6035.6 4818.04 6035.55C4818.02 6035.55 4818.02 6035.56 4818 6035.58C4818.06 6035.53 4818.09 6035.49 4818.13 6035.45C4818.11 6035.47 4818.09 6035.49 4818.06 6035.53C4822.56 6031.46 4827.34 6027.73 4832.14 6024.04C4838.41 6019.15 4844.73 6014.31 4850.1 6008.43C4852.08 6006.12 4853.79 6003.67 4855.26 6001.01C4856.4 5998.84 4857.4 5996.63 4857.98 5994.24C4858.63 5991.67 4858.94 5989.09 4859.12 5986.47C4859.34 5983.27 4859.47 5980.09 4859.84 5976.91C4860.06 5975.44 4860.34 5974 4860.69 5972.55C4860.69 5972.51 4860.72 5972.48 4860.72 5972.44C4860.72 5972.42 4860.72 5972.42 4860.72 5972.4C4860.96 5971.63 4861.24 5970.84 4861.51 5970.11C4862.56 5969.94 4863.59 5969.81 4864.64 5969.7C4864.99 5970.09 4865.36 5970.44 4865.7 5970.75C4868.48 5973.23 4871.37 5975.56 4874.2 5977.97C4874.53 5978.27 4874.88 5978.58 4875.21 5978.87C4879.05 5982.27 4882.76 5985.86 4886.46 5989.43C4890.17 5993.01 4893.81 5996.69 4897.25 6000.51C4897.27 6000.53 4897.28 6000.56 4897.32 6000.58C4897.3 6000.56 4897.27 6000.53 4897.25 6000.51C4897.21 6000.45 4897.16 6000.4 4897.1 6000.34C4897.19 6000.44 4897.27 6000.53 4897.34 6000.6C4897.34 6000.6 4897.34 6000.6 4897.32 6000.58C4897.38 6000.67 4897.45 6000.75 4897.52 6000.82C4897.52 6000.84 4897.56 6000.86 4897.58 6000.88C4897.56 6000.86 4897.54 6000.84 4897.52 6000.82C4897.47 6000.77 4897.43 6000.71 4897.4 6000.66C4897.58 6000.86 4897.76 6001.06 4897.93 6001.24C4897.82 6001.12 4897.69 6001.01 4897.58 6000.86C4902.84 6006.91 4907.74 6013.25 4913.07 6019.24C4918.68 6025.53 4925 6031.28 4932.63 6034.96C4932.27 6034.79 4931.88 6034.59 4931.51 6034.42C4934.34 6035.8 4937.27 6036.98 4940.41 6037.55C4942.89 6037.99 4945.39 6038.3 4947.89 6038.5C4952.71 6038.93 4957.47 6039.07 4962.28 6039C4961.88 6039.02 4961.46 6039.02 4961.05 6039.04C4964.03 6038.98 4967.01 6038.89 4969.99 6038.78C4973.88 6038.69 4977.76 6038.67 4981.68 6038.89C4983 6039.02 4984.3 6039.15 4985.63 6039.35C4987.52 6039.76 4989.42 6040.2 4991.27 6040.73C4992.93 6041.28 4994.56 6041.87 4996.16 6042.51C4998.39 6043.49 5000.57 6044.61 5002.69 6045.77C5005.13 6047.18 5007.52 6048.67 5009.84 6050.29C5014.51 6053.52 5019.05 6056.89 5023.92 6059.81C5028.09 6062.31 5032.34 6064.64 5036.71 6066.76C5041.33 6069.02 5046.07 6070.91 5050.9 6072.66C5054.97 6074.13 5059.12 6075.4 5063.26 6076.72C5063.18 6076.79 5063.11 6076.83 5063.02 6076.91C5059.91 6079.02 5056.49 6080.69 5053.27 6082.71C5051.12 6084.06 5049.07 6085.56 5047.17 6087.25C5045.22 6089 5043.53 6091 5041.9 6093.04C5042.15 6092.73 5042.41 6092.4 5042.69 6092.05C5040.83 6094.37 5039.03 6096.7 5037.52 6099.28C5036.31 6101.37 5035.2 6103.47 5034.23 6105.69C5032.08 6110.58 5030.72 6115.67 5029.97 6120.98C5028.62 6130.51 5028.84 6140.01 5029.18 6149.59C5029.16 6149.38 5029.16 6149.18 5029.16 6148.98C5029.21 6150.43 5029.23 6151.9 5029.16 6153.36C5029.1 6153.83 5029.05 6154.31 5028.97 6154.79C5028.92 6155.07 5028.83 6155.36 5028.75 6155.65C5028.64 6155.93 5028.53 6156.19 5028.4 6156.46C5028.27 6156.7 5028.13 6156.92 5028 6157.16C5027.93 6157.25 5027.87 6157.33 5027.8 6157.42C5027.69 6157.53 5027.58 6157.66 5027.47 6157.75C5027.39 6157.8 5027.36 6157.82 5027.3 6157.88C5027.19 6157.91 5027.1 6157.99 5026.99 6158.02C5026.73 6158.12 5026.45 6158.19 5026.18 6158.26C5025.39 6158.45 5024.58 6158.58 5023.75 6158.7C5021.23 6158.91 5018.66 6158.87 5016.12 6158.69C5016.01 6158.67 5015.9 6158.67 5015.81 6158.65C5015.85 6158.65 5015.89 6158.67 5015.92 6158.67C5015.83 6158.67 5015.76 6158.65 5015.66 6158.65C5015.59 6158.63 5015.52 6158.63 5015.46 6158.61C5015.43 6158.61 5015.39 6158.61 5015.35 6158.61C5015.24 6158.61 5015.13 6158.59 5015.02 6158.58C5015.06 6158.58 5015.11 6158.59 5015.19 6158.59C5015.15 6158.59 5015.11 6158.58 5015.09 6158.58C5015.13 6158.58 5015.15 6158.58 5015.19 6158.59C5015.09 6158.59 5015.02 6158.58 5014.93 6158.58C5014.91 6158.58 5014.91 6158.58 5014.89 6158.58C5014.78 6158.56 5014.67 6158.56 5014.58 6158.56C5014.64 6158.56 5014.67 6158.56 5014.73 6158.56C5014.6 6158.54 5014.49 6158.54 5014.36 6158.52C5014.34 6158.52 5014.34 6158.52 5014.32 6158.52C5014.56 6158.54 5014.8 6158.58 5015.02 6158.58C5011.27 6158.15 5007.65 6157.2 5004.07 6156.08C5003.62 6155.93 5003.17 6155.78 5002.71 6155.65C5002.93 6155.73 5003.15 6155.8 5003.35 6155.87C5003.33 6155.87 5003.33 6155.87 5003.31 6155.86C5003.4 6155.89 5003.48 6155.91 5003.55 6155.93C4998.02 6154.11 4992.58 6151.76 4986.79 6150.84C4983.37 6150.3 4979.76 6150.23 4976.36 6151.06C4974.45 6151.54 4972.54 6152.22 4970.81 6153.17C4968.74 6154.35 4966.97 6155.8 4965.35 6157.51C4965.37 6157.47 4965.41 6157.46 4965.43 6157.42C4965.44 6157.4 4965.48 6157.36 4965.5 6157.34C4965.48 6157.36 4965.46 6157.38 4965.43 6157.42C4965.37 6157.47 4965.32 6157.53 4965.26 6157.6C4965.28 6157.58 4965.3 6157.57 4965.33 6157.55C4963.35 6159.79 4961.66 6162.23 4960.17 6164.84C4959.05 6166.83 4958.06 6168.91 4956.84 6170.87C4956.66 6171.15 4956.44 6171.41 4956.22 6171.68C4956.03 6171.87 4955.85 6172.05 4955.65 6172.23C4955.13 6172.64 4954.58 6173.04 4954.03 6173.41C4952.87 6174.13 4951.7 6174.81 4950.52 6175.51C4945.1 6178.78 4939.99 6182.51 4935.56 6187.05C4931.53 6191.15 4927.8 6195.65 4924.6 6200.43C4922.85 6203.04 4921.44 6205.74 4920.43 6208.72C4919.2 6212.33 4918.79 6216.15 4918.96 6219.95C4919.14 6223.43 4920.04 6226.83 4921.05 6230.14C4921.93 6232.97 4923.02 6235.74 4924.23 6238.46C4924.05 6238.1 4923.9 6237.69 4923.72 6237.32C4925.48 6241.37 4927.5 6245.25 4929.88 6248.98C4931.97 6252.29 4934.14 6255.52 4936.18 6258.87C4936.13 6258.78 4936.09 6258.72 4936.03 6258.63C4936.11 6258.74 4936.18 6258.85 4936.24 6258.94C4938.48 6262.69 4940.59 6266.52 4942.61 6270.38C4942.61 6270.36 4942.6 6270.32 4942.58 6270.3C4942.6 6270.34 4942.61 6270.38 4942.63 6270.39C4942.63 6270.39 4942.63 6270.39 4942.61 6270.38C4942.61 6270.39 4942.63 6270.38 4942.63 6270.39C4942.65 6270.43 4942.67 6270.49 4942.69 6270.5C4942.74 6270.58 4942.78 6270.65 4942.82 6270.74C4944.18 6273.45 4945.46 6276.18 4946.6 6279C4947.5 6281.35 4948.31 6283.74 4948.96 6286.17C4949.38 6287.91 4949.71 6289.7 4949.97 6291.48C4950.08 6292.43 4950.11 6293.37 4950.13 6294.31C4950.08 6295.28 4950 6296.26 4949.89 6297.21C4949.64 6298.79 4949.32 6300.36 4948.96 6301.92C4948.57 6303.15 4948.17 6304.38 4947.69 6305.61C4946.86 6307.49 4945.92 6309.31 4944.89 6311.13C4944.71 6311.44 4944.51 6311.79 4944.31 6312.12C4944.32 6312.08 4944.36 6312.03 4944.4 6311.99C4944.27 6312.16 4944.18 6312.34 4944.07 6312.53C4944.12 6312.43 4944.18 6312.32 4944.21 6312.23C4942.87 6314.46 4941.46 6316.61 4940 6318.76C4939.77 6318.74 4939.53 6318.7 4939.31 6318.66C4937.76 6318.46 4936.27 6318.11 4934.8 6317.73Z"
        fill="#2D4159"/>
</svg>