<svg
    width="7773"
    height="7615"
    viewBox="0 0 7773 7615"
    fill="none"
    xmlns="http://www.w3.org/2000/svg">
    <path id="MK"
        d="M5246.54 6482.61C5243.14 6481.24 5239.81 6479.77 5236.49 6478.2C5232.99 6476.55 5229.61 6474.67 5226.08 6473.15C5222.33 6471.51 5218.42 6470.28 5214.58 6468.86C5214.69 6468.92 5214.81 6468.96 5214.93 6469.01C5214.74 6468.96 5214.56 6468.86 5214.36 6468.79C5214.37 6468.79 5214.37 6468.79 5214.37 6468.79C5214.36 6468.79 5214.34 6468.77 5214.3 6468.75C5214.28 6468.75 5214.25 6468.72 5214.21 6468.72C5214.21 6468.72 5214.19 6468.72 5214.17 6468.72C5214.02 6468.64 5213.86 6468.59 5213.71 6468.53C5213.71 6468.53 5213.73 6468.53 5213.75 6468.53C5211.86 6467.8 5209.98 6467.03 5208.16 6466.16C5208.09 6466.11 5208 6466.07 5207.92 6466.03C5207.54 6465.72 5207.17 6465.43 5206.78 6465.11C5206.69 6464.99 5206.56 6464.88 5206.47 6464.77C5206.14 6464.34 5205.83 6463.9 5205.53 6463.46C5205.37 6463.02 5205.2 6462.58 5205.04 6462.1C5205.04 6462.06 5205.02 6462.04 5205.02 6462.01C5204.8 6459.78 5204.85 6457.56 5204.69 6455.34C5204.47 6452.58 5204.02 6449.91 5203.36 6447.27C5203.34 6447.23 5203.33 6447.21 5203.34 6447.19C5203.34 6447.21 5203.36 6447.23 5203.36 6447.27C5203.36 6447.28 5203.36 6447.28 5203.36 6447.3C5200.92 6438.41 5196.1 6430.37 5190 6423.48C5184.32 6417.05 5177.79 6411.57 5171.67 6405.61C5169.56 6403.44 5167.55 6401.18 5165.64 6398.83C5164.94 6397.86 5164.3 6396.86 5163.69 6395.85C5162.87 6394.23 5162.11 6392.6 5161.4 6390.94C5160.72 6389.16 5160.17 6387.34 5159.65 6385.52C5158.82 6382.1 5158.25 6378.68 5157.79 6375.21C5157.79 6375.28 5157.81 6375.36 5157.81 6375.47C5156.91 6368.11 5156.18 6360.63 5156.14 6353.2C5156.27 6347.3 5156.67 6341.39 5157.46 6335.54C5157.46 6335.56 5157.46 6335.56 5157.46 6335.58C5157.48 6335.39 5157.52 6335.19 5157.54 6334.99C5157.54 6334.93 5157.55 6334.86 5157.55 6334.8C5157.55 6334.88 5157.56 6334.95 5157.54 6335.06C5157.63 6334.31 5157.74 6333.55 5157.83 6332.82C5157.83 6333 5157.79 6333.21 5157.76 6333.43C5159.54 6321.28 5162.04 6309.2 5165.11 6297.32C5165.81 6294.97 5166.56 6292.65 5167.46 6290.36C5167.94 6289.27 5168.44 6288.19 5168.99 6287.16C5169.26 6286.72 5169.56 6286.29 5169.83 6285.87C5170.2 6285.45 5170.57 6285.03 5170.97 6284.62C5171.42 6284.22 5171.87 6283.83 5172.35 6283.46C5174.71 6281.79 5177.22 6280.28 5179.39 6278.39C5181.99 6276.13 5183.82 6273.37 5185.57 6270.45C5188.22 6266 5190.55 6261.33 5193.18 6256.85C5195.2 6253.57 5197.5 6250.43 5200.04 6247.55C5201.45 6245.98 5202.98 6244.55 5204.59 6243.19C5204.59 6243.21 5204.58 6243.21 5204.58 6243.23C5212.46 6236.88 5221.54 6232.05 5230.29 6227.05C5229.92 6227.27 5229.54 6227.47 5229.17 6227.69C5230.75 6226.79 5232.33 6225.91 5233.91 6225.03C5233.88 6225.05 5233.84 6225.06 5233.8 6225.06C5234.36 6224.77 5234.89 6224.48 5235.42 6224.16C5235.46 6224.14 5235.48 6224.13 5235.5 6224.13C5235.48 6224.13 5235.48 6224.13 5235.46 6224.14C5235.51 6224.09 5235.59 6224.07 5235.64 6224.03C5235.68 6224 5235.72 6223.98 5235.75 6223.96C5235.83 6223.92 5235.9 6223.89 5235.95 6223.85C5236.06 6223.8 5236.16 6223.74 5236.27 6223.69C5236.4 6223.61 5236.54 6223.54 5236.69 6223.45C5236.63 6223.46 5236.58 6223.5 5236.54 6223.52C5236.54 6223.5 5236.56 6223.5 5236.56 6223.5C5238.77 6222.25 5240.97 6221.02 5243.16 6219.81C5243.16 6219.81 5243.14 6219.83 5243.12 6219.83C5243.12 6219.83 5243.14 6219.81 5243.16 6219.81C5243.16 6219.81 5243.18 6219.81 5243.18 6219.79C5243.2 6219.77 5243.22 6219.77 5243.23 6219.75C5243.31 6219.7 5243.38 6219.66 5243.45 6219.62C5243.47 6219.6 5243.49 6219.6 5243.53 6219.59C5243.51 6219.59 5243.51 6219.6 5243.51 6219.6L5243.53 6219.59C5243.55 6219.59 5243.56 6219.57 5243.58 6219.57C5243.6 6219.55 5243.62 6219.53 5243.66 6219.53C5243.77 6219.48 5243.86 6219.42 5243.97 6219.37C5243.99 6219.35 5244.02 6219.33 5244.06 6219.31C5244.04 6219.31 5244.04 6219.31 5244.04 6219.33C5244.06 6219.33 5244.04 6219.31 5244.06 6219.31C5244.91 6218.83 5245.75 6218.37 5246.6 6217.89C5246.25 6218.12 5245.86 6218.32 5245.49 6218.54C5248.45 6216.87 5251.4 6215.21 5254.35 6213.54C5253.97 6213.76 5253.6 6213.96 5253.23 6214.18C5256.23 6212.51 5259.23 6210.82 5262.2 6209.13C5262.19 6209.15 5262.19 6209.15 5262.17 6209.15C5262.2 6209.13 5262.24 6209.11 5262.28 6209.09C5262.26 6209.11 5262.24 6209.11 5262.2 6209.13C5262.3 6209.07 5262.39 6209.04 5262.48 6208.98C5262.61 6208.91 5262.74 6208.83 5262.85 6208.76L5262.83 6208.78C5263.01 6208.67 5263.21 6208.56 5263.4 6208.45C5263.38 6208.46 5263.36 6208.47 5263.34 6208.48C5263.44 6208.43 5263.53 6208.37 5263.62 6208.34C5263.78 6208.24 5263.95 6208.15 5264.15 6208.04C5264.61 6207.79 5265.09 6207.53 5265.55 6207.27C5265.16 6207.49 5264.8 6207.69 5264.41 6207.91C5268.4 6205.69 5272.42 6203.56 5276.6 6201.65C5280.55 6199.81 5284.61 6198.1 5288.67 6196.48C5294.37 6194.29 5300.22 6192.62 5306.12 6191.09C5306.17 6191.08 5306.25 6191.06 5306.3 6191.04C5306.28 6191.06 5306.23 6191.08 5306.19 6191.08C5306.23 6191.06 5306.27 6191.06 5306.3 6191.04C5309.13 6190.34 5311.96 6189.68 5314.78 6188.94C5320.6 6187.45 5326.32 6185.27 5331.87 6182.91C5335.35 6181.44 5338.69 6179.79 5341.96 6177.88C5345.03 6176.11 5347.85 6174.05 5350.64 6171.85C5352.77 6170.14 5354.7 6168.17 5356.67 6166.3C5358.91 6164.15 5361.17 6161.98 5363.45 6159.86C5367.86 6155.78 5372.29 6151.72 5377.05 6148.03C5377.13 6147.97 5377.2 6147.91 5377.29 6147.86C5378.65 6146.9 5380.07 6146 5381.5 6145.16C5382.37 6144.75 5383.23 6144.35 5384.11 6143.98C5386.67 6143.01 5389.28 6142.23 5391.93 6141.52C5393.67 6141.19 5395.38 6140.87 5397.15 6140.64C5404.57 6140.03 5412.02 6140.43 5419.44 6140.19C5423.18 6140.07 5426.91 6139.92 5430.62 6139.46C5431.01 6141.98 5431.58 6144.46 5432.46 6146.89C5434.87 6153.56 5440.36 6158.89 5445.75 6163.28C5447.86 6165.03 5450.05 6166.7 5452.38 6168.13C5454.85 6169.64 5457.44 6170.86 5460.16 6171.87C5462.16 6172.6 5464.2 6173.23 5466.24 6173.87C5468.78 6174.64 5471.26 6175.58 5473.74 6176.52C5479.74 6178.72 5485.78 6180.62 5491.83 6182.6C5495.09 6183.69 5498.34 6184.81 5501.48 6186.17C5502.14 6186.5 5502.82 6186.87 5503.47 6187.27C5504.86 6188.25 5506.21 6189.27 5507.51 6190.34C5508.06 6190.84 5508.6 6191.37 5509.11 6191.9C5512.73 6196.09 5516.04 6200.47 5519.79 6204.57C5523.21 6208.3 5527.03 6211.59 5530.54 6215.21C5531.11 6215.85 5531.65 6216.48 5532.18 6217.14C5532.42 6217.53 5532.64 6217.88 5532.88 6218.24C5533.14 6218.76 5533.38 6219.29 5533.61 6219.83C5534.11 6221.15 5534.53 6222.51 5534.92 6223.89C5535.51 6226.59 5535.93 6229.31 5536.3 6232.03C5536.3 6232.1 5536.32 6232.2 5536.32 6232.25C5536.32 6232.42 5536.33 6232.55 5536.35 6232.66C5536.35 6232.67 5536.35 6232.67 5536.35 6232.69C5536.37 6232.73 5536.37 6232.78 5536.39 6232.84C5536.41 6232.91 5536.41 6232.99 5536.41 6233.08C5537.33 6241.46 5538.23 6249.93 5538.21 6258.37C5538.19 6258.59 5538.21 6258.79 5538.19 6259C5538.17 6259.09 5538.19 6259.18 5538.19 6259.27C5538.19 6259.29 5538.19 6259.31 5538.19 6259.33C5538.19 6259.33 5538.19 6259.31 5538.19 6259.29C5538.19 6259.33 5538.19 6259.35 5538.17 6259.36C5538.17 6259.46 5538.17 6259.59 5538.17 6259.68C5538.17 6259.75 5538.17 6259.81 5538.17 6259.86C5538.01 6264.86 5537.57 6269.81 5537.24 6274.81C5536.92 6279.55 5536.63 6284.36 5537.13 6289.11C5537.42 6291.9 5537.92 6294.55 5538.65 6297.25C5539.39 6299.81 5540.36 6302.27 5541.37 6304.71C5543.26 6309.25 5545.16 6313.81 5546.94 6318.39C5547.49 6319.8 5548.04 6321.24 5548.63 6322.67C5547.18 6324.29 5545.75 6325.94 5544.33 6327.58C5540.91 6331.57 5537.51 6335.63 5534.17 6339.71C5531.11 6343.41 5528.06 6347.07 5525.12 6350.83C5522.42 6354.31 5520.08 6358.02 5517.66 6361.68C5517.27 6362.23 5516.85 6362.8 5516.43 6363.33C5516.15 6363.63 5515.86 6363.88 5515.58 6364.14C5515.1 6364.51 5514.59 6364.88 5514.09 6365.25C5513.45 6365.63 5512.79 6366 5512.14 6366.37C5510.82 6366.97 5509.48 6367.47 5508.14 6367.93C5504.17 6369.11 5500.16 6370.02 5496.1 6370.81C5490.18 6371.79 5484.24 6372.63 5478.23 6373.02C5478.27 6373.02 5478.3 6373.02 5478.36 6373.02C5478.3 6373.02 5478.23 6373.02 5478.17 6373.04C5478.17 6373.04 5478.19 6373.04 5478.21 6373.04C5478.23 6373.04 5478.23 6373.04 5478.23 6373.04C5478.21 6373.04 5478.21 6373.04 5478.21 6373.04C5478.19 6373.04 5478.17 6373.04 5478.16 6373.04C5478.16 6373.04 5478.16 6373.04 5478.17 6373.04C5477.95 6373.04 5477.73 6373.08 5477.51 6373.08C5477.7 6373.06 5477.84 6373.06 5478.03 6373.04C5471.89 6373.31 5465.84 6372.91 5459.72 6372.54C5456.19 6372.32 5452.53 6372.23 5449.08 6373.22C5447.22 6373.76 5445.38 6374.36 5443.6 6375.19C5442.42 6375.7 5441.28 6376.29 5440.14 6376.88C5438.06 6377.8 5435.91 6378.66 5433.73 6379.4C5424.74 6381.97 5414.88 6382.95 5407.53 6389.27C5407.53 6389.27 5407.53 6389.25 5407.55 6389.25C5407.57 6389.23 5407.59 6389.23 5407.61 6389.2C5407.59 6389.22 5407.57 6389.22 5407.55 6389.25L5407.53 6389.27C5407.53 6389.27 5407.53 6389.25 5407.55 6389.25C5405.9 6390.74 5404.37 6392.3 5403.03 6394.09C5401.91 6395.5 5400.9 6396.94 5399.92 6398.41C5399.94 6398.37 5399.98 6398.33 5400.01 6398.28C5398.03 6401.24 5396.41 6404.38 5394.85 6407.58C5393.3 6410.7 5391.69 6413.77 5389.98 6416.79C5390 6416.75 5390.03 6416.7 5390.05 6416.66C5388.8 6418.83 5387.48 6420.96 5386.03 6423C5385.57 6423.61 5385.09 6424.2 5384.57 6424.75C5383.78 6425.56 5382.97 6426.35 5382.11 6427.06C5380.12 6428.61 5378.03 6429.99 5375.9 6431.31C5369.67 6435.01 5363.3 6438.44 5357.09 6442.19C5350.64 6446.11 5344.67 6450.7 5338.34 6454.78C5337 6455.57 5335.64 6456.25 5334.24 6456.92C5331.87 6457.95 5329.45 6458.85 5327 6459.66C5319.48 6461.88 5311.74 6463.31 5304.12 6465.04C5298.38 6466.35 5292.68 6467.69 5286.96 6469.05C5281.27 6470.41 5275.4 6471.51 5269.98 6473.75C5264.37 6476.11 5259.3 6479.71 5254.61 6483.55C5253.99 6484.07 5253.4 6484.62 5252.83 6485.19C5250.79 6484.23 5248.6 6483.46 5246.54 6482.61Z"
        fill="#2D4159"/>
</svg>