<svg
    width="7773"
    height="7615"
    viewBox="0 0 7773 7615"
    fill="none"
    xmlns="http://www.w3.org/2000/svg">
    <path id="NL"
        d="M2836.74 4516.24C2836.74 4516.24 2836.75 4516.24 2836.77 4516.24C2836.7 4516.22 2836.63 4516.22 2836.55 4516.2C2836.33 4516.16 2836.11 4516.13 2835.87 4516.09C2835.95 4516.11 2836.02 4516.11 2836.09 4516.13C2832.25 4515.52 2828.41 4514.86 2824.57 4514.21C2820.91 4513.61 2817.2 4513.09 2813.57 4512.14C2813.01 4511.94 2812.44 4511.73 2811.9 4511.53C2811.63 4511.4 2811.39 4511.27 2811.13 4511.13C2811.02 4511.03 2810.89 4510.96 2810.74 4510.87C2810.74 4510.87 2810.74 4510.85 2810.73 4510.85C2810.63 4510.74 2810.54 4510.63 2810.45 4510.5C2810.39 4510.39 2810.3 4510.28 2810.25 4510.19C2810.16 4509.99 2810.05 4509.75 2809.95 4509.53C2809.92 4509.38 2809.86 4509.23 2809.82 4509.1C2809.82 4509.03 2809.79 4508.96 2809.79 4508.87C2809.79 4508.52 2809.75 4508.15 2809.77 4507.8C2809.86 4505.74 2810.06 4503.7 2810.34 4501.66C2810.6 4500.13 2810.93 4498.63 2811.31 4497.12C2813.02 4491.4 2815.17 4485.81 2817.38 4480.23C2820.19 4473.22 2823.28 4466.09 2824.95 4458.7C2827.38 4448.02 2827.53 4436.79 2824.82 4426.15C2824.18 4423.68 2823.45 4421.29 2822.38 4418.98C2821.33 4416.72 2819.46 4414.8 2817.43 4413.37C2814.9 4411.55 2812.16 4410.54 2809.09 4409.95C2806 4409.34 2802.8 4409.01 2799.64 4409.05C2796.5 4409.07 2793.37 4409.29 2790.27 4409.44C2790.67 4409.42 2791.09 4409.38 2791.52 4409.36C2789.38 4409.46 2787.23 4409.49 2785.08 4409.36C2784.31 4409.27 2783.56 4409.18 2782.78 4409.05C2782.14 4408.89 2781.48 4408.7 2780.84 4408.5C2780.19 4408.26 2779.57 4407.97 2778.94 4407.67C2778.1 4407.18 2777.25 4406.64 2776.42 4406.11C2774.4 4404.62 2772.42 4402.98 2770.56 4401.31C2769.37 4400.14 2768.21 4398.92 2767.12 4397.67C2765.49 4395.61 2764.02 4393.46 2762.66 4391.26C2762.68 4391.28 2762.68 4391.29 2762.69 4391.31C2762.69 4391.31 2762.68 4391.31 2762.69 4391.29C2762.68 4391.28 2762.68 4391.28 2762.66 4391.26C2762.56 4391.09 2762.49 4390.94 2762.38 4390.78C2762.31 4390.67 2762.25 4390.58 2762.2 4390.49C2762.18 4390.43 2762.14 4390.39 2762.11 4390.36C2762.14 4390.41 2762.16 4390.45 2762.2 4390.49C2762.22 4390.5 2762.23 4390.54 2762.23 4390.56C2761.52 4389.38 2760.82 4388.21 2760.08 4386.99C2760.3 4387.34 2760.52 4387.71 2760.73 4388.08C2758.12 4383.81 2755.58 4379.24 2752.03 4375.63C2749.99 4373.56 2747.84 4371.83 2745.43 4370.19C2743.63 4368.96 2741.68 4367.93 2739.79 4366.9C2740.01 4367.01 2740.23 4367.14 2740.45 4367.25C2740.16 4367.08 2739.86 4366.94 2739.57 4366.77C2739.48 4366.72 2739.39 4366.66 2739.29 4366.61C2739.33 4366.63 2739.38 4366.66 2739.42 4366.68C2737.44 4365.63 2735.43 4364.64 2733.36 4363.79C2731.22 4362.91 2729.05 4362.07 2726.89 4361.26C2722.23 4359.47 2717.58 4357.78 2712.88 4356.26C2704.07 4353.43 2695.12 4351.02 2686.11 4348.89C2686.21 4348.91 2686.3 4348.92 2686.39 4348.94C2681.57 4347.82 2676.7 4346.57 2671.78 4346C2671.9 4346 2672.02 4346.02 2672.14 4346.02C2671.72 4345.98 2671.3 4345.93 2670.89 4345.89C2670.95 4345.91 2671 4345.91 2671.06 4345.91C2669.88 4345.82 2668.72 4345.71 2667.51 4345.69C2665.75 4345.71 2664.04 4345.91 2662.29 4346.28C2659.33 4346.86 2656.3 4348.02 2653.63 4349.44C2650.97 4350.85 2648.3 4352.34 2645.86 4354.14C2643.58 4355.82 2641.41 4357.64 2639.3 4359.53C2632.03 4366.06 2625.84 4373.7 2618.49 4380.12C2617 4381.29 2615.49 4382.4 2613.93 4383.44C2612.95 4384.07 2611.98 4384.62 2610.95 4385.15C2608.54 4386.26 2606.02 4387.19 2603.51 4388.08C2600.27 4389.18 2596.98 4390.19 2593.65 4390.94C2592.09 4391.26 2590.51 4391.5 2588.93 4391.66C2586.43 4391.85 2583.97 4391.92 2581.48 4391.88C2580.16 4391.79 2578.85 4391.66 2577.59 4391.46C2576.02 4391.13 2574.48 4390.78 2572.92 4390.34C2570.67 4389.57 2568.52 4388.72 2566.36 4387.76C2564.68 4386.96 2563.06 4386.09 2561.43 4385.17C2557 4382.67 2552.72 4379.93 2548.27 4377.47C2543.3 4374.73 2538.32 4372.08 2533.53 4369.07C2531.19 4367.62 2528.87 4366.09 2526.45 4364.73C2524.09 4363.41 2521.67 4362.23 2519.19 4361.15C2515.47 4359.51 2511.6 4358.43 2507.79 4357.09C2506.43 4352.09 2505.92 4346.99 2505.82 4341.79C2505.73 4336.5 2506.1 4331.13 2506.93 4325.87C2507.33 4323.19 2507.92 4320.52 2508.62 4317.88C2509.83 4313.28 2512.09 4309.07 2515.07 4305.38C2519.87 4299.4 2526.89 4294.81 2534.63 4294.18C2538.64 4293.87 2542.7 4293.69 2546.72 4293.72C2552.94 4293.78 2559.13 4294.62 2564.87 4297.1C2570.29 4299.48 2574.72 4304.16 2577.16 4309.49C2578.69 4312.77 2579.81 4316.19 2581.24 4319.48C2581.81 4320.62 2582.37 4321.72 2583.03 4322.82C2583.8 4323.94 2584.63 4325.05 2585.47 4326.13C2585.97 4326.7 2586.48 4327.25 2587 4327.8C2587.66 4328.37 2588.36 4328.92 2589.06 4329.48C2589.24 4329.57 2589.41 4329.66 2589.55 4329.77C2590.03 4329.99 2590.49 4330.21 2590.97 4330.41C2591.01 4330.41 2591.02 4330.41 2591.06 4330.43C2591.61 4330.03 2592.18 4329.64 2592.75 4329.25C2592.49 4329.42 2592.26 4329.57 2592 4329.71C2593.01 4329.07 2593.95 4328.3 2594.96 4327.66C2597.16 4326.17 2599.42 4324.88 2601.87 4323.81C2604.61 4322.62 2607.37 4321.55 2610.12 4320.47C2609.94 4320.12 2609.74 4319.79 2609.53 4319.42C2608.93 4318.5 2608.27 4317.6 2607.59 4316.74C2606.63 4315.65 2605.64 4314.6 2604.59 4313.61C2601.92 4311.3 2599.09 4309.22 2596.46 4306.83C2592.92 4303.58 2589.7 4300.12 2587 4296.09C2584.76 4292.77 2582.84 4289.27 2580.95 4285.73C2578.97 4282.05 2576.83 4278.39 2575.31 4274.49C2574.09 4271.43 2573.62 4268.23 2573.56 4264.95C2573.51 4260.87 2575.73 4256.59 2578.52 4253.74C2581.26 4250.95 2584.98 4249.24 2588.56 4247.82C2595.91 4244.94 2603.56 4242.88 2610.86 4239.75C2612.02 4239.18 2613.17 4238.56 2614.31 4237.9C2614.66 4237.66 2615.01 4237.42 2615.38 4237.16C2615.47 4237.07 2615.58 4236.96 2615.69 4236.87C2615.88 4236.65 2616.06 4236.43 2616.24 4236.19C2616.46 4235.84 2616.69 4235.47 2616.91 4235.08C2616.81 4235.3 2616.69 4235.51 2616.57 4235.73C2616.52 4235.82 2616.45 4235.89 2616.39 4235.98C2616.45 4235.91 2616.48 4235.84 2616.56 4235.78C2616.48 4235.91 2616.43 4236.06 2616.35 4236.17C2616.26 4236.24 2616.19 4236.35 2616.1 4236.44C2616.19 4236.35 2616.26 4236.28 2616.35 4236.17C2616.3 4236.26 2616.28 4236.33 2616.23 4236.43C2616.37 4236.19 2616.5 4235.93 2616.65 4235.65C2616.74 4235.56 2616.81 4235.43 2616.89 4235.3C2616.89 4235.29 2616.89 4235.29 2616.89 4235.29C2616.81 4235.38 2616.74 4235.49 2616.67 4235.62C2616.76 4235.41 2616.83 4235.23 2616.92 4235.07C2616.94 4234.53 2616.96 4234 2616.96 4233.48C2616.74 4230.4 2616.24 4227.33 2616.06 4224.22C2615.82 4219.7 2616.06 4215.32 2617.14 4210.93C2618.14 4206.96 2620.03 4203.23 2622.16 4199.74C2623.96 4196.78 2625.88 4193.85 2628.08 4191.13C2632.4 4185.76 2638.28 4182.53 2644.39 4179.57C2650.49 4176.65 2656.76 4173.96 2662.57 4170.47C2663.49 4169.85 2664.39 4169.24 2665.25 4168.56C2666.21 4167.71 2667.13 4166.87 2668.03 4165.99C2668.67 4165.21 2669.31 4164.44 2669.9 4163.65C2670.82 4162.22 2671.67 4160.78 2672.44 4159.28C2674.66 4154.81 2676.56 4150.21 2678.54 4145.64C2680.69 4140.71 2682.82 4135.77 2684.68 4130.71C2685.62 4127.97 2686.44 4125.18 2687.07 4122.35C2687.44 4120.2 2687.73 4118.05 2687.99 4115.86C2688.25 4111.45 2688.15 4107.02 2688.25 4102.57C2688.34 4097.64 2688.58 4092.72 2688.74 4087.77C2688.91 4082.64 2688.94 4077.49 2689 4072.35C2689.04 4069.85 2689.2 4067.38 2689.5 4064.9C2690.07 4059.85 2692.16 4055.36 2695.32 4051.45C2698.65 4047.37 2702.64 4043.82 2706.68 4040.47C2711.44 4036.54 2716.67 4032.55 2722.66 4030.69C2725.58 4029.79 2728.45 4029.19 2731.48 4028.8C2736.04 4028.21 2741.19 4028.19 2745.51 4029.83C2747.88 4030.71 2750.21 4031.94 2751.94 4033.82C2752.84 4034.81 2753.7 4035.86 2754.48 4036.96C2755.63 4038.56 2756.65 4040.2 2757.71 4041.85C2758.34 4042.86 2758.98 4043.87 2759.59 4044.9C2761.28 4047.48 2763.1 4049.98 2764.7 4052.61C2766.22 4055.09 2767.09 4057.92 2768.21 4060.62C2769.55 4063.4 2771.15 4066.02 2772.6 4068.75C2775.21 4073.54 2776.87 4078.71 2777.23 4084.17C2777.51 4093.8 2773.7 4103.43 2768.24 4111.23C2763.65 4117.84 2757.45 4123.16 2752.79 4129.72C2752 4130.93 2751.24 4132.14 2750.54 4133.43C2749.75 4135.14 2749.04 4136.89 2748.36 4138.65C2748.02 4139.66 2747.77 4140.69 2747.58 4141.72C2747.64 4141.5 2747.69 4141.28 2747.75 4141.06C2747.53 4142.2 2747.36 4143.34 2747.29 4144.52C2747.33 4144.13 2747.36 4143.74 2747.4 4143.34C2747.42 4143.6 2747.42 4143.84 2747.42 4144.09C2747.44 4144.17 2747.45 4144.28 2747.45 4144.35C2747.58 4144.81 2747.71 4145.29 2747.84 4145.75C2748.06 4146.32 2748.28 4146.87 2748.54 4147.42C2749.35 4149.06 2750.23 4150.64 2751.19 4152.2C2752.36 4154 2753.59 4155.77 2754.83 4157.48C2755.95 4158.74 2757.12 4159.94 2758.34 4161.11C2758.72 4161.46 2759.13 4161.79 2759.53 4162.11C2759.2 4161.87 2758.85 4161.63 2758.52 4161.41C2759.31 4162.02 2760.12 4162.53 2760.98 4163.01C2761.19 4163.1 2761.41 4163.16 2761.61 4163.25C2762.27 4163.47 2762.91 4163.63 2763.58 4163.74C2763.21 4163.65 2762.8 4163.58 2762.44 4163.49C2763.13 4163.6 2763.81 4163.67 2764.51 4163.78C2770.16 4164.07 2775.84 4163.56 2781.48 4163.96C2784.57 4164.2 2787.64 4164.52 2790.67 4165.12C2793.61 4165.71 2796.52 4166.41 2799.49 4166.79C2800.91 4166.89 2802.29 4166.96 2803.72 4166.94C2804.9 4166.85 2806.02 4166.72 2807.18 4166.54C2808.08 4166.32 2808.98 4166.11 2809.84 4165.86C2811.79 4165.21 2813.67 4164.44 2815.54 4163.61C2818.61 4162.14 2821.59 4160.53 2824.49 4158.76C2825.6 4158.06 2826.66 4157.31 2827.71 4156.5C2828.96 4155.42 2830.16 4154.26 2831.35 4153.06C2832.8 4151.39 2834.14 4149.63 2835.47 4147.84C2835.85 4147.27 2836.22 4146.68 2836.57 4146.08C2836.74 4145.71 2836.88 4145.36 2837.05 4144.98C2837.07 4144.94 2837.09 4144.9 2837.09 4144.86C2837.07 4144.7 2837.05 4144.55 2837.05 4144.37C2836.99 4144.18 2836.94 4143.96 2836.88 4143.74C2836.77 4143.49 2836.66 4143.19 2836.57 4142.92C2835.1 4139.94 2833.3 4137.07 2831.7 4134.15C2829.38 4129.83 2827.27 4125.38 2825.19 4120.95C2824.51 4119.48 2823.87 4118.05 2823.21 4116.59C2822.31 4114.53 2821.88 4112.4 2821.52 4110.21C2820.78 4105.78 2822.51 4101.06 2825.28 4097.68C2828.04 4094.37 2831.81 4091.94 2835.17 4089.26C2836.72 4087.95 2838.21 4086.59 2839.62 4085.14C2840.01 4084.7 2840.41 4084.26 2840.78 4083.8C2840.76 4083.67 2840.72 4083.54 2840.69 4083.4C2840.58 4083.1 2840.47 4082.79 2840.34 4082.49C2840.14 4082.05 2839.9 4081.65 2839.66 4081.23C2838.98 4080.22 2838.26 4079.24 2837.51 4078.29C2835.49 4075.95 2833.34 4073.8 2831.11 4071.65C2823.89 4065.07 2816.28 4058.89 2808.91 4052.42C2805.1 4049.09 2801.37 4045.71 2798.08 4041.87C2794.77 4037.96 2791.46 4034.02 2788.37 4029.92C2786.53 4027.46 2784.92 4024.72 2783.52 4022C2781.02 4017.24 2779.9 4012.09 2779.75 4006.74C2779.66 4003.19 2780.41 3999.43 2781.52 3996.06C2782.42 3993.31 2783.37 3990.53 2784.68 3987.96C2786.04 3985.27 2787.45 3982.75 2789.16 3980.29C2791.13 3977.46 2793.46 3974.96 2795.98 3972.63C2800.21 3968.69 2805.23 3965.75 2810.49 3963.4C2814.07 3961.8 2817.75 3960.51 2821.46 3959.35C2831.53 3956.23 2841.75 3953.69 2851.9 3950.95C2861.92 3948.25 2871.9 3945.31 2881.9 3942.48C2892.62 3939.43 2903.48 3937.11 2914.62 3936.14C2919.88 3935.7 2925.14 3935.59 2930.41 3935.77C2936.09 3935.99 2941.7 3937.13 2947.21 3938.53C2956.09 3940.77 2964.95 3943.2 2973.87 3945.35C2983.24 3947.63 2992.52 3950.2 3001.9 3952.29C3001.9 3952.29 3001.88 3952.29 3001.86 3952.29C3001.88 3952.29 3001.9 3952.29 3001.92 3952.29C3001.97 3952.29 3002.01 3952.31 3002.06 3952.33C3002.14 3952.35 3002.21 3952.35 3002.28 3952.37C3002.3 3952.37 3002.34 3952.37 3002.36 3952.39C3003.02 3952.5 3003.63 3952.64 3004.29 3952.75C3005.59 3954.65 3006.9 3956.54 3008.22 3958.4C3013.17 3965.36 3018.68 3971.93 3023.64 3978.89C3025.56 3981.72 3027.32 3984.65 3028.96 3987.66C3030 3989.87 3030.98 3992.07 3031.86 3994.35C3032.38 3995.97 3032.85 3997.57 3033.29 3999.21C3033.57 4000.68 3033.83 4002.17 3034.01 4003.65C3034.03 4004.3 3034.07 4004.92 3034.07 4005.57C3034.05 4005.88 3034.03 4006.21 3034.01 4006.54C3033.97 4006.65 3033.96 4006.76 3033.94 4006.87C3033.88 4007 3033.83 4007.15 3033.79 4007.28C3033.22 4008.4 3032.61 4009.52 3031.97 4010.58C3029.16 4014.94 3025.94 4019.06 3022.85 4023.25C3018.48 4029.15 3014.16 4035.09 3010.41 4041.45C3006.68 4047.81 3003.85 4054.92 3002.67 4062.22C3001.59 4068.78 3001.81 4075.47 3000.92 4082.05C3000.69 4083.43 3000.41 4084.81 3000.04 4086.17C2999.67 4087.31 2999.31 4088.47 2998.85 4089.57C2998.24 4090.79 2997.58 4091.98 2996.88 4093.14C2996.26 4094.09 2995.61 4095.03 2994.89 4095.93C2993.64 4097.37 2992.34 4098.69 2990.96 4099.99C2988.63 4102.07 2986.24 4104.08 2983.72 4105.95C2981.64 4107.37 2979.55 4108.65 2977.38 4109.85C2973 4112.02 2968.42 4113.71 2964.1 4116.01C2960.06 4118.16 2956.26 4121.02 2953.26 4124.5C2950.67 4127.48 2949.01 4131.04 2948.57 4134.98C2948.31 4137.22 2948.79 4139.52 2949.23 4141.7C2950.01 4145.53 2950.59 4149.39 2950.98 4153.27C2951.66 4161.39 2951.72 4169.59 2951.92 4177.75C2952.1 4186.22 2952.47 4194.72 2953.17 4203.17C2953.54 4207.53 2953.98 4211.89 2954.47 4216.22C2954.56 4217.07 2954.64 4217.91 2954.73 4218.76C2954.77 4218.94 2954.79 4219.13 2954.82 4219.31C2954.8 4219.4 2954.84 4219.48 2954.84 4219.57C2954.84 4219.59 2954.84 4219.61 2954.84 4219.62C2954.86 4219.68 2954.86 4219.73 2954.88 4219.79C2954.88 4219.83 2954.88 4219.86 2954.88 4219.9C2954.88 4219.88 2954.88 4219.86 2954.9 4219.85C2954.91 4220.03 2954.93 4220.21 2954.97 4220.42C2954.95 4220.27 2954.93 4220.16 2954.91 4220.03C2955.58 4225.89 2956.2 4231.76 2956.24 4237.66C2956.18 4239.53 2956.05 4241.41 2955.87 4243.26C2955.5 4245.58 2955.02 4247.86 2954.49 4250.12C2954.03 4251.72 2953.52 4253.3 2952.95 4254.9C2951.86 4257.4 2950.65 4259.79 2949.34 4262.18C2947.62 4265.08 2945.72 4267.84 2943.7 4270.54C2943.19 4271.17 2942.65 4271.77 2942.1 4272.38C2941.5 4272.97 2940.89 4273.54 2940.25 4274.07C2939.62 4274.51 2938.96 4274.92 2938.32 4275.32C2937.86 4275.56 2937.4 4275.78 2936.95 4275.98C2936.31 4276.22 2935.65 4276.43 2934.97 4276.65C2934.01 4276.85 2933.08 4277.03 2932.1 4277.18C2924.07 4278.04 2915.93 4278.37 2907.87 4278.56C2895.96 4278.83 2883.94 4278.43 2872.07 4279.94C2865.56 4280.74 2858.9 4281.77 2852.97 4284.77C2850.14 4286.2 2847.32 4287.99 2845.01 4290.17C2842.89 4292.16 2840.78 4294.33 2839.22 4296.81C2836.88 4300.51 2834.86 4304.79 2834.82 4309.26C2834.81 4311.68 2835.01 4313.94 2835.63 4316.3C2835.93 4317.43 2836.28 4318.57 2836.72 4319.7C2838.83 4325.19 2841.5 4330.45 2844.33 4335.63C2850.34 4346.74 2856.18 4357.97 2861.39 4369.49C2862.56 4372.21 2863.65 4374.93 2864.57 4377.75C2865.21 4379.97 2865.78 4382.23 2866.2 4384.51C2866.44 4386.11 2866.66 4387.73 2866.79 4389.36C2866.79 4389.88 2866.79 4390.39 2866.77 4390.91C2866.64 4392.14 2866.5 4393.35 2866.31 4394.55C2865.96 4396.18 2865.52 4397.78 2865.06 4399.4C2864.86 4399.97 2864.66 4400.56 2864.47 4401.11C2862.12 4407.6 2859.2 4413.85 2857.08 4420.41C2855.1 4426.61 2853.72 4432.93 2852.62 4439.33C2852.09 4442.52 2851.57 4445.72 2851.2 4448.94C2849.95 4449.68 2848.89 4450.69 2848.13 4451.95C2847.01 4453.85 2846.28 4455.98 2846.26 4458.2C2846.26 4460.54 2846.46 4462.82 2846.75 4465.12C2847.29 4469.75 2847.8 4474.38 2848.13 4479.05C2848.45 4483.24 2848.79 4487.43 2849.31 4491.6C2850.04 4497.49 2851.28 4503.3 2851.9 4509.2C2852.01 4510.5 2852.05 4511.81 2852.05 4513.13C2851.99 4514.56 2851.9 4516.02 2851.75 4517.45C2851.33 4517.45 2850.91 4517.47 2850.49 4517.47C2846.15 4517.3 2841.88 4516.88 2837.6 4516.26C2837.12 4516.29 2836.92 4516.25 2836.74 4516.24Z"
        fill="#2D4159"/>
</svg>