<svg
    width="7773"
    height="7615"
    viewBox="0 0 7773 7615"
    fill="none"
    xmlns="http://www.w3.org/2000/svg">
    <path
        id="PL"
        d="M4807.97 4749.23C4807.07 4748.9 4806.18 4748.55 4805.3 4748.16C4804.22 4747.61 4803.15 4747.02 4802.1 4746.36C4800.56 4745.28 4799.05 4744.12 4797.6 4742.91C4797.32 4742.67 4797.03 4742.41 4796.79 4742.19C4796.86 4742.26 4796.94 4742.34 4797.01 4742.41C4793.59 4739.41 4790.12 4736.4 4787.05 4733.05C4786.66 4732.59 4786.28 4732.12 4785.91 4731.62C4785.41 4730.83 4784.95 4730.04 4784.51 4729.23C4783.19 4726.47 4782.12 4723.62 4781.07 4720.76C4779.92 4717.54 4778.76 4714.27 4777.05 4711.29C4774.99 4707.7 4772.27 4704.63 4769.11 4702.01C4766.59 4699.95 4763.76 4698.33 4760.83 4696.93C4760.98 4696.99 4761.13 4697.08 4761.28 4697.13C4760.91 4696.95 4760.5 4696.75 4760.12 4696.58C4760.36 4696.69 4760.58 4696.82 4760.83 4696.93C4758.43 4695.79 4756 4694.8 4753.46 4693.95C4751.22 4693.22 4748.96 4692.56 4746.72 4691.88C4745.71 4691.51 4744.71 4691.16 4743.72 4690.74C4743.17 4690.44 4742.62 4690.15 4742.07 4689.82C4741.61 4689.49 4741.18 4689.18 4740.74 4688.83C4739.84 4688 4738.98 4687.13 4738.15 4686.23C4738.13 4686.22 4738.11 4686.18 4738.1 4686.16C4738.11 4686.18 4738.13 4686.2 4738.13 4686.22C4738.11 4686.2 4738.11 4686.18 4738.1 4686.16C4735.82 4683.44 4733.74 4680.57 4731.61 4677.7C4730.49 4676.2 4729.33 4674.75 4728.06 4673.37C4725.82 4670.92 4722.42 4668.94 4719.11 4668.51C4715.03 4668.04 4710.49 4669.32 4707.32 4672.01C4705.32 4673.72 4703.56 4675.65 4701.96 4677.74C4699.09 4681.44 4696.79 4685.57 4694.35 4689.54C4694.46 4689.38 4694.57 4689.21 4694.7 4689.05C4694.57 4689.23 4694.46 4689.41 4694.35 4689.58C4694.35 4689.58 4694.35 4689.56 4694.35 4689.54C4694.35 4689.56 4694.35 4689.58 4694.33 4689.6C4694.33 4689.6 4694.33 4689.6 4694.33 4689.62C4694.33 4689.62 4694.33 4689.62 4694.33 4689.6C4694.31 4689.62 4694.31 4689.63 4694.29 4689.65C4694.29 4689.63 4694.31 4689.63 4694.31 4689.62C4693.32 4691.18 4692.25 4692.72 4691.13 4694.23C4690.06 4695.5 4688.92 4696.69 4687.69 4697.85C4686.65 4698.77 4685.54 4699.65 4684.42 4700.48C4682.56 4701.75 4680.65 4702.89 4678.69 4703.99C4675.97 4705.39 4673.19 4706.69 4670.36 4707.81C4666.33 4709.25 4662.22 4710.46 4658.08 4711.49C4658.1 4711.49 4658.1 4711.49 4658.1 4711.47C4654.51 4712.32 4650.89 4713 4647.25 4713.42C4646.26 4713.51 4645.27 4713.55 4644.29 4713.57C4644.27 4713.57 4644.26 4713.57 4644.26 4713.57C4643.87 4713.13 4643.5 4712.67 4643.15 4712.21C4642.75 4711.58 4642.38 4710.96 4642 4710.33C4641.41 4709.17 4640.89 4707.98 4640.41 4706.75C4639.26 4703.35 4638.36 4699.89 4637.25 4696.47C4635.73 4691.86 4633.82 4687.43 4631.57 4683.15C4628.58 4677.43 4625.3 4671.82 4621.92 4666.33C4618.58 4660.9 4615.08 4655.44 4610.97 4650.55C4607 4645.85 4602.46 4641.69 4597.66 4637.85C4592.51 4633.74 4587.16 4630 4581.44 4626.75C4576.65 4624.01 4571.72 4621.6 4566.67 4619.4C4561.9 4617.3 4557.07 4615.21 4552.05 4613.7C4546.37 4612.01 4540.58 4610.63 4534.66 4610.21C4528.65 4609.8 4522.57 4610.08 4516.57 4610.78C4512.14 4611.29 4507.73 4612.06 4503.36 4612.91C4500.01 4613.57 4496.69 4614.29 4493.3 4614.76C4492.68 4614.82 4492.03 4614.88 4491.41 4614.88C4490.88 4614.86 4490.33 4614.8 4489.77 4614.73C4489.44 4614.67 4489.11 4614.6 4488.76 4614.51C4488.74 4614.51 4488.73 4614.51 4488.71 4614.51C4488.69 4614.49 4488.65 4614.49 4488.63 4614.45C4488.56 4614.4 4488.47 4614.34 4488.41 4614.27C4488.17 4613.97 4487.97 4613.72 4487.73 4613.44C4487.46 4613 4487.18 4612.54 4486.91 4612.1C4486.58 4611.44 4486.3 4610.78 4486.01 4610.1C4485.49 4608.63 4485.07 4607.12 4484.7 4605.59C4484.7 4605.57 4484.7 4605.57 4484.7 4605.56C4484.68 4605.46 4484.66 4605.39 4484.63 4605.32C4483.93 4602.14 4483.23 4598.97 4482.03 4595.94C4480.66 4592.39 4478.58 4589.09 4475.66 4586.6C4472.51 4583.92 4469.08 4581.75 4465.42 4579.86C4462.77 4578.52 4460.11 4577.25 4457.55 4575.74C4456.93 4575.34 4456.3 4574.93 4455.71 4574.47C4455.2 4574.01 4454.68 4573.55 4454.19 4573.06C4452.02 4570.61 4450.2 4567.91 4448.16 4565.37C4445.31 4561.82 4442.05 4558.59 4438.05 4556.4C4433.89 4554.14 4429.39 4552.74 4424.68 4552.52C4420.68 4552.34 4416.78 4552.8 4412.81 4553.26C4410.92 4553.46 4409.02 4553.59 4407.11 4553.59C4405.16 4553.46 4403.19 4553.26 4401.26 4553C4392.83 4551.53 4384.65 4548.9 4376.36 4546.77C4370.25 4545.21 4363.82 4543.74 4357.5 4544.56C4355.66 4544.82 4353.82 4545.3 4352.17 4546.13C4349.48 4547.49 4347.59 4549.42 4346.06 4552.01C4344.79 4554.16 4344.56 4556.93 4344.56 4559.4C4344.56 4560.83 4344.72 4562.27 4344.92 4563.7C4345.62 4568.75 4347.26 4573.66 4347.94 4578.72C4347.96 4579.18 4347.99 4579.67 4347.99 4580.13C4347.99 4580.22 4347.99 4580.32 4347.98 4580.43C4347.94 4580.7 4347.88 4581 4347.79 4581.25C4347.68 4581.6 4347.57 4581.93 4347.44 4582.28C4347.11 4583 4346.74 4583.74 4346.38 4584.43C4345.81 4585.35 4345.2 4586.22 4344.54 4587.08C4343.78 4587.96 4343.01 4588.86 4342.18 4589.69C4341.12 4590.7 4340 4591.68 4338.84 4592.6C4337.29 4593.74 4335.7 4594.77 4334.06 4595.74C4332.81 4596.4 4331.52 4597.04 4330.22 4597.6C4328.8 4598.15 4327.39 4598.66 4325.93 4599.07C4325.05 4599.27 4324.13 4599.43 4323.23 4599.6C4322.59 4599.65 4321.95 4599.69 4321.3 4599.73C4320.81 4599.71 4320.29 4599.71 4319.81 4599.65C4319.54 4599.62 4319.28 4599.56 4318.99 4599.51C4318.88 4599.47 4318.77 4599.43 4318.66 4599.4C4318.42 4599.29 4318.2 4599.18 4317.96 4599.07C4317.57 4598.79 4317.19 4598.53 4316.82 4598.28C4314.28 4596.22 4311.91 4593.92 4309.59 4591.62C4309.43 4591.46 4309.3 4591.31 4309.15 4591.16C4309.1 4591.09 4309.02 4591.03 4308.99 4590.98C4308.88 4590.89 4308.8 4590.79 4308.71 4590.7C4308.73 4590.72 4308.75 4590.76 4308.78 4590.78C4303.12 4584.91 4297.94 4578.63 4292.66 4572.45C4288.66 4567.8 4284.41 4563.39 4280.53 4558.68C4280.53 4558.66 4280.51 4558.64 4280.51 4558.64C4280.5 4558.48 4280.49 4558.28 4280.49 4558.11C4280.55 4557.08 4280.62 4556.05 4280.73 4555.02C4281.03 4552.96 4281.43 4550.94 4281.93 4548.92C4282.59 4546.55 4283.38 4544.23 4284.24 4541.92C4286.32 4536.35 4288.64 4530.56 4287.9 4524.49C4287.52 4521.33 4286.65 4518.33 4285.09 4515.56C4283.6 4512.87 4281.87 4510.35 4279.89 4508.04C4277.88 4505.65 4275.59 4503.26 4272.9 4501.62C4270.16 4499.97 4267.32 4498.92 4264.19 4498.28C4261.18 4497.67 4258.14 4497.45 4255.05 4497.43C4249.19 4497.38 4243.34 4498 4237.52 4498.52C4231.34 4499.05 4225.18 4499.68 4219.01 4499.97C4213.09 4500.12 4207.17 4499.99 4201.29 4499.45C4198.62 4499.16 4196.01 4498.74 4193.38 4498.19C4192.17 4497.86 4190.94 4497.49 4189.74 4497.08C4188.38 4496.51 4187.02 4495.91 4185.7 4495.23C4185.66 4495.21 4185.63 4495.19 4185.59 4495.15C4185.63 4495.17 4185.66 4495.19 4185.7 4495.23C4185.57 4495.15 4185.44 4495.1 4185.29 4495.02C4185.18 4494.97 4185.09 4494.9 4184.98 4494.84C4185.04 4494.88 4185.09 4494.9 4185.17 4494.93C4181.62 4492.87 4178.22 4490.67 4174.89 4488.3C4167.52 4482.76 4160.81 4476.27 4152.61 4471.94C4149.43 4470.26 4146.1 4468.89 4142.65 4467.87C4139.96 4467.12 4137.21 4466.55 4134.47 4465.93C4133.22 4465.63 4131.99 4465.28 4130.76 4464.84C4129.85 4464.47 4128.97 4464.05 4128.09 4463.61C4126.89 4462.91 4125.72 4462.19 4124.58 4461.4C4116.58 4455.43 4109.91 4447.86 4101.71 4442.14C4096.8 4438.74 4090.65 4437.67 4084.8 4437.95C4081.77 4438.1 4078.83 4438.7 4075.87 4439.29C4075.85 4439.25 4075.87 4439.18 4075.87 4439.16C4076.25 4435.83 4076.91 4432.56 4077.54 4429.25C4078.92 4422.01 4080.2 4414.66 4080.59 4407.29C4080.81 4403.17 4080.72 4399.02 4080.08 4394.93C4079.17 4389.16 4077.19 4383.7 4074.49 4378.52C4068.95 4367.8 4062.12 4357.86 4055.22 4347.99C4051.42 4342.55 4047.54 4337.18 4043.57 4331.85C4040.09 4327.2 4036.57 4322.56 4033.42 4317.71C4032.65 4316.35 4031.9 4314.95 4031.22 4313.56C4030.74 4312.36 4030.3 4311.19 4029.87 4309.97C4029.47 4308.43 4029.1 4306.88 4028.77 4305.3C4028.39 4302.42 4028.13 4299.55 4027.96 4296.65C4027.96 4295.76 4027.93 4294.88 4027.93 4293.98C4027.96 4287.47 4028.17 4280.98 4028.75 4274.48C4029.3 4268.04 4029.97 4261.59 4030.17 4255.16C4030.41 4248.56 4030.28 4241.85 4028.83 4235.4C4028.11 4232.2 4027.1 4229.18 4025.85 4226.17C4024.8 4223.63 4023.74 4221.1 4022.69 4218.56C4020.85 4213.8 4019.12 4209 4017.47 4204.18C4015.57 4198.71 4013.81 4193.14 4011.6 4187.75C4010.26 4184.53 4008.75 4181.41 4006.93 4178.45C4005.24 4175.73 4003.29 4173.12 4001.27 4170.6C3998.06 4166.61 3994.43 4163.05 3990.83 4159.41C3990.06 4158.54 3989.34 4157.68 3988.63 4156.76C3988.2 4156.12 3987.8 4155.47 3987.39 4154.81C3987.04 4154.06 3986.68 4153.3 3986.35 4152.51C3985.9 4151.23 3985.52 4149.92 3985.17 4148.6C3984.73 4146.19 3984.42 4143.8 3984.16 4141.35C3984.14 4140.91 3984.1 4140.45 3984.07 4140.01C3983.86 4135.93 3983.79 4131.81 3983.79 4127.73C3983.77 4123.05 3983.77 4118.3 3983.13 4113.65C3982.06 4106.17 3979.18 4099.11 3975.15 4092.77C3970.34 4085.18 3964.36 4078.4 3958.72 4071.43C3954.25 4065.93 3949.67 4060.51 3945.72 4054.63C3944.82 4053.12 3943.92 4051.56 3943.13 4049.96C3942.73 4049.1 3942.41 4048.19 3942.08 4047.31C3941.99 4047 3941.92 4046.69 3941.84 4046.37C3941.73 4045.53 3941.64 4044.68 3941.59 4043.86C3941.59 4042.9 3941.6 4041.96 3941.66 4041.03C3941.79 4039.59 3941.99 4038.18 3942.25 4036.74C3942.82 4034.32 3943.53 4031.93 3944.36 4029.57C3945.87 4025.46 3947.65 4021.47 3949.66 4017.53C3951.73 4013.62 3953.99 4009.81 3956 4005.82C3958.17 4001.56 3959.93 3996.91 3960.81 3992.17C3962.5 3983.21 3962.32 3973.95 3961.55 3964.91C3961.24 3961.34 3960.94 3957.77 3960.54 3954.24C3960.11 3950.51 3959.6 3946.78 3958.55 3943.16C3957.49 3939.43 3956 3935.84 3954.43 3932.3C3952.36 3927.65 3950.24 3923.01 3948.22 3918.31C3945.37 3911.3 3942.98 3904.13 3940.96 3896.86C3939.53 3891.16 3938.26 3885.42 3937.16 3879.63C3936.03 3873.81 3934.97 3867.94 3933.68 3862.13C3935.1 3862.52 3936.49 3862.9 3937.89 3863.35C3941.77 3864.52 3945.54 3866.19 3949.51 3867.26C3949.6 3867.28 3949.67 3867.28 3949.77 3867.3C3949.8 3867.3 3949.84 3867.3 3949.88 3867.3C3949.91 3867.3 3949.95 3867.3 3949.99 3867.3C3950.17 3867.24 3950.35 3867.19 3950.5 3867.15C3950.85 3866.95 3951.22 3866.76 3951.57 3866.56C3951.9 3866.32 3952.19 3866.1 3952.52 3865.85C3952.71 3865.66 3952.89 3865.46 3953.09 3865.28C3953.3 3865 3953.5 3864.74 3953.72 3864.47C3953.94 3864.1 3954.18 3863.71 3954.4 3863.31C3954.89 3862.22 3955.37 3861.16 3955.8 3860.07C3956.86 3856.93 3957.84 3853.71 3958.61 3850.46C3958.9 3848.95 3959.14 3847.45 3959.31 3845.94C3959.32 3845.53 3959.32 3845.13 3959.32 3844.72C3959.29 3844.43 3959.27 3844.15 3959.21 3843.88C3959.2 3843.77 3959.18 3843.66 3959.16 3843.57C3959.1 3843.46 3959.07 3843.38 3959.05 3843.27C3957.52 3840.4 3955.78 3837.68 3954.55 3834.65C3953.81 3832.85 3953.19 3830.99 3952.8 3829.06C3952.41 3827.22 3952.21 3825.46 3952.19 3823.57C3952.14 3820.85 3952.98 3818.14 3953.96 3815.64C3957.43 3806.49 3966.48 3801.14 3974.75 3796.82C3981.46 3793.35 3988.48 3790.44 3995.41 3787.45C4007.69 3782.1 4019.97 3776.66 4032.72 3772.5C4039.1 3770.42 4045.55 3768.64 4052.1 3767.12C4058.97 3765.52 4065.94 3764.36 4072.85 3763.05C4087.35 3760.13 4101.66 3756.58 4115.76 3752.1C4120.87 3750.33 4125.85 3748.42 4130.77 3746.2C4131.95 3745.59 4133.11 3744.95 4134.25 3744.27C4134.91 3743.81 4135.57 3743.31 4136.21 3742.81C4136.53 3742.54 4136.82 3742.24 4137.11 3741.95C4137.3 3741.75 4137.46 3741.53 4137.65 3741.31C4138 3740.7 4138.37 3740.11 4138.71 3739.52C4140.79 3735.06 4142.28 3730.31 4144.3 3725.83C4146.66 3720.63 4150.15 3715.68 4154.36 3711.8C4158.36 3708.11 4162.83 3705.04 4167.21 3701.82C4170.9 3699.14 4174.5 3696.31 4178.02 3693.37C4187.15 3685.5 4196.1 3677.49 4205.64 3670.15C4210.85 3666.14 4216.34 3662.56 4222.06 3659.32C4227.44 3656.22 4233.29 3653.77 4239.08 3651.55C4244.96 3649.31 4250.9 3647.21 4256.8 3644.99C4262.9 3642.67 4269.02 3640.34 4275.13 3638.07C4286.87 3633.68 4298.56 3629.2 4309.94 3623.92C4324.37 3616.71 4338.45 3608.72 4352.04 3599.97C4361.45 3593.68 4370.71 3586.64 4381.98 3584.14C4393.88 3581.49 4406.47 3581.18 4418.18 3585.06C4423.97 3586.97 4429.33 3589.67 4434.61 3592.73C4436.98 3594.09 4439.3 3595.69 4441.5 3597.3C4442.72 3598.2 4443.91 3599.12 4445.07 3600.06C4448.16 3602.56 4450.77 3605.45 4453.18 3608.57C4456.72 3613.18 4458.6 3619.01 4459.85 3624.62C4460.45 3627.41 4460.75 3630.24 4460.99 3633.11C4461.45 3638.48 4461.61 3643.94 4461.91 3649.32C4461.87 3648.79 4461.85 3648.26 4461.81 3647.74C4461.96 3650.3 4462.05 3652.87 4462.42 3655.43C4462.5 3655.7 4462.57 3656 4462.64 3656.27C4462.66 3656.35 4462.7 3656.42 4462.73 3656.49C4462.83 3656.66 4462.92 3656.81 4463.01 3656.97C4464.17 3658.61 4465.38 3660.17 4466.59 3661.73C4468.18 3663.79 4469.61 3665.96 4471.12 3668.06C4470.8 3667.69 4470.49 3667.32 4470.18 3666.93C4470.71 3667.63 4471.3 3668.31 4471.96 3668.92C4472.38 3669.21 4472.81 3669.49 4473.25 3669.73C4474.99 3670.56 4476.74 3671.33 4478.52 3672.08C4478.76 3672.17 4478.97 3672.28 4479.19 3672.39C4483.85 3673.18 4488.52 3673.92 4493.25 3674.36C4498.25 3674.75 4503.25 3674.87 4508.23 3675.1C4512.68 3675.26 4517.07 3675.68 4521.52 3675.55C4523.17 3675.37 4524.83 3675.15 4526.46 3674.89C4528.96 3674.32 4531.45 3673.68 4533.93 3672.93C4537.66 3671.6 4541.3 3670.13 4544.86 3668.42C4549.75 3665.92 4554.55 3663.26 4559.46 3660.79C4561.76 3659.64 4564.09 3658.48 4566.5 3657.61C4568.21 3656.99 4569.85 3656.49 4571.65 3656.22C4573.54 3655.94 4575.45 3655.87 4577.35 3655.81C4579.07 3655.68 4580.78 3655.46 4582.49 3655.22C4583.98 3654.89 4585.43 3654.53 4586.9 3654.12C4588.65 3653.48 4590.4 3652.78 4592.13 3652.06C4595.76 3650.21 4599.24 3648.2 4602.71 3646.03C4603.34 3645.63 4603.94 3645.21 4604.57 3644.8C4612.01 3645.96 4619.48 3646.92 4626.98 3647.5C4635.23 3648.17 4643.41 3648.17 4651.66 3647.6C4659.46 3647.04 4667.2 3645.85 4674.95 3644.89C4684.2 3643.74 4693.45 3642.95 4702.75 3642.49C4702.34 3642.5 4701.94 3642.52 4701.52 3642.54C4728.46 3641.29 4755.45 3642.21 4782.42 3642.38C4801.66 3642.52 4820.93 3641.59 4840.14 3640.08C4845.52 3639.64 4850.92 3639.18 4856.31 3638.66C4860.12 3638.31 4863.9 3637.96 4867.69 3637.41C4874.05 3636.47 4880.35 3635.19 4886.57 3633.59C4899.89 3630.11 4912.71 3625.04 4925.04 3618.96C4936.81 3613.17 4947.89 3606.29 4958.97 3599.27C4958.96 3599.27 4958.96 3599.27 4958.94 3599.29C4960.7 3598.2 4962.49 3597.16 4964.36 3596.22C4964.95 3595.98 4965.52 3595.76 4966.12 3595.56C4966.33 3595.5 4966.53 3595.45 4966.73 3595.39C4970.61 3597.52 4974.3 3600 4978.11 3602.21C4982.89 3604.95 4987.78 3607.5 4992.85 3609.64C4999.32 3612.34 5006.01 3614.16 5012.93 3615.21C5016.99 3615.85 5021.05 3616.31 5025.11 3616.9C5029.69 3617.54 5034.25 3618.29 5038.81 3619.1C5039.06 3619.16 5039.34 3619.2 5039.6 3619.25C5039.52 3619.23 5039.45 3619.23 5039.38 3619.21C5041.47 3619.75 5043.53 3620.39 5045.59 3621.09C5048.73 3622.25 5051.79 3623.57 5054.76 3625.1C5054.38 3624.89 5053.99 3624.71 5053.59 3624.51C5055.7 3625.63 5057.72 3626.82 5059.71 3628.15C5060.79 3628.94 5061.84 3629.75 5062.83 3630.63C5063.88 3631.64 5064.89 3632.71 5065.87 3633.83C5066.69 3634.88 5067.48 3635.92 5068.2 3637.06C5069.74 3639.64 5071.14 3642.28 5072.45 3645C5073.83 3648.04 5075.11 3651.11 5076.38 3654.18C5078.53 3659.43 5080.9 3664.56 5083.35 3669.69C5086.66 3676.57 5089.49 3683.55 5091.99 3690.74C5094.67 3698.7 5096.97 3706.77 5099.36 3714.84C5102.81 3726.42 5106.71 3737.93 5111.32 3749.12C5116.77 3762.28 5123.18 3774.93 5130.48 3787.13C5138.93 3801.32 5148.29 3814.98 5157.55 3828.66C5157.32 3828.31 5157.08 3827.96 5156.84 3827.61C5163.05 3836.82 5168.99 3846.18 5174.1 3856.07C5174.41 3856.71 5174.74 3857.37 5175.09 3858C5175.51 3858.86 5175.94 3859.74 5176.34 3860.64C5178.91 3866.19 5181.36 3871.8 5183.4 3877.57C5184.47 3880.96 5185.33 3884.36 5186.07 3887.83C5186.34 3889.32 5186.6 3890.79 5186.76 3892.28C5186.8 3893.2 5186.82 3894.14 5186.8 3895.05C5186.73 3896.12 5186.58 3897.19 5186.41 3898.27C5186.1 3899.74 5185.7 3901.21 5185.27 3902.66C5184.21 3905.84 5182.94 3908.91 5181.56 3911.97C5181.51 3912.08 5181.45 3912.2 5181.4 3912.33C5181.34 3912.44 5181.29 3912.57 5181.23 3912.68C5179.08 3917.09 5176.73 3921.4 5174.12 3925.57C5171.93 3928.91 5169.61 3932.15 5167.13 3935.26C5161.16 3942.41 5154.21 3948.77 5148.81 3956.38C5144.83 3961.96 5142.06 3968.25 5139.21 3974.45C5136.84 3979.63 5134.52 3984.83 5132.48 3990.14C5131.21 3993.42 5130 3996.72 5128.92 4000.07C5127.52 4004.35 5126.09 4008.73 5125.48 4013.2C5124.78 4018.32 5124.91 4023.67 5126.93 4028.49C5128.51 4032.26 5130.97 4035.25 5134.19 4037.7C5137.59 4040.27 5141.67 4042.04 5145.59 4043.58C5153.38 4046.6 5161.54 4048.53 5169.3 4051.69C5171.51 4052.64 5173.68 4053.71 5175.79 4054.89C5177.15 4055.71 5178.46 4056.6 5179.72 4057.55C5180.51 4058.18 5181.25 4058.87 5181.97 4059.56C5182.46 4060.09 5182.92 4060.66 5183.4 4061.21C5183.64 4061.54 5183.86 4061.91 5184.08 4062.24C5184.15 4062.39 5184.21 4062.51 5184.26 4062.62C5184.34 4062.85 5184.41 4063.05 5184.48 4063.27C5184.69 4064.17 5184.83 4065.07 5184.96 4065.97C5185.24 4068.91 5185.35 4071.87 5185.37 4074.81C5185.29 4082.05 5184.85 4089.26 5184.34 4096.48C5183.77 4103.87 5182.94 4111.28 5183.01 4118.73C5183.12 4131.81 5186.38 4144.63 5191.1 4156.78C5194.52 4165.51 5197.9 4174.26 5201.91 4182.71C5208.11 4195.78 5215.48 4208.28 5222.77 4220.77C5227.39 4228.63 5231.98 4236.54 5236.93 4244.18C5241.74 4251.63 5246.85 4258.82 5252.24 4265.84C5258.25 4273.72 5264.63 4281.3 5271.16 4288.78C5277.17 4295.65 5283.16 4302.51 5288.78 4309.7C5291.82 4313.78 5294.65 4317.99 5297.3 4322.33C5298.69 4324.79 5300.03 4327.31 5301.25 4329.88C5301.76 4331.17 5302.28 4332.47 5302.74 4333.8C5303.01 4334.77 5303.25 4335.78 5303.45 4336.79C5303.66 4338.28 5303.82 4339.77 5303.91 4341.26C5303.99 4344.14 5303.89 4347.03 5303.69 4349.92C5303.31 4354.09 5302.72 4358.24 5301.91 4362.34C5301.43 4364.55 5300.88 4366.72 5300.18 4368.87C5299.87 4369.66 5299.54 4370.47 5299.19 4371.26C5298.75 4372.03 5298.29 4372.8 5297.81 4373.56C5296.39 4375.56 5294.85 4377.47 5293.23 4379.35C5288.14 4384.92 5282.5 4389.97 5276.78 4394.9C5276.95 4394.77 5277.13 4394.62 5277.3 4394.48C5271.38 4399.57 5265.24 4404.49 5259.8 4410.1C5256.56 4413.41 5253.23 4416.83 5250.6 4420.65C5248.14 4424.18 5246.05 4427.84 5244.28 4431.77C5240.66 4439.92 5237.87 4448.43 5234.8 4456.81C5230.88 4467.43 5226.87 4478.02 5222.09 4488.3C5218.53 4495.76 5214.43 4502.93 5210.26 4510.02C5206.32 4516.73 5202.33 4523.42 5198.36 4530.12C5193.36 4538.5 5188.29 4546.83 5183.64 4555.41C5181.14 4560.02 5178.64 4564.66 5176.4 4569.42C5174.43 4573.63 5172.43 4577.85 5170.81 4582.21C5167.44 4591.14 5164.19 4600.5 5163.6 4610.11C5163.38 4613.68 5163.57 4617.34 5164.43 4620.83C5165 4623 5165.61 4625.15 5166.31 4627.32C5169.63 4637.5 5173.73 4647.48 5178.2 4657.23C5184.45 4670.96 5191.58 4684.32 5197.61 4698.16C5198.55 4700.37 5199.43 4702.61 5200.22 4704.89C5199.74 4705.15 5199.25 4705.41 5198.77 4705.65C5197.26 4706.33 5195.77 4706.95 5194.25 4707.52C5193.18 4707.87 5192.11 4708.15 5191.05 4708.42H5191.03C5190.96 4708.44 5190.86 4708.46 5190.79 4708.48C5187.13 4709.19 5183.44 4709.69 5179.8 4710.46C5180.11 4710.39 5180.44 4710.31 5180.75 4710.26C5180.42 4710.31 5180.05 4710.41 5179.72 4710.48C5179.67 4710.48 5179.61 4710.52 5179.52 4710.54C5179.58 4710.52 5179.67 4710.52 5179.72 4710.48C5179.74 4710.48 5179.8 4710.46 5179.8 4710.46C5177.15 4711.05 5174.58 4711.8 5172.11 4712.93C5171.19 4712.54 5170.26 4712.21 5169.32 4711.86C5166.95 4711.01 5164.56 4710.26 5162.15 4709.45C5159.06 4708.4 5155.96 4707.32 5152.87 4706.29C5146.53 4704.19 5140.11 4702.21 5133.77 4700.15C5128.95 4698.61 5124.12 4697.17 5119.39 4695.42C5116.56 4694.32 5113.75 4693.15 5111.03 4691.75C5102.96 4687.21 5095.77 4681.45 5088.16 4676.22C5083.99 4673.33 5079.6 4670.52 5074.93 4668.51C5068.38 4665.68 5061.47 4664.01 5054.4 4663.26C5041.91 4661.95 5029.32 4661.9 5016.8 4661.82C5006.86 4661.75 4996.91 4661.53 4986.97 4661.44C4983.33 4661.4 4979.65 4661.46 4976.05 4661.9C4972.3 4662.34 4968.86 4663.55 4965.52 4665.15C4965.54 4665.13 4965.57 4665.11 4965.61 4665.09C4965.57 4665.11 4965.52 4665.15 4965.48 4665.17C4965.17 4665.32 4964.89 4665.44 4964.6 4665.59C4964.78 4665.5 4964.97 4665.41 4965.17 4665.33C4959.89 4668.07 4955.35 4671.8 4951.27 4676.14C4948.42 4679.14 4945.85 4682.37 4942.85 4685.2C4942.28 4685.68 4941.71 4686.14 4941.14 4686.56C4940.65 4686.88 4940.17 4687.17 4939.67 4687.45C4939.12 4687.7 4938.57 4687.94 4938 4688.15C4937.15 4688.4 4936.31 4688.62 4935.46 4688.83C4933 4689.29 4930.46 4689.62 4927.96 4689.8C4920.56 4690.26 4913.13 4689.87 4905.72 4689.8C4897.73 4689.71 4889.75 4689.84 4881.77 4690.48C4881.94 4690.48 4882.08 4690.46 4882.25 4690.46C4872.01 4691.33 4861.73 4693 4852.01 4696.44C4845.3 4698.83 4838.65 4702.15 4834.16 4707.89C4832.29 4710.28 4830.67 4712.76 4829.34 4715.48C4828.06 4718.07 4826.99 4720.81 4826 4723.53C4824.12 4728.7 4822.69 4733.99 4820.91 4739.17C4820.26 4740.9 4819.57 4742.61 4818.79 4744.27C4818.33 4745.17 4817.84 4746.03 4817.3 4746.88C4816.99 4747.28 4816.68 4747.67 4816.39 4748.07C4816.29 4748.16 4816.22 4748.24 4816.13 4748.31C4815.91 4748.48 4815.72 4748.64 4815.5 4748.79C4815.19 4748.99 4814.84 4749.17 4814.51 4749.38C4814.22 4749.49 4813.92 4749.62 4813.63 4749.73C4813.46 4749.76 4813.3 4749.82 4813.15 4749.85C4812.86 4749.91 4812.56 4749.95 4812.27 4749.98C4811.88 4750 4811.5 4750.02 4811.09 4750C4810.63 4749.95 4810.15 4749.91 4809.69 4749.84C4809.05 4749.52 4808.52 4749.38 4807.97 4749.23Z"
        fill="#2D4159"/>
</svg>