<svg
    width="7773"
    height="7615"
    viewBox="0 0 7773 7615"
    fill="none"
    xmlns="http://www.w3.org/2000/svg">
    <path id="PT"
        d="M180.629 7072.2C173.827 7069.68 167.283 7066.26 161.64 7061.68C155.464 7056.7 150.372 7050.51 144.71 7044.96C140.556 7041.15 136.273 7037.6 131.751 7034.26C128.277 7031.91 124.747 7029.74 121.108 7027.68C115.17 7024.7 109.141 7022.05 102.983 7019.61C96.7884 7017.44 90.5754 7015.54 84.1968 7013.93C68.7376 7010.69 53.0209 7009.11 37.341 7007.31C31.1647 7006.59 24.8965 7006.15 18.7569 7005.01C14.6761 7004.26 10.9262 7002.79 7.87475 6999.9C3.11381 6995.4 1.47777 6988.87 1.05499 6982.53C0.613818 6975.38 1.3491 6967.83 3.22406 6960.9C4.76815 6955.25 6.91883 6950 9.89671 6944.96C12.5253 6940.53 15.9996 6936.58 19.5289 6932.81C25.6134 6926.28 32.6721 6920.68 39.7308 6915.22C46.3115 6910.14 53.0577 6905.29 59.7487 6900.36C62.2303 6898.53 64.6567 6896.63 67.1016 6894.7C70.2081 6892.07 73.2227 6889.39 76.1271 6886.52C77.7631 6884.68 79.3255 6882.83 80.8144 6880.86C81.8071 6879.37 82.7262 6877.85 83.6269 6876.28C84.3622 6874.74 85.0608 6873.18 85.7225 6871.6C86.4946 6869.24 87.1563 6866.87 87.7813 6864.48C88.4982 6860.84 89.0496 6857.26 89.4724 6853.58C89.6746 6849.83 89.7665 6846.1 89.6562 6842.35C88.9577 6833.1 87.2482 6824.04 86.274 6814.85C85.3365 6805.9 85.7225 6796.58 87.3952 6787.76C88.2776 6783.1 89.6011 6778.64 91.329 6774.21C93.1672 6769.54 95.6121 6765.15 98.2223 6760.86C102.708 6753.51 108.13 6746.71 113.222 6739.7C115.299 6736.71 117.284 6733.68 119.104 6730.5C119.931 6728.84 120.667 6727.15 121.365 6725.4C121.567 6724.69 121.806 6723.95 122.045 6723.2C121.917 6723.6 121.843 6724.01 121.751 6724.45C121.733 6724.59 121.696 6724.72 121.659 6724.87C121.714 6724.69 121.751 6724.52 121.788 6724.34C122.045 6723.25 122.247 6722.17 122.376 6721.08C122.358 6720.66 122.376 6720.22 122.376 6719.8C122.321 6719.45 122.248 6719.08 122.211 6718.75C122.192 6718.69 122.174 6718.62 122.156 6718.57C122.045 6718.25 121.917 6717.94 121.788 6717.63C121.623 6717.3 121.439 6716.97 121.237 6716.62C120.998 6716.25 120.74 6715.88 120.446 6715.53C120.06 6715.07 119.619 6714.61 119.196 6714.15C118.148 6713.23 117.101 6712.37 115.998 6711.53C113.718 6709.98 111.347 6708.6 108.957 6707.26C105.612 6705.68 102.285 6704.23 98.8656 6702.9C90.2812 6699.94 81.5131 6697.54 72.947 6694.52C68.3148 6692.89 63.8847 6690.9 59.6569 6688.35C55.7047 6685.96 52.3408 6682.98 48.9769 6679.83C44.8226 6676.03 40.5211 6672.43 36.2933 6668.73C32.2125 6665.18 28.2052 6661.53 24.8229 6657.28C23.6648 6655.85 22.5436 6654.32 21.6429 6652.68C19.4003 6648.6 18.7017 6643.55 20.1171 6639.05C21.1097 6635.88 22.5803 6633.02 24.3633 6630.24C25.3559 6628.73 26.3487 6627.21 27.2494 6625.64C27.9111 6624.32 28.4994 6622.96 29.0141 6621.55C29.8413 6619.16 30.5581 6616.71 31.1831 6614.23C31.4956 6612.78 31.7162 6611.29 31.8816 6609.8C32.0471 6607.56 32.2125 6605.31 32.4147 6603.07C32.3779 6603.6 32.3227 6604.16 32.286 6604.71C33.2602 6593.2 35.4661 6581.9 39.1241 6570.92C42.7637 6560.09 48.3151 6549.95 54.4914 6540.37C60.6862 6530.79 67.267 6521.51 74.2705 6512.52C81.0167 6503.85 88.8106 6495.89 96.384 6487.87C97.781 6486.4 99.1598 6484.91 100.557 6483.42C100.557 6483.44 100.557 6483.44 100.557 6483.44C100.594 6483.4 100.612 6483.39 100.63 6483.35C100.777 6483.18 100.943 6483.02 101.108 6482.85C101.09 6482.87 101.053 6482.91 101.035 6482.93C104.84 6478.86 108.645 6474.78 112.818 6471.09C117.781 6466.68 122.928 6462.52 128.277 6458.61C137.762 6451.66 148.019 6445.8 158.056 6439.69C160.85 6437.87 163.57 6436 166.217 6433.98C167.578 6432.78 168.901 6431.53 170.206 6430.26C171.015 6429.36 171.769 6428.44 172.541 6427.49C173.35 6426.27 174.122 6425.06 174.82 6423.79C175.408 6422.58 175.941 6421.33 176.456 6420.06C177.394 6417.19 178.184 6414.34 178.919 6411.4C180.059 6406.02 181.07 6400.58 182.614 6395.3C184.268 6389.66 186.29 6384.16 189.011 6378.92C191.879 6373.43 195.132 6368.19 198.864 6363.22C202.246 6358.7 205.83 6354.31 209.176 6349.75C210.536 6347.71 211.823 6345.65 213.036 6343.52C214.727 6340.08 216.18 6336.59 217.54 6332.97C217.374 6333.44 217.191 6333.94 217.025 6334.42C221.29 6322.6 225.591 6310.82 229.58 6298.92C233.698 6286.7 238.146 6274.49 243.992 6262.97C246.914 6257.25 249.911 6251.61 252.925 6245.95C256.179 6239.9 259.488 6233.96 263.293 6228.26C270.241 6217.84 279.8 6209.68 288.494 6200.78C289.799 6199.27 291.049 6197.77 292.281 6196.2C293.292 6194.66 294.266 6193.1 295.204 6191.48C296.582 6188.69 297.796 6185.86 298.899 6182.99C301.104 6176.59 302.924 6170.16 304.468 6163.58C305.884 6157.18 307.115 6150.76 308.457 6144.33C309.854 6137.64 311.067 6130.95 311.784 6124.15C311.987 6120.51 312.042 6116.9 311.913 6113.25C311.582 6109.35 311.141 6105.51 310.553 6101.65C308.825 6092.53 306.307 6083.67 303.807 6074.72C301.362 6066.13 298.88 6057.27 298.494 6048.3C298.09 6039.24 299.45 6030.03 302.722 6021.52C304.34 6017.29 306.251 6013.21 308.604 6009.33C309.579 6007.7 310.571 6006.08 311.582 6004.46C318.586 6004.68 325.571 6004.83 332.593 6004.3C341.435 6003.62 350.276 6002.53 359.008 6000.93C367.996 5999.3 376.838 5997.16 385.845 5995.79C390.845 5995.12 395.845 5994.65 400.882 5994.57C400.477 5994.59 400.055 5994.57 399.65 5994.61C404.558 5994.57 409.485 5994.98 414.374 5995.11C418.143 5995.22 421.892 5995.29 425.642 5995.77C426.488 5995.91 427.334 5996.04 428.179 5996.23C428.106 5996.61 428.014 5996.94 427.922 5997.31C427.37 5998.89 426.782 6000.4 426.139 6001.94C423.29 6008.21 420.036 6014.31 416.874 6020.45C415.312 6023.47 413.768 6026.52 412.242 6029.55C410.735 6032.59 408.86 6035.8 408.327 6039.2C407.904 6041.98 407.683 6044.99 408.694 6047.68C409.521 6049.79 410.496 6051.72 411.893 6053.52C413.418 6055.49 415.312 6057.11 417.352 6058.47C423.161 6062.31 429.503 6065.1 436.231 6066.85C441.855 6068.27 447.443 6069.44 453.215 6070.03C458.62 6070.58 464.024 6071.1 469.465 6071.22C480.623 6071.5 491.873 6070.8 503.031 6070.29C513.177 6069.81 523.306 6069.31 533.416 6068.52C538.545 6068.12 543.673 6067.57 548.765 6066.83C553.673 6066.1 558.544 6065.4 563.471 6065.01C565.199 6064.9 566.945 6064.88 568.691 6064.9C571.136 6065.07 573.581 6065.31 575.989 6065.71C577.459 6066.04 578.93 6066.41 580.364 6066.83C581.687 6067.29 582.974 6067.81 584.261 6068.38C585.419 6068.98 586.54 6069.64 587.625 6070.34C591.448 6073.01 594.922 6076.08 598.507 6079C603.102 6082.7 607.588 6086.83 612.937 6089.44C616.172 6091 619.37 6092.47 622.808 6093.6C625.657 6094.55 628.708 6095.6 631.705 6095.84C638.432 6096.41 645.197 6095.64 651.925 6095.21C651.851 6095.21 651.778 6095.23 651.723 6095.23C651.851 6095.21 651.98 6095.21 652.109 6095.21C652.145 6095.21 652.182 6095.21 652.219 6095.21C652.623 6095.2 653.028 6095.18 653.451 6095.14C653.322 6095.14 653.175 6095.16 653.046 6095.16C658.726 6094.85 664.425 6094.44 670.086 6094.75C671.814 6094.9 673.524 6095.12 675.215 6095.43C676.097 6095.64 676.943 6095.88 677.788 6096.13C678.027 6096.22 678.248 6096.32 678.487 6096.41C678.524 6096.46 678.56 6096.5 678.579 6096.54C678.652 6096.68 678.707 6096.81 678.781 6096.94C678.836 6097.09 678.891 6097.22 678.946 6097.38C679.02 6097.64 679.093 6097.92 679.167 6098.21C679.277 6099.06 679.351 6099.86 679.424 6100.71C679.406 6101.96 679.388 6103.17 679.332 6104.42C678.652 6112.12 677.09 6119.72 675.601 6127.29C675.674 6126.89 675.766 6126.46 675.84 6126.06C674.369 6133.56 672.752 6141.08 672.255 6148.7C672.255 6148.83 672.237 6148.98 672.237 6149.13C672.219 6149.4 672.2 6149.66 672.2 6149.94C672.219 6149.75 672.219 6149.57 672.237 6149.39C672.145 6151.7 672.237 6153.89 672.807 6156.17C673.744 6159.86 676.557 6162.8 679.461 6165.1C682.273 6167.29 685.307 6169.02 688.542 6170.47C693.413 6172.66 698.633 6173.89 703.725 6175.43C703.597 6175.4 703.468 6175.34 703.321 6175.3C703.486 6175.34 703.652 6175.41 703.799 6175.45C703.964 6175.52 704.148 6175.58 704.314 6175.62C704.185 6175.58 704.075 6175.54 703.946 6175.51C704.314 6175.63 704.7 6175.76 705.086 6175.91C705.178 6176.17 705.306 6176.43 705.398 6176.68C705.674 6177.56 705.931 6178.47 706.133 6179.38C706.464 6181.22 706.777 6183.08 706.997 6184.95C707.163 6186.63 707.273 6188.3 707.31 6189.97C707.31 6191.17 707.255 6192.36 707.144 6193.58C707.126 6193.65 707.126 6193.74 707.108 6193.83C707.089 6193.83 707.089 6193.85 707.089 6193.87C706.813 6194.18 706.538 6194.48 706.262 6194.77C705.711 6195.29 705.141 6195.8 704.534 6196.3C703.008 6197.42 701.446 6198.45 699.865 6199.42C695.417 6201.83 690.84 6203.87 686.226 6205.93C681.961 6207.84 677.752 6209.84 673.56 6211.92C668.891 6214.22 664.259 6216.55 659.627 6218.92C655.638 6220.93 651.686 6223.06 647.624 6224.97C646.282 6225.51 644.958 6225.98 643.598 6226.41C637.973 6227.95 632.311 6229.4 626.742 6231.18C615.455 6234.81 604.665 6240.34 594.849 6246.96C586.889 6252.32 578.801 6258.48 574.224 6267.12C571.485 6272.29 569.629 6277.95 568.507 6283.67C567.423 6289.22 566.816 6294.81 566.081 6300.39C564.629 6311.22 562.331 6321.85 559.739 6332.45C559.776 6332.32 559.831 6332.18 559.849 6332.05C559.298 6334.29 558.765 6336.5 558.195 6338.72C558.287 6338.32 558.397 6337.89 558.489 6337.47C557.147 6343.02 555.769 6348.61 554.849 6354.23C553.838 6360.36 553.122 6366.5 552.625 6372.65C552.202 6378.19 551.798 6383.72 551.577 6389.27C551.375 6394.45 551.339 6399.66 550.934 6404.82C550.714 6406.51 550.419 6408.2 550.052 6409.9C549.941 6410.24 549.831 6410.59 549.721 6410.96C549.666 6411.05 549.611 6411.16 549.555 6411.27C549.482 6411.38 549.408 6411.48 549.335 6411.59C549.206 6411.73 549.096 6411.86 548.986 6412.01C548.839 6412.14 548.673 6412.28 548.526 6412.41C547.938 6412.82 547.386 6413.19 546.817 6413.57C545.53 6414.29 544.243 6414.97 542.92 6415.59C541.026 6416.33 539.023 6416.83 537.166 6417.65C534.151 6418.96 531.431 6420.43 528.839 6422.49C524.519 6425.96 521.321 6431.03 518.821 6435.96C517.019 6439.47 515.512 6443.24 514.85 6447.16C514.281 6450.54 514.262 6453.81 514.758 6457.21C515.383 6460.59 516.633 6463.74 518.343 6466.75C520.199 6469.99 522.148 6473.17 524.06 6476.38C524.005 6476.29 523.949 6476.2 523.913 6476.13C524.005 6476.27 524.078 6476.42 524.152 6476.55C524.152 6476.55 524.152 6476.57 524.17 6476.57C524.188 6476.6 524.207 6476.62 524.225 6476.66C524.317 6476.82 524.409 6476.99 524.501 6477.14C524.501 6477.15 524.519 6477.15 524.519 6477.17C524.519 6477.19 524.538 6477.21 524.556 6477.23C524.556 6477.21 524.538 6477.19 524.519 6477.17V6477.15C524.593 6477.28 524.666 6477.43 524.74 6477.56C524.832 6477.72 524.924 6477.87 525.015 6478.04C524.96 6477.96 524.905 6477.87 524.85 6477.78C525.953 6479.65 526.982 6481.55 527.902 6483.53C528.085 6483.99 528.251 6484.45 528.398 6484.89C528.435 6485.1 528.49 6485.3 528.526 6485.5C528.563 6485.87 528.6 6486.24 528.6 6486.6C528.6 6486.62 528.6 6486.64 528.582 6486.66C528.582 6486.49 528.582 6486.31 528.563 6486.13C528.563 6486.44 528.545 6486.77 528.526 6487.08C528.416 6487.71 528.306 6488.33 528.196 6488.97C527.791 6490.41 527.368 6491.84 526.872 6493.24C526.523 6494.05 526.137 6494.86 525.732 6495.67C524.85 6497.12 523.931 6498.53 522.957 6499.91C521.486 6501.77 519.905 6503.53 518.269 6505.24C515.071 6508.33 511.542 6511.05 508.067 6513.83C504.612 6516.62 501.192 6519.41 497.7 6522.15C495.972 6523.5 494.207 6524.84 492.351 6526.01C491.946 6526.23 491.56 6526.42 491.156 6526.62C490.752 6526.77 490.347 6526.91 489.924 6527.04C489.207 6527.23 488.49 6527.39 487.774 6527.54C486.248 6527.74 484.704 6527.87 483.16 6527.93C476.855 6527.87 470.568 6527.25 464.281 6526.58C464.704 6526.64 465.127 6526.68 465.55 6526.71C458.087 6525.9 450.697 6524.8 443.344 6523.44C439.521 6522.74 435.716 6522.08 431.874 6521.55C429.962 6521.29 428.087 6521.05 426.175 6520.85C424.466 6520.67 422.701 6520.48 420.973 6520.65C417.61 6520.96 414.062 6521.88 411.249 6523.88C409.374 6525.24 407.555 6526.71 406.249 6528.66C405.367 6530.02 404.54 6531.36 403.86 6532.85C401.691 6537.54 401.617 6543.15 402.426 6548.22C403.492 6554.91 406.727 6560.81 410.018 6566.62C412.334 6570.81 414.393 6575.08 416.268 6579.45C417.426 6582.39 418.455 6585.37 419.337 6588.4C419.595 6589.36 419.834 6590.31 420.018 6591.29C420.091 6591.99 420.146 6592.67 420.183 6593.37C420.146 6595.48 420.036 6597.56 419.852 6599.63C419.429 6603.33 418.694 6606.99 418.363 6610.68C417.959 6615.26 418.584 6619.6 419.944 6623.97C421.929 6630.52 425.017 6636.75 427.903 6642.92C430.679 6648.9 433.951 6654.6 438.326 6659.54C441.561 6663.24 445.385 6666.36 448.767 6669.89C449.907 6671.16 451.028 6672.43 452.057 6673.79C452.26 6674.06 452.425 6674.32 452.609 6674.6C452.866 6675.09 453.087 6675.59 453.307 6676.1C453.528 6676.73 453.73 6677.35 453.932 6678C454.043 6678.42 454.135 6678.86 454.226 6679.28C454.3 6679.89 454.337 6680.5 454.374 6681.12C454.355 6681.49 454.355 6681.84 454.355 6682.21C454.318 6682.35 454.263 6682.5 454.208 6682.63C454.098 6682.9 453.969 6683.16 453.84 6683.44C453.436 6684.1 453.013 6684.72 452.59 6685.35C450.697 6687.76 448.638 6690.04 446.506 6692.28C442.995 6695.86 439.411 6699.32 435.55 6702.52C432.922 6704.6 430.256 6706.62 427.444 6708.44C424.429 6710.18 421.323 6711.71 418.234 6713.29C414.705 6715.11 411.268 6717.15 407.977 6719.37C401.819 6723.57 395.661 6727.9 390.239 6733.03C387.298 6735.79 384.522 6738.79 382.169 6742.06C381.121 6743.53 380.073 6745 379.228 6746.58C378.143 6748.55 377.224 6750.55 376.324 6752.61C374.283 6757.35 372.408 6762.13 371.434 6767.2C370.276 6773.14 370.735 6779.45 371.71 6785.38C372.206 6788.42 372.757 6791.47 373.75 6794.39C374.632 6796.96 375.533 6799.54 376.563 6802.06C378.585 6807.07 380.717 6812.04 383.456 6816.74C385.515 6820.24 387.959 6823.51 390.772 6826.45C393.658 6829.54 396.801 6832.41 399.834 6835.36C399.54 6835.07 399.227 6834.78 398.933 6834.5C401.819 6837.33 404.669 6840.18 407.481 6843.1C409.374 6845.05 411.268 6846.98 413.032 6849.06C413.124 6849.19 413.235 6849.32 413.345 6849.45C413.345 6850.05 413.327 6850.66 413.308 6851.27C413.216 6852.13 413.087 6853.01 412.977 6853.86C412.389 6856.5 411.709 6859.1 410.9 6861.69C409.944 6864.46 408.878 6867.22 407.665 6869.9C406.801 6871.69 405.882 6873.42 404.852 6875.07C404.172 6876.06 403.455 6877.02 402.702 6877.94C401.966 6878.75 401.194 6879.54 400.386 6880.31C400.036 6880.62 399.65 6880.93 399.264 6881.21C399.172 6881.23 399.099 6881.26 399.025 6881.3C395.845 6881.45 392.665 6881.12 389.485 6881.17C386.011 6881.25 382.463 6881.5 379.044 6882.22C372.316 6883.64 365.644 6885.51 359.357 6888.29C355.901 6889.83 352.482 6891.47 349.339 6893.58C346.6 6895.4 343.843 6897.31 341.582 6899.7C337.115 6904.37 333.181 6909.52 328.549 6914.04C324.064 6918.08 319.247 6921.8 314.376 6925.36C314.339 6925.38 314.321 6925.4 314.284 6925.42C309.284 6928.98 304.156 6932.29 299.064 6935.69C293.862 6939.19 289.413 6943.58 285.994 6948.86C284.561 6951.04 283.384 6953.36 282.355 6955.77C281.454 6957.81 280.553 6959.88 279.947 6962.02C278.531 6966.83 277.833 6971.85 277.612 6976.87C277.355 6982.42 277.465 6988.01 277.557 6993.54C277.667 6999.24 277.851 7004.92 278.072 7010.62C278.568 7022.51 279.285 7034.41 279.634 7046.32C279.763 7050.65 279.873 7054.99 279.91 7059.35C271.693 7061 263.476 7061.87 255.094 7061.96C247.613 7062.03 240.168 7061.39 232.687 7061.57C230.903 7061.68 229.102 7061.83 227.319 7062.07C226.161 7062.31 225.04 7062.58 223.918 7062.9C223.091 7063.21 222.282 7063.5 221.455 7063.83C220.242 7064.42 219.102 7065.07 217.963 7065.76C214.158 7068.26 210.5 7071.17 206.272 7072.92C201.014 7075.07 195.5 7075.43 190.059 7074.64C186.915 7074.24 183.717 7073.36 180.629 7072.2Z"
        fill="#2D4159"/>
</svg>