<svg
    width="7773"
    height="7615"
    viewBox="0 0 7773 7615"
    fill="none"
    xmlns="http://www.w3.org/2000/svg">
    <path id="RO"
        d="M5453.63 5779.89C5453.74 5779.39 5453.87 5778.88 5454.02 5778.36C5455.99 5772.06 5459.41 5765.81 5459.06 5759.06C5458.85 5755.29 5457.79 5751.82 5455.67 5748.7C5454.3 5746.65 5452.71 5744.8 5451.04 5743C5451.04 5743 5451.04 5743 5451.04 5743.02C5451.08 5743.05 5451.12 5743.09 5451.15 5743.11C5451.12 5743.07 5451.08 5743.03 5451.04 5743.02C5451.02 5743 5451.02 5742.98 5451.01 5742.98C5450.99 5742.94 5450.93 5742.89 5450.89 5742.85C5450.88 5742.83 5450.86 5742.81 5450.82 5742.79C5450.67 5742.63 5450.53 5742.46 5450.4 5742.33C5450.55 5742.5 5450.67 5742.63 5450.82 5742.79C5448.23 5740.13 5445.44 5737.72 5442.42 5735.53C5439.53 5733.44 5436.54 5731.51 5433.69 5729.38C5431.24 5727.41 5428.98 5725.28 5426.78 5723.02C5420.42 5716.29 5414.63 5709.05 5408.06 5702.52C5405.22 5699.67 5402.24 5696.95 5399.15 5694.34C5397.11 5692.63 5395.01 5690.96 5393.05 5689.14C5393.06 5688.83 5393.1 5688.53 5393.12 5688.26C5393.21 5687.61 5393.34 5687.01 5393.47 5686.38C5393.69 5685.59 5393.95 5684.84 5394.22 5684.06C5396.37 5679.01 5399.68 5674.43 5400.22 5668.79C5400.42 5666.44 5400.31 5663.99 5400.03 5661.64C5399.74 5658.94 5399.37 5656.29 5398.67 5653.68C5398.05 5651.23 5397.16 5648.94 5396.01 5646.71C5394.72 5644.29 5393.29 5641.79 5391.45 5639.74C5389.2 5637.21 5386.7 5634.93 5383.8 5633.16C5380.77 5631.33 5377.61 5629.78 5374.35 5628.4C5368.34 5625.87 5361.96 5624.23 5355.51 5623.24C5349.35 5622.3 5343.21 5622.21 5337.05 5622.94C5330.99 5623.68 5324.7 5624.97 5319.17 5627.67C5312.07 5631.16 5305.49 5635.59 5298.93 5639.98C5293.51 5643.57 5288.07 5647.19 5282.39 5650.42C5281.93 5650.63 5281.5 5650.83 5281.05 5651.03C5277.17 5652.47 5273.31 5653.81 5269.3 5654.85C5267 5655.39 5264.67 5655.81 5262.31 5656.16C5260.97 5656.29 5259.63 5656.38 5258.27 5656.42C5257.09 5656.38 5255.9 5656.31 5254.74 5656.16C5253.84 5656.03 5252.96 5655.87 5252.06 5655.66C5251.08 5655.37 5250.09 5655.02 5249.15 5654.65C5248.18 5654.23 5247.24 5653.73 5246.32 5653.24C5244.02 5651.84 5241.89 5650.26 5239.76 5648.62C5240.11 5648.88 5240.46 5649.14 5240.81 5649.41C5237.65 5646.97 5234.52 5644.52 5231.41 5642.02C5228.53 5639.71 5225.59 5637.43 5222.9 5634.86C5219.48 5631.58 5216.14 5628.2 5212.7 5624.95C5209.83 5622.28 5206.95 5619.65 5204.19 5616.86C5202.92 5615.48 5201.69 5614.05 5200.55 5612.56C5200.13 5611.95 5199.72 5611.34 5199.34 5610.7C5199.15 5610.35 5199.01 5609.98 5198.84 5609.62C5198.73 5609.23 5198.6 5608.84 5198.49 5608.46C5198.34 5607.69 5198.22 5606.9 5198.11 5606.12C5197.81 5602.17 5197.88 5598.27 5197.94 5594.32C5197.98 5590.08 5197.87 5585.85 5197.48 5581.62C5196.74 5573.35 5194.34 5565 5189.74 5558.04C5188.09 5555.5 5186.29 5552.96 5183.86 5551.09C5181.82 5549.51 5179.59 5548.24 5177.19 5547.32C5172.76 5545.67 5168.18 5544.49 5163.58 5543.48C5150.86 5540.68 5137.85 5539.14 5125.06 5536.68C5118.81 5535.48 5112.46 5534.38 5106.38 5532.5C5103.86 5531.66 5101.47 5530.61 5099.04 5529.49C5095.46 5527.73 5091.95 5525.81 5088.55 5523.68C5088.49 5523.64 5088.44 5523.61 5088.38 5523.57C5088.44 5523.61 5088.48 5523.63 5088.53 5523.66C5088.48 5523.63 5088.42 5523.59 5088.36 5523.55C5086.43 5522.23 5084.56 5520.83 5082.76 5519.32C5081.99 5518.63 5081.23 5517.89 5080.53 5517.14C5079.54 5515.92 5078.59 5514.67 5077.7 5513.42C5073.55 5507.01 5070.35 5500.02 5066.84 5493.24C5063.44 5486.6 5059.47 5480.39 5055.22 5474.27C5051.31 5468.65 5047.48 5462.93 5043.18 5457.56C5039.14 5452.51 5034.76 5447.73 5031.03 5442.43C5028.4 5438.41 5025.99 5434.25 5023.31 5430.26C5023.57 5430.63 5023.81 5430.98 5024.06 5431.35C5020.87 5426.57 5017.45 5421.92 5013.18 5418.04C5008.59 5413.83 5003.05 5410.61 4997.3 5408.3C4992.04 5406.16 4986.53 5404.86 4980.9 5403.98C4978.84 5403.65 4976.75 5403.41 4974.67 5403.17C4974.27 5403.11 4973.86 5403.08 4973.46 5403.02C4976.27 5402.18 4979.07 5401.24 4981.77 5400.06C4985.02 5398.66 4988.2 5397.08 4991.4 5395.6C4991.38 5395.6 4991.38 5395.61 4991.34 5395.63C4991.49 5395.56 4991.62 5395.5 4991.77 5395.43C4991.75 5395.43 4991.73 5395.45 4991.71 5395.45C4991.95 5395.34 4992.19 5395.23 4992.45 5395.12C4992.45 5395.12 4992.45 5395.12 4992.43 5395.12C4992.5 5395.1 4992.58 5395.06 4992.63 5395.03C4992.65 5395.03 4992.67 5395.01 4992.69 5395.01C4992.76 5394.95 4992.83 5394.93 4992.89 5394.92C4993.07 5394.82 4993.26 5394.75 4993.44 5394.66C5000.65 5391.39 5007.91 5388.26 5015.02 5384.77C5018.77 5382.89 5022.39 5380.78 5025.83 5378.35C5028.88 5376.18 5031.8 5373.87 5034.93 5371.81C5034.95 5371.79 5034.97 5371.77 5035 5371.75C5035.06 5371.72 5035.09 5371.68 5035.15 5371.66C5036.23 5371.02 5037.32 5370.43 5038.44 5369.9C5039.47 5369.46 5040.5 5369.07 5041.58 5368.72C5042.72 5368.41 5043.88 5368.13 5045.04 5367.91C5045.11 5367.91 5045.19 5367.89 5045.28 5367.89C5048.24 5367.53 5051.2 5367.43 5054.17 5367.16C5058.02 5366.79 5061.88 5366.11 5065.59 5365.04C5070.15 5363.74 5074.49 5361.88 5078.53 5359.38C5080.81 5357.99 5082.85 5356.29 5084.85 5354.55C5086.67 5352.93 5088.13 5351.02 5089.5 5349.05C5089.41 5349.22 5089.28 5349.36 5089.19 5349.55C5089.38 5349.27 5089.58 5348.96 5089.78 5348.68C5089.84 5348.61 5089.89 5348.56 5089.93 5348.46C5089.93 5348.46 5089.93 5348.46 5089.93 5348.48C5093.05 5343.83 5095.63 5338.78 5097.15 5333.37C5098.81 5327.45 5098.27 5320.98 5097.54 5314.97C5096.51 5306.59 5095.17 5298.26 5094.8 5289.82C5094.8 5289.71 5094.8 5289.57 5094.8 5289.46C5094.76 5287.2 5094.8 5284.97 5095 5282.71C5095.06 5282.36 5095.11 5281.99 5095.17 5281.65C5095.22 5281.55 5095.26 5281.48 5095.31 5281.41C5095.85 5280.78 5096.38 5280.16 5096.95 5279.57C5099.27 5277.25 5101.67 5275.03 5103.99 5272.71C5103.99 5272.71 5103.99 5272.73 5103.97 5272.73C5104.03 5272.67 5104.08 5272.62 5104.14 5272.56C5104.16 5272.55 5104.17 5272.53 5104.19 5272.51C5107.52 5269.05 5110.61 5265.4 5113 5261.19C5116.18 5255.62 5117.87 5249.57 5119.43 5243.37C5120.68 5238.41 5121.75 5233.39 5122.61 5228.34C5123.11 5225.51 5123.6 5222.66 5123.88 5219.79C5124.06 5217.8 5124.25 5215.8 5124.52 5213.85C5124.71 5212.71 5124.94 5211.57 5125.24 5210.45C5125.53 5209.61 5125.85 5208.78 5126.19 5207.93C5126.23 5207.9 5126.23 5207.86 5126.25 5207.82C5126.21 5207.91 5126.16 5208.01 5126.12 5208.12C5126.67 5206.98 5127.26 5205.87 5127.9 5204.79C5131.34 5199.39 5135.37 5194.37 5139.36 5189.33C5143.29 5184.35 5147.1 5179.28 5150.46 5173.91C5153.29 5169.4 5155.53 5164.48 5157.3 5159.5C5158.35 5156.61 5159.28 5153.71 5160.04 5150.77C5160.86 5147.53 5161.56 5144.2 5161.69 5140.88C5161.86 5135.42 5161.03 5129.96 5160.39 5124.57C5159.8 5119.5 5159.32 5114.48 5159.17 5109.39C5159.12 5106.1 5159.19 5102.81 5159.47 5099.52C5159.74 5097.27 5160.07 5095.05 5160.57 5092.83C5161.1 5090.9 5161.67 5088.98 5162.33 5087.13C5163.58 5084.08 5165.04 5081.12 5166.56 5078.19C5166.6 5078.14 5166.62 5078.06 5166.65 5078.01C5166.69 5077.94 5166.73 5077.88 5166.76 5077.81C5171.97 5068.41 5177.55 5059.19 5182.35 5049.57C5184.89 5044.52 5187.28 5039.41 5189.19 5034.09C5190.2 5031.28 5190.92 5028.41 5191.49 5025.47C5191.89 5023.29 5192.13 5021.08 5192.61 5018.91C5192.9 5017.92 5193.22 5016.93 5193.55 5015.95C5194.02 5014.85 5194.54 5013.76 5195.09 5012.7C5195.88 5011.32 5196.74 5009.98 5197.65 5008.67C5198.84 5007.13 5200.07 5005.62 5201.4 5004.21C5203.03 5002.53 5204.72 5000.97 5206.49 4999.48C5207.65 4998.62 5208.8 4997.83 5210.02 4997.04C5211.03 4996.47 5212.02 4995.88 5213.05 4995.36C5222.83 4990.29 5232.85 4985.73 5242.83 4981.12C5248.07 4978.69 5253.32 4976.3 5258.55 4973.86C5261.25 4972.59 5264.06 4971.32 5266.49 4969.54C5268.64 4967.96 5270.44 4966.04 5271.8 4963.73C5272.57 4962.39 5273.2 4960.99 5273.77 4959.54C5273.73 4959.68 5273.67 4959.81 5273.64 4959.96C5273.71 4959.76 5273.77 4959.56 5273.86 4959.37C5273.93 4959.21 5273.99 4959.04 5274.04 4958.89C5274 4958.97 5273.99 4959.04 5273.95 4959.11C5275.51 4954.85 5276.61 4950.46 5277.72 4946.08C5278.25 4943.99 5278.75 4941.89 5279.21 4939.78C5279.5 4939.72 5279.81 4939.67 5280.11 4939.63C5285.66 4938.58 5290.71 4936.27 5295.75 4933.77C5295.38 4933.95 5295 4934.13 5294.63 4934.32C5301.76 4930.75 5308.78 4926.93 5315.88 4923.32C5319.21 4921.73 5322.55 4920.26 5326.03 4919.01C5328.49 4918.2 5330.97 4917.52 5333.53 4916.95C5336.45 4916.38 5339.37 4915.99 5342.33 4915.77C5341.93 4915.81 5341.48 4915.84 5341.08 4915.88C5342.86 4915.75 5344.63 4915.66 5346.43 4915.7C5346.91 4915.71 5347.4 4915.77 5347.86 4915.83C5354.59 4916.54 5361.28 4917.72 5367.96 4918.88C5372.97 4919.76 5378.03 4920.64 5383.08 4921.34C5390.66 4922.37 5398.21 4923.25 5405.82 4923.47C5412.44 4923.69 5419.06 4923.62 5425.69 4923.25C5440.2 4922.46 5454.79 4920.86 5468.85 4917.17C5475.05 4915.53 5481.15 4913.53 5487.18 4911.32C5492.51 4909.35 5497.7 4907.02 5503.04 4905.11C5505.67 4904.24 5508.34 4903.51 5511.02 4902.87C5513.1 4902.48 5515.16 4902.17 5517.25 4901.95C5518.39 4901.89 5519.55 4901.85 5520.71 4901.87C5521.19 4901.95 5521.67 4902 5522.14 4902.04C5522.84 4902.2 5523.5 4902.35 5524.17 4902.53C5525.05 4902.85 5525.89 4903.21 5526.72 4903.6C5527.66 4904.08 5528.54 4904.63 5529.44 4905.2C5540.49 4912.85 5550.75 4921.69 5562.27 4928.69C5568.37 4932.39 5574.9 4935.37 5582.14 4935.48C5585.34 4935.53 5588.52 4935.09 5591.5 4933.89C5593.23 4933.2 5594.77 4932.41 5596.33 4931.49C5596.33 4931.49 5596.33 4931.49 5596.31 4931.49C5596.39 4931.47 5596.46 4931.43 5596.5 4931.38C5596.52 4931.36 5596.55 4931.36 5596.55 4931.36C5596.63 4931.3 5596.72 4931.25 5596.81 4931.19C5596.79 4931.21 5596.79 4931.21 5596.76 4931.23C5598.76 4929.92 5600.69 4928.55 5602.36 4926.84C5604.49 4924.69 5606.31 4922.39 5608.06 4919.92C5609.83 4917.46 5611.41 4914.87 5612.97 4912.28C5616.66 4906.08 5620.03 4899.7 5624.18 4893.8C5625.8 4891.65 5627.53 4889.59 5629.38 4887.61C5631.96 4885 5634.71 4882.59 5637.6 4880.31C5641.81 4877.17 5646.26 4874.37 5650.84 4871.76C5656.55 4868.64 5662.47 4865.92 5668.59 4863.6C5674.81 4861.38 5681.11 4859.48 5687.49 4857.72C5693.35 4856.07 5699.24 4854.5 5705.01 4852.5C5716.17 4848.58 5727.18 4843.99 5736.86 4837.13C5740.48 4834.56 5744.07 4831.69 5746.77 4828.11C5749.2 4824.93 5751 4821.27 5752.3 4817.5C5753.76 4813.35 5754.8 4809.08 5755.85 4804.82C5756.97 4800.15 5758.17 4795.57 5759.64 4791.01C5760.85 4787.54 5762.23 4784.15 5763.85 4780.85C5765.17 4778.29 5766.59 4775.81 5768.13 4773.38C5768.98 4772.21 5769.84 4771.07 5770.76 4769.95C5771.37 4769.3 5771.99 4768.68 5772.65 4768.09C5773.08 4767.78 5773.48 4767.46 5773.9 4767.15C5774.56 4766.75 5775.21 4766.38 5775.89 4766.01C5777.95 4765.09 5780.06 4764.3 5782.21 4763.57C5781.97 4763.64 5781.73 4763.71 5781.48 4763.79C5784.23 4762.91 5786.97 4762.15 5789.77 4761.56C5791.38 4761.25 5793 4761.03 5794.64 4760.92C5795.28 4760.9 5795.92 4760.9 5796.57 4760.92C5797.03 4760.98 5797.47 4761.03 5797.93 4761.1C5798.24 4761.18 5798.55 4761.25 5798.85 4761.36C5799.11 4761.45 5799.33 4761.56 5799.58 4761.65C5799.77 4761.77 5799.91 4761.86 5800.1 4761.97C5800.3 4762.13 5800.5 4762.32 5800.72 4762.48C5801.07 4762.81 5801.38 4763.14 5801.73 4763.49C5802.12 4763.99 5802.49 4764.49 5802.84 4765C5803.3 4765.72 5803.68 4766.45 5804.07 4767.22C5805.41 4770.33 5806.38 4773.57 5807.6 4776.73C5808.77 4779.83 5810.1 4782.96 5811.77 4785.86C5814.21 4790.15 5817.3 4794.04 5821.02 4797.33C5825.72 4801.47 5831.05 4804.78 5836.99 4806.84C5842.85 4808.9 5848.97 4809.67 5855.11 4810.4C5854.69 4810.35 5854.29 4810.31 5853.86 4810.24C5854.43 4810.31 5855.02 4810.37 5855.61 4810.46C5855.56 4810.46 5855.52 4810.44 5855.48 4810.44C5855.67 4810.44 5855.87 4810.48 5856.03 4810.5C5856.18 4810.51 5856.33 4810.53 5856.49 4810.55C5856.49 4810.55 5856.47 4810.57 5856.46 4810.57C5860.94 4811.1 5865.37 4811.78 5869.71 4812.83C5871.95 4813.44 5874.14 4814.15 5876.33 4815C5877.95 4815.72 5879.54 4816.51 5881.13 4817.37C5883.7 4818.91 5886.18 4820.59 5888.59 4822.39C5890.72 4824.06 5892.8 4825.83 5894.76 4827.72C5896.31 4829.36 5897.74 4831.05 5899.16 4832.78C5902.8 4837.63 5906 4842.81 5909.32 4847.87C5913.9 4854.81 5918.81 4861.47 5924.19 4867.81C5929.54 4874.1 5935.3 4880 5941.33 4885.64C5947.63 4891.54 5954.16 4897.28 5960.96 4902.61C5973.48 4912.46 5986.75 4921.36 6000.13 4930.03C6008.29 4935.29 6016.55 4940.4 6024.84 4945.49C6031.38 4949.52 6037.92 4953.58 6044.28 4957.88C6049.14 4961.34 6053.82 4964.94 6058.27 4968.93C6060.64 4971.15 6062.92 4973.47 6065.06 4975.9C6066.89 4978.16 6068.6 4980.47 6070.22 4982.88C6073.35 4987.97 6076.2 4993.19 6078.77 4998.56V4998.58C6078.79 4998.58 6078.79 4998.58 6078.79 4998.6C6085.2 5012.48 6090.53 5026.82 6096.47 5040.86C6099.48 5047.99 6102.61 5055.11 6106.53 5061.8C6108.47 5065.11 6110.51 5068.36 6112.24 5071.8C6112.9 5073.23 6113.47 5074.66 6114.01 5076.17C6114.48 5077.84 6114.91 5079.54 6115.28 5081.24C6116.19 5086.47 6116.54 5091.8 6116.87 5097.09C6116.87 5097.15 6116.89 5097.22 6116.87 5097.27C6117.1 5100.93 6117.28 5104.63 6117.5 5108.3C6117.9 5115.18 6118.34 5122.05 6119.12 5128.91C6119.96 5136.63 6121.14 5144.3 6122.46 5151.94C6125.05 5166.67 6128.71 5181.28 6132.89 5195.64C6134.94 5202.73 6137.15 5209.83 6139.72 5216.74C6142.26 5223.56 6145.29 5230.36 6149.01 5236.63C6152.04 5241.74 6155.92 5246.39 6160.26 5250.49C6164.54 5254.55 6169.13 5258.28 6173.62 5262.14C6179.72 5267.49 6185.66 5272.99 6191.82 5278.24C6197.09 5282.77 6202.53 5286.94 6208.53 5290.47C6213.66 5293.48 6219.13 5296.22 6224.78 5298.08C6227.88 5299.09 6231.01 5300.06 6234.19 5300.52C6236.32 5300.84 6238.45 5300.93 6240.62 5300.65C6245.82 5300.01 6250.75 5297.58 6255.2 5294.94C6261.06 5291.48 6266.83 5287.82 6272.48 5284.04C6276.14 5281.59 6279.72 5279.07 6283.19 5276.37C6286.87 5273.5 6290.36 5270.43 6293.87 5267.36C6293.54 5267.64 6293.23 5267.91 6292.94 5268.19C6295.01 5266.39 6297.07 5264.55 6299.13 5262.73V5262.75C6299.37 5262.53 6299.63 5262.31 6299.87 5262.09C6299.9 5262.05 6299.94 5262.03 6299.98 5261.98C6299.96 5262.01 6299.9 5262.05 6299.87 5262.09C6299.78 5262.18 6299.68 5262.25 6299.61 5262.34C6299.83 5262.16 6300.07 5261.94 6300.29 5261.74C6300.31 5261.74 6300.31 5261.72 6300.33 5261.72C6300.6 5261.46 6300.88 5261.22 6301.15 5260.98C6301.26 5260.91 6301.36 5260.84 6301.45 5260.73C6301.52 5260.67 6301.58 5260.62 6301.63 5260.56H6301.65C6301.91 5260.34 6302.18 5260.1 6302.42 5259.86C6310.31 5253.15 6318.49 5246.87 6327.26 5241.33C6330.91 5239.11 6334.63 5236.92 6338.51 5235.12C6340.44 5234.26 6342.38 5233.48 6344.41 5232.82C6345.97 5232.38 6347.51 5232.01 6349.11 5231.68C6351.19 5231.39 6353.23 5231.19 6355.31 5231.06C6362.68 5230.87 6370.11 5231.17 6377.48 5231.19C6386.89 5231.17 6396.26 5231.09 6405.64 5230.86C6412.07 5230.69 6418.5 5230.6 6424.92 5230.14C6423.03 5243.61 6419.75 5256.9 6418.74 5270.47C6418.65 5273.61 6418.65 5276.72 6418.84 5279.86C6418.98 5281.28 6419.22 5282.67 6419.46 5284.07C6421.3 5292.34 6423.76 5300.51 6424.3 5308.98C6424.77 5316.39 6422.51 5323.94 6418.95 5330.34C6415.67 5336.2 6410.82 5340.84 6405.82 5345.21C6402.38 5348.13 6398.74 5350.69 6394.99 5353.22C6394.96 5353.26 6394.9 5353.3 6394.85 5353.32L6394.87 5353.3C6386.39 5358.94 6377.35 5364.53 6366.83 5364.46C6361.78 5364.42 6356.76 5363.15 6351.85 5362.14C6347.38 5361.2 6342.86 5360.23 6338.43 5359.13C6328.97 5356.74 6319.35 5353.17 6312 5346.57C6312 5346.55 6311.98 5346.55 6311.96 5346.55C6312.83 5350.19 6313.93 5353.79 6315.11 5357.4C6317.68 5364.4 6321.36 5370.93 6323.84 5377.99C6326.8 5386.4 6329.72 5394.95 6331.21 5403.78C6332.88 5413.54 6331.34 5423.08 6328.51 5432.47C6325.91 5441.13 6322.22 5449.36 6319.3 5457.91C6318.91 5459.22 6318.54 5460.48 6318.29 5461.83C6318.08 5463.09 6317.96 5464.4 6317.86 5465.67C6317.68 5471.33 6318.29 5476.97 6318.64 5482.63C6319 5488.31 6318.78 5494.01 6318.93 5499.69C6319.44 5501.7 6320 5503.7 6320.64 5505.67C6321.19 5507.12 6321.74 5508.57 6322.4 5510.01C6323.8 5512.78 6325.36 5515.48 6327.09 5518.09C6329.04 5520.89 6331.28 5523.39 6333.49 5526.02C6336.41 5529.43 6338.51 5533.5 6340.47 5537.5C6340.23 5537.01 6339.98 5536.51 6339.74 5536C6342.97 5542.49 6345.97 5549.08 6348.62 5555.83C6351.24 5562.54 6353.16 5569.53 6355.14 5576.46C6357.05 5583.05 6357.11 5590.06 6356.23 5596.88C6353.49 5597.15 6350.75 5597.48 6348.01 5597.82C6338.93 5598.92 6329.89 5600.3 6320.8 5601.36C6313.49 5602.21 6306.15 5602.93 6298.8 5603.48C6298.71 5603.48 6298.62 5603.5 6298.53 5603.5C6298.62 5603.48 6298.71 5603.48 6298.8 5603.48C6298.93 5603.48 6299.06 5603.46 6299.21 5603.46C6298.82 5603.48 6298.45 5603.5 6298.08 5603.53C6298.25 5603.51 6298.38 5603.5 6298.53 5603.5C6298.36 5603.5 6298.21 5603.51 6298.05 5603.51C6298.07 5603.51 6298.07 5603.51 6298.08 5603.51C6298.05 5603.51 6298.03 5603.53 6298.01 5603.51C6298.03 5603.51 6298.05 5603.51 6298.05 5603.51C6292.59 5603.84 6287.11 5604.03 6281.63 5603.73C6279.22 5603.53 6276.83 5603.24 6274.46 5602.8C6272.26 5602.32 6270.12 5601.71 6267.99 5601.01C6267.9 5600.98 6267.81 5600.96 6267.7 5600.92C6267.81 5600.96 6267.9 5601 6267.99 5601.01C6267.62 5600.9 6267.26 5600.77 6266.89 5600.66C6267.17 5600.74 6267.44 5600.85 6267.7 5600.92C6261.65 5598.86 6255.66 5596.49 6249.91 5593.75C6248.93 5593.24 6247.94 5592.71 6246.98 5592.15C6246.14 5591.55 6245.31 5590.9 6244.52 5590.22C6241.74 5587.76 6239.15 5585.1 6236.65 5582.34C6232.31 5577.45 6228.23 5571.99 6222.66 5568.48C6219.35 5566.4 6215.36 5565.26 6211.58 5564.51C6208.09 5563.85 6204.5 5563.77 6200.95 5564.03C6194.58 5564.49 6188.4 5566.18 6182.26 5567.83C6175.73 5569.56 6169.21 5571.2 6162.61 5572.54C6153.53 5574.3 6144.32 5575.5 6135.09 5576.14C6126.78 5576.64 6118.4 5576.93 6110.09 5576.53C6109.47 5576.49 6108.84 5576.44 6108.22 5576.4C6098.03 5575.57 6087.94 5573.81 6077.79 5572.72C6069.19 5571.79 6059.82 5570.85 6051.6 5574.36C6045.42 5576.99 6039.85 5580.94 6034.39 5584.84C6028.02 5589.38 6021.69 5593.99 6015.26 5598.46C6001.75 5607.78 5987.96 5616.77 5974.06 5625.55C5974.43 5625.31 5974.8 5625.09 5975.17 5624.86C5965.26 5631.09 5955.06 5636.84 5945.2 5643.18C5937.06 5648.44 5929.01 5654.05 5922.74 5661.53C5919.36 5665.55 5916.33 5669.78 5913.79 5674.38C5911.31 5678.9 5908.92 5683.48 5906.73 5688.13C5903.48 5695.04 5900.59 5702.13 5897.06 5708.92C5897.25 5708.57 5897.45 5708.18 5897.65 5707.81C5896.53 5709.98 5895.37 5712.1 5894.05 5714.14C5893.55 5714.82 5893 5715.44 5892.47 5716.09C5890.26 5718.4 5887.93 5720.61 5885.57 5722.76C5885.45 5722.87 5885.32 5722.98 5885.21 5723.09C5885.3 5723 5885.41 5722.91 5885.52 5722.81C5885.37 5722.92 5885.26 5723.03 5885.13 5723.16C5882.15 5725.77 5879.1 5728.31 5875.89 5730.59C5874.99 5731.2 5874.09 5731.75 5873.17 5732.26C5871.75 5732.92 5870.35 5733.55 5868.92 5734.1C5867.8 5734.45 5866.68 5734.76 5865.52 5735.02C5860.06 5736.07 5854.51 5736.64 5848.96 5737.13C5844.14 5737.46 5839.31 5737.52 5834.51 5737.68C5829.55 5737.89 5824.6 5738.14 5819.64 5738.53C5810.23 5739.25 5800.87 5740.31 5791.48 5741.23C5781.11 5742.28 5770.76 5743.2 5760.39 5744.36C5749.34 5745.59 5738.32 5747.04 5727.27 5748.42C5727.54 5748.38 5727.8 5748.36 5728.06 5748.33C5716.62 5749.76 5705.17 5751.08 5693.7 5752.24C5683.46 5753.25 5673.22 5754.23 5662.99 5755.37C5653.5 5756.4 5644.02 5757.65 5634.59 5759.08C5626.33 5760.35 5618.12 5761.86 5609.88 5763.44C5591.85 5766.87 5573.65 5769.5 5555.43 5771.69C5539.02 5773.68 5522.53 5775.28 5506.08 5776.91C5495.89 5777.92 5485.75 5779.23 5475.58 5780.26C5475.47 5780.28 5475.36 5780.28 5475.25 5780.29C5475.36 5780.28 5475.47 5780.28 5475.56 5780.26C5475.47 5780.26 5475.34 5780.28 5475.25 5780.29C5471.04 5780.66 5466.83 5780.9 5462.6 5780.85C5459.88 5780.75 5457.22 5780.53 5454.5 5780.13C5454.24 5780 5453.95 5779.94 5453.63 5779.89Z"
        fill="#2D4159"/>
</svg>