<svg
    width="7773"
    height="7615"
    viewBox="0 0 7773 7615"
    fill="none"
    xmlns="http://www.w3.org/2000/svg">
    <path id="RS"
        d="M5313.58 6162.14C5313.58 6161.94 5313.56 6161.74 5313.55 6161.52C5313.56 6161.72 5313.58 6161.92 5313.58 6162.14C5313.58 6162.22 5313.58 6162.27 5313.58 6162.33C5313.09 6151.81 5313.51 6141.24 5312.2 6130.78C5311.8 6127.73 5311.27 6124.64 5310.53 6121.65C5309.68 6118.26 5308.49 6115.1 5306.85 6112.03C5303.71 6106.06 5298.23 6102.47 5292.81 6098.84C5290.93 6097.51 5289.17 6096.11 5287.42 6094.61C5287.24 6094.42 5287.04 6094.24 5286.85 6094.04C5286.85 6093.78 5286.85 6093.52 5286.87 6093.27C5286.95 6092.75 5287.04 6092.24 5287.15 6091.72C5287.11 6091.83 5287.09 6091.96 5287.06 6092.07C5287.11 6091.89 5287.15 6091.72 5287.18 6091.54C5287.18 6091.59 5287.17 6091.67 5287.15 6091.72C5287.19 6091.59 5287.2 6091.45 5287.22 6091.3C5287.24 6091.26 5287.24 6091.21 5287.24 6091.17C5287.26 6091.11 5287.26 6091.04 5287.28 6090.99C5288.71 6084.48 5290.11 6077.97 5290.53 6071.3C5290.66 6069.13 5290.51 6066.89 5290.11 6064.75C5289.52 6061.7 5288.2 6059.04 5286.45 6056.48C5284.45 6053.54 5281.8 6051.13 5279.12 6048.82C5274.85 6045.14 5270.22 6041.76 5265.31 6038.93C5260.07 6035.91 5254.52 6033.69 5248.67 6032.11C5242.61 6030.47 5236.4 6029.55 5230.22 6028.43C5226.43 6027.68 5222.7 6026.78 5218.91 6025.91C5215.35 6025.09 5211.82 6024.17 5208.31 6023.08C5208.2 6023.05 5208.07 6023.01 5207.96 6022.97C5207.89 6022.95 5207.81 6022.92 5207.76 6022.9C5205.37 6022.07 5203.05 6021.15 5200.73 6020.11C5198.97 6019.24 5197.28 6018.28 5195.61 6017.27C5194.04 6016.17 5192.55 6015.01 5191.08 6013.78C5185.64 6008.95 5180.61 6003.67 5174.67 5999.39C5171.6 5997.15 5168.36 5995.14 5165.11 5993.18C5162 5991.32 5158.84 5989.48 5155.61 5987.79C5150.24 5984.98 5144.72 5982.31 5138.92 5980.53C5135.83 5979.57 5132.68 5978.91 5129.47 5978.65C5126.32 5978.4 5123.16 5978.86 5120.28 5980.12C5118.73 5980.8 5117.22 5981.58 5115.79 5982.48C5113.35 5984 5111.07 5985.8 5108.92 5987.72C5107.37 5989.08 5105.85 5990.44 5104.49 5991.98C5102.56 5994.09 5100.52 5996.45 5099.67 5999.26C5099.12 6001.1 5098.64 6002.9 5098.57 6004.83C5098.53 6006.15 5098.53 6007.4 5098.66 6008.71C5098.92 6011.45 5099.95 6014.19 5101.36 6016.54C5102.96 6019.13 5104.93 6021.48 5106.77 6023.93C5108.18 6025.91 5109.49 6028.01 5110.7 6030.16C5110.74 6030.22 5110.77 6030.29 5110.79 6030.34C5110.75 6030.31 5110.74 6030.25 5110.72 6030.22C5110.79 6030.34 5110.85 6030.45 5110.92 6030.58C5111.62 6031.94 5112.26 6033.3 5112.89 6034.7C5113 6035.01 5113.11 6035.34 5113.22 6035.66C5113.31 6036.15 5113.42 6036.65 5113.49 6037.14C5113.49 6037.16 5113.49 6037.18 5113.48 6037.2C5113.38 6037.29 5113.29 6037.38 5113.2 6037.49C5111.84 6038.76 5110.39 6039.88 5109.03 6041.17C5106.95 6043.14 5105.07 6045.27 5103.29 6047.48C5099.49 6052.18 5095.57 6056.78 5091.45 6061.21C5091.71 6060.95 5091.93 6060.69 5092.17 6060.45C5090.15 6062.62 5088.05 6064.7 5085.83 6066.65C5085.41 6067 5084.96 6067.33 5084.5 6067.64C5084.38 6067.71 5084.27 6067.79 5084.16 6067.84C5083.16 6065.78 5081.73 6063.98 5079.76 6062.71C5077.92 6061.54 5076.05 6060.6 5074.01 6059.81C5069.14 6058.01 5064.08 6056.67 5059.19 6054.98C5054.87 6053.47 5050.59 6051.83 5046.45 6049.87C5042.26 6047.9 5038.2 6045.69 5034.23 6043.34C5029.76 6040.69 5025.57 6037.64 5021.34 6034.65C5016.6 6031.28 5011.55 6028.17 5006.23 6025.75C5000.02 6022.9 4993.46 6020.73 4986.66 6019.83C4980.78 6019.06 4974.78 6019.19 4968.86 6019.41C4968.86 6019.41 4968.86 6019.41 4968.88 6019.39C4968.83 6019.41 4968.79 6019.39 4968.75 6019.39C4968.77 6019.39 4968.81 6019.39 4968.85 6019.41C4966.66 6019.46 4964.49 6019.57 4962.32 6019.63C4962.41 6019.63 4962.5 6019.61 4962.61 6019.61C4962.5 6019.61 4962.38 6019.63 4962.26 6019.63C4962.25 6019.65 4962.23 6019.65 4962.19 6019.63C4962.01 6019.65 4961.84 6019.63 4961.66 6019.63C4961.68 6019.63 4961.69 6019.63 4961.69 6019.63C4961.68 6019.63 4961.68 6019.63 4961.66 6019.63C4961.64 6019.65 4961.6 6019.65 4961.58 6019.63H4961.57C4961.55 6019.65 4961.53 6019.65 4961.53 6019.65H4961.49C4961.49 6019.65 4961.49 6019.65 4961.47 6019.65C4961.4 6019.65 4961.31 6019.66 4961.22 6019.65C4961.2 6019.66 4961.18 6019.66 4961.16 6019.66C4961.16 6019.66 4961.16 6019.66 4961.18 6019.66C4961.05 6019.66 4960.96 6019.66 4960.85 6019.66H4960.83C4960.85 6019.66 4960.87 6019.65 4960.89 6019.66C4960.92 6019.66 4960.96 6019.66 4961 6019.66C4955.61 6019.74 4950.19 6019.44 4944.84 6018.76C4943.97 6018.62 4943.17 6018.41 4942.34 6018.21C4941.53 6017.9 4940.74 6017.57 4939.95 6017.22C4938.66 6016.54 4937.45 6015.8 4936.24 6014.98C4936.2 6014.96 4936.16 6014.92 4936.13 6014.92C4934.09 6013.41 4932.15 6011.78 4930.32 6010.05C4925.94 6005.75 4921.99 6001.1 4917.87 5996.59C4913.35 5991.63 4908.72 5986.87 4903.7 5982.44H4903.72C4903.48 5982.26 4903.28 5982.07 4903.06 5981.87C4903.02 5981.85 4903 5981.83 4902.98 5981.8C4902.98 5981.82 4902.98 5981.82 4902.98 5981.82C4897.25 5976.87 4891.29 5972 4884.93 5967.83C4884.88 5967.81 4884.82 5967.75 4884.77 5967.72C4884.82 5967.73 4884.88 5967.79 4884.93 5967.83C4885.04 5967.9 4885.15 5967.97 4885.24 5968.05C4884.91 5967.83 4884.56 5967.61 4884.21 5967.39C4887.98 5966.85 4891.75 5966.23 4895.5 5965.51C4902.06 5964.3 4908.64 5962.97 4914.95 5960.75C4919.8 5959.02 4924.71 5956.61 4928.18 5952.72C4929.89 5950.82 4931.29 5948.8 4932.32 5946.45C4932.85 5945.2 4933.26 5943.89 4933.55 5942.57C4934.1 5940.27 4934.34 5937.94 4934.21 5935.6C4933.79 5927.46 4928.9 5920.68 4923.57 5914.94C4919.73 5910.81 4915.17 5907.35 4910.85 5903.71C4910.83 5903.71 4910.81 5903.69 4910.8 5903.65C4910.8 5903.65 4910.8 5903.65 4910.78 5903.64C4910.78 5903.64 4910.76 5903.64 4910.76 5903.62C4910.74 5903.62 4910.74 5903.6 4910.72 5903.6C4910.74 5903.62 4910.74 5903.62 4910.76 5903.62C4910.76 5903.62 4910.76 5903.64 4910.74 5903.62C4910.74 5903.62 4910.72 5903.6 4910.7 5903.6H4910.72C4910.69 5903.56 4910.67 5903.54 4910.63 5903.53C4910.63 5903.53 4910.61 5903.53 4910.61 5903.51C4910.59 5903.51 4910.57 5903.49 4910.56 5903.49C4910.56 5903.47 4910.54 5903.47 4910.54 5903.47C4910.52 5903.45 4910.5 5903.45 4910.48 5903.42C4910.5 5903.43 4910.52 5903.43 4910.54 5903.47C4910.52 5903.45 4910.5 5903.45 4910.48 5903.42C4910.48 5903.42 4910.48 5903.42 4910.46 5903.4C4908.15 5901.43 4905.91 5899.37 4903.81 5897.15C4901.31 5894.28 4899.03 5891.27 4896.9 5888.14C4896.86 5888.07 4896.79 5887.98 4896.73 5887.9C4896.75 5887.92 4896.75 5887.92 4896.75 5887.94C4896.71 5887.88 4896.7 5887.85 4896.68 5887.81L4896.7 5887.83C4896.7 5887.81 4896.68 5887.81 4896.66 5887.79C4896.64 5887.75 4896.6 5887.72 4896.59 5887.66C4896.53 5887.57 4896.49 5887.52 4896.42 5887.44C4895.04 5885.31 4893.68 5883.16 4892.51 5880.92C4892.62 5880.82 4892.73 5880.71 4892.84 5880.62C4893.28 5880.29 4893.76 5879.98 4894.21 5879.67C4895.34 5879.02 4896.51 5878.47 4897.69 5877.94C4903.2 5875.73 4909.03 5874.23 4914.27 5871.36C4917.73 5869.43 4921.07 5867.13 4923.59 5864.02C4926.92 5859.98 4928.7 5854.81 4928.57 5849.58C4928.48 5846.3 4926.79 5842.72 4924.8 5840.16C4923.48 5838.47 4921.97 5837.11 4920.3 5835.79C4917.62 5833.67 4914.51 5832.04 4911.46 5830.53C4906.29 5828.01 4900.98 5825.81 4895.74 5823.44C4883.87 5818.09 4872.25 5812.11 4861 5805.51C4858.52 5803.99 4856 5802.46 4853.7 5800.7C4853.63 5800.64 4853.57 5800.61 4853.52 5800.55C4853.44 5800.48 4853.37 5800.44 4853.3 5800.39C4853.3 5800.39 4853.3 5800.37 4853.28 5800.37C4853.28 5800.37 4853.28 5800.37 4853.26 5800.37C4853.22 5800.33 4853.17 5800.29 4853.13 5800.26C4853.13 5800.26 4853.11 5800.24 4853.09 5800.24C4853.08 5800.22 4853.08 5800.22 4853.08 5800.22C4852.98 5800.15 4852.95 5800.09 4852.86 5800.04C4852.93 5800.11 4853 5800.16 4853.06 5800.22C4852.76 5799.98 4852.47 5799.74 4852.16 5799.5C4852.38 5799.67 4852.62 5799.87 4852.86 5800.04C4851.62 5799.02 4850.43 5797.98 4849.29 5796.86C4848.98 5796.52 4848.7 5796.18 4848.41 5795.83C4848.06 5795.29 4847.71 5794.76 4847.38 5794.23C4847.08 5793.6 4846.81 5792.98 4846.55 5792.31C4846.15 5791.14 4845.78 5789.94 4845.5 5788.75C4845.25 5787.55 4845.04 5786.36 4844.9 5785.15C4844.9 5785.13 4844.9 5785.13 4844.9 5785.13C4844.9 5785.07 4844.9 5785 4844.88 5784.94C4844.75 5783.35 4844.75 5781.75 4844.79 5780.11C4844.95 5776.91 4845.26 5773.75 4845.74 5770.57C4846.11 5768.9 4846.53 5767.24 4847.05 5765.61C4848.11 5762.55 4849.34 5759.61 4850.72 5756.67C4850.78 5756.51 4850.87 5756.32 4850.94 5756.18C4850.91 5756.25 4850.87 5756.34 4850.83 5756.42C4850.89 5756.32 4850.91 5756.25 4850.94 5756.18C4850.96 5756.12 4851 5756.1 4851 5756.05C4854.64 5748.49 4858.42 5741.01 4862.01 5733.4C4861.84 5733.79 4861.64 5734.15 4861.48 5734.54C4861.81 5733.88 4862.12 5733.2 4862.45 5732.52C4862.27 5732.89 4862.08 5733.29 4861.9 5733.66C4865.8 5725.44 4869.56 5717.17 4872.47 5708.57C4873.7 5704.95 4874.75 5701.1 4874.82 5697.26C4874.88 5693.07 4873.65 5689.23 4871.11 5685.9C4869.55 5683.9 4867.43 5682.35 4865.28 5681.07C4859.42 5677.56 4852.76 5674.84 4846 5673.73C4844.6 5673.51 4843.2 5673.38 4841.81 5673.33C4841.79 5673.03 4841.75 5672.76 4841.72 5672.46C4841.53 5671.1 4841.26 5669.76 4840.78 5668.44C4839.8 5665.77 4838.28 5663.46 4836.24 5661.51C4833.72 5659.06 4830.47 5657.41 4827.63 5655.35C4827.56 5655.28 4827.49 5655.24 4827.41 5655.17C4826.68 5654.56 4825.96 5653.94 4825.3 5653.26C4824.97 5652.91 4824.66 5652.54 4824.36 5652.19C4824.16 5651.88 4823.96 5651.56 4823.76 5651.25C4823.61 5650.94 4823.44 5650.63 4823.3 5650.3C4822.84 5649.03 4822.43 5647.72 4822.08 5646.4C4822.08 5646.4 4822.07 5646.38 4822.07 5646.36V5646.34C4822.05 5646.25 4822.01 5646.14 4821.99 5646.07C4821.99 5646.05 4821.97 5646.05 4821.97 5646.03C4821.97 5646.03 4821.97 5646.05 4821.99 5646.07C4821.94 5645.85 4821.88 5645.64 4821.81 5645.42C4821.79 5645.37 4821.79 5645.31 4821.75 5645.22C4821.75 5645.22 4821.73 5645.2 4821.73 5645.19C4820.76 5640.98 4820.08 5636.69 4819.64 5632.39C4819.6 5631.86 4819.58 5631.33 4819.58 5630.79C4821.84 5630.41 4824.16 5630.19 4826.44 5629.97C4832.87 5629.45 4839.45 5629.54 4845.63 5627.54C4850.21 5626.05 4855.06 5624.29 4858.61 5620.88C4860.83 5618.75 4862.19 5616.05 4863.04 5613.13C4863.46 5611.68 4863.59 5610.17 4863.66 5608.68C4863.7 5608.09 4863.7 5607.5 4863.7 5606.9C4863.57 5602.59 4862.6 5598.29 4861.51 5594.14C4860.12 5588.72 4857.76 5583.22 4853.04 5579.91C4843.74 5573.33 4832.18 5572.67 4821.28 5570.83C4817.65 5570.15 4814.07 5569.19 4810.56 5568.09C4810.96 5568.24 4811.37 5568.37 4811.79 5568.5C4808.63 5567.47 4805.48 5566.38 4802.47 5565.04C4801.44 5564.53 4800.45 5563.99 4799.47 5563.39C4799.07 5563.09 4798.68 5562.8 4798.32 5562.48C4798.24 5562.41 4798.19 5562.38 4798.11 5562.3C4798.11 5562.23 4798.1 5562.12 4798.1 5562.04C4798.1 5561.95 4798.1 5561.84 4798.08 5561.77C4798.43 5557.93 4799.11 5554.16 4798.96 5550.28C4798.85 5547.87 4798.65 5545.43 4797.87 5543.13C4796.92 5540.3 4795.71 5537.61 4793.9 5535.21C4791.55 5532.01 4788.74 5529.12 4785.96 5526.29C4783.83 5524.1 4781.53 5522.03 4779.22 5520.02C4779.18 5520 4779.16 5519.97 4779.14 5519.95C4779.18 5519.97 4779.2 5520 4779.22 5520.02C4779.27 5520.08 4779.31 5520.11 4779.35 5520.15C4779.13 5519.97 4778.89 5519.77 4778.67 5519.56V5519.54C4778.63 5519.53 4778.59 5519.49 4778.56 5519.45C4778.54 5519.43 4778.5 5519.42 4778.48 5519.38C4778.48 5519.38 4778.46 5519.36 4778.44 5519.34C4778.32 5519.23 4778.15 5519.08 4778 5518.97C4777.69 5518.7 4777.38 5518.42 4777.05 5518.15C4773.78 5515.26 4770.65 5512.23 4767.69 5509.01C4766.55 5507.63 4765.43 5506.22 4764.36 5504.73C4764.02 5504.16 4763.67 5503.57 4763.33 5502.98C4762.25 5500.65 4761.35 5498.24 4760.47 5495.81C4758.98 5491.55 4757.64 5487.25 4756.31 5482.96C4755.61 5480.74 4754.95 5478.5 4753.96 5476.4C4754.42 5476.2 4754.86 5476.02 4755.32 5475.85C4755.95 5475.67 4756.59 5475.5 4757.21 5475.35C4760.98 5474.67 4764.84 5474.36 4768.65 5473.92C4773.67 5473.31 4778.68 5472.62 4783.61 5471.46C4789.12 5470.15 4794.42 5468.04 4799.29 5465.13C4804.29 5462.14 4808.76 5458.42 4813.08 5454.56C4812.75 5454.86 4812.42 5455.17 4812.08 5455.45C4817.16 5450.94 4822.08 5446.31 4827.12 5441.79C4827.67 5441.29 4828.22 5440.8 4828.77 5440.32C4828.44 5440.61 4828.13 5440.89 4827.8 5441.2C4833.98 5435.74 4840.47 5430.7 4847.29 5426.07C4851.59 5423.22 4856.02 5420.54 4860.61 5418.2C4862.76 5417.19 4864.93 5416.29 4867.17 5415.52C4872.58 5413.81 4878.11 5412.56 4883.64 5411.46C4883.61 5411.46 4883.59 5411.48 4883.57 5411.48C4883.63 5411.46 4883.72 5411.46 4883.79 5411.42C4887.41 5410.72 4891.07 5410.12 4894.67 5409.46C4898.22 5408.77 4901.71 5408.06 4905.24 5407.34C4905.45 5407.29 4905.63 5407.27 4905.85 5407.21C4906.05 5407.19 4906.25 5407.14 4906.48 5407.08C4906.44 5407.08 4906.42 5407.1 4906.4 5407.1C4912.82 5405.87 4919.21 5404.55 4925.65 5403.26C4925.52 5403.28 4925.41 5403.32 4925.3 5403.33C4925.56 5403.28 4925.81 5403.24 4926.07 5403.19C4926.13 5403.19 4926.2 5403.17 4926.27 5403.13C4926.25 5403.15 4926.24 5403.17 4926.2 5403.15C4926.24 5403.15 4926.27 5403.15 4926.31 5403.13C4926.38 5403.11 4926.48 5403.11 4926.57 5403.09C4926.49 5403.11 4926.42 5403.11 4926.36 5403.11C4930.78 5402.3 4935.21 5401.53 4939.65 5401.16C4941.16 5401.07 4942.67 5401.05 4944.2 5401.09C4944.58 5401.13 4944.95 5401.16 4945.35 5401.22C4946.09 5403.81 4946.75 5406.42 4947.93 5408.9C4950.19 5413.68 4953.77 5417.63 4958.74 5419.71C4962.87 5421.44 4967.36 5421.81 4971.75 5422.3C4974.82 5422.65 4977.87 5423.06 4980.9 5423.63C4983 5424.07 4985.06 5424.56 4987.1 5425.19C4988.97 5425.83 4990.76 5426.55 4992.54 5427.4C4993.97 5428.13 4995.35 5428.92 4996.73 5429.77C4997.78 5430.5 4998.81 5431.26 4999.8 5432.08C5000.79 5433 5001.69 5433.98 5002.61 5434.97C5004.21 5436.84 5005.66 5438.81 5007.06 5440.81C5007.01 5440.74 5006.99 5440.69 5006.93 5440.63C5007.01 5440.74 5007.1 5440.87 5007.17 5440.96C5007.25 5441.09 5007.34 5441.2 5007.39 5441.33C5007.41 5441.35 5007.43 5441.37 5007.45 5441.38C5007.45 5441.4 5007.47 5441.42 5007.47 5441.42C5007.5 5441.48 5007.54 5441.53 5007.58 5441.59C5010.5 5446 5013.04 5450.61 5016.11 5454.93C5019.01 5459.03 5022.34 5462.74 5025.54 5466.64C5031.57 5473.96 5036.97 5481.79 5042.28 5489.66C5047.21 5497.1 5051.05 5505.1 5055.15 5513.02C5057.24 5517.08 5059.43 5521.02 5061.99 5524.78C5064.54 5528.57 5067.61 5531.93 5071.12 5534.86C5077.3 5539.97 5084.34 5543.92 5091.55 5547.34C5095.46 5549.19 5099.5 5550.79 5103.7 5551.9C5107.83 5553 5112.06 5553.81 5116.27 5554.65C5121.65 5555.7 5127.04 5556.73 5132.45 5557.65C5139.96 5558.92 5147.52 5560.04 5155 5561.4C5159.5 5562.37 5164.01 5563.37 5168.44 5564.73C5169.3 5565.02 5170.13 5565.33 5170.97 5565.68C5171.12 5565.76 5171.25 5565.85 5171.4 5565.92C5171.53 5566.01 5171.67 5566.12 5171.82 5566.22C5172.19 5566.69 5172.59 5567.17 5172.94 5567.67C5173.66 5568.75 5174.26 5569.87 5174.87 5571.01C5175.44 5572.23 5175.97 5573.46 5176.43 5574.71C5176.84 5575.92 5177.17 5577.15 5177.46 5578.42C5177.81 5580.3 5178.07 5582.19 5178.25 5584.08C5178.64 5589.54 5178.46 5594.97 5178.47 5600.43C5178.49 5606.58 5178.92 5612.82 5181.54 5618.46C5183.88 5623.44 5187.65 5627.72 5191.49 5631.56C5195.83 5635.9 5200.44 5639.97 5204.82 5644.27C5207.92 5647.34 5211.01 5650.39 5214.37 5653.16C5217.5 5655.76 5220.7 5658.26 5223.91 5660.79C5227.43 5663.57 5230.92 5666.55 5234.74 5668.9C5238.84 5671.42 5243.16 5673.48 5247.85 5674.6C5260.55 5677.61 5273.89 5674.49 5285.86 5669.98C5287.57 5669.34 5289.26 5668.68 5290.94 5667.92C5291.95 5667.48 5292.9 5666.82 5293.88 5666.27C5295.11 5665.55 5296.34 5664.82 5297.57 5664.06C5300.27 5662.41 5302.96 5660.68 5305.6 5658.92C5311.95 5654.71 5318.2 5650.37 5324.85 5646.6C5326.34 5645.81 5327.81 5645.11 5329.37 5644.47C5330.84 5643.97 5332.33 5643.53 5333.82 5643.16C5336.3 5642.65 5338.78 5642.26 5341.28 5642.01C5343.05 5641.88 5344.81 5641.82 5346.58 5641.84C5348.75 5641.95 5350.9 5642.13 5353.07 5642.48C5356.06 5643 5359.04 5643.68 5361.98 5644.52C5364.04 5645.19 5366.04 5645.94 5368.07 5646.77C5369.68 5647.52 5371.26 5648.33 5372.86 5649.16C5373.62 5649.65 5374.35 5650.15 5375.05 5650.68C5375.42 5651.01 5375.79 5651.33 5376.15 5651.69C5376.39 5651.99 5376.67 5652.28 5376.91 5652.59C5377.51 5653.51 5378.14 5654.43 5378.69 5655.39C5378.98 5655.96 5379.24 5656.53 5379.5 5657.1C5379.7 5657.72 5379.89 5658.33 5380.03 5658.95C5380.22 5659.82 5380.38 5660.72 5380.53 5661.62C5380.69 5663.2 5380.86 5664.78 5380.91 5666.38C5380.91 5666.55 5380.92 5666.75 5380.9 5666.91C5380.88 5666.99 5380.86 5667.04 5380.86 5667.12C5380.86 5667.15 5380.82 5667.21 5380.8 5667.26C5379.7 5669.73 5378.3 5672.06 5377.17 5674.52C5376.28 5676.49 5375.49 5678.51 5374.9 5680.59C5373.12 5687.28 5372.44 5695.5 5377.51 5700.97C5380.46 5704.14 5383.86 5706.73 5387.13 5709.56C5390.62 5712.56 5393.95 5715.7 5397.16 5719.03C5398.95 5720.92 5400.68 5722.87 5402.4 5724.82C5402.05 5725.07 5401.74 5725.37 5401.45 5725.7C5400.71 5726.51 5400.31 5727.57 5399.85 5728.53C5399.54 5729.17 5399.22 5729.82 5398.89 5730.46C5398.87 5730.5 5398.84 5730.55 5398.84 5730.59C5398.82 5730.61 5398.82 5730.63 5398.82 5730.64C5398.8 5730.64 5398.8 5730.64 5398.8 5730.66C5398.69 5730.86 5398.62 5731.07 5398.51 5731.25C5398.6 5731.07 5398.69 5730.88 5398.78 5730.68C5395.07 5737.48 5390.82 5743.93 5386.72 5750.53C5383.21 5756.16 5379.94 5761.95 5376.28 5767.5C5375.97 5767.9 5375.66 5768.27 5375.35 5768.66C5375.31 5768.71 5375.23 5768.75 5375.2 5768.77C5375.01 5768.88 5374.85 5768.97 5374.66 5769.06C5372 5770.26 5369.3 5771.38 5366.74 5772.83C5364.85 5773.91 5362.99 5775.11 5361.26 5776.47C5360.44 5777.13 5359.67 5777.83 5358.87 5778.57C5357.73 5779.65 5356.93 5781.05 5356.06 5782.37C5355.42 5783.42 5354.98 5784.71 5354.59 5785.88C5354.28 5786.69 5354.06 5787.57 5353.91 5788.45C5353.54 5790.18 5353.36 5792.11 5353.47 5793.88C5353.58 5795.5 5353.67 5797.09 5353.99 5798.68C5354.52 5801.47 5355.25 5804.21 5356.21 5806.91C5358.08 5812.2 5360.2 5817.39 5362.57 5822.46C5364.72 5827.04 5366.76 5831.67 5368.58 5836.41C5370.97 5843.1 5372.79 5849.96 5375.23 5856.63C5376.76 5860.83 5378.43 5865.09 5380.88 5868.86C5383.25 5872.53 5386.03 5875.84 5389.33 5878.69C5389.13 5878.53 5388.93 5878.34 5388.71 5878.18C5388.91 5878.34 5389.11 5878.53 5389.33 5878.69C5389.37 5878.71 5389.43 5878.77 5389.44 5878.78L5389.46 5878.8C5389.46 5878.8 5389.46 5878.8 5389.48 5878.82C5389.48 5878.82 5389.48 5878.82 5389.48 5878.8C5396.54 5884.54 5405.05 5888.25 5413.54 5891.34C5420.62 5893.93 5427.83 5896.25 5434.83 5899.04C5437.2 5900.05 5439.5 5901.14 5441.8 5902.33C5451.85 5907.88 5461.21 5914.56 5471.24 5920.13C5476.48 5923.03 5481.8 5925.71 5487.11 5928.42C5489.57 5929.67 5492.05 5930.9 5494.5 5932.17C5495.49 5932.66 5496.46 5933.14 5497.42 5933.67C5496.72 5934.59 5496.02 5935.49 5495.29 5936.37C5492.07 5940.01 5488.62 5943.4 5485.01 5946.65C5474.35 5956.04 5463.12 5964.72 5452.6 5974.32C5452.83 5974.11 5453.05 5973.91 5453.28 5973.71C5447.18 5979.24 5441.23 5984.98 5435.88 5991.26C5434.46 5992.92 5433.12 5994.68 5432.02 5996.58C5429.74 6000.44 5429.02 6004.77 5429.15 6009.2C5429.26 6013.6 5430.68 6018.12 5432.22 6022.22C5437.57 6036.19 5443.78 6049.92 5447.71 6064.37C5448.01 6065.6 5448.23 6066.83 5448.43 6068.04C5448.43 6068.39 5448.47 6068.73 5448.51 6069.07C5448.51 6069.18 5448.49 6069.31 5448.49 6069.42C5448.43 6070.12 5448.38 6070.84 5448.28 6071.54C5447.94 6073.5 5447.51 6075.42 5446.96 6077.33C5446.8 6077.77 5446.63 6078.19 5446.45 6078.6C5445.69 6080.1 5444.87 6081.56 5443.97 6082.97C5443.06 6084.28 5442.11 6085.51 5441.1 6086.68C5439.88 6087.99 5438.65 6089.24 5437.48 6090.58C5435.31 6092.99 5433.51 6095.6 5432.18 6098.56C5430.69 6101.9 5429.61 6105.4 5429.19 6109.04C5428.78 6112.51 5428.69 6115.93 5428.86 6119.4C5428.98 6121.92 5429.19 6124.44 5429.41 6126.98C5427.66 6126.76 5425.93 6126.56 5424.19 6126.39C5417.72 6125.69 5411.25 6124.88 5404.72 6124.33C5401.32 6124.04 5397.95 6123.94 5394.55 6124.11C5391.26 6124.28 5388.03 6124.83 5384.81 6125.53C5381.37 6126.26 5378.01 6127.24 5374.76 6128.63C5371.52 6130.03 5368.51 6131.92 5365.64 6134C5360.33 6137.82 5355.38 6142.16 5350.51 6146.52C5346.28 6150.29 5342.26 6154.39 5337.79 6157.9C5335.88 6159.26 5333.93 6160.52 5331.91 6161.72C5328.88 6163.34 5325.77 6164.72 5322.59 6166.02C5319.83 6167.09 5317.07 6168.1 5314.26 6169C5313.88 6166.74 5313.71 6164.44 5313.58 6162.14Z"
        fill="#2D4159"/>
</svg>