<svg
    width="7773"
    height="7615"
    viewBox="0 0 7773 7615"
    fill="none"
    xmlns="http://www.w3.org/2000/svg">
    <path
        id="SE"
        d="M4609.59 1185.07C4607.29 1177.2 4605.05 1169.3 4603.01 1161.37C4601.15 1153.91 4599.5 1146.34 4597.22 1139.02C4596.59 1137.26 4595.91 1135.49 4595.14 1133.75C4594.53 1132.53 4593.82 1131.34 4593.1 1130.14C4592.18 1128.73 4591.19 1127.4 4590.08 1126.12C4587.73 1123.36 4585.18 1120.71 4582.64 1118.09C4579.86 1115.22 4577.14 1112.31 4574.52 1109.37C4570.07 1104.45 4565.71 1099.56 4560.97 1094.98C4556.46 1090.82 4551.65 1087.02 4547.2 1082.77C4544.77 1080.49 4542.64 1077.98 4540.95 1075.07C4539.42 1072.39 4538.43 1069.37 4537.79 1066.38C4536.41 1060.02 4536.68 1053.42 4537.24 1046.95C4537.75 1040.68 4538.58 1034.45 4539.53 1028.18C4541.63 1014.85 4544.68 1001.71 4546.21 988.308C4546.57 984.025 4546.81 979.742 4546.76 975.404C4546.65 972.831 4546.43 970.239 4546.11 967.684C4546.02 967.04 4545.86 966.415 4545.71 965.809C4545.34 964.577 4544.9 963.327 4544.42 962.132C4544.11 961.544 4543.8 960.956 4543.49 960.423C4543.28 960.092 4543.08 959.816 4542.88 959.54C4542.07 958.64 4541.28 957.739 4540.42 956.875C4536.24 953.07 4531.56 949.761 4527.35 946.011C4525.16 944.118 4523.08 942.133 4521.08 940.129C4518.67 937.703 4516.56 934.982 4514.5 932.317C4512.22 929.376 4510.12 926.269 4508.49 922.868C4508.3 922.446 4508.12 922.078 4507.97 921.655C4506.39 917.979 4505.47 914.155 4504.92 910.24C4503.74 901.747 4503.98 893.071 4504.06 884.523C4504.09 875.48 4504.41 866.307 4503.51 857.281C4503.36 856.325 4503.16 855.351 4502.99 854.395C4502.83 853.881 4502.64 853.366 4502.44 852.833C4502.26 852.465 4502.05 852.042 4501.83 851.62C4501.74 851.509 4501.67 851.344 4501.54 851.178C4501.5 851.123 4501.45 851.123 4501.41 851.013C4501.35 851.013 4501.35 851.013 4501.32 850.995C4500.69 850.609 4500.05 850.315 4499.41 850.021C4494.26 847.833 4489.2 845.774 4484.72 842.355C4481.48 839.874 4478.93 836.841 4477.04 833.256C4475.34 830.058 4474.44 826.436 4473.58 822.907C4472.31 817.742 4471.36 812.484 4470.42 807.227C4469.43 801.915 4468.47 796.602 4467.68 791.272C4466.98 786.602 4466.48 781.989 4466.37 777.301C4466.25 772.761 4466.37 768.239 4466.54 763.735C4466.76 755.555 4467 747.412 4466.28 739.232C4465.97 736.971 4465.6 734.747 4465.14 732.56C4464.81 731.42 4464.48 730.39 4464.09 729.343C4463.76 728.607 4463.41 727.909 4463.08 727.229C4462.7 726.585 4462.27 725.979 4461.83 725.372C4458.97 721.751 4455.99 718.203 4453.01 714.674C4449.54 710.483 4446.12 706.328 4442.64 702.137C4438.93 697.56 4435.2 693.075 4431.48 688.535C4428.18 684.564 4424.92 680.594 4421.37 676.862C4419.96 675.465 4418.47 674.123 4416.98 672.873C4413.93 670.557 4410.68 668.498 4407.39 666.495C4403.93 664.509 4400.4 662.708 4396.8 661.109C4392.61 659.418 4388.34 658.002 4383.99 656.771C4377.64 655.006 4371.34 653.351 4365.11 651.201C4359.06 649.142 4353.16 646.752 4347.26 644.308C4335.55 639.547 4324.06 634.363 4312.11 630.209C4309.96 629.455 4307.79 628.793 4305.62 628.187C4299.61 626.569 4293.47 625.466 4287.41 623.903C4283.8 622.984 4280.44 621.753 4277.06 620.264C4273.55 618.72 4270.27 616.459 4267.3 613.959C4262.57 609.97 4258.73 604.823 4254.98 599.952C4251.08 594.952 4247.35 589.823 4243.68 584.713C4236.43 574.695 4229.15 564.621 4221.64 554.769C4221.31 554.328 4220.97 553.886 4220.64 553.5C4219.36 551.828 4218.11 550.284 4216.84 548.611C4216.47 548.114 4215.99 547.6 4215.59 547.048C4212.04 548.739 4208.29 550.118 4204.56 551.092C4201.49 551.92 4198.4 552.508 4195.29 552.894C4192.3 553.243 4189.34 553.556 4186.4 554.107C4184.5 554.567 4182.67 555.026 4180.81 555.651C4179.52 556.111 4178.22 556.607 4176.95 557.195C4176.1 557.618 4175.29 558.078 4174.49 558.555C4177.72 564.695 4181.49 570.504 4184.83 576.607C4189.19 584.437 4193.24 592.562 4195.15 601.349C4197.04 610.246 4197.78 619.308 4197.68 628.352C4197.61 636.955 4196.38 645.392 4194.78 653.866C4193.44 661.292 4192.35 668.774 4191.31 676.237C4190.9 679.417 4190.46 682.652 4189.52 685.722C4188.22 689.95 4186.03 693.774 4182.83 696.843C4174.69 704.656 4162.24 704.27 4151.89 702.707C4143.53 701.384 4135.5 698.773 4127.5 695.887C4127.23 695.795 4126.93 695.704 4126.62 695.557C4120 693.369 4113.29 691.402 4106.47 689.95C4099.93 688.645 4093.35 687.873 4086.66 687.395C4080.48 686.935 4074.27 686.366 4068.04 685.906C4068.04 685.906 4067.98 685.906 4067.98 685.943L4067.59 685.888C4067.54 685.888 4067.54 685.888 4067.54 685.888C4063.83 685.685 4060.11 685.593 4056.44 685.74C4055.59 685.814 4054.78 685.943 4053.97 686.071C4053.46 686.2 4052.89 686.366 4052.39 686.476C4051.71 686.715 4051.03 687.009 4050.35 687.303C4049.91 687.579 4049.43 687.854 4048.96 688.13C4048.73 688.296 4048.57 688.424 4048.4 688.553C4047.67 689.178 4046.97 689.876 4046.33 690.557C4044.97 692.137 4043.7 693.718 4042.52 695.354L4042.5 695.446C4042.45 695.483 4042.39 695.538 4042.39 695.575C4041.31 697.284 4040.32 699.012 4039.36 700.795C4038.77 702.082 4038.24 703.332 4037.71 704.692C4037.41 705.74 4037.1 706.77 4036.86 707.817C4036.73 708.387 4036.69 708.975 4036.6 709.545C4036.58 710.28 4036.62 711.071 4036.62 711.806C4036.71 712.854 4036.86 713.865 4037.01 714.858C4037.83 718.663 4038.92 722.376 4040.1 726.034C4040.22 726.493 4040.39 727.008 4040.57 727.486C4042.04 731.935 4043.55 736.383 4044.45 740.997C4045.3 745.703 4045.39 750.39 4044.98 755.151C4044.64 759.526 4043.72 763.864 4042.59 768.092C4041.62 771.695 4040.46 775.298 4039.01 778.735C4035.5 786.841 4031.01 794.691 4023.5 799.654C4015.92 804.654 4006.79 805.867 3997.93 805.849C3994.43 805.83 3991.02 805.72 3987.49 805.591C3985.32 805.628 3983.15 805.683 3981 805.867C3979.55 806.088 3978.07 806.363 3976.66 806.657C3974.45 807.227 3972.34 807.889 3970.21 808.661C3966.33 810.205 3962.65 812.135 3958.94 814.047C3956.07 815.444 3953.11 816.547 3950.13 817.687C3949.66 817.907 3949.18 818.128 3948.7 818.367C3948.28 818.642 3947.84 818.881 3947.45 819.175C3947.39 819.212 3947.34 819.304 3947.28 819.341C3947.05 819.598 3946.81 819.874 3946.59 820.076C3945.72 821.271 3944.89 822.484 3944.12 823.753C3942.28 826.878 3940.69 830.094 3939.31 833.477C3939.31 833.532 3939.25 833.569 3939.23 833.605C3939.23 833.66 3939.23 833.661 3939.23 833.661C3939.18 833.697 3939.16 833.752 3939.16 833.789C3939.16 833.789 3939.16 833.844 3939.14 833.881C3937.3 838.789 3935.78 843.771 3934.58 848.862C3933.79 852.631 3933.24 856.399 3932.87 860.223C3932.65 863.495 3932.62 866.73 3932.73 870.002C3932.95 874.56 3933.28 879.046 3932.62 883.568C3931.88 888.917 3930.19 894.137 3927.95 899.027C3923.5 908.898 3915.76 916.784 3908.79 924.964C3908.74 925.001 3908.74 925.001 3908.68 925.056V925.093C3908.68 925.148 3908.63 925.184 3908.55 925.221C3907.41 926.581 3906.37 928.052 3905.37 929.523C3904.82 930.57 3904.29 931.581 3903.79 932.592V932.648C3903.42 933.438 3903.17 934.228 3902.89 935.019C3902.76 935.552 3902.71 936.03 3902.58 936.508C3902.54 937.096 3902.47 937.629 3902.47 938.217C3902.47 938.897 3902.56 939.651 3902.6 940.35C3902.78 941.471 3903.08 942.537 3903.3 943.603C3903.7 944.89 3904.11 946.177 3904.6 947.445C3905.23 948.86 3905.96 950.257 3906.7 951.599C3907.56 953.051 3908.5 954.43 3909.53 955.809C3911.26 957.794 3912.76 959.926 3914.12 962.132C3916.68 965.809 3918.77 969.706 3920.21 973.952C3921.03 976.342 3921.57 978.823 3922.05 981.268C3922.56 983.805 3922.93 986.323 3923.09 988.86C3923.46 995.073 3922.78 1001.18 3921.44 1007.22C3921.22 1008.36 3920.81 1009.45 3920.34 1010.4C3919.93 1014.13 3919.44 1017.85 3918.85 1021.56C3917.67 1028.58 3916.31 1035.57 3914.36 1042.42C3912.19 1049.92 3909.03 1057.04 3904.91 1063.67C3901.05 1069.91 3896.42 1075.57 3892.25 1081.62C3892.18 1081.74 3892.1 1081.89 3892.05 1082.02C3891.99 1082.02 3891.94 1082.11 3891.94 1082.11C3886.39 1090.49 3881.68 1099.35 3877.52 1108.54C3876.42 1111.04 3875.37 1113.54 3874.22 1116.03C3872.78 1119.11 3871.2 1122.13 3869.4 1125.02C3865.76 1131.08 3861.57 1136.82 3857.84 1142.81C3856.2 1145.53 3854.71 1148.31 3853.41 1151.17C3852.62 1153.23 3851.88 1155.24 3851.28 1157.37C3850.6 1160.03 3850.1 1162.7 3849.71 1165.4C3849.29 1168.58 3849.07 1171.8 3848.55 1174.98C3847.1 1184.17 3843.72 1193.18 3838.21 1200.68C3832.47 1208.54 3824.35 1214.59 3816.09 1219.59C3809.4 1223.58 3802.49 1227.05 3795.45 1230.45C3792.64 1231.81 3789.93 1233.19 3787.29 1234.83C3786.85 1235.16 3786.41 1235.49 3786 1235.82C3785.89 1235.91 3785.78 1236.02 3785.67 1236.12C3785.6 1236.24 3785.49 1236.34 3785.38 1236.47C3785.3 1236.61 3785.17 1236.78 3785.1 1236.96C3784.82 1237.46 3784.6 1237.97 3784.38 1238.52C3784.18 1239.19 3784 1239.85 3783.85 1240.51C3783.72 1241.13 3783.61 1241.81 3783.57 1242.44C3783.52 1243.17 3783.52 1243.85 3783.56 1244.55C3783.65 1245.25 3783.74 1245.95 3783.85 1246.61C3784.07 1247.53 3784.36 1248.51 3784.66 1249.44C3785.82 1252.6 3787.34 1255.64 3788.87 1258.73C3791.28 1263.51 3793.35 1268.39 3794.97 1273.54C3797.47 1281.68 3798.59 1290.18 3799.27 1298.63C3799.53 1302.51 3799.66 1306.37 3799.73 1310.21C3799.73 1312.29 3799.71 1314.39 3799.66 1316.46C3799.64 1317.55 3799.58 1318.61 3799.58 1319.7C3799.57 1321.17 3799.58 1322.66 3799.44 1324.11C3799.42 1325.29 3799.29 1326.5 3799.2 1327.68C3798.17 1346.83 3795.63 1365.84 3792.82 1384.77C3791.07 1396.72 3789.03 1408.58 3786.86 1420.47C3785.14 1429.62 3783.39 1438.81 3781.04 1447.82C3780.16 1451.19 3779.16 1454.59 3777.62 1457.71C3776.02 1460.96 3774.03 1464.03 3771.75 1466.9C3769.79 1469.22 3767.66 1471.31 3765.45 1473.35C3763.57 1475.01 3761.63 1476.59 3759.84 1478.39C3759.18 1479.18 3758.57 1479.97 3757.91 1480.82C3756.9 1482.38 3755.98 1483.98 3755.05 1485.61C3755.03 1485.71 3754.97 1485.74 3754.95 1485.85C3753.24 1489.44 3751.77 1493.11 3750.58 1496.94H3750.63C3750.58 1496.97 3750.56 1497.07 3750.56 1497.12C3749.46 1501 3748.54 1504.95 3747.56 1508.89C3746.41 1513.35 3745.23 1517.75 3744 1522.2C3741.81 1529.69 3739.2 1537.1 3737.07 1544.6C3736.99 1544.84 3736.96 1545.08 3736.87 1545.32C3736.87 1545.37 3736.87 1545.37 3736.87 1545.37C3736.79 1545.56 3736.77 1545.71 3736.76 1545.85C3736.76 1545.91 3736.76 1545.91 3736.76 1545.91C3736.76 1545.94 3736.76 1545.94 3736.74 1546C3736.74 1546.05 3736.66 1546.13 3736.66 1546.18C3735.56 1550.39 3734.68 1554.71 3734.09 1559.05C3733.94 1560.71 3733.81 1562.3 3733.76 1563.98C3733.81 1564.58 3733.83 1565.17 3733.89 1565.78C3733.96 1566.28 3734.09 1566.79 3734.2 1567.3C3734.42 1567.87 3734.62 1568.41 3734.84 1568.98C3735.28 1569.93 3735.74 1570.83 3736.28 1571.7C3736.88 1572.64 3737.53 1573.5 3738.21 1574.34C3739.26 1575.58 3740.36 1576.79 3741.53 1577.87C3744.09 1580.26 3746.76 1582.52 3749.31 1584.91C3751.88 1587.21 3754.42 1589.66 3756.99 1591.99C3759.16 1593.98 3761.33 1595.93 3763.56 1597.87C3764.82 1598.99 3766.07 1600.15 3767.21 1601.4C3768.91 1603.33 3770.21 1605.48 3771.29 1607.82C3771.37 1608.02 3771.44 1608.19 3771.52 1608.33C3774.22 1615.17 3774.75 1622.58 3774.81 1629.99C3774.82 1636.97 3774.57 1644.03 3773.94 1651.02C3773.21 1659.77 3772.07 1668.46 3770.38 1677.08C3770.03 1678.81 3769.59 1680.46 3769.14 1682.17C3768.17 1685.78 3766.13 1688.96 3762.97 1691.02C3759.77 1693.11 3755.95 1693.92 3752.23 1694.12C3748.28 1694.29 3744.37 1694.1 3740.49 1693.74C3731.7 1692.95 3722.95 1691.47 3714.27 1689.95C3706.61 1688.59 3698.85 1687.36 3691.08 1686.36L3690.78 1686.33C3686.7 1685.92 3682.68 1685.57 3678.54 1685.57C3676.85 1685.68 3675.14 1685.87 3673.5 1686.07C3671.52 1686.47 3669.55 1686.86 3667.64 1687.38C3666.87 1687.67 3666.08 1687.95 3665.36 1688.22C3664.61 1688.64 3663.85 1689.03 3663.12 1689.42C3661.76 1690.35 3660.49 1691.29 3659.2 1692.34C3657.46 1693.85 3655.8 1695.39 3654.18 1697.06C3651.54 1699.97 3649.09 1702.96 3646.7 1706.11C3646.65 1706.2 3646.57 1706.29 3646.52 1706.36C3637.09 1719.6 3628.89 1733.66 3621.1 1747.93C3617.44 1754.76 3614.11 1761.71 3611.19 1768.86C3608.08 1776.97 3605.6 1785.22 3603.49 1793.57C3601.78 1800.85 3600.6 1808.2 3599.77 1815.61C3599.79 1815.17 3599.85 1814.73 3599.86 1814.29C3598.93 1823.05 3598.43 1831.75 3598.49 1840.52C3598.69 1847.87 3599.07 1855.31 3600.23 1862.63C3601.43 1869.89 3603.34 1877.06 3604.99 1884.19C3606.32 1889.95 3607.59 1895.74 3608.69 1901.62C3609.79 1907.54 3610.75 1913.49 3611.28 1919.52C3611.85 1926.4 3612.07 1933.27 3612.14 1940.22C3612.35 1953.99 3611.7 1967.72 3610.93 1981.49C3610.25 1994.24 3609.42 2006.97 3609.61 2019.74C3609.9 2028.84 3610.69 2037.87 3611.68 2046.93C3612.79 2056.93 3613.63 2066.95 3613.87 2077.02C3614.11 2086.21 3614 2095.35 3613.69 2104.56C3613.32 2113.12 3612.47 2121.65 3611.7 2130.2C3610.73 2141.61 3609.59 2153.12 3609.86 2164.63C3609.94 2166.47 3610.07 2168.25 3610.34 2170.07C3610.45 2170.68 3610.6 2171.28 3610.82 2171.91C3610.89 2172.05 3611 2172.27 3611.08 2172.48C3611.21 2172.64 3611.28 2172.81 3611.39 2173.01L3611.52 2173.18C3611.89 2173.62 3612.27 2174.08 3612.7 2174.54C3614.7 2176.65 3616.87 2178.6 3619.11 2180.49C3626.28 2186.37 3633.82 2191.7 3641.17 2197.31C3644.75 2199.99 3648.36 2202.7 3652.07 2205.2C3655.78 2207.75 3659.55 2210.27 3663.25 2212.88C3666.78 2215.36 3670.23 2217.88 3673.52 2220.73C3677.16 2223.82 3680.16 2227.84 3682.09 2232.22C3685.1 2239.2 3685.25 2247.2 3685.34 2254.7C3685.45 2261.3 3685.27 2267.93 3684.84 2274.52C3683.91 2288.6 3680.86 2302.73 3674.94 2315.64C3672.69 2320.53 3669.64 2324.85 3664.79 2327.4C3661.11 2329.37 3656.92 2330.03 3652.82 2330.41C3647.38 2331 3641.79 2331.08 3636.37 2331.85C3635.87 2331.92 3635.42 2332.05 3634.96 2332.12C3634.9 2332.22 3634.83 2332.31 3634.77 2332.34C3634.51 2332.75 3634.31 2333.12 3634.11 2333.48C3633.83 2333.98 3633.67 2334.5 3633.39 2335.01C3633.03 2336.13 3632.71 2337.33 3632.38 2338.5C3632.05 2340.12 3631.85 2341.81 3631.65 2343.52C3631.28 2347.05 3631.1 2350.62 3631.11 2354.16C3631.24 2356.3 3631.48 2358.41 3631.78 2360.45C3632.4 2363.59 3633.17 2366.66 3634.11 2369.7C3635.69 2374.66 3637.6 2379.51 3639.75 2384.26C3644.4 2394.18 3649.57 2403.91 3653.65 2414.09C3655.56 2418.91 3657.29 2423.89 3658.67 2428.85C3659.31 2431.2 3659.88 2433.61 3660.32 2436.04C3660.78 2438.91 3661.02 2441.64 3661.21 2444.53C3661.21 2444.82 3661.22 2445.08 3661.22 2445.38C3661.41 2451.55 3660.93 2457.73 3660.38 2463.9C3659.62 2471.42 3658.87 2478.89 3657.93 2486.33C3656.44 2498.11 3654.59 2509.86 3651.87 2521.42C3650.8 2526.04 3649.59 2530.63 3648.23 2535.15C3647.05 2539.12 3645.95 2543.3 3644.09 2547.01C3642.12 2551.05 3639.37 2554.79 3636.13 2557.95C3633.15 2560.85 3629.7 2563.26 3626.26 2565.56C3624.15 2566.92 3622.02 2568.33 3619.94 2569.75C3617.7 2571.29 3615.58 2572.95 3613.5 2574.66C3610.99 2576.81 3608.63 2579.07 3606.35 2581.49C3604.52 2583.59 3602.79 2585.74 3601.17 2588.02C3598.85 2591.42 3596.76 2594.95 3594.81 2598.55C3592.25 2603.64 3589.92 2608.77 3587.68 2613.96C3585.73 2618.55 3583.74 2623.07 3582.02 2627.71C3581.37 2629.38 3580.78 2631.07 3580.34 2632.82C3580.27 2633.35 3580.14 2633.86 3580.1 2634.42C3580.05 2635.06 3580.03 2635.63 3580.03 2636.22C3580.09 2637.47 3580.21 2638.66 3580.43 2639.88C3580.69 2641.2 3581.04 2642.43 3581.39 2643.72C3581.45 2643.72 3581.43 2643.77 3581.43 2643.77C3581.43 2643.83 3581.43 2643.83 3581.43 2643.83C3581.46 2643.88 3581.5 2643.99 3581.54 2644.09C3581.57 2644.2 3581.61 2644.29 3581.63 2644.4C3581.74 2644.71 3581.85 2644.97 3581.96 2645.22C3581.96 2645.28 3582 2645.34 3582.03 2645.43C3582.14 2645.68 3582.22 2645.89 3582.33 2646.16C3584.28 2650.63 3586.85 2654.89 3589.17 2659.23C3592.02 2664.62 3594.24 2670.32 3595.47 2676.31C3596.7 2682.34 3597.07 2688.55 3596.96 2694.75C3596.92 2698.33 3596.56 2701.92 3596.32 2705.54C3596.11 2708.99 3595.84 2712.45 3595.64 2715.92C3595.64 2715.92 3595.64 2715.92 3595.64 2715.98C3594.46 2732.69 3593.58 2750.13 3585.71 2765.28C3582.55 2771.45 3578.47 2777.06 3573.58 2781.95C3570.42 2785.04 3566.74 2787.69 3562.46 2789.03C3559.63 2789.89 3556.59 2790.09 3553.67 2789.21C3550.95 2788.37 3548.73 2786.67 3546.7 2784.71C3542.31 2780.13 3539.42 2774.58 3536.3 2769.1C3535.05 2766.9 3533.73 2764.78 3532.26 2762.76C3531.63 2761.99 3530.95 2761.29 3530.31 2760.55C3529.57 2759.86 3528.78 2759.19 3527.99 2758.59C3527.11 2757.93 3526.15 2757.34 3525.25 2756.77C3524.57 2756.42 3523.93 2756.09 3523.23 2755.79C3523.14 2755.77 3523.03 2755.76 3522.94 2755.7C3522.81 2755.88 3522.64 2755.99 3522.48 2756.18C3521.48 2757.23 3520.55 2758.31 3519.68 2759.47C3518.93 2760.54 3518.19 2761.62 3517.53 2762.74C3515.51 2766.53 3513.6 2770.42 3511.74 2774.34C3512.64 2774.32 3513.58 2774.3 3514.5 2774.3C3515.18 2774.36 3515.91 2774.41 3516.59 2774.47C3516.87 2774.56 3517.13 2774.6 3517.37 2774.63C3517.46 2774.65 3517.55 2774.71 3517.64 2774.73C3517.73 2774.84 3517.81 2774.89 3517.95 2774.97C3518.43 2775.42 3518.91 2775.88 3519.33 2776.34C3519.83 2776.91 3520.34 2777.48 3520.8 2778.09C3520.91 2778.31 3521.08 2778.57 3521.19 2778.79C3521.3 2779.05 3521.41 2779.27 3521.52 2779.52C3521.61 2779.87 3521.76 2780.24 3521.85 2780.55C3522.11 2781.86 3522.26 2783.16 3522.42 2784.41C3522.57 2785.72 3522.68 2787.01 3522.79 2788.31C3523.14 2791.6 3523.45 2794.91 3524 2798.18C3524.52 2801.42 3525.12 2804.65 3525.49 2807.91C3525.6 2809.5 3525.71 2811.05 3525.75 2812.61C3525.67 2813.44 3525.6 2814.27 3525.55 2815.04C3524.77 2819.25 3523.43 2823.4 3522.38 2827.57C3521.26 2832.19 3520.25 2836.8 3519.37 2841.51C3518.8 2844.67 3518.32 2847.94 3518.08 2851.27C3517.9 2853.51 3517.81 2855.81 3517.88 2858.03C3517.86 2859.5 3517.95 2860.96 3518.08 2862.35C3518.23 2863.75 3518.45 2865.22 3518.69 2866.58C3518.84 2867.28 3518.98 2867.96 3519.13 2868.66C3519.33 2869.32 3519.52 2870.04 3519.72 2870.72C3520.56 2873.4 3521.65 2876.01 3523.16 2878.46C3525.1 2881.6 3527.4 2884.78 3530.07 2887.39C3530.97 2888.25 3531.94 2889.04 3532.92 2889.78C3533.58 2890.28 3534.31 2890.72 3535.03 2891.12C3535.75 2891.53 3536.5 2891.84 3537.24 2892.13C3537.99 2892.39 3538.78 2892.65 3539.55 2892.87C3540.6 2893.12 3541.65 2893.33 3542.72 2893.44C3546.59 2893.9 3550.42 2893.62 3554.35 2893.66C3555.23 2893.69 3556.1 2893.77 3557.02 2893.9C3558.39 2894.19 3559.74 2894.5 3561.12 2894.89C3563.65 2895.75 3566.06 2896.69 3568.52 2897.79C3569.59 2898.29 3570.6 2898.79 3571.59 2899.37C3572.27 2899.82 3572.94 2900.31 3573.56 2900.79C3573.85 2901.08 3574.11 2901.41 3574.41 2901.69C3574.79 2902.13 3575.16 2902.59 3575.55 2903.03C3576.02 2903.79 3576.5 2904.56 3576.89 2905.29C3577.09 2905.57 3577.2 2905.83 3577.37 2906.1C3577.4 2906.16 3577.44 2906.27 3577.48 2906.36C3577.59 2906.58 3577.71 2906.78 3577.82 2907C3577.95 2907.46 3578.14 2907.94 3578.25 2908.46C3578.3 2908.71 3578.36 2909.01 3578.41 2909.32C3578.43 2909.87 3578.45 2910.4 3578.47 2910.99C3578.47 2910.99 3578.47 2910.99 3578.47 2911.05C3578.47 2911.05 3578.47 2911.05 3578.47 2911.1C3574.92 2911.82 3571.32 2912.22 3567.75 2912.68C3563.34 2913.22 3558.93 2913.77 3554.48 2914.25C3551.78 2914.54 3549.08 2914.83 3546.37 2915.18C3543.71 2915.57 3541.02 2916.07 3538.41 2916.82C3536.98 2917.24 3535.45 2917.96 3534.22 2918.97C3533.78 2919.25 3533.38 2919.63 3533.05 2919.98C3532.81 2920.24 3532.57 2920.55 3532.33 2920.81C3531.89 2921.43 3531.56 2922.02 3531.21 2922.7C3531.06 2923.03 3530.91 2923.4 3530.77 2923.71C3530.67 2923.95 3530.55 2924.23 3530.45 2924.45C3530.22 2925.44 3530.16 2926.47 3530.31 2927.43C3530.31 2927.72 3530.36 2928.03 3530.44 2928.29C3530.69 2929.26 3531.1 2930.16 3531.58 2930.97V2931.03C3531.63 2931.03 3531.63 2931.03 3531.67 2931.08C3531.8 2931.25 3531.85 2931.47 3531.98 2931.62C3532.16 2931.98 3532.37 2932.37 3532.49 2932.77C3533.38 2935.16 3533.95 2937.7 3534.65 2940.22C3534.87 2941.05 3535.09 2941.86 3535.36 2942.68C3535.73 2943.86 3536.13 2945.05 3536.56 2946.25C3536.59 2946.3 3536.63 2946.41 3536.67 2946.52C3537.09 2947.66 3537.62 2948.79 3538.14 2949.89C3538.14 2949.89 3538.19 2949.89 3538.17 2949.94C3538.6 2950.7 3539.04 2951.45 3539.52 2952.15C3539.92 2952.76 3540.33 2953.36 3540.78 2953.95C3542.11 2955.66 3543.6 2957.26 3545.25 2958.73C3546.21 2959.56 3547.18 2960.29 3548.21 2960.99C3548.89 2961.38 3549.63 2961.78 3550.36 2962.15C3552.22 2962.96 3554.26 2963.4 3556.45 2963.23C3558.58 2963.05 3560.77 2962.65 3562.79 2961.89C3563.76 2961.54 3564.72 2961.14 3565.67 2960.7C3567.59 2959.8 3569.44 2958.84 3571.35 2957.88C3571.72 2957.7 3572.16 2957.46 3572.57 2957.33C3573.1 2957.06 3573.63 2956.8 3574.15 2956.58V2956.52L3574.2 2956.54L3574.15 2956.58C3573.74 2957.35 3573.28 2958.12 3572.82 2958.95C3570.38 2963.51 3567.99 2968.38 3566.91 2973.49C3566.24 2976.69 3565.73 2979.91 3565.34 2983.16C3564.87 2987.42 3564.55 2991.91 3566.23 2995.93C3566.41 2996.39 3566.63 2996.84 3566.87 2997.26C3566.96 2997.31 3567 2997.39 3567 2997.42C3567.24 2997.76 3567.49 2998.09 3567.79 2998.42C3568.63 2999.37 3569.59 3000.25 3570.45 3001.12C3572.18 3002.79 3573.96 3004.45 3575.62 3006.21C3576.85 3007.52 3577.99 3008.91 3579.09 3010.4C3579.53 3011.06 3579.98 3011.76 3580.36 3012.46V3012.52C3581.24 3014.28 3582.02 3016.01 3582.7 3017.77C3582.73 3017.83 3582.77 3017.88 3582.77 3017.92C3583.5 3019.65 3584.13 3021.38 3584.75 3023.14C3584.85 3023.25 3584.88 3023.36 3584.9 3023.45C3584.94 3023.51 3584.94 3023.51 3584.94 3023.56L3584.98 3023.62C3585.01 3023.67 3585.01 3023.73 3585.01 3023.77C3585.05 3023.82 3585.05 3023.88 3585.05 3023.88C3585.1 3023.84 3585.1 3023.84 3585.1 3023.88C3585.1 3023.93 3585.14 3023.93 3585.14 3023.99C3585.21 3024.13 3585.23 3024.3 3585.32 3024.45C3587.14 3029.45 3588.89 3034.43 3590.16 3039.52C3590.49 3040.99 3590.8 3042.48 3591.04 3043.93C3591.32 3045.05 3591.56 3046.17 3591.78 3047.29C3592.33 3049.89 3592.93 3052.44 3593.71 3054.96C3595.34 3060.33 3597.49 3065.4 3599.96 3070.44C3601.92 3074.52 3603.95 3078.54 3605.89 3082.62C3606.78 3084.32 3607.66 3086.08 3608.39 3087.81C3609.26 3089.57 3610.1 3091.3 3610.82 3093.08C3611.65 3094.83 3612.38 3096.56 3613.1 3098.34C3614.31 3101.82 3615.36 3105.36 3616.68 3108.8C3617.35 3110.62 3618.06 3112.44 3618.78 3114.28C3619.15 3115.18 3619.55 3116.12 3619.9 3117C3620.36 3117.84 3620.78 3118.75 3621.19 3119.59C3621.94 3121.14 3622.77 3122.62 3623.63 3124.13C3624.31 3125.25 3624.97 3126.39 3625.6 3127.48C3627 3129.7 3628.41 3131.81 3629.72 3133.98C3630.45 3135.07 3631.13 3136.15 3631.79 3137.29C3632.55 3138.84 3633.26 3140.36 3633.91 3141.98C3634.07 3142.55 3634.24 3143.06 3634.37 3143.62C3634.59 3144.15 3634.75 3144.7 3634.86 3145.22C3635.18 3147.07 3635.51 3148.91 3635.73 3150.75C3636 3154.28 3636.17 3157.75 3636.44 3161.28C3636.7 3164.87 3636.9 3168.49 3637.62 3172.03C3638.21 3174.74 3638.85 3177.44 3639.64 3180.1C3639.96 3180.99 3640.27 3181.87 3640.6 3182.7C3642.05 3186.24 3643.76 3189.7 3645.91 3192.82V3192.88C3648.1 3196.06 3650.38 3199 3652.77 3201.91C3657.23 3207.38 3661.87 3212.7 3666.52 3217.93C3669.72 3221.61 3673.1 3225.14 3676.41 3228.72C3677.86 3230.21 3679.33 3231.72 3680.71 3233.25C3680.71 3233.3 3680.75 3233.36 3680.75 3233.36C3680.8 3233.36 3680.84 3233.41 3680.87 3233.47H3680.93C3681.02 3233.58 3681.15 3233.69 3681.22 3233.82C3681.48 3234.09 3681.74 3234.39 3681.92 3234.7C3682.31 3235.1 3682.69 3235.54 3683.06 3236.04C3684.59 3237.73 3686.04 3239.57 3687.44 3241.5C3688.15 3242.35 3688.85 3243.28 3689.5 3244.2C3689.66 3244.42 3689.79 3244.59 3689.9 3244.81C3692.44 3248.28 3694.94 3251.79 3697.8 3255.03C3701.74 3259.44 3706.65 3262.82 3712.16 3264.9C3715.51 3266.19 3718.94 3267.36 3722.27 3268.8C3723.1 3269.22 3723.91 3269.68 3724.73 3270.14C3725.27 3270.47 3725.76 3270.84 3726.3 3271.21C3726.59 3271.5 3726.85 3271.78 3727.16 3272.07C3727.38 3272.29 3727.53 3272.57 3727.75 3272.79C3728.02 3273.23 3728.26 3273.65 3728.54 3274.09C3728.61 3274.26 3728.69 3274.4 3728.8 3274.62C3728.78 3274.72 3728.81 3274.83 3728.83 3274.97C3728.87 3275.03 3728.87 3275.12 3728.91 3275.18L3728.83 3275.71C3728.58 3277.11 3728.19 3278.47 3727.79 3279.79C3727.18 3281.52 3726.65 3283.26 3726.04 3284.99C3725.49 3286.74 3724.99 3288.43 3724.53 3290.23C3723.96 3292.75 3723.45 3295.29 3722.84 3297.77C3722.75 3298.34 3722.56 3298.96 3722.44 3299.57C3722.31 3300.14 3722.12 3300.71 3721.98 3301.33C3721.88 3301.61 3721.79 3301.94 3721.66 3302.22C3721.44 3303.06 3721.17 3303.87 3720.85 3304.66C3720.67 3305.27 3720.43 3305.87 3720.19 3306.48C3719.68 3307.97 3719.11 3309.48 3718.47 3310.89C3718.04 3311.81 3717.6 3312.73 3717.09 3313.59C3716.66 3314.51 3716.13 3315.38 3715.62 3316.28C3714.81 3317.44 3714 3318.61 3713.04 3319.73C3712.56 3320.3 3712.03 3320.87 3711.52 3321.39C3711.06 3321.9 3710.52 3322.42 3709.95 3322.93C3709.26 3323.67 3708.47 3324.38 3707.67 3325.1C3707.38 3325.41 3707.11 3325.65 3706.76 3325.95L3706.7 3325.98C3706.46 3326.24 3706.24 3326.46 3705.95 3326.72C3704.18 3328.28 3702.49 3329.86 3700.73 3331.42C3699.37 3332.71 3697.99 3333.98 3696.63 3335.25L3693.36 3338.47C3691.68 3340.14 3690.08 3342.01 3688.67 3343.94C3688.25 3344.48 3687.91 3345.06 3687.53 3345.65C3687.2 3346.24 3686.9 3346.85 3686.63 3347.38C3686.33 3348.02 3686.09 3348.63 3685.91 3349.26C3685.54 3350.49 3685.34 3351.83 3685.34 3353.21C3685.36 3353.76 3685.38 3354.29 3685.4 3354.84C3685.51 3355.45 3685.62 3356.02 3685.73 3356.63C3686.13 3358.26 3686.79 3359.73 3687.68 3361.19C3688.59 3362.6 3689.7 3363.89 3690.95 3365.1C3691.94 3366.07 3693.02 3367.07 3694 3368.1C3694.48 3368.5 3694.95 3368.98 3695.38 3369.44C3695.75 3369.88 3696.13 3370.28 3696.5 3370.78C3696.7 3371.06 3696.85 3371.37 3697.05 3371.7C3697.29 3372.12 3697.45 3372.6 3697.69 3373.08C3697.88 3373.74 3698.08 3374.42 3698.28 3375.08C3698.91 3378.17 3699.33 3381.3 3699.97 3384.38C3700.67 3387.64 3701.44 3390.85 3702.31 3394.02C3703.3 3397.71 3704.75 3401.17 3706.43 3404.57C3707.93 3407.75 3710.03 3410.61 3712.01 3413.46C3714.61 3417.2 3716.88 3421.17 3719.38 3425.03C3720.27 3426.39 3721.19 3427.8 3722.12 3429.13C3722.33 3429.4 3722.55 3429.62 3722.71 3429.86C3723.21 3430.52 3723.67 3431.13 3724.16 3431.74C3724.75 3432.47 3725.34 3433.13 3725.97 3433.83C3727.25 3435.15 3728.59 3436.39 3729.94 3437.62C3730.98 3438.5 3732.03 3439.4 3733.04 3440.28C3735.54 3442.32 3737.99 3444.46 3740.21 3446.79C3740.43 3447.01 3740.65 3447.19 3740.85 3447.43C3741.55 3448.32 3742.27 3449.16 3742.93 3450.06C3743.3 3450.61 3743.61 3451.15 3743.92 3451.68C3744.29 3452.23 3744.66 3452.76 3744.97 3453.32C3745.8 3455.01 3746.64 3456.72 3747.36 3458.44C3747.64 3459.22 3747.88 3459.99 3748.06 3460.76C3748.08 3460.91 3748.12 3461.07 3748.13 3461.28C3748.15 3461.77 3748.19 3462.27 3748.17 3462.75C3748.06 3464.84 3747.82 3466.83 3747.56 3468.9C3747.31 3470.39 3746.99 3471.83 3746.59 3473.24C3746.31 3474.44 3745.98 3475.67 3745.67 3476.85C3745.34 3478.08 3745.03 3479.31 3744.64 3480.48C3743.59 3484.22 3742.47 3487.89 3741.39 3491.62C3741.06 3492.91 3740.67 3494.12 3740.3 3495.36C3740.1 3496.02 3739.97 3496.64 3739.83 3497.25C3739.73 3497.58 3739.64 3497.91 3739.59 3498.24C3739.53 3498.57 3739.44 3498.87 3739.4 3499.14C3739.18 3500.3 3738.96 3501.44 3738.8 3502.6L3738.7 3503.19C3738.56 3504.14 3738.46 3505.12 3738.34 3506.09C3737.64 3511.5 3737.49 3517.19 3738.83 3522.51C3739.59 3525.43 3740.71 3528.19 3742.53 3530.58C3743.65 3532.06 3744.94 3533.24 3746.35 3534.44C3747.67 3535.52 3749.22 3536.33 3750.73 3537.1C3754.77 3539.03 3759.05 3540.34 3763.39 3541.37C3765.19 3541.83 3767.01 3542.19 3768.85 3542.45C3772.32 3542.97 3775.84 3543.19 3779.38 3543.11C3784.95 3543.04 3791.02 3542.65 3796.31 3540.72C3797.4 3540.34 3798.5 3539.86 3799.57 3539.38C3802.75 3537.87 3805.71 3536.04 3808.74 3534.22C3812.62 3531.88 3816.46 3529.53 3820.47 3527.36C3823.35 3525.87 3826.35 3524.47 3829.38 3523.3C3831.46 3522.56 3833.52 3521.94 3835.63 3521.35C3836.94 3521.09 3838.26 3520.85 3839.62 3520.7C3840.52 3520.63 3841.4 3520.58 3842.29 3520.59C3847.65 3520.89 3852.97 3521.66 3858.28 3522.34C3867.75 3523.63 3877.19 3525.26 3886.77 3524.69C3897.63 3524.07 3908.57 3520.01 3916.6 3512.52C3920.89 3508.46 3923.9 3503.11 3925.23 3497.4C3925.43 3496.7 3925.54 3496.02 3925.63 3495.3L3925.69 3494.97C3925.78 3494.29 3925.85 3493.57 3925.89 3492.87C3925.98 3491.96 3926.02 3490.98 3926.02 3489.99C3925.98 3489.23 3926 3488.46 3925.94 3487.76C3925.96 3487.67 3925.96 3487.62 3925.92 3487.56C3925.94 3487.12 3925.91 3486.68 3925.87 3486.22C3925.76 3485.26 3925.67 3484.27 3925.56 3483.28C3925.41 3482.32 3925.24 3481.37 3925.1 3480.36C3924.95 3479.4 3924.75 3478.44 3924.58 3477.47C3924.38 3476.5 3924.12 3475.54 3923.92 3474.57C3923.61 3473.33 3923.24 3472.1 3922.98 3470.89C3922.49 3469.14 3922.01 3467.4 3921.59 3465.61C3921.15 3463.57 3920.8 3461.57 3920.56 3459.51C3920.52 3458.78 3920.47 3458.08 3920.47 3457.38L3920.5 3457.19C3920.52 3457.1 3920.59 3456.96 3920.59 3456.86C3921.44 3455.17 3922.41 3453.48 3923.39 3451.86C3923.61 3451.4 3923.87 3450.91 3924.18 3450.45C3924.86 3449.12 3925.59 3447.8 3926.29 3446.42C3926.59 3445.78 3926.86 3445.17 3927.16 3444.53C3927.17 3444.44 3927.19 3444.35 3927.23 3444.29C3927.54 3443.56 3927.8 3442.8 3928.06 3442.05C3928.26 3441.29 3928.48 3440.49 3928.64 3439.73C3928.83 3438.78 3928.99 3437.71 3929.14 3436.7C3929.2 3436.31 3929.25 3435.98 3929.25 3435.58C3929.31 3434.9 3929.34 3434.22 3929.31 3433.52C3929.27 3433.06 3929.25 3432.58 3929.21 3432.12C3928.98 3429.77 3928.52 3427.49 3927.96 3425.25C3927.74 3424.42 3927.51 3423.65 3927.23 3422.88C3926.77 3421.63 3926.2 3420.47 3925.69 3419.31C3925.34 3418.67 3925.08 3418.1 3924.78 3417.45C3924.55 3417.03 3924.36 3416.64 3924.18 3416.24C3924.2 3416.15 3924.16 3416.09 3924.16 3416.04V3415.98C3924.09 3415.52 3923.99 3415.12 3923.9 3414.66C3923.81 3413.56 3923.83 3412.47 3923.77 3411.44C3923.87 3410.43 3923.98 3409.46 3924.07 3408.43C3924.49 3406.22 3924.97 3403.98 3925.54 3401.81C3926.07 3400.21 3926.62 3398.72 3927.29 3397.2V3397.14C3927.78 3396.13 3928.31 3395.12 3928.9 3394.18C3929.53 3393.28 3930.1 3392.43 3930.7 3391.64C3931.35 3390.91 3932.05 3390.23 3932.69 3389.48C3933.31 3388.98 3933.92 3388.48 3934.58 3387.99C3935.21 3387.49 3935.81 3386.98 3936.48 3386.5C3938.17 3385.41 3939.84 3384.38 3941.6 3383.41C3943.57 3382.36 3945.63 3381.44 3947.73 3380.56C3957.63 3377.05 3968 3374.86 3977.69 3370.82C3987.69 3366.66 3996.93 3360.98 4006.97 3356.99C4008.37 3356.5 4009.76 3356.02 4011.16 3355.58C4012.56 3355.1 4014.01 3354.66 4015.43 3354.33C4016.31 3354.02 4017.17 3353.8 4018.06 3353.58C4022.17 3352.71 4026.29 3352.09 4030.46 3351.55C4032.8 3351.41 4035.08 3351.3 4037.43 3351.35C4038.13 3351.3 4038.86 3351.31 4039.54 3351.31C4041.55 3351.46 4043.53 3351.65 4045.52 3351.9C4046.8 3352.18 4048.09 3352.47 4049.36 3352.86C4051.09 3353.47 4052.82 3354.11 4054.54 3354.84C4056.44 3355.76 4058.26 3356.77 4060.02 3357.8C4063.31 3359.9 4066.47 3362.09 4069.97 3363.89C4070.61 3364.22 4071.25 3364.51 4071.95 3364.83C4072.01 3364.83 4072.01 3364.83 4072.04 3364.88C4076.18 3366.52 4080.92 3367.42 4085.26 3366.42C4088.05 3365.8 4090.79 3364.97 4093.42 3363.78C4096.9 3362.27 4100.08 3360.38 4102.48 3357.38C4104.1 3355.41 4105.24 3353.01 4106.27 3350.65C4107.01 3348.94 4107.7 3347.22 4108.37 3345.45C4108.37 3345.4 4108.38 3345.36 4108.44 3345.3C4108.97 3343.61 4109.58 3341.88 4110.08 3340.14C4110.09 3340.05 4110.09 3339.99 4110.15 3339.9C4111.16 3336.41 4112.02 3332.84 4112.83 3329.27C4114.01 3324.27 4115.13 3319.27 4116.12 3314.2C4116.45 3312.62 4116.73 3311.04 4117.06 3309.42C4117.63 3306.2 4118.26 3302.99 4118.92 3299.75C4119.96 3294.94 4121.12 3290.14 4122.12 3285.36C4123.18 3280.16 4124.14 3274.97 4125.04 3269.74C4126.2 3263.21 4127.15 3256.61 4128.4 3250.1C4128.81 3247.95 4129.28 3245.75 4129.74 3243.6C4130.15 3241.5 4130.66 3239.35 4131.21 3237.27C4131.75 3235.62 4132.28 3234.04 4132.94 3232.51C4133.07 3232.33 4133.15 3232.11 4133.22 3231.9C4133.22 3231.85 4133.27 3231.87 4133.29 3231.81C4133.73 3232.51 4134.12 3233.21 4134.56 3233.93C4134.95 3234.68 4135.28 3235.42 4135.61 3236.15C4135.99 3236.89 4136.32 3237.64 4136.66 3238.38C4137.21 3240.03 4137.74 3241.68 4138.18 3243.38C4138.42 3244.79 4138.66 3246.21 4138.9 3247.6C4138.92 3248.1 4138.95 3248.54 4138.93 3249.04C4138.97 3249.48 4138.99 3249.97 4139.03 3250.43C4138.94 3251.11 4138.88 3251.79 4138.83 3252.47C4138.75 3252.95 4138.62 3253.49 4138.46 3253.94C4138.38 3254.42 4138.25 3254.96 4138.14 3255.43C4136.91 3260.12 4135.44 3264.79 4134.5 3269.57C4133.51 3274.64 4132.81 3279.81 4132.63 3284.99C4132.46 3289.11 4132.41 3293.17 4132.5 3297.23C4132.56 3299.26 4132.59 3301.28 4132.7 3303.26C4132.89 3308.06 4133.24 3312.79 4133.57 3317.56C4133.9 3323.02 4134.12 3328.58 4134.95 3334.02C4135.19 3335.47 4135.41 3336.94 4135.74 3338.41C4136.34 3341.3 4137.39 3343.96 4138.79 3346.54C4139.32 3347.6 4140.11 3348.56 4141.03 3349.37C4141.34 3349.66 4141.69 3349.9 4142.01 3350.16C4142.46 3350.47 4142.96 3350.74 4143.4 3351C4144.05 3351.35 4144.69 3351.59 4145.35 3351.77C4147 3352.27 4148.75 3352.42 4150.42 3352.12C4151.09 3352.03 4151.69 3351.83 4152.32 3351.61C4152.32 3351.61 4152.32 3351.61 4152.37 3351.61C4153.53 3351.13 4154.54 3350.51 4155.5 3349.75C4157.35 3348.15 4158.81 3346 4159.96 3343.76C4159.96 3343.7 4159.96 3343.7 4160.02 3343.67C4160.24 3343.12 4160.52 3342.62 4160.75 3342.05C4162.91 3337.49 4164.49 3332.69 4165.99 3327.84C4169.23 3317.14 4171.43 3306.09 4173.38 3295.1C4174.06 3291.52 4174.63 3287.86 4175.33 3284.22C4175.68 3282.11 4176.08 3280.05 4176.49 3277.93C4177.56 3272.33 4178.81 3266.81 4180.06 3261.33C4182.45 3250.71 4184.93 3240.14 4187.04 3229.42C4188.14 3223.93 4189.28 3218.43 4190.72 3213.03C4191.32 3210.6 4192 3208.25 4192.7 3205.89C4193.35 3203.52 4194.08 3201.17 4194.76 3198.85C4194.95 3198.28 4195.13 3197.71 4195.29 3197.22C4195.42 3196.65 4195.61 3196.08 4195.79 3195.53C4196.54 3193.03 4197.35 3190.58 4198.2 3188.1C4198.99 3185.66 4199.8 3183.21 4200.66 3180.73C4200.94 3179.79 4201.29 3178.85 4201.56 3177.86C4202 3176.5 4202.46 3175.09 4202.9 3173.73C4203.16 3172.97 4203.42 3172.27 4203.62 3171.52C4203.79 3171.1 4203.93 3170.67 4204.06 3170.2C4204.69 3168.23 4205.33 3166.21 4205.92 3164.22C4206.76 3161.48 4207.59 3158.82 4208.38 3156.08C4209.17 3153.34 4209.93 3150.55 4210.48 3147.77C4211.75 3141.8 4212.94 3135.67 4212.7 3129.54C4212.68 3129.04 4212.65 3128.54 4212.68 3128.05C4212.65 3127.99 4212.65 3127.94 4212.67 3127.9C4212.57 3126.8 4212.5 3125.71 4212.41 3124.61C4212.26 3123.6 4212.1 3122.64 4211.95 3121.63C4211.91 3121.52 4211.88 3121.47 4211.89 3121.37C4211.76 3120.86 4211.65 3120.31 4211.53 3119.79C4211.23 3118.73 4210.9 3117.68 4210.51 3116.63C4210.31 3116.06 4210.05 3115.47 4209.78 3114.9C4209.37 3114 4208.8 3113.14 4208.18 3112.35C4207.85 3111.91 4207.52 3111.52 4207.17 3111.17C4205.97 3109.9 4204.6 3108.87 4203.07 3108.21C4202.7 3108.01 4202.33 3107.86 4201.95 3107.75C4201.86 3107.73 4201.71 3107.66 4201.62 3107.66C4201.29 3107.57 4200.96 3107.48 4200.63 3107.42C4200.33 3107.38 4200.06 3107.29 4199.82 3107.26C4199.1 3107.15 4198.36 3107.09 4197.68 3107.09C4197.1 3107.11 4196.45 3107.11 4195.85 3107.16C4194.6 3107.33 4193.33 3107.59 4192.11 3108.05C4192.06 3108.05 4192.06 3108.05 4192.06 3108.05C4191.27 3108.41 4190.48 3108.8 4189.72 3109.22C4188.44 3110.01 4187.22 3110.88 4185.99 3111.83V3111.89C4185.7 3112.15 4185.37 3112.44 4185.09 3112.7C4184.47 3113.25 4183.9 3113.8 4183.33 3114.35C4182.92 3114.74 4182.52 3115.18 4182.11 3115.6C4180.9 3116.89 4179.65 3118.25 4178.44 3119.55C4175.22 3123.01 4172 3126.48 4168.92 3130.12C4168.2 3130.95 4167.54 3131.83 4166.86 3132.68C4166.2 3133.51 4165.57 3134.41 4164.96 3135.25C4164.34 3136.15 4163.71 3137.04 4163.14 3137.94C4163.07 3138.03 4163.02 3138.12 4162.96 3138.21C4162.45 3139.02 4161.93 3139.88 4161.45 3140.75C4160.98 3141.61 4160.52 3142.44 4160.09 3143.3C4159.67 3144.19 4159.25 3145.01 4158.88 3145.93C4158.44 3146.94 4158.05 3147.94 4157.65 3148.95C4157.39 3149.74 4157.13 3150.49 4156.86 3151.3C4156.43 3152.42 4156.09 3153.51 4155.68 3154.63C4155.59 3154.9 4155.46 3155.2 4155.37 3155.47C4155.18 3155.01 4155.06 3154.59 4154.93 3154.13C4154.36 3152.62 4153.84 3151.17 4153.42 3149.63C4153.24 3149.2 4153.09 3148.8 4152.96 3148.34C4152.91 3148.03 4152.85 3147.73 4152.79 3147.44C4152.79 3147.15 4152.74 3146.8 4152.74 3146.5L4152.83 3145.82C4152.94 3145.34 4153.02 3144.92 4153.18 3144.44C4153.37 3143.49 4153.6 3142.53 4153.9 3141.59L4153.92 3141.41C4153.92 3141.35 4153.92 3141.36 4153.93 3141.32C4153.93 3141.32 4153.93 3141.26 4153.99 3141.28L4154.01 3141.1C4154.01 3141.04 4154.03 3140.95 4154.08 3140.91V3140.86C4154.08 3140.86 4154.08 3140.86 4154.08 3140.8V3140.75C4154.16 3140.56 4154.17 3140.38 4154.27 3140.18C4155.22 3137.37 4156.16 3134.55 4157.12 3131.74C4157.57 3130.33 4158.02 3128.93 4158.53 3127.46C4158.99 3126.04 4159.43 3124.65 4159.84 3123.23C4160 3122.77 4160.13 3122.24 4160.3 3121.78C4160.33 3121.59 4160.39 3121.45 4160.42 3121.25C4160.52 3120.97 4160.57 3120.62 4160.66 3120.34C4160.99 3119.17 4161.31 3117.94 4161.58 3116.74L4161.62 3116.5C4161.91 3115.16 4162.21 3113.84 4162.41 3112.48C4162.79 3110.47 4163.03 3108.49 4163.24 3106.45C4163.33 3105.82 4163.42 3105.23 4163.46 3104.61C4163.68 3102.09 4163.86 3099.55 4163.97 3097.05C4163.95 3096.91 4163.97 3096.76 4163.99 3096.67C4164.08 3093.98 4164.17 3091.34 4164.27 3088.69C4164.49 3082.81 4164.56 3076.96 4164.43 3071.1C4164.43 3070.42 4164.43 3069.72 4164.39 3069.02C4164.36 3068.32 4164.36 3067.64 4164.3 3066.89C4164.3 3066.89 4164.3 3066.89 4164.3 3066.83C4164.17 3064.06 4163.93 3061.32 4163.7 3058.53C4163.7 3058.49 4163.66 3058.47 4163.71 3058.43C4163.57 3057.09 4163.42 3055.69 4163.27 3054.33C4162.72 3048.69 4162.11 3043.05 4161.71 3037.42C4161.64 3036.19 4161.53 3034.94 4161.51 3033.71C4161.44 3033.51 4161.43 3033.25 4161.45 3033.07C4161.23 3030.18 4161.07 3027.26 4160.81 3024.37C4160.68 3022.92 4160.5 3021.5 4160.3 3020.05C4160.3 3019.76 4160.24 3019.45 4160.18 3019.15C4160.13 3018.86 4160.07 3018.55 4160.07 3018.25C4159.98 3017.61 4159.87 3016.95 4159.78 3016.28C4159.74 3016.14 4159.72 3015.97 4159.69 3015.82C4159.45 3014.46 4159.16 3013.03 4158.88 3011.67C4158.62 3010.4 4158.27 3009.11 4157.96 3007.85C4157.92 3007.74 4157.89 3007.64 4157.87 3007.53C4157.46 3006.19 4157.02 3004.85 4156.53 3003.51C4156.07 3002.26 4155.57 3000.95 4155.02 2999.68C4154.56 2998.53 4154.03 2997.37 4153.57 2996.23C4153.38 2995.81 4153.2 2995.38 4153.02 2994.92C4152.1 2992.83 4151.18 2990.68 4150.31 2988.53V2988.47C4149.69 2986.71 4149.12 2984.91 4148.62 2983.16C4148.35 2982.33 4148.13 2981.51 4147.94 2980.7C4147.83 2980.44 4147.74 2980.13 4147.69 2979.83C4147.43 2978.95 4147.21 2978.09 4146.99 2977.22C4146.84 2976.51 4146.69 2975.84 4146.55 2975.15C4146.34 2974.48 4146.25 2973.77 4146.12 2973.07C4146.03 2972.61 4145.9 2972.15 4145.83 2971.65C4145.68 2970.95 4145.59 2970.24 4145.5 2969.54C4145.46 2969.48 4145.46 2969.43 4145.42 2969.39C4145.44 2969.3 4145.41 2969.19 4145.37 2969.08C4145.39 2968.99 4145.39 2968.93 4145.35 2968.84C4145.28 2968.64 4145.28 2968.38 4145.31 2968.14C4145.24 2967.94 4145.28 2967.7 4145.26 2967.44C4145.24 2967.19 4145.24 2966.95 4145.22 2966.69C4145.24 2966.19 4145.26 2965.75 4145.33 2965.27C4145.41 2964.74 4145.55 2964.17 4145.72 2963.66C4145.72 2963.66 4145.72 2963.66 4145.72 2963.6C4145.72 2963.55 4145.72 2963.55 4145.77 2963.51C4145.81 2963.33 4145.88 2963.09 4146.01 2962.9C4146.1 2962.66 4146.18 2962.39 4146.27 2962.15C4147.34 2959.91 4148.55 2957.66 4149.8 2955.48C4152.23 2951.06 4154.93 2946.73 4157.39 2942.31C4158.25 2941.74 4159.05 2941.14 4159.82 2940.55C4160.66 2939.83 4161.45 2939.17 4162.24 2938.44C4162.76 2937.92 4163.33 2937.37 4163.84 2936.86C4164.49 2936.16 4165.13 2935.48 4165.77 2934.78C4166.78 2933.64 4167.79 2932.43 4168.75 2931.23C4169.67 2929.98 4170.55 2928.69 4171.38 2927.39C4172.63 2925.26 4173.62 2922.79 4174.41 2920.46C4175.72 2916.56 4176.51 2912.59 4176.27 2908.47C4176.27 2908.18 4176.25 2907.92 4176.23 2907.68C4176.21 2907.43 4176.16 2907.19 4176.16 2906.87C4176.03 2905.39 4175.85 2903.93 4175.59 2902.41C4175.44 2901.75 4175.29 2901.08 4175.15 2900.42C4175 2899.76 4174.85 2899.1 4174.65 2898.44C4174.52 2897.92 4174.41 2897.41 4174.23 2896.95C4173.92 2895.77 4173.53 2894.63 4173.11 2893.49C4172.89 2892.92 4172.68 2892.39 4172.52 2891.84C4171.89 2890.31 4171.34 2888.77 4170.94 2887.19C4170.83 2886.64 4170.7 2886.12 4170.59 2885.55C4170.48 2885 4170.37 2884.43 4170.3 2883.88C4170.3 2883.24 4170.22 2882.63 4170.28 2882C4170.37 2878.97 4170.72 2876.01 4170.96 2873C4171.01 2871.93 4171.12 2870.81 4171.2 2869.72C4171.23 2868.4 4171.29 2867.02 4171.31 2865.66C4171.29 2864.49 4171.2 2863.33 4171.07 2862.22C4171.07 2862.17 4171.09 2862.13 4171.09 2862.13C4170.83 2860.48 4170.42 2858.9 4169.91 2857.33C4169.36 2855.72 4168.66 2854.15 4167.74 2852.65C4167.34 2851.99 4166.93 2851.45 4166.47 2850.85C4166.14 2850.46 4165.81 2850.06 4165.42 2849.65C4165 2849.19 4164.58 2848.73 4164.1 2848.27C4163.88 2848.05 4163.62 2847.81 4163.36 2847.52C4163.14 2847.34 4162.98 2847.17 4162.76 2846.95C4162.76 2846.95 4162.72 2846.89 4162.72 2846.84C4162.61 2846.56 4162.5 2846.27 4162.45 2846.01C4162.15 2844.69 4161.95 2843.29 4161.75 2841.99C4161.6 2840.97 4161.4 2840.02 4161.2 2839.04C4161.2 2838.99 4161.18 2838.9 4161.18 2838.84C4161.07 2838.53 4161.03 2838.18 4160.92 2837.87C4160.52 2836.23 4159.87 2834.67 4159.08 2833.22C4158.77 2832.68 4158.49 2832.21 4158.18 2831.71C4157.85 2831.27 4157.52 2830.77 4157.21 2830.33C4156.18 2829.01 4155.04 2827.7 4153.77 2826.58C4151.56 2824.54 4149.21 2822.67 4146.89 2820.81C4144.5 2818.97 4142.12 2817.15 4139.78 2815.24C4139.78 2815.24 4139.73 2815.24 4139.74 2815.18L4141.47 2814.41C4142.87 2813.93 4144.36 2813.51 4145.85 2813.13C4146.25 2813.03 4146.66 2812.94 4147.06 2812.91C4147.41 2812.81 4147.83 2812.72 4148.22 2812.68C4148.33 2812.65 4148.48 2812.67 4148.62 2812.65C4150.17 2813.86 4151.66 2815.15 4153.48 2816.07C4155.81 2817.24 4158.4 2818.02 4161.09 2817.92C4163.02 2817.81 4164.85 2817.45 4166.62 2816.77C4168.86 2815.92 4171.05 2814.8 4173 2813.51C4173.7 2813.13 4174.36 2812.63 4174.96 2812.17C4175.85 2811.51 4176.69 2810.85 4177.52 2810.13C4177.57 2810.04 4177.68 2809.96 4177.79 2809.93C4179.61 2808.33 4181.4 2806.56 4183.07 2804.8C4184.12 2803.68 4185.22 2802.56 4186.32 2801.44C4186.51 2801.21 4186.73 2801.01 4186.97 2800.79C4189.95 2797.63 4192.92 2794.43 4195.68 2791.09C4197.72 2788.53 4199.78 2785.98 4201.51 2783.22C4201.88 2782.63 4202.28 2782.01 4202.7 2781.42C4203.18 2780.55 4203.75 2779.69 4204.3 2778.84C4204.82 2777.98 4205.44 2777.13 4206.05 2776.34V2776.29C4207.72 2774.32 4209.61 2772.48 4211.49 2770.7C4218.14 2764.54 4224.67 2758.31 4231.95 2752.96C4237.44 2749.1 4243.16 2745.59 4249.1 2742.37C4250.84 2741.45 4252.61 2740.57 4254.41 2739.75C4255.05 2739.45 4255.68 2739.14 4256.3 2738.88C4257 2738.5 4257.68 2738.2 4258.42 2737.91C4259.25 2737.63 4260.13 2737.37 4260.99 2737.15C4261.41 2737.02 4261.82 2736.93 4262.26 2736.9C4262.68 2736.77 4263.12 2736.68 4263.53 2736.64C4266.21 2736.44 4268.82 2736.47 4271.47 2736.12C4274.39 2735.72 4277.28 2735.09 4280.11 2734.23C4283.03 2733.38 4285.95 2732.23 4288.77 2730.87C4291.47 2729.54 4294.23 2728.16 4296.74 2726.47C4297.13 2726.18 4297.57 2725.9 4297.99 2725.63C4297.99 2725.63 4297.99 2725.63 4298.05 2725.63C4300.92 2723.55 4303.71 2721.2 4305.62 2718.22C4306.21 2717.28 4306.73 2716.36 4307.28 2715.41C4307.76 2714.49 4308.2 2713.51 4308.58 2712.54C4308.82 2711.9 4309.08 2711.18 4309.26 2710.52C4309.65 2709.19 4310 2707.87 4310.18 2706.57C4310.51 2704.25 4310.51 2701.93 4310.16 2699.62C4310.03 2698.86 4309.89 2698.11 4309.67 2697.32C4309.5 2696.75 4309.35 2696.14 4309.19 2695.57C4308.97 2695 4308.77 2694.47 4308.49 2693.9C4308.23 2693.33 4307.92 2692.74 4307.66 2692.21C4307.33 2691.71 4307.02 2691.24 4306.69 2690.74C4305.88 2689.58 4305 2688.48 4304.19 2687.37C4304.02 2687.15 4303.95 2687.04 4303.82 2686.82L4303.79 2686.77C4304.02 2686.42 4304.28 2686.11 4304.58 2685.79C4304.78 2685.43 4305.02 2685.13 4305.31 2684.82C4305.81 2684.19 4306.32 2683.64 4306.89 2683.09C4308.33 2681.38 4309.89 2679.75 4311.56 2678.17C4311.62 2678.07 4311.74 2677.94 4311.85 2677.87C4311.96 2677.78 4312.04 2677.71 4312.15 2677.61C4312.94 2676.9 4313.73 2676.22 4314.58 2675.56V2675.5C4315.37 2674.82 4316.19 2674.16 4317.02 2673.5C4318.12 2672.76 4319.15 2672.08 4320.27 2671.4C4320.59 2671.25 4320.92 2671.05 4321.27 2670.96C4321.43 2670.83 4321.6 2670.76 4321.8 2670.74C4322.13 2670.54 4322.44 2670.39 4322.75 2670.3C4323.12 2670.15 4323.47 2670.06 4323.84 2669.91C4325.05 2669.65 4326.32 2669.43 4327.53 2669.23C4327.7 2669.16 4327.88 2669.14 4328.05 2669.1C4329.46 2668.83 4330.9 2668.53 4332.26 2668.18C4335.62 2667.45 4338.88 2666.4 4342.09 2665.19C4345.79 2663.81 4349.3 2662.06 4352.48 2659.77C4353.14 2659.27 4353.75 2658.77 4354.43 2658.28C4355.42 2657.49 4356.34 2656.64 4357.26 2655.74C4358.01 2654.91 4358.8 2653.99 4359.52 2653.07C4360 2652.45 4360.44 2651.79 4360.84 2651.05C4361.17 2650.52 4361.49 2649.97 4361.78 2649.42C4362.15 2648.64 4362.46 2647.84 4362.72 2647.04C4363.01 2646.05 4363.25 2645.06 4363.36 2644.03L4363.47 2643.26C4363.45 2643.02 4363.49 2642.72 4363.53 2642.49C4363.51 2641.93 4363.54 2641.4 4363.53 2640.87C4363.53 2640.87 4363.49 2640.81 4363.55 2640.78C4363.45 2639.73 4363.36 2638.74 4363.16 2637.67C4362.79 2636.09 4362.28 2634.58 4361.56 2633.15C4361.34 2632.67 4361.06 2632.19 4360.79 2631.75C4359.98 2630.5 4359.06 2629.47 4358.01 2628.53C4357.48 2628.07 4356.96 2627.6 4356.39 2627.17C4356.34 2627.17 4356.3 2627.12 4356.27 2627.06L4354.67 2625.94C4353.64 2625.21 4352.57 2624.51 4351.54 2623.77C4349.96 2622.74 4348.4 2621.68 4346.89 2620.57C4345.05 2619.32 4343.27 2618.02 4341.56 2616.64H4341.5C4340.62 2615.92 4339.85 2615.17 4339.08 2614.32H4339.02C4337.2 2612.34 4335.57 2610.32 4333.71 2608.28H4333.66C4332.94 2607.52 4332.2 2606.79 4331.38 2606.07C4331.28 2606 4331.21 2605.89 4331.12 2605.83C4331.12 2605.78 4331.08 2605.78 4331.08 2605.78C4332.64 2603.85 4333.89 2601.71 4335.05 2599.51C4337.04 2595.67 4337.55 2591.55 4336.82 2587.45C4336.67 2586.75 4336.52 2586.03 4336.34 2585.37C4335.94 2584.09 4335.55 2582.74 4335.2 2581.42C4335.13 2581.22 4335.13 2580.96 4335.11 2580.72C4335.13 2580.63 4335.13 2580.58 4335.18 2580.54C4335.33 2580.17 4335.53 2579.8 4335.73 2579.49C4336.06 2578.96 4336.43 2578.41 4336.85 2577.93C4337.22 2577.4 4337.61 2576.86 4337.98 2576.37C4340.64 2573.26 4343.58 2570.34 4346.25 2567.25C4347.26 2566.07 4348.25 2564.93 4349.32 2563.81C4350.33 2562.63 4351.38 2561.51 4352.48 2560.39C4352.48 2560.36 4352.48 2560.36 4352.48 2560.36C4353.18 2559.56 4353.93 2558.85 4354.68 2558.11C4355.99 2556.88 4357.31 2555.65 4358.62 2554.4C4359.94 2553.11 4361.21 2551.88 4362.48 2550.54C4363.29 2549.68 4364.11 2548.76 4364.94 2547.86V2547.8C4365.42 2547.23 4365.88 2546.72 4366.36 2546.15C4367.63 2544.51 4368.86 2542.82 4369.92 2540.96C4370.25 2540.43 4370.51 2539.91 4370.81 2539.36C4371.03 2538.81 4371.27 2538.26 4371.49 2537.75C4371.89 2536.62 4372.26 2535.5 4372.63 2534.31C4374.02 2529.49 4375.33 2524.62 4374.33 2519.6C4374.17 2518.74 4373.95 2517.91 4373.73 2517.05C4373.45 2516.22 4373.18 2515.39 4372.86 2514.6C4372.55 2513.76 4372.17 2512.97 4371.74 2512.21C4371.32 2511.4 4370.82 2510.71 4370.29 2509.97C4370 2509.58 4369.67 2509.2 4369.34 2508.85C4368.91 2508.39 4368.47 2507.99 4368.05 2507.58C4366.89 2506.48 4365.64 2505.56 4364.41 2504.58C4364.17 2504.46 4364 2504.33 4363.78 2504.14C4363.56 2503.96 4363.34 2503.74 4363.18 2503.52C4363.01 2503.35 4362.79 2503.17 4362.57 2502.95H4362.52C4359.7 2499.93 4357.02 2496.83 4354.39 2493.54L4354.34 2493.52C4354.02 2489 4352.85 2484.55 4351.16 2480.3C4350.86 2479.57 4350.59 2478.83 4350.24 2478.15C4349.81 2477.31 4349.39 2476.5 4348.97 2475.71C4348.53 2474.95 4348.07 2474.2 4347.63 2473.5C4347.15 2472.75 4346.62 2472.03 4346.12 2471.37C4345.7 2470.87 4345.27 2470.36 4344.87 2469.86C4344.02 2468.9 4343.12 2468.02 4342.17 2467.2C4341.63 2466.77 4341.1 2466.4 4340.57 2466.02C4339.85 2465.58 4339.12 2465.12 4338.34 2464.77C4337.42 2464.35 4336.54 2463.92 4335.6 2463.57C4334.72 2463.24 4333.77 2463 4332.81 2462.77C4330.86 2462.34 4328.82 2462.09 4326.76 2462.12C4324.24 2462.2 4321.73 2462.51 4319.24 2462.69C4319.19 2462.73 4319.15 2462.73 4319.1 2462.71C4318.2 2462.78 4317.35 2462.86 4316.51 2462.88C4316.01 2462.86 4315.53 2462.84 4315.03 2462.77C4315 2462.77 4315 2462.77 4314.94 2462.75C4314.45 2462.73 4313.91 2462.69 4313.44 2462.62C4312.9 2462.54 4312.39 2462.42 4311.8 2462.32C4311.38 2462.16 4310.95 2462.05 4310.59 2461.9C4310.03 2461.63 4309.48 2461.35 4308.99 2461.07C4307.9 2460.43 4306.87 2459.73 4305.84 2459.03C4304.81 2458.34 4303.79 2457.6 4302.77 2456.81H4302.72C4302.11 2456.33 4301.49 2455.84 4300.92 2455.36C4299.76 2454.46 4298.67 2453.56 4297.59 2452.56C4297.06 2452.14 4296.54 2451.66 4296.01 2451.2C4294.89 2450.04 4293.93 2448.92 4292.88 2447.66H4292.83C4290.97 2445.27 4289.21 2442.78 4287.61 2440.25C4286.95 2439.36 4286.36 2438.45 4285.79 2437.58C4284.7 2435.89 4283.67 2434.16 4282.59 2432.49C4282.39 2432.21 4282.15 2431.88 4281.98 2431.57C4281.05 2430.25 4280.11 2428.94 4279.12 2427.66H4279.06C4278.34 2426.81 4277.65 2425.93 4276.87 2425.08C4275.51 2423.59 4274.06 2422.12 4272.59 2420.71C4272.55 2420.65 4272.46 2420.6 4272.43 2420.54C4271.73 2419.9 4270.99 2419.25 4270.24 2418.65C4270.07 2418.46 4269.89 2418.35 4269.67 2418.17C4269.5 2418 4269.26 2417.86 4269.08 2417.75C4268.68 2417.45 4268.29 2417.14 4267.92 2416.85C4267.83 2416.83 4267.79 2416.77 4267.7 2416.66C4265.42 2415.05 4263.07 2413.63 4260.62 2412.18C4259.89 2411.77 4259.21 2411.37 4258.6 2410.89C4258.51 2410.87 4258.42 2410.82 4258.33 2410.76C4258.23 2410.69 4258.16 2410.6 4258.07 2410.52C4257.5 2409.02 4257.09 2407.47 4256.47 2405.96C4256.05 2404.86 4255.57 2403.76 4255.13 2402.71C4255.04 2402.66 4255.04 2402.66 4255.05 2402.6C4254.52 2401.5 4253.95 2400.38 4253.31 2399.35C4252.83 2398.59 4252.3 2397.88 4251.71 2397.2C4251.16 2396.52 4250.57 2395.89 4249.93 2395.27C4249.21 2394.48 4248.42 2393.76 4247.59 2393.01C4247.06 2392.58 4246.58 2392.12 4246.07 2391.65C4244.39 2390.03 4242.57 2388.58 4240.7 2387.27H4240.64C4239.83 2386.72 4239.08 2386.26 4238.25 2385.74C4235.75 2384.35 4233.12 2383.12 4230.31 2382.12C4227.92 2381.33 4225.46 2380.58 4223.07 2379.88C4222.92 2379.86 4222.83 2379.84 4222.68 2379.77C4220.37 2379.18 4218.03 2378.59 4215.7 2378.06C4214.26 2377.75 4212.83 2377.44 4211.4 2377.14C4207.9 2376.48 4204.36 2375.85 4200.79 2375.3C4195.59 2374.49 4190.5 2373.26 4185.37 2372.01C4182.67 2371.33 4179.98 2370.78 4177.24 2370.34H4177.19C4177.57 2367 4177.65 2363.47 4177 2360.23C4176.8 2359.22 4176.56 2358.25 4176.31 2357.27C4175.99 2356.33 4175.7 2355.36 4175.3 2354.42C4174.95 2353.48 4174.52 2352.58 4174.12 2351.65C4174.08 2351.59 4174.03 2351.54 4174.04 2351.44C4173.62 2350.6 4173.2 2349.79 4172.78 2348.94C4172.48 2348.32 4172.11 2347.71 4171.77 2347.07C4171.42 2346.43 4171.01 2345.78 4170.66 2345.19C4170.57 2345.14 4170.59 2345.08 4170.53 2345.03C4169.73 2343.78 4168.82 2342.53 4167.92 2341.3C4166.1 2338.91 4164.08 2336.65 4161.88 2334.51C4159.85 2332.55 4157.78 2330.62 4155.7 2328.69C4153.62 2326.81 4151.49 2324.86 4149.47 2322.9C4147.48 2320.93 4145.72 2319 4143.97 2316.78H4143.92C4143.22 2315.84 4142.58 2314.86 4141.93 2313.87C4141.62 2313.28 4141.32 2312.66 4141.07 2312.07C4140.37 2310.73 4139.73 2309.4 4139.19 2308.1C4138.81 2307.35 4138.48 2306.61 4138.14 2305.82C4137.45 2304.15 4136.8 2302.53 4136.27 2300.82C4135.83 2299.18 4135.42 2297.55 4135.17 2295.87C4134.98 2294.48 4134.89 2293.08 4134.8 2291.68C4134.87 2290.56 4134.91 2289.53 4135.02 2288.41C4135.19 2287.25 4135.41 2286.11 4135.72 2284.97C4136.07 2282.92 4136.56 2280.88 4137.01 2278.82L4137.02 2278.67C4137.32 2277.38 4137.59 2276.1 4137.83 2274.79C4137.91 2274.7 4137.91 2274.61 4137.87 2274.52C4138.02 2273.84 4138.16 2273.17 4138.26 2272.51C4138.35 2271.83 4138.46 2271.15 4138.46 2270.47C4138.53 2270.38 4138.53 2270.29 4138.49 2270.18C4138.62 2269.26 4138.71 2268.39 4138.73 2267.51C4138.84 2266.1 4138.9 2264.68 4138.95 2263.27C4138.94 2263.12 4138.94 2263.03 4138.95 2262.92C4138.99 2260.71 4139.01 2258.54 4139.03 2256.39C4139.03 2255.01 4139.03 2253.63 4139.08 2252.25C4139.05 2252.2 4139.05 2252.14 4139.06 2252.05C4139.05 2247.77 4138.95 2243.43 4138.49 2239.17C4138.33 2237.92 4138.11 2236.7 4137.85 2235.44C4137.54 2234.2 4137.17 2233.03 4136.75 2231.83C4136.49 2231.26 4136.27 2230.67 4136.01 2230.1C4135.75 2229.57 4135.48 2229.09 4135.15 2228.54C4134.84 2228.01 4134.43 2227.46 4134.06 2226.91C4133.7 2226.41 4133.31 2225.97 4132.89 2225.45H4132.83C4132.37 2224.94 4131.89 2224.42 4131.44 2223.93C4130.96 2223.47 4130.5 2222.95 4130.09 2222.4H4130.04C4129.74 2222.05 4129.5 2221.69 4129.27 2221.3C4128.88 2220.6 4128.53 2219.9 4128.24 2219.22C4127.52 2217.44 4126.84 2215.67 4126.21 2213.85C4125.5 2211.72 4124.82 2209.61 4124.19 2207.46C4123.82 2206.23 4123.42 2204.98 4123.07 2203.74C4122.28 2201.47 4121.47 2199.22 4120.61 2197C4120.13 2195.84 4119.65 2194.74 4119.19 2193.6C4119.05 2193.23 4118.92 2192.86 4118.81 2192.51C4118.66 2192.2 4118.51 2191.83 4118.42 2191.52C4118.38 2191.17 4118.27 2190.86 4118.22 2190.55C4118.18 2189.81 4118.14 2189.06 4118.11 2188.27C4118.14 2186.7 4118.27 2185.14 4118.46 2183.54C4118.53 2182.97 4118.66 2182.44 4118.81 2181.87C4118.97 2180.68 4119.27 2179.48 4119.58 2178.29C4119.67 2177.61 4119.87 2176.96 4120.02 2176.28C4120.41 2174.96 4120.79 2173.63 4121.29 2172.38C4121.49 2172.02 4121.69 2171.61 4121.89 2171.24C4121.89 2171.19 4121.89 2171.19 4121.91 2171.15C4126.07 2170.73 4130.2 2170.31 4134.3 2169.17C4134.96 2168.98 4135.68 2168.78 4136.4 2168.6C4136.45 2168.51 4136.51 2168.51 4136.56 2168.52C4138.07 2168.01 4139.62 2167.44 4141.2 2166.83C4141.99 2166.5 4142.78 2166.17 4143.51 2165.8C4144.16 2165.49 4144.74 2165.2 4145.31 2164.88C4145.9 2164.57 4146.49 2164.22 4147.08 2163.86C4147.67 2163.51 4148.22 2163.14 4148.77 2162.77C4149.32 2162.37 4149.87 2162 4150.37 2161.58C4150.99 2161.02 4151.6 2160.53 4152.23 2159.92C4153.09 2159.06 4153.86 2158.14 4154.6 2157.16C4155.28 2156.19 4155.88 2155.14 4156.4 2153.98C4156.62 2153.41 4156.86 2152.83 4157.06 2152.16C4157.24 2151.56 4157.39 2150.88 4157.48 2150.22C4157.61 2149.39 4157.68 2148.58 4157.68 2147.79C4157.7 2147.05 4157.7 2146.36 4157.61 2145.66C4157.56 2145.05 4157.45 2144.44 4157.34 2143.89C4157.23 2143.34 4157.1 2142.77 4156.93 2142.22C4156.75 2141.74 4156.62 2141.34 4156.44 2140.91C4156.25 2140.46 4156.09 2139.98 4155.85 2139.55C4155.18 2138.07 4154.34 2136.67 4153.35 2135.4C4153.02 2134.96 4152.69 2134.57 4152.3 2134.17C4151.84 2133.65 4151.36 2133.14 4150.85 2132.68C4148.81 2130.8 4146.42 2129.28 4143.97 2127.88C4143.92 2127.88 4143.88 2127.86 4143.88 2127.83C4142.06 2126.82 4140.19 2125.86 4138.4 2124.87C4137.81 2124.48 4137.23 2124.15 4136.6 2123.76C4136.38 2123.64 4136.1 2123.45 4135.83 2123.3L4135.79 2123.25C4137.12 2120.64 4138.48 2118.08 4139.41 2115.33C4141.09 2110.64 4141.69 2105.71 4141.16 2100.71C4141.07 2099.96 4140.99 2099.21 4140.85 2098.45C4140.72 2097.7 4140.57 2096.94 4140.44 2096.17C4140.26 2095.4 4140.11 2094.7 4139.93 2093.93C4138.99 2090.2 4137.87 2086.5 4136.99 2082.77C4135.3 2075.79 4133.27 2068.75 4132.21 2061.6C4132.12 2060.84 4132.04 2060.09 4131.99 2059.35C4131.8 2057.94 4131.66 2056.56 4131.56 2055.16C4131.4 2053.95 4131.32 2052.77 4131.25 2051.58C4131.21 2051.43 4131.2 2051.28 4131.21 2051.14C4131.14 2050 4131.05 2048.89 4131.07 2047.77C4130.99 2047.17 4130.99 2046.63 4130.98 2046.03C4131.01 2042.79 4131.33 2039.59 4131.71 2036.34C4131.88 2035.18 4132.1 2034.02 4132.35 2032.94C4132.45 2032.64 4132.54 2032.42 4132.61 2032.13V2032.07C4132.69 2031.95 4132.76 2031.8 4132.81 2031.65L4132.87 2031.62C4132.98 2031.49 4133.09 2031.39 4133.22 2031.27V2031.21C4134.25 2030.18 4135.3 2029.15 4136.25 2028.05C4137.24 2026.96 4138.2 2025.83 4139.06 2024.67C4139.49 2024.1 4139.93 2023.51 4140.35 2022.88C4140.98 2021.98 4141.55 2021.05 4142.13 2020.14C4142.67 2019.13 4143.16 2018.18 4143.6 2017.17C4143.9 2016.47 4144.21 2015.73 4144.5 2014.98C4144.82 2014.24 4145.07 2013.49 4145.33 2012.74C4145.59 2011.98 4145.81 2011.19 4146.01 2010.42C4146.36 2009.04 4146.56 2007.65 4146.62 2006.23C4146.73 2004.76 4146.66 2003.33 4146.42 2001.91C4146.29 2001.45 4146.21 2000.99 4146.09 2000.53C4145.83 1999.61 4145.57 1998.69 4145.26 1997.81V1997.76C4144.32 1995.05 4143.27 1992.5 4142.13 1989.87C4141.8 1989.08 4141.47 1988.29 4141.21 1987.46C4140.55 1985.9 4140 1984.28 4139.5 1982.63C4139.27 1981.91 4139.03 1981.18 4138.84 1980.46C4138.24 1978.16 4137.74 1975.83 4137.35 1973.45C4137.26 1972.76 4137.21 1972.11 4137.21 1971.47C4137.1 1970.81 4137.06 1970.16 4137.06 1969.47C4137.06 1969.47 4137.06 1969.47 4137.06 1969.41V1969.36C4137.19 1969.23 4137.35 1969.04 4137.43 1968.91C4137.59 1968.79 4137.76 1968.62 4137.92 1968.49C4138.03 1968.4 4138.14 1968.33 4138.31 1968.25C4138.53 1968.09 4138.79 1967.98 4139.06 1967.87C4139.38 1967.72 4139.74 1967.63 4140.09 1967.52C4140.35 1967.46 4140.64 1967.41 4140.9 1967.33C4141.21 1967.28 4141.55 1967.28 4141.89 1967.28C4146.99 1967.48 4152.08 1968.03 4157.04 1966.34C4160.37 1965.2 4163.07 1963.23 4165.48 1960.83C4166.25 1960 4167 1959.14 4167.72 1958.25C4169.01 1956.53 4170.17 1954.72 4171.18 1952.85C4171.8 1951.62 4172.34 1950.31 4172.87 1949.01C4173.47 1947.22 4173.99 1945.39 4174.28 1943.4C4174.34 1943.31 4174.34 1943.27 4174.36 1943.16L4174.41 1942.78C4174.41 1942.72 4174.41 1942.72 4174.43 1942.68C4174.63 1940.61 4174.74 1938.55 4174.65 1936.47C4174.6 1935.42 4174.5 1934.37 4174.41 1933.33C4174.27 1932.26 4174.12 1931.27 4173.99 1930.22C4173.79 1929.21 4173.6 1928.2 4173.35 1927.17C4172.61 1924.12 4171.62 1921.1 4170.48 1918.24C4170.44 1918.12 4170.37 1918.01 4170.33 1917.92C4170.33 1917.92 4170.33 1917.87 4170.3 1917.87C4169.78 1916.71 4169.25 1915.55 4168.73 1914.43C4168.16 1913.31 4167.59 1912.21 4167 1911.08C4167 1911.08 4166.95 1911.08 4166.97 1911.03C4165.77 1908.84 4164.54 1906.69 4163.33 1904.54C4162.7 1903.46 4162.08 1902.39 4161.49 1901.32C4160.98 1900.46 4160.48 1899.54 4160 1898.7C4159.23 1897.26 4158.46 1895.81 4157.78 1894.39C4157.56 1893.97 4157.37 1893.55 4157.17 1893.13C4157.06 1892.92 4156.93 1892.7 4156.88 1892.5C4156.8 1892.3 4156.73 1892.1 4156.62 1891.88H4156.56V1891.82C4156.53 1891.77 4156.53 1891.77 4156.49 1891.71V1891.65C4156.4 1891.54 4156.38 1891.4 4156.34 1891.29C4156.25 1891.18 4156.23 1891.03 4156.14 1890.92C4156.07 1890.72 4155.99 1890.55 4155.94 1890.35C4155.81 1890.18 4155.74 1889.98 4155.72 1889.78C4155.2 1888.57 4154.74 1887.32 4154.39 1886.09C4154.14 1885.5 4153.97 1884.95 4153.81 1884.38C4153.75 1884.08 4153.66 1883.75 4153.6 1883.4C4153.51 1883.09 4153.46 1882.74 4153.4 1882.45C4153.35 1881.84 4153.33 1881.25 4153.27 1880.66C4153.77 1881.91 4154.28 1883.13 4154.74 1884.38C4155.53 1886.31 4156.38 1888.25 4157.34 1890.17C4157.83 1891.18 4158.42 1892.19 4159.01 1893.22C4160.28 1895.31 4161.54 1897.37 4163.03 1899.32C4163.53 1899.93 4164.05 1900.55 4164.58 1901.18C4165 1901.64 4165.48 1902.15 4165.9 1902.59C4166.86 1903.47 4167.81 1904.36 4168.88 1905.15C4170.39 1906.25 4171.97 1907.28 4173.6 1908.14C4175.31 1908.99 4177.02 1909.67 4178.77 1910.24C4181.23 1910.88 4183.77 1911.32 4186.4 1911.25C4192.17 1911.21 4197.7 1909.41 4201.89 1905.29C4202.24 1905 4202.54 1904.65 4202.83 1904.36C4202.83 1904.3 4202.83 1904.3 4202.83 1904.3C4203.42 1903.64 4203.92 1902.94 4204.37 1902.21C4204.37 1902.15 4204.39 1902.11 4204.45 1902.06C4204.85 1901.29 4205.26 1900.51 4205.59 1899.67C4206.16 1898.18 4206.47 1896.6 4206.67 1894.95C4206.86 1893.29 4206.86 1891.67 4206.6 1890.06C4206.54 1889.71 4206.51 1889.36 4206.45 1889.01C4206.4 1889.01 4206.42 1888.95 4206.42 1888.9C4206.31 1888.35 4206.18 1887.78 4206.01 1887.26C4205.85 1886.69 4205.68 1886.12 4205.51 1885.61C4205.44 1885.4 4205.42 1885.2 4205.4 1885C4205.37 1884.56 4205.35 1884.1 4205.31 1883.6C4205.46 1878.22 4206.31 1872.78 4206.65 1867.35C4206.73 1865.85 4206.82 1864.28 4206.89 1862.76C4206.86 1862.67 4206.88 1862.56 4206.89 1862.46C4206.93 1860.85 4206.93 1859.17 4206.97 1857.56C4207 1854.3 4206.93 1851.05 4206.93 1847.76C4206.97 1847.12 4207 1846.55 4207.06 1845.9C4207.13 1845.72 4207.17 1845.53 4207.21 1845.28C4207.32 1844.89 4207.46 1844.49 4207.63 1844.1C4207.87 1843.49 4208.14 1842.94 4208.47 1842.41C4209.01 1841.51 4209.61 1840.66 4210.24 1839.82C4210.9 1838.97 4211.62 1838.14 4212.37 1837.37C4212.87 1836.95 4213.33 1836.47 4213.84 1836.01C4214.39 1835.64 4214.94 1835.24 4215.53 1834.87C4216.88 1834.08 4218.27 1833.35 4219.69 1832.69C4222.5 1831.62 4225.37 1830.87 4228.18 1829.8C4230.53 1828.86 4232.85 1827.87 4235.07 1826.73C4235.75 1826.38 4236.36 1826.03 4237 1825.65C4237.61 1825.24 4238.2 1824.84 4238.8 1824.38C4239.98 1823.46 4241.1 1822.5 4242.19 1821.47C4243.16 1820.59 4244.08 1819.63 4245.05 1818.64C4245.11 1818.55 4245.24 1818.42 4245.35 1818.29C4246.34 1817.21 4247.35 1816.12 4248.29 1815.08C4249.12 1814.17 4249.93 1813.26 4250.81 1812.34C4251.69 1811.34 4252.57 1810.39 4253.4 1809.38C4254.52 1808.07 4255.61 1806.75 4256.65 1805.37C4257.68 1804.05 4258.62 1802.65 4259.52 1801.22C4259.96 1800.5 4260.38 1799.71 4260.79 1798.99C4261.25 1798.16 4261.62 1797.39 4261.98 1796.56C4262.3 1795.77 4262.63 1794.93 4262.88 1794.08C4263.8 1791.45 4264.32 1788.73 4264.43 1785.88C4264.48 1784.18 4264.59 1782.47 4264.8 1780.77C4264.98 1779.47 4265.27 1778.15 4265.61 1776.86C4266.01 1775.44 4266.49 1774.14 4267.04 1772.74V1772.69C4267.41 1771.9 4267.76 1771.12 4268.22 1770.35C4268.62 1769.67 4269.06 1768.99 4269.54 1768.39C4269.74 1767.98 4270.05 1767.63 4270.31 1767.23C4270.72 1766.79 4271.08 1766.31 4271.49 1765.87C4272 1765.35 4272.52 1764.89 4273.12 1764.43V1764.38C4273.34 1764.16 4273.64 1763.92 4273.95 1763.72C4274.19 1763.46 4274.47 1763.26 4274.74 1763C4275.68 1762.3 4276.67 1761.6 4277.7 1760.96C4278.23 1760.7 4278.77 1760.39 4279.26 1760.11C4279.32 1760.11 4279.36 1760.13 4279.36 1760.13C4280.83 1760.15 4282.35 1760.13 4283.84 1760.09C4285.42 1759.98 4286.98 1759.87 4288.55 1759.6C4288.6 1759.56 4288.69 1759.56 4288.8 1759.54C4289.41 1759.43 4290.02 1759.29 4290.62 1759.18C4291.19 1759.01 4291.8 1758.86 4292.42 1758.64C4293.05 1758.44 4293.62 1758.18 4294.21 1757.93C4298.03 1756.36 4301.56 1754.41 4304.67 1751.68C4307.83 1748.99 4310.46 1745.78 4312.83 1742.39C4315.37 1738.83 4317.77 1735.19 4320.09 1731.49C4321.21 1729.64 4322.31 1727.72 4323.44 1725.83C4324.5 1723.92 4325.57 1722.01 4326.58 1720.1C4327.99 1717.49 4329.28 1714.78 4330.51 1712.1C4331.03 1710.94 4331.54 1709.84 4332.04 1708.68C4333.51 1705.32 4335 1701.88 4336.76 1698.59C4336.91 1698.31 4337.04 1698.04 4337.24 1697.78V1697.72C4340.26 1700.04 4343.88 1701.49 4347.96 1701.81C4349.17 1701.88 4350.36 1701.81 4351.54 1701.59C4352 1701.51 4352.46 1701.36 4352.92 1701.29C4353.69 1701.05 4354.41 1700.83 4355.2 1700.54C4357.35 1699.62 4359.45 1698.46 4361.38 1697.36C4364.17 1695.74 4366.93 1694.09 4369.68 1692.41C4375.09 1689.12 4380.46 1685.72 4385.75 1682.27C4386.14 1682.03 4386.47 1681.77 4386.84 1681.59C4387.17 1681.29 4387.55 1681.11 4387.88 1680.85H4387.94C4389.15 1680 4390.35 1679.14 4391.56 1678.24C4395.11 1675.56 4398.43 1672.6 4401.04 1668.99C4402.51 1666.95 4403.78 1664.73 4404.96 1662.43C4405.33 1661.64 4405.68 1660.91 4406.04 1660.13V1660.08C4407.39 1656.97 4408.54 1653.75 4409.76 1650.57C4412.2 1643.9 4414.52 1637.16 4416.14 1630.19C4417.04 1626.33 4417.77 1622.41 4418.19 1618.48C4418.45 1616.35 4418.62 1614.22 4418.69 1612.06C4418.75 1611.38 4418.75 1610.65 4418.76 1609.95C4418.86 1603.28 4417.97 1596.84 4416.96 1590.3C4416.82 1588.9 4416.69 1587.54 4416.65 1586.11C4416.71 1584.44 4416.83 1582.78 4416.98 1581.09C4417.53 1577.38 4418.36 1573.72 4419.33 1570.06C4420.8 1565.1 4422.44 1560.28 4424.37 1555.48V1555.43C4425.49 1552.78 4426.76 1550.21 4428.07 1547.69C4428.91 1546 4429.79 1544.31 4430.68 1542.6C4431.15 1541.74 4431.61 1540.93 4432.13 1540.1C4433.56 1537.65 4435.14 1535.32 4436.76 1533.04C4438.54 1530.89 4440.42 1528.81 4442.4 1526.77C4444.72 1524.46 4447.07 1522.14 4449.3 1519.75C4452.27 1516.55 4455.12 1513.22 4457.61 1509.66C4458.23 1508.72 4458.82 1507.82 4459.41 1506.86C4459.81 1506.09 4460.22 1505.32 4460.64 1504.53C4461.15 1503.43 4461.61 1502.27 4461.98 1501.13C4462.16 1500.47 4462.37 1499.86 4462.51 1499.18C4462.95 1497.18 4463.16 1495.1 4462.92 1493.04V1492.99C4462.84 1492.49 4462.77 1492.03 4462.64 1491.52C4462.42 1490.36 4462.07 1489.31 4461.58 1488.3C4461.04 1487.2 4460.42 1486.11 4459.63 1485.12C4458.76 1484 4457.83 1482.99 4456.8 1481.94H4456.74C4455.97 1481.18 4455.14 1480.43 4454.32 1479.71C4453.18 1478.72 4452.05 1477.71 4450.91 1476.75C4450.38 1476.33 4449.9 1475.91 4449.37 1475.54C4448.49 1474.82 4447.61 1474.14 4446.72 1473.43C4442.46 1469.99 4438.19 1466.48 4433.86 1463.17C4432.83 1462.44 4431.85 1461.7 4430.82 1461C4429.79 1460.3 4428.76 1459.62 4427.73 1458.98C4426.47 1458.15 4425.22 1457.38 4423.95 1456.5C4423.14 1455.98 4422.28 1455.47 4421.48 1454.92C4421.45 1454.86 4421.36 1454.79 4421.32 1454.75C4421.14 1454.62 4420.97 1454.46 4420.79 1454.33C4420.75 1454.27 4420.69 1454.22 4420.66 1454.16C4420.62 1454.11 4420.57 1454.05 4420.49 1453.94C4420.01 1452.55 4419.57 1451.2 4419.19 1449.81C4419.08 1449.59 4419 1449.35 4418.95 1449.13C4418.71 1448.45 4418.51 1447.78 4418.25 1447.1C4417.94 1446.17 4417.62 1445.28 4417.28 1444.4C4416.85 1443.3 4416.34 1442.29 4415.86 1441.3C4415.33 1440.23 4414.78 1439.26 4414.24 1438.26C4413.16 1436.28 4411.96 1434.33 4410.77 1432.38C4410.05 1431.2 4409.39 1429.97 4408.75 1428.74C4407.33 1426.28 4406.06 1423.81 4404.87 1421.28C4404.48 1420.52 4404.11 1419.73 4403.73 1418.94C4403.38 1417.97 4403.07 1417.03 4402.72 1416.04C4402.7 1415.84 4402.63 1415.69 4402.61 1415.49C4402.57 1415.43 4402.59 1415.34 4402.53 1415.29C4402.55 1415.19 4402.51 1415.08 4402.48 1414.99C4402.39 1414.59 4402.35 1414.13 4402.37 1413.69C4402.33 1413.63 4402.33 1413.58 4402.39 1413.54C4402.37 1413.39 4402.39 1413.19 4402.4 1413.04C4402.5 1412.8 4402.51 1412.62 4402.59 1412.44C4402.63 1412.23 4402.75 1412.01 4402.77 1411.77C4403.18 1411 4403.54 1410.27 4403.95 1409.5C4405.11 1407.6 4406.3 1405.8 4407.64 1404.04C4407.77 1403.8 4407.9 1403.63 4408.08 1403.41C4408.21 1403.17 4408.34 1402.95 4408.53 1402.73C4411.01 1399.64 4413.53 1396.57 4415.99 1393.43C4417.2 1391.89 4418.41 1390.29 4419.59 1388.69C4420.77 1387.09 4421.89 1385.47 4422.97 1383.82C4423.6 1382.82 4424.24 1381.83 4424.85 1380.78C4425.99 1378.74 4427.09 1376.59 4427.99 1374.4C4428.4 1373.28 4428.8 1372.16 4429.17 1371.04C4429.85 1368.72 4430.31 1366.33 4430.46 1363.94C4430.51 1362.53 4430.53 1361.04 4430.55 1359.62V1359.57C4430.51 1358.14 4430.42 1356.7 4430.29 1355.25C4429.92 1351.32 4429.48 1347.25 4428.38 1343.45C4428.08 1342.47 4427.74 1341.48 4427.33 1340.54C4426.52 1338.71 4425.49 1336.98 4424.26 1335.36C4423.64 1334.59 4422.9 1333.83 4422.18 1333.08C4421.1 1332.03 4419.98 1331.04 4418.89 1329.99C4418.4 1329.42 4417.86 1328.91 4417.37 1328.34C4416.85 1327.82 4416.34 1327.25 4415.9 1326.65C4415.6 1326.32 4415.36 1325.93 4415.12 1325.54C4414.89 1325.12 4414.66 1324.64 4414.43 1324.2C4414.43 1324.17 4414.39 1324.11 4414.39 1324.06C4414.35 1324 4414.37 1323.91 4414.37 1323.85C4414.26 1323.6 4414.24 1323.39 4414.17 1323.19C4414.19 1323.1 4414.15 1322.99 4414.17 1322.9C4414.35 1322 4414.54 1321.13 4414.74 1320.27C4415.07 1319.09 4415.44 1317.92 4415.9 1316.74C4416.01 1316.41 4416.14 1316.1 4416.34 1315.77C4416.48 1315.43 4416.69 1315.09 4416.83 1314.75C4416.96 1314.57 4417.07 1314.44 4417.2 1314.26V1314.2C4417.31 1314.07 4417.44 1313.89 4417.61 1313.78C4417.79 1313.56 4418.01 1313.39 4418.18 1313.23C4418.73 1312.86 4419.22 1312.49 4419.76 1312.18C4420.4 1311.83 4421.1 1311.45 4421.78 1311.15C4423.54 1310.18 4425.34 1309.31 4427.11 1308.34C4427.9 1307.92 4428.71 1307.44 4429.54 1306.98C4430.62 1306.34 4431.65 1305.66 4432.64 1304.92C4433.42 1304.33 4434.21 1303.72 4434.98 1303.04C4436.23 1301.91 4437.5 1300.66 4438.62 1299.35C4439.21 1298.65 4439.76 1297.95 4440.27 1297.18C4441.08 1296.02 4441.82 1294.74 4442.35 1293.39C4442.64 1292.75 4442.9 1292.05 4443.1 1291.34C4443.19 1290.95 4443.3 1290.58 4443.47 1290.21C4443.56 1289.88 4443.67 1289.52 4443.78 1289.13C4443.98 1288.41 4444.15 1287.66 4444.35 1286.91C4445.01 1284.09 4445.47 1281.26 4445.6 1278.32C4445.66 1276.23 4445.38 1274.11 4445 1272.07C4444.85 1271.35 4444.7 1270.69 4444.55 1270.03V1269.98C4448.19 1273.01 4451.48 1276.45 4455.23 1279.37C4460.58 1283.49 4466.98 1285.51 4473.76 1284.92C4478.05 1284.57 4481.94 1283.12 4485.9 1281.43C4490.21 1279.55 4494.54 1277.57 4498.62 1275.21C4499.68 1274.63 4500.67 1273.98 4501.59 1273.34C4502.53 1272.64 4503.43 1271.89 4504.24 1271.12C4505.84 1269.53 4507.31 1267.68 4508.39 1265.56C4509.94 1262.73 4511.15 1259.81 4511.96 1256.69C4512.05 1256.41 4512.14 1256.08 4512.2 1255.73C4512.42 1254.92 4512.55 1254.06 4512.68 1253.19C4512.75 1252.71 4512.83 1252.18 4512.86 1251.65C4512.92 1251.32 4512.95 1250.97 4512.92 1250.62C4513.01 1249.35 4512.99 1248.06 4512.83 1246.81C4512.75 1246.32 4512.68 1245.75 4512.57 1245.25C4512.49 1244.79 4512.4 1244.35 4512.27 1243.93C4511.94 1242.84 4511.56 1241.81 4511 1240.8C4510.16 1239.26 4509.19 1237.83 4508.1 1236.48C4507.57 1235.82 4506.96 1235.2 4506.37 1234.55C4505.77 1233.97 4505.12 1233.38 4504.41 1232.79C4502.88 1231.54 4501.23 1230.31 4499.52 1229.17C4499.24 1228.98 4498.93 1228.78 4498.67 1228.6C4497.09 1227.62 4495.45 1226.7 4493.8 1225.91C4492.51 1225.33 4491.15 1224.83 4489.83 1224.44C4489.3 1224.31 4488.8 1224.15 4488.27 1224.02C4487.7 1223.89 4487.13 1223.76 4486.56 1223.62C4486.41 1223.6 4486.28 1223.52 4486.13 1223.51C4485.38 1223.34 4484.57 1223.18 4483.74 1223.01C4481.39 1222.57 4478.95 1222.11 4476.63 1221.52C4473.93 1220.79 4471.3 1219.9 4468.75 1218.95C4467.22 1218.29 4465.75 1217.57 4464.3 1216.78C4464.02 1216.65 4463.75 1216.45 4463.52 1216.28C4462.99 1215.95 4462.5 1215.58 4462.02 1215.22V1215.18H4461.96C4461.91 1215.18 4461.91 1215.18 4461.87 1215.11C4461.65 1214.88 4461.48 1214.7 4461.26 1214.48C4461.06 1214.26 4460.9 1214.04 4460.68 1213.8C4460.57 1213.58 4460.4 1213.36 4460.29 1213.16C4460.25 1213.01 4460.18 1212.9 4460.11 1212.73C4460.05 1212.48 4459.94 1212.22 4459.87 1211.96C4459.77 1211.61 4459.74 1211.21 4459.65 1210.8C4459.63 1210.57 4459.63 1210.31 4459.61 1210.01C4459.59 1209.87 4459.55 1209.7 4459.59 1209.52C4459.59 1209.46 4459.59 1209.46 4459.61 1209.43C4459.61 1209.37 4459.61 1209.37 4459.63 1209.33C4459.59 1209.28 4459.59 1209.22 4459.61 1209.13C4459.61 1209.13 4459.57 1209.08 4459.57 1209.02C4459.57 1209.02 4459.57 1208.97 4459.59 1208.93C4459.65 1208.54 4459.7 1208.16 4459.72 1207.77C4459.79 1207.29 4459.9 1206.87 4460.01 1206.45C4460.03 1206.3 4460.05 1206.15 4460.12 1206.06C4460.12 1206.01 4460.12 1206.01 4460.14 1205.97C4460.14 1205.91 4460.14 1205.91 4460.16 1205.88C4460.22 1205.84 4460.23 1205.73 4460.23 1205.69C4460.38 1205.33 4460.55 1204.96 4460.69 1204.54C4460.9 1204.13 4461.06 1203.75 4461.3 1203.34L4461.5 1203.03C4461.67 1202.61 4461.87 1202.2 4462.13 1201.8C4462.44 1201.36 4462.79 1200.97 4463.19 1200.57C4463.45 1200.11 4463.86 1199.74 4464.26 1199.35V1199.3C4464.31 1199.26 4464.32 1199.26 4464.32 1199.2H4464.37C4464.61 1198.95 4464.88 1198.69 4465.22 1198.43C4465.29 1198.29 4465.4 1198.21 4465.51 1198.14C4465.68 1198.01 4465.8 1197.88 4465.95 1197.84C4466.17 1197.64 4466.41 1197.48 4466.61 1197.4C4466.94 1197.16 4467.22 1196.96 4467.53 1196.76C4468.49 1196.26 4469.41 1195.8 4470.4 1195.36C4471.02 1195.16 4471.65 1194.9 4472.27 1194.7C4473.29 1194.46 4474.37 1194.22 4475.38 1193.98C4476.37 1193.87 4477.37 1193.84 4478.32 1193.73C4479.2 1193.76 4480.03 1193.84 4480.86 1193.91C4482.2 1194.11 4483.54 1194.41 4484.87 1194.74C4486.37 1195.2 4487.83 1195.71 4489.31 1196.28C4490.75 1196.94 4492.16 1197.68 4493.58 1198.47C4496.15 1200.03 4498.74 1201.48 4501.34 1202.9C4503.98 1204.28 4506.7 1205.57 4509.5 1206.61C4515.99 1209.04 4522.49 1209.94 4529.41 1209.13C4531.12 1208.93 4532.77 1208.69 4534.44 1208.34C4537.75 1207.59 4541.06 1206.5 4544.13 1205.03C4544.24 1204.94 4544.35 1204.9 4544.44 1204.89C4545.88 1204.15 4547.24 1203.32 4548.54 1202.44C4551.61 1200.29 4554.07 1197.29 4555.88 1194.02C4556.68 1192.61 4557.44 1191.15 4558.17 1189.74C4558.87 1188.62 4559.57 1187.53 4560.38 1186.47C4561.39 1185.23 4562.4 1184.06 4563.52 1182.88V1182.84C4563.69 1182.66 4563.93 1182.46 4564.15 1182.29C4564.74 1181.65 4565.45 1181.06 4566.13 1180.47C4566.41 1180.27 4566.74 1180.07 4567.07 1179.83C4567.49 1179.59 4567.92 1179.41 4568.34 1179.22C4568.45 1179.19 4568.5 1179.15 4568.6 1179.11C4568.71 1179.04 4568.82 1179 4568.96 1178.93L4568.91 1179.02C4568.91 1178.97 4568.96 1178.98 4569 1178.98L4569.06 1178.95C4569.35 1178.95 4569.57 1178.82 4569.83 1178.73C4571.56 1178.29 4573.23 1177.94 4574.96 1177.61C4576.5 1177.44 4578.01 1177.28 4579.59 1177.2C4580.67 1177.22 4581.79 1177.28 4582.92 1177.39C4583.43 1177.51 4583.96 1177.59 4584.44 1177.72C4584.9 1177.88 4585.34 1177.99 4585.8 1178.16C4586.39 1178.43 4587 1178.73 4587.53 1179.1C4587.53 1179.1 4587.58 1179.1 4587.62 1179.15C4587.68 1179.11 4587.71 1179.17 4587.71 1179.22C4587.97 1179.46 4588.25 1179.65 4588.56 1179.89C4589.51 1180.77 4590.47 1181.63 4591.41 1182.57C4592.11 1183.18 4592.77 1183.75 4593.41 1184.39C4593.8 1184.74 4594.24 1185.11 4594.68 1185.51C4595.29 1186.04 4595.95 1186.58 4596.61 1187.13C4597.24 1187.61 4597.95 1188.12 4598.61 1188.56C4599.57 1189.13 4600.45 1189.76 4601.41 1190.29C4602.36 1190.82 4603.36 1191.36 4604.33 1191.85C4606.32 1192.79 4608.36 1193.67 4610.47 1194.32C4611.08 1194.5 4611.74 1194.7 4612.36 1194.85C4611.52 1191.71 4610.53 1188.41 4609.59 1185.07ZM3547.46 2930.86C3547.42 2930.75 3547.38 2930.66 3547.35 2930.55C3548.76 2930.37 3550.1 2930.16 3551.52 2930.04C3550.16 2930.22 3548.8 2930.46 3547.46 2930.86Z"
        fill="#2D4159"/>
</svg>