<svg
    width="7773"
    height="7615"
    viewBox="0 0 7773 7615"
    fill="none"
    xmlns="http://www.w3.org/2000/svg">
    <path id="SI"
        d="M4041.66 5623.99C4041.18 5623.86 4040.7 5623.72 4040.24 5623.57C4036.71 5622.14 4033.35 5620.44 4029.89 5618.92C4026.09 5617.21 4022.21 5615.68 4018.33 5614.19C4018.72 5614.34 4019.1 5614.51 4019.49 5614.65C4015.66 5613.17 4011.86 5611.66 4008.09 5610.02C4005.35 5608.84 4002.6 5607.72 3999.91 5606.4C3996.75 5604.84 3993.72 5603 3990.48 5601.62C3989.87 5601.36 3989.23 5601.11 3988.61 5600.89C3989.73 5599.03 3990.63 5597.06 3991.44 5595.08C3993.28 5590.54 3994.36 5585.39 3993.42 5580.5C3992.49 5575.56 3990.13 5571.31 3987.1 5567.36C3984.45 5563.92 3981.6 5560.65 3978.86 5557.28C3975.67 5553.35 3972.67 5549.29 3969.6 5545.28C3966.29 5540.96 3962.98 5536.62 3960.11 5531.99C3959.54 5531.02 3958.99 5530.04 3958.52 5529.01C3958.31 5528.46 3958.09 5527.91 3957.93 5527.34C3957.78 5526.77 3957.65 5526.18 3957.56 5525.59C3957.5 5525.1 3957.47 5524.6 3957.45 5524.12C3957.47 5523.24 3957.5 5522.38 3957.58 5521.51C3957.83 5519.56 3958.24 5517.65 3958.72 5515.74C3958.75 5515.63 3958.77 5515.54 3958.77 5515.45C3958.79 5515.41 3958.81 5515.37 3958.81 5515.34C3958.81 5515.32 3958.81 5515.32 3958.81 5515.32C3960.02 5510.87 3961.68 5506.55 3962.52 5501.99C3963.48 5496.83 3962.91 5491.51 3960.02 5486.99C3956.86 5482.05 3950.98 5479.77 3945.74 5477.8C3941.97 5476.4 3938.18 5475.1 3934.43 5473.55C3932.12 5472.52 3929.78 5471.46 3927.52 5470.26C3928.07 5469.79 3928.63 5469.36 3929.2 5468.9C3929.23 5468.87 3929.25 5468.85 3929.31 5468.83C3929.42 5468.77 3929.53 5468.68 3929.62 5468.61C3931.59 5467.19 3933.55 5465.78 3935.48 5464.29C3937.49 5462.73 3939.38 5461.05 3941.24 5459.29C3947.3 5453.43 3952.43 5446.64 3957.32 5439.77C3959.47 5436.73 3961.81 5433.63 3963.46 5430.26C3973.99 5430.61 3984.53 5431.16 3995.02 5431.96C4003.26 5432.58 4011.46 5433.48 4019.64 5434.47C4027.1 5435.39 4034.56 5436.13 4042.08 5436.72C4049.1 5437.29 4056.14 5437.87 4063.18 5438.39C4068.37 5438.77 4073.53 5439.2 4078.71 5439C4078.62 5439 4078.51 5439.01 4078.42 5439.01C4078.66 5439.01 4078.86 5439 4079.08 5438.98C4079.17 5438.98 4079.27 5438.98 4079.36 5438.96C4079.47 5438.96 4079.6 5438.96 4079.71 5438.94C4079.6 5438.94 4079.49 5438.94 4079.36 5438.96C4079.34 5438.96 4079.3 5438.96 4079.28 5438.96C4081.64 5438.83 4083.99 5438.57 4086.27 5437.95C4089.52 5437.07 4092.63 5435.67 4095.52 5433.94C4101.27 5430.5 4106.6 5426.33 4111.51 5421.75C4115.76 5417.76 4119.8 5413.43 4122.89 5408.46C4124.19 5406.39 4125.37 5404.24 4126.4 5401.99C4127.15 5400.34 4127.89 5398.67 4128.73 5397.07C4129.25 5396.22 4129.78 5395.39 4130.35 5394.58C4130.98 5393.79 4131.6 5393.02 4132.28 5392.29C4132.98 5391.61 4133.73 5390.93 4134.5 5390.28C4135.55 5389.51 4136.64 5388.78 4137.72 5388.08C4138.66 5387.58 4139.58 5387.12 4140.53 5386.68C4141.42 5386.35 4142.3 5386.04 4143.22 5385.76C4143.92 5385.61 4144.63 5385.47 4145.31 5385.36C4146.21 5385.28 4147.08 5385.25 4147.96 5385.25C4149.83 5385.34 4151.71 5385.5 4153.6 5385.74C4157.02 5386.31 4160.39 5387.12 4163.73 5388.02C4164.23 5388.15 4164.74 5388.32 4165.24 5388.43C4173.38 5390.69 4181.6 5392.43 4190 5393.33C4194.67 5393.83 4199.36 5394 4204.04 5393.83C4208.12 5393.68 4212.24 5393.28 4216.18 5392.19C4222.39 5390.49 4228.34 5387.23 4233.01 5382.73C4236.51 5379.4 4239.56 5375.63 4242.96 5372.2C4243.88 5371.31 4244.83 5370.47 4245.84 5369.7C4246.21 5369.44 4246.6 5369.22 4246.97 5368.96C4247.13 5368.89 4247.31 5368.79 4247.48 5368.72C4247.63 5368.68 4247.74 5368.65 4247.88 5368.59C4248.14 5368.56 4248.4 5368.52 4248.67 5368.48C4249.06 5368.46 4249.45 5368.46 4249.83 5368.46C4253.11 5368.65 4256.34 5369.11 4259.59 5369.33C4265.55 5369.73 4271.54 5369.93 4277.5 5369.9C4280.42 5369.86 4283.38 5369.81 4286.28 5369.44C4289.02 5369.09 4292 5368.45 4294.39 5366.97C4297.17 5365.23 4299.45 5363.06 4301.16 5360.25C4302.55 5357.95 4303.62 5355.56 4304.56 5353.04C4305.99 5349.25 4306.84 5345.3 4307.77 5341.33C4307.9 5340.89 4308.01 5340.45 4308.16 5340.03C4308.16 5339.99 4308.18 5339.97 4308.2 5339.95C4308.21 5339.92 4308.21 5339.9 4308.25 5339.86C4308.34 5339.73 4308.44 5339.62 4308.55 5339.51C4308.67 5339.38 4308.82 5339.25 4308.97 5339.13C4309.3 5338.87 4309.63 5338.63 4310 5338.39C4310.92 5337.86 4311.87 5337.34 4312.83 5336.88C4314.46 5336.17 4316.16 5335.52 4317.88 5334.93C4319.24 5334.48 4320.62 5334.05 4321.96 5333.52C4323.25 5335.06 4324.63 5336.55 4326.05 5337.99C4330.92 5342.84 4336.25 5347.2 4340.86 5352.29C4343.84 5355.74 4346.49 5359.46 4349.04 5363.22C4348.78 5362.86 4348.54 5362.51 4348.29 5362.14C4350.14 5364.9 4351.96 5367.65 4353.6 5370.56C4355.47 5373.83 4357.09 5377.27 4359.3 5380.38C4359.76 5381.02 4360.2 5381.61 4360.7 5382.2C4356.82 5383.74 4352.94 5385.19 4348.99 5386.63C4344.26 5388.3 4339.41 5389.79 4334.78 5391.72C4334.92 5391.66 4335.05 5391.59 4335.18 5391.53C4334.92 5391.64 4334.65 5391.75 4334.35 5391.9C4334.5 5391.85 4334.61 5391.79 4334.76 5391.74C4331.95 5392.97 4329.26 5394.51 4327.28 5396.96C4325.71 5398.87 4324.43 5401 4323.69 5403.35C4323.05 5405.37 4322.66 5407.42 4322.5 5409.53C4322.41 5410.61 4322.39 5411.68 4322.33 5412.76C4322.07 5413.11 4321.8 5413.44 4321.52 5413.76C4320.62 5414.6 4319.72 5415.39 4318.78 5416.17C4314.57 5419.44 4310.14 5422.32 4305.64 5425.21C4301.21 5428.06 4296.73 5430.89 4292.28 5433.7C4283.71 5439.12 4275.09 5444.71 4267.46 5451.38C4262.77 5455.48 4258.71 5460.06 4255.33 5465.32C4252.83 5469.23 4250.73 5473.7 4249.98 5478.31C4248.95 5484.56 4251.08 5490.98 4253.62 5496.6C4254.74 5499.07 4255.95 5501.49 4257.33 5503.87C4258.66 5506.11 4260.13 5508.26 4261.41 5510.48C4261.56 5510.87 4261.74 5511.24 4261.91 5511.6C4262.09 5512.12 4262.24 5512.63 4262.41 5513.15C4262.46 5513.42 4262.52 5513.68 4262.57 5513.96C4262.57 5514.12 4262.57 5514.31 4262.59 5514.47C4262.57 5515.04 4262.52 5515.61 4262.48 5516.18C4262.33 5516.68 4262.17 5517.19 4261.98 5517.69C4261.74 5518.19 4261.51 5518.7 4261.27 5519.21C4261.01 5519.62 4260.73 5520.02 4260.48 5520.45C4259.56 5521.59 4258.6 5522.67 4257.57 5523.72C4257.57 5523.74 4257.55 5523.75 4257.52 5523.77C4256.05 5525.19 4254.54 5526.57 4252.96 5527.87C4249.06 5530.87 4245 5533.57 4240.84 5536.2C4235.77 5539.32 4230.59 5542.36 4225.99 5546.2C4225.84 5546.31 4225.68 5546.44 4225.55 5546.59C4225.68 5546.46 4225.84 5546.31 4225.99 5546.2C4223.71 5548.2 4221.58 5550.35 4220.11 5553.04C4218.77 5555.52 4217.78 5558.06 4216.97 5560.74C4215.7 5564.95 4215.29 5569.38 4214.93 5573.75C4214.25 5582.04 4213.75 5590.32 4212.63 5598.55C4212.19 5601.6 4211.67 5604.64 4210.92 5607.65C4210.73 5608.24 4210.55 5608.84 4210.33 5609.45C4210.24 5609.54 4210.13 5609.67 4210.04 5609.76C4209.93 5609.86 4209.8 5609.97 4209.69 5610.06C4209.58 5610.15 4209.45 5610.22 4209.32 5610.32C4209.01 5610.46 4208.68 5610.63 4208.36 5610.78C4207.87 5610.96 4207.37 5611.11 4206.87 5611.27C4198.23 5613.29 4189.32 5614.03 4180.55 5615.19C4175.92 5615.79 4171.31 5616.49 4166.69 5617.25C4162.72 5617.89 4158.75 5618.62 4154.74 5619.14C4151.67 5619.45 4148.6 5619.67 4145.55 5619.67C4145 5619.67 4144.45 5619.65 4143.92 5619.62C4143.42 5619.52 4142.91 5619.41 4142.41 5619.29C4142.04 5619.18 4141.69 5619.05 4141.32 5618.92C4140.83 5618.7 4140.35 5618.46 4139.87 5618.26C4138.97 5617.69 4138.13 5617.1 4137.28 5616.47C4134.54 5614.32 4131.99 5611.91 4129.52 5609.45C4125.09 5604.93 4120.92 5600.11 4116.8 5595.33C4114.47 5592.63 4112.17 5589.78 4109.51 5587.41C4108.2 5586.25 4106.8 5585.37 4105.26 5584.58C4103 5583.42 4100.39 5583.17 4097.91 5583.24C4094.67 5583.31 4091.58 5585.02 4088.83 5586.6C4088.97 5586.51 4089.12 5586.44 4089.27 5586.35C4089.03 5586.47 4088.83 5586.6 4088.59 5586.75C4088.68 5586.71 4088.73 5586.66 4088.83 5586.62C4084.62 5589.14 4080.92 5592.49 4077.78 5596.27C4074.93 5599.78 4072.5 5603.66 4069.84 5607.36C4068 5609.8 4066.01 5612.15 4063.9 5614.41C4062.94 5615.37 4061.93 5616.25 4060.9 5617.15C4060.26 5617.61 4059.63 5618.07 4058.95 5618.5C4056.64 5619.78 4054.23 5620.94 4051.79 5622.03C4050.19 5622.69 4048.59 5623.29 4046.95 5623.79C4046.38 5623.92 4045.81 5624.07 4045.22 5624.18C4044.78 5624.23 4044.32 5624.25 4043.88 5624.29C4043.53 5624.29 4043.16 5624.29 4042.83 5624.25C4042.45 5624.14 4042.04 5624.07 4041.66 5623.99Z"
        fill="#2D4159"/>
</svg>