<svg
    width="7773"
    height="7615"
    viewBox="0 0 7773 7615"
    fill="none"
    xmlns="http://www.w3.org/2000/svg">
    <path id="SK"
        d="M4528.28 5095.05C4526.87 5094.63 4525.47 5094.15 4524.11 5093.62C4522.73 5093.03 4521.43 5092.38 4520.12 5091.69C4518.58 5090.75 4517.11 5089.76 4515.67 5088.69C4513.23 5086.78 4510.91 5084.72 4508.69 5082.55C4505.45 5079.3 4502.31 5075.99 4498.98 5072.81C4494.63 5068.65 4489.94 5064.76 4484.92 5061.39C4478.54 5057.07 4471.81 5053.08 4464.35 5051.02C4459.66 5049.72 4454.9 5049.7 4450.16 5050.49C4448.86 5050.71 4447.57 5050.95 4446.3 5051.26C4445.57 5049.77 4444.72 5048.34 4443.82 5047.05C4441.54 5043.89 4438.75 5041.43 4435.46 5039.43C4435.53 5039.46 4435.6 5039.5 4435.68 5039.55C4435.55 5039.48 4435.42 5039.41 4435.29 5039.32C4435.34 5039.35 4435.4 5039.39 4435.46 5039.43C4431.04 5036.91 4426.21 5035.45 4421.54 5033.52C4421.5 5033.51 4421.49 5033.49 4421.45 5033.49C4420.12 5032.9 4418.84 5032.26 4417.59 5031.54C4416.3 5030.77 4415.07 5029.9 4413.86 5029C4412.97 5028.25 4412.11 5027.46 4411.25 5026.67C4410.9 5026.28 4410.57 5025.9 4410.24 5025.51C4410.05 5025.22 4409.87 5024.94 4409.68 5024.65C4409.52 5024.26 4409.33 5023.87 4409.17 5023.47C4408.89 5022.7 4408.69 5021.93 4408.47 5021.12C4408.08 5019.41 4407.81 5017.66 4407.59 5015.91C4407.31 5012.97 4407.18 5010.03 4407.22 5007.09C4407.22 5007.02 4407.22 5006.96 4407.22 5006.89C4407.22 5006.91 4407.22 5006.93 4407.22 5006.96C4407.31 5004.3 4407.53 5001.65 4407.92 4999C4407.86 4999.41 4407.79 4999.81 4407.72 5000.2C4408.82 4993.01 4410.71 4985.99 4412.29 4978.89C4413.19 4974.87 4413.86 4970.71 4414.13 4966.6C4414.33 4963.25 4414.26 4959.9 4413.56 4956.61C4412.96 4953.84 4411.85 4951.38 4410.51 4948.95C4410.53 4948.97 4410.55 4948.99 4410.55 4949C4409.32 4946.69 4408.18 4944.34 4407.15 4941.89C4405.75 4938.01 4404.54 4934.1 4403.34 4930.14C4404.79 4929.41 4406.19 4928.56 4407.53 4927.59C4413.38 4923.32 4417.46 4917.06 4419.22 4910.05C4420.4 4905.49 4421.04 4900.82 4421.98 4896.21C4422.11 4895.77 4422.22 4895.35 4422.35 4894.91C4422.44 4894.85 4422.53 4894.81 4422.62 4894.78C4424.02 4894.41 4425.42 4894.17 4426.83 4893.95C4426.41 4894.01 4426.01 4894.08 4425.6 4894.13C4434.17 4892.81 4442.75 4891.71 4451.28 4890.11C4460.11 4888.45 4468.82 4886.17 4477.48 4883.82C4477.05 4883.93 4476.67 4884.04 4476.26 4884.15C4482.09 4882.57 4487.94 4881.01 4493.71 4879.26C4499.11 4877.61 4504.61 4875.75 4509.55 4873.05C4511.78 4871.82 4514.06 4870.62 4516.19 4869.21C4518.17 4867.88 4520.07 4866.45 4521.91 4864.94C4522.75 4864.25 4523.63 4863.55 4524.41 4862.79C4524.63 4862.57 4524.83 4862.37 4525.03 4862.15C4525.51 4861.76 4525.97 4861.3 4526.39 4860.84C4527.05 4860.15 4527.73 4859.47 4528.36 4858.73C4529.74 4857.08 4531.12 4855.44 4532.27 4853.62C4537.55 4845.26 4539.64 4835.31 4542.07 4825.84C4544.28 4817.24 4546.68 4808.71 4549.48 4800.28C4551.04 4795.79 4552.75 4791.36 4554.83 4787.08C4555.78 4785.26 4556.79 4783.44 4557.93 4781.73C4558.91 4780.39 4559.94 4779.14 4561.02 4777.9C4564.15 4774.58 4567.42 4771.38 4570.42 4767.94C4573.49 4764.45 4576.45 4760.83 4579.4 4757.26C4582.42 4753.64 4585.4 4750 4588.17 4746.23C4590.2 4743.49 4592.03 4740.64 4594.06 4737.92C4594.51 4737.37 4594.96 4736.84 4595.43 4736.34C4595.6 4736.18 4595.76 4736.03 4595.95 4735.88C4596.19 4735.74 4596.41 4735.59 4596.65 4735.42C4596.7 4735.41 4596.78 4735.39 4596.83 4735.35C4597.22 4735.22 4597.6 4735.09 4597.99 4734.98C4598.34 4734.93 4598.71 4734.85 4599.07 4734.8C4599.61 4734.76 4600.14 4734.74 4600.67 4734.73C4601.39 4734.76 4602.13 4734.82 4602.82 4734.91C4604.22 4735.15 4605.56 4735.46 4606.92 4735.79C4612.58 4737.43 4618.1 4739.52 4623.76 4741.21C4626.68 4742.08 4629.61 4742.89 4632.68 4743.13C4636.33 4743.44 4640.23 4743.29 4643.56 4741.6C4646.92 4739.93 4649.05 4736.53 4648.94 4732.83C4650.19 4732.7 4651.43 4732.54 4652.66 4732.35C4657.55 4731.6 4662.44 4730.55 4667.22 4729.21C4672.95 4727.59 4678.69 4725.72 4684.04 4723.03C4689.59 4720.28 4695.16 4717.19 4699.79 4713.03C4703.45 4709.76 4706.63 4706.18 4709.31 4702.04C4711.37 4698.83 4713.3 4695.5 4715.36 4692.28C4715.78 4691.66 4716.22 4691.01 4716.68 4690.41C4717.53 4691.55 4718.35 4692.7 4719.24 4693.84C4721.46 4696.78 4723.78 4699.76 4726.48 4702.26C4729.48 4705.04 4732.88 4707.43 4736.68 4708.97C4739.62 4710.17 4742.71 4711.01 4745.74 4711.95C4747.97 4712.67 4750.16 4713.48 4752.29 4714.45C4753.32 4714.96 4754.31 4715.52 4755.28 4716.1C4755.93 4716.56 4756.57 4717.02 4757.18 4717.52C4757.58 4717.89 4757.95 4718.27 4758.34 4718.64C4758.7 4719.1 4759.09 4719.56 4759.46 4720.06C4759.81 4720.61 4760.14 4721.18 4760.45 4721.77C4763.78 4729.06 4765.45 4737.21 4770.45 4743.66C4772.6 4746.45 4775.1 4748.92 4777.69 4751.29C4780.17 4753.55 4782.65 4755.81 4785.23 4758.02C4784.9 4757.72 4784.57 4757.45 4784.22 4757.13C4786.26 4758.92 4788.33 4760.66 4790.6 4762.17C4795.71 4765.52 4801.28 4768.13 4807.32 4769.01C4808.3 4769.16 4809.31 4769.27 4810.32 4769.3C4817.62 4769.63 4825.17 4766.78 4830.21 4761.47C4835.01 4756.4 4837.71 4749.65 4839.9 4743.13C4841.79 4737.46 4843.33 4731.71 4845.61 4726.18C4846.18 4724.82 4846.84 4723.49 4847.56 4722.19C4847.91 4721.64 4848.28 4721.07 4848.66 4720.53C4849.01 4720.07 4849.4 4719.65 4849.79 4719.23C4850.23 4718.84 4850.69 4718.44 4851.15 4718.05C4851.68 4717.69 4852.21 4717.34 4852.76 4717.02C4854.05 4716.34 4855.39 4715.77 4856.75 4715.22C4860.01 4714.03 4863.33 4713.07 4866.73 4712.24C4872.27 4711.01 4877.85 4710.22 4883.48 4709.71C4883.7 4709.69 4883.9 4709.65 4884.14 4709.65C4884.09 4709.65 4884.03 4709.65 4883.98 4709.65C4884.1 4709.65 4884.22 4709.65 4884.33 4709.63C4884.27 4709.65 4884.2 4709.65 4884.12 4709.67C4884.27 4709.65 4884.45 4709.63 4884.6 4709.63C4884.71 4709.63 4884.86 4709.62 4884.97 4709.62C4885.02 4709.62 4885.08 4709.62 4885.15 4709.6C4895.98 4708.92 4906.86 4709.14 4917.73 4709.34C4922.71 4709.43 4927.67 4709.3 4932.65 4708.77C4936.24 4708.38 4939.82 4707.78 4943.26 4706.71C4948.99 4704.93 4953.88 4701.55 4958.04 4697.28C4961.46 4693.81 4964.49 4689.98 4968.04 4686.64C4969.1 4685.7 4970.21 4684.82 4971.33 4684.01C4972.06 4683.53 4972.85 4683.07 4973.63 4682.65C4974.53 4682.21 4975.43 4681.84 4976.36 4681.49C4976.6 4681.44 4976.86 4681.34 4977.12 4681.27C4978.04 4681.12 4978.97 4681.01 4979.91 4680.9C4986.73 4680.5 4993.62 4680.92 5000.44 4681.03C5010.72 4681.16 5020.98 4681.14 5031.25 4681.34C5038.99 4681.55 5046.73 4681.82 5054.43 4682.76C5056.58 4683.11 5058.7 4683.53 5060.83 4684.05C5062.47 4684.52 5064.08 4685.04 5065.7 4685.65C5067.36 4686.38 5069.01 4687.17 5070.61 4688.04C5074.29 4690.2 5077.81 4692.59 5081.29 4695.06C5089.16 4700.7 5097.08 4706.73 5106.03 4710.52C5113.51 4713.66 5121.31 4715.79 5129.1 4718.02C5133.46 4719.27 5137.83 4720.44 5142.22 4721.58C5147.08 4722.85 5151.93 4724.21 5156.88 4725.2C5157.76 4725.39 5158.62 4725.55 5159.5 4725.7C5158.64 4727.68 5157.98 4729.74 5157.45 4731.86C5156.32 4736.47 5155.31 4741.12 5154.25 4745.75C5151.07 4759.28 5148.02 4772.87 5145.29 4786.51C5142.46 4800.68 5140.28 4814.96 5138.68 4829.34C5138.13 4834.45 5137.57 4839.56 5136.95 4844.65C5136.53 4848.16 5136.07 4851.67 5135.9 4855.2C5135.77 4857.57 5135.81 4859.94 5136.23 4862.28C5136.56 4864.06 5137.13 4865.79 5137.9 4867.43C5137.43 4867.72 5136.93 4868.01 5136.45 4868.31C5131.91 4871.14 5127.92 4874.76 5123.42 4877.63C5122.1 4878.4 5120.7 4879.1 5119.3 4879.74C5116.36 4880.99 5113.31 4882.04 5110.22 4882.98C5107.54 4883.71 5104.84 4884.32 5102.12 4884.81C5100.92 4884.96 5099.73 4885.09 5098.55 4885.13C5098.13 4885.13 5097.72 4885.11 5097.32 4885.09C5096.99 4885.02 5096.66 4884.98 5096.34 4884.91C5096.1 4884.83 5095.87 4884.74 5095.63 4884.67C5095.57 4884.65 5095.52 4884.61 5095.46 4884.59C5095.42 4884.58 5095.41 4884.58 5095.37 4884.54C5095.31 4884.47 5095.26 4884.43 5095.2 4884.35C5094.69 4883.44 5094.21 4882.48 5093.75 4881.51C5092.39 4878.29 5091.31 4874.98 5090.33 4871.65C5090.44 4872.08 5090.57 4872.5 5090.68 4872.92C5090.55 4872.42 5090.41 4871.95 5090.26 4871.43C5090.31 4871.63 5090.37 4871.84 5090.42 4872.04C5090.3 4871.62 5090.19 4871.19 5090.06 4870.77C5088.33 4864.78 5086.71 4858.73 5084.28 4852.98C5083.33 4850.7 5082.28 4848.53 5080.81 4846.52C5078.99 4844.02 5076.53 4842.11 5073.62 4840.99C5068.88 4839.15 5063.97 4839.8 5059.43 4841.84C5054.98 4843.86 5050.81 4846.52 5046.6 4849.06C5041.44 4852.15 5036.27 4855.26 5030.89 4857.98C5029.52 4858.6 5028.16 4859.17 5026.73 4859.72C5026.23 4859.89 5025.72 4860.02 5025.21 4860.13C5024.89 4860.18 5024.58 4860.22 5024.29 4860.27C5023.48 4860.31 5022.67 4860.31 5021.86 4860.27C5021.82 4860.27 5021.79 4860.27 5021.73 4860.26C5018.62 4860.05 5015.55 4859.76 5012.45 4859.69C5008.86 4859.63 5005.3 4859.85 5001.73 4860.2C4994.18 4860.92 4986.73 4862.42 4979.21 4863.16C4976.29 4863.34 4973.37 4863.4 4970.45 4863.31C4968.35 4863.16 4966.29 4862.88 4964.23 4862.55C4961.55 4862.02 4958.92 4861.36 4956.31 4860.59C4951.64 4859.06 4947.08 4857.06 4942.27 4855.99C4936.9 4854.78 4931.35 4854.34 4925.87 4855.15C4923.11 4855.57 4920.02 4856.12 4917.52 4857.41C4915.37 4858.49 4913.41 4859.74 4911.55 4861.29C4908.3 4863.95 4905.45 4867.28 4903.15 4870.81C4900.74 4874.52 4898.66 4878.42 4896.59 4882.33C4894.38 4886.49 4892.14 4890.62 4889.88 4894.72C4886.02 4901.74 4882.52 4909.01 4879.9 4916.58C4876.64 4925.9 4875.28 4935.71 4872.1 4945.03C4871.44 4946.71 4870.69 4948.34 4869.93 4949.94C4868.98 4951.72 4867.97 4953.43 4866.86 4955.13C4865.92 4956.41 4864.99 4957.64 4863.99 4958.86C4863.22 4959.68 4862.45 4960.49 4861.62 4961.28C4860.87 4961.87 4860.12 4962.42 4859.33 4962.97C4857.78 4963.95 4856.22 4964.87 4854.62 4965.7C4852.01 4966.91 4849.31 4967.88 4846.59 4968.8C4846.99 4968.67 4847.4 4968.54 4847.82 4968.4C4840.01 4970.95 4832.12 4973.29 4824.27 4975.68C4815.85 4978.25 4807.45 4980.88 4799.01 4983.38C4780.72 4988.8 4762.29 4993.76 4743.67 4998.01C4734.97 5000 4726.17 5001.71 4717.62 5004.24C4713.35 5005.49 4709.26 5006.98 4705.27 5008.89C4700.32 5011.25 4695.63 5014.46 4692.38 5018.93C4689.49 5022.88 4688.08 5027.53 4686.66 5032.15C4685.62 5035.47 4684.62 5038.8 4683.32 5042.05C4682.23 5044.43 4681.04 5046.7 4679.75 5048.98C4679.72 5049.06 4679.68 5049.11 4679.64 5049.17V5049.15C4679.62 5049.2 4679.59 5049.24 4679.57 5049.28C4675.06 5056.61 4669.97 5063.65 4664.7 5070.47C4662.9 5072.75 4661.08 5074.98 4659.09 5077.09C4657.82 5078.3 4656.52 5079.5 4655.14 5080.6C4654.88 5080.78 4654.62 5080.97 4654.35 5081.12C4653.47 5081.58 4652.57 5082.02 4651.66 5082.4C4650.76 5082.71 4649.86 5083.01 4648.96 5083.25C4648.47 5083.34 4647.95 5083.43 4647.45 5083.49C4641.13 5084.11 4634.77 5084.28 4628.39 5084.44C4623.45 5084.59 4618.48 5084.65 4613.54 5084.68C4609.09 5084.72 4604.59 5084.72 4600.16 5085.14C4592.6 5085.88 4585.27 5087.48 4578.1 5089.94C4572.05 5092.02 4566.04 5094.13 4559.88 5095.78C4557.82 5096.26 4555.77 5096.69 4553.69 5097C4553.41 5097.02 4553.14 5097.03 4552.88 5097.09C4550.86 5097.24 4548.84 5097.31 4546.81 5097.31C4543.12 5097.24 4539.41 5096.94 4535.73 5096.52C4533.25 5096.12 4530.75 5095.67 4528.28 5095.05Z"
        fill="#2D4159"/>
</svg>