<svg
    width="7773"
    height="7615"
    viewBox="0 0 7773 7615"
    fill="none"
    xmlns="http://www.w3.org/2000/svg">
    <path
        id="UA"
        d="M6232.31 5280.01C6229.58 5279.07 6226.89 5277.99 6224.28 5276.77C6224.26 5276.75 6224.24 5276.76 6224.23 5276.74C6224.23 5276.74 6224.23 5276.74 6224.21 5276.72C6220.97 5275.14 6217.92 5273.35 6214.87 5271.42C6210.27 5268.34 6206.05 5264.75 6201.86 5261.13C6202.44 5260.47 6203.01 5259.84 6203.6 5259.18C6203.58 5259.22 6203.56 5259.26 6203.51 5259.29C6203.56 5259.24 6203.6 5259.2 6203.64 5259.15C6203.75 5259.02 6203.86 5258.91 6203.97 5258.8C6203.95 5258.81 6203.95 5258.81 6203.93 5258.83C6203.95 5258.81 6203.97 5258.78 6204.01 5258.76C6204.02 5258.74 6204.04 5258.72 6204.06 5258.7C6204.08 5258.69 6204.08 5258.67 6204.1 5258.65C6204.08 5258.67 6204.06 5258.69 6204.06 5258.7C6204.04 5258.72 6204.04 5258.72 6204.02 5258.74C6204.08 5258.69 6204.13 5258.61 6204.21 5258.54C6204.26 5258.48 6204.3 5258.43 6204.36 5258.39L6204.37 5258.37C6204.41 5258.32 6204.45 5258.28 6204.48 5258.23C6204.5 5258.21 6204.54 5258.17 6204.56 5258.15C6207.42 5255.08 6210.38 5252.03 6213.16 5248.87C6215.97 5245.65 6218.49 5242.27 6220.44 5238.45C6222.46 5234.46 6223.82 5230.1 6224.78 5225.73C6226.19 5219.37 6227.06 5212.97 6227.35 5206.44C6227.61 5200.67 6227.66 5194.88 6227.55 5189.11C6227.55 5189.13 6227.55 5189.13 6227.55 5189.15C6227.55 5189.11 6227.55 5189.09 6227.57 5189.05C6227.55 5189 6227.57 5188.94 6227.55 5188.91C6227.55 5188.76 6227.55 5188.61 6227.55 5188.47C6227.55 5188.48 6227.57 5188.5 6227.57 5188.52C6227.57 5188.43 6227.57 5188.36 6227.55 5188.28C6227.55 5188.15 6227.55 5188.03 6227.53 5187.92C6227.55 5187.95 6227.54 5188.01 6227.55 5188.04C6227.54 5187.25 6227.52 5186.46 6227.5 5185.69C6227.5 5186.11 6227.5 5186.54 6227.5 5186.96C6227.48 5184.05 6227.42 5181.11 6227.46 5178.23C6227.46 5178.17 6227.46 5178.12 6227.48 5178.08C6227.48 5178.06 6227.48 5178.06 6227.46 5178.04C6227.46 5178.03 6227.46 5178.01 6227.46 5177.99C6227.46 5177.99 6227.46 5177.99 6227.46 5178.01C6227.46 5177.99 6227.46 5177.97 6227.48 5177.93C6227.48 5177.9 6227.48 5177.86 6227.48 5177.82C6227.48 5177.69 6227.5 5177.57 6227.5 5177.44C6227.5 5177.44 6227.5 5177.44 6227.5 5177.42C6227.5 5177.44 6227.5 5177.46 6227.5 5177.47C6227.5 5177.44 6227.5 5177.4 6227.5 5177.36C6227.5 5177.27 6227.52 5177.2 6227.52 5177.11C6227.7 5173.19 6228.03 5169.31 6228.75 5165.47C6229.34 5162.82 6230.07 5160.25 6230.9 5157.68C6232.87 5152.44 6235.07 5147.36 6237.83 5142.49C6241.25 5136.94 6245.4 5131.85 6248.91 5126.32C6251.84 5121.61 6254.67 5116.74 6256.69 5111.61C6258.77 5106.45 6260.25 5101.08 6260.9 5095.58C6260.9 5095.56 6260.9 5095.55 6260.92 5095.53C6260.94 5095.38 6260.95 5095.21 6260.97 5095.07C6261.23 5092.42 6261.39 5089.81 6261.23 5087.13C6261.1 5084.66 6260.68 5082.2 6260 5079.83C6258.78 5075.62 6257.11 5071.65 6254.98 5067.83C6253.12 5064.55 6251.03 5061.48 6249.08 5058.27C6247.24 5055.27 6245.46 5052.22 6243.86 5049.09C6243.93 5049.24 6244.01 5049.39 6244.06 5049.52C6243.99 5049.33 6243.9 5049.17 6243.8 5049C6243.66 5048.69 6243.49 5048.38 6243.33 5048.05C6242.5 5046.24 6241.74 5044.44 6241.05 5042.57C6241.05 5042.55 6241.03 5042.53 6241.03 5042.53C6241.03 5042.51 6241.01 5042.49 6241.01 5042.48V5042.49C6241.01 5042.46 6240.99 5042.42 6240.97 5042.38C6240.97 5042.42 6240.99 5042.44 6240.99 5042.46C6240.97 5042.42 6240.97 5042.37 6240.95 5042.33C6240.94 5042.26 6240.9 5042.16 6240.88 5042.09C6240.88 5042.09 6240.88 5042.09 6240.88 5042.07C6240.22 5039.77 6239.69 5037.46 6239.21 5035.11C6239.08 5034.31 6238.97 5033.54 6238.9 5032.77C6238.9 5032.59 6238.9 5032.4 6238.9 5032.22C6241.1 5031.65 6243.34 5031.25 6245.6 5030.88C6245.59 5030.88 6245.57 5030.88 6245.53 5030.88C6255.09 5029.35 6264.76 5028.62 6274.34 5027.26C6273.93 5027.31 6273.51 5027.37 6273.1 5027.42C6280.33 5026.39 6287.39 5024.76 6294.46 5023.05C6300.84 5021.5 6307.18 5019.85 6313.64 5018.82C6316.28 5018.49 6318.93 5018.29 6321.58 5018.19C6323.67 5018.21 6325.77 5018.32 6327.85 5018.54C6334.68 5019.37 6341.49 5020.55 6348.25 5021.65C6354.78 5022.7 6361.36 5023.71 6367.92 5024.52C6374.96 5025.38 6382.2 5026.08 6389.28 5025.53C6393.27 5025.22 6397.13 5024.59 6400.95 5023.43C6404.7 5022.29 6408.01 5020.16 6410.95 5017.64C6415.58 5013.73 6419.99 5009.46 6424.22 5005.09C6424.17 5005.16 6424.11 5005.2 6424.06 5005.27C6424.13 5005.2 6424.17 5005.14 6424.24 5005.07C6424.33 5004.98 6424.42 5004.9 6424.48 5004.81C6424.41 5004.89 6424.33 5004.96 6424.26 5005.03C6427.2 5001.96 6430.01 4998.67 6431.81 4994.79C6432.92 4992.35 6433.63 4989.76 6433.51 4987.05C6433.38 4984.52 6432.55 4982.37 6431.28 4980.22C6429.83 4977.72 6427.51 4975.82 6425.18 4974.17C6421.36 4971.5 6417.22 4969.33 6413.14 4967.09C6409.79 4965.25 6406.47 4963.45 6403.12 4961.61C6403.08 4961.6 6403.05 4961.58 6403.03 4961.56C6403.06 4961.58 6403.1 4961.6 6403.14 4961.63C6403.19 4961.67 6403.27 4961.71 6403.32 4961.72C6403.27 4961.69 6403.19 4961.65 6403.14 4961.63C6403.1 4961.61 6403.05 4961.58 6403.01 4961.56C6402.95 4961.52 6402.88 4961.49 6402.83 4961.45C6402.79 4961.43 6402.75 4961.41 6402.73 4961.39C6402.73 4961.39 6402.72 4961.39 6402.72 4961.38C6402.68 4961.36 6402.66 4961.34 6402.62 4961.32C6402.61 4961.32 6402.59 4961.3 6402.57 4961.3C6402.46 4961.23 6402.33 4961.15 6402.2 4961.1C6392.35 4955.64 6382.5 4950.24 6373.36 4943.65C6373.29 4943.62 6373.23 4943.56 6373.18 4943.53C6372.88 4943.32 6372.61 4943.1 6372.29 4942.9C6372.59 4943.09 6372.84 4943.27 6373.1 4943.45C6368.36 4939.89 6363.8 4936.08 6359.52 4931.96C6356.39 4928.86 6353.49 4925.62 6350.73 4922.2C6347.29 4917.66 6344.28 4912.86 6341.37 4907.96C6341.36 4907.94 6341.36 4907.92 6341.34 4907.9C6341.34 4907.88 6341.32 4907.88 6341.32 4907.86C6341.28 4907.79 6341.25 4907.72 6341.19 4907.64C6341.19 4907.64 6341.19 4907.64 6341.19 4907.66C6341.17 4907.64 6341.17 4907.63 6341.17 4907.61C6341.14 4907.53 6341.08 4907.46 6341.03 4907.37C6340.88 4907.13 6340.73 4906.87 6340.58 4906.62C6340.64 4906.73 6340.69 4906.82 6340.75 4906.93C6340.75 4906.93 6340.75 4906.91 6340.73 4906.91L6340.75 4906.93C6340.8 4907.02 6340.84 4907.11 6340.9 4907.22C6336.93 4900.33 6333.01 4893.42 6329.79 4886.16C6328.78 4883.67 6327.96 4881.17 6327.24 4878.6C6326.12 4874.43 6325.16 4870.24 6324.02 4866.08C6324.04 4866.17 6324.06 4866.23 6324.08 4866.3C6324.06 4866.19 6324.02 4866.06 6323.99 4865.97C6323.93 4865.72 6323.86 4865.48 6323.78 4865.22C6323.78 4865.18 6323.76 4865.16 6323.76 4865.13C6323.78 4865.16 6323.78 4865.18 6323.78 4865.22C6323.8 4865.27 6323.82 4865.31 6323.82 4865.37C6323.27 4863.36 6322.66 4861.4 6321.95 4859.47C6319.9 4853.91 6317.26 4848.38 6313.75 4843.64C6308.78 4836.91 6299.87 4832.2 6291.58 4835.29C6284.72 4837.87 6280.09 4843.97 6275.99 4849.78C6272.57 4854.63 6269.48 4859.78 6266.03 4864.65C6265.11 4865.83 6264.17 4866.95 6263.2 4868.07C6262.42 4868.8 6261.63 4869.52 6260.81 4870.2C6260.55 4870.38 6260.29 4870.57 6260.03 4870.75C6259.61 4870.99 6259.19 4871.21 6258.75 4871.43C6258.6 4871.08 6258.43 4870.72 6258.27 4870.35C6258.23 4870.24 6258.18 4870.13 6258.12 4870.02C6258.09 4869.92 6258.05 4869.83 6258.03 4869.74C6258.05 4869.8 6258.05 4869.83 6258.07 4869.87C6257.99 4869.7 6257.92 4869.56 6257.87 4869.39C6257.94 4869.5 6257.98 4869.63 6258.03 4869.74C6255.29 4862.98 6253.21 4855.79 6249.56 4849.45C6247.26 4845.44 6244.32 4841.95 6240.97 4838.77C6238.49 4836.34 6235.9 4834.08 6233.38 4831.67C6233.18 4831.47 6232.96 4831.27 6232.76 4831.06C6232.77 4831.08 6232.79 4831.1 6232.83 4831.14C6232.79 4831.1 6232.77 4831.08 6232.74 4831.05L6232.76 4831.06C6232.74 4831.05 6232.74 4831.05 6232.72 4831.03C6232.72 4831.03 6232.72 4831.03 6232.72 4831.01C6232.68 4830.99 6232.66 4830.95 6232.65 4830.95C6226.73 4825.04 6221.17 4818.77 6215.15 4812.9C6215.46 4813.22 6215.79 4813.53 6216.08 4813.82C6212.37 4810.18 6208.55 4806.6 6204.81 4802.98C6201.06 4799.23 6197.52 4795.33 6194.17 4791.21C6193.22 4789.94 6192.3 4788.66 6191.47 4787.3C6191.08 4786.58 6190.73 4785.85 6190.42 4785.11C6189.85 4783.71 6189.41 4782.32 6188.99 4780.86C6188.68 4779.72 6188.42 4778.58 6188.2 4777.43C6188.05 4776.36 6187.94 4775.29 6187.87 4774.21C6187.89 4772.08 6188.05 4769.95 6188.25 4767.83C6189.26 4759.95 6190.99 4752.13 6191.84 4744.23C6191.8 4744.65 6191.75 4745.06 6191.71 4745.48C6192.46 4738.84 6193.05 4731.99 6190.22 4725.75C6189.63 4724.41 6188.9 4723.05 6188.01 4721.89C6187.06 4720.64 6186.1 4719.52 6184.91 4718.49C6183.95 4717.67 6182.83 4717.04 6181.73 4716.45C6179.43 4715.24 6176.97 4714.36 6174.47 4713.62C6169.78 4712.24 6165.04 4711.16 6160.37 4709.78C6155.48 4708.33 6150.61 4706.84 6145.83 4705.11C6142.78 4703.88 6139.82 4702.52 6136.91 4700.99C6132.79 4698.64 6128.88 4695.96 6124.6 4693.9C6120.11 4691.75 6115.18 4690.22 6110.26 4689.52C6103.46 4688.55 6096.53 4688.35 6089.72 4689.36C6083.46 4690.28 6077.26 4691.69 6071.14 4693.24C6058.55 4696.36 6046.05 4699.89 6033.31 4702.39C6029.98 4702.96 6026.62 4703.37 6023.24 4703.66C6023.16 4703.66 6023.11 4703.68 6023.04 4703.68C6021.56 4703.73 6020.11 4703.77 6018.64 4703.73C6017.94 4703.68 6017.24 4703.59 6016.53 4703.48C6015.02 4703.18 6013.5 4702.81 6011.99 4702.41C6011.22 4702.15 6010.48 4701.86 6009.71 4701.56C6008.55 4701.01 6007.43 4700.42 6006.31 4699.78C6004.49 4698.57 6002.72 4697.28 6001.01 4695.88C5995 4690.81 5989.4 4685.28 5983.66 4679.93C5980.77 4677.21 5977.85 4674.51 5974.8 4671.99C5971.51 4669.23 5968.18 4666.62 5964.36 4664.63C5958.07 4661.36 5951.27 4659.4 5944.16 4659.01C5938.44 4658.72 5932.56 4658.79 5926.9 4659.63C5919.89 4660.7 5913.24 4662.83 5906.86 4665.92C5900.85 4668.83 5895.13 4672.23 5889.56 4675.88C5889.91 4675.65 5890.26 4675.42 5890.61 4675.19C5889.95 4675.63 5889.27 4676.07 5888.59 4676.51C5888.94 4676.29 5889.29 4676.05 5889.66 4675.83C5884.54 4679.14 5879.6 4682.63 5874.91 4686.47C5871.13 4689.6 5867.49 4692.87 5863.55 4695.83C5861.68 4697.13 5859.77 4698.38 5857.84 4699.6C5856.7 4700.2 5855.56 4700.76 5854.4 4701.31C5853.31 4701.71 5852.25 4702.1 5851.15 4702.43C5848.31 4703.14 5845.46 4703.75 5842.6 4704.21C5837.96 4704.84 5833.31 4705.3 5828.65 4705.72C5823.55 4706.2 5818.44 4706.53 5813.52 4707.87C5813.54 4707.87 5813.57 4707.85 5813.59 4707.85C5813.54 4707.85 5813.5 4707.87 5813.43 4707.89C5813.35 4707.91 5813.3 4707.92 5813.22 4707.94C5813.28 4707.92 5813.35 4707.91 5813.41 4707.89C5813.33 4707.91 5813.28 4707.94 5813.2 4707.94C5809.6 4709.06 5806.2 4710.98 5803.55 4713.73C5801.53 4715.83 5799.82 4718.18 5798.28 4720.63C5795.69 4724.71 5793.39 4729.01 5791.4 4733.4C5791.55 4733.07 5791.7 4732.76 5791.84 4732.43C5790.45 4735.46 5789.07 4738.62 5788.35 4741.91C5785.28 4742.41 5782.27 4743.11 5779.29 4743.99C5774.99 4745.24 5770.69 4746.69 5766.7 4748.73C5760.85 4751.75 5756.33 4756.29 5752.6 4761.65C5748.57 4767.41 5745.34 4773.82 5742.84 4780.35C5740.8 4785.72 5739.2 4791.27 5737.82 4796.84C5736.75 4801.03 5735.8 4805.26 5734.55 4809.41C5734.09 4810.73 5733.61 4812.04 5733.02 4813.34C5732.69 4814.01 5732.32 4814.67 5731.94 4815.33C5731.64 4815.75 5731.33 4816.16 5731.02 4816.58C5730.6 4817.04 5730.14 4817.48 5729.7 4817.9C5728.11 4819.3 5726.42 4820.59 5724.7 4821.8C5722.31 4823.4 5719.86 4824.87 5717.36 4826.21C5712.32 4828.71 5707.12 4830.88 5701.85 4832.85H5701.83C5701.77 4832.87 5701.7 4832.9 5701.64 4832.92C5696 4834.93 5690.27 4836.6 5684.48 4838.2C5670.93 4841.98 5657.45 4846.12 5644.97 4852.74C5635.12 4857.96 5625.47 4864.02 5617.49 4871.93C5614.04 4875.35 5610.91 4878.95 5608.06 4882.92C5605.75 4886.16 5603.67 4889.56 5601.66 4892.99C5598.47 4898.53 5595.38 4904.17 5591.66 4909.41C5590.95 4910.37 5590.19 4911.28 5589.39 4912.19C5588.91 4912.66 5588.41 4913.12 5587.91 4913.58C5587.44 4913.91 5586.96 4914.24 5586.5 4914.59C5586.06 4914.85 5585.62 4915.11 5585.16 4915.33C5584.86 4915.46 5584.57 4915.59 5584.26 4915.7C5584.16 4915.71 5584.07 4915.75 5583.98 4915.77C5583.76 4915.79 5583.56 4915.82 5583.36 4915.84C5582.82 4915.84 5582.31 4915.84 5581.78 4915.82C5581.41 4915.77 5581.04 4915.71 5580.69 4915.64C5580.21 4915.53 5579.73 4915.4 5579.24 4915.27C5578.19 4914.87 5577.18 4914.43 5576.15 4913.93C5573.56 4912.55 5571.08 4911.01 5568.61 4909.41C5562.16 4905 5555.97 4900.25 5549.68 4895.59C5546.56 4893.27 5543.43 4890.94 5540.18 4888.78C5538.36 4887.57 5536.48 4886.51 5534.52 4885.55C5532.42 4884.54 5530.07 4883.58 5527.75 4883.14C5524.79 4882.57 5521.87 4882.17 5518.85 4882.22C5516.28 4882.28 5513.71 4882.48 5511.17 4882.9C5506.78 4883.66 5502.44 4884.67 5498.21 4886.06C5490.71 4888.55 5483.52 4891.85 5476.06 4894.46C5470.1 4896.45 5464.13 4898.2 5457.99 4899.57C5457.95 4899.59 5457.92 4899.59 5457.86 4899.59C5457.83 4899.61 5457.77 4899.61 5457.73 4899.63C5448.91 4901.41 5440.03 4902.44 5431.1 4903.21C5421.76 4903.89 5412.48 4904.12 5403.14 4903.69C5389.7 4902.87 5376.41 4900.42 5363.14 4898.16C5358.1 4897.31 5353.07 4896.51 5347.99 4896.1C5344.76 4895.84 5341.43 4896.1 5338.21 4896.41C5335.6 4896.67 5333.01 4897.04 5330.44 4897.52C5321.3 4899.32 5312.77 4902.88 5304.52 4907.13C5298.73 4910.09 5293.01 4913.16 5287.22 4916.1C5286.71 4916.36 5286.19 4916.61 5285.64 4916.89C5286.01 4916.69 5286.4 4916.52 5286.76 4916.32C5284.45 4917.46 5282.13 4918.56 5279.72 4919.46C5278.91 4919.72 5278.09 4919.96 5277.28 4920.16C5276.8 4920.25 5276.32 4920.31 5275.84 4920.38C5275.46 4920.4 5275.07 4920.4 5274.69 4920.4C5274.21 4920.35 5273.77 4920.29 5273.31 4920.22C5272.53 4920.05 5271.8 4919.85 5271.06 4919.61C5269.8 4919.15 5268.58 4918.64 5267.37 4918.07C5262.3 4915.48 5257.52 4912.37 5252.66 4909.39C5246.49 4905.62 5240.35 4901.76 5233.82 4898.58C5225.48 4894.48 5216.87 4890.73 5208.23 4887.26C5200.61 4884.19 5193.01 4881.06 5185.61 4877.52C5177.21 4873.38 5169.03 4868.84 5161.21 4863.67C5159.78 4862.68 5158.36 4861.67 5157.02 4860.59C5156.77 4860.31 5156.49 4860.05 5156.23 4859.78C5156.1 4859.63 5155.99 4859.47 5155.86 4859.32C5155.75 4859.13 5155.64 4858.95 5155.55 4858.77C5155.52 4858.71 5155.5 4858.68 5155.48 4858.62C5155.44 4858.42 5155.42 4858.23 5155.4 4858.03C5155.37 4857.22 5155.37 4856.41 5155.4 4855.61C5155.75 4851.21 5156.36 4846.84 5156.88 4842.46C5157.5 4837.06 5158.05 4831.65 5158.7 4826.25C5159.93 4816.05 5161.43 4805.9 5163.33 4795.83C5165.72 4783.46 5168.4 4771.1 5171.23 4758.82C5172.39 4753.86 5173.55 4748.88 5174.71 4743.92C5175.46 4740.63 5176.12 4737.28 5177.1 4734.06C5177.24 4733.7 5177.39 4733.33 5177.54 4733C5177.72 4732.68 5177.9 4732.37 5178.09 4732.06C5178.24 4731.88 5178.38 4731.65 5178.55 4731.47C5178.69 4731.32 5178.82 4731.18 5178.97 4731.03C5179.08 4730.94 5179.19 4730.85 5179.3 4730.77C5179.56 4730.63 5179.8 4730.48 5180.05 4730.33C5180.42 4730.17 5180.81 4730.02 5181.19 4729.87C5182.15 4729.56 5183.11 4729.32 5184.08 4729.1C5184.12 4729.08 5184.14 4729.08 5184.17 4729.08C5184.26 4729.06 5184.34 4729.04 5184.41 4729.04C5184.36 4729.06 5184.32 4729.06 5184.25 4729.08C5184.3 4729.08 5184.34 4729.06 5184.41 4729.04C5186.56 4728.62 5188.71 4728.33 5190.85 4727.96C5195.09 4727.23 5199.25 4726.25 5203.25 4724.63C5206.86 4723.16 5210.61 4721.47 5213.75 4719.16C5215.84 4717.61 5217.77 4715.7 5218.8 4713.27C5220.09 4710.24 5220.37 4707.15 5219.96 4703.9C5219.54 4700.55 5218.34 4697.28 5217.08 4694.17C5215.86 4691.14 5214.56 4688.15 5213.2 4685.17C5210.7 4679.65 5208.11 4674.17 5205.42 4668.75C5200.99 4659.76 5196.6 4650.77 5192.65 4641.58C5192.65 4641.55 5192.63 4641.53 5192.63 4641.53C5192.65 4641.55 5192.65 4641.57 5192.65 4641.58C5192.65 4641.58 5192.65 4641.58 5192.65 4641.6C5189.36 4633.84 5186.18 4625.96 5183.8 4617.87C5183.53 4616.84 5183.29 4615.81 5183.11 4614.78C5183.11 4614.71 5183.09 4614.64 5183.09 4614.56C5183.03 4613.88 5183 4613.2 5182.96 4612.52C5183.01 4611.22 5183.11 4609.97 5183.25 4608.68C5183.29 4608.42 5183.33 4608.17 5183.36 4607.93C5183.82 4605.43 5184.39 4602.98 5185.04 4600.54C5185.22 4599.91 5185.4 4599.25 5185.59 4598.62C5187.5 4592.71 5189.71 4587.01 5192.15 4581.35C5204.06 4555.9 5220 4532.69 5233.58 4508.17C5240.86 4495.02 5246.43 4481.07 5251.63 4467.01C5253.77 4461.29 5255.81 4455.58 5257.94 4449.86C5259.58 4445.48 5261.25 4441.11 5263.23 4436.9C5263.91 4435.59 5264.65 4434.36 5265.42 4433.11C5266.69 4431.33 5268.03 4429.62 5269.43 4427.98C5269.13 4428.32 5268.86 4428.63 5268.56 4428.96C5272.83 4424.16 5277.41 4419.75 5282.24 4415.56C5282.15 4415.63 5282.09 4415.69 5282 4415.76C5282.11 4415.67 5282.2 4415.58 5282.31 4415.49C5282.3 4415.52 5282.28 4415.52 5282.24 4415.56C5282.33 4415.49 5282.42 4415.41 5282.5 4415.34C5282.66 4415.21 5282.81 4415.08 5282.96 4414.93C5282.87 4415.01 5282.79 4415.06 5282.72 4415.14C5288.8 4409.92 5294.94 4404.77 5300.75 4399.22C5304.45 4395.69 5307.96 4391.96 5311.14 4387.95C5312.7 4385.94 5314.19 4383.85 5315.48 4381.66C5316.95 4379.14 5317.98 4376.5 5318.91 4373.74C5320.73 4368.32 5321.73 4362.56 5322.42 4356.9C5323.09 4351.79 5323.51 4346.57 5323.32 4341.41C5323.23 4338.41 5323.01 4335.41 5322.42 4332.49C5321.78 4329.2 5320.79 4326.02 5319.46 4322.95C5315.84 4314.48 5310.88 4306.65 5305.4 4299.24C5299.67 4291.52 5293.29 4284.27 5286.95 4277.03C5280.49 4269.68 5274.23 4262.22 5268.22 4254.5C5261.14 4245.18 5254.52 4235.6 5248.44 4225.62C5242.26 4215.54 5236.34 4205.32 5230.5 4195.07L5230.51 4195.08C5230.51 4195.07 5230.5 4195.05 5230.48 4195.03C5230.33 4194.75 5230.15 4194.48 5230 4194.2C5230.02 4194.2 5230.02 4194.2 5230.02 4194.2C5230 4194.2 5230 4194.22 5230 4194.2C5230 4194.2 5230 4194.18 5229.98 4194.17C5226.51 4187.95 5223.12 4181.68 5220.02 4175.27C5217.55 4170.16 5215.29 4164.94 5213.18 4159.68C5212.83 4158.8 5212.48 4157.92 5212.13 4157.02C5213.29 4156.96 5214.47 4156.89 5215.64 4156.83C5218.44 4156.7 5221.25 4156.65 5224.04 4156.59C5229.96 4156.46 5235.83 4156.22 5241.71 4155.53C5241.63 4155.53 5241.54 4155.56 5241.47 4155.56C5245.15 4155.12 5248.8 4154.59 5252.41 4153.69C5258.66 4152.16 5265.11 4149.79 5269.94 4145.38C5274.23 4141.45 5277.79 4136.78 5280.88 4131.87C5284.39 4126.26 5287.57 4120.4 5289.8 4114.15C5291.67 4108.84 5293.23 4103.43 5295.4 4098.19C5296.21 4096.41 5297.11 4094.65 5298.1 4092.92C5298.58 4092.18 5299.08 4091.45 5299.61 4090.71C5299.94 4090.33 5300.26 4089.96 5300.6 4089.61C5300.75 4089.5 5300.92 4089.37 5301.06 4089.26C5301.45 4089 5301.84 4088.76 5302.22 4088.52C5302.26 4088.51 5302.3 4088.51 5302.35 4088.47C5306.71 4086.21 5311.41 4084.76 5315.84 4082.64C5322.28 4079.59 5328.14 4075.51 5334.1 4071.65C5341.67 4066.76 5349.5 4062.2 5356.95 4057.09C5364.26 4052.09 5371.45 4046.93 5379.21 4042.62C5382.33 4040.97 5385.53 4039.5 5388.82 4038.16C5393.25 4036.47 5397.73 4035.03 5402.33 4033.84C5407.33 4032.66 5412.35 4031.8 5417.44 4031.15C5417.5 4031.14 5417.57 4031.15 5417.64 4031.14C5417.75 4031.12 5417.86 4031.1 5417.97 4031.08C5428.12 4030.03 5438.29 4029.67 5448.49 4029.76C5458.67 4030 5468.82 4030.82 5478.98 4031.5C5489.06 4032.17 5499.15 4032.81 5509.24 4033.05C5518.82 4033.27 5528.39 4033.08 5537.95 4032.83C5547.51 4032.57 5557.07 4032.42 5566.55 4031.17C5575.65 4029.96 5584.51 4027.37 5593.41 4025.24C5602.36 4023.12 5611.33 4020.9 5620.41 4019.43C5623.59 4018.98 5626.79 4018.73 5629.99 4018.62C5633.78 4018.64 5637.53 4018.87 5641.3 4019.26C5645.62 4019.79 5649.92 4020.58 5654.15 4021.52C5656.99 4022.24 5659.79 4023.14 5662.55 4024.13C5669.51 4026.87 5676.17 4030.36 5683.04 4033.32C5692.05 4037.22 5701.3 4040.95 5710.95 4042.86C5720.25 4044.72 5729.79 4045.33 5739.25 4044.66C5743.74 4044.33 5748.21 4043.86 5752.65 4043.1C5757.71 4042.24 5762.78 4041.21 5767.65 4039.68C5772.53 4038.16 5777.49 4036.39 5781.88 4033.73C5785.54 4031.52 5788.96 4028.89 5792.47 4026.45C5795.21 4024.63 5798.04 4022.9 5800.94 4021.34C5803.39 4020.12 5805.85 4019.02 5808.41 4018.07C5809.44 4017.7 5810.48 4017.39 5811.55 4017.07C5812.8 4016.82 5814.03 4016.58 5815.3 4016.38C5822.78 4015.58 5830.32 4015.44 5837.85 4015.27C5845.85 4015.07 5853.88 4014.44 5861.81 4013.58C5865.91 4013.14 5869.91 4012.55 5873.9 4011.47C5877.21 4010.57 5880.35 4009.04 5883.17 4007.11C5885.87 4005.25 5888.35 4003.1 5890.8 4000.92C5893.57 3998.47 5896.38 3996.08 5899.31 3993.82C5902.87 3991.15 5906.59 3988.71 5910.43 3986.5C5913.63 3984.74 5916.92 3983.14 5920.28 3981.69C5921.62 3981.17 5922.98 3980.71 5924.34 3980.31C5925.02 3980.16 5925.68 3980.02 5926.36 3979.9C5926.71 3979.85 5927.08 3979.83 5927.43 3979.81C5927.58 3979.81 5927.74 3979.81 5927.89 3979.85C5928.28 3979.92 5928.66 3980 5929.03 3980.09C5929.69 3980.29 5930.35 3980.53 5931.01 3980.79C5931.92 3981.21 5932.82 3981.65 5933.7 3982.17C5940.22 3986.36 5946.05 3991.52 5952.41 3996.01C5955.46 3998.16 5958.7 4000.22 5962.1 4001.8C5966.14 4003.65 5970.24 4005.4 5974.71 4005.93C5978.96 4006.43 5983.33 4005.88 5987.5 4005.07C5991.11 4004.37 5994.65 4003.42 5998.07 4002.07C6005.41 3999.15 6012.47 3995.57 6019.76 3992.53C6019.82 3992.5 6019.91 3992.48 6019.97 3992.46C6019.98 3992.44 6019.98 3992.44 6020 3992.42C6026.62 3989.78 6033.33 3987.5 6040.24 3985.58C6044.74 3984.37 6049.28 3983.34 6053.9 3982.55C6056.58 3982.24 6059.27 3982.06 6061.97 3981.98C6064.8 3982.04 6067.63 3982.2 6070.44 3982.52C6073.37 3982.92 6076.21 3983.49 6079.06 3984.21C6086.21 3986.23 6093.18 3988.73 6100.41 3990.57C6103.4 3991.34 6106.43 3992.06 6109.5 3992.59C6112.57 3993.12 6115.88 3993.64 6119.01 3993.31C6121.4 3993.03 6123.9 3992.61 6126.05 3991.47C6128.47 3990.16 6130.7 3988.45 6132.15 3986.1C6133.9 3983.27 6135.15 3980.27 6136.12 3977.11C6138.36 3969.89 6139.52 3962.24 6139.32 3954.67C6139.08 3946.63 6137.15 3938.77 6132.9 3931.87C6129.41 3926.21 6124.58 3921.58 6120.68 3916.19C6120.06 3915.27 6119.52 3914.35 6118.99 3913.4C6118.57 3912.57 6118.22 3911.73 6117.87 3910.86C6117.48 3909.67 6117.15 3908.47 6116.86 3907.28C6116.58 3905.86 6116.38 3904.45 6116.23 3903.03C6116.1 3901.32 6116.08 3899.63 6116.1 3897.9C6116.4 3893.22 6117.13 3888.6 6118.05 3884.01C6120.97 3870.31 6126.1 3857.28 6130.53 3844.04C6132.85 3837.08 6134.98 3830.04 6136.76 3822.92C6138.42 3816.38 6139.87 3809.72 6142.22 3803.4C6143.11 3801.23 6144.08 3799.08 6145.2 3797C6145.9 3795.77 6146.65 3794.58 6147.48 3793.42C6148.25 3792.48 6149.04 3791.58 6149.87 3790.7C6151.12 3789.49 6152.43 3788.33 6153.8 3787.21C6155.42 3786.01 6157.06 3784.89 6158.8 3783.84C6164.48 3780.53 6170.44 3777.79 6176.45 3775.18C6176.3 3775.24 6176.16 3775.29 6176.05 3775.33C6190.24 3769.36 6204.7 3763.82 6219.48 3759.41C6222.15 3758.68 6224.83 3758 6227.53 3757.35C6229.23 3756.95 6231.17 3756.56 6232.74 3755.68C6236.93 3758.16 6241.3 3760.31 6245.92 3761.91C6251.85 3763.95 6258.32 3765.66 6264.65 3765.28C6268.47 3765.06 6272.39 3764.49 6275.86 3762.72C6279.17 3761.03 6282.13 3759.03 6284.83 3756.45C6292.44 3749.25 6296.72 3739.43 6299.48 3729.49C6300.53 3725.79 6301.39 3722.06 6302.15 3718.31C6303.31 3712.47 6304.06 3706.6 6305.13 3700.76C6305.44 3699.34 6305.75 3697.93 6306.17 3696.55C6306.5 3695.63 6306.85 3694.74 6307.24 3693.86C6307.53 3693.31 6307.83 3692.78 6308.14 3692.25C6308.31 3692.01 6308.51 3691.75 6308.69 3691.51C6308.75 3691.45 6308.78 3691.4 6308.86 3691.36C6309.1 3691.14 6309.35 3690.96 6309.61 3690.74C6309.89 3690.59 6310.16 3690.41 6310.42 3690.26C6310.88 3690.06 6311.3 3689.89 6311.74 3689.71C6312.39 3689.54 6313.03 3689.36 6313.65 3689.19C6314.61 3689.03 6315.58 3688.9 6316.54 3688.81C6318.08 3688.75 6319.63 3688.75 6321.15 3688.83C6325.03 3689.1 6328.89 3689.63 6332.77 3689.78C6336.25 3689.91 6339.89 3689.91 6343.3 3689.25C6349.26 3688.11 6354.83 3685.65 6360.01 3682.52C6370.68 3676.07 6379.52 3667.19 6388.74 3658.9C6391.85 3656.2 6395.01 3653.57 6398.4 3651.18C6398.45 3651.12 6398.54 3651.07 6398.62 3651.01C6401.45 3649.14 6404.39 3647.41 6407.44 3645.89C6410.91 3644.19 6414.44 3642.69 6418.05 3641.33C6421.63 3639.98 6425.25 3638.77 6428.8 3637.39C6437.03 3634.21 6444.83 3630.02 6453.28 3627.43C6454.28 3627.17 6455.31 3626.93 6456.32 3626.75C6456.65 3626.69 6456.96 3626.68 6457.29 3626.64C6457.35 3626.64 6457.42 3626.66 6457.49 3626.66C6457.99 3626.75 6458.51 3626.84 6459.02 3626.93C6459.92 3627.23 6460.82 3627.5 6461.72 3627.83C6463.16 3628.44 6464.55 3629.1 6465.93 3629.8C6467.66 3630.79 6469.29 3631.92 6470.93 3633.07C6477.7 3638.22 6483.74 3644.23 6490.42 3649.49C6497.25 3654.89 6504.46 3659.86 6511.3 3665.26C6519.29 3671.55 6527 3678.2 6535.32 3684.05C6542.68 3689.19 6550.51 3693.59 6558.36 3697.94C6558.36 3697.94 6558.36 3697.94 6558.34 3697.94C6558.36 3697.94 6558.36 3697.96 6558.37 3697.96C6558.45 3697.98 6558.52 3698.02 6558.58 3698.07C6558.58 3698.07 6558.58 3698.07 6558.56 3698.07C6558.61 3698.09 6558.65 3698.11 6558.7 3698.13C6558.76 3698.15 6558.82 3698.18 6558.87 3698.22C6559.04 3698.29 6559.18 3698.38 6559.35 3698.48C6559.27 3698.44 6559.2 3698.4 6559.13 3698.37C6560.87 3699.36 6562.58 3700.35 6564.24 3701.45C6564.72 3701.86 6565.21 3702.24 6565.67 3702.65C6565.98 3703 6566.3 3703.37 6566.61 3703.72C6566.78 3703.94 6566.94 3704.17 6567.09 3704.4C6567.27 3704.71 6567.44 3705.02 6567.6 3705.35C6567.68 3705.65 6567.73 3705.96 6567.79 3706.25C6567.86 3706.97 6567.9 3707.69 6567.93 3708.4C6567.91 3709.67 6567.84 3710.92 6567.69 3712.19C6567.33 3714.65 6566.81 3717.1 6566.22 3719.51C6566.19 3719.67 6566.13 3719.85 6566.09 3720.02C6566.09 3720 6566.09 3719.98 6566.09 3719.96C6564.4 3726.25 6562.51 3732.56 6562.93 3739.16C6563.39 3746.36 6565.93 3753.22 6569.88 3759.27C6573.81 3765.31 6578.93 3770.42 6584.05 3775.44C6588.67 3779.98 6593.37 3784.45 6597.93 3789.04C6600.97 3792.1 6603.96 3795.22 6607.18 3798.09C6610.76 3801.29 6614.92 3803.81 6619.35 3805.64C6629.29 3809.78 6640.21 3808.29 6650.5 3806.58C6655.28 3805.77 6660.01 3804.84 6664.79 3804.04C6669.4 3803.25 6674.03 3802.59 6678.67 3801.91C6682.8 3801.31 6686.94 3800.75 6691.02 3800C6695.98 3799.08 6700.83 3797.74 6705.72 3796.43C6705.96 3796.38 6706.22 3796.29 6706.46 3796.23C6706.63 3796.18 6706.75 3796.14 6706.9 3796.1C6706.9 3796.1 6706.9 3796.1 6706.9 3796.12C6706.92 3796.1 6706.92 3796.1 6706.94 3796.1C6707.01 3796.09 6707.07 3796.07 6707.16 3796.05C6707.14 3796.05 6707.14 3796.05 6707.12 3796.05C6708.61 3795.68 6710.12 3795.37 6711.62 3795.17C6712.32 3795.11 6713 3795.07 6713.7 3795.07C6714.75 3795.11 6715.8 3795.2 6716.86 3795.35C6717.97 3795.57 6719.05 3795.81 6720.12 3796.1C6721.09 3796.4 6722.05 3796.75 6722.99 3797.11C6723.81 3797.5 6724.6 3797.9 6725.37 3798.35C6726.7 3799.19 6727.98 3800.09 6729.23 3801.07C6732.97 3804.1 6736.42 3807.43 6739.79 3810.83C6739.49 3810.53 6739.2 3810.22 6738.92 3809.93C6746.94 3818.05 6753.63 3827.37 6761.61 3835.55C6765.23 3839.26 6769.14 3842.54 6773.33 3845.57C6776.83 3848.11 6780.32 3850.61 6783.63 3853.38C6785.01 3854.58 6786.35 3855.83 6787.62 3857.13C6788.65 3858.31 6789.62 3859.54 6790.56 3860.83C6791.84 3862.72 6793.04 3864.69 6794.18 3866.71C6797.16 3872.02 6799.79 3877.52 6802.8 3882.79C6806.22 3888.77 6809.91 3894.56 6813.9 3900.18C6816.9 3904.39 6820.12 3908.45 6823.57 3912.31C6827.14 3916.27 6831.09 3919.98 6835.7 3922.7C6840.81 3925.71 6846.75 3927.74 6852.73 3927.87C6857.65 3927.98 6862.43 3926.87 6867.12 3925.51C6872.12 3924.08 6877.01 3922.15 6880.81 3918.45C6885.45 3913.95 6888.2 3908.01 6891.31 3902.44C6891.7 3901.78 6892.1 3901.16 6892.5 3900.53C6892.61 3900.4 6892.74 3900.26 6892.85 3900.15C6892.94 3900.05 6893.04 3899.98 6893.11 3899.89C6893.22 3899.83 6893.31 3899.76 6893.4 3899.7C6893.61 3899.59 6893.83 3899.5 6894.03 3899.39C6894.47 3899.24 6894.93 3899.1 6895.39 3898.95C6896.9 3898.62 6898.42 3898.38 6899.95 3898.16C6902.74 3897.9 6905.54 3897.79 6908.37 3897.79C6915.61 3897.99 6922.74 3898.95 6929.97 3899.32C6936.58 3899.65 6943.11 3899.41 6949.69 3898.58C6954.18 3898.03 6958.66 3897.33 6963.05 3896.19C6967.1 3895.16 6971.01 3893.71 6974.93 3892.28C6983.09 3889.28 6991.42 3886.74 6999.58 3883.77C7003.37 3882.37 7007.04 3880.88 7010.61 3879.01C7014.49 3876.98 7018.11 3874.3 7021.2 3871.21C7025.17 3867.32 7028.27 3862.74 7031.29 3858.07C7034.14 3853.69 7036.8 3849.23 7039.67 3844.83C7039.69 3844.8 7039.73 3844.76 7039.74 3844.72C7039.8 3844.63 7039.84 3844.58 7039.89 3844.5C7039.87 3844.52 7039.84 3844.56 7039.82 3844.6C7039.91 3844.43 7040.02 3844.28 7040.11 3844.12C7040.04 3844.23 7039.98 3844.37 7039.89 3844.5C7041.78 3841.76 7043.73 3839.06 7045.83 3836.51C7047.57 3834.54 7049.39 3832.65 7051.34 3830.86C7052.5 3829.85 7053.73 3828.92 7054.96 3828C7056.21 3827.19 7057.48 3826.4 7058.82 3825.7C7060.04 3825.11 7061.25 3824.58 7062.5 3824.1C7063.79 3823.68 7065.07 3823.33 7066.4 3823.01C7067.34 3822.87 7068.24 3822.76 7069.17 3822.65C7070.02 3822.61 7070.83 3822.59 7071.65 3822.63C7072.63 3822.7 7073.57 3822.85 7074.5 3823.01C7075.77 3823.31 7077 3823.64 7078.24 3824.04C7079.63 3824.56 7081.03 3825.15 7082.41 3825.77C7083.51 3826.36 7084.6 3826.99 7085.68 3827.63C7087.94 3829.15 7090.06 3830.81 7092.11 3832.57C7096.86 3836.71 7101.45 3841.07 7106.47 3844.87C7109.04 3846.84 7111.73 3848.69 7114.56 3850.31C7116.91 3851.64 7119.32 3852.81 7121.86 3853.71C7123.88 3854.41 7125.96 3854.87 7128.07 3855.2C7134.83 3856.23 7141.71 3856.08 7148.49 3855.2C7152.2 3854.72 7155.9 3854.1 7159.61 3853.53C7164.3 3852.81 7168.97 3852.24 7173.68 3851.89C7180.35 3851.45 7187.04 3851.32 7193.73 3850.85C7197.3 3850.61 7200.83 3850.39 7204.34 3849.8C7207.83 3849.23 7211.3 3848.47 7214.76 3847.78C7214.32 3847.87 7213.89 3847.96 7213.45 3848.05C7217.74 3847.22 7222.09 3846.43 7226.47 3846.12C7227.76 3846.07 7229.02 3846.07 7230.29 3846.14C7231.1 3846.23 7231.89 3846.36 7232.68 3846.51C7233.38 3846.69 7234.08 3846.87 7234.76 3847.11C7237.42 3848.2 7239.94 3849.65 7242.59 3850.81C7245.77 3852.21 7249.11 3853.16 7252.57 3853.53C7259.22 3854.25 7265.9 3853.49 7272.55 3853.29C7277.22 3853.2 7281.89 3853.35 7286.54 3853.47C7292.15 3853.6 7297.7 3853.38 7302.94 3851.14C7309.35 3848.38 7314.89 3844.45 7320.33 3840.13C7320.16 3840.26 7320.01 3840.37 7319.87 3840.5C7321.32 3839.34 7322.79 3838.18 7324.26 3837.04C7326.41 3835.44 7328.62 3833.93 7330.93 3832.54C7332.75 3831.53 7334.65 3830.61 7336.58 3829.78C7338.43 3829.04 7340.33 3828.42 7342.24 3827.87C7344.65 3827.26 7347.09 3826.76 7349.55 3826.4C7352.11 3826.1 7354.7 3825.96 7357.29 3825.94C7360.58 3825.97 7363.87 3826.18 7367.16 3826.58C7375.91 3827.92 7384.57 3830.29 7393.08 3832.68C7392.97 3832.65 7392.84 3832.63 7392.71 3832.59C7392.62 3832.55 7392.53 3832.54 7392.44 3832.52C7392.53 3832.55 7392.62 3832.55 7392.71 3832.59C7399.22 3834.47 7405.66 3836.58 7412.07 3838.79C7419.35 3841.27 7426.74 3843.55 7434.31 3844.94C7442.46 3846.43 7450.75 3847.28 7459.04 3846.8C7464.74 3846.47 7470.27 3845.48 7475.73 3843.86C7479.9 3842.65 7483.96 3841.14 7488.12 3839.93C7488.58 3839.8 7489.04 3839.72 7489.5 3839.63C7489.59 3839.61 7489.72 3839.61 7489.81 3839.6C7489.83 3839.6 7489.83 3839.6 7489.83 3839.6C7489.92 3839.61 7489.99 3839.61 7490.07 3839.63C7490.16 3839.67 7490.25 3839.71 7490.34 3839.72C7490.51 3839.8 7490.69 3839.89 7490.86 3839.96C7491.11 3840.13 7491.37 3840.31 7491.63 3840.5C7491.89 3840.7 7492.16 3840.94 7492.42 3841.16C7492.75 3841.53 7493.1 3841.89 7493.41 3842.28C7494.02 3843.09 7494.61 3843.95 7495.16 3844.82C7496.59 3847.37 7497.84 3850.02 7498.98 3852.68V3852.66C7499 3852.68 7499 3852.7 7499 3852.72C7498.98 3852.68 7498.98 3852.66 7498.98 3852.63C7499.02 3852.76 7499.05 3852.85 7499.13 3852.98C7499.09 3852.92 7499.07 3852.85 7499.04 3852.81C7499.09 3852.94 7499.13 3853.05 7499.2 3853.18C7499.2 3853.16 7499.2 3853.16 7499.2 3853.14C7499.2 3853.16 7499.22 3853.18 7499.22 3853.18C7499.22 3853.2 7499.24 3853.22 7499.24 3853.23C7499.28 3853.33 7499.31 3853.4 7499.35 3853.47C7500.86 3856.93 7502.29 3860.38 7503.65 3863.88C7505.07 3867.43 7506.48 3871.03 7507.62 3874.69C7507.86 3875.62 7508.1 3876.58 7508.28 3877.55C7508.36 3878.36 7508.43 3879.19 7508.47 3880.02C7508.41 3881.67 7508.3 3883.29 7508.1 3884.96C7507.66 3887.98 7507.03 3890.94 7506.26 3893.86C7506.32 3893.68 7506.37 3893.49 7506.41 3893.31C7506.35 3893.55 7506.28 3893.77 7506.22 3894.01C7506.22 3893.95 7506.24 3893.91 7506.24 3893.86C7506.22 3893.93 7506.22 3893.99 7506.19 3894.06C7506.19 3894.08 7506.19 3894.1 7506.19 3894.13C7506.19 3894.12 7506.19 3894.08 7506.19 3894.06C7506.21 3894.04 7506.21 3894.02 7506.21 3894.02C7506.21 3894.08 7506.17 3894.13 7506.15 3894.21C7506.15 3894.19 7506.17 3894.15 7506.17 3894.13C7506.17 3894.15 7506.17 3894.19 7506.13 3894.21C7506.15 3894.21 7506.15 3894.21 7506.15 3894.21C7503.3 3904.21 7499.44 3913.95 7499.37 3924.52C7499.35 3929.37 7499.92 3934.12 7501.26 3938.8C7502.93 3944.61 7506.22 3949.57 7509.24 3954.74C7509.28 3954.83 7509.35 3954.92 7509.39 3955.02C7510.32 3956.69 7511.22 3958.38 7512 3960.13C7512.25 3960.75 7512.46 3961.41 7512.66 3962.06C7512.82 3962.77 7512.97 3963.49 7513.1 3964.21C7513.23 3965.36 7513.28 3966.5 7513.32 3967.66C7513.25 3969.87 7513.08 3972.04 7512.88 3974.21C7512.57 3977.17 7512.27 3980.11 7512.01 3983.09C7512.03 3982.64 7512.09 3982.2 7512.11 3981.8C7511.46 3989.79 7511.77 3997.72 7513.63 4005.55C7514.53 4009.3 7515.6 4013.1 7517.18 4016.61C7519 4020.64 7521.3 4024.33 7524.11 4027.75C7529.59 4034.43 7537.11 4039.39 7545.01 4042.73C7548.52 4044.22 7552.07 4045.58 7555.73 4046.67C7558.34 4047.48 7560.97 4048.14 7563.59 4048.91C7563.83 4049 7564.07 4049.1 7564.31 4049.19C7564.53 4049.3 7564.73 4049.43 7564.95 4049.55C7565.39 4049.87 7565.86 4050.22 7566.3 4050.57C7566.59 4050.88 7566.92 4051.17 7567.22 4051.48C7567.82 4052.18 7568.39 4052.9 7568.96 4053.65C7570.38 4055.8 7571.63 4058.05 7572.8 4060.31C7572.6 4059.92 7572.42 4059.54 7572.22 4059.17C7574.92 4064.41 7577.47 4069.76 7580.84 4074.63C7583.8 4078.87 7587.21 4082.66 7590.38 4086.72C7590.73 4087.22 7591.04 4087.7 7591.35 4088.19C7591.39 4088.25 7591.41 4088.32 7591.44 4088.38C7592.88 4092.59 7594.16 4096.85 7595.25 4101.19C7596.3 4105.69 7597.12 4110.2 7597.75 4114.77C7598.41 4119.37 7598.91 4124 7599.57 4128.62C7600.17 4132.77 7600.85 4136.89 7601.7 4140.99C7602.73 4145.93 7604.16 4150.75 7605.27 4155.66C7605.28 4155.69 7605.27 4155.73 7605.28 4155.78C7605.12 4156.08 7604.95 4156.35 7604.77 4156.65C7604.14 4157.51 7603.48 4158.32 7602.8 4159.15V4159.17C7602.78 4159.18 7602.78 4159.18 7602.77 4159.2C7602.71 4159.28 7602.64 4159.35 7602.6 4159.41C7600.84 4161.26 7598.96 4163.03 7597.03 4164.68C7592.31 4168.58 7587.34 4172.13 7582.16 4175.4C7566.74 4184.81 7550.69 4193.28 7534.53 4201.46C7528.04 4204.74 7521.55 4208.04 7515.21 4211.65C7509.73 4214.75 7504.5 4218.1 7499.86 4222.4C7491.43 4230.27 7485.05 4239.83 7480.51 4250.38C7478.76 4254.46 7477.27 4258.63 7475.82 4262.84C7474.35 4267.12 7472.75 4271.35 7470.97 4275.54C7471.06 4275.38 7471.11 4275.23 7471.17 4275.06C7471.1 4275.23 7471.04 4275.4 7470.97 4275.56C7470.97 4275.54 7470.97 4275.54 7470.97 4275.54C7470.95 4275.6 7470.91 4275.67 7470.88 4275.74L7470.89 4275.73C7470.89 4275.73 7470.88 4275.74 7470.88 4275.76C7470.88 4275.74 7470.88 4275.74 7470.88 4275.74C7470.88 4275.74 7470.88 4275.76 7470.86 4275.78C7469.81 4278.19 7468.71 4280.56 7467.47 4282.9C7465.99 4285.54 7464.35 4288.06 7462.57 4290.49C7456.43 4298.45 7448.82 4305.36 7444.11 4314.37C7444.18 4314.18 7444.28 4314.02 7444.37 4313.83C7444.18 4314.22 7443.98 4314.59 7443.8 4314.95C7443.91 4314.75 7444 4314.57 7444.11 4314.37C7435.97 4330.98 7438.73 4350.28 7443.95 4367.38C7445.25 4371.68 7446.72 4375.93 7448.36 4380.14C7450.42 4385.39 7453.04 4390.43 7455.78 4395.36C7459.88 4402.73 7464.55 4409.75 7468.45 4417.23C7468.89 4418.09 7469.31 4419 7469.74 4419.88C7468.71 4421.18 7467.58 4422.45 7466.37 4423.65C7458.8 4431.11 7449.85 4437.01 7441.02 4442.89C7441.37 4442.65 7441.7 4442.43 7442.05 4442.19C7438.71 4444.44 7435.34 4446.68 7431.98 4448.9C7432.2 4448.76 7432.4 4448.61 7432.6 4448.48C7432.35 4448.65 7432.09 4448.83 7431.85 4449C7431.83 4449.01 7431.78 4449.05 7431.74 4449.07C7431.76 4449.07 7431.76 4449.05 7431.78 4449.05C7431.21 4449.44 7430.62 4449.82 7430.05 4450.21C7427.11 4452.23 7424.2 4454.31 7421.46 4456.62C7418.93 4458.92 7416.5 4461.37 7414.24 4463.94C7412.53 4465.98 7410.93 4468.06 7409.42 4470.26C7406.63 4474.69 7404.3 4479.38 7401.57 4483.87C7398.54 4488.88 7395.1 4493.66 7391.87 4498.55C7388.58 4503.7 7385.44 4508.99 7382.55 4514.38C7379.65 4519.8 7377.13 4525.41 7374.13 4530.76C7370.75 4536.77 7366.37 4542.08 7361.23 4546.66C7355.6 4551.64 7349.09 4555.46 7342.39 4558.77C7334.46 4562.6 7326.25 4565.52 7317.9 4568.28C7310.46 4570.72 7302.97 4573.09 7295.57 4575.63C7295.99 4575.48 7296.41 4575.33 7296.83 4575.19C7287.35 4578.44 7277.96 4581.73 7268.97 4586.14C7269.39 4585.96 7269.81 4585.76 7270.24 4585.54C7267.57 4586.9 7264.98 4588.35 7262.42 4589.93C7261.49 4590.61 7260.59 4591.33 7259.67 4592.06C7259.15 4592.56 7258.65 4593.07 7258.18 4593.59C7256.85 4595.21 7255.57 4596.82 7254.37 4598.53C7252.77 4601.22 7251.36 4603.99 7249.98 4606.79C7247.77 4611.53 7245.71 4616.33 7243.4 4621.03C7240.82 4626.27 7237.96 4631.27 7234.74 4636.14C7235.02 4635.7 7235.31 4635.28 7235.59 4634.84C7233.01 4638.77 7230.24 4642.52 7227.13 4646.09C7224.96 4648.57 7222.74 4651.01 7220.4 4653.38C7217.64 4656.2 7214.67 4658.75 7211.69 4661.33C7206.32 4665.99 7200.38 4669.91 7194.39 4673.71C7189.24 4677.01 7183.97 4680.15 7178.66 4683.18C7174.67 4685.46 7170.46 4687.37 7166.56 4689.85C7166.16 4690.11 7165.79 4690.42 7165.4 4690.72C7163.95 4692.12 7162.61 4693.64 7161.21 4695.13C7158.9 4697.57 7156.45 4699.95 7154.17 4702.46C7153.2 4703.64 7152.26 4704.87 7151.36 4706.14C7148.22 4711.1 7145.5 4716.29 7142.09 4721.1C7138.69 4725.96 7134.47 4730.15 7130.07 4734.08C7130.09 4734.08 7130.09 4734.06 7130.11 4734.06C7126.19 4737.54 7122.06 4740.64 7117.83 4743.71C7114.87 4745.86 7111.86 4747.96 7109.06 4750.29C7108.07 4751.2 7107.13 4752.13 7106.25 4753.11C7105.46 4754.08 7104.69 4755.09 7103.99 4756.12C7103.36 4757.15 7102.78 4758.18 7102.21 4759.25C7101.6 4760.63 7101.07 4762 7100.59 4763.42C7099.98 4765.44 7099.39 4767.46 7098.79 4769.49C7098.36 4770.9 7097.92 4772.32 7097.43 4773.71C7096.08 4777.5 7093.35 4780.85 7090.28 4783.4C7086.65 4786.43 7082.43 4788.68 7077.94 4790.18C7077.76 4790.64 7077.56 4791.08 7077.35 4791.54C7077.37 4791.51 7077.37 4791.49 7077.41 4791.45C7077.39 4791.51 7077.35 4791.56 7077.34 4791.62C7077.26 4791.76 7077.19 4791.93 7077.11 4792.1C7077.17 4791.95 7077.26 4791.8 7077.32 4791.65C7076.12 4794.04 7074.71 4796.08 7072.89 4798.09C7070.61 4800.61 7067.74 4802.83 7065 4804.8C7061.05 4807.63 7056.82 4810 7052.76 4812.65C7048.81 4815.35 7044.95 4818.18 7041.07 4820.97C7038.22 4823 7035.3 4824.76 7032.19 4826.32C7032.69 4827.11 7033.16 4827.9 7033.62 4828.75C7034.73 4830.73 7035.52 4832.81 7036.4 4834.89C7036.53 4834.96 7036.64 4835.05 7036.77 4835.15C7038.07 4835.92 7039.45 4836.63 7040.81 4837.3C7042.98 4838.31 7045.18 4839.26 7047.3 4840.42C7049.6 4841.63 7051.71 4843.23 7053.68 4844.93C7055.96 4846.87 7057.94 4849.02 7059.89 4851.25C7062.76 4850.4 7065.59 4849.3 7068.44 4848.45C7072.56 4847.22 7076.76 4846.23 7081.03 4845.68C7085.28 4845.11 7089.63 4845 7093.92 4845.49C7098.88 4846.06 7103.73 4847.76 7108.42 4849.45C7113.31 4851.21 7118.16 4853.22 7122.68 4855.81C7127.39 4858.55 7131.27 4862.19 7134.58 4866.47C7139.74 4873.16 7141.47 4881.47 7145.02 4888.99C7146.19 4891.27 7147.55 4893.44 7148.99 4895.57C7150.05 4897.09 7151.16 4898.56 7152.39 4899.98C7153.68 4901.36 7155.02 4902.68 7156.38 4903.97C7159.65 4906.73 7163.07 4909.28 7166.62 4911.65C7178.18 4918.93 7190.29 4925.36 7202.59 4931.3C7207.41 4933.54 7212.24 4935.75 7217.02 4938.05C7219.59 4936.15 7222.13 4934.22 7224.76 4932.37C7228.21 4929.92 7231.8 4927.7 7235.38 4925.53C7238.66 4923.56 7241.98 4921.73 7245.35 4919.92C7247.63 4918.69 7249.92 4917.52 7252.13 4916.17C7252.22 4915.14 7252.31 4914.11 7252.5 4913.09C7253.29 4908.42 7255.11 4904.39 7257.85 4900.49C7259.22 4898.55 7260.93 4896.69 7262.57 4894.96C7264.21 4893.27 7265.95 4891.65 7267.88 4890.24C7271.36 4887.66 7275.49 4885.97 7279.48 4884.37C7283.34 4882.85 7287.28 4881.32 7291.37 4880.55C7295.97 4879.69 7300.66 4879.41 7305.33 4879.17C7311.37 4878.86 7317.42 4878.93 7323.45 4878.8C7323.47 4878.66 7323.47 4878.51 7323.51 4878.36C7324.08 4873.36 7325.9 4868.66 7329.35 4864.92C7335.57 4858.25 7344.98 4857.52 7353.49 4858.31C7359.55 4858.86 7364.57 4861.89 7369.54 4865.13C7371.92 4866.67 7374.22 4868.33 7376.56 4869.92C7378.4 4871.17 7380.29 4872.39 7381.98 4873.86C7383.21 4874.92 7384.41 4876.03 7385.62 4877.09C7389.9 4880.7 7394.59 4883.71 7398.4 4887.85C7402.26 4892.04 7405.77 4896.56 7408.74 4901.41C7410.16 4903.77 7411.35 4906.21 7412.09 4908.86C7412.73 4911.19 7413.01 4913.77 7412.68 4916.17C7412.07 4920.47 7409.74 4924 7406.26 4926.54C7401.76 4929.85 7396.26 4931.72 7391.08 4933.71C7386.26 4935.53 7381.41 4937.31 7376.58 4939.08C7367.2 4942.5 7357.77 4945.92 7347.95 4947.86C7342.4 4948.95 7336.63 4949.06 7330.99 4949.19C7325.2 4949.32 7319.37 4949.24 7313.6 4949.57C7307.31 4950.13 7301.1 4951.15 7294.89 4952.4C7294.9 4952.39 7294.9 4952.39 7294.9 4952.39C7294.19 4952.53 7293.45 4952.66 7292.72 4952.83C7293.18 4952.74 7293.62 4952.64 7294.04 4952.57C7291.01 4953.21 7287.96 4954.02 7284.98 4954.98C7283.91 4955.38 7282.88 4955.79 7281.85 4956.25C7281.3 4956.54 7280.73 4956.85 7280.18 4957.18C7279.45 4957.7 7278.76 4958.23 7278.07 4958.8C7277.55 4959.3 7277.04 4959.81 7276.54 4960.33C7275.88 4961.15 7275.24 4961.98 7274.63 4962.85C7274.26 4963.47 7273.91 4964.1 7273.58 4964.72C7273.51 4964.87 7273.43 4965.01 7273.36 4965.16C7273.43 4965.01 7273.51 4964.85 7273.58 4964.72C7271.6 4969.04 7269.94 4973.47 7268.45 4977.96C7266.23 4985.09 7264.35 4992.28 7262.68 4999.55C7260.95 5007.15 7259.35 5014.76 7257.26 5022.26C7256.65 5024.37 7256.01 5026.47 7255.24 5028.51C7253.78 5032.33 7251.49 5035.49 7248.65 5038.4C7244.28 5042.9 7238.01 5045.75 7232.17 5047.88C7223.93 5050.88 7215.55 5053.45 7207.22 5056.23C7202.52 5057.88 7197.9 5059.61 7193.36 5061.67C7189.46 5063.69 7185.71 5065.97 7182.04 5068.36C7180.03 5069.81 7178.09 5071.35 7176.16 5072.94C7175.04 5073.98 7173.93 5075.07 7172.88 5076.23C7171.67 5077.73 7170.49 5079.28 7169.35 5080.89C7168.12 5082.84 7167 5084.88 7165.92 5086.92C7165.88 5087 7165.86 5087.07 7165.83 5087.16C7165.83 5087.14 7165.83 5087.14 7165.83 5087.14C7165.83 5087.16 7165.81 5087.18 7165.81 5087.2C7165.81 5087.22 7165.77 5087.24 7165.77 5087.25C7164.83 5089.26 7164.02 5091.3 7163.29 5093.39C7162.11 5097.2 7161.32 5101.12 7160.59 5105.05C7160.66 5104.68 7160.73 5104.28 7160.81 5103.91C7159.58 5111.1 7159.15 5118.32 7158.23 5125.53C7157.22 5133.63 7154.61 5141.24 7151.41 5148.72C7148.38 5155.8 7144.96 5162.66 7141.95 5169.74C7140.51 5173.14 7139.36 5176.68 7137.85 5180.05C7136.08 5183.94 7134.06 5187.6 7131.76 5191.21C7128.4 5196.3 7124.28 5200.89 7119.76 5205.03C7114.76 5209.61 7108.38 5212.64 7102.19 5215.29C7099.32 5216.5 7096.34 5217.44 7093.25 5218.08C7089.72 5218.82 7086.27 5218.87 7082.65 5218.65C7079.78 5218.48 7076.75 5217.62 7073.97 5216.9C7071.14 5216.19 7068.35 5215.23 7065.57 5214.31C7060.96 5212.84 7056.31 5211.63 7051.56 5210.69C7044.47 5209.51 7037.34 5208.67 7030.2 5207.68C7024.82 5206.94 7019.54 5205.73 7014.21 5204.7C7011.34 5204.2 7008.46 5203.85 7005.9 5202.36C7002.48 5200.38 7000.08 5196.81 6999.52 5192.88C6999.01 5189.16 6999.97 5185.4 7001.49 5182.03C7004.45 5175.56 7008.03 5169.44 7011.2 5163.04C7011.62 5162.13 7011.99 5161.21 7012.34 5160.25C7012.46 5159.7 7012.63 5159.17 7012.72 5158.61C7012.7 5158.76 7012.67 5158.94 7012.65 5159.09C7013.16 5156.33 7013.75 5153.6 7015.55 5151.3C7018.86 5147.03 7023.68 5144.88 7028.92 5143.98C7029.52 5143.87 7030.13 5143.78 7030.77 5143.69C7028.05 5140.1 7025.39 5136.46 7023.38 5132.42C7019.51 5124.57 7017.78 5115.91 7015.04 5107.62C7013.27 5102.57 7011.34 5097.57 7009.03 5092.75C7008.55 5091.81 7008.02 5090.91 7007.47 5090.05C7007.1 5089.55 7006.71 5089.06 7006.33 5088.58C7005.96 5088.21 7005.57 5087.84 7005.2 5087.49C7004.54 5086.96 7003.86 5086.46 7003.18 5085.99C7001.64 5085.01 7000.02 5084.11 6998.37 5083.3C6996.69 5082.55 6995.02 5081.89 6993.29 5081.3C6991.21 5080.67 6989.12 5080.1 6986.99 5079.68C6986.14 5079.53 6985.3 5079.42 6984.45 5079.37C6983.73 5079.35 6983.05 5079.35 6982.35 5079.39C6981.73 5079.46 6981.12 5079.57 6980.5 5079.66C6979.89 5079.81 6979.32 5079.98 6978.75 5080.14C6977.12 5080.75 6975.55 5081.43 6973.97 5082.16C6970.79 5083.82 6967.74 5085.77 6964.71 5087.7C6961.2 5089.94 6957.56 5091.74 6953.59 5093.03C6948.81 5094.61 6943.57 5095.36 6938.59 5095.84C6933.13 5096.34 6927.65 5096.72 6922.19 5096.59C6911.47 5096.35 6900.94 5095.27 6890.37 5093.63C6880.72 5092.13 6871.14 5089.88 6861.4 5089.11C6860.46 5089.09 6859.51 5089.09 6858.57 5089.13C6858.17 5089.17 6857.76 5089.22 6857.38 5089.3C6856.86 5089.41 6856.33 5089.57 6855.83 5089.72C6852.61 5090.82 6849.47 5091.98 6846.09 5092.59C6842.71 5093.21 6839.21 5093.28 6835.8 5092.92C6831.81 5092.44 6828.06 5091.17 6824.47 5089.37C6820.87 5087.59 6818.06 5084.61 6816.22 5081.06C6811.9 5071.61 6817.34 5060.58 6823.28 5053.06C6829.51 5045.22 6837.08 5038.87 6844.6 5032.31C6844.6 5032.33 6844.58 5032.33 6844.58 5032.35C6844.95 5032.02 6845.3 5031.69 6845.68 5031.37C6853.07 5024.83 6860.59 5018.23 6867.19 5010.91C6867.17 5010.95 6867.12 5010.99 6867.1 5011.04C6871.09 5006.36 6874.77 5001.39 6878.39 4996.45C6881.66 4992 6884.93 4987.57 6887.98 4982.99C6891.44 4977.62 6894.69 4972.22 6898.83 4967.35C6901.46 4964.26 6904.16 4961.32 6907.23 4958.65C6910.19 4956.1 6913.28 4953.69 6916.25 4951.15C6919.18 4948.51 6921.95 4945.71 6924.56 4942.79C6926.07 4940.95 6927.47 4939.04 6928.81 4937.06C6932.26 4931.78 6935.43 4926.38 6938.18 4920.68C6939.23 4918.45 6940.26 4916.16 6941.07 4913.8C6941.22 4913.32 6941.33 4912.83 6941.44 4912.35C6941.49 4911.91 6941.57 4911.5 6941.6 4911.06C6941.6 4910.77 6941.58 4910.51 6941.58 4910.24C6941.53 4909.91 6941.49 4909.59 6941.44 4909.26C6941.36 4908.99 6941.29 4908.69 6941.22 4908.4C6941.14 4908.25 6941.09 4908.09 6941.01 4907.96C6939.12 4904.57 6936.71 4901.49 6934.73 4898.18C6933.13 4895.46 6931.8 4892.55 6930.98 4889.5C6930.06 4886.05 6929.86 4882.59 6930.02 4879.06C6930.1 4878.09 6930.17 4877.13 6930.28 4876.16C6928.75 4876.58 6927.25 4877.02 6925.76 4877.52C6920.61 4879.37 6915.52 4881.49 6910.61 4883.9C6910.63 4883.88 6910.63 4883.88 6910.65 4883.86C6908.37 4885.02 6906.05 4886.19 6903.86 4887.5C6903.22 4889.85 6902.72 4892.26 6901.88 4894.54C6897.98 4905 6885.7 4905.62 6876.2 4906.01C6864.27 4906.51 6852.41 4905.22 6840.52 4904.5C6839.51 4904.46 6838.5 4904.45 6837.51 4904.46C6836.95 4904.52 6836.42 4904.59 6835.89 4904.68C6835.69 4904.78 6835.46 4904.87 6835.24 4904.96C6834.58 4905.33 6833.92 4905.7 6833.3 4906.1C6832.67 4906.56 6832.08 4907.04 6831.49 4907.53C6828.74 4910.14 6826.22 4912.94 6823.72 4915.77C6820.35 4919.68 6817.16 4923.75 6813.26 4927.18C6807.87 4931.89 6801.46 4934.7 6794.69 4936.85C6784.88 4939.98 6774.36 4941.36 6764.12 4942.26C6753.02 4943.27 6741.9 4943.67 6730.76 4943.67C6720.32 4943.67 6709.88 4943.23 6699.46 4942.92C6689.62 4942.61 6679.7 4942.2 6669.86 4942.81C6666.63 4943.08 6663.45 4943.65 6660.23 4943.91C6657.45 4944.15 6654.79 4944.11 6652.03 4943.6C6649.16 4943.05 6646.57 4941.82 6644.13 4940.27C6642.25 4939 6640.65 4937.57 6639.22 4935.77C6636.53 4932.35 6635.63 4928.2 6635.73 4923.91C6635.8 4920.31 6636.5 4916.85 6637.88 4913.53C6638.8 4911.3 6640.03 4909.15 6641.17 4907.04C6644.24 4901.34 6647.38 4895.64 6650.25 4889.8C6650.78 4888.64 6651.28 4887.48 6651.75 4886.3C6653.72 4881.6 6656.99 4878.14 6660.84 4874.94C6663.46 4872.77 6666.29 4870.84 6669.24 4869.08C6670.8 4868.12 6672.43 4867.26 6674 4866.3C6674.16 4866.19 6674.31 4866.06 6674.49 4865.94C6674.6 4865.83 6674.71 4865.7 6674.84 4865.59C6675.17 4865.16 6675.49 4864.72 6675.8 4864.28C6677.27 4862.02 6678.7 4859.76 6680.32 4857.59C6680.04 4857.61 6679.75 4857.63 6679.47 4857.65C6677.21 4857.87 6674.99 4858.23 6672.75 4858.66C6670.32 4859.19 6667.91 4859.76 6665.54 4860.51C6663.04 4861.41 6660.63 4862.46 6658.24 4863.6C6653.78 4865.88 6649.44 4868.49 6644.82 4870.42C6638.61 4873.03 6631.72 4873.58 6625.1 4874.78C6623.13 4875.18 6621.19 4875.6 6619.24 4876.19C6619.05 4876.27 6618.89 4876.32 6618.72 4876.39C6618.72 4876.39 6618.72 4876.4 6618.72 4876.41C6618.59 4876.51 6618.48 4876.65 6618.35 4876.76C6617.91 4877.31 6617.49 4877.9 6617.09 4878.49C6616.28 4879.76 6615.51 4881.06 6614.7 4882.35C6612.47 4885.84 6610.06 4888.8 6606.68 4891.3C6599.88 4896.3 6591.33 4898.67 6583.23 4900.7C6569.15 4904.23 6554.66 4906.1 6540.4 4908.88C6536.74 4909.65 6533.12 4910.53 6529.57 4911.71C6527.46 4912.48 6525.43 4913.36 6523.39 4914.32C6518.54 4916.78 6513.89 4919.48 6509.33 4922.42C6506.9 4924.15 6504.53 4925.9 6502.25 4927.81C6502.2 4927.86 6502.13 4927.9 6502.05 4927.97C6501.1 4928.86 6500.18 4929.81 6499.29 4930.79C6498.47 4931.85 6497.68 4932.94 6496.9 4934.06C6496.57 4934.63 6496.24 4935.2 6495.95 4935.79C6495.8 4936.41 6495.65 4937.06 6495.53 4937.7C6495.45 4938.31 6495.38 4938.89 6495.32 4939.5C6495.32 4939.83 6495.34 4940.18 6495.34 4940.51C6495.45 4941.45 6495.58 4942.35 6495.75 4943.29C6497.58 4950.88 6500.49 4958.16 6502.44 4965.69C6504.63 4974.22 6505.89 4982.79 6506.24 4991.58C6506.63 5000.73 6504.55 5010.16 6501.22 5018.63C6497.88 5027.13 6493.16 5034.96 6488.17 5042.55C6488.3 5042.37 6488.43 5042.18 6488.56 5042C6485.54 5046.58 6482.48 5051.1 6479.13 5055.42C6476.34 5059.02 6473.41 5062.53 6470.55 5066.12C6464.26 5074.02 6458.01 5081.96 6451.37 5089.59C6451.74 5089.19 6452.09 5088.78 6452.46 5088.36C6451.23 5089.75 6450.03 5091.13 6448.8 5092.53C6449.17 5092.13 6449.52 5091.7 6449.88 5091.3C6441.08 5101.43 6432.16 5111.39 6421.45 5119.55C6411.02 5127.47 6399.72 5134.37 6387.99 5140.21C6386.37 5141 6384.76 5141.74 6383.14 5142.44C6383.75 5144.68 6384.43 5146.89 6385.14 5149.09C6386.5 5152.71 6387.97 5156.24 6389.65 5159.72C6390.82 5161.98 6392 5164.31 6393.4 5166.43C6393.47 5166.54 6393.54 5166.65 6393.62 5166.74C6395.16 5169.04 6396.87 5171.21 6398.65 5173.32C6399.98 5174.77 6401.37 5176.11 6402.86 5177.44C6403.58 5178.04 6404.33 5178.6 6405.07 5179.15C6407.73 5180.78 6410.53 5182.14 6413.27 5183.63C6417.44 5185.93 6420.84 5189.28 6423.06 5193.47C6425.64 5198.28 6426.12 5203.72 6426.37 5209.07C6426.48 5211.35 6426.46 5213.65 6426.39 5215.95C6418.87 5214.95 6411.3 5214.33 6403.71 5213.94C6395.14 5213.48 6386.58 5213.1 6378.01 5212.77C6371.26 5212.51 6364.5 5212.18 6357.75 5212.07C6349.83 5211.94 6341.74 5212.95 6334.35 5215.95C6326.17 5219.27 6318.49 5223.69 6311.21 5228.61C6300.68 5235.74 6291.04 5243.92 6281.52 5252.33C6281.84 5252.05 6282.15 5251.79 6282.46 5251.5C6276.36 5256.83 6270.16 5261.94 6263.51 5266.53C6260.07 5268.85 6256.54 5271.06 6253.03 5273.26C6249.74 5275.34 6246.47 5277.49 6243.03 5279.31C6241.95 5279.82 6240.88 5280.3 6239.78 5280.73C6239.48 5280.82 6239.17 5280.91 6238.88 5280.98C6238.6 5281.04 6238.34 5281.07 6238.07 5281.11C6237.99 5281.11 6237.88 5281.13 6237.79 5281.11C6237.52 5281.09 6237.26 5281.07 6237 5281.04C6235.37 5280.91 6233.84 5280.49 6232.31 5280.01Z"
        fill="#2D4159"/>
</svg>